<?xml version="1.0" encoding="utf-8"?>
<svg version="1.1" xmlns:xlink="http://www.w3.org/1999/xlink" width="12px" height="12px" viewBox="816 484  12 12" xmlns="http://www.w3.org/2000/svg">
  <path d="M 822 484  C 825.36 484  828 486.64  828 490  C 828 493.36  825.36 496  822 496  C 818.64 496  816 493.36  816 490  C 816 486.64  818.64 484  822 484  Z " fill-rule="nonzero" fill="#ffffff" stroke="none" />
  <path d="M 822 484.5  C 825.08 484.5  827.5 486.92  827.5 490  C 827.5 493.08  825.08 495.5  822 495.5  C 818.92 495.5  816.5 493.08  816.5 490  C 816.5 486.92  818.92 484.5  822 484.5  Z " stroke-width="1" stroke="#797979" fill="none" />
  <path d="M 822 493  C 820.32 493  819 491.68  819 490  C 819 488.32  820.32 487  822 487  C 823.68 487  825 488.32  825 490  C 825 491.68  823.68 493  822 493  " fill-rule="nonzero" fill="#797979" stroke="none" />
</svg>