<?xml version="1.0" encoding="utf-8"?>
<svg version="1.1" xmlns:xlink="http://www.w3.org/1999/xlink" width="12px" height="12px" viewBox="702 578  12 12" xmlns="http://www.w3.org/2000/svg">
  <path d="M 708 578  C 711.36 578  714 580.64  714 584  C 714 587.36  711.36 590  708 590  C 704.64 590  702 587.36  702 584  C 702 580.64  704.64 578  708 578  Z " fill-rule="nonzero" fill="#ffffff" stroke="none" />
  <path d="M 708 578.5  C 711.08 578.5  713.5 580.92  713.5 584  C 713.5 587.08  711.08 589.5  708 589.5  C 704.92 589.5  702.5 587.08  702.5 584  C 702.5 580.92  704.92 578.5  708 578.5  Z " stroke-width="1" stroke="#797979" fill="none" />
  <path d="M 708 587  C 706.32 587  705 585.68  705 584  C 705 582.32  706.32 581  708 581  C 709.68 581  711 582.32  711 584  C 711 585.68  709.68 587  708 587  " fill-rule="nonzero" fill="#797979" stroke="none" />
</svg>