<?xml version="1.0" encoding="utf-8"?>
<svg version="1.1" xmlns:xlink="http://www.w3.org/1999/xlink" width="12px" height="12px" viewBox="704 420  12 12" xmlns="http://www.w3.org/2000/svg">
  <path d="M 710 420  C 713.36 420  716 422.64  716 426  C 716 429.36  713.36 432  710 432  C 706.64 432  704 429.36  704 426  C 704 422.64  706.64 420  710 420  Z " fill-rule="nonzero" fill="#f0f0f0" stroke="none" />
  <path d="M 710 420.5  C 713.08 420.5  715.5 422.92  715.5 426  C 715.5 429.08  713.08 431.5  710 431.5  C 706.92 431.5  704.5 429.08  704.5 426  C 704.5 422.92  706.92 420.5  710 420.5  Z " stroke-width="1" stroke="#797979" fill="none" />
  <path d="M 710 429  C 708.32 429  707 427.68  707 426  C 707 424.32  708.32 423  710 423  C 711.68 423  713 424.32  713 426  C 713 427.68  711.68 429  710 429  " fill-rule="nonzero" fill="#797979" stroke="none" />
</svg>