<?xml version="1.0" encoding="utf-8"?>
<svg version="1.1" xmlns:xlink="http://www.w3.org/1999/xlink" width="12px" height="12px" viewBox="604 420  12 12" xmlns="http://www.w3.org/2000/svg">
  <path d="M 610 420  C 613.36 420  616 422.64  616 426  C 616 429.36  613.36 432  610 432  C 606.64 432  604 429.36  604 426  C 604 422.64  606.64 420  610 420  Z " fill-rule="nonzero" fill="#ffffff" stroke="none" />
  <path d="M 610 420.5  C 613.08 420.5  615.5 422.92  615.5 426  C 615.5 429.08  613.08 431.5  610 431.5  C 606.92 431.5  604.5 429.08  604.5 426  C 604.5 422.92  606.92 420.5  610 420.5  Z " stroke-width="1" stroke="#797979" fill="none" />
  <path d="M 610 429  C 608.32 429  607 427.68  607 426  C 607 424.32  608.32 423  610 423  C 611.68 423  613 424.32  613 426  C 613 427.68  611.68 429  610 429  " fill-rule="nonzero" fill="#797979" stroke="none" />
</svg>