<?xml version="1.0" encoding="utf-8"?>
<svg version="1.1" xmlns:xlink="http://www.w3.org/1999/xlink" width="12px" height="12px" viewBox="602 578  12 12" xmlns="http://www.w3.org/2000/svg">
  <path d="M 608 578  C 611.36 578  614 580.64  614 584  C 614 587.36  611.36 590  608 590  C 604.64 590  602 587.36  602 584  C 602 580.64  604.64 578  608 578  Z " fill-rule="nonzero" fill="#ffffff" stroke="none" />
  <path d="M 608 578.5  C 611.08 578.5  613.5 580.92  613.5 584  C 613.5 587.08  611.08 589.5  608 589.5  C 604.92 589.5  602.5 587.08  602.5 584  C 602.5 580.92  604.92 578.5  608 578.5  Z " stroke-width="1" stroke="#797979" fill="none" />
  <path d="M 608 587  C 606.32 587  605 585.68  605 584  C 605 582.32  606.32 581  608 581  C 609.68 581  611 582.32  611 584  C 611 585.68  609.68 587  608 587  " fill-rule="nonzero" fill="#797979" stroke="none" />
</svg>