<?xml version="1.0" encoding="utf-8"?>
<svg version="1.1" xmlns:xlink="http://www.w3.org/1999/xlink" width="17px" height="18px" xmlns="http://www.w3.org/2000/svg">
  <g transform="matrix(1 0 0 1 -1126 -94 )">
    <path d="M 1.27384615384608 13.8214285714286  L 1.27384615384608 16.7142857142857  L 4.1400000000001 16.7142857142857  L 4.1400000000001 13.8214285714286  L 1.27384615384608 13.8214285714286  Z M 4.77692307692291 13.8214285714286  L 4.77692307692291 16.7142857142857  L 7.96153846153834 16.7142857142857  L 7.96153846153834 13.8214285714286  L 4.77692307692291 13.8214285714286  Z M 1.27384615384608 9.96428571428569  L 1.27384615384608 13.1785714285714  L 4.1400000000001 13.1785714285714  L 4.1400000000001 9.96428571428569  L 1.27384615384608 9.96428571428569  Z M 4.77692307692291 9.96428571428569  L 4.77692307692291 13.1785714285714  L 7.96153846153834 13.1785714285714  L 7.96153846153834 9.96428571428569  L 4.77692307692291 9.96428571428569  Z M 1.27384615384608 6.42857142857143  L 1.27384615384608 9.32142857142857  L 4.1400000000001 9.32142857142857  L 4.1400000000001 6.42857142857143  L 1.27384615384608 6.42857142857143  Z M 8.59846153846138 13.8214285714286  L 8.59846153846138 16.7142857142857  L 11.7830769230768 16.7142857142857  L 11.7830769230768 13.8214285714286  L 8.59846153846138 13.8214285714286  Z M 4.77692307692291 6.42857142857143  L 4.77692307692291 9.32142857142857  L 7.96153846153834 9.32142857142857  L 7.96153846153834 6.42857142857143  L 4.77692307692291 6.42857142857143  Z M 12.4199999999998 13.8214285714286  L 12.4199999999998 16.7142857142857  L 15.2861538461536 16.7142857142857  L 15.2861538461536 13.8214285714286  L 12.4199999999998 13.8214285714286  Z M 8.59846153846138 9.96428571428569  L 8.59846153846138 13.1785714285714  L 11.7830769230768 13.1785714285714  L 11.7830769230768 9.96428571428569  L 8.59846153846138 9.96428571428569  Z M 5.00084134615395 4.72600446428569  C 5.06387019230783 4.66238839285714  5.09538461538455 4.58705357142857  5.09538461538455 4.5  L 5.09538461538455 1.60714285714286  C 5.09538461538455 1.52008928571431  5.06387019230783 1.44475446428569  5.00084134615395 1.38113839285714  C 4.93781250000006 1.31752232142857  4.8631730769232 1.28571428571431  4.77692307692291 1.28571428571431  L 4.1400000000001 1.28571428571431  C 4.05375000000004 1.28571428571431  3.97911057692318 1.31752232142857  3.91608173076929 1.38113839285714  C 3.85305288461541 1.44475446428569  3.82153846153847 1.52008928571431  3.82153846153847 1.60714285714286  L 3.82153846153847 4.5  C 3.82153846153847 4.58705357142857  3.85305288461541 4.66238839285714  3.91608173076929 4.72600446428569  C 3.97911057692318 4.78962053571431  4.05375000000004 4.82142857142857  4.1400000000001 4.82142857142857  L 4.77692307692291 4.82142857142857  C 4.8631730769232 4.82142857142857  4.93781250000006 4.78962053571431  5.00084134615395 4.72600446428569  Z M 12.4199999999998 9.96428571428569  L 12.4199999999998 13.1785714285714  L 15.2861538461536 13.1785714285714  L 15.2861538461536 9.96428571428569  L 12.4199999999998 9.96428571428569  Z M 8.59846153846138 6.42857142857143  L 8.59846153846138 9.32142857142857  L 11.7830769230768 9.32142857142857  L 11.7830769230768 6.42857142857143  L 8.59846153846138 6.42857142857143  Z M 12.4199999999998 6.42857142857143  L 12.4199999999998 9.32142857142857  L 15.2861538461536 9.32142857142857  L 15.2861538461536 6.42857142857143  L 12.4199999999998 6.42857142857143  Z M 12.6439182692307 4.72600446428569  C 12.7069471153845 4.66238839285714  12.7384615384615 4.58705357142857  12.7384615384615 4.5  L 12.7384615384615 1.60714285714286  C 12.7384615384615 1.52008928571431  12.7069471153845 1.44475446428569  12.6439182692307 1.38113839285714  C 12.5808894230768 1.31752232142857  12.5062499999999 1.28571428571431  12.4199999999998 1.28571428571431  L 11.7830769230768 1.28571428571431  C 11.6968269230767 1.28571428571431  11.6221874999999 1.31752232142857  11.559158653846 1.38113839285714  C 11.4961298076921 1.44475446428569  11.4646153846154 1.52008928571431  11.4646153846154 1.60714285714286  L 11.4646153846154 4.5  C 11.4646153846154 4.58705357142857  11.4961298076921 4.66238839285714  11.559158653846 4.72600446428569  C 11.6221874999999 4.78962053571431  11.6968269230767 4.82142857142857  11.7830769230768 4.82142857142857  L 12.4199999999998 4.82142857142857  C 12.5062499999999 4.82142857142857  12.5808894230768 4.78962053571431  12.6439182692307 4.72600446428569  Z M 16.1818269230769 2.953125  C 16.4339423076922 3.20758928571431  16.5599999999999 3.50892857142857  16.5599999999999 3.85714285714286  L 16.5599999999999 16.7142857142857  C 16.5599999999999 17.0625  16.4339423076922 17.3638392857143  16.1818269230769 17.6183035714286  C 15.9297115384616 17.8727678571429  15.6311538461537 18  15.2861538461536 18  L 1.27384615384608 18  C 0.928846153846052 18  0.630288461538385 17.8727678571429  0.378173076923076 17.6183035714286  C 0.12605769230754 17.3638392857143  0 17.0625  0 16.7142857142857  L 0 3.85714285714286  C 0 3.50892857142857  0.12605769230754 3.20758928571431  0.378173076923076 2.953125  C 0.630288461538385 2.69866071428569  0.928846153846052 2.57142857142857  1.27384615384608 2.57142857142857  L 2.54769230769239 2.57142857142857  L 2.54769230769239 1.60714285714286  C 2.54769230769239 1.16517857142857  2.70360576923076 0.786830357142861  3.01543269230774 0.472098214285694  C 3.32725961538472 0.157366071428569  3.70211538461535 0  4.1400000000001 0  L 4.77692307692291 0  C 5.21480769230766 0  5.58966346153852 0.157366071428569  5.90149038461527 0.472098214285694  C 6.21331730769225 0.786830357142861  6.36923076923063 1.16517857142857  6.36923076923063 1.60714285714286  L 6.36923076923063 2.57142857142857  L 10.1907692307691 2.57142857142857  L 10.1907692307691 1.60714285714286  C 10.1907692307691 1.16517857142857  10.3466826923075 0.786830357142861  10.6585096153847 0.472098214285694  C 10.9703365384614 0.157366071428569  11.3451923076923 0  11.7830769230768 0  L 12.4199999999998 0  C 12.8578846153846 0  13.2327403846152 0.157366071428569  13.5445673076922 0.472098214285694  C 13.8563942307692 0.786830357142861  14.0123076923076 1.16517857142857  14.0123076923076 1.60714285714286  L 14.0123076923076 2.57142857142857  L 15.2861538461536 2.57142857142857  C 15.6311538461537 2.57142857142857  15.9297115384616 2.69866071428569  16.1818269230769 2.953125  Z " fill-rule="nonzero" fill="#000000" stroke="none" transform="matrix(1 0 0 1 1126 94 )" />
  </g>
</svg>