<?xml version="1.0" encoding="utf-8"?>
<svg version="1.1" xmlns:xlink="http://www.w3.org/1999/xlink" width="12px" height="12px" viewBox="190 211.5  12 12" xmlns="http://www.w3.org/2000/svg">
  <path d="M 196 211.5  C 199.36 211.5  202 214.14  202 217.5  C 202 220.86  199.36 223.5  196 223.5  C 192.64 223.5  190 220.86  190 217.5  C 190 214.14  192.64 211.5  196 211.5  Z " fill-rule="nonzero" fill="#ffffff" stroke="none" />
  <path d="M 196 212  C 199.08 212  201.5 214.42  201.5 217.5  C 201.5 220.58  199.08 223  196 223  C 192.92 223  190.5 220.58  190.5 217.5  C 190.5 214.42  192.92 212  196 212  Z " stroke-width="1" stroke="#797979" fill="none" />
  <path d="M 196 220.5  C 194.32 220.5  193 219.18  193 217.5  C 193 215.82  194.32 214.5  196 214.5  C 197.68 214.5  199 215.82  199 217.5  C 199 219.18  197.68 220.5  196 220.5  " fill-rule="nonzero" fill="#797979" stroke="none" />
</svg>