<?xml version="1.0" encoding="utf-8"?>
<svg version="1.1" xmlns:xlink="http://www.w3.org/1999/xlink" width="37px" height="34px" xmlns="http://www.w3.org/2000/svg">
  <g transform="matrix(1 0 0 1 -16 -579 )">
    <path d="M 28.0390625 30.74609375  C 28.3207131410256 30.4657118055556  28.4615384615385 30.1336805555556  28.4615384615385 29.75  C 28.4615384615385 29.3663194444444  28.3207131410256 29.0342881944444  28.0390625 28.75390625  C 27.7574118589744 28.4735243055556  27.4238782051282 28.3333333333333  27.0384615384615 28.3333333333333  C 26.6530448717949 28.3333333333333  26.3195112179487 28.4735243055556  26.0378605769231 28.75390625  C 25.7562099358974 29.0342881944444  25.6153846153846 29.3663194444444  25.6153846153846 29.75  C 25.6153846153846 30.1336805555556  25.7562099358974 30.4657118055556  26.0378605769231 30.74609375  C 26.3195112179487 31.0264756944444  26.6530448717949 31.1666666666667  27.0384615384615 31.1666666666667  C 27.4238782051282 31.1666666666667  27.7574118589744 31.0264756944444  28.0390625 30.74609375  Z M 33.7313701923077 30.74609375  C 34.0130208333333 30.4657118055556  34.1538461538462 30.1336805555556  34.1538461538462 29.75  C 34.1538461538462 29.3663194444444  34.0130208333333 29.0342881944444  33.7313701923077 28.75390625  C 33.4497195512821 28.4735243055556  33.1161858974359 28.3333333333333  32.7307692307692 28.3333333333333  C 32.3453525641026 28.3333333333333  32.0118189102564 28.4735243055556  31.7301682692308 28.75390625  C 31.4485176282051 29.0342881944444  31.3076923076923 29.3663194444444  31.3076923076923 29.75  C 31.3076923076923 30.1336805555556  31.4485176282051 30.4657118055556  31.7301682692308 30.74609375  C 32.0118189102564 31.0264756944444  32.3453525641026 31.1666666666667  32.7307692307692 31.1666666666667  C 33.1161858974359 31.1666666666667  33.4497195512821 31.0264756944444  33.7313701923077 30.74609375  Z M 36.3774038461538 23.2864583333333  C 36.7924679487179 23.6996527777778  37 24.2013888888889  37 24.7916666666667  L 37 31.875  C 37 32.4652777777778  36.7924679487179 32.9670138888889  36.3774038461538 33.3802083333333  C 35.9623397435897 33.7934027777778  35.4583333333333 34  34.8653846153846 34  L 2.13461538461538 34  C 1.54166666666667 34  1.03766025641026 33.7934027777778  0.622596153846154 33.3802083333333  C 0.207532051282051 32.9670138888889  0 32.4652777777778  0 31.875  L 0 24.7916666666667  C 0 24.2013888888889  0.207532051282051 23.6996527777778  0.622596153846154 23.2864583333333  C 1.03766025641026 22.8732638888889  1.54166666666667 22.6666666666667  2.13461538461538 22  L 12.4741586538462 22  L 15.4759615384615 25.6770833333333  C 16.3357371794872 26.5034722222222  17.34375 26.9166666666667  18.5 26.9166666666667  C 19.65625 26.9166666666667  20.6642628205128 26.5034722222222  21.5240384615385 25.6770833333333  L 24.5480769230769 22  L 34.8653846153846 22  C 35.4583333333333 22.6666666666667  35.9623397435897 22.8732638888889  36.3774038461538 23.2864583333333  Z M 28.4615384615385 11.3333333333333  C 29.0841346153846 11.3333333333333  29.5214342948718 11.62109375  29.7734375 12.1966145833333  C 30.0254407051282 12.8016493055556  29.9216746794872 13.3181423611111  29.4621394230769 13.74609375  L 19.5006009615385 23.6627604166667  C 19.2337740384615 23.9431423611111  18.9002403846154 24.0833333333333  18.5 24.0833333333333  C 18.0997596153846 24.0833333333333  17.7662259615385 23.9431423611111  17.4993990384615 23.6627604166667  L 7.53786057692308 13.74609375  C 7.07832532051282 13.3181423611111  6.9745592948718 12.8016493055556  7.2265625 12.1966145833333  C 7.47856570512821 11.62109375  7.91586538461538 11.3333333333333  8.53846153846154 11.3333333333333  L 14.2307692307692 11.3333333333333  L 14.2307692307692 1.41666666666667  C 14.2307692307692 1.03298611111111  14.3715945512821 0.700954861111107  14.6532451923077 0.420572916666665  C 14.9348958333333 0.140190972222224  15.2684294871795 0  15.6538461538462 0  L 21.3461538461538 0  C 21.7315705128205 0  22.0651041666667 0.140190972222224  22.3467548076923 0.420572916666665  C 22.6284054487179 0.700954861111107  22.7692307692308 1.03298611111111  22.7692307692308 1.41666666666667  L 22.7692307692308 11.3333333333333  L 28.4615384615385 11.3333333333333  Z " fill-rule="nonzero" fill="#000000" stroke="none" transform="matrix(1 0 0 1 16 579 )" />
  </g>
</svg>