<?xml version="1.0" encoding="utf-8"?>
<svg version="1.1" xmlns:xlink="http://www.w3.org/1999/xlink" width="12px" height="12px" viewBox="1298 709  12 12" xmlns="http://www.w3.org/2000/svg">
  <path d="M 1304 709  C 1307.36 709  1310 711.64  1310 715  C 1310 718.36  1307.36 721  1304 721  C 1300.64 721  1298 718.36  1298 715  C 1298 711.64  1300.64 709  1304 709  Z " fill-rule="nonzero" fill="#ffffff" stroke="none" />
  <path d="M 1304 709.5  C 1307.08 709.5  1309.5 711.92  1309.5 715  C 1309.5 718.08  1307.08 720.5  1304 720.5  C 1300.92 720.5  1298.5 718.08  1298.5 715  C 1298.5 711.92  1300.92 709.5  1304 709.5  Z " stroke-width="1" stroke="#797979" fill="none" />
  <path d="M 1304 718  C 1302.32 718  1301 716.68  1301 715  C 1301 713.32  1302.32 712  1304 712  C 1305.68 712  1307 713.32  1307 715  C 1307 716.68  1305.68 718  1304 718  " fill-rule="nonzero" fill="#797979" stroke="none" />
</svg>