<?xml version="1.0" encoding="utf-8"?>
<svg version="1.1" xmlns:xlink="http://www.w3.org/1999/xlink" width="19px" height="19px" xmlns="http://www.w3.org/2000/svg">
  <g transform="matrix(1 0 0 1 -1394 -674 )">
    <path d="M 1403.5 674  C 1408.82 674  1413 678.18  1413 683.5  C 1413 688.82  1408.82 693  1403.5 693  C 1398.18 693  1394 688.82  1394 683.5  C 1394 678.18  1398.18 674  1403.5 674  Z " fill-rule="nonzero" fill="#647ef3" stroke="none" />
    <path d="M 1403.5 674.5  C 1408.54 674.5  1412.5 678.46  1412.5 683.5  C 1412.5 688.54  1408.54 692.5  1403.5 692.5  C 1398.46 692.5  1394.5 688.54  1394.5 683.5  C 1394.5 678.46  1398.46 674.5  1403.5 674.5  Z " stroke-width="1" stroke="#647ef3" fill="none" />
  </g>
</svg>