<?xml version="1.0" encoding="utf-8"?>
<svg version="1.1" xmlns:xlink="http://www.w3.org/1999/xlink" width="12px" height="12px" viewBox="1298 780  12 12" xmlns="http://www.w3.org/2000/svg">
  <path d="M 1304 780  C 1307.36 780  1310 782.64  1310 786  C 1310 789.36  1307.36 792  1304 792  C 1300.64 792  1298 789.36  1298 786  C 1298 782.64  1300.64 780  1304 780  Z " fill-rule="nonzero" fill="#f0f0f0" stroke="none" />
  <path d="M 1304 780.5  C 1307.08 780.5  1309.5 782.92  1309.5 786  C 1309.5 789.08  1307.08 791.5  1304 791.5  C 1300.92 791.5  1298.5 789.08  1298.5 786  C 1298.5 782.92  1300.92 780.5  1304 780.5  Z " stroke-width="1" stroke="#797979" fill="none" />
  <path d="M 1304 789  C 1302.32 789  1301 787.68  1301 786  C 1301 784.32  1302.32 783  1304 783  C 1305.68 783  1307 784.32  1307 786  C 1307 787.68  1305.68 789  1304 789  " fill-rule="nonzero" fill="#797979" stroke="none" />
</svg>