<?xml version="1.0" encoding="utf-8"?>
<svg version="1.1" xmlns:xlink="http://www.w3.org/1999/xlink" width="12px" height="12px" viewBox="1284 1250  12 12" xmlns="http://www.w3.org/2000/svg">
  <path d="M 1290 1250  C 1293.36 1250  1296 1252.64  1296 1256  C 1296 1259.36  1293.36 1262  1290 1262  C 1286.64 1262  1284 1259.36  1284 1256  C 1284 1252.64  1286.64 1250  1290 1250  Z " fill-rule="nonzero" fill="#ffffff" stroke="none" />
  <path d="M 1290 1250.5  C 1293.08 1250.5  1295.5 1252.92  1295.5 1256  C 1295.5 1259.08  1293.08 1261.5  1290 1261.5  C 1286.92 1261.5  1284.5 1259.08  1284.5 1256  C 1284.5 1252.92  1286.92 1250.5  1290 1250.5  Z " stroke-width="1" stroke="#797979" fill="none" />
  <path d="M 1290 1259  C 1288.32 1259  1287 1257.68  1287 1256  C 1287 1254.32  1288.32 1253  1290 1253  C 1291.68 1253  1293 1254.32  1293 1256  C 1293 1257.68  1291.68 1259  1290 1259  " fill-rule="nonzero" fill="#797979" stroke="none" />
</svg>