<?xml version="1.0" encoding="utf-8"?>
<svg version="1.1" xmlns:xlink="http://www.w3.org/1999/xlink" width="12px" height="12px" viewBox="848 1221  12 12" xmlns="http://www.w3.org/2000/svg">
  <path d="M 854 1221  C 857.36 1221  860 1223.64  860 1227  C 860 1230.36  857.36 1233  854 1233  C 850.64 1233  848 1230.36  848 1227  C 848 1223.64  850.64 1221  854 1221  Z " fill-rule="nonzero" fill="#f0f0f0" stroke="none" />
  <path d="M 854 1221.5  C 857.08 1221.5  859.5 1223.92  859.5 1227  C 859.5 1230.08  857.08 1232.5  854 1232.5  C 850.92 1232.5  848.5 1230.08  848.5 1227  C 848.5 1223.92  850.92 1221.5  854 1221.5  Z " stroke-width="1" stroke="#797979" fill="none" />
  <path d="M 854 1230  C 852.32 1230  851 1228.68  851 1227  C 851 1225.32  852.32 1224  854 1224  C 855.68 1224  857 1225.32  857 1227  C 857 1228.68  855.68 1230  854 1230  " fill-rule="nonzero" fill="#797979" stroke="none" />
</svg>