<?xml version="1.0" encoding="utf-8"?>
<svg version="1.1" xmlns:xlink="http://www.w3.org/1999/xlink" width="12px" height="12px" viewBox="1149 1221  12 12" xmlns="http://www.w3.org/2000/svg">
  <path d="M 1155 1221  C 1158.36 1221  1161 1223.64  1161 1227  C 1161 1230.36  1158.36 1233  1155 1233  C 1151.64 1233  1149 1230.36  1149 1227  C 1149 1223.64  1151.64 1221  1155 1221  Z " fill-rule="nonzero" fill="#ffffff" stroke="none" />
  <path d="M 1155 1221.5  C 1158.08 1221.5  1160.5 1223.92  1160.5 1227  C 1160.5 1230.08  1158.08 1232.5  1155 1232.5  C 1151.92 1232.5  1149.5 1230.08  1149.5 1227  C 1149.5 1223.92  1151.92 1221.5  1155 1221.5  Z " stroke-width="1" stroke="#797979" fill="none" />
  <path d="M 1155 1230  C 1153.32 1230  1152 1228.68  1152 1227  C 1152 1225.32  1153.32 1224  1155 1224  C 1156.68 1224  1158 1225.32  1158 1227  C 1158 1228.68  1156.68 1230  1155 1230  " fill-rule="nonzero" fill="#797979" stroke="none" />
</svg>