<?xml version="1.0" encoding="utf-8"?>
<svg version="1.1" xmlns:xlink="http://www.w3.org/1999/xlink" width="12px" height="12px" viewBox="983 1250  12 12" xmlns="http://www.w3.org/2000/svg">
  <path d="M 989 1250  C 992.36 1250  995 1252.64  995 1256  C 995 1259.36  992.36 1262  989 1262  C 985.64 1262  983 1259.36  983 1256  C 983 1252.64  985.64 1250  989 1250  Z " fill-rule="nonzero" fill="#ffffff" stroke="none" />
  <path d="M 989 1250.5  C 992.08 1250.5  994.5 1252.92  994.5 1256  C 994.5 1259.08  992.08 1261.5  989 1261.5  C 985.92 1261.5  983.5 1259.08  983.5 1256  C 983.5 1252.92  985.92 1250.5  989 1250.5  Z " stroke-width="1" stroke="#797979" fill="none" />
  <path d="M 989 1259  C 987.32 1259  986 1257.68  986 1256  C 986 1254.32  987.32 1253  989 1253  C 990.68 1253  992 1254.32  992 1256  C 992 1257.68  990.68 1259  989 1259  " fill-rule="nonzero" fill="#797979" stroke="none" />
</svg>