<?xml version="1.0" encoding="utf-8"?>
<svg version="1.1" xmlns:xlink="http://www.w3.org/1999/xlink" width="12px" height="12px" viewBox="848 1250  12 12" xmlns="http://www.w3.org/2000/svg">
  <path d="M 854 1250  C 857.36 1250  860 1252.64  860 1256  C 860 1259.36  857.36 1262  854 1262  C 850.64 1262  848 1259.36  848 1256  C 848 1252.64  850.64 1250  854 1250  Z " fill-rule="nonzero" fill="#ffffff" stroke="none" />
  <path d="M 854 1250.5  C 857.08 1250.5  859.5 1252.92  859.5 1256  C 859.5 1259.08  857.08 1261.5  854 1261.5  C 850.92 1261.5  848.5 1259.08  848.5 1256  C 848.5 1252.92  850.92 1250.5  854 1250.5  Z " stroke-width="1" stroke="#797979" fill="none" />
  <path d="M 854 1259  C 852.32 1259  851 1257.68  851 1256  C 851 1254.32  852.32 1253  854 1253  C 855.68 1253  857 1254.32  857 1256  C 857 1257.68  855.68 1259  854 1259  " fill-rule="nonzero" fill="#797979" stroke="none" />
</svg>