<?xml version="1.0" encoding="utf-8"?>
<svg version="1.1" xmlns:xlink="http://www.w3.org/1999/xlink" width="12px" height="12px" viewBox="1149 1250  12 12" xmlns="http://www.w3.org/2000/svg">
  <path d="M 1155 1250  C 1158.36 1250  1161 1252.64  1161 1256  C 1161 1259.36  1158.36 1262  1155 1262  C 1151.64 1262  1149 1259.36  1149 1256  C 1149 1252.64  1151.64 1250  1155 1250  Z " fill-rule="nonzero" fill="#f0f0f0" stroke="none" />
  <path d="M 1155 1250.5  C 1158.08 1250.5  1160.5 1252.92  1160.5 1256  C 1160.5 1259.08  1158.08 1261.5  1155 1261.5  C 1151.92 1261.5  1149.5 1259.08  1149.5 1256  C 1149.5 1252.92  1151.92 1250.5  1155 1250.5  Z " stroke-width="1" stroke="#797979" fill="none" />
  <path d="M 1155 1259  C 1153.32 1259  1152 1257.68  1152 1256  C 1152 1254.32  1153.32 1253  1155 1253  C 1156.68 1253  1158 1254.32  1158 1256  C 1158 1257.68  1156.68 1259  1155 1259  " fill-rule="nonzero" fill="#797979" stroke="none" />
</svg>