<?xml version="1.0" encoding="utf-8"?>
<svg version="1.1" xmlns:xlink="http://www.w3.org/1999/xlink" width="12px" height="12px" viewBox="983 1221  12 12" xmlns="http://www.w3.org/2000/svg">
  <path d="M 989 1221  C 992.36 1221  995 1223.64  995 1227  C 995 1230.36  992.36 1233  989 1233  C 985.64 1233  983 1230.36  983 1227  C 983 1223.64  985.64 1221  989 1221  Z " fill-rule="nonzero" fill="#f0f0f0" stroke="none" />
  <path d="M 989 1221.5  C 992.08 1221.5  994.5 1223.92  994.5 1227  C 994.5 1230.08  992.08 1232.5  989 1232.5  C 985.92 1232.5  983.5 1230.08  983.5 1227  C 983.5 1223.92  985.92 1221.5  989 1221.5  Z " stroke-width="1" stroke="#797979" fill="none" />
  <path d="M 989 1230  C 987.32 1230  986 1228.68  986 1227  C 986 1225.32  987.32 1224  989 1224  C 990.68 1224  992 1225.32  992 1227  C 992 1228.68  990.68 1230  989 1230  " fill-rule="nonzero" fill="#797979" stroke="none" />
</svg>