<?xml version="1.0" encoding="utf-8"?>
<svg version="1.1" xmlns:xlink="http://www.w3.org/1999/xlink" width="12px" height="12px" viewBox="1496 1250  12 12" xmlns="http://www.w3.org/2000/svg">
  <path d="M 1502 1250  C 1505.36 1250  1508 1252.64  1508 1256  C 1508 1259.36  1505.36 1262  1502 1262  C 1498.64 1262  1496 1259.36  1496 1256  C 1496 1252.64  1498.64 1250  1502 1250  Z " fill-rule="nonzero" fill="#ffffff" stroke="none" />
  <path d="M 1502 1250.5  C 1505.08 1250.5  1507.5 1252.92  1507.5 1256  C 1507.5 1259.08  1505.08 1261.5  1502 1261.5  C 1498.92 1261.5  1496.5 1259.08  1496.5 1256  C 1496.5 1252.92  1498.92 1250.5  1502 1250.5  Z " stroke-width="1" stroke="#797979" fill="none" />
  <path d="M 1502 1259  C 1500.32 1259  1499 1257.68  1499 1256  C 1499 1254.32  1500.32 1253  1502 1253  C 1503.68 1253  1505 1254.32  1505 1256  C 1505 1257.68  1503.68 1259  1502 1259  " fill-rule="nonzero" fill="#797979" stroke="none" />
</svg>