<?xml version="1.0" encoding="utf-8"?>
<svg version="1.1" xmlns:xlink="http://www.w3.org/1999/xlink" width="12px" height="12px" viewBox="1496 1221  12 12" xmlns="http://www.w3.org/2000/svg">
  <path d="M 1502 1221  C 1505.36 1221  1508 1223.64  1508 1227  C 1508 1230.36  1505.36 1233  1502 1233  C 1498.64 1233  1496 1230.36  1496 1227  C 1496 1223.64  1498.64 1221  1502 1221  Z " fill-rule="nonzero" fill="#f0f0f0" stroke="none" />
  <path d="M 1502 1221.5  C 1505.08 1221.5  1507.5 1223.92  1507.5 1227  C 1507.5 1230.08  1505.08 1232.5  1502 1232.5  C 1498.92 1232.5  1496.5 1230.08  1496.5 1227  C 1496.5 1223.92  1498.92 1221.5  1502 1221.5  Z " stroke-width="1" stroke="#797979" fill="none" />
  <path d="M 1502 1230  C 1500.32 1230  1499 1228.68  1499 1227  C 1499 1225.32  1500.32 1224  1502 1224  C 1503.68 1224  1505 1225.32  1505 1227  C 1505 1228.68  1503.68 1230  1502 1230  " fill-rule="nonzero" fill="#797979" stroke="none" />
</svg>