<?xml version="1.0" encoding="utf-8"?>
<svg version="1.1" xmlns:xlink="http://www.w3.org/1999/xlink" width="12px" height="12px" viewBox="583 434  12 12" xmlns="http://www.w3.org/2000/svg">
  <path d="M 589 434  C 592.36 434  595 436.64  595 440  C 595 443.36  592.36 446  589 446  C 585.64 446  583 443.36  583 440  C 583 436.64  585.64 434  589 434  Z " fill-rule="nonzero" fill="#f0f0f0" stroke="none" />
  <path d="M 589 434.5  C 592.08 434.5  594.5 436.92  594.5 440  C 594.5 443.08  592.08 445.5  589 445.5  C 585.92 445.5  583.5 443.08  583.5 440  C 583.5 436.92  585.92 434.5  589 434.5  Z " stroke-width="1" stroke="#797979" fill="none" />
  <path d="M 589 443  C 587.32 443  586 441.68  586 440  C 586 438.32  587.32 437  589 437  C 590.68 437  592 438.32  592 440  C 592 441.68  590.68 443  589 443  " fill-rule="nonzero" fill="#797979" stroke="none" />
</svg>