<?xml version="1.0" encoding="utf-8"?>
<svg version="1.1" xmlns:xlink="http://www.w3.org/1999/xlink" width="12px" height="12px" viewBox="682 434  12 12" xmlns="http://www.w3.org/2000/svg">
  <path d="M 688 434  C 691.36 434  694 436.64  694 440  C 694 443.36  691.36 446  688 446  C 684.64 446  682 443.36  682 440  C 682 436.64  684.64 434  688 434  Z " fill-rule="nonzero" fill="#f0f0f0" stroke="none" />
  <path d="M 688 434.5  C 691.08 434.5  693.5 436.92  693.5 440  C 693.5 443.08  691.08 445.5  688 445.5  C 684.92 445.5  682.5 443.08  682.5 440  C 682.5 436.92  684.92 434.5  688 434.5  Z " stroke-width="1" stroke="#797979" fill="none" />
  <path d="M 688 443  C 686.32 443  685 441.68  685 440  C 685 438.32  686.32 437  688 437  C 689.68 437  691 438.32  691 440  C 691 441.68  689.68 443  688 443  " fill-rule="nonzero" fill="#797979" stroke="none" />
</svg>