<?xml version="1.0" encoding="utf-8"?>
<svg version="1.1" xmlns:xlink="http://www.w3.org/1999/xlink" width="12px" height="12px" viewBox="807 434  12 12" xmlns="http://www.w3.org/2000/svg">
  <path d="M 813 434  C 816.36 434  819 436.64  819 440  C 819 443.36  816.36 446  813 446  C 809.64 446  807 443.36  807 440  C 807 436.64  809.64 434  813 434  Z " fill-rule="nonzero" fill="#f0f0f0" stroke="none" />
  <path d="M 813 434.5  C 816.08 434.5  818.5 436.92  818.5 440  C 818.5 443.08  816.08 445.5  813 445.5  C 809.92 445.5  807.5 443.08  807.5 440  C 807.5 436.92  809.92 434.5  813 434.5  Z " stroke-width="1" stroke="#797979" fill="none" />
  <path d="M 813 443  C 811.32 443  810 441.68  810 440  C 810 438.32  811.32 437  813 437  C 814.68 437  816 438.32  816 440  C 816 441.68  814.68 443  813 443  " fill-rule="nonzero" fill="#797979" stroke="none" />
</svg>