<?xml version="1.0" encoding="utf-8"?>
<svg version="1.1" xmlns:xlink="http://www.w3.org/1999/xlink" width="12px" height="12px" viewBox="611 645  12 12" xmlns="http://www.w3.org/2000/svg">
  <path d="M 617 645  C 620.36 645  623 647.64  623 651  C 623 654.36  620.36 657  617 657  C 613.64 657  611 654.36  611 651  C 611 647.64  613.64 645  617 645  Z " fill-rule="nonzero" fill="#ffffff" stroke="none" />
  <path d="M 617 645.5  C 620.08 645.5  622.5 647.92  622.5 651  C 622.5 654.08  620.08 656.5  617 656.5  C 613.92 656.5  611.5 654.08  611.5 651  C 611.5 647.92  613.92 645.5  617 645.5  Z " stroke-width="1" stroke="#797979" fill="none" />
  <path d="M 617 654  C 615.32 654  614 652.68  614 651  C 614 649.32  615.32 648  617 648  C 618.68 648  620 649.32  620 651  C 620 652.68  618.68 654  617 654  " fill-rule="nonzero" fill="#797979" stroke="none" />
</svg>