<?xml version="1.0" encoding="utf-8"?>
<svg version="1.1" xmlns:xlink="http://www.w3.org/1999/xlink" width="12px" height="12px" viewBox="716 789  12 12" xmlns="http://www.w3.org/2000/svg">
  <path d="M 722 789  C 725.36 789  728 791.64  728 795  C 728 798.36  725.36 801  722 801  C 718.64 801  716 798.36  716 795  C 716 791.64  718.64 789  722 789  Z " fill-rule="nonzero" fill="#ffffff" stroke="none" />
  <path d="M 722 789.5  C 725.08 789.5  727.5 791.92  727.5 795  C 727.5 798.08  725.08 800.5  722 800.5  C 718.92 800.5  716.5 798.08  716.5 795  C 716.5 791.92  718.92 789.5  722 789.5  Z " stroke-width="1" stroke="#797979" fill="none" />
  <path d="M 722 798  C 720.32 798  719 796.68  719 795  C 719 793.32  720.32 792  722 792  C 723.68 792  725 793.32  725 795  C 725 796.68  723.68 798  722 798  " fill-rule="nonzero" fill="#797979" stroke="none" />
</svg>