<?xml version="1.0" encoding="utf-8"?>
<svg version="1.1" xmlns:xlink="http://www.w3.org/1999/xlink" width="12px" height="12px" viewBox="716 646  12 12" xmlns="http://www.w3.org/2000/svg">
  <path d="M 722 646  C 725.36 646  728 648.64  728 652  C 728 655.36  725.36 658  722 658  C 718.64 658  716 655.36  716 652  C 716 648.64  718.64 646  722 646  Z " fill-rule="nonzero" fill="#f0f0f0" stroke="none" />
  <path d="M 722 646.5  C 725.08 646.5  727.5 648.92  727.5 652  C 727.5 655.08  725.08 657.5  722 657.5  C 718.92 657.5  716.5 655.08  716.5 652  C 716.5 648.92  718.92 646.5  722 646.5  Z " stroke-width="1" stroke="#797979" fill="none" />
  <path d="M 722 655  C 720.32 655  719 653.68  719 652  C 719 650.32  720.32 649  722 649  C 723.68 649  725 650.32  725 652  C 725 653.68  723.68 655  722 655  " fill-rule="nonzero" fill="#797979" stroke="none" />
</svg>