<?xml version="1.0" encoding="utf-8"?>
<svg version="1.1" xmlns:xlink="http://www.w3.org/1999/xlink" width="12px" height="12px" viewBox="611 678  12 12" xmlns="http://www.w3.org/2000/svg">
  <path d="M 617 678  C 620.36 678  623 680.64  623 684  C 623 687.36  620.36 690  617 690  C 613.64 690  611 687.36  611 684  C 611 680.64  613.64 678  617 678  Z " fill-rule="nonzero" fill="#ffffff" stroke="none" />
  <path d="M 617 678.5  C 620.08 678.5  622.5 680.92  622.5 684  C 622.5 687.08  620.08 689.5  617 689.5  C 613.92 689.5  611.5 687.08  611.5 684  C 611.5 680.92  613.92 678.5  617 678.5  Z " stroke-width="1" stroke="#797979" fill="none" />
  <path d="M 617 687  C 615.32 687  614 685.68  614 684  C 614 682.32  615.32 681  617 681  C 618.68 681  620 682.32  620 684  C 620 685.68  618.68 687  617 687  " fill-rule="nonzero" fill="#797979" stroke="none" />
</svg>