<?xml version="1.0" encoding="utf-8"?>
<svg version="1.1" xmlns:xlink="http://www.w3.org/1999/xlink" width="12px" height="12px" viewBox="611 789  12 12" xmlns="http://www.w3.org/2000/svg">
  <path d="M 617 789  C 620.36 789  623 791.64  623 795  C 623 798.36  620.36 801  617 801  C 613.64 801  611 798.36  611 795  C 611 791.64  613.64 789  617 789  Z " fill-rule="nonzero" fill="#f0f0f0" stroke="none" />
  <path d="M 617 789.5  C 620.08 789.5  622.5 791.92  622.5 795  C 622.5 798.08  620.08 800.5  617 800.5  C 613.92 800.5  611.5 798.08  611.5 795  C 611.5 791.92  613.92 789.5  617 789.5  Z " stroke-width="1" stroke="#797979" fill="none" />
  <path d="M 617 798  C 615.32 798  614 796.68  614 795  C 614 793.32  615.32 792  617 792  C 618.68 792  620 793.32  620 795  C 620 796.68  618.68 798  617 798  " fill-rule="nonzero" fill="#797979" stroke="none" />
</svg>