<?xml version="1.0" encoding="utf-8"?>
<svg version="1.1" xmlns:xlink="http://www.w3.org/1999/xlink" width="12px" height="12px" viewBox="716 678  12 12" xmlns="http://www.w3.org/2000/svg">
  <path d="M 722 678  C 725.36 678  728 680.64  728 684  C 728 687.36  725.36 690  722 690  C 718.64 690  716 687.36  716 684  C 716 680.64  718.64 678  722 678  Z " fill-rule="nonzero" fill="#ffffff" stroke="none" />
  <path d="M 722 678.5  C 725.08 678.5  727.5 680.92  727.5 684  C 727.5 687.08  725.08 689.5  722 689.5  C 718.92 689.5  716.5 687.08  716.5 684  C 716.5 680.92  718.92 678.5  722 678.5  Z " stroke-width="1" stroke="#797979" fill="none" />
  <path d="M 722 687  C 720.32 687  719 685.68  719 684  C 719 682.32  720.32 681  722 681  C 723.68 681  725 682.32  725 684  C 725 685.68  723.68 687  722 687  " fill-rule="nonzero" fill="#797979" stroke="none" />
</svg>