<?xml version="1.0" encoding="utf-8"?>
<svg version="1.1" xmlns:xlink="http://www.w3.org/1999/xlink" width="12px" height="12px" viewBox="611 534  12 12" xmlns="http://www.w3.org/2000/svg">
  <path d="M 617 534  C 620.36 534  623 536.64  623 540  C 623 543.36  620.36 546  617 546  C 613.64 546  611 543.36  611 540  C 611 536.64  613.64 534  617 534  Z " fill-rule="nonzero" fill="#ffffff" stroke="none" />
  <path d="M 617 534.5  C 620.08 534.5  622.5 536.92  622.5 540  C 622.5 543.08  620.08 545.5  617 545.5  C 613.92 545.5  611.5 543.08  611.5 540  C 611.5 536.92  613.92 534.5  617 534.5  Z " stroke-width="1" stroke="#797979" fill="none" />
  <path d="M 617 543  C 615.32 543  614 541.68  614 540  C 614 538.32  615.32 537  617 537  C 618.68 537  620 538.32  620 540  C 620 541.68  618.68 543  617 543  " fill-rule="nonzero" fill="#797979" stroke="none" />
</svg>