<?xml version="1.0" encoding="utf-8"?>
<svg version="1.1" xmlns:xlink="http://www.w3.org/1999/xlink" width="300px" height="57px" xmlns="http://www.w3.org/2000/svg">
  <defs>
    <mask fill="white" id="clip494">
      <path d="M 0 49  L 0 0  L 300 0  L 300 49  L 37.0219780219782 49  L 34.2762430939229 56.8239694007649  L 31.2527472527472 49  L 0 49  Z " fill-rule="evenodd" />
    </mask>
  </defs>
  <g transform="matrix(1 0 0 1 -1981 -583 )">
    <path d="M 0 49  L 0 0  L 300 0  L 300 49  L 37.0219780219782 49  L 34.2762430939229 56.8239694007649  L 31.2527472527472 49  L 0 49  Z " fill-rule="nonzero" fill="#ffffff" stroke="none" transform="matrix(1 0 0 1 1981 583 )" />
    <path d="M 0 49  L 0 0  L 300 0  L 300 49  L 37.0219780219782 49  L 34.2762430939229 56.8239694007649  L 31.2527472527472 49  L 0 49  Z " stroke-width="2" stroke="#797979" fill="none" transform="matrix(1 0 0 1 1981 583 )" mask="url(#clip494)" />
  </g>
</svg>