<?xml version="1.0" encoding="utf-8"?>
<svg version="1.1" xmlns:xlink="http://www.w3.org/1999/xlink" width="12px" height="12px" viewBox="716 601  12 12" xmlns="http://www.w3.org/2000/svg">
  <path d="M 722 601  C 725.36 601  728 603.64  728 607  C 728 610.36  725.36 613  722 613  C 718.64 613  716 610.36  716 607  C 716 603.64  718.64 601  722 601  Z " fill-rule="nonzero" fill="#ffffff" stroke="none" />
  <path d="M 722 601.5  C 725.08 601.5  727.5 603.92  727.5 607  C 727.5 610.08  725.08 612.5  722 612.5  C 718.92 612.5  716.5 610.08  716.5 607  C 716.5 603.92  718.92 601.5  722 601.5  Z " stroke-width="1" stroke="#797979" fill="none" />
  <path d="M 722 610  C 720.32 610  719 608.68  719 607  C 719 605.32  720.32 604  722 604  C 723.68 604  725 605.32  725 607  C 725 608.68  723.68 610  722 610  " fill-rule="nonzero" fill="#797979" stroke="none" />
</svg>