<?xml version="1.0" encoding="utf-8"?>
<svg version="1.1" xmlns:xlink="http://www.w3.org/1999/xlink" width="12px" height="12px" viewBox="611 669  12 12" xmlns="http://www.w3.org/2000/svg">
  <path d="M 617 669  C 620.36 669  623 671.64  623 675  C 623 678.36  620.36 681  617 681  C 613.64 681  611 678.36  611 675  C 611 671.64  613.64 669  617 669  Z " fill-rule="nonzero" fill="#f0f0f0" stroke="none" />
  <path d="M 617 669.5  C 620.08 669.5  622.5 671.92  622.5 675  C 622.5 678.08  620.08 680.5  617 680.5  C 613.92 680.5  611.5 678.08  611.5 675  C 611.5 671.92  613.92 669.5  617 669.5  Z " stroke-width="1" stroke="#797979" fill="none" />
  <path d="M 617 678  C 615.32 678  614 676.68  614 675  C 614 673.32  615.32 672  617 672  C 618.68 672  620 673.32  620 675  C 620 676.68  618.68 678  617 678  " fill-rule="nonzero" fill="#797979" stroke="none" />
</svg>