<?xml version="1.0" encoding="utf-8"?>
<svg version="1.1" xmlns:xlink="http://www.w3.org/1999/xlink" width="12px" height="12px" viewBox="716 669  12 12" xmlns="http://www.w3.org/2000/svg">
  <path d="M 722 669  C 725.36 669  728 671.64  728 675  C 728 678.36  725.36 681  722 681  C 718.64 681  716 678.36  716 675  C 716 671.64  718.64 669  722 669  Z " fill-rule="nonzero" fill="#f0f0f0" stroke="none" />
  <path d="M 722 669.5  C 725.08 669.5  727.5 671.92  727.5 675  C 727.5 678.08  725.08 680.5  722 680.5  C 718.92 680.5  716.5 678.08  716.5 675  C 716.5 671.92  718.92 669.5  722 669.5  Z " stroke-width="1" stroke="#797979" fill="none" />
  <path d="M 722 678  C 720.32 678  719 676.68  719 675  C 719 673.32  720.32 672  722 672  C 723.68 672  725 673.32  725 675  C 725 676.68  723.68 678  722 678  " fill-rule="nonzero" fill="#797979" stroke="none" />
</svg>