<?xml version="1.0" encoding="utf-8"?>
<svg version="1.1" xmlns:xlink="http://www.w3.org/1999/xlink" width="12px" height="12px" viewBox="611 600  12 12" xmlns="http://www.w3.org/2000/svg">
  <path d="M 617 600  C 620.36 600  623 602.64  623 606  C 623 609.36  620.36 612  617 612  C 613.64 612  611 609.36  611 606  C 611 602.64  613.64 600  617 600  Z " fill-rule="nonzero" fill="#ffffff" stroke="none" />
  <path d="M 617 600.5  C 620.08 600.5  622.5 602.92  622.5 606  C 622.5 609.08  620.08 611.5  617 611.5  C 613.92 611.5  611.5 609.08  611.5 606  C 611.5 602.92  613.92 600.5  617 600.5  Z " stroke-width="1" stroke="#797979" fill="none" />
  <path d="M 617 609  C 615.32 609  614 607.68  614 606  C 614 604.32  615.32 603  617 603  C 618.68 603  620 604.32  620 606  C 620 607.68  618.68 609  617 609  " fill-rule="nonzero" fill="#797979" stroke="none" />
</svg>