<?xml version="1.0" encoding="utf-8"?>
<svg version="1.1" xmlns:xlink="http://www.w3.org/1999/xlink" width="12px" height="12px" viewBox="611 675  12 12" xmlns="http://www.w3.org/2000/svg">
  <path d="M 617 675  C 620.36 675  623 677.64  623 681  C 623 684.36  620.36 687  617 687  C 613.64 687  611 684.36  611 681  C 611 677.64  613.64 675  617 675  Z " fill-rule="nonzero" fill="#f0f0f0" stroke="none" />
  <path d="M 617 675.5  C 620.08 675.5  622.5 677.92  622.5 681  C 622.5 684.08  620.08 686.5  617 686.5  C 613.92 686.5  611.5 684.08  611.5 681  C 611.5 677.92  613.92 675.5  617 675.5  Z " stroke-width="1" stroke="#797979" fill="none" />
  <path d="M 617 684  C 615.32 684  614 682.68  614 681  C 614 679.32  615.32 678  617 678  C 618.68 678  620 679.32  620 681  C 620 682.68  618.68 684  617 684  " fill-rule="nonzero" fill="#797979" stroke="none" />
</svg>