<?xml version="1.0" encoding="utf-8"?>
<svg version="1.1" xmlns:xlink="http://www.w3.org/1999/xlink" width="12px" height="12px" viewBox="716 675  12 12" xmlns="http://www.w3.org/2000/svg">
  <path d="M 722 675  C 725.36 675  728 677.64  728 681  C 728 684.36  725.36 687  722 687  C 718.64 687  716 684.36  716 681  C 716 677.64  718.64 675  722 675  Z " fill-rule="nonzero" fill="#f0f0f0" stroke="none" />
  <path d="M 722 675.5  C 725.08 675.5  727.5 677.92  727.5 681  C 727.5 684.08  725.08 686.5  722 686.5  C 718.92 686.5  716.5 684.08  716.5 681  C 716.5 677.92  718.92 675.5  722 675.5  Z " stroke-width="1" stroke="#797979" fill="none" />
  <path d="M 722 684  C 720.32 684  719 682.68  719 681  C 719 679.32  720.32 678  722 678  C 723.68 678  725 679.32  725 681  C 725 682.68  723.68 684  722 684  " fill-rule="nonzero" fill="#797979" stroke="none" />
</svg>