<?xml version="1.0" encoding="utf-8"?>
<svg version="1.1" xmlns:xlink="http://www.w3.org/1999/xlink" width="12px" height="12px" viewBox="716 569  12 12" xmlns="http://www.w3.org/2000/svg">
  <path d="M 722 569  C 725.36 569  728 571.64  728 575  C 728 578.36  725.36 581  722 581  C 718.64 581  716 578.36  716 575  C 716 571.64  718.64 569  722 569  Z " fill-rule="nonzero" fill="#ffffff" stroke="none" />
  <path d="M 722 569.5  C 725.08 569.5  727.5 571.92  727.5 575  C 727.5 578.08  725.08 580.5  722 580.5  C 718.92 580.5  716.5 578.08  716.5 575  C 716.5 571.92  718.92 569.5  722 569.5  Z " stroke-width="1" stroke="#797979" fill="none" />
  <path d="M 722 578  C 720.32 578  719 576.68  719 575  C 719 573.32  720.32 572  722 572  C 723.68 572  725 573.32  725 575  C 725 576.68  723.68 578  722 578  " fill-rule="nonzero" fill="#797979" stroke="none" />
</svg>