<?xml version="1.0" encoding="utf-8"?>
<svg version="1.1" xmlns:xlink="http://www.w3.org/1999/xlink" width="12px" height="12px" viewBox="716 643  12 12" xmlns="http://www.w3.org/2000/svg">
  <path d="M 722 643  C 725.36 643  728 645.64  728 649  C 728 652.36  725.36 655  722 655  C 718.64 655  716 652.36  716 649  C 716 645.64  718.64 643  722 643  Z " fill-rule="nonzero" fill="#ffffff" stroke="none" />
  <path d="M 722 643.5  C 725.08 643.5  727.5 645.92  727.5 649  C 727.5 652.08  725.08 654.5  722 654.5  C 718.92 654.5  716.5 652.08  716.5 649  C 716.5 645.92  718.92 643.5  722 643.5  Z " stroke-width="1" stroke="#797979" fill="none" />
  <path d="M 722 652  C 720.32 652  719 650.68  719 649  C 719 647.32  720.32 646  722 646  C 723.68 646  725 647.32  725 649  C 725 650.68  723.68 652  722 652  " fill-rule="nonzero" fill="#797979" stroke="none" />
</svg>