<?xml version="1.0" encoding="utf-8"?>
<svg version="1.1" xmlns:xlink="http://www.w3.org/1999/xlink" width="12px" height="12px" viewBox="611 823  12 12" xmlns="http://www.w3.org/2000/svg">
  <path d="M 617 823  C 620.36 823  623 825.64  623 829  C 623 832.36  620.36 835  617 835  C 613.64 835  611 832.36  611 829  C 611 825.64  613.64 823  617 823  Z " fill-rule="nonzero" fill="#ffffff" stroke="none" />
  <path d="M 617 823.5  C 620.08 823.5  622.5 825.92  622.5 829  C 622.5 832.08  620.08 834.5  617 834.5  C 613.92 834.5  611.5 832.08  611.5 829  C 611.5 825.92  613.92 823.5  617 823.5  Z " stroke-width="1" stroke="#797979" fill="none" />
  <path d="M 617 832  C 615.32 832  614 830.68  614 829  C 614 827.32  615.32 826  617 826  C 618.68 826  620 827.32  620 829  C 620 830.68  618.68 832  617 832  " fill-rule="nonzero" fill="#797979" stroke="none" />
</svg>