<?xml version="1.0" encoding="utf-8"?>
<svg version="1.1" xmlns:xlink="http://www.w3.org/1999/xlink" width="32px" height="32px" xmlns="http://www.w3.org/2000/svg">
  <g transform="matrix(1 0 0 1 -1184 -294 )">
    <path d="M 1200 294.5  C 1208.68 294.5  1215.5 301.32  1215.5 310  C 1215.5 318.68  1208.68 325.5  1200 325.5  C 1191.32 325.5  1184.5 318.68  1184.5 310  C 1184.5 301.32  1191.32 294.5  1200 294.5  Z " fill-rule="nonzero" fill="#ffffff" stroke="none" fill-opacity="0" />
    <path d="M 1200 294.5  C 1208.68 294.5  1215.5 301.32  1215.5 310  C 1215.5 318.68  1208.68 325.5  1200 325.5  C 1191.32 325.5  1184.5 318.68  1184.5 310  C 1184.5 301.32  1191.32 294.5  1200 294.5  Z " stroke-width="1" stroke="#000000" fill="none" stroke-opacity="0.149019607843137" />
  </g>
</svg>