<?xml version="1.0" encoding="utf-8"?>
<svg version="1.1" xmlns:xlink="http://www.w3.org/1999/xlink" width="19px" height="20px" xmlns="http://www.w3.org/2000/svg">
  <g transform="matrix(1 0 0 1 -867 -936 )">
    <path d="M 1.4153846153846 15.3571428571429  L 1.4153846153846 18.5714285714286  L 4.60000000000002 18.5714285714286  L 4.60000000000002 15.3571428571429  L 1.4153846153846 15.3571428571429  Z M 5.30769230769226 15.3571428571429  L 5.30769230769226 18.5714285714286  L 8.84615384615381 18.5714285714286  L 8.84615384615381 15.3571428571429  L 5.30769230769226 15.3571428571429  Z M 1.4153846153846 11.0714285714286  L 1.4153846153846 14.6428571428571  L 4.60000000000002 14.6428571428571  L 4.60000000000002 11.0714285714286  L 1.4153846153846 11.0714285714286  Z M 5.30769230769226 11.0714285714286  L 5.30769230769226 14.6428571428571  L 8.84615384615381 14.6428571428571  L 8.84615384615381 11.0714285714286  L 5.30769230769226 11.0714285714286  Z M 1.4153846153846 7.14285714285711  L 1.4153846153846 10.3571428571429  L 4.60000000000002 10.3571428571429  L 4.60000000000002 7.14285714285711  L 1.4153846153846 7.14285714285711  Z M 9.55384615384617 15.3571428571429  L 9.55384615384617 18.5714285714286  L 13.0923076923077 18.5714285714286  L 13.0923076923077 15.3571428571429  L 9.55384615384617 15.3571428571429  Z M 5.30769230769226 7.14285714285711  L 5.30769230769226 10.3571428571429  L 8.84615384615381 10.3571428571429  L 8.84615384615381 7.14285714285711  L 5.30769230769226 7.14285714285711  Z M 13.8000000000001 15.3571428571429  L 13.8000000000001 18.5714285714286  L 16.9846153846154 18.5714285714286  L 16.9846153846154 15.3571428571429  L 13.8000000000001 15.3571428571429  Z M 9.55384615384617 11.0714285714286  L 9.55384615384617 14.6428571428571  L 13.0923076923077 14.6428571428571  L 13.0923076923077 11.0714285714286  L 9.55384615384617 11.0714285714286  Z M 5.55649038461547 5.25111607142856  C 5.62652243589741 5.18043154761904  5.6615384615385 5.09672619047615  5.6615384615385 5  L 5.6615384615385 1.78571428571433  C 5.6615384615385 1.68898809523807  5.62652243589741 1.60528273809518  5.55649038461547 1.53459821428567  C 5.4864583333333 1.46391369047615  5.40352564102568 1.42857142857144  5.30769230769226 1.42857142857144  L 4.60000000000002 1.42857142857144  C 4.50416666666672 1.42857142857144  4.42123397435898 1.46391369047615  4.35120192307693 1.53459821428567  C 4.28116987179487 1.60528273809518  4.24615384615379 1.68898809523807  4.24615384615379 1.78571428571433  L 4.24615384615379 5  C 4.24615384615379 5.09672619047615  4.28116987179487 5.18043154761904  4.35120192307693 5.25111607142856  C 4.42123397435898 5.32180059523807  4.50416666666672 5.35714285714289  4.60000000000002 5.35714285714289  L 5.30769230769226 5.35714285714289  C 5.40352564102568 5.35714285714289  5.4864583333333 5.32180059523807  5.55649038461547 5.25111607142856  Z M 13.8000000000001 11.0714285714286  L 13.8000000000001 14.6428571428571  L 16.9846153846154 14.6428571428571  L 16.9846153846154 11.0714285714286  L 13.8000000000001 11.0714285714286  Z M 9.55384615384617 7.14285714285711  L 9.55384615384617 10.3571428571429  L 13.0923076923077 10.3571428571429  L 13.0923076923077 7.14285714285711  L 9.55384615384617 7.14285714285711  Z M 13.8000000000001 7.14285714285711  L 13.8000000000001 10.3571428571429  L 16.9846153846154 10.3571428571429  L 16.9846153846154 7.14285714285711  L 13.8000000000001 7.14285714285711  Z M 14.048798076923 5.25111607142856  C 14.1188301282052 5.18043154761904  14.1538461538462 5.09672619047615  14.1538461538462 5  L 14.1538461538462 1.78571428571433  C 14.1538461538462 1.68898809523807  14.1188301282052 1.60528273809518  14.048798076923 1.53459821428567  C 13.978766025641 1.46391369047615  13.8958333333333 1.42857142857144  13.8000000000001 1.42857142857144  L 13.0923076923077 1.42857142857144  C 12.9964743589743 1.42857142857144  12.9135416666667 1.46391369047615  12.8435096153846 1.53459821428567  C 12.7734775641026 1.60528273809518  12.7384615384615 1.68898809523807  12.7384615384615 1.78571428571433  L 12.7384615384615 5  C 12.7384615384615 5.09672619047615  12.7734775641026 5.18043154761904  12.8435096153846 5.25111607142856  C 12.9135416666667 5.32180059523807  12.9964743589743 5.35714285714289  13.0923076923077 5.35714285714289  L 13.8000000000001 5.35714285714289  C 13.8958333333333 5.35714285714289  13.978766025641 5.32180059523807  14.048798076923 5.25111607142856  Z M 17.9798076923078 3.28125  C 18.2599358974359 3.56398809523807  18.4 3.89880952380952  18.4 4.28571428571433  L 18.4 18.5714285714286  C 18.4 18.9583333333334  18.2599358974359 19.2931547619048  17.9798076923078 19.5758928571429  C 17.6996794871794 19.858630952381  17.3679487179488 20  16.9846153846154 20  L 1.4153846153846 20  C 1.03205128205127 20  0.700320512820554 19.858630952381  0.420192307692218 19.5758928571429  C 0.140064102564111 19.2931547619048  0 18.9583333333334  0 18.5714285714286  L 0 4.28571428571433  C 0 3.89880952380952  0.140064102564111 3.56398809523807  0.420192307692218 3.28125  C 0.700320512820554 2.99851190476193  1.03205128205127 2.85714285714289  1.4153846153846 2.85714285714289  L 2.83076923076931 2.85714285714289  L 2.83076923076931 1.78571428571433  C 2.83076923076931 1.29464285714289  3.00400641025647 0.874255952380963  3.35048076923067 0.524553571428555  C 3.69695512820522 0.174851190476147  4.11346153846148 0  4.60000000000002 0  L 5.30769230769226 0  C 5.79423076923069 0  6.21073717948718 0.174851190476147  6.5572115384615 0.524553571428555  C 6.90368589743593 0.874255952380963  7.07692307692309 1.29464285714289  7.07692307692309 1.78571428571433  L 7.07692307692309 2.85714285714289  L 11.3230769230769 2.85714285714289  L 11.3230769230769 1.78571428571433  C 11.3230769230769 1.29464285714289  11.496314102564 0.874255952380963  11.8427884615385 0.524553571428555  C 12.1892628205128 0.174851190476147  12.6057692307693 0  13.0923076923077 0  L 13.8000000000001 0  C 14.2865384615385 0  14.7030448717949 0.174851190476147  15.0495192307693 0.524553571428555  C 15.3959935897435 0.874255952380963  15.5692307692307 1.29464285714289  15.5692307692307 1.78571428571433  L 15.5692307692307 2.85714285714289  L 16.9846153846154 2.85714285714289  C 17.3679487179488 2.85714285714289  17.6996794871794 2.99851190476193  17.9798076923078 3.28125  Z " fill-rule="nonzero" fill="#000000" stroke="none" transform="matrix(1 0 0 1 867 936 )" />
  </g>
</svg>