<?xml version="1.0" encoding="utf-8"?>
<svg version="1.1" xmlns:xlink="http://www.w3.org/1999/xlink" width="12px" height="12px" viewBox="899 320  12 12" xmlns="http://www.w3.org/2000/svg">
  <path d="M 905 320  C 908.36 320  911 322.64  911 326  C 911 329.36  908.36 332  905 332  C 901.64 332  899 329.36  899 326  C 899 322.64  901.64 320  905 320  Z " fill-rule="nonzero" fill="#ffffff" stroke="none" />
  <path d="M 905 320.5  C 908.08 320.5  910.5 322.92  910.5 326  C 910.5 329.08  908.08 331.5  905 331.5  C 901.92 331.5  899.5 329.08  899.5 326  C 899.5 322.92  901.92 320.5  905 320.5  Z " stroke-width="1" stroke="#797979" fill="none" />
  <path d="M 905 329  C 903.32 329  902 327.68  902 326  C 902 324.32  903.32 323  905 323  C 906.68 323  908 324.32  908 326  C 908 327.68  906.68 329  905 329  " fill-rule="nonzero" fill="#797979" stroke="none" />
</svg>