<?xml version="1.0" encoding="utf-8"?>
<svg version="1.1" xmlns:xlink="http://www.w3.org/1999/xlink" width="12px" height="12px" viewBox="594 321  12 12" xmlns="http://www.w3.org/2000/svg">
  <path d="M 600 321  C 603.36 321  606 323.64  606 327  C 606 330.36  603.36 333  600 333  C 596.64 333  594 330.36  594 327  C 594 323.64  596.64 321  600 321  Z " fill-rule="nonzero" fill="#ffffff" stroke="none" />
  <path d="M 600 321.5  C 603.08 321.5  605.5 323.92  605.5 327  C 605.5 330.08  603.08 332.5  600 332.5  C 596.92 332.5  594.5 330.08  594.5 327  C 594.5 323.92  596.92 321.5  600 321.5  Z " stroke-width="1" stroke="#797979" fill="none" />
  <path d="M 600 330  C 598.32 330  597 328.68  597 327  C 597 325.32  598.32 324  600 324  C 601.68 324  603 325.32  603 327  C 603 328.68  601.68 330  600 330  " fill-rule="nonzero" fill="#797979" stroke="none" />
</svg>