<?xml version="1.0" encoding="utf-8"?>
<svg version="1.1" xmlns:xlink="http://www.w3.org/1999/xlink" width="12px" height="12px" viewBox="695 320  12 12" xmlns="http://www.w3.org/2000/svg">
  <path d="M 701 320  C 704.36 320  707 322.64  707 326  C 707 329.36  704.36 332  701 332  C 697.64 332  695 329.36  695 326  C 695 322.64  697.64 320  701 320  Z " fill-rule="nonzero" fill="#f0f0f0" stroke="none" />
  <path d="M 701 320.5  C 704.08 320.5  706.5 322.92  706.5 326  C 706.5 329.08  704.08 331.5  701 331.5  C 697.92 331.5  695.5 329.08  695.5 326  C 695.5 322.92  697.92 320.5  701 320.5  Z " stroke-width="1" stroke="#797979" fill="none" />
  <path d="M 701 329  C 699.32 329  698 327.68  698 326  C 698 324.32  699.32 323  701 323  C 702.68 323  704 324.32  704 326  C 704 327.68  702.68 329  701 329  " fill-rule="nonzero" fill="#797979" stroke="none" />
</svg>