<?xml version="1.0" encoding="utf-8"?>
<svg version="1.1" xmlns:xlink="http://www.w3.org/1999/xlink" width="25px" height="28px" xmlns="http://www.w3.org/2000/svg">
  <g transform="matrix(1 0 0 1 -639 -559 )">
    <path d="M 8.93110795454544 22.4857053894928  C 9.03764204545456 22.3795572916667  9.09090909090907 22.2439236111111  9 22.078804347826  L 9 9.6240942028985  C 9.09090909090907 9.45897493961343  9.03764204545456 9.323341259058  8.93110795454544 9.21719316123199  C 8.82457386363637 9.11104506340575  8.688446969697 9.05797101449275  8.52272727272725 9.05797101449275  L 7.38636363636363 9.05797101449275  C 7.22064393939394 9.05797101449275  7.08451704545456 9.11104506340575  6.97798295454544 9.21719316123199  C 6.87144886363637 9.323341259058  6.81818181818181 9.45897493961343  7 9.6240942028985  L 7 22.078804347826  C 6.81818181818181 22.2439236111111  6.87144886363637 22.3795572916667  6.97798295454544 22.4857053894928  C 7.08451704545456 22.5918534873188  7.22064393939394 22.644927536232  7.38636363636363 22.644927536232  L 8.52272727272725 22.644927536232  C 8.688446969697 22.644927536232  8.82457386363637 22.5918534873188  8.93110795454544 22.4857053894928  Z M 13.4765625 22.4857053894928  C 13.5830965909091 22.3795572916667  13.6363636363636 22.2439236111111  13.6363636363636 22.078804347826  L 13.6363636363636 9.6240942028985  C 13.6363636363636 9.45897493961343  13.5830965909091 9.323341259058  13.4765625 9.21719316123199  C 13.3700284090909 9.11104506340575  13.2339015151515 9.05797101449275  13.0681818181818 9.05797101449275  L 11.9318181818182 9.05797101449275  C 11.7660984848485 9.05797101449275  11.6299715909091 9.11104506340575  11.5234375 9.21719316123199  C 11.4169034090909 9.323341259058  11.3636363636364 9.45897493961343  11.3636363636364 9.6240942028985  L 11.3636363636364 22.078804347826  C 11.3636363636364 22.2439236111111  11.4169034090909 22.3795572916667  11.5234375 22.4857053894928  C 11.6299715909091 22.5918534873188  11.7660984848485 22.644927536232  11.9318181818182 22.644927536232  L 13.0681818181818 22.644927536232  C 13.2339015151515 22.644927536232  13.3700284090909 22.5918534873188  13.4765625 22.4857053894928  Z M 18.0220170454546 22.4857053894928  C 18.1285511363636 22.3795572916667  18.1818181818182 22.2439236111111  18 22.078804347826  L 18 9.6240942028985  C 18.1818181818182 9.45897493961343  18.1285511363636 9.323341259058  18.0220170454546 9.21719316123199  C 17.9154829545454 9.11104506340575  17.7793560606061 9.05797101449275  17.6136363636364 9.05797101449275  L 16.4772727272727 9.05797101449275  C 16.311553030303 9.05797101449275  16.1754261363636 9.11104506340575  16.0688920454546 9.21719316123199  C 15.9623579545454 9.323341259058  15.9090909090909 9.45897493961343  16 9.6240942028985  L 16 22.078804347826  C 15.9090909090909 22.2439236111111  15.9623579545454 22.3795572916667  16.0688920454546 22.4857053894928  C 16.1754261363636 22.5918534873188  16.311553030303 22.644927536232  16.4772727272727 22.644927536232  L 17.6136363636364 22.644927536232  C 17.7793560606061 22.644927536232  17.9154829545454 22.5918534873188  18.0220170454546 22.4857053894928  Z M 9.39275568181819 2.45909759963774  L 8.52272727272725 4.52898550724626  L 16.4772727272727 4.52898550724626  L 15.625 2.45909759963774  C 15.5421401515151 2.35294950181151  15.4415246212121 2.28808121980683  15.3231534090909 2.26449275362324  L 9.69460227272725 2.26449275362324  C 9.57623106060606 2.28808121980683  9.475615530303 2.35294950181151  9.39275568181819 2.45909759963774  Z M 24.8401988636364 4.6882076539855  C 24.9467329545454 4.79435575181151  25 4.92998943236717  25 5.09510869565224  L 25 6.22735507246375  C 25 6.39247433574883  24.9467329545454 6.52810801630426  24.8401988636364 6.63425611413049  C 24.7336647727273 6.7404042119565  24.5975378787879 6.79347826086951  24.4318181818182 6.79347826086951  L 22.7272727272727 6.79347826086951  L 22.7272727272727 23.5648777173913  C 22.7272727272727 24.5437990640096  22.4491003787879 25.3900352883454  21.8927556818182 26.1035863903985  C 21.3364109848485 26.8171374924516  20.6676136363636 27.1739130434783  19.8863636363636 27  L 5.11363636363637 27  C 4.33238636363637 27.1739130434783  3.6635890151515 26.8289317255435  3.10724431818181 26.138969089674  C 2.55089962121212 25.4490064538043  2.27272727272725 24.6145644625603  2.27272727272725 23.635643115942  L 2.27272727272725 6.79347826086951  L 0.568181818181813 6.79347826086951  C 0.402462121212125 6.79347826086951  0.266335227272748 6.7404042119565  0.159801136363626 6.63425611413049  C 0.053267045454561 6.52810801630426  0 6.39247433574883  0 6.22735507246375  L 0 5.09510869565224  C 0 4.92998943236717  0.053267045454561 4.79435575181151  0.159801136363626 4.6882076539855  C 0.266335227272748 4.58205955615949  0.402462121212125 4.52898550724626  0.568181818181813 4.52898550724626  L 6.0546875 4.52898550724626  L 7.29758522727275 1.57453011775351  C 7.47514204545456 1.13814349335757  7.79474431818181 0.766625150966092  8.25639204545456 0.459975090579746  C 8.71803977272725 0.153325030193173  9.18560606060606 0  9.65909090909093 0  L 15.3409090909091 0  C 15.8143939393939 0  16.2819602272727 0.153325030193173  16.7436079545454 0.459975090579746  C 17.2052556818182 0.766625150966092  17.5248579545454 1.13814349335757  17.7024147727273 1.57453011775351  L 18.9453125 4.52898550724626  L 24.4318181818182 4.52898550724626  C 24.5975378787879 4.52898550724626  24.7336647727273 4.58205955615949  24.8401988636364 4.6882076539855  Z " fill-rule="nonzero" fill="#000000" stroke="none" transform="matrix(1 0 0 1 639 559 )" />
  </g>
</svg>