<?xml version="1.0" encoding="utf-8"?>
<svg version="1.1" xmlns:xlink="http://www.w3.org/1999/xlink" width="25px" height="16px" xmlns="http://www.w3.org/2000/svg">
  <g transform="matrix(1 0 0 1 -602 -565 )">
    <path d="M 18.5616629464286 12.5347222222222  C 20.4264322916666 11.4097222222222  21.977306547619 9.89814814814804  23.2142857142857 8  C 21.8005952380952 5.81481481481478  20.0288318452381 4.18055555555566  17.8989955357143 3.09722222222217  C 18.4663318452381 4.06018518518522  18.75 5.10185185185196  18.75 6.22222222222217  C 18.75 7.93518518518522  18.1384858630952 9.40046296296305  16.9154575892857 10.6180555555557  C 15.6924293154761 11.835648148148  14.2206101190476 12.4444444444443  12.5 12.4444444444443  C 10.7793898809524 12.4444444444443  9.30757068452385 11.835648148148  8.08454241071433 10.6180555555557  C 6.86151413690482 9.40046296296305  6.25 7.93518518518522  6.25 6.22222222222217  C 6.25 5.10185185185196  6.53366815476193 4.06018518518522  7.10100446428567 3.09722222222217  C 4.97116815476193 4.18055555555566  3.19940476190482 5.81481481481478  1.78571428571433 8  C 3.02269345238096 9.89814814814804  4.57356770833337 11.4097222222222  6.43833705357145 12.5347222222222  C 8.30310639880952 13.6597222222222  10.3236607142857 14.2222222222222  12.5 14.2222222222222  C 14.6763392857143 14.2222222222222  16.6968936011905 13.6597222222222  18.5616629464286 12.5347222222222  Z M 12.9743303571429 3.13888888888891  C 13.1045386904761 3.00925925925935  13.1696428571429 2.85185185185196  13.1696428571429 2.66666666666674  C 13.1696428571429 2.48148148148152  13.1045386904761 2.32407407407413  12.9743303571429 2.19444444444434  C 12.8441220238095 2.06481481481478  12.6860119047619 2  12.5 2  C 11.3374255952381 2  10.3399367559524 2.41435185185196  9.50753348214289 3.24305555555566  C 8.67513020833337 4.07175925925935  8.25892857142856 5.06481481481478  8.25892857142856 6.22222222222217  C 8.25892857142856 6.40740740740739  8.32403273809518 6.56481481481478  8.45424107142856 6.69444444444434  C 8.58444940476193 6.82407407407413  8.74255952380952 6.88888888888891  8.92857142857144 6.88888888888891  C 9.11458333333337 6.88888888888891  9.27269345238096 6.82407407407413  9.40290178571433 6.69444444444434  C 9.53311011904759 6.56481481481478  9.59821428571433 6.40740740740739  9.59821428571433 6.22222222222217  C 9.59821428571433 5.42592592592587  9.88188244047615 4.74537037037044  10.44921875 4.18055555555566  C 11.0165550595239 3.61574074074065  11.7001488095239 3.33333333333326  12.5 3.33333333333326  C 12.6860119047619 3.33333333333326  12.8441220238095 3.26851851851848  12.9743303571429 3.13888888888891  Z M 24.7209821428571 7.04166666666674  C 24.906994047619 7.36574074074065  25 7.68518518518522  25 8  C 25 8.31481481481478  24.906994047619 8.63425925925935  24.7209821428571 8.95833333333326  C 23.4188988095239 11.087962962963  21.6680617559524 12.7939814814815  19.4684709821429 14.0763888888889  C 17.2688802083334 15.3587962962963  14.946056547619 16  12.5 16  C 10.053943452381 16  7.73111979166663 15.3564814814815  5.53152901785711 14.0694444444443  C 3.33193824404759 12.7824074074074  1.58110119047615 11.0787037037037  0.27901785714289 8.95833333333326  C 0.0930059523809632 8.63425925925935  0 8.31481481481478  0 8  C 0 7.68518518518522  0.0930059523809632 7.36574074074065  0.27901785714289 7.04166666666674  C 1.58110119047615 4.9212962962963  3.33193824404759 3.21759259259261  5.53152901785711 1.93055555555566  C 7.73111979166663 0.643518518518476  10.053943452381 0  12.5 0  C 14.946056547619 0  17.2688802083334 0.643518518518476  19.4684709821429 1.93055555555566  C 21.6680617559524 3.21759259259261  23.4188988095239 4.9212962962963  24.7209821428571 7.04166666666674  Z " fill-rule="nonzero" fill="#000000" stroke="none" transform="matrix(1 0 0 1 602 565 )" />
  </g>
</svg>