<?xml version="1.0" encoding="utf-8"?>
<svg version="1.1" xmlns:xlink="http://www.w3.org/1999/xlink" width="60px" height="60px" xmlns="http://www.w3.org/2000/svg">
  <g transform="matrix(1 0 0 1 -604 -543 )">
    <path d="M 604 543  L 664 543  L 664 603  L 604 603  L 604 543  " fill-rule="nonzero" fill="#cccccc" stroke="none" />
    <path d="M 608 547  L 660 547  L 660 599  L 608 599  L 608 547  " fill-rule="nonzero" fill="#ffffff" stroke="none" />
    <path d="M 639.7 561  C 637.18 561  635.2 559.02  635.2 556.5  C 635.2 553.98  637.18 552  639.7 552  C 642.22 552  644.2 553.98  644.2 556.5  C 644.2 559.02  642.22 561  639.7 561  " fill-rule="nonzero" fill="#cccccc" stroke="none" />
    <path d="M 610 598  L 610 571.05  L 622.25 558.8  L 639.4 568.6  L 649.2 566.15  L 659 568.6  L 659 598  L 610 598  " fill-rule="nonzero" fill="#169bd5" stroke="none" />
  </g>
</svg>