<?xml version="1.0" encoding="utf-8"?>
<svg version="1.1" xmlns:xlink="http://www.w3.org/1999/xlink" width="12px" height="12px" viewBox="858 484  12 12" xmlns="http://www.w3.org/2000/svg">
  <path d="M 864 484  C 867.36 484  870 486.64  870 490  C 870 493.36  867.36 496  864 496  C 860.64 496  858 493.36  858 490  C 858 486.64  860.64 484  864 484  Z " fill-rule="nonzero" fill="#f0f0f0" stroke="none" />
  <path d="M 864 484.5  C 867.08 484.5  869.5 486.92  869.5 490  C 869.5 493.08  867.08 495.5  864 495.5  C 860.92 495.5  858.5 493.08  858.5 490  C 858.5 486.92  860.92 484.5  864 484.5  Z " stroke-width="1" stroke="#797979" fill="none" />
  <path d="M 864 493  C 862.32 493  861 491.68  861 490  C 861 488.32  862.32 487  864 487  C 865.68 487  867 488.32  867 490  C 867 491.68  865.68 493  864 493  " fill-rule="nonzero" fill="#797979" stroke="none" />
</svg>