<?xml version="1.0" encoding="utf-8"?>
<svg version="1.1" xmlns:xlink="http://www.w3.org/1999/xlink" width="12px" height="12px" viewBox="2828 484  12 12" xmlns="http://www.w3.org/2000/svg">
  <path d="M 2834 484  C 2837.36 484  2840 486.64  2840 490  C 2840 493.36  2837.36 496  2834 496  C 2830.64 496  2828 493.36  2828 490  C 2828 486.64  2830.64 484  2834 484  Z " fill-rule="nonzero" fill="#f0f0f0" stroke="none" />
  <path d="M 2834 484.5  C 2837.08 484.5  2839.5 486.92  2839.5 490  C 2839.5 493.08  2837.08 495.5  2834 495.5  C 2830.92 495.5  2828.5 493.08  2828.5 490  C 2828.5 486.92  2830.92 484.5  2834 484.5  Z " stroke-width="1" stroke="#797979" fill="none" />
  <path d="M 2834 493  C 2832.32 493  2831 491.68  2831 490  C 2831 488.32  2832.32 487  2834 487  C 2835.68 487  2837 488.32  2837 490  C 2837 491.68  2835.68 493  2834 493  " fill-rule="nonzero" fill="#797979" stroke="none" />
</svg>