<?xml version="1.0" encoding="utf-8"?>
<svg version="1.1" xmlns:xlink="http://www.w3.org/1999/xlink" width="12px" height="12px" viewBox="2652 559  12 12" xmlns="http://www.w3.org/2000/svg">
  <path d="M 2658 559  C 2661.36 559  2664 561.64  2664 565  C 2664 568.36  2661.36 571  2658 571  C 2654.64 571  2652 568.36  2652 565  C 2652 561.64  2654.64 559  2658 559  Z " fill-rule="nonzero" fill="#f0f0f0" stroke="none" />
  <path d="M 2658 559.5  C 2661.08 559.5  2663.5 561.92  2663.5 565  C 2663.5 568.08  2661.08 570.5  2658 570.5  C 2654.92 570.5  2652.5 568.08  2652.5 565  C 2652.5 561.92  2654.92 559.5  2658 559.5  Z " stroke-width="1" stroke="#797979" fill="none" />
  <path d="M 2658 568  C 2656.32 568  2655 566.68  2655 565  C 2655 563.32  2656.32 562  2658 562  C 2659.68 562  2661 563.32  2661 565  C 2661 566.68  2659.68 568  2658 568  " fill-rule="nonzero" fill="#797979" stroke="none" />
</svg>