<?xml version="1.0" encoding="utf-8"?>
<svg version="1.1" xmlns:xlink="http://www.w3.org/1999/xlink" width="12px" height="12px" viewBox="582 551  12 12" xmlns="http://www.w3.org/2000/svg">
  <path d="M 588 551  C 591.36 551  594 553.64  594 557  C 594 560.36  591.36 563  588 563  C 584.64 563  582 560.36  582 557  C 582 553.64  584.64 551  588 551  Z " fill-rule="nonzero" fill="#f0f0f0" stroke="none" />
  <path d="M 588 551.5  C 591.08 551.5  593.5 553.92  593.5 557  C 593.5 560.08  591.08 562.5  588 562.5  C 584.92 562.5  582.5 560.08  582.5 557  C 582.5 553.92  584.92 551.5  588 551.5  Z " stroke-width="1" stroke="#797979" fill="none" />
  <path d="M 588 560  C 586.32 560  585 558.68  585 557  C 585 555.32  586.32 554  588 554  C 589.68 554  591 555.32  591 557  C 591 558.68  589.68 560  588 560  " fill-rule="nonzero" fill="#797979" stroke="none" />
</svg>