<?xml version="1.0" encoding="utf-8"?>
<svg version="1.1" xmlns:xlink="http://www.w3.org/1999/xlink" width="12px" height="12px" viewBox="2552 559  12 12" xmlns="http://www.w3.org/2000/svg">
  <path d="M 2558 559  C 2561.36 559  2564 561.64  2564 565  C 2564 568.36  2561.36 571  2558 571  C 2554.64 571  2552 568.36  2552 565  C 2552 561.64  2554.64 559  2558 559  Z " fill-rule="nonzero" fill="#f0f0f0" stroke="none" />
  <path d="M 2558 559.5  C 2561.08 559.5  2563.5 561.92  2563.5 565  C 2563.5 568.08  2561.08 570.5  2558 570.5  C 2554.92 570.5  2552.5 568.08  2552.5 565  C 2552.5 561.92  2554.92 559.5  2558 559.5  Z " stroke-width="1" stroke="#797979" fill="none" />
  <path d="M 2558 568  C 2556.32 568  2555 566.68  2555 565  C 2555 563.32  2556.32 562  2558 562  C 2559.68 562  2561 563.32  2561 565  C 2561 566.68  2559.68 568  2558 568  " fill-rule="nonzero" fill="#797979" stroke="none" />
</svg>