<?xml version="1.0" encoding="utf-8"?>
<svg version="1.1" xmlns:xlink="http://www.w3.org/1999/xlink" width="12px" height="12px" viewBox="682 551  12 12" xmlns="http://www.w3.org/2000/svg">
  <path d="M 688 551  C 691.36 551  694 553.64  694 557  C 694 560.36  691.36 563  688 563  C 684.64 563  682 560.36  682 557  C 682 553.64  684.64 551  688 551  Z " fill-rule="nonzero" fill="#ffffff" stroke="none" />
  <path d="M 688 551.5  C 691.08 551.5  693.5 553.92  693.5 557  C 693.5 560.08  691.08 562.5  688 562.5  C 684.92 562.5  682.5 560.08  682.5 557  C 682.5 553.92  684.92 551.5  688 551.5  Z " stroke-width="1" stroke="#797979" fill="none" />
  <path d="M 688 560  C 686.32 560  685 558.68  685 557  C 685 555.32  686.32 554  688 554  C 689.68 554  691 555.32  691 557  C 691 558.68  689.68 560  688 560  " fill-rule="nonzero" fill="#797979" stroke="none" />
</svg>