<?xml version="1.0" encoding="utf-8"?>
<svg version="1.1" xmlns:xlink="http://www.w3.org/1999/xlink" width="300px" height="300px" xmlns="http://www.w3.org/2000/svg">
  <g transform="matrix(1 0 0 1 -41 -333 )">
    <path d="M 191 333  C 275 333  341 399  341 483  C 341 567  275 633  191 633  C 107 633  41 567  41 483  C 41 399  107 333  191 333  Z " fill-rule="nonzero" fill="#ffffff" stroke="none" />
    <path d="M 191 333.5  C 274.72 333.5  340.5 399.28  340.5 483  C 340.5 566.72  274.72 632.5  191 632.5  C 107.28 632.5  41.5 566.72  41.5 483  C 41.5 399.28  107.28 333.5  191 333.5  Z " stroke-width="1" stroke="#797979" fill="none" />
  </g>
</svg>