<?xml version="1.0" encoding="utf-8"?>
<svg version="1.1" xmlns:xlink="http://www.w3.org/1999/xlink" width="80px" height="80px" xmlns="http://www.w3.org/2000/svg">
  <g transform="matrix(1 0 0 1 -151 -444 )">
    <path d="M 191 444  C 213.4 444  231 461.6  231 484  C 231 506.4  213.4 524  191 524  C 168.6 524  151 506.4  151 484  C 151 461.6  168.6 444  191 444  Z " fill-rule="nonzero" fill="#ffffff" stroke="none" />
    <path d="M 191 444.5  C 213.12 444.5  230.5 461.88  230.5 484  C 230.5 506.12  213.12 523.5  191 523.5  C 168.88 523.5  151.5 506.12  151.5 484  C 151.5 461.88  168.88 444.5  191 444.5  Z " stroke-width="1" stroke="#797979" fill="none" />
  </g>
</svg>