<?xml version="1.0" encoding="utf-8"?>
<svg version="1.1" xmlns:xlink="http://www.w3.org/1999/xlink" width="12px" height="7px" xmlns="http://www.w3.org/2000/svg">
  <g transform="matrix(1 0 0 1 -186 -219 )">
    <path d="M 11.8797595190381 0.697594501718214  C 11.9599198396794 0.775105001909111  12 0.864242077128679  12 0.965005727376848  C 12 1.06576937762505  11.9599198396794 1.15490645284459  11.8797595190381 1.23241695303552  L 6.27655310621239 6.65040091638029  C 6.19639278557116 6.7279114165712  6.10420841683367 6.76666666666665  6 6.76666666666665  C 5.89579158316633 6.76666666666665  5.80360721442884 6.7279114165712  5.72344689378761 6.65040091638029  L 0.120240480961911 1.23241695303552  C 0.0400801603206276 1.15490645284459  0 1.06576937762505  0 0.965005727376848  C 0 0.864242077128679  0.0400801603206276 0.775105001909111  0.120240480961911 0.697594501718214  L 0.721442885771552 0.11626575028636  C 0.801603206412835 0.0387552500954484  0.89378757515027 0  0.997995991983942 0  C 1.10220440881761 0  1.1943887775551 0.0387552500954484  1.27454909819639 0.11626575028636  L 6 4.68550973654067  L 10.7254509018036 0.11626575028636  C 10.8056112224449 0.0387552500954484  10.8977955911824 0  11.0020040080161 0  C 11.1062124248497 0  11.1983967935872 0.0387552500954484  11.2785571142284 0.11626575028636  L 11.8797595190381 0.697594501718214  Z " fill-rule="nonzero" fill="#000000" stroke="none" transform="matrix(1 0 0 1 186 219 )" />
  </g>
</svg>