<?xml version="1.0" encoding="utf-8"?>
<svg version="1.1" xmlns:xlink="http://www.w3.org/1999/xlink" width="12px" height="12px" viewBox="601 543  12 12" xmlns="http://www.w3.org/2000/svg">
  <path d="M 607 543  C 610.36 543  613 545.64  613 549  C 613 552.36  610.36 555  607 555  C 603.64 555  601 552.36  601 549  C 601 545.64  603.64 543  607 543  Z " fill-rule="nonzero" fill="#f0f0f0" stroke="none" />
  <path d="M 607 543.5  C 610.08 543.5  612.5 545.92  612.5 549  C 612.5 552.08  610.08 554.5  607 554.5  C 603.92 554.5  601.5 552.08  601.5 549  C 601.5 545.92  603.92 543.5  607 543.5  Z " stroke-width="1" stroke="#797979" fill="none" />
  <path d="M 607 552  C 605.32 552  604 550.68  604 549  C 604 547.32  605.32 546  607 546  C 608.68 546  610 547.32  610 549  C 610 550.68  608.68 552  607 552  " fill-rule="nonzero" fill="#797979" stroke="none" />
</svg>