<?xml version="1.0" encoding="utf-8"?>
<svg version="1.1" xmlns:xlink="http://www.w3.org/1999/xlink" width="12px" height="12px" viewBox="1674 355  12 12" xmlns="http://www.w3.org/2000/svg">
  <path d="M 1680 355  C 1683.36 355  1686 357.64  1686 361  C 1686 364.36  1683.36 367  1680 367  C 1676.64 367  1674 364.36  1674 361  C 1674 357.64  1676.64 355  1680 355  Z " fill-rule="nonzero" fill="#f0f0f0" stroke="none" />
  <path d="M 1680 355.5  C 1683.08 355.5  1685.5 357.92  1685.5 361  C 1685.5 364.08  1683.08 366.5  1680 366.5  C 1676.92 366.5  1674.5 364.08  1674.5 361  C 1674.5 357.92  1676.92 355.5  1680 355.5  Z " stroke-width="1" stroke="#797979" fill="none" />
  <path d="M 1680 364  C 1678.32 364  1677 362.68  1677 361  C 1677 359.32  1678.32 358  1680 358  C 1681.68 358  1683 359.32  1683 361  C 1683 362.68  1681.68 364  1680 364  " fill-rule="nonzero" fill="#797979" stroke="none" />
</svg>