<?xml version="1.0" encoding="utf-8"?>
<svg version="1.1" xmlns:xlink="http://www.w3.org/1999/xlink" width="12px" height="12px" viewBox="1544 625  12 12" xmlns="http://www.w3.org/2000/svg">
  <path d="M 1550 625  C 1553.36 625  1556 627.64  1556 631  C 1556 634.36  1553.36 637  1550 637  C 1546.64 637  1544 634.36  1544 631  C 1544 627.64  1546.64 625  1550 625  Z " fill-rule="nonzero" fill="#ffffff" stroke="none" />
  <path d="M 1550 625.5  C 1553.08 625.5  1555.5 627.92  1555.5 631  C 1555.5 634.08  1553.08 636.5  1550 636.5  C 1546.92 636.5  1544.5 634.08  1544.5 631  C 1544.5 627.92  1546.92 625.5  1550 625.5  Z " stroke-width="1" stroke="#797979" fill="none" />
  <path d="M 1550 634  C 1548.32 634  1547 632.68  1547 631  C 1547 629.32  1548.32 628  1550 628  C 1551.68 628  1553 629.32  1553 631  C 1553 632.68  1551.68 634  1550 634  " fill-rule="nonzero" fill="#797979" stroke="none" />
</svg>