<?xml version="1.0" encoding="utf-8"?>
<svg version="1.1" xmlns:xlink="http://www.w3.org/1999/xlink" width="12px" height="12px" viewBox="1674 490  12 12" xmlns="http://www.w3.org/2000/svg">
  <path d="M 1680 490  C 1683.36 490  1686 492.64  1686 496  C 1686 499.36  1683.36 502  1680 502  C 1676.64 502  1674 499.36  1674 496  C 1674 492.64  1676.64 490  1680 490  Z " fill-rule="nonzero" fill="#f0f0f0" stroke="none" />
  <path d="M 1680 490.5  C 1683.08 490.5  1685.5 492.92  1685.5 496  C 1685.5 499.08  1683.08 501.5  1680 501.5  C 1676.92 501.5  1674.5 499.08  1674.5 496  C 1674.5 492.92  1676.92 490.5  1680 490.5  Z " stroke-width="1" stroke="#797979" fill="none" />
  <path d="M 1680 499  C 1678.32 499  1677 497.68  1677 496  C 1677 494.32  1678.32 493  1680 493  C 1681.68 493  1683 494.32  1683 496  C 1683 497.68  1681.68 499  1680 499  " fill-rule="nonzero" fill="#797979" stroke="none" />
</svg>