<?xml version="1.0" encoding="utf-8"?>
<svg version="1.1" xmlns:xlink="http://www.w3.org/1999/xlink" width="12px" height="12px" viewBox="1544 760  12 12" xmlns="http://www.w3.org/2000/svg">
  <path d="M 1550 760  C 1553.36 760  1556 762.64  1556 766  C 1556 769.36  1553.36 772  1550 772  C 1546.64 772  1544 769.36  1544 766  C 1544 762.64  1546.64 760  1550 760  Z " fill-rule="nonzero" fill="#f0f0f0" stroke="none" />
  <path d="M 1550 760.5  C 1553.08 760.5  1555.5 762.92  1555.5 766  C 1555.5 769.08  1553.08 771.5  1550 771.5  C 1546.92 771.5  1544.5 769.08  1544.5 766  C 1544.5 762.92  1546.92 760.5  1550 760.5  Z " stroke-width="1" stroke="#797979" fill="none" />
  <path d="M 1550 769  C 1548.32 769  1547 767.68  1547 766  C 1547 764.32  1548.32 763  1550 763  C 1551.68 763  1553 764.32  1553 766  C 1553 767.68  1551.68 769  1550 769  " fill-rule="nonzero" fill="#797979" stroke="none" />
</svg>