<?xml version="1.0" encoding="utf-8"?>
<svg version="1.1" xmlns:xlink="http://www.w3.org/1999/xlink" width="12px" height="12px" viewBox="1544 490  12 12" xmlns="http://www.w3.org/2000/svg">
  <path d="M 1550 490  C 1553.36 490  1556 492.64  1556 496  C 1556 499.36  1553.36 502  1550 502  C 1546.64 502  1544 499.36  1544 496  C 1544 492.64  1546.64 490  1550 490  Z " fill-rule="nonzero" fill="#f0f0f0" stroke="none" />
  <path d="M 1550 490.5  C 1553.08 490.5  1555.5 492.92  1555.5 496  C 1555.5 499.08  1553.08 501.5  1550 501.5  C 1546.92 501.5  1544.5 499.08  1544.5 496  C 1544.5 492.92  1546.92 490.5  1550 490.5  Z " stroke-width="1" stroke="#797979" fill="none" />
  <path d="M 1550 499  C 1548.32 499  1547 497.68  1547 496  C 1547 494.32  1548.32 493  1550 493  C 1551.68 493  1553 494.32  1553 496  C 1553 497.68  1551.68 499  1550 499  " fill-rule="nonzero" fill="#797979" stroke="none" />
</svg>