<?xml version="1.0" encoding="utf-8"?>
<svg version="1.1" xmlns:xlink="http://www.w3.org/1999/xlink" width="12px" height="12px" viewBox="624 404  12 12" xmlns="http://www.w3.org/2000/svg">
  <path d="M 630 404  C 633.36 404  636 406.64  636 410  C 636 413.36  633.36 416  630 416  C 626.64 416  624 413.36  624 410  C 624 406.64  626.64 404  630 404  Z " fill-rule="nonzero" fill="#ffffff" stroke="none" />
  <path d="M 630 404.5  C 633.08 404.5  635.5 406.92  635.5 410  C 635.5 413.08  633.08 415.5  630 415.5  C 626.92 415.5  624.5 413.08  624.5 410  C 624.5 406.92  626.92 404.5  630 404.5  Z " stroke-width="1" stroke="#797979" fill="none" />
  <path d="M 630 413  C 628.32 413  627 411.68  627 410  C 627 408.32  628.32 407  630 407  C 631.68 407  633 408.32  633 410  C 633 411.68  631.68 413  630 413  " fill-rule="nonzero" fill="#797979" stroke="none" />
</svg>