<?xml version="1.0" encoding="utf-8"?>
<svg version="1.1" xmlns:xlink="http://www.w3.org/1999/xlink" width="12px" height="12px" viewBox="622 562  12 12" xmlns="http://www.w3.org/2000/svg">
  <path d="M 628 562  C 631.36 562  634 564.64  634 568  C 634 571.36  631.36 574  628 574  C 624.64 574  622 571.36  622 568  C 622 564.64  624.64 562  628 562  Z " fill-rule="nonzero" fill="#ffffff" stroke="none" />
  <path d="M 628 562.5  C 631.08 562.5  633.5 564.92  633.5 568  C 633.5 571.08  631.08 573.5  628 573.5  C 624.92 573.5  622.5 571.08  622.5 568  C 622.5 564.92  624.92 562.5  628 562.5  Z " stroke-width="1" stroke="#797979" fill="none" />
  <path d="M 628 571  C 626.32 571  625 569.68  625 568  C 625 566.32  626.32 565  628 565  C 629.68 565  631 566.32  631 568  C 631 569.68  629.68 571  628 571  " fill-rule="nonzero" fill="#797979" stroke="none" />
</svg>