<?xml version="1.0" encoding="utf-8"?>
<svg version="1.1" xmlns:xlink="http://www.w3.org/1999/xlink" width="12px" height="12px" viewBox="724 404  12 12" xmlns="http://www.w3.org/2000/svg">
  <path d="M 730 404  C 733.36 404  736 406.64  736 410  C 736 413.36  733.36 416  730 416  C 726.64 416  724 413.36  724 410  C 724 406.64  726.64 404  730 404  Z " fill-rule="nonzero" fill="#ffffff" stroke="none" />
  <path d="M 730 404.5  C 733.08 404.5  735.5 406.92  735.5 410  C 735.5 413.08  733.08 415.5  730 415.5  C 726.92 415.5  724.5 413.08  724.5 410  C 724.5 406.92  726.92 404.5  730 404.5  Z " stroke-width="1" stroke="#797979" fill="none" />
  <path d="M 730 413  C 728.32 413  727 411.68  727 410  C 727 408.32  728.32 407  730 407  C 731.68 407  733 408.32  733 410  C 733 411.68  731.68 413  730 413  " fill-rule="nonzero" fill="#797979" stroke="none" />
</svg>