<?xml version="1.0" encoding="utf-8"?>
<svg version="1.1" xmlns:xlink="http://www.w3.org/1999/xlink" width="12px" height="12px" viewBox="722 562  12 12" xmlns="http://www.w3.org/2000/svg">
  <path d="M 728 562  C 731.36 562  734 564.64  734 568  C 734 571.36  731.36 574  728 574  C 724.64 574  722 571.36  722 568  C 722 564.64  724.64 562  728 562  Z " fill-rule="nonzero" fill="#ffffff" stroke="none" />
  <path d="M 728 562.5  C 731.08 562.5  733.5 564.92  733.5 568  C 733.5 571.08  731.08 573.5  728 573.5  C 724.92 573.5  722.5 571.08  722.5 568  C 722.5 564.92  724.92 562.5  728 562.5  Z " stroke-width="1" stroke="#797979" fill="none" />
  <path d="M 728 571  C 726.32 571  725 569.68  725 568  C 725 566.32  726.32 565  728 565  C 729.68 565  731 566.32  731 568  C 731 569.68  729.68 571  728 571  " fill-rule="nonzero" fill="#797979" stroke="none" />
</svg>