<?xml version="1.0" encoding="utf-8"?>
<svg version="1.1" xmlns:xlink="http://www.w3.org/1999/xlink" width="12px" height="12px" viewBox="697 489  12 12" xmlns="http://www.w3.org/2000/svg">
  <path d="M 703 489  C 706.36 489  709 491.64  709 495  C 709 498.36  706.36 501  703 501  C 699.64 501  697 498.36  697 495  C 697 491.64  699.64 489  703 489  Z " fill-rule="nonzero" fill="#f0f0f0" stroke="none" />
  <path d="M 703 489.5  C 706.08 489.5  708.5 491.92  708.5 495  C 708.5 498.08  706.08 500.5  703 500.5  C 699.92 500.5  697.5 498.08  697.5 495  C 697.5 491.92  699.92 489.5  703 489.5  Z " stroke-width="1" stroke="#797979" fill="none" />
  <path d="M 703 498  C 701.32 498  700 496.68  700 495  C 700 493.32  701.32 492  703 492  C 704.68 492  706 493.32  706 495  C 706 496.68  704.68 498  703 498  " fill-rule="nonzero" fill="#797979" stroke="none" />
</svg>