<?xml version="1.0" encoding="utf-8"?>
<svg version="1.1" xmlns:xlink="http://www.w3.org/1999/xlink" width="12px" height="12px" viewBox="597 587  12 12" xmlns="http://www.w3.org/2000/svg">
  <path d="M 603 587  C 606.36 587  609 589.64  609 593  C 609 596.36  606.36 599  603 599  C 599.64 599  597 596.36  597 593  C 597 589.64  599.64 587  603 587  Z " fill-rule="nonzero" fill="#ffffff" stroke="none" />
  <path d="M 603 587.5  C 606.08 587.5  608.5 589.92  608.5 593  C 608.5 596.08  606.08 598.5  603 598.5  C 599.92 598.5  597.5 596.08  597.5 593  C 597.5 589.92  599.92 587.5  603 587.5  Z " stroke-width="1" stroke="#797979" fill="none" />
  <path d="M 603 596  C 601.32 596  600 594.68  600 593  C 600 591.32  601.32 590  603 590  C 604.68 590  606 591.32  606 593  C 606 594.68  604.68 596  603 596  " fill-rule="nonzero" fill="#797979" stroke="none" />
</svg>