<?xml version="1.0" encoding="utf-8"?>
<svg version="1.1" xmlns:xlink="http://www.w3.org/1999/xlink" width="12px" height="12px" viewBox="597 623  12 12" xmlns="http://www.w3.org/2000/svg">
  <path d="M 603 623  C 606.36 623  609 625.64  609 629  C 609 632.36  606.36 635  603 635  C 599.64 635  597 632.36  597 629  C 597 625.64  599.64 623  603 623  Z " fill-rule="nonzero" fill="#f0f0f0" stroke="none" />
  <path d="M 603 623.5  C 606.08 623.5  608.5 625.92  608.5 629  C 608.5 632.08  606.08 634.5  603 634.5  C 599.92 634.5  597.5 632.08  597.5 629  C 597.5 625.92  599.92 623.5  603 623.5  Z " stroke-width="1" stroke="#797979" fill="none" />
  <path d="M 603 632  C 601.32 632  600 630.68  600 629  C 600 627.32  601.32 626  603 626  C 604.68 626  606 627.32  606 629  C 606 630.68  604.68 632  603 632  " fill-rule="nonzero" fill="#797979" stroke="none" />
</svg>