<?xml version="1.0" encoding="utf-8"?>
<svg version="1.1" xmlns:xlink="http://www.w3.org/1999/xlink" width="12px" height="12px" viewBox="597 489  12 12" xmlns="http://www.w3.org/2000/svg">
  <path d="M 603 489  C 606.36 489  609 491.64  609 495  C 609 498.36  606.36 501  603 501  C 599.64 501  597 498.36  597 495  C 597 491.64  599.64 489  603 489  Z " fill-rule="nonzero" fill="#f0f0f0" stroke="none" />
  <path d="M 603 489.5  C 606.08 489.5  608.5 491.92  608.5 495  C 608.5 498.08  606.08 500.5  603 500.5  C 599.92 500.5  597.5 498.08  597.5 495  C 597.5 491.92  599.92 489.5  603 489.5  Z " stroke-width="1" stroke="#797979" fill="none" />
  <path d="M 603 498  C 601.32 498  600 496.68  600 495  C 600 493.32  601.32 492  603 492  C 604.68 492  606 493.32  606 495  C 606 496.68  604.68 498  603 498  " fill-rule="nonzero" fill="#797979" stroke="none" />
</svg>