<?xml version="1.0" encoding="utf-8"?>
<svg version="1.1" xmlns:xlink="http://www.w3.org/1999/xlink" width="12px" height="12px" viewBox="597 522  12 12" xmlns="http://www.w3.org/2000/svg">
  <path d="M 603 522  C 606.36 522  609 524.64  609 528  C 609 531.36  606.36 534  603 534  C 599.64 534  597 531.36  597 528  C 597 524.64  599.64 522  603 522  Z " fill-rule="nonzero" fill="#ffffff" stroke="none" />
  <path d="M 603 522.5  C 606.08 522.5  608.5 524.92  608.5 528  C 608.5 531.08  606.08 533.5  603 533.5  C 599.92 533.5  597.5 531.08  597.5 528  C 597.5 524.92  599.92 522.5  603 522.5  Z " stroke-width="1" stroke="#797979" fill="none" />
  <path d="M 603 531  C 601.32 531  600 529.68  600 528  C 600 526.32  601.32 525  603 525  C 604.68 525  606 526.32  606 528  C 606 529.68  604.68 531  603 531  " fill-rule="nonzero" fill="#797979" stroke="none" />
</svg>