<?xml version="1.0" encoding="utf-8"?>
<svg version="1.1" xmlns:xlink="http://www.w3.org/1999/xlink" width="12px" height="12px" viewBox="697 522  12 12" xmlns="http://www.w3.org/2000/svg">
  <path d="M 703 522  C 706.36 522  709 524.64  709 528  C 709 531.36  706.36 534  703 534  C 699.64 534  697 531.36  697 528  C 697 524.64  699.64 522  703 522  Z " fill-rule="nonzero" fill="#f0f0f0" stroke="none" />
  <path d="M 703 522.5  C 706.08 522.5  708.5 524.92  708.5 528  C 708.5 531.08  706.08 533.5  703 533.5  C 699.92 533.5  697.5 531.08  697.5 528  C 697.5 524.92  699.92 522.5  703 522.5  Z " stroke-width="1" stroke="#797979" fill="none" />
  <path d="M 703 531  C 701.32 531  700 529.68  700 528  C 700 526.32  701.32 525  703 525  C 704.68 525  706 526.32  706 528  C 706 529.68  704.68 531  703 531  " fill-rule="nonzero" fill="#797979" stroke="none" />
</svg>