<?xml version="1.0" encoding="utf-8"?>
<svg version="1.1" xmlns:xlink="http://www.w3.org/1999/xlink" width="24px" height="24px" xmlns="http://www.w3.org/2000/svg">
  <g transform="matrix(1 0 0 1 -1752 -108 )">
    <path d="M 17.65625 14.0390625  C 17.78125 14.2838541666667  17.8020833333339 14.5364583333333  17.71875 14.796875  C 17.3333333333339 16.0572916666667  16.6145833333339 17.0729166666667  15.5625 17.84375  C 14.5104166666661 18.6145833333333  13.3229166666661 19  12 19  C 10.6770833333339 19  9.48958333333394 18.6145833333333  8.4375 17.84375  C 7.38541666666606 17.0729166666667  6.66666666666606 16.0572916666667  6.28125 14.796875  C 6.19791666666606 14.5364583333333  6.21875 14.2838541666667  6.34375 14.0390625  C 6.46875 13.7942708333333  6.66666666666606 13.6302083333333  6.9375 13.546875  C 7.19791666666606 13.4635416666667  7.45052083333394 13.484375  7.6953125 13.609375  C 7.94010416666606 13.734375  8.10416666666606 13.9322916666667  8.1875 14.203125  C 8.44791666666606 15.0364583333333  8.9296875 15.7109375  9.6328125 16.2265625  C 10.3359375 16.7421875  11.125 17  12 17  C 12.875 17  13.6640625 16.7421875  14.3671875 16.2265625  C 15.0703125 15.7109375  15.5520833333339 15.0364583333333  15.8125 14.203125  C 15.8958333333339 13.9322916666667  16.0625 13.734375  16.3125 13.609375  C 16.5625 13.484375  16.8177083333339 13.4635416666667  17.078125 13.546875  C 17.3385416666661 13.6302083333333  17.53125 13.7942708333333  17.65625 14.0390625  Z M 9.4140625 6.5859375  C 9.8046875 6.9765625  10 7.44791666666666  10 8  C 10 8.55208333333333  9.8046875 9.0234375  9.4140625 9.4140625  C 9.0234375 9.8046875  8.55208333333394 10  8 10  C 7.44791666666606 10  6.9765625 9.8046875  6.5859375 9.4140625  C 6.1953125 9.0234375  6 8.55208333333333  6 8  C 6 7.44791666666666  6.1953125 6.9765625  6.5859375 6.5859375  C 6.9765625 6.1953125  7.44791666666606 6  8 6  C 8.55208333333394 6  9.0234375 6.1953125  9.4140625 6.5859375  Z M 17.4140625 6.5859375  C 17.8046875 6.9765625  18 7.44791666666666  18 8  C 18 8.55208333333333  17.8046875 9.0234375  17.4140625 9.4140625  C 17.0234375 9.8046875  16.5520833333339 10  16 10  C 15.4479166666661 10  14.9765625 9.8046875  14.5859375 9.4140625  C 14.1953125 9.0234375  14 8.55208333333333  14 8  C 14 7.44791666666666  14.1953125 6.9765625  14.5859375 6.5859375  C 14.9765625 6.1953125  15.4479166666661 6  16 6  C 16.5520833333339 6  17.0234375 6.1953125  17.4140625 6.5859375  Z M 21.203125 15.8828125  C 21.734375 14.6484375  22 13.3541666666667  22 12  C 22 10.6458333333333  21.734375 9.3515625  21.203125 8.1171875  C 20.671875 6.8828125  19.9609375 5.8203125  19.0703125 4.9296875  C 18.1796875 4.0390625  17.1171875 3.328125  15.8828125 2.796875  C 14.6484375 2.265625  13.3541666666661 2  12 2  C 10.6458333333339 2  9.3515625 2.265625  8.1171875 2.796875  C 6.8828125 3.328125  5.8203125 4.0390625  4.9296875 4.9296875  C 4.0390625 5.8203125  3.328125 6.8828125  2.796875 8.1171875  C 2.265625 9.3515625  2 10.6458333333333  2 12  C 2 13.3541666666667  2.265625 14.6484375  2.796875 15.8828125  C 3.328125 17.1171875  4.0390625 18.1796875  4.9296875 19.0703125  C 5.8203125 19.9609375  6.8828125 20.671875  8.1171875 21.203125  C 9.3515625 21.734375  10.6458333333339 22  12 22  C 13.3541666666661 22  14.6484375 21.734375  15.8828125 21.203125  C 17.1171875 20.671875  18.1796875 19.9609375  19.0703125 19.0703125  C 19.9609375 18.1796875  20.671875 17.1171875  21.203125 15.8828125  Z M 22.390625 5.9765625  C 23.4635416666661 7.81510416666666  24 9.82291666666666  24 12  C 24 14.1770833333333  23.4635416666661 16.1848958333333  22.390625 18.0234375  C 21.3177083333339 19.8619791666667  19.8619791666661 21.3177083333333  18.0234375 22.390625  C 16.1848958333339 23.4635416666667  14.1770833333339 24  12 24  C 9.82291666666606 24  7.81510416666606 23.4635416666667  5.9765625 22.390625  C 4.13802083333394 21.3177083333333  2.68229166666606 19.8619791666667  1.609375 18.0234375  C 0.53645833333394 16.1848958333333  0 14.1770833333333  0 12  C 0 9.82291666666666  0.53645833333394 7.81510416666666  1.609375 5.9765625  C 2.68229166666606 4.13802083333334  4.13802083333394 2.68229166666666  5.9765625 1.609375  C 7.81510416666606 0.536458333333332  9.82291666666606 0  12 0  C 14.1770833333339 0  16.1848958333339 0.536458333333332  18.0234375 1.609375  C 19.8619791666661 2.68229166666666  21.3177083333339 4.13802083333334  22.390625 5.9765625  Z " fill-rule="nonzero" fill="#ffffff" stroke="none" transform="matrix(1 0 0 1 1752 108 )" />
  </g>
</svg>