<?xml version="1.0" encoding="utf-8"?>
<svg version="1.1" xmlns:xlink="http://www.w3.org/1999/xlink" width="12px" height="12px" viewBox="701 632  12 12" xmlns="http://www.w3.org/2000/svg">
  <path d="M 707 632  C 710.36 632  713 634.64  713 638  C 713 641.36  710.36 644  707 644  C 703.64 644  701 641.36  701 638  C 701 634.64  703.64 632  707 632  Z " fill-rule="nonzero" fill="#f0f0f0" stroke="none" />
  <path d="M 707 632.5  C 710.08 632.5  712.5 634.92  712.5 638  C 712.5 641.08  710.08 643.5  707 643.5  C 703.92 643.5  701.5 641.08  701.5 638  C 701.5 634.92  703.92 632.5  707 632.5  Z " stroke-width="1" stroke="#797979" fill="none" />
  <path d="M 707 641  C 705.32 641  704 639.68  704 638  C 704 636.32  705.32 635  707 635  C 708.68 635  710 636.32  710 638  C 710 639.68  708.68 641  707 641  " fill-rule="nonzero" fill="#797979" stroke="none" />
</svg>