<?xml version="1.0" encoding="utf-8"?>
<svg version="1.1" xmlns:xlink="http://www.w3.org/1999/xlink" width="12px" height="12px" viewBox="606 556  12 12" xmlns="http://www.w3.org/2000/svg">
  <path d="M 612 556  C 615.36 556  618 558.64  618 562  C 618 565.36  615.36 568  612 568  C 608.64 568  606 565.36  606 562  C 606 558.64  608.64 556  612 556  Z " fill-rule="nonzero" fill="#f0f0f0" stroke="none" />
  <path d="M 612 556.5  C 615.08 556.5  617.5 558.92  617.5 562  C 617.5 565.08  615.08 567.5  612 567.5  C 608.92 567.5  606.5 565.08  606.5 562  C 606.5 558.92  608.92 556.5  612 556.5  Z " stroke-width="1" stroke="#797979" fill="none" />
  <path d="M 612 565  C 610.32 565  609 563.68  609 562  C 609 560.32  610.32 559  612 559  C 613.68 559  615 560.32  615 562  C 615 563.68  613.68 565  612 565  " fill-rule="nonzero" fill="#797979" stroke="none" />
</svg>