<?xml version="1.0" encoding="utf-8"?>
<svg version="1.1" xmlns:xlink="http://www.w3.org/1999/xlink" width="12px" height="12px" viewBox="701 1838  12 12" xmlns="http://www.w3.org/2000/svg">
  <path d="M 707 1838  C 710.36 1838  713 1840.64  713 1844  C 713 1847.36  710.36 1850  707 1850  C 703.64 1850  701 1847.36  701 1844  C 701 1840.64  703.64 1838  707 1838  Z " fill-rule="nonzero" fill="#f0f0f0" stroke="none" />
  <path d="M 707 1838.5  C 710.08 1838.5  712.5 1840.92  712.5 1844  C 712.5 1847.08  710.08 1849.5  707 1849.5  C 703.92 1849.5  701.5 1847.08  701.5 1844  C 701.5 1840.92  703.92 1838.5  707 1838.5  Z " stroke-width="1" stroke="#797979" fill="none" />
  <path d="M 707 1847  C 705.32 1847  704 1845.68  704 1844  C 704 1842.32  705.32 1841  707 1841  C 708.68 1841  710 1842.32  710 1844  C 710 1845.68  708.68 1847  707 1847  " fill-rule="nonzero" fill="#797979" stroke="none" />
</svg>