<?xml version="1.0" encoding="utf-8"?>
<svg version="1.1" xmlns:xlink="http://www.w3.org/1999/xlink" width="12px" height="12px" viewBox="601 1838  12 12" xmlns="http://www.w3.org/2000/svg">
  <path d="M 607 1838  C 610.36 1838  613 1840.64  613 1844  C 613 1847.36  610.36 1850  607 1850  C 603.64 1850  601 1847.36  601 1844  C 601 1840.64  603.64 1838  607 1838  Z " fill-rule="nonzero" fill="#ffffff" stroke="none" />
  <path d="M 607 1838.5  C 610.08 1838.5  612.5 1840.92  612.5 1844  C 612.5 1847.08  610.08 1849.5  607 1849.5  C 603.92 1849.5  601.5 1847.08  601.5 1844  C 601.5 1840.92  603.92 1838.5  607 1838.5  Z " stroke-width="1" stroke="#797979" fill="none" />
  <path d="M 607 1847  C 605.32 1847  604 1845.68  604 1844  C 604 1842.32  605.32 1841  607 1841  C 608.68 1841  610 1842.32  610 1844  C 610 1845.68  608.68 1847  607 1847  " fill-rule="nonzero" fill="#797979" stroke="none" />
</svg>