<?xml version="1.0" encoding="utf-8"?>
<svg version="1.1" xmlns:xlink="http://www.w3.org/1999/xlink" width="12px" height="12px" viewBox="703 434  12 12" xmlns="http://www.w3.org/2000/svg">
  <path d="M 709 434  C 712.36 434  715 436.64  715 440  C 715 443.36  712.36 446  709 446  C 705.64 446  703 443.36  703 440  C 703 436.64  705.64 434  709 434  Z " fill-rule="nonzero" fill="#ffffff" stroke="none" />
  <path d="M 709 434.5  C 712.08 434.5  714.5 436.92  714.5 440  C 714.5 443.08  712.08 445.5  709 445.5  C 705.92 445.5  703.5 443.08  703.5 440  C 703.5 436.92  705.92 434.5  709 434.5  Z " stroke-width="1" stroke="#797979" fill="none" />
  <path d="M 709 443  C 707.32 443  706 441.68  706 440  C 706 438.32  707.32 437  709 437  C 710.68 437  712 438.32  712 440  C 712 441.68  710.68 443  709 443  " fill-rule="nonzero" fill="#797979" stroke="none" />
</svg>