<?xml version="1.0" encoding="utf-8"?>
<svg version="1.1" xmlns:xlink="http://www.w3.org/1999/xlink" width="12px" height="12px" viewBox="606 1762  12 12" xmlns="http://www.w3.org/2000/svg">
  <path d="M 612 1762  C 615.36 1762  618 1764.64  618 1768  C 618 1771.36  615.36 1774  612 1774  C 608.64 1774  606 1771.36  606 1768  C 606 1764.64  608.64 1762  612 1762  Z " fill-rule="nonzero" fill="#ffffff" stroke="none" />
  <path d="M 612 1762.5  C 615.08 1762.5  617.5 1764.92  617.5 1768  C 617.5 1771.08  615.08 1773.5  612 1773.5  C 608.92 1773.5  606.5 1771.08  606.5 1768  C 606.5 1764.92  608.92 1762.5  612 1762.5  Z " stroke-width="1" stroke="#797979" fill="none" />
  <path d="M 612 1771  C 610.32 1771  609 1769.68  609 1768  C 609 1766.32  610.32 1765  612 1765  C 613.68 1765  615 1766.32  615 1768  C 615 1769.68  613.68 1771  612 1771  " fill-rule="nonzero" fill="#797979" stroke="none" />
</svg>