<?xml version="1.0" encoding="utf-8"?>
<svg version="1.1" xmlns:xlink="http://www.w3.org/1999/xlink" width="12px" height="12px" viewBox="706 1762  12 12" xmlns="http://www.w3.org/2000/svg">
  <path d="M 712 1762  C 715.36 1762  718 1764.64  718 1768  C 718 1771.36  715.36 1774  712 1774  C 708.64 1774  706 1771.36  706 1768  C 706 1764.64  708.64 1762  712 1762  Z " fill-rule="nonzero" fill="#ffffff" stroke="none" />
  <path d="M 712 1762.5  C 715.08 1762.5  717.5 1764.92  717.5 1768  C 717.5 1771.08  715.08 1773.5  712 1773.5  C 708.92 1773.5  706.5 1771.08  706.5 1768  C 706.5 1764.92  708.92 1762.5  712 1762.5  Z " stroke-width="1" stroke="#797979" fill="none" />
  <path d="M 712 1771  C 710.32 1771  709 1769.68  709 1768  C 709 1766.32  710.32 1765  712 1765  C 713.68 1765  715 1766.32  715 1768  C 715 1769.68  713.68 1771  712 1771  " fill-rule="nonzero" fill="#797979" stroke="none" />
</svg>