<?xml version="1.0" encoding="utf-8"?>
<svg version="1.1" xmlns:xlink="http://www.w3.org/1999/xlink" width="12px" height="12px" viewBox="601 632  12 12" xmlns="http://www.w3.org/2000/svg">
  <path d="M 607 632  C 610.36 632  613 634.64  613 638  C 613 641.36  610.36 644  607 644  C 603.64 644  601 641.36  601 638  C 601 634.64  603.64 632  607 632  Z " fill-rule="nonzero" fill="#f0f0f0" stroke="none" />
  <path d="M 607 632.5  C 610.08 632.5  612.5 634.92  612.5 638  C 612.5 641.08  610.08 643.5  607 643.5  C 603.92 643.5  601.5 641.08  601.5 638  C 601.5 634.92  603.92 632.5  607 632.5  Z " stroke-width="1" stroke="#797979" fill="none" />
  <path d="M 607 641  C 605.32 641  604 639.68  604 638  C 604 636.32  605.32 635  607 635  C 608.68 635  610 636.32  610 638  C 610 639.68  608.68 641  607 641  " fill-rule="nonzero" fill="#797979" stroke="none" />
</svg>