<?xml version="1.0" encoding="utf-8"?>
<svg version="1.1" xmlns:xlink="http://www.w3.org/1999/xlink" width="12px" height="12px" viewBox="603 434  12 12" xmlns="http://www.w3.org/2000/svg">
  <path d="M 609 434  C 612.36 434  615 436.64  615 440  C 615 443.36  612.36 446  609 446  C 605.64 446  603 443.36  603 440  C 603 436.64  605.64 434  609 434  Z " fill-rule="nonzero" fill="#f0f0f0" stroke="none" />
  <path d="M 609 434.5  C 612.08 434.5  614.5 436.92  614.5 440  C 614.5 443.08  612.08 445.5  609 445.5  C 605.92 445.5  603.5 443.08  603.5 440  C 603.5 436.92  605.92 434.5  609 434.5  Z " stroke-width="1" stroke="#797979" fill="none" />
  <path d="M 609 443  C 607.32 443  606 441.68  606 440  C 606 438.32  607.32 437  609 437  C 610.68 437  612 438.32  612 440  C 612 441.68  610.68 443  609 443  " fill-rule="nonzero" fill="#797979" stroke="none" />
</svg>