<?xml version="1.0" encoding="utf-8"?>
<svg version="1.1" xmlns:xlink="http://www.w3.org/1999/xlink" width="12px" height="12px" viewBox="603 1640  12 12" xmlns="http://www.w3.org/2000/svg">
  <path d="M 609 1640  C 612.36 1640  615 1642.64  615 1646  C 615 1649.36  612.36 1652  609 1652  C 605.64 1652  603 1649.36  603 1646  C 603 1642.64  605.64 1640  609 1640  Z " fill-rule="nonzero" fill="#ffffff" stroke="none" />
  <path d="M 609 1640.5  C 612.08 1640.5  614.5 1642.92  614.5 1646  C 614.5 1649.08  612.08 1651.5  609 1651.5  C 605.92 1651.5  603.5 1649.08  603.5 1646  C 603.5 1642.92  605.92 1640.5  609 1640.5  Z " stroke-width="1" stroke="#797979" fill="none" />
  <path d="M 609 1649  C 607.32 1649  606 1647.68  606 1646  C 606 1644.32  607.32 1643  609 1643  C 610.68 1643  612 1644.32  612 1646  C 612 1647.68  610.68 1649  609 1649  " fill-rule="nonzero" fill="#797979" stroke="none" />
</svg>