<?xml version="1.0" encoding="utf-8"?>
<svg version="1.1" xmlns:xlink="http://www.w3.org/1999/xlink" width="12px" height="12px" viewBox="703 1640  12 12" xmlns="http://www.w3.org/2000/svg">
  <path d="M 709 1640  C 712.36 1640  715 1642.64  715 1646  C 715 1649.36  712.36 1652  709 1652  C 705.64 1652  703 1649.36  703 1646  C 703 1642.64  705.64 1640  709 1640  Z " fill-rule="nonzero" fill="#f0f0f0" stroke="none" />
  <path d="M 709 1640.5  C 712.08 1640.5  714.5 1642.92  714.5 1646  C 714.5 1649.08  712.08 1651.5  709 1651.5  C 705.92 1651.5  703.5 1649.08  703.5 1646  C 703.5 1642.92  705.92 1640.5  709 1640.5  Z " stroke-width="1" stroke="#797979" fill="none" />
  <path d="M 709 1649  C 707.32 1649  706 1647.68  706 1646  C 706 1644.32  707.32 1643  709 1643  C 710.68 1643  712 1644.32  712 1646  C 712 1647.68  710.68 1649  709 1649  " fill-rule="nonzero" fill="#797979" stroke="none" />
</svg>