<?xml version="1.0" encoding="utf-8"?>
<svg version="1.1" xmlns:xlink="http://www.w3.org/1999/xlink" width="12px" height="12px" viewBox="601 1798  12 12" xmlns="http://www.w3.org/2000/svg">
  <path d="M 607 1798  C 610.36 1798  613 1800.64  613 1804  C 613 1807.36  610.36 1810  607 1810  C 603.64 1810  601 1807.36  601 1804  C 601 1800.64  603.64 1798  607 1798  Z " fill-rule="nonzero" fill="#ffffff" stroke="none" />
  <path d="M 607 1798.5  C 610.08 1798.5  612.5 1800.92  612.5 1804  C 612.5 1807.08  610.08 1809.5  607 1809.5  C 603.92 1809.5  601.5 1807.08  601.5 1804  C 601.5 1800.92  603.92 1798.5  607 1798.5  Z " stroke-width="1" stroke="#797979" fill="none" />
  <path d="M 607 1807  C 605.32 1807  604 1805.68  604 1804  C 604 1802.32  605.32 1801  607 1801  C 608.68 1801  610 1802.32  610 1804  C 610 1805.68  608.68 1807  607 1807  " fill-rule="nonzero" fill="#797979" stroke="none" />
</svg>