<?xml version="1.0" encoding="utf-8"?>
<svg version="1.1" xmlns:xlink="http://www.w3.org/1999/xlink" width="12px" height="12px" viewBox="701 1798  12 12" xmlns="http://www.w3.org/2000/svg">
  <path d="M 707 1798  C 710.36 1798  713 1800.64  713 1804  C 713 1807.36  710.36 1810  707 1810  C 703.64 1810  701 1807.36  701 1804  C 701 1800.64  703.64 1798  707 1798  Z " fill-rule="nonzero" fill="#ffffff" stroke="none" />
  <path d="M 707 1798.5  C 710.08 1798.5  712.5 1800.92  712.5 1804  C 712.5 1807.08  710.08 1809.5  707 1809.5  C 703.92 1809.5  701.5 1807.08  701.5 1804  C 701.5 1800.92  703.92 1798.5  707 1798.5  Z " stroke-width="1" stroke="#797979" fill="none" />
  <path d="M 707 1807  C 705.32 1807  704 1805.68  704 1804  C 704 1802.32  705.32 1801  707 1801  C 708.68 1801  710 1802.32  710 1804  C 710 1805.68  708.68 1807  707 1807  " fill-rule="nonzero" fill="#797979" stroke="none" />
</svg>