<?xml version="1.0" encoding="utf-8"?>
<svg version="1.1" xmlns:xlink="http://www.w3.org/1999/xlink" width="20px" height="20px" xmlns="http://www.w3.org/2000/svg">
  <g transform="matrix(1 0 0 1 -944 -509 )">
    <path d="M 1.47692307692307 15.3571428571429  L 1.47692307692307 18.5714285714286  L 4.79999999999995 18.5714285714286  L 4.79999999999995 15.3571428571429  L 1.47692307692307 15.3571428571429  Z M 5.53846153846155 15.3571428571429  L 5.53846153846155 18.5714285714286  L 9.23076923076928 18.5714285714286  L 9.23076923076928 15.3571428571429  L 5.53846153846155 15.3571428571429  Z M 1.47692307692307 11.0714285714286  L 1.47692307692307 14.6428571428571  L 4.79999999999995 14.6428571428571  L 4.79999999999995 11.0714285714286  L 1.47692307692307 11.0714285714286  Z M 5.53846153846155 11.0714285714286  L 5.53846153846155 14.6428571428571  L 9.23076923076928 14.6428571428571  L 9.23076923076928 11.0714285714286  L 5.53846153846155 11.0714285714286  Z M 1.47692307692307 7.14285714285711  L 1.47692307692307 10.3571428571429  L 4.79999999999995 10.3571428571429  L 4.79999999999995 7.14285714285711  L 1.47692307692307 7.14285714285711  Z M 9.96923076923076 15.3571428571429  L 9.96923076923076 18.5714285714286  L 13.6615384615385 18.5714285714286  L 13.6615384615385 15.3571428571429  L 9.96923076923076 15.3571428571429  Z M 5.53846153846155 7.14285714285711  L 5.53846153846155 10.3571428571429  L 9.23076923076928 10.3571428571429  L 9.23076923076928 7.14285714285711  L 5.53846153846155 7.14285714285711  Z M 14.4 15.3571428571429  L 14.4 18.5714285714286  L 17.723076923077 18.5714285714286  L 17.723076923077 15.3571428571429  L 14.4 15.3571428571429  Z M 9.96923076923076 11.0714285714286  L 9.96923076923076 14.6428571428571  L 13.6615384615385 14.6428571428571  L 13.6615384615385 11.0714285714286  L 9.96923076923076 11.0714285714286  Z M 5.79807692307702 5.25111607142861  C 5.8711538461539 5.18043154761898  5.9076923076924 5.0967261904762  5.9076923076924 5  L 5.9076923076924 1.78571428571422  C 5.9076923076924 1.68898809523807  5.8711538461539 1.60528273809524  5.79807692307702 1.53459821428578  C 5.72500000000002 1.4639136904762  5.63846153846157 1.42857142857139  5.53846153846155 1.42857142857139  L 4.79999999999995 1.42857142857139  C 4.70000000000005 1.42857142857139  4.61346153846159 1.4639136904762  4.5403846153846 1.53459821428578  C 4.46730769230771 1.60528273809524  4.43076923076922 1.68898809523807  4.43076923076922 1.78571428571422  L 4.43076923076922 5  C 4.43076923076922 5.0967261904762  4.46730769230771 5.18043154761898  4.5403846153846 5.25111607142861  C 4.61346153846159 5.32180059523807  4.70000000000005 5.35714285714289  4.79999999999995 5.35714285714289  L 5.53846153846155 5.35714285714289  C 5.63846153846157 5.35714285714289  5.72500000000002 5.32180059523807  5.79807692307702 5.25111607142861  Z M 14.4 11.0714285714286  L 14.4 14.6428571428571  L 17.723076923077 14.6428571428571  L 17.723076923077 11.0714285714286  L 14.4 11.0714285714286  Z M 9.96923076923076 7.14285714285711  L 9.96923076923076 10.3571428571429  L 13.6615384615385 10.3571428571429  L 13.6615384615385 7.14285714285711  L 9.96923076923076 7.14285714285711  Z M 14.4 7.14285714285711  L 14.4 10.3571428571429  L 17.723076923077 10.3571428571429  L 17.723076923077 7.14285714285711  L 14.4 7.14285714285711  Z M 14.6596153846154 5.25111607142861  C 14.7326923076923 5.18043154761898  14.7692307692308 5.0967261904762  14.7692307692308 5  L 14.7692307692308 1.78571428571422  C 14.7692307692308 1.68898809523807  14.7326923076923 1.60528273809524  14.6596153846154 1.53459821428578  C 14.5865384615385 1.4639136904762  14.4999999999999 1.42857142857139  14.4 1.42857142857139  L 13.6615384615385 1.42857142857139  C 13.5615384615385 1.42857142857139  13.475 1.4639136904762  13.401923076923 1.53459821428578  C 13.3288461538461 1.60528273809524  13.2923076923078 1.68898809523807  13.2923076923078 1.78571428571422  L 13.2923076923078 5  C 13.2923076923078 5.0967261904762  13.3288461538461 5.18043154761898  13.401923076923 5.25111607142861  C 13.475 5.32180059523807  13.5615384615385 5.35714285714289  13.6615384615385 5.35714285714289  L 14.4 5.35714285714289  C 14.4999999999999 5.35714285714289  14.5865384615385 5.32180059523807  14.6596153846154 5.25111607142861  Z M 18.7615384615385 3.28125  C 19.0538461538462 3.56398809523807  19.2 3.89880952380952  19 4.28571428571422  L 19 18.5714285714286  C 19.2 18.9583333333334  19.0538461538462 19.2931547619048  18.7615384615385 19.5758928571429  C 18.4692307692308 19.858630952381  18.123076923077 20  17.723076923077 20  L 1.47692307692307 20  C 1.07692307692298 20  0.730769230769283 19.858630952381  0.438461538461524 19.5758928571429  C 0.146153846153879 19.2931547619048  0 18.9583333333334  0 18.5714285714286  L 0 4.28571428571422  C 0 3.89880952380952  0.146153846153879 3.56398809523807  0.438461538461524 3.28125  C 0.730769230769283 2.99851190476181  1.07692307692298 2.85714285714289  1.47692307692307 2.85714285714289  L 2.95384615384626 2.85714285714289  L 2.95384615384626 1.78571428571422  C 2.95384615384626 1.29464285714289  3.13461538461547 0.87425595238102  3.49615384615379 0.524553571428612  C 3.85769230769233 0.174851190476204  4.29230769230765 0  4.79999999999995 0  L 5.53846153846155 0  C 6.04615384615386 0  6.48076923076928 0.174851190476204  6.84230769230771 0.524553571428612  C 7.20384615384626 0.87425595238102  7.38461538461536 1.29464285714289  7.38461538461536 1.78571428571422  L 7.38461538461536 2.85714285714289  L 11.8153846153847 2.85714285714289  L 11.8153846153847 1.78571428571422  C 11.8153846153847 1.29464285714289  11.9961538461538 0.87425595238102  12.3576923076923 0.524553571428612  C 12.7192307692309 0.174851190476204  13.1538461538463 0  13.6615384615385 0  L 14.4 0  C 14.9076923076923 0  15.3423076923077 0.174851190476204  15.7038461538463 0.524553571428612  C 16.0653846153846 0.87425595238102  16.2461538461538 1.29464285714289  16.2461538461538 1.78571428571422  L 16.2461538461538 2.85714285714289  L 17.723076923077 2.85714285714289  C 18.123076923077 2.85714285714289  18.4692307692308 2.99851190476181  18.7615384615385 3.28125  Z " fill-rule="nonzero" fill="#000000" stroke="none" transform="matrix(1 0 0 1 944 509 )" />
  </g>
</svg>