<?xml version="1.0" encoding="utf-8"?>
<svg version="1.1" xmlns:xlink="http://www.w3.org/1999/xlink" width="32px" height="32px" xmlns="http://www.w3.org/2000/svg">
  <g transform="matrix(1 0 0 1 -825 -322 )">
    <path d="M 9.78571428571429 1.26785714285714  C 11.7619047619048 0.422619047619047  13.8333333333333 0  16 0  C 18.1666666666667 0  20.2380952380952 0.422619047619047  22.2142857142857 1.26785714285714  C 24.1904761904762 2.11309523809524  25.8928571428571 3.25  27.3214285714286 4.67857142857143  C 28.75 6.10714285714286  29.8869047619048 7.80952380952381  30.7321428571429 9.78571428571428  C 31.577380952381 11.7619047619048  32 13.8333333333333  32 16  C 32 18.1547619047619  31.5803571428571 20.2202380952381  30.7410714285714 22.1964285714286  C 29.9017857142857 24.1726190476191  28.7678571428571 25.875  27.3392857142857 27.3035714285714  C 25.9107142857143 28.7321428571429  24.2083333333333 29.8720238095238  22.2321428571429 30.7232142857143  C 20.2559523809524 31.5744047619048  18.1785714285714 32  16 32  C 13.8214285714286 32  11.7440476190476 31.577380952381  9.76785714285714 30.7321428571429  C 7.79166666666667 29.8869047619048  6.09226190476191 28.7470238095238  4.66964285714286 27.3125  C 3.24702380952381 25.8779761904762  2.11309523809524 24.1755952380952  1.26785714285714 22.2053571428571  C 0.422619047619048 20.235119047619  0 18.1666666666667  0 16  C 0 13.8333333333333  0.422619047619048 11.7619047619048  1.26785714285714 9.78571428571428  C 2.11309523809524 7.80952380952381  3.25 6.10714285714286  4.67857142857143 4.67857142857143  C 6.10714285714286 3.25  7.80952380952381 2.11309523809524  9.78571428571429 1.26785714285714  Z M 21.5892857142857 18.2857142857143  C 24.4464285714286 18.2857142857143  26.2678571428571 20.2321428571429  27.0535714285714 24.125  C 28.827380952381 21.6845238095238  29.7142857142857 18.9761904761905  29.7142857142857 16  C 29.7142857142857 14.1428571428571  29.3511904761905 12.3690476190476  28.625 10.6785714285714  C 27.8988095238095 8.98809523809524  26.9226190476191 7.5297619047619  25.6964285714286 6.30357142857143  C 24.4702380952381 5.07738095238095  23.0119047619048 4.10119047619047  21.3214285714286 3.375  C 19.6309523809524 2.64880952380952  17.8571428571429 2.28571428571428  16 2.28571428571428  C 14.1428571428571 2.28571428571428  12.3690476190476 2.64880952380952  10.6785714285714 3.375  C 8.98809523809524 4.10119047619047  7.52976190476191 5.07738095238095  6.30357142857143 6.30357142857143  C 5.07738095238095 7.5297619047619  4.10119047619048 8.98809523809524  3.375 10.6785714285714  C 2.64880952380952 12.3690476190476  2.28571428571429 14.1428571428571  2.28571428571429 16  C 2.28571428571429 18.9761904761905  3.17261904761905 21.6845238095238  4.94642857142857 24.125  C 5.73214285714286 20.2321428571429  7.55357142857143 18.2857142857143  10.4107142857143 18.2857142857143  C 11.9702380952381 19.8095238095238  13.8333333333333 20.5714285714286  16 20.5714285714286  C 18.1666666666667 20.5714285714286  20.0297619047619 19.8095238095238  21.5892857142857 18.2857142857143  Z M 20.8482142857143 17.4196428571429  C 22.1875 16.0803571428571  22.8571428571429 14.4642857142857  22.8571428571429 12.5714285714286  C 22.8571428571429 10.6785714285714  22.1875 9.0625  20.8482142857143 7.72321428571428  C 19.5089285714286 6.38392857142857  17.8928571428571 5.71428571428572  16 5.71428571428572  C 14.1071428571429 5.71428571428572  12.4910714285714 6.38392857142857  11.1517857142857 7.72321428571428  C 9.8125 9.0625  9.14285714285714 10.6785714285714  9.14285714285714 12.5714285714286  C 9.14285714285714 14.4642857142857  9.8125 16.0803571428571  11.1517857142857 17.4196428571429  C 12.4910714285714 18.7589285714286  14.1071428571429 19.4285714285714  16 19.4285714285714  C 17.8928571428571 19.4285714285714  19.5089285714286 18.7589285714286  20.8482142857143 17.4196428571429  Z " fill-rule="nonzero" fill="#0773ff" stroke="none" transform="matrix(1 0 0 1 825 322 )" />
  </g>
</svg>