<?xml version="1.0" encoding="utf-8"?>
<svg version="1.1" xmlns:xlink="http://www.w3.org/1999/xlink" width="35px" height="28px" xmlns="http://www.w3.org/2000/svg">
  <g transform="matrix(1 0 0 1 -552 -941 )">
    <path d="M 29.9690210656753 15.9968823070928  C 29.9834779016935 16.0259807742271  29.9907063197026 16.0696284749286  30 16.1278254091972  L 30 26.6032735775526  C 29.9907063197026 26.9815536502988  29.8533663775299 27.3089114055599  29.5786864931846 27.5853468433359  C 29.3040066088393 27.861782281112  28.9787277984304 28  28.6028500619579 28  L 20.2757125154895 28  L 20.2757125154895 19.6196414653157  L 14.7242874845105 19.6196414653157  L 14.7242874845105 28  L 6.39714993804213 28  C 6.0212722015696 28  5.69599339116068 27.861782281112  5.42131350681537 27.5853468433359  C 5.14663362247005 27.3089114055599  5.0092936802974 26.9815536502988  5 26.6032735775526  L 5 16.1278254091972  C 5.0092936802974 16.11327617563  5.01290788930194 16.0914523252793  5.02013630731103 16.062353858145  C 5.02736472532012 16.0332553910107  5.03097893432466 16.0114315406599  5.03097893432466 15.9968823070928  L 17.5 5.65237724084178  L 29.9690210656753 15.9968823070928  Z M 34.9783147459727 14.1091192517537  C 34.9927715819909 14.3055339049104  34.9421726559273 14.4764873993245  34.8265179677819 14.6219797349961  L 33.4820322180917 16.2369446609509  C 33.3663775299463 16.3678877630553  33.2145807517555 16.4479085476747  33.0266418835192 16.477007014809  L 32.9615861214374 16.477007014809  C 32.7736472532012 16.477007014809  32.6218504750103 16.426084697324  32.5061957868649 16.3242400623539  L 17.5 3.73187840997662  L 2.49380421313507 16.3242400623539  C 2.32032218091698 16.4406339308911  2.14684014869888 16.4915562483762  1.97335811648079 16.477007014809  C 1.78541924824453 16.4479085476747  1.6336224700537 16.3678877630553  1.5179677819083 16.2369446609509  L 0.173482032218092 14.6219797349961  C 0.0578273440726973 14.4764873993245  0.00722841800908721 14.3055339049104  0.0216852540272615 14.1091192517537  C 0.0361420900454359 13.912704598597  0.115654688145395 13.7563003377501  0.260223048327138 13.6399064692128  L 15.8519206939281 0.567420109119253  C 16.3145394465097 0.189140036373081  16.8638992152003 0  17.5 0  C 18.1361007847997 0  18.6854605534903 0.189140036373081  19.1480793060719 0.567420109119253  L 24.4392812887237 5.0194855806703  L 24.4392812887237 0.763834762275915  C 24.4392812887237 0.560145492335669  24.5043370508055 0.392829306313327  24.634448574969 0.261886204208887  C 24.7645600991326 0.130943102104443  24.9308137133416 0.0654715510522217  25.133209417596 0.0654715510522217  L 29.2967781908302 0.0654715510522217  C 29.4991738950847 0.0654715510522217  29.6654275092937 0.130943102104443  29.7955390334572 0.261886204208887  C 29.9256505576208 0.392829306313327  29.9907063197026 0.560145492335669  29.9907063197026 0.763834762275915  L 29.9907063197026 9.66796570537802  L 34.7397769516729 13.6399064692128  C 34.8843453118546 13.7563003377501  34.9638579099546 13.912704598597  34.9783147459727 14.1091192517537  Z " fill-rule="nonzero" fill="#e42627" stroke="none" transform="matrix(1 0 0 1 552 941 )" />
  </g>
</svg>