<?xml version="1.0" encoding="utf-8"?>
<svg version="1.1" xmlns:xlink="http://www.w3.org/1999/xlink" width="22px" height="22px" xmlns="http://www.w3.org/2000/svg">
  <g transform="matrix(1 0 0 1 -786 -327 )">
    <path d="M 0.448784722222222 21.3268229166667  C 0.149594907407407 20.8780381944444  0 20.3385416666667  0 19.7083333333333  L 0 11  L 22 11  L 22 19.7083333333333  C 22 20.3385416666667  21.8504050925926 20.8780381944444  21.5512152777778 21.3268229166667  C 21.252025462963 21.7756076388889  20.8923611111111 22  20.4722222222222 22  L 1.52777777777778 22  C 1.10763888888889 22  0.747974537037037 21.7756076388889  0.448784722222222 21.3268229166667  Z M 9.77777777777778 16.5  L 6.11111111111111 16.5  L 6.11111111111111 18.3333333333333  L 9.77777777777778 18.3333333333333  L 9.77777777777778 16.5  Z M 4.88888888888889 16.5  L 2.44444444444444 16.5  L 2.44444444444444 18.3333333333333  L 4.88888888888889 18.3333333333333  L 4.88888888888889 16.5  Z M 1.52777777777778 0  L 20.4722222222222 0  C 20.8923611111111 0  21.252025462963 0.224392361111109  21.5512152777778 0.673177083333334  C 21.8504050925926 1.12196180555555  22 1.66145833333333  22 2.29166666666667  L 22 5.5  L 0 5.5  L 0 2.29166666666667  C 0 1.66145833333333  0.149594907407407 1.12196180555555  0.448784722222222 0.673177083333334  C 0.747974537037037 0.224392361111109  1.10763888888889 0  1.52777777777778 0  Z " fill-rule="nonzero" fill="#ffffff" stroke="none" transform="matrix(1 0 0 1 786 327 )" />
  </g>
</svg>