<?xml version="1.0" encoding="utf-8"?>
<svg version="1.1" xmlns:xlink="http://www.w3.org/1999/xlink" width="28px" height="28px" xmlns="http://www.w3.org/2000/svg">
  <g transform="matrix(1 0 0 1 -632 -941 )">
    <path d="M 11.234375 18  L 9.515625 12.75  L 14 9.5  L 18.484375 12.75  L 16.78125 18  L 11.234375 18  Z M 8.5625 1.109375  C 10.2916666666667 0.369791666666667  12.1041666666667 0  14 0  C 15.8958333333333 0  17.7083333333333 0.369791666666667  19.4375 1.109375  C 21.1666666666667 1.84895833333333  22.65625 2.84375  23.90625 4.09375  C 25.15625 5.34375  26.1510416666667 6.83333333333333  26.890625 8.5625  C 27.6302083333333 10.2916666666667  28 12.1041666666667  28 14  C 28 15.8958333333333  27.6302083333333 17.7083333333333  26.890625 19.4375  C 26.1510416666667 21.1666666666667  25.15625 22.65625  23.90625 23.90625  C 22.65625 25.15625  21.1666666666667 26.1510416666667  19.4375 26.890625  C 17.7083333333333 27.6302083333333  15.8958333333333 28  14 28  C 12.1041666666667 28  10.2916666666667 27.6302083333333  8.5625 26.890625  C 6.83333333333333 26.1510416666667  5.34375 25.15625  4.09375 23.90625  C 2.84375 22.65625  1.84895833333333 21.1666666666667  1.109375 19.4375  C 0.369791666666667 17.7083333333333  0 15.8958333333333  0 14  C 0 12.1041666666667  0.369791666666667 10.2916666666667  1.109375 8.5625  C 1.84895833333333 6.83333333333333  2.84375 5.34375  4.09375 4.09375  C 5.34375 2.84375  6.83333333333333 1.84895833333333  8.5625 1.109375  Z M 23.203125 19.03125  L 23.671875 21.09375  C 25.2239583333333 18.9791666666667  26 16.6145833333333  26 14  L 26 13.953125  L 24.40625 15.34375  L 20.65625 11.84375  L 21.640625 6.796875  L 23.734375 6.984375  C 22.171875 4.83854166666666  20.1458333333333 3.36979166666667  17.65625 2.578125  L 18.484375 4.515625  L 14 7  L 9.515625 4.515625  L 10.34375 2.578125  C 7.85416666666667 3.36979166666667  5.828125 4.83854166666666  4.265625 6.984375  L 6.375 6.796875  L 7.34375 11.84375  L 3.59375 15.34375  L 2 13.953125  L 2 14  C 2 16.6145833333333  2.77604166666667 18.9791666666667  4.328125 21.09375  L 4.796875 19.03125  L 9.890625 19.65625  L 12.0625 24.3125  L 10.25 25.390625  C 11.46875 25.796875  12.71875 26  14 26  C 15.28125 26  16.53125 25.796875  17.75 25.390625  L 15.9375 24.3125  L 18.109375 19.65625  L 23.203125 19.03125  Z " fill-rule="nonzero" fill="#777e96" stroke="none" transform="matrix(1 0 0 1 632 941 )" />
  </g>
</svg>