<?xml version="1.0" encoding="utf-8"?>
<svg version="1.1" xmlns:xlink="http://www.w3.org/1999/xlink" width="34px" height="28px" xmlns="http://www.w3.org/2000/svg">
  <g transform="matrix(1 0 0 1 -857 -941 )">
    <path d="M 33.5794270833333 22.815625  C 33.8598090277778 23.0927083333333  34 23.4208333333333  34 23.8  L 34 26.6  C 34 26.9791666666667  33.8598090277778 27.3072916666667  33.5794270833333 27.584375  C 33.2990451388889 27.8614583333333  32.9670138888889 28  32.5833333333333 28  L 1.41666666666667 28  C 1.03298611111111 28  0.700954861111111 27.8614583333333  0.420572916666667 27.584375  C 0.140190972222222 27.3072916666667  0 26.9791666666667  0 26.6  L 0 23.8  C 0 23.4208333333333  0.140190972222222 23.0927083333333  0.420572916666667 22.815625  C 0.700954861111111 22.5385416666667  1.03298611111111 22.4  1.41666666666667 22  L 32.5833333333333 22  C 32.9670138888889 22.4  33.2990451388889 22.5385416666667  33.5794270833333 22.815625  Z M 33.5794270833333 11.615625  C 33.8598090277778 11.8927083333333  34 12.2208333333333  34 12.6  L 34 15.4  C 34 15.7791666666667  33.8598090277778 16.1072916666667  33.5794270833333 16.384375  C 33.2990451388889 16.6614583333333  32.9670138888889 16.8  32.5833333333333 16.8  L 1.41666666666667 16.8  C 1.03298611111111 16.8  0.700954861111111 16.6614583333333  0.420572916666667 16.384375  C 0.140190972222222 16.1072916666667  0 15.7791666666667  0 15.4  L 0 12.6  C 0 12.2208333333333  0.140190972222222 11.8927083333333  0.420572916666667 11.615625  C 0.700954861111111 11.3385416666667  1.03298611111111 11.2  1.41666666666667 11.2  L 32.5833333333333 11.2  C 32.9670138888889 11.2  33.2990451388889 11.3385416666667  33.5794270833333 11.615625  Z M 33.5794270833333 0.415625000000001  C 33.8598090277778 0.692708333333331  34 1.02083333333333  34 1.4  L 34 4.2  C 34 4.57916666666666  33.8598090277778 4.90729166666666  33.5794270833333 5.184375  C 33.2990451388889 5.46145833333333  32.9670138888889 5.6  32.5833333333333 6  L 1.41666666666667 6  C 1.03298611111111 5.6  0.700954861111111 5.46145833333333  0.420572916666667 5.184375  C 0.140190972222222 4.90729166666666  0 4.57916666666666  0 4.2  L 0 1.4  C 0 1.02083333333333  0.140190972222222 0.692708333333331  0.420572916666667 0.415625000000001  C 0.700954861111111 0.138541666666665  1.03298611111111 0  1.41666666666667 0  L 32.5833333333333 0  C 32.9670138888889 0  33.2990451388889 0.138541666666665  33.5794270833333 0.415625000000001  Z " fill-rule="nonzero" fill="#777e96" stroke="none" transform="matrix(1 0 0 1 857 941 )" />
  </g>
</svg>