<?xml version="1.0" encoding="utf-8"?>
<svg version="1.1" xmlns:xlink="http://www.w3.org/1999/xlink" width="32px" height="28px" xmlns="http://www.w3.org/2000/svg">
  <g transform="matrix(1 0 0 1 -780 -941 )">
    <path d="M 18.9583333333333 25.0520833333333  C 19.2083333333333 24.8645833333333  19.3333333333333 24.5972222222222  19.3333333333333 24.25  L 19.3333333333333 23.0833333333333  L 19.3333333333333 13.3333333333333  L 19.3333333333333 9.33333333333333  L 12.6666666666667 9.33333333333333  L 12.6666666666667 13.3333333333333  L 12.6666666666667 23.0833333333333  L 12.6666666666667 24.25  C 12.6666666666667 24.5972222222222  12.7916666666667 24.8645833333333  13.0416666666667 25.0520833333333  C 13.2916666666667 25.2395833333333  13.6111111111111 25.3333333333333  14 25.3333333333333  L 18 25.3333333333333  C 18.3888888888889 25.3333333333333  18.7083333333333 25.2395833333333  18.9583333333333 25.0520833333333  Z M 8.41666666666667 6.08333333333333  C 8.80555555555556 6.47222222222222  9.27777777777778 6.66666666666667  9.83333333333333 6.66666666666667  L 13.8958333333333 6.66666666666667  L 11.2708333333333 3.3125  C 10.9097222222222 2.88194444444444  10.4305555555556 2.66666666666667  9.83333333333333 2.66666666666667  C 9.27777777777778 2.66666666666667  8.80555555555556 2.86111111111111  8.41666666666667 3.25  C 8.02777777777778 3.63888888888889  7.83333333333333 4.11111111111111  7.83333333333333 4.66666666666667  C 7.83333333333333 5.22222222222222  8.02777777777778 5.69444444444444  8.41666666666667 6.08333333333333  Z M 23.5833333333333 6.08333333333333  C 23.9722222222222 5.69444444444444  24.1666666666667 5.22222222222222  24.1666666666667 4.66666666666667  C 24.1666666666667 4.11111111111111  23.9722222222222 3.63888888888889  23.5833333333333 3.25  C 23.1944444444444 2.86111111111111  22.7222222222222 2.66666666666667  22.1666666666667 2.66666666666667  C 21.5694444444444 2.66666666666667  21.0902777777778 2.88194444444444  20.7291666666667 3.3125  L 18.125 6.66666666666667  L 22.1666666666667 6.66666666666667  C 22.7222222222222 6.66666666666667  23.1944444444444 6.47222222222222  23.5833333333333 6.08333333333333  Z M 31.8125 9.52083333333333  C 31.9375 9.64583333333334  32 9.80555555555556  32 10  L 32 16.6666666666667  C 32 16.8611111111111  31.9375 17.0208333333333  31.8125 17.1458333333333  C 31.6875 17.2708333333333  31.5277777777778 17.3333333333333  31.3333333333333 17.3333333333333  L 29.3333333333333 17.3333333333333  L 29.3333333333333 26  C 29.3333333333333 26.5555555555556  29.1388888888889 27.0277777777778  28.75 27.4166666666667  C 28.3611111111111 27.8055555555556  27.8888888888889 28  27.3333333333333 28  L 4.66666666666667 28  C 4.11111111111111 28  3.63888888888889 27.8055555555556  3.25 27.4166666666667  C 2.86111111111111 27.0277777777778  2.66666666666667 26.5555555555556  2.66666666666667 26  L 2.66666666666667 17.3333333333333  L 0.666666666666667 17.3333333333333  C 0.472222222222222 17.3333333333333  0.3125 17.2708333333333  0.1875 17.1458333333333  C 0.0625 17.0208333333333  0 16.8611111111111  0 16.6666666666667  L 0 10  C 0 9.80555555555556  0.0625 9.64583333333334  0.1875 9.52083333333333  C 0.3125 9.39583333333333  0.472222222222222 9.33333333333333  0.666666666666667 9.33333333333333  L 9.83333333333333 9.33333333333333  C 8.54166666666667 9.33333333333333  7.44097222222222 8.87847222222222  6.53125 7.96875  C 5.62152777777778 7.05902777777778  5.16666666666667 5.95833333333333  5.16666666666667 4.66666666666667  C 5.16666666666667 3.375  5.62152777777778 2.27430555555555  6.53125 1.36458333333333  C 7.44097222222222 0.45486111111111  8.54166666666667 0  9.83333333333333 0  C 11.3194444444444 0  12.4861111111111 0.534722222222219  13.3333333333333 1.60416666666667  L 16 5.04166666666667  L 18.6666666666667 1.60416666666667  C 19.5138888888889 0.534722222222219  20.6805555555556 0  22.1666666666667 0  C 23.4583333333333 0  24.5590277777778 0.45486111111111  25.46875 1.36458333333333  C 26.3784722222222 2.27430555555555  26.8333333333333 3.375  26.8333333333333 4.66666666666667  C 26.8333333333333 5.95833333333333  26.3784722222222 7.05902777777778  25.46875 7.96875  C 24.5590277777778 8.87847222222222  23.4583333333333 9.33333333333333  22.1666666666667 9.33333333333333  L 31.3333333333333 9.33333333333333  C 31.5277777777778 9.33333333333333  31.6875 9.39583333333333  31.8125 9.52083333333333  Z " fill-rule="nonzero" fill="#777e96" stroke="none" transform="matrix(1 0 0 1 780 941 )" />
  </g>
</svg>