<?xml version="1.0" encoding="utf-8"?>
<svg version="1.1" xmlns:xlink="http://www.w3.org/1999/xlink" width="13px" height="13px" xmlns="http://www.w3.org/2000/svg">
  <g transform="matrix(1 0 0 1 -522 -358 )">
    <path d="M 528.5 358  C 532.14 358  535 360.86  535 364.5  C 535 368.14  532.14 371  528.5 371  C 524.86 371  522 368.14  522 364.5  C 522 360.86  524.86 358  528.5 358  Z " fill-rule="nonzero" fill="#ffffff" stroke="none" />
    <path d="M 528.5 358.5  C 531.86 358.5  534.5 361.14  534.5 364.5  C 534.5 367.86  531.86 370.5  528.5 370.5  C 525.14 370.5  522.5 367.86  522.5 364.5  C 522.5 361.14  525.14 358.5  528.5 358.5  Z " stroke-width="1" stroke="#198dff" fill="none" />
  </g>
</svg>