<?xml version="1.0" encoding="utf-8"?>
<svg version="1.1" xmlns:xlink="http://www.w3.org/1999/xlink" width="10px" height="10px" xmlns="http://www.w3.org/2000/svg">
  <g transform="matrix(1 0 0 1 -582 -269 )">
    <path d="M 5.67057291666669 6.82942708333326  C 5.70963541666669 6.86848958333326  5.72916666666669 6.91840277777783  5.72916666666669 6.97916666666674  L 5.72916666666669 8.02083333333326  C 5.72916666666669 8.08159722222217  5.70963541666669 8.13151041666674  5.67057291666669 8.17057291666674  C 5.63151041666669 8.20963541666674  5.58159722222223 8.22916666666674  5.52083333333331 8.22916666666674  L 4.47916666666669 8.22916666666674  C 4.41840277777777 8.22916666666674  4.36848958333331 8.20963541666674  4.32942708333331 8.17057291666674  C 4.29036458333331 8.13151041666674  4.27083333333331 8.08159722222217  4.27083333333331 8.02083333333326  L 4.27083333333331 6.97916666666674  C 4.27083333333331 6.91840277777783  4.29036458333331 6.86848958333326  4.32942708333331 6.82942708333326  C 4.36848958333331 6.79036458333326  4.41840277777777 6.77083333333326  4.47916666666669 6.77083333333326  L 5.52083333333331 6.77083333333326  C 5.58159722222223 6.77083333333326  5.63151041666669 6.79036458333326  5.67057291666669 6.82942708333326  Z M 6.68294270833331 2.353515625  C 7.158203125 2.74197048611109  7.39583333333331 3.20746527777783  7.39583333333331 3.75  C 7.39583333333331 3.96701388888891  7.36328125 4.16232638888891  7.29817708333331 4.3359375  C 7.23307291666669 4.50954861111109  7.13433159722223 4.65928819444434  7.001953125 4.78515625  C 6.86957465277777 4.91102430555566  6.75672743055554 5.00651041666674  6.66341145833331 5.07161458333326  C 6.57009548611109 5.13671875  6.44097222222223 5.21484375  6.27604166666669 5.30598958333326  C 6.13715277777777 5.38411458333326  6.03624131944446 5.44487847222217  5.97330729166669 5.48828125  C 5.91037326388891 5.53168402777783  5.85394965277777 5.58376736111109  5.80403645833331 5.64453125  C 5.75412326388891 5.70529513888891  5.72916666666669 5.76822916666674  5.72916666666669 5.83333333333326  L 5.72916666666669 6.04166666666674  C 5.72916666666669 6.10243055555566  5.70963541666669 6.15234375  5.67057291666669 6.19140625  C 5.63151041666669 6.23046875  5.58159722222223 6.25  5.52083333333331 6.25  L 4.47916666666669 6.25  C 4.41840277777777 6.25  4.36848958333331 6.23046875  4.32942708333331 6.19140625  C 4.29036458333331 6.15234375  4.27083333333331 6.10243055555566  4.27083333333331 6.04166666666674  L 4.27083333333331 5.59895833333326  C 4.27083333333331 5.44704861111109  4.29361979166669 5.30707465277783  4.33919270833331 5.17903645833326  C 4.384765625 5.05099826388891  4.43684895833331 4.94791666666674  4.49544270833331 4.86979166666674  C 4.55403645833331 4.79166666666674  4.638671875 4.71462673611109  4.74934895833331 4.638671875  C 4.86002604166669 4.56271701388891  4.94900173611109 4.50737847222217  5.01627604166669 4.47265625  C 5.08355034722223 4.43793402777783  5.18012152777777 4.39236111111109  5.30598958333331 4.3359375  C 5.53602430555554 4.22743055555566  5.69878472222223 4.13411458333326  5.79427083333331 4.05598958333326  C 5.88975694444446 3.97786458333326  5.9375 3.87152777777783  5.9375 3.73697916666674  C 5.9375 3.5546875  5.84309895833331 3.39952256944434  5.654296875 3.271484375  C 5.46549479166669 3.14344618055566  5.25824652777777 3.07942708333326  5.03255208333331 3.07942708333326  C 4.78949652777777 3.07942708333326  4.58333333333331 3.13802083333326  4.4140625 3.25520833333326  C 4.28819444444446 3.34201388888891  4.11458333333331 3.52213541666674  3.89322916666669 3.79557291666674  C 3.85416666666669 3.84765625  3.79991319444446 3.87369791666674  3.73046875 3.87369791666674  C 3.68272569444446 3.87369791666674  3.64149305555554 3.86067708333326  3.60677083333331 3.83463541666674  L 2.90364583333331 3.30078125  C 2.86024305555554 3.27039930555566  2.83420138888891 3.22699652777783  2.82552083333331 3.17057291666674  C 2.81684027777777 3.11414930555566  2.82769097222223 3.06423611111109  2.85807291666669 3.02083333333326  C 3.38758680555554 2.1875  4.14496527777777 1.77083333333326  5.13020833333331 1.77083333333326  C 5.69010416666669 1.77083333333326  6.20768229166669 1.96506076388891  6.68294270833331 2.353515625  Z M 6.61783854166669 1.16536458333326  C 6.103515625 0.944010416666742  5.56423611111109 0.833333333333258  5 0.833333333333258  C 4.43576388888891 0.833333333333258  3.896484375 0.944010416666742  3.38216145833331 1.16536458333326  C 2.86783854166669 1.38671875  2.42513020833331 1.68294270833326  2.05403645833331 2.05403645833326  C 1.68294270833331 2.42513020833326  1.38671875 2.86783854166674  1.16536458333331 3.38216145833326  C 0.944010416666686 3.896484375  0.833333333333314 4.43576388888891  0.833333333333314 5  C 0.833333333333314 5.56423611111109  0.944010416666686 6.103515625  1.16536458333331 6.61783854166674  C 1.38671875 7.13216145833326  1.68294270833331 7.57486979166674  2.05403645833331 7.94596354166674  C 2.42513020833331 8.31705729166674  2.86783854166669 8.61328125  3.38216145833331 8.83463541666674  C 3.896484375 9.05598958333326  4.43576388888891 9.16666666666674  5 9.16666666666674  C 5.56423611111109 9.16666666666674  6.103515625 9.05598958333326  6.61783854166669 8.83463541666674  C 7.13216145833331 8.61328125  7.57486979166669 8.31705729166674  7.94596354166669 7.94596354166674  C 8.31705729166669 7.57486979166674  8.61328125 7.13216145833326  8.83463541666669 6.61783854166674  C 9.05598958333331 6.103515625  9.16666666666669 5.56423611111109  9.16666666666669 5  C 9.16666666666669 4.43576388888891  9.05598958333331 3.896484375  8.83463541666669 3.38216145833326  C 8.61328125 2.86783854166674  8.31705729166669 2.42513020833326  7.94596354166669 2.05403645833326  C 7.57486979166669 1.68294270833326  7.13216145833331 1.38671875  6.61783854166669 1.16536458333326  Z M 9.32942708333331 2.490234375  C 9.77647569444446 3.25629340277783  10 4.09288194444434  10 5  C 10 5.90711805555566  9.77647569444446 6.74370659722217  9.32942708333331 7.509765625  C 8.88237847222223 8.27582465277783  8.27582465277777 8.88237847222217  7.509765625 9.32942708333326  C 6.74370659722223 9.77647569444434  5.90711805555554 10  5 10  C 4.09288194444446 10  3.25629340277777 9.77647569444434  2.490234375 9.32942708333326  C 1.72417534722223 8.88237847222217  1.11762152777777 8.27582465277783  0.670572916666686 7.509765625  C 0.223524305555543 6.74370659722217  0 5.90711805555566  0 5  C 0 4.09288194444434  0.223524305555543 3.25629340277783  0.670572916666686 2.490234375  C 1.11762152777777 1.72417534722217  1.72417534722223 1.11762152777783  2.490234375 0.670572916666742  C 3.25629340277777 0.223524305555657  4.09288194444446 0  5 0  C 5.90711805555554 0  6.74370659722223 0.223524305555657  7.509765625 0.670572916666742  C 8.27582465277777 1.11762152777783  8.88237847222223 1.72417534722217  9.32942708333331 2.490234375  Z " fill-rule="nonzero" fill="#999999" stroke="none" transform="matrix(1 0 0 1 582 269 )" />
  </g>
</svg>