<?xml version="1.0" encoding="utf-8"?>
<svg version="1.1" xmlns:xlink="http://www.w3.org/1999/xlink" width="17px" height="17px" xmlns="http://www.w3.org/2000/svg">
  <g transform="matrix(1 0 0 1 -674 -412 )">
    <path d="M 682.5 412  C 687.26 412  691 415.74  691 420.5  C 691 425.26  687.26 429  682.5 429  C 677.74 429  674 425.26  674 420.5  C 674 415.74  677.74 412  682.5 412  Z " fill-rule="nonzero" fill="#ffffff" stroke="none" />
    <path d="M 682.5 412.5  C 686.98 412.5  690.5 416.02  690.5 420.5  C 690.5 424.98  686.98 428.5  682.5 428.5  C 678.02 428.5  674.5 424.98  674.5 420.5  C 674.5 416.02  678.02 412.5  682.5 412.5  Z " stroke-width="1" stroke="#797979" fill="none" />
  </g>
</svg>