<?xml version="1.0" encoding="utf-8"?>
<svg version="1.1" xmlns:xlink="http://www.w3.org/1999/xlink" width="12px" height="12px" viewBox="771 401  12 12" xmlns="http://www.w3.org/2000/svg">
  <path d="M 777 401  C 780.36 401  783 403.64  783 407  C 783 410.36  780.36 413  777 413  C 773.64 413  771 410.36  771 407  C 771 403.64  773.64 401  777 401  Z " fill-rule="nonzero" fill="#f0f0f0" stroke="none" />
  <path d="M 777 401.5  C 780.08 401.5  782.5 403.92  782.5 407  C 782.5 410.08  780.08 412.5  777 412.5  C 773.92 412.5  771.5 410.08  771.5 407  C 771.5 403.92  773.92 401.5  777 401.5  Z " stroke-width="1" stroke="#797979" fill="none" />
  <path d="M 777 410  C 775.32 410  774 408.68  774 407  C 774 405.32  775.32 404  777 404  C 778.68 404  780 405.32  780 407  C 780 408.68  778.68 410  777 410  " fill-rule="nonzero" fill="#797979" stroke="none" />
</svg>