<?xml version="1.0" encoding="utf-8"?>
<svg version="1.1" xmlns:xlink="http://www.w3.org/1999/xlink" width="12px" height="12px" viewBox="671 401  12 12" xmlns="http://www.w3.org/2000/svg">
  <path d="M 677 401  C 680.36 401  683 403.64  683 407  C 683 410.36  680.36 413  677 413  C 673.64 413  671 410.36  671 407  C 671 403.64  673.64 401  677 401  Z " fill-rule="nonzero" fill="#ffffff" stroke="none" />
  <path d="M 677 401.5  C 680.08 401.5  682.5 403.92  682.5 407  C 682.5 410.08  680.08 412.5  677 412.5  C 673.92 412.5  671.5 410.08  671.5 407  C 671.5 403.92  673.92 401.5  677 401.5  Z " stroke-width="1" stroke="#797979" fill="none" />
  <path d="M 677 410  C 675.32 410  674 408.68  674 407  C 674 405.32  675.32 404  677 404  C 678.68 404  680 405.32  680 407  C 680 408.68  678.68 410  677 410  " fill-rule="nonzero" fill="#797979" stroke="none" />
</svg>