<?xml version="1.0" encoding="utf-8"?>
<svg version="1.1" xmlns:xlink="http://www.w3.org/1999/xlink" width="12px" height="12px" viewBox="594 401  12 12" xmlns="http://www.w3.org/2000/svg">
  <path d="M 600 401  C 603.36 401  606 403.64  606 407  C 606 410.36  603.36 413  600 413  C 596.64 413  594 410.36  594 407  C 594 403.64  596.64 401  600 401  Z " fill-rule="nonzero" fill="#f0f0f0" stroke="none" />
  <path d="M 600 401.5  C 603.08 401.5  605.5 403.92  605.5 407  C 605.5 410.08  603.08 412.5  600 412.5  C 596.92 412.5  594.5 410.08  594.5 407  C 594.5 403.92  596.92 401.5  600 401.5  Z " stroke-width="1" stroke="#797979" fill="none" />
  <path d="M 600 410  C 598.32 410  597 408.68  597 407  C 597 405.32  598.32 404  600 404  C 601.68 404  603 405.32  603 407  C 603 408.68  601.68 410  600 410  " fill-rule="nonzero" fill="#797979" stroke="none" />
</svg>