<?xml version="1.0" encoding="utf-8"?>
<svg version="1.1" xmlns:xlink="http://www.w3.org/1999/xlink" width="12px" height="12px" viewBox="603 377  12 12" xmlns="http://www.w3.org/2000/svg">
  <path d="M 609 377  C 612.36 377  615 379.64  615 383  C 615 386.36  612.36 389  609 389  C 605.64 389  603 386.36  603 383  C 603 379.64  605.64 377  609 377  Z " fill-rule="nonzero" fill="#f0f0f0" stroke="none" />
  <path d="M 609 377.5  C 612.08 377.5  614.5 379.92  614.5 383  C 614.5 386.08  612.08 388.5  609 388.5  C 605.92 388.5  603.5 386.08  603.5 383  C 603.5 379.92  605.92 377.5  609 377.5  Z " stroke-width="1" stroke="#797979" fill="none" />
  <path d="M 609 386  C 607.32 386  606 384.68  606 383  C 606 381.32  607.32 380  609 380  C 610.68 380  612 381.32  612 383  C 612 384.68  610.68 386  609 386  " fill-rule="nonzero" fill="#797979" stroke="none" />
</svg>