<?xml version="1.0" encoding="utf-8"?>
<svg version="1.1" xmlns:xlink="http://www.w3.org/1999/xlink" width="12px" height="12px" viewBox="601 535  12 12" xmlns="http://www.w3.org/2000/svg">
  <path d="M 607 535  C 610.36 535  613 537.64  613 541  C 613 544.36  610.36 547  607 547  C 603.64 547  601 544.36  601 541  C 601 537.64  603.64 535  607 535  Z " fill-rule="nonzero" fill="#ffffff" stroke="none" />
  <path d="M 607 535.5  C 610.08 535.5  612.5 537.92  612.5 541  C 612.5 544.08  610.08 546.5  607 546.5  C 603.92 546.5  601.5 544.08  601.5 541  C 601.5 537.92  603.92 535.5  607 535.5  Z " stroke-width="1" stroke="#797979" fill="none" />
  <path d="M 607 544  C 605.32 544  604 542.68  604 541  C 604 539.32  605.32 538  607 538  C 608.68 538  610 539.32  610 541  C 610 542.68  608.68 544  607 544  " fill-rule="nonzero" fill="#797979" stroke="none" />
</svg>