<?xml version="1.0" encoding="utf-8"?>
<svg version="1.1" xmlns:xlink="http://www.w3.org/1999/xlink" width="12px" height="12px" viewBox="701 535  12 12" xmlns="http://www.w3.org/2000/svg">
  <path d="M 707 535  C 710.36 535  713 537.64  713 541  C 713 544.36  710.36 547  707 547  C 703.64 547  701 544.36  701 541  C 701 537.64  703.64 535  707 535  Z " fill-rule="nonzero" fill="#ffffff" stroke="none" />
  <path d="M 707 535.5  C 710.08 535.5  712.5 537.92  712.5 541  C 712.5 544.08  710.08 546.5  707 546.5  C 703.92 546.5  701.5 544.08  701.5 541  C 701.5 537.92  703.92 535.5  707 535.5  Z " stroke-width="1" stroke="#797979" fill="none" />
  <path d="M 707 544  C 705.32 544  704 542.68  704 541  C 704 539.32  705.32 538  707 538  C 708.68 538  710 539.32  710 541  C 710 542.68  708.68 544  707 544  " fill-rule="nonzero" fill="#797979" stroke="none" />
</svg>