<?xml version="1.0" encoding="utf-8"?>
<svg version="1.1" xmlns:xlink="http://www.w3.org/1999/xlink" width="12px" height="12px" viewBox="703 377  12 12" xmlns="http://www.w3.org/2000/svg">
  <path d="M 709 377  C 712.36 377  715 379.64  715 383  C 715 386.36  712.36 389  709 389  C 705.64 389  703 386.36  703 383  C 703 379.64  705.64 377  709 377  Z " fill-rule="nonzero" fill="#ffffff" stroke="none" />
  <path d="M 709 377.5  C 712.08 377.5  714.5 379.92  714.5 383  C 714.5 386.08  712.08 388.5  709 388.5  C 705.92 388.5  703.5 386.08  703.5 383  C 703.5 379.92  705.92 377.5  709 377.5  Z " stroke-width="1" stroke="#797979" fill="none" />
  <path d="M 709 386  C 707.32 386  706 384.68  706 383  C 706 381.32  707.32 380  709 380  C 710.68 380  712 381.32  712 383  C 712 384.68  710.68 386  709 386  " fill-rule="nonzero" fill="#797979" stroke="none" />
</svg>