<?xml version="1.0" encoding="utf-8"?>
<svg version="1.1" xmlns:xlink="http://www.w3.org/1999/xlink" width="34px" height="30px" xmlns="http://www.w3.org/2000/svg">
  <g transform="matrix(1 0 0 1 -522 -294 )">
    <path d="M 20.1432291666667 26.8415178571429  C 20.4088541666667 26.640625  20.5416666666667 26.3541666666667  20.5416666666667 25.9821428571429  L 20 24.7321428571429  L 20 14.2857142857143  L 20.5416666666667 10  L 13.4583333333333 10  L 14 14.2857142857143  L 14 24.7321428571429  L 13.4583333333333 25.9821428571429  C 13.4583333333333 26.3541666666667  13.5911458333333 26.640625  13.8567708333333 26.8415178571429  C 14.1223958333333 27.0424107142857  14.4618055555556 27.1428571428571  14.875 27.1428571428571  L 19.125 27.1428571428571  C 19.5381944444444 27.1428571428571  19.8776041666667 27.0424107142857  20.1432291666667 26.8415178571429  Z M 8.94270833333333 6.51785714285714  C 9.35590277777778 6.9345238095238  9.85763888888889 7.14285714285714  10.4479166666667 7.14285714285714  L 14.7643229166667 7.14285714285714  L 11.9752604166667 3.54910714285714  C 11.5915798611111 3.08779761904762  11.0824652777778 2.85714285714286  10.4479166666667 2.85714285714286  C 9.85763888888889 2.85714285714286  9.35590277777778 3.06547619047619  8.94270833333333 3.48214285714286  C 8.52951388888889 3.89880952380952  8.32291666666667 4.4047619047619  8.32291666666667 5  C 8.32291666666667 5.59523809523809  8.52951388888889 6.10119047619047  8.94270833333333 6.51785714285714  Z M 25.0572916666667 6.51785714285714  C 25.4704861111111 6.10119047619047  25.6770833333333 5.59523809523809  25.6770833333333 5  C 25.6770833333333 4.4047619047619  25.4704861111111 3.89880952380952  25.0572916666667 3.48214285714286  C 24.6440972222222 3.06547619047619  24.1423611111111 2.85714285714286  23.5520833333333 2.85714285714286  C 22.9175347222222 2.85714285714286  22.4084201388889 3.08779761904762  22.0247395833333 3.54910714285714  L 19.2578125 7.14285714285714  L 23.5520833333333 7.14285714285714  C 24.1423611111111 7.14285714285714  24.6440972222222 6.9345238095238  25.0572916666667 6.51785714285714  Z M 33.80078125 10.2008928571429  C 33.93359375 10.3348214285714  34 10.5059523809524  34 10.7142857142857  L 34 17.8571428571429  C 34 18.0654761904762  33.93359375 18.2366071428571  33.80078125 18.3705357142857  C 33.66796875 18.5044642857143  33.4982638888889 18.5714285714286  33.2916666666667 18.5714285714286  L 31.1666666666667 18.5714285714286  L 31.1666666666667 27.8571428571429  C 31.1666666666667 28.452380952381  30.9600694444444 28.9583333333333  30.546875 29.375  C 30.1336805555556 29.7916666666667  29.6319444444444 30  29.0416666666667 30  L 4.95833333333333 30  C 4.36805555555556 30  3.86631944444444 29.7916666666667  3.453125 29.375  C 3.03993055555556 28.9583333333333  2.83333333333333 28.452380952381  2.83333333333333 27.8571428571429  L 2.83333333333333 18.5714285714286  L 0.708333333333333 18.5714285714286  C 0.501736111111111 18.5714285714286  0.33203125 18.5044642857143  0.19921875 18.3705357142857  C 0.06640625 18.2366071428571  0 18.0654761904762  0 17.8571428571429  L 0 10.7142857142857  C 0 10.5059523809524  0.06640625 10.3348214285714  0.19921875 10.2008928571429  C 0.33203125 10.0669642857143  0.501736111111111 10  0.708333333333333 10  L 10.4479166666667 10  C 9.07552083333333 10  7.90603298611111 9.51264880952381  6.939453125 8.53794642857143  C 5.97287326388889 7.56324404761905  5.48958333333333 6.38392857142857  5.48958333333333 5  C 5.48958333333333 3.61607142857143  5.97287326388889 2.43675595238095  6.939453125 1.46205357142857  C 7.90603298611111 0.48735119047619  9.07552083333333 0  10.4479166666667 0  C 12.0269097222222 0  13.2664930555556 0.572916666666663  14.1666666666667 1.71875  L 17 5.40178571428572  L 19.8333333333333 1.71875  C 20.7335069444444 0.572916666666663  21.9730902777778 0  23.5520833333333 0  C 24.9244791666667 0  26.0939670138889 0.48735119047619  27.060546875 1.46205357142857  C 28.0271267361111 2.43675595238095  28.5104166666667 3.61607142857143  28.5104166666667 5  C 28.5104166666667 6.38392857142857  28.0271267361111 7.56324404761905  27.060546875 8.53794642857143  C 26.0939670138889 9.51264880952381  24.9244791666667 10  23.5520833333333 10  L 33.2916666666667 10  C 33.4982638888889 10  33.66796875 10.0669642857143  33.80078125 10.2008928571429  Z " fill-rule="nonzero" fill="#000000" stroke="none" transform="matrix(1 0 0 1 522 294 )" />
  </g>
</svg>