<?xml version="1.0" encoding="utf-8"?>
<svg version="1.1" xmlns:xlink="http://www.w3.org/1999/xlink" width="12px" height="12px" viewBox="595 469  12 12" xmlns="http://www.w3.org/2000/svg">
  <path d="M 601 469  C 604.36 469  607 471.64  607 475  C 607 478.36  604.36 481  601 481  C 597.64 481  595 478.36  595 475  C 595 471.64  597.64 469  601 469  Z " fill-rule="nonzero" fill="#ffffff" stroke="none" />
  <path d="M 601 469.5  C 604.08 469.5  606.5 471.92  606.5 475  C 606.5 478.08  604.08 480.5  601 480.5  C 597.92 480.5  595.5 478.08  595.5 475  C 595.5 471.92  597.92 469.5  601 469.5  Z " stroke-width="1" stroke="#797979" fill="none" />
  <path d="M 601 478  C 599.32 478  598 476.68  598 475  C 598 473.32  599.32 472  601 472  C 602.68 472  604 473.32  604 475  C 604 476.68  602.68 478  601 478  " fill-rule="nonzero" fill="#797979" stroke="none" />
</svg>