<?xml version="1.0" encoding="utf-8"?>
<svg version="1.1" xmlns:xlink="http://www.w3.org/1999/xlink" width="12px" height="12px" viewBox="695 469  12 12" xmlns="http://www.w3.org/2000/svg">
  <path d="M 701 469  C 704.36 469  707 471.64  707 475  C 707 478.36  704.36 481  701 481  C 697.64 481  695 478.36  695 475  C 695 471.64  697.64 469  701 469  Z " fill-rule="nonzero" fill="#ffffff" stroke="none" />
  <path d="M 701 469.5  C 704.08 469.5  706.5 471.92  706.5 475  C 706.5 478.08  704.08 480.5  701 480.5  C 697.92 480.5  695.5 478.08  695.5 475  C 695.5 471.92  697.92 469.5  701 469.5  Z " stroke-width="1" stroke="#797979" fill="none" />
  <path d="M 701 478  C 699.32 478  698 476.68  698 475  C 698 473.32  699.32 472  701 472  C 702.68 472  704 473.32  704 475  C 704 476.68  702.68 478  701 478  " fill-rule="nonzero" fill="#797979" stroke="none" />
</svg>