<?xml version="1.0" encoding="utf-8"?>
<svg version="1.1" xmlns:xlink="http://www.w3.org/1999/xlink" width="12px" height="12px" viewBox="2703 432  12 12" xmlns="http://www.w3.org/2000/svg">
  <path d="M 2709 432  C 2712.36 432  2715 434.64  2715 438  C 2715 441.36  2712.36 444  2709 444  C 2705.64 444  2703 441.36  2703 438  C 2703 434.64  2705.64 432  2709 432  Z " fill-rule="nonzero" fill="#ffffff" stroke="none" />
  <path d="M 2709 432.5  C 2712.08 432.5  2714.5 434.92  2714.5 438  C 2714.5 441.08  2712.08 443.5  2709 443.5  C 2705.92 443.5  2703.5 441.08  2703.5 438  C 2703.5 434.92  2705.92 432.5  2709 432.5  Z " stroke-width="1" stroke="#797979" fill="none" />
  <path d="M 2709 441  C 2707.32 441  2706 439.68  2706 438  C 2706 436.32  2707.32 435  2709 435  C 2710.68 435  2712 436.32  2712 438  C 2712 439.68  2710.68 441  2709 441  " fill-rule="nonzero" fill="#797979" stroke="none" />
</svg>