<?xml version="1.0" encoding="utf-8"?>
<svg version="1.1" xmlns:xlink="http://www.w3.org/1999/xlink" width="12px" height="12px" viewBox="695 295  12 12" xmlns="http://www.w3.org/2000/svg">
  <path d="M 701 295  C 704.36 295  707 297.64  707 301  C 707 304.36  704.36 307  701 307  C 697.64 307  695 304.36  695 301  C 695 297.64  697.64 295  701 295  Z " fill-rule="nonzero" fill="#f0f0f0" stroke="none" />
  <path d="M 701 295.5  C 704.08 295.5  706.5 297.92  706.5 301  C 706.5 304.08  704.08 306.5  701 306.5  C 697.92 306.5  695.5 304.08  695.5 301  C 695.5 297.92  697.92 295.5  701 295.5  Z " stroke-width="1" stroke="#797979" fill="none" />
  <path d="M 701 304  C 699.32 304  698 302.68  698 301  C 698 299.32  699.32 298  701 298  C 702.68 298  704 299.32  704 301  C 704 302.68  702.68 304  701 304  " fill-rule="nonzero" fill="#797979" stroke="none" />
</svg>