<?xml version="1.0" encoding="utf-8"?>
<svg version="1.1" xmlns:xlink="http://www.w3.org/1999/xlink" width="12px" height="12px" viewBox="595 295  12 12" xmlns="http://www.w3.org/2000/svg">
  <path d="M 601 295  C 604.36 295  607 297.64  607 301  C 607 304.36  604.36 307  601 307  C 597.64 307  595 304.36  595 301  C 595 297.64  597.64 295  601 295  Z " fill-rule="nonzero" fill="#ffffff" stroke="none" />
  <path d="M 601 295.5  C 604.08 295.5  606.5 297.92  606.5 301  C 606.5 304.08  604.08 306.5  601 306.5  C 597.92 306.5  595.5 304.08  595.5 301  C 595.5 297.92  597.92 295.5  601 295.5  Z " stroke-width="1" stroke="#797979" fill="none" />
  <path d="M 601 304  C 599.32 304  598 302.68  598 301  C 598 299.32  599.32 298  601 298  C 602.68 298  604 299.32  604 301  C 604 302.68  602.68 304  601 304  " fill-rule="nonzero" fill="#797979" stroke="none" />
</svg>