<?xml version="1.0" encoding="utf-8"?>
<svg version="1.1" xmlns:xlink="http://www.w3.org/1999/xlink" width="12px" height="12px" viewBox="2623 432  12 12" xmlns="http://www.w3.org/2000/svg">
  <path d="M 2629 432  C 2632.36 432  2635 434.64  2635 438  C 2635 441.36  2632.36 444  2629 444  C 2625.64 444  2623 441.36  2623 438  C 2623 434.64  2625.64 432  2629 432  Z " fill-rule="nonzero" fill="#ffffff" stroke="none" />
  <path d="M 2629 432.5  C 2632.08 432.5  2634.5 434.92  2634.5 438  C 2634.5 441.08  2632.08 443.5  2629 443.5  C 2625.92 443.5  2623.5 441.08  2623.5 438  C 2623.5 434.92  2625.92 432.5  2629 432.5  Z " stroke-width="1" stroke="#797979" fill="none" />
  <path d="M 2629 441  C 2627.32 441  2626 439.68  2626 438  C 2626 436.32  2627.32 435  2629 435  C 2630.68 435  2632 436.32  2632 438  C 2632 439.68  2630.68 441  2629 441  " fill-rule="nonzero" fill="#797979" stroke="none" />
</svg>