<?xml version="1.0" encoding="utf-8"?>
<svg version="1.1" xmlns:xlink="http://www.w3.org/1999/xlink" width="12px" height="12px" viewBox="2723 501  12 12" xmlns="http://www.w3.org/2000/svg">
  <path d="M 2729 501  C 2732.36 501  2735 503.64  2735 507  C 2735 510.36  2732.36 513  2729 513  C 2725.64 513  2723 510.36  2723 507  C 2723 503.64  2725.64 501  2729 501  Z " fill-rule="nonzero" fill="#f0f0f0" stroke="none" />
  <path d="M 2729 501.5  C 2732.08 501.5  2734.5 503.92  2734.5 507  C 2734.5 510.08  2732.08 512.5  2729 512.5  C 2725.92 512.5  2723.5 510.08  2723.5 507  C 2723.5 503.92  2725.92 501.5  2729 501.5  Z " stroke-width="1" stroke="#797979" fill="none" />
  <path d="M 2729 510  C 2727.32 510  2726 508.68  2726 507  C 2726 505.32  2727.32 504  2729 504  C 2730.68 504  2732 505.32  2732 507  C 2732 508.68  2730.68 510  2729 510  " fill-rule="nonzero" fill="#797979" stroke="none" />
</svg>