<?xml version="1.0" encoding="utf-8"?>
<svg version="1.1" xmlns:xlink="http://www.w3.org/1999/xlink" width="12px" height="12px" viewBox="2623 501  12 12" xmlns="http://www.w3.org/2000/svg">
  <path d="M 2629 501  C 2632.36 501  2635 503.64  2635 507  C 2635 510.36  2632.36 513  2629 513  C 2625.64 513  2623 510.36  2623 507  C 2623 503.64  2625.64 501  2629 501  Z " fill-rule="nonzero" fill="#f0f0f0" stroke="none" />
  <path d="M 2629 501.5  C 2632.08 501.5  2634.5 503.92  2634.5 507  C 2634.5 510.08  2632.08 512.5  2629 512.5  C 2625.92 512.5  2623.5 510.08  2623.5 507  C 2623.5 503.92  2625.92 501.5  2629 501.5  Z " stroke-width="1" stroke="#797979" fill="none" />
  <path d="M 2629 510  C 2627.32 510  2626 508.68  2626 507  C 2626 505.32  2627.32 504  2629 504  C 2630.68 504  2632 505.32  2632 507  C 2632 508.68  2630.68 510  2629 510  " fill-rule="nonzero" fill="#797979" stroke="none" />
</svg>