<?xml version="1.0" encoding="utf-8"?>
<svg version="1.1" xmlns:xlink="http://www.w3.org/1999/xlink" width="12px" height="12px" viewBox="695 471  12 12" xmlns="http://www.w3.org/2000/svg">
  <path d="M 701 471  C 704.36 471  707 473.64  707 477  C 707 480.36  704.36 483  701 483  C 697.64 483  695 480.36  695 477  C 695 473.64  697.64 471  701 471  Z " fill-rule="nonzero" fill="#ffffff" stroke="none" />
  <path d="M 701 471.5  C 704.08 471.5  706.5 473.92  706.5 477  C 706.5 480.08  704.08 482.5  701 482.5  C 697.92 482.5  695.5 480.08  695.5 477  C 695.5 473.92  697.92 471.5  701 471.5  Z " stroke-width="1" stroke="#797979" fill="none" />
  <path d="M 701 480  C 699.32 480  698 478.68  698 477  C 698 475.32  699.32 474  701 474  C 702.68 474  704 475.32  704 477  C 704 478.68  702.68 480  701 480  " fill-rule="nonzero" fill="#797979" stroke="none" />
</svg>