<?xml version="1.0" encoding="utf-8"?>
<svg version="1.1" xmlns:xlink="http://www.w3.org/1999/xlink" width="12px" height="12px" viewBox="595 471  12 12" xmlns="http://www.w3.org/2000/svg">
  <path d="M 601 471  C 604.36 471  607 473.64  607 477  C 607 480.36  604.36 483  601 483  C 597.64 483  595 480.36  595 477  C 595 473.64  597.64 471  601 471  Z " fill-rule="nonzero" fill="#ffffff" stroke="none" />
  <path d="M 601 471.5  C 604.08 471.5  606.5 473.92  606.5 477  C 606.5 480.08  604.08 482.5  601 482.5  C 597.92 482.5  595.5 480.08  595.5 477  C 595.5 473.92  597.92 471.5  601 471.5  Z " stroke-width="1" stroke="#797979" fill="none" />
  <path d="M 601 480  C 599.32 480  598 478.68  598 477  C 598 475.32  599.32 474  601 474  C 602.68 474  604 475.32  604 477  C 604 478.68  602.68 480  601 480  " fill-rule="nonzero" fill="#797979" stroke="none" />
</svg>