<?xml version="1.0" encoding="utf-8"?>
<svg version="1.1" xmlns:xlink="http://www.w3.org/1999/xlink" width="12px" height="12px" viewBox="595 370  12 12" xmlns="http://www.w3.org/2000/svg">
  <path d="M 601 370  C 604.36 370  607 372.64  607 376  C 607 379.36  604.36 382  601 382  C 597.64 382  595 379.36  595 376  C 595 372.64  597.64 370  601 370  Z " fill-rule="nonzero" fill="#f0f0f0" stroke="none" />
  <path d="M 601 370.5  C 604.08 370.5  606.5 372.92  606.5 376  C 606.5 379.08  604.08 381.5  601 381.5  C 597.92 381.5  595.5 379.08  595.5 376  C 595.5 372.92  597.92 370.5  601 370.5  Z " stroke-width="1" stroke="#797979" fill="none" />
  <path d="M 601 379  C 599.32 379  598 377.68  598 376  C 598 374.32  599.32 373  601 373  C 602.68 373  604 374.32  604 376  C 604 377.68  602.68 379  601 379  " fill-rule="nonzero" fill="#797979" stroke="none" />
</svg>