<?xml version="1.0" encoding="utf-8"?>
<svg version="1.1" xmlns:xlink="http://www.w3.org/1999/xlink" width="12px" height="12px" viewBox="695 370  12 12" xmlns="http://www.w3.org/2000/svg">
  <path d="M 701 370  C 704.36 370  707 372.64  707 376  C 707 379.36  704.36 382  701 382  C 697.64 382  695 379.36  695 376  C 695 372.64  697.64 370  701 370  Z " fill-rule="nonzero" fill="#ffffff" stroke="none" />
  <path d="M 701 370.5  C 704.08 370.5  706.5 372.92  706.5 376  C 706.5 379.08  704.08 381.5  701 381.5  C 697.92 381.5  695.5 379.08  695.5 376  C 695.5 372.92  697.92 370.5  701 370.5  Z " stroke-width="1" stroke="#797979" fill="none" />
  <path d="M 701 379  C 699.32 379  698 377.68  698 376  C 698 374.32  699.32 373  701 373  C 702.68 373  704 374.32  704 376  C 704 377.68  702.68 379  701 379  " fill-rule="nonzero" fill="#797979" stroke="none" />
</svg>