<?xml version="1.0" encoding="utf-8"?>
<svg version="1.1" xmlns:xlink="http://www.w3.org/1999/xlink" width="12px" height="12px" viewBox="695 507  12 12" xmlns="http://www.w3.org/2000/svg">
  <path d="M 701 507  C 704.36 507  707 509.64  707 513  C 707 516.36  704.36 519  701 519  C 697.64 519  695 516.36  695 513  C 695 509.64  697.64 507  701 507  Z " fill-rule="nonzero" fill="#f0f0f0" stroke="none" />
  <path d="M 701 507.5  C 704.08 507.5  706.5 509.92  706.5 513  C 706.5 516.08  704.08 518.5  701 518.5  C 697.92 518.5  695.5 516.08  695.5 513  C 695.5 509.92  697.92 507.5  701 507.5  Z " stroke-width="1" stroke="#797979" fill="none" />
  <path d="M 701 516  C 699.32 516  698 514.68  698 513  C 698 511.32  699.32 510  701 510  C 702.68 510  704 511.32  704 513  C 704 514.68  702.68 516  701 516  " fill-rule="nonzero" fill="#797979" stroke="none" />
</svg>