<?xml version="1.0" encoding="utf-8"?>
<svg version="1.1" xmlns:xlink="http://www.w3.org/1999/xlink" width="12px" height="12px" viewBox="595 507  12 12" xmlns="http://www.w3.org/2000/svg">
  <path d="M 601 507  C 604.36 507  607 509.64  607 513  C 607 516.36  604.36 519  601 519  C 597.64 519  595 516.36  595 513  C 595 509.64  597.64 507  601 507  Z " fill-rule="nonzero" fill="#ffffff" stroke="none" />
  <path d="M 601 507.5  C 604.08 507.5  606.5 509.92  606.5 513  C 606.5 516.08  604.08 518.5  601 518.5  C 597.92 518.5  595.5 516.08  595.5 513  C 595.5 509.92  597.92 507.5  601 507.5  Z " stroke-width="1" stroke="#797979" fill="none" />
  <path d="M 601 516  C 599.32 516  598 514.68  598 513  C 598 511.32  599.32 510  601 510  C 602.68 510  604 511.32  604 513  C 604 514.68  602.68 516  601 516  " fill-rule="nonzero" fill="#797979" stroke="none" />
</svg>