<?xml version="1.0" encoding="utf-8"?>
<svg version="1.1" xmlns:xlink="http://www.w3.org/1999/xlink" width="20px" height="20px" xmlns="http://www.w3.org/2000/svg">
  <g transform="matrix(1 0 0 1 -1155 -504 )">
    <path d="M 1.53846153846166 15.3571428571428  L 1.53846153846166 18.5714285714286  L 5 18.5714285714286  L 5 15.3571428571428  L 1.53846153846166 15.3571428571428  Z M 5.76923076923072 15.3571428571428  L 5.76923076923072 18.5714285714286  L 9.61538461538476 18.5714285714286  L 9.61538461538476 15.3571428571428  L 5.76923076923072 15.3571428571428  Z M 1.53846153846166 11.0714285714286  L 1.53846153846166 14.6428571428572  L 5 14.6428571428572  L 5 11.0714285714286  L 1.53846153846166 11.0714285714286  Z M 5.76923076923072 11.0714285714286  L 5.76923076923072 14.6428571428572  L 9.61538461538476 14.6428571428572  L 9.61538461538476 11.0714285714286  L 5.76923076923072 11.0714285714286  Z M 1.53846153846166 7.14285714285711  L 1.53846153846166 10.3571428571428  L 5 10.3571428571428  L 5 7.14285714285711  L 1.53846153846166 7.14285714285711  Z M 10.3846153846152 15.3571428571428  L 10.3846153846152 18.5714285714286  L 14.2307692307693 18.5714285714286  L 14.2307692307693 15.3571428571428  L 10.3846153846152 15.3571428571428  Z M 5.76923076923072 7.14285714285711  L 5.76923076923072 10.3571428571428  L 9.61538461538476 10.3571428571428  L 9.61538461538476 7.14285714285711  L 5.76923076923072 7.14285714285711  Z M 15 15.3571428571428  L 15 18.5714285714286  L 18.4615384615383 18.5714285714286  L 18.4615384615383 15.3571428571428  L 15 15.3571428571428  Z M 10.3846153846152 11.0714285714286  L 10.3846153846152 14.6428571428572  L 14.2307692307693 14.6428571428572  L 14.2307692307693 11.0714285714286  L 10.3846153846152 11.0714285714286  Z M 6.03966346153834 5.25111607142861  C 6.11578525641016 5.18043154761904  6.15384615384596 5.0967261904762  6.15384615384596 5  L 6.15384615384596 1.78571428571428  C 6.15384615384596 1.68898809523807  6.11578525641016 1.60528273809518  6.03966346153834 1.53459821428572  C 5.96354166666674 1.4639136904762  5.87339743589746 1.42857142857139  5.76923076923072 1.42857142857139  L 5 1.42857142857139  C 4.89583333333326 1.42857142857139  4.8056891025642 1.4639136904762  4.72956730769238 1.53459821428572  C 4.65344551282055 1.60528273809518  4.61538461538476 1.68898809523807  4.61538461538476 1.78571428571428  L 4.61538461538476 5  C 4.61538461538476 5.0967261904762  4.65344551282055 5.18043154761904  4.72956730769238 5.25111607142861  C 4.8056891025642 5.32180059523807  4.89583333333326 5.35714285714289  5 5.35714285714289  L 5.76923076923072 5.35714285714289  C 5.87339743589746 5.35714285714289  5.96354166666674 5.32180059523807  6.03966346153834 5.25111607142861  Z M 15 11.0714285714286  L 15 14.6428571428572  L 18.4615384615383 14.6428571428572  L 18.4615384615383 11.0714285714286  L 15 11.0714285714286  Z M 10.3846153846152 7.14285714285711  L 10.3846153846152 10.3571428571428  L 14.2307692307693 10.3571428571428  L 14.2307692307693 7.14285714285711  L 10.3846153846152 7.14285714285711  Z M 15 7.14285714285711  L 15 10.3571428571428  L 18.4615384615383 10.3571428571428  L 18.4615384615383 7.14285714285711  L 15 7.14285714285711  Z M 15.2704326923076 5.25111607142861  C 15.3465544871797 5.18043154761904  15.3846153846152 5.0967261904762  15.3846153846152 5  L 15.3846153846152 1.78571428571428  C 15.3846153846152 1.68898809523807  15.3465544871797 1.60528273809518  15.2704326923076 1.53459821428572  C 15.1943108974358 1.4639136904762  15.1041666666667 1.42857142857139  15 1.42857142857139  L 14.2307692307693 1.42857142857139  C 14.1266025641025 1.42857142857139  14.0364583333333 1.4639136904762  13.9603365384617 1.53459821428572  C 13.8842147435898 1.60528273809518  13.846153846154 1.68898809523807  13.846153846154 1.78571428571428  L 13.846153846154 5  C 13.846153846154 5.0967261904762  13.8842147435898 5.18043154761904  13.9603365384617 5.25111607142861  C 14.0364583333333 5.32180059523807  14.1266025641025 5.35714285714289  14.2307692307693 5.35714285714289  L 15 5.35714285714289  C 15.1041666666667 5.35714285714289  15.1943108974358 5.32180059523807  15.2704326923076 5.25111607142861  Z M 19.5432692307693 3.28125  C 19.8477564102566 3.56398809523807  20 3.89880952380958  20 4.28571428571428  L 20 18.5714285714286  C 20 18.9583333333333  19.8477564102566 19.2931547619048  19.5432692307693 19.5758928571428  C 19.238782051282 19.858630952381  18.8782051282051 20  18.4615384615383 20  L 1.53846153846166 20  C 1.12179487179492 20  0.761217948718013 19.858630952381  0.456730769230717 19.5758928571428  C 0.152243589743421 19.2931547619048  0 18.9583333333333  0 18.5714285714286  L 0 4.28571428571428  C 0 3.89880952380958  0.152243589743421 3.56398809523807  0.456730769230717 3.28125  C 0.761217948718013 2.99851190476193  1.12179487179492 2.85714285714289  1.53846153846166 2.85714285714289  L 3.07692307692309 2.85714285714289  L 3.07692307692309 1.78571428571428  C 3.07692307692309 1.29464285714289  3.26522435897436 0.874255952380963  3.64182692307691 0.524553571428612  C 4.01842948717945 0.174851190476204  4.47115384615404 0  5 0  L 5.76923076923072 0  C 6.29807692307691 0  6.75080128205104 0.174851190476204  7.12740384615404 0.524553571428612  C 7.50400641025658 0.874255952380963  7.69230769230762 1.29464285714289  7.69230769230762 1.78571428571428  L 7.69230769230762 2.85714285714289  L 12.3076923076924 2.85714285714289  L 12.3076923076924 1.78571428571428  C 12.3076923076924 1.29464285714289  12.4959935897434 0.874255952380963  12.872596153846 0.524553571428612  C 13.249198717949 0.174851190476204  13.7019230769231 0  14.2307692307693 0  L 15 0  C 15.528846153846 0  15.9815705128206 0.174851190476204  16.3581730769231 0.524553571428612  C 16.7347756410256 0.874255952380963  16.9230769230769 1.29464285714289  16.9230769230769 1.78571428571428  L 16.9230769230769 2.85714285714289  L 18.4615384615383 2.85714285714289  C 18.8782051282051 2.85714285714289  19.238782051282 2.99851190476193  19.5432692307693 3.28125  Z " fill-rule="nonzero" fill="#000000" stroke="none" transform="matrix(1 0 0 1 1155 504 )" />
  </g>
</svg>