<?xml version="1.0" encoding="utf-8"?>
<svg version="1.1" xmlns:xlink="http://www.w3.org/1999/xlink" width="10px" height="10px" xmlns="http://www.w3.org/2000/svg">
  <g transform="matrix(1 0 0 1 -293 -519 )">
    <path d="M 1.68976897689771 9.15511551155112  L 2.39603960396039 9.15511551155112  L 2.99669966996697 8.55445544554459  L 1.44554455445547 7.00330033003297  L 0.844884488448827 7.60396039603961  L 0.844884488448827 8.31023102310235  L 1.68976897689771 8.31023102310235  L 1.68976897689771 9.15511551155112  Z M 5.80198019801981 3.14191419141912  C 5.83278327832784 3.11111111111109  5.84818481848185 3.07370737073711  5.84818481848185 3.02970297029708  C 5.84818481848185 2.93289328932894  5.79977997799779 2.88448844884488  5.70297029702971 2.88448844884488  C 5.65896589658968 2.88448844884488  5.62156215621565 2.89988998899889  5.59075907590761 2.93069306930693  L 2.013201320132 6.50825082508254  C 1.98239823982397 6.53905390539057  1.96699669966995 6.57645764576455  1.96699669966995 6.62046204620458  C 1.96699669966995 6.71727172717272  2.01540154015402 6.76567656765678  2.1122112211221 6.76567656765678  C 2.15621562156218 6.76567656765678  2.19361936193621 6.75027502750277  2.22442244224425 6.71947194719473  L 5.80198019801981 3.14191419141912  Z M 0 7.25412541254127  L 5.49174917491752 1.76237623762381  L 8.23762376237624 4.50825082508254  L 2.74587458745873 10  L 0 10  L 0 7.25412541254127  Z M 9.75577557755776 1.79537953795375  C 9.91859185918594 1.96699669966995  10 2.16721672167216  10 2.39603960396039  C 10 2.62926292629265  9.91859185918594 2.82728272827285  9.75577557755776 2.99009900990097  L 8.66006600660069 4.08580858085804  L 5.9141914191419 1.33993399339931  L 7.00990099009903 0.2508250825083  C 7.16831683168317 0.0836083608361378  7.36633663366337 0  7.60396039603961 0  C 7.83718371837182 0  8.03740374037403 0.0836083608361378  8.20462046204619 0.2508250825083  L 9.75577557755776 1.79537953795375  Z " fill-rule="nonzero" fill="#199ed8" stroke="none" transform="matrix(1 0 0 1 293 519 )" />
  </g>
</svg>