<?xml version="1.0" encoding="utf-8"?>
<svg version="1.1" xmlns:xlink="http://www.w3.org/1999/xlink" width="12px" height="12px" viewBox="913 350  12 12" xmlns="http://www.w3.org/2000/svg">
  <path d="M 919 350  C 922.36 350  925 352.64  925 356  C 925 359.36  922.36 362  919 362  C 915.64 362  913 359.36  913 356  C 913 352.64  915.64 350  919 350  Z " fill-rule="nonzero" fill="#ffffff" stroke="none" />
  <path d="M 919 350.5  C 922.08 350.5  924.5 352.92  924.5 356  C 924.5 359.08  922.08 361.5  919 361.5  C 915.92 361.5  913.5 359.08  913.5 356  C 913.5 352.92  915.92 350.5  919 350.5  Z " stroke-width="1" stroke="#797979" fill="none" />
  <path d="M 919 359  C 917.32 359  916 357.68  916 356  C 916 354.32  917.32 353  919 353  C 920.68 353  922 354.32  922 356  C 922 357.68  920.68 359  919 359  " fill-rule="nonzero" fill="#797979" stroke="none" />
</svg>