<?xml version="1.0" encoding="utf-8"?>
<svg version="1.1" xmlns:xlink="http://www.w3.org/1999/xlink" width="12px" height="12px" viewBox="613 314  12 12" xmlns="http://www.w3.org/2000/svg">
  <path d="M 619 314  C 622.36 314  625 316.64  625 320  C 625 323.36  622.36 326  619 326  C 615.64 326  613 323.36  613 320  C 613 316.64  615.64 314  619 314  Z " fill-rule="nonzero" fill="#f0f0f0" stroke="none" />
  <path d="M 619 314.5  C 622.08 314.5  624.5 316.92  624.5 320  C 624.5 323.08  622.08 325.5  619 325.5  C 615.92 325.5  613.5 323.08  613.5 320  C 613.5 316.92  615.92 314.5  619 314.5  Z " stroke-width="1" stroke="#797979" fill="none" />
  <path d="M 619 323  C 617.32 323  616 321.68  616 320  C 616 318.32  617.32 317  619 317  C 620.68 317  622 318.32  622 320  C 622 321.68  620.68 323  619 323  " fill-rule="nonzero" fill="#797979" stroke="none" />
</svg>