<?xml version="1.0" encoding="utf-8"?>
<svg version="1.1" xmlns:xlink="http://www.w3.org/1999/xlink" width="12px" height="12px" viewBox="611 552  12 12" xmlns="http://www.w3.org/2000/svg">
  <path d="M 617 552  C 620.36 552  623 554.64  623 558  C 623 561.36  620.36 564  617 564  C 613.64 564  611 561.36  611 558  C 611 554.64  613.64 552  617 552  Z " fill-rule="nonzero" fill="#ffffff" stroke="none" />
  <path d="M 617 552.5  C 620.08 552.5  622.5 554.92  622.5 558  C 622.5 561.08  620.08 563.5  617 563.5  C 613.92 563.5  611.5 561.08  611.5 558  C 611.5 554.92  613.92 552.5  617 552.5  Z " stroke-width="1" stroke="#797979" fill="none" />
  <path d="M 617 561  C 615.32 561  614 559.68  614 558  C 614 556.32  615.32 555  617 555  C 618.68 555  620 556.32  620 558  C 620 559.68  618.68 561  617 561  " fill-rule="nonzero" fill="#797979" stroke="none" />
</svg>