<?xml version="1.0" encoding="utf-8"?>
<svg version="1.1" xmlns:xlink="http://www.w3.org/1999/xlink" width="12px" height="12px" viewBox="711 552  12 12" xmlns="http://www.w3.org/2000/svg">
  <path d="M 717 552  C 720.36 552  723 554.64  723 558  C 723 561.36  720.36 564  717 564  C 713.64 564  711 561.36  711 558  C 711 554.64  713.64 552  717 552  Z " fill-rule="nonzero" fill="#ffffff" stroke="none" />
  <path d="M 717 552.5  C 720.08 552.5  722.5 554.92  722.5 558  C 722.5 561.08  720.08 563.5  717 563.5  C 713.92 563.5  711.5 561.08  711.5 558  C 711.5 554.92  713.92 552.5  717 552.5  Z " stroke-width="1" stroke="#797979" fill="none" />
  <path d="M 717 561  C 715.32 561  714 559.68  714 558  C 714 556.32  715.32 555  717 555  C 718.68 555  720 556.32  720 558  C 720 559.68  718.68 561  717 561  " fill-rule="nonzero" fill="#797979" stroke="none" />
</svg>