<?xml version="1.0" encoding="utf-8"?>
<svg version="1.1" xmlns:xlink="http://www.w3.org/1999/xlink" width="12px" height="12px" viewBox="611 350  12 12" xmlns="http://www.w3.org/2000/svg">
  <path d="M 617 350  C 620.36 350  623 352.64  623 356  C 623 359.36  620.36 362  617 362  C 613.64 362  611 359.36  611 356  C 611 352.64  613.64 350  617 350  Z " fill-rule="nonzero" fill="#ffffff" stroke="none" />
  <path d="M 617 350.5  C 620.08 350.5  622.5 352.92  622.5 356  C 622.5 359.08  620.08 361.5  617 361.5  C 613.92 361.5  611.5 359.08  611.5 356  C 611.5 352.92  613.92 350.5  617 350.5  Z " stroke-width="1" stroke="#797979" fill="none" />
  <path d="M 617 359  C 615.32 359  614 357.68  614 356  C 614 354.32  615.32 353  617 353  C 618.68 353  620 354.32  620 356  C 620 357.68  618.68 359  617 359  " fill-rule="nonzero" fill="#797979" stroke="none" />
</svg>