<?xml version="1.0" encoding="utf-8"?>
<svg version="1.1" xmlns:xlink="http://www.w3.org/1999/xlink" width="12px" height="12px" viewBox="2567 489  12 12" xmlns="http://www.w3.org/2000/svg">
  <path d="M 2573 489  C 2576.36 489  2579 491.64  2579 495  C 2579 498.36  2576.36 501  2573 501  C 2569.64 501  2567 498.36  2567 495  C 2567 491.64  2569.64 489  2573 489  Z " fill-rule="nonzero" fill="#f0f0f0" stroke="none" />
  <path d="M 2573 489.5  C 2576.08 489.5  2578.5 491.92  2578.5 495  C 2578.5 498.08  2576.08 500.5  2573 500.5  C 2569.92 500.5  2567.5 498.08  2567.5 495  C 2567.5 491.92  2569.92 489.5  2573 489.5  Z " stroke-width="1" stroke="#797979" fill="none" />
  <path d="M 2573 498  C 2571.32 498  2570 496.68  2570 495  C 2570 493.32  2571.32 492  2573 492  C 2574.68 492  2576 493.32  2576 495  C 2576 496.68  2574.68 498  2573 498  " fill-rule="nonzero" fill="#797979" stroke="none" />
</svg>