<?xml version="1.0" encoding="utf-8"?>
<svg version="1.1" xmlns:xlink="http://www.w3.org/1999/xlink" width="12px" height="12px" viewBox="2667 522  12 12" xmlns="http://www.w3.org/2000/svg">
  <path d="M 2673 522  C 2676.36 522  2679 524.64  2679 528  C 2679 531.36  2676.36 534  2673 534  C 2669.64 534  2667 531.36  2667 528  C 2667 524.64  2669.64 522  2673 522  Z " fill-rule="nonzero" fill="#ffffff" stroke="none" />
  <path d="M 2673 522.5  C 2676.08 522.5  2678.5 524.92  2678.5 528  C 2678.5 531.08  2676.08 533.5  2673 533.5  C 2669.92 533.5  2667.5 531.08  2667.5 528  C 2667.5 524.92  2669.92 522.5  2673 522.5  Z " stroke-width="1" stroke="#797979" fill="none" />
  <path d="M 2673 531  C 2671.32 531  2670 529.68  2670 528  C 2670 526.32  2671.32 525  2673 525  C 2674.68 525  2676 526.32  2676 528  C 2676 529.68  2674.68 531  2673 531  " fill-rule="nonzero" fill="#797979" stroke="none" />
</svg>