<?xml version="1.0" encoding="utf-8"?>
<svg version="1.1" xmlns:xlink="http://www.w3.org/1999/xlink" width="12px" height="12px" viewBox="2567 623  12 12" xmlns="http://www.w3.org/2000/svg">
  <path d="M 2573 623  C 2576.36 623  2579 625.64  2579 629  C 2579 632.36  2576.36 635  2573 635  C 2569.64 635  2567 632.36  2567 629  C 2567 625.64  2569.64 623  2573 623  Z " fill-rule="nonzero" fill="#f0f0f0" stroke="none" />
  <path d="M 2573 623.5  C 2576.08 623.5  2578.5 625.92  2578.5 629  C 2578.5 632.08  2576.08 634.5  2573 634.5  C 2569.92 634.5  2567.5 632.08  2567.5 629  C 2567.5 625.92  2569.92 623.5  2573 623.5  Z " stroke-width="1" stroke="#797979" fill="none" />
  <path d="M 2573 632  C 2571.32 632  2570 630.68  2570 629  C 2570 627.32  2571.32 626  2573 626  C 2574.68 626  2576 627.32  2576 629  C 2576 630.68  2574.68 632  2573 632  " fill-rule="nonzero" fill="#797979" stroke="none" />
</svg>