<?xml version="1.0" encoding="utf-8"?>
<svg version="1.1" xmlns:xlink="http://www.w3.org/1999/xlink" width="12px" height="12px" viewBox="2667 587  12 12" xmlns="http://www.w3.org/2000/svg">
  <path d="M 2673 587  C 2676.36 587  2679 589.64  2679 593  C 2679 596.36  2676.36 599  2673 599  C 2669.64 599  2667 596.36  2667 593  C 2667 589.64  2669.64 587  2673 587  Z " fill-rule="nonzero" fill="#ffffff" stroke="none" />
  <path d="M 2673 587.5  C 2676.08 587.5  2678.5 589.92  2678.5 593  C 2678.5 596.08  2676.08 598.5  2673 598.5  C 2669.92 598.5  2667.5 596.08  2667.5 593  C 2667.5 589.92  2669.92 587.5  2673 587.5  Z " stroke-width="1" stroke="#797979" fill="none" />
  <path d="M 2673 596  C 2671.32 596  2670 594.68  2670 593  C 2670 591.32  2671.32 590  2673 590  C 2674.68 590  2676 591.32  2676 593  C 2676 594.68  2674.68 596  2673 596  " fill-rule="nonzero" fill="#797979" stroke="none" />
</svg>