<?xml version="1.0" encoding="utf-8"?>
<svg version="1.1" xmlns:xlink="http://www.w3.org/1999/xlink" width="12px" height="12px" viewBox="2567 587  12 12" xmlns="http://www.w3.org/2000/svg">
  <path d="M 2573 587  C 2576.36 587  2579 589.64  2579 593  C 2579 596.36  2576.36 599  2573 599  C 2569.64 599  2567 596.36  2567 593  C 2567 589.64  2569.64 587  2573 587  Z " fill-rule="nonzero" fill="#ffffff" stroke="none" />
  <path d="M 2573 587.5  C 2576.08 587.5  2578.5 589.92  2578.5 593  C 2578.5 596.08  2576.08 598.5  2573 598.5  C 2569.92 598.5  2567.5 596.08  2567.5 593  C 2567.5 589.92  2569.92 587.5  2573 587.5  Z " stroke-width="1" stroke="#797979" fill="none" />
  <path d="M 2573 596  C 2571.32 596  2570 594.68  2570 593  C 2570 591.32  2571.32 590  2573 590  C 2574.68 590  2576 591.32  2576 593  C 2576 594.68  2574.68 596  2573 596  " fill-rule="nonzero" fill="#797979" stroke="none" />
</svg>