<?xml version="1.0" encoding="utf-8"?>
<svg version="1.1" xmlns:xlink="http://www.w3.org/1999/xlink" width="12px" height="12px" viewBox="2667 623  12 12" xmlns="http://www.w3.org/2000/svg">
  <path d="M 2673 623  C 2676.36 623  2679 625.64  2679 629  C 2679 632.36  2676.36 635  2673 635  C 2669.64 635  2667 632.36  2667 629  C 2667 625.64  2669.64 623  2673 623  Z " fill-rule="nonzero" fill="#ffffff" stroke="none" />
  <path d="M 2673 623.5  C 2676.08 623.5  2678.5 625.92  2678.5 629  C 2678.5 632.08  2676.08 634.5  2673 634.5  C 2669.92 634.5  2667.5 632.08  2667.5 629  C 2667.5 625.92  2669.92 623.5  2673 623.5  Z " stroke-width="1" stroke="#797979" fill="none" />
  <path d="M 2673 632  C 2671.32 632  2670 630.68  2670 629  C 2670 627.32  2671.32 626  2673 626  C 2674.68 626  2676 627.32  2676 629  C 2676 630.68  2674.68 632  2673 632  " fill-rule="nonzero" fill="#797979" stroke="none" />
</svg>