<?xml version="1.0" encoding="utf-8"?>
<svg version="1.1" xmlns:xlink="http://www.w3.org/1999/xlink" width="12px" height="12px" viewBox="695 367  12 12" xmlns="http://www.w3.org/2000/svg">
  <path d="M 701 367  C 704.36 367  707 369.64  707 373  C 707 376.36  704.36 379  701 379  C 697.64 379  695 376.36  695 373  C 695 369.64  697.64 367  701 367  Z " fill-rule="nonzero" fill="#f0f0f0" stroke="none" />
  <path d="M 701 367.5  C 704.08 367.5  706.5 369.92  706.5 373  C 706.5 376.08  704.08 378.5  701 378.5  C 697.92 378.5  695.5 376.08  695.5 373  C 695.5 369.92  697.92 367.5  701 367.5  Z " stroke-width="1" stroke="#797979" fill="none" />
  <path d="M 701 376  C 699.32 376  698 374.68  698 373  C 698 371.32  699.32 370  701 370  C 702.68 370  704 371.32  704 373  C 704 374.68  702.68 376  701 376  " fill-rule="nonzero" fill="#797979" stroke="none" />
</svg>