<?xml version="1.0" encoding="utf-8"?>
<svg version="1.1" xmlns:xlink="http://www.w3.org/1999/xlink" width="12px" height="12px" viewBox="899 367  12 12" xmlns="http://www.w3.org/2000/svg">
  <path d="M 905 367  C 908.36 367  911 369.64  911 373  C 911 376.36  908.36 379  905 379  C 901.64 379  899 376.36  899 373  C 899 369.64  901.64 367  905 367  Z " fill-rule="nonzero" fill="#f0f0f0" stroke="none" />
  <path d="M 905 367.5  C 908.08 367.5  910.5 369.92  910.5 373  C 910.5 376.08  908.08 378.5  905 378.5  C 901.92 378.5  899.5 376.08  899.5 373  C 899.5 369.92  901.92 367.5  905 367.5  Z " stroke-width="1" stroke="#797979" fill="none" />
  <path d="M 905 376  C 903.32 376  902 374.68  902 373  C 902 371.32  903.32 370  905 370  C 906.68 370  908 371.32  908 373  C 908 374.68  906.68 376  905 376  " fill-rule="nonzero" fill="#797979" stroke="none" />
</svg>