<?xml version="1.0" encoding="utf-8"?>
<svg version="1.1" xmlns:xlink="http://www.w3.org/1999/xlink" width="12px" height="12px" viewBox="594 368  12 12" xmlns="http://www.w3.org/2000/svg">
  <path d="M 600 368  C 603.36 368  606 370.64  606 374  C 606 377.36  603.36 380  600 380  C 596.64 380  594 377.36  594 374  C 594 370.64  596.64 368  600 368  Z " fill-rule="nonzero" fill="#f0f0f0" stroke="none" />
  <path d="M 600 368.5  C 603.08 368.5  605.5 370.92  605.5 374  C 605.5 377.08  603.08 379.5  600 379.5  C 596.92 379.5  594.5 377.08  594.5 374  C 594.5 370.92  596.92 368.5  600 368.5  Z " stroke-width="1" stroke="#797979" fill="none" />
  <path d="M 600 377  C 598.32 377  597 375.68  597 374  C 597 372.32  598.32 371  600 371  C 601.68 371  603 372.32  603 374  C 603 375.68  601.68 377  600 377  " fill-rule="nonzero" fill="#797979" stroke="none" />
</svg>