<?xml version="1.0" encoding="utf-8"?>
<svg version="1.1" xmlns:xlink="http://www.w3.org/1999/xlink" width="12px" height="12px" viewBox="795 367  12 12" xmlns="http://www.w3.org/2000/svg">
  <path d="M 801 367  C 804.36 367  807 369.64  807 373  C 807 376.36  804.36 379  801 379  C 797.64 379  795 376.36  795 373  C 795 369.64  797.64 367  801 367  Z " fill-rule="nonzero" fill="#ffffff" stroke="none" />
  <path d="M 801 367.5  C 804.08 367.5  806.5 369.92  806.5 373  C 806.5 376.08  804.08 378.5  801 378.5  C 797.92 378.5  795.5 376.08  795.5 373  C 795.5 369.92  797.92 367.5  801 367.5  Z " stroke-width="1" stroke="#797979" fill="none" />
  <path d="M 801 376  C 799.32 376  798 374.68  798 373  C 798 371.32  799.32 370  801 370  C 802.68 370  804 371.32  804 373  C 804 374.68  802.68 376  801 376  " fill-rule="nonzero" fill="#797979" stroke="none" />
</svg>