<?xml version="1.0" encoding="utf-8"?>
<svg version="1.1" xmlns:xlink="http://www.w3.org/1999/xlink" width="20px" height="20px" xmlns="http://www.w3.org/2000/svg">
  <g transform="matrix(1 0 0 1 -1327 -610 )">
    <path d="M 12.265625 12.265625  C 13.319310897436 11.2119391025641  13.8461538461538 9.94391025641022  13.8461538461538 8.46153846153848  C 13.8461538461538 6.97916666666666  13.319310897436 5.71113782051279  12.265625 4.65745192307688  C 11.211939102564 3.60376602564097  9.94391025641039 3.07692307692312  8.46153846153857 3.07692307692312  C 6.97916666666674 3.07692307692312  5.71113782051293 3.60376602564097  4.65745192307691 4.65745192307688  C 3.60376602564111 5.71113782051279  3.07692307692309 6.97916666666666  3.07692307692309 8.46153846153848  C 3.07692307692309 9.94391025641022  3.60376602564111 11.2119391025641  4.65745192307691 12.265625  C 5.71113782051293 13.3193108974359  6.97916666666674 13.8461538461539  8.46153846153857 13.8461538461539  C 9.94391025641039 13.8461538461539  11.211939102564 13.3193108974359  12.265625 12.265625  Z M 19.5552884615386 17.3798076923077  C 19.8517628205129 17.676282051282  20 18.036858974359  20 18.4615384615385  C 20 18.8782051282051  19.8477564102564 19.238782051282  19.5432692307693 19.5432692307692  C 19.2387820512822 19.8477564102564  18.8782051282051 20  18.4615384615386 20  C 18.0288461538462 20  17.6682692307693 19.8477564102564  17.3798076923076 19.5432692307692  L 13.2572115384614 15.4326923076923  C 11.8229166666667 16.426282051282  10.2243589743589 16.9230769230769  8.46153846153857 16.9230769230769  C 7.31570512820508 16.9230769230769  6.21995192307691 16.7007211538461  5.17427884615381 16.2560096153846  C 4.12860576923072 15.8112980769231  3.22716346153857 15.2103365384615  2.46995192307691 14.453125  C 1.71274038461547 13.6959134615385  1.11177884615381 12.7944711538461  0.667067307692378 11.7487980769231  C 0.222355769230717 10.703125  0 9.60737179487182  0 8.46153846153848  C 0 7.31570512820517  0.222355769230717 6.21995192307688  0.667067307692378 5.17427884615387  C 1.11177884615381 4.12860576923075  1.71274038461547 3.22716346153848  2.46995192307691 2.46995192307688  C 3.22716346153857 1.71274038461539  4.12860576923072 1.11177884615387  5.17427884615381 0.667067307692264  C 6.21995192307691 0.222355769230745  7.31570512820508 0  8.46153846153857 0  C 9.60737179487182 0  10.703125 0.222355769230745  11.7487980769231 0.667067307692264  C 12.7944711538462 1.11177884615387  13.6959134615386 1.71274038461539  14.453125 2.46995192307688  C 15.2103365384614 3.22716346153848  15.8112980769231 4.12860576923075  16.2560096153845 5.17427884615387  C 16.7007211538462 6.21995192307688  16.9230769230769 7.31570512820517  16.9230769230769 8.46153846153848  C 16.9230769230769 10.224358974359  16.4262820512822 11.8229166666667  15.4326923076924 13.2572115384615  L 19.5552884615386 17.3798076923077  Z " fill-rule="nonzero" fill="#cccccc" stroke="none" transform="matrix(1 0 0 1 1327 610 )" />
  </g>
</svg>