<?xml version="1.0" encoding="utf-8"?>
<svg version="1.1" xmlns:xlink="http://www.w3.org/1999/xlink" width="377px" height="103px" xmlns="http://www.w3.org/2000/svg">
  <defs>
    <mask fill="white" id="clip48">
      <path d="M 0 103  L 0 15  L 7.53999999999712 15  L 8.88044444444438 0.733333333333292  L 26.3062221601459 15  L 377 15  L 377 103  L 0 103  Z " fill-rule="evenodd" />
    </mask>
  </defs>
  <g transform="matrix(1 0 0 1 -602 -633 )">
    <path d="M 0 103  L 0 15  L 7.53999999999712 15  L 8.88044444444438 0.733333333333292  L 26.3062221601459 15  L 377 15  L 377 103  L 0 103  Z " fill-rule="nonzero" fill="#ffffff" stroke="none" transform="matrix(1 0 0 1 602 633 )" />
    <path d="M 0 103  L 0 15  L 7.53999999999712 15  L 8.88044444444438 0.733333333333292  L 26.3062221601459 15  L 377 15  L 377 103  L 0 103  Z " stroke-width="2" stroke="#797979" fill="none" transform="matrix(1 0 0 1 602 633 )" mask="url(#clip48)" />
  </g>
</svg>