<?xml version="1.0" encoding="utf-8"?>
<svg version="1.1" xmlns:xlink="http://www.w3.org/1999/xlink" width="40px" height="40px" xmlns="http://www.w3.org/2000/svg">
  <g transform="matrix(1 0 0 1 -1114 -431 )">
    <path d="M 1114 431  L 1154 431  L 1154 471  L 1114 471  L 1114 431  " fill-rule="nonzero" fill="#cccccc" stroke="none" />
    <path d="M 1117 434  L 1151 434  L 1151 468  L 1117 468  L 1117 434  " fill-rule="nonzero" fill="#ffffff" stroke="none" />
    <path d="M 1137.8 443  C 1136.12 443  1134.8 441.68  1134.8 440  C 1134.8 438.32  1136.12 437  1137.8 437  C 1139.48 437  1140.8 438.32  1140.8 440  C 1140.8 441.68  1139.48 443  1137.8 443  " fill-rule="nonzero" fill="#cccccc" stroke="none" />
    <path d="M 1118 467  L 1118 449.4  L 1126 441.4  L 1137.2 447.8  L 1143.6 446.2  L 1150 447.8  L 1150 467  L 1118 467  " fill-rule="nonzero" fill="#169bd5" stroke="none" />
  </g>
</svg>