<?xml version="1.0" encoding="utf-8"?>
<svg version="1.1" xmlns:xlink="http://www.w3.org/1999/xlink" width="12px" height="12px" viewBox="2847 344  12 12" xmlns="http://www.w3.org/2000/svg">
  <path d="M 2853 344  C 2856.36 344  2859 346.64  2859 350  C 2859 353.36  2856.36 356  2853 356  C 2849.64 356  2847 353.36  2847 350  C 2847 346.64  2849.64 344  2853 344  Z " fill-rule="nonzero" fill="#ffffff" stroke="none" />
  <path d="M 2853 344.5  C 2856.08 344.5  2858.5 346.92  2858.5 350  C 2858.5 353.08  2856.08 355.5  2853 355.5  C 2849.92 355.5  2847.5 353.08  2847.5 350  C 2847.5 346.92  2849.92 344.5  2853 344.5  Z " stroke-width="1" stroke="#797979" fill="none" />
  <path d="M 2853 353  C 2851.32 353  2850 351.68  2850 350  C 2850 348.32  2851.32 347  2853 347  C 2854.68 347  2856 348.32  2856 350  C 2856 351.68  2854.68 353  2853 353  " fill-rule="nonzero" fill="#797979" stroke="none" />
</svg>