<?xml version="1.0" encoding="utf-8"?>
<svg version="1.1" xmlns:xlink="http://www.w3.org/1999/xlink" width="12px" height="12px" viewBox="2747 344  12 12" xmlns="http://www.w3.org/2000/svg">
  <path d="M 2753 344  C 2756.36 344  2759 346.64  2759 350  C 2759 353.36  2756.36 356  2753 356  C 2749.64 356  2747 353.36  2747 350  C 2747 346.64  2749.64 344  2753 344  Z " fill-rule="nonzero" fill="#f0f0f0" stroke="none" />
  <path d="M 2753 344.5  C 2756.08 344.5  2758.5 346.92  2758.5 350  C 2758.5 353.08  2756.08 355.5  2753 355.5  C 2749.92 355.5  2747.5 353.08  2747.5 350  C 2747.5 346.92  2749.92 344.5  2753 344.5  Z " stroke-width="1" stroke="#797979" fill="none" />
  <path d="M 2753 353  C 2751.32 353  2750 351.68  2750 350  C 2750 348.32  2751.32 347  2753 347  C 2754.68 347  2756 348.32  2756 350  C 2756 351.68  2754.68 353  2753 353  " fill-rule="nonzero" fill="#797979" stroke="none" />
</svg>