<?xml version="1.0" encoding="utf-8"?>
<svg version="1.1" xmlns:xlink="http://www.w3.org/1999/xlink" width="12px" height="12px" viewBox="2847 1446  12 12" xmlns="http://www.w3.org/2000/svg">
  <path d="M 2853 1446  C 2856.36 1446  2859 1448.64  2859 1452  C 2859 1455.36  2856.36 1458  2853 1458  C 2849.64 1458  2847 1455.36  2847 1452  C 2847 1448.64  2849.64 1446  2853 1446  Z " fill-rule="nonzero" fill="#ffffff" stroke="none" />
  <path d="M 2853 1446.5  C 2856.08 1446.5  2858.5 1448.92  2858.5 1452  C 2858.5 1455.08  2856.08 1457.5  2853 1457.5  C 2849.92 1457.5  2847.5 1455.08  2847.5 1452  C 2847.5 1448.92  2849.92 1446.5  2853 1446.5  Z " stroke-width="1" stroke="#797979" fill="none" />
  <path d="M 2853 1455  C 2851.32 1455  2850 1453.68  2850 1452  C 2850 1450.32  2851.32 1449  2853 1449  C 2854.68 1449  2856 1450.32  2856 1452  C 2856 1453.68  2854.68 1455  2853 1455  " fill-rule="nonzero" fill="#797979" stroke="none" />
</svg>