<?xml version="1.0" encoding="utf-8"?>
<svg version="1.1" xmlns:xlink="http://www.w3.org/1999/xlink" width="12px" height="12px" viewBox="2747 1584  12 12" xmlns="http://www.w3.org/2000/svg">
  <path d="M 2753 1584  C 2756.36 1584  2759 1586.64  2759 1590  C 2759 1593.36  2756.36 1596  2753 1596  C 2749.64 1596  2747 1593.36  2747 1590  C 2747 1586.64  2749.64 1584  2753 1584  Z " fill-rule="nonzero" fill="#f0f0f0" stroke="none" />
  <path d="M 2753 1584.5  C 2756.08 1584.5  2758.5 1586.92  2758.5 1590  C 2758.5 1593.08  2756.08 1595.5  2753 1595.5  C 2749.92 1595.5  2747.5 1593.08  2747.5 1590  C 2747.5 1586.92  2749.92 1584.5  2753 1584.5  Z " stroke-width="1" stroke="#797979" fill="none" />
  <path d="M 2753 1593  C 2751.32 1593  2750 1591.68  2750 1590  C 2750 1588.32  2751.32 1587  2753 1587  C 2754.68 1587  2756 1588.32  2756 1590  C 2756 1591.68  2754.68 1593  2753 1593  " fill-rule="nonzero" fill="#797979" stroke="none" />
</svg>