<?xml version="1.0" encoding="utf-8"?>
<svg version="1.1" xmlns:xlink="http://www.w3.org/1999/xlink" width="12px" height="12px" viewBox="2747 482  12 12" xmlns="http://www.w3.org/2000/svg">
  <path d="M 2753 482  C 2756.36 482  2759 484.64  2759 488  C 2759 491.36  2756.36 494  2753 494  C 2749.64 494  2747 491.36  2747 488  C 2747 484.64  2749.64 482  2753 482  Z " fill-rule="nonzero" fill="#f0f0f0" stroke="none" />
  <path d="M 2753 482.5  C 2756.08 482.5  2758.5 484.92  2758.5 488  C 2758.5 491.08  2756.08 493.5  2753 493.5  C 2749.92 493.5  2747.5 491.08  2747.5 488  C 2747.5 484.92  2749.92 482.5  2753 482.5  Z " stroke-width="1" stroke="#797979" fill="none" />
  <path d="M 2753 491  C 2751.32 491  2750 489.68  2750 488  C 2750 486.32  2751.32 485  2753 485  C 2754.68 485  2756 486.32  2756 488  C 2756 489.68  2754.68 491  2753 491  " fill-rule="nonzero" fill="#797979" stroke="none" />
</svg>