<?xml version="1.0" encoding="utf-8"?>
<svg version="1.1" xmlns:xlink="http://www.w3.org/1999/xlink" width="12px" height="12px" viewBox="777 607  12 12" xmlns="http://www.w3.org/2000/svg">
  <path d="M 783 607  C 786.36 607  789 609.64  789 613  C 789 616.36  786.36 619  783 619  C 779.64 619  777 616.36  777 613  C 777 609.64  779.64 607  783 607  Z " fill-rule="nonzero" fill="#ffffff" stroke="none" />
  <path d="M 783 607.5  C 786.08 607.5  788.5 609.92  788.5 613  C 788.5 616.08  786.08 618.5  783 618.5  C 779.92 618.5  777.5 616.08  777.5 613  C 777.5 609.92  779.92 607.5  783 607.5  Z " stroke-width="1" stroke="#797979" fill="none" />
  <path d="M 783 616  C 781.32 616  780 614.68  780 613  C 780 611.32  781.32 610  783 610  C 784.68 610  786 611.32  786 613  C 786 614.68  784.68 616  783 616  " fill-rule="nonzero" fill="#797979" stroke="none" />
</svg>