<?xml version="1.0" encoding="utf-8"?>
<svg version="1.1" xmlns:xlink="http://www.w3.org/1999/xlink" width="12px" height="12px" viewBox="2847 1613  12 12" xmlns="http://www.w3.org/2000/svg">
  <path d="M 2853 1613  C 2856.36 1613  2859 1615.64  2859 1619  C 2859 1622.36  2856.36 1625  2853 1625  C 2849.64 1625  2847 1622.36  2847 1619  C 2847 1615.64  2849.64 1613  2853 1613  Z " fill-rule="nonzero" fill="#f0f0f0" stroke="none" />
  <path d="M 2853 1613.5  C 2856.08 1613.5  2858.5 1615.92  2858.5 1619  C 2858.5 1622.08  2856.08 1624.5  2853 1624.5  C 2849.92 1624.5  2847.5 1622.08  2847.5 1619  C 2847.5 1615.92  2849.92 1613.5  2853 1613.5  Z " stroke-width="1" stroke="#797979" fill="none" />
  <path d="M 2853 1622  C 2851.32 1622  2850 1620.68  2850 1619  C 2850 1617.32  2851.32 1616  2853 1616  C 2854.68 1616  2856 1617.32  2856 1619  C 2856 1620.68  2854.68 1622  2853 1622  " fill-rule="nonzero" fill="#797979" stroke="none" />
</svg>