<?xml version="1.0" encoding="utf-8"?>
<svg version="1.1" xmlns:xlink="http://www.w3.org/1999/xlink" width="12px" height="12px" viewBox="2747 1644  12 12" xmlns="http://www.w3.org/2000/svg">
  <path d="M 2753 1644  C 2756.36 1644  2759 1646.64  2759 1650  C 2759 1653.36  2756.36 1656  2753 1656  C 2749.64 1656  2747 1653.36  2747 1650  C 2747 1646.64  2749.64 1644  2753 1644  Z " fill-rule="nonzero" fill="#ffffff" stroke="none" />
  <path d="M 2753 1644.5  C 2756.08 1644.5  2758.5 1646.92  2758.5 1650  C 2758.5 1653.08  2756.08 1655.5  2753 1655.5  C 2749.92 1655.5  2747.5 1653.08  2747.5 1650  C 2747.5 1646.92  2749.92 1644.5  2753 1644.5  Z " stroke-width="1" stroke="#797979" fill="none" />
  <path d="M 2753 1653  C 2751.32 1653  2750 1651.68  2750 1650  C 2750 1648.32  2751.32 1647  2753 1647  C 2754.68 1647  2756 1648.32  2756 1650  C 2756 1651.68  2754.68 1653  2753 1653  " fill-rule="nonzero" fill="#797979" stroke="none" />
</svg>