<?xml version="1.0" encoding="utf-8"?>
<svg version="1.1" xmlns:xlink="http://www.w3.org/1999/xlink" width="12px" height="12px" viewBox="2747 511  12 12" xmlns="http://www.w3.org/2000/svg">
  <path d="M 2753 511  C 2756.36 511  2759 513.64  2759 517  C 2759 520.36  2756.36 523  2753 523  C 2749.64 523  2747 520.36  2747 517  C 2747 513.64  2749.64 511  2753 511  Z " fill-rule="nonzero" fill="#ffffff" stroke="none" />
  <path d="M 2753 511.5  C 2756.08 511.5  2758.5 513.92  2758.5 517  C 2758.5 520.08  2756.08 522.5  2753 522.5  C 2749.92 522.5  2747.5 520.08  2747.5 517  C 2747.5 513.92  2749.92 511.5  2753 511.5  Z " stroke-width="1" stroke="#797979" fill="none" />
  <path d="M 2753 520  C 2751.32 520  2750 518.68  2750 517  C 2750 515.32  2751.32 514  2753 514  C 2754.68 514  2756 515.32  2756 517  C 2756 518.68  2754.68 520  2753 520  " fill-rule="nonzero" fill="#797979" stroke="none" />
</svg>