<?xml version="1.0" encoding="utf-8"?>
<svg version="1.1" xmlns:xlink="http://www.w3.org/1999/xlink" width="12px" height="12px" viewBox="2847 511  12 12" xmlns="http://www.w3.org/2000/svg">
  <path d="M 2853 511  C 2856.36 511  2859 513.64  2859 517  C 2859 520.36  2856.36 523  2853 523  C 2849.64 523  2847 520.36  2847 517  C 2847 513.64  2849.64 511  2853 511  Z " fill-rule="nonzero" fill="#ffffff" stroke="none" />
  <path d="M 2853 511.5  C 2856.08 511.5  2858.5 513.92  2858.5 517  C 2858.5 520.08  2856.08 522.5  2853 522.5  C 2849.92 522.5  2847.5 520.08  2847.5 517  C 2847.5 513.92  2849.92 511.5  2853 511.5  Z " stroke-width="1" stroke="#797979" fill="none" />
  <path d="M 2853 520  C 2851.32 520  2850 518.68  2850 517  C 2850 515.32  2851.32 514  2853 514  C 2854.68 514  2856 515.32  2856 517  C 2856 518.68  2854.68 520  2853 520  " fill-rule="nonzero" fill="#797979" stroke="none" />
</svg>