<?xml version="1.0" encoding="utf-8"?>
<svg version="1.1" xmlns:xlink="http://www.w3.org/1999/xlink" width="12px" height="12px" viewBox="794 597  12 12" xmlns="http://www.w3.org/2000/svg">
  <path d="M 800 597  C 803.36 597  806 599.64  806 603  C 806 606.36  803.36 609  800 609  C 796.64 609  794 606.36  794 603  C 794 599.64  796.64 597  800 597  Z " fill-rule="nonzero" fill="#f0f0f0" stroke="none" />
  <path d="M 800 597.5  C 803.08 597.5  805.5 599.92  805.5 603  C 805.5 606.08  803.08 608.5  800 608.5  C 796.92 608.5  794.5 606.08  794.5 603  C 794.5 599.92  796.92 597.5  800 597.5  Z " stroke-width="1" stroke="#797979" fill="none" />
  <path d="M 800 606  C 798.32 606  797 604.68  797 603  C 797 601.32  798.32 600  800 600  C 801.68 600  803 601.32  803 603  C 803 604.68  801.68 606  800 606  " fill-rule="nonzero" fill="#797979" stroke="none" />
</svg>