<?xml version="1.0" encoding="utf-8"?>
<svg version="1.1" xmlns:xlink="http://www.w3.org/1999/xlink" width="12px" height="12px" viewBox="870 597  12 12" xmlns="http://www.w3.org/2000/svg">
  <path d="M 876 597  C 879.36 597  882 599.64  882 603  C 882 606.36  879.36 609  876 609  C 872.64 609  870 606.36  870 603  C 870 599.64  872.64 597  876 597  Z " fill-rule="nonzero" fill="#ffffff" stroke="none" />
  <path d="M 876 597.5  C 879.08 597.5  881.5 599.92  881.5 603  C 881.5 606.08  879.08 608.5  876 608.5  C 872.92 608.5  870.5 606.08  870.5 603  C 870.5 599.92  872.92 597.5  876 597.5  Z " stroke-width="1" stroke="#797979" fill="none" />
  <path d="M 876 606  C 874.32 606  873 604.68  873 603  C 873 601.32  874.32 600  876 600  C 877.68 600  879 601.32  879 603  C 879 604.68  877.68 606  876 606  " fill-rule="nonzero" fill="#797979" stroke="none" />
</svg>