<?xml version="1.0" encoding="utf-8"?>
<svg version="1.1" xmlns:xlink="http://www.w3.org/1999/xlink" width="12px" height="12px" viewBox="611 672  12 12" xmlns="http://www.w3.org/2000/svg">
  <path d="M 617 672  C 620.36 672  623 674.64  623 678  C 623 681.36  620.36 684  617 684  C 613.64 684  611 681.36  611 678  C 611 674.64  613.64 672  617 672  Z " fill-rule="nonzero" fill="#f0f0f0" stroke="none" />
  <path d="M 617 672.5  C 620.08 672.5  622.5 674.92  622.5 678  C 622.5 681.08  620.08 683.5  617 683.5  C 613.92 683.5  611.5 681.08  611.5 678  C 611.5 674.92  613.92 672.5  617 672.5  Z " stroke-width="1" stroke="#797979" fill="none" />
  <path d="M 617 681  C 615.32 681  614 679.68  614 678  C 614 676.32  615.32 675  617 675  C 618.68 675  620 676.32  620 678  C 620 679.68  618.68 681  617 681  " fill-rule="nonzero" fill="#797979" stroke="none" />
</svg>