<?xml version="1.0" encoding="utf-8"?>
<svg version="1.1" xmlns:xlink="http://www.w3.org/1999/xlink" width="12px" height="12px" viewBox="716 640  12 12" xmlns="http://www.w3.org/2000/svg">
  <path d="M 722 640  C 725.36 640  728 642.64  728 646  C 728 649.36  725.36 652  722 652  C 718.64 652  716 649.36  716 646  C 716 642.64  718.64 640  722 640  Z " fill-rule="nonzero" fill="#f0f0f0" stroke="none" />
  <path d="M 722 640.5  C 725.08 640.5  727.5 642.92  727.5 646  C 727.5 649.08  725.08 651.5  722 651.5  C 718.92 651.5  716.5 649.08  716.5 646  C 716.5 642.92  718.92 640.5  722 640.5  Z " stroke-width="1" stroke="#797979" fill="none" />
  <path d="M 722 649  C 720.32 649  719 647.68  719 646  C 719 644.32  720.32 643  722 643  C 723.68 643  725 644.32  725 646  C 725 647.68  723.68 649  722 649  " fill-rule="nonzero" fill="#797979" stroke="none" />
</svg>