<?xml version="1.0" encoding="utf-8"?>
<svg version="1.1" xmlns:xlink="http://www.w3.org/1999/xlink" width="12px" height="12px" viewBox="716 708  12 12" xmlns="http://www.w3.org/2000/svg">
  <path d="M 722 708  C 725.36 708  728 710.64  728 714  C 728 717.36  725.36 720  722 720  C 718.64 720  716 717.36  716 714  C 716 710.64  718.64 708  722 708  Z " fill-rule="nonzero" fill="#ffffff" stroke="none" />
  <path d="M 722 708.5  C 725.08 708.5  727.5 710.92  727.5 714  C 727.5 717.08  725.08 719.5  722 719.5  C 718.92 719.5  716.5 717.08  716.5 714  C 716.5 710.92  718.92 708.5  722 708.5  Z " stroke-width="1" stroke="#797979" fill="none" />
  <path d="M 722 717  C 720.32 717  719 715.68  719 714  C 719 712.32  720.32 711  722 711  C 723.68 711  725 712.32  725 714  C 725 715.68  723.68 717  722 717  " fill-rule="nonzero" fill="#797979" stroke="none" />
</svg>