<?xml version="1.0" encoding="utf-8"?>
<svg version="1.1" xmlns:xlink="http://www.w3.org/1999/xlink" width="12px" height="12px" viewBox="716 816  12 12" xmlns="http://www.w3.org/2000/svg">
  <path d="M 722 816  C 725.36 816  728 818.64  728 822  C 728 825.36  725.36 828  722 828  C 718.64 828  716 825.36  716 822  C 716 818.64  718.64 816  722 816  Z " fill-rule="nonzero" fill="#f0f0f0" stroke="none" />
  <path d="M 722 816.5  C 725.08 816.5  727.5 818.92  727.5 822  C 727.5 825.08  725.08 827.5  722 827.5  C 718.92 827.5  716.5 825.08  716.5 822  C 716.5 818.92  718.92 816.5  722 816.5  Z " stroke-width="1" stroke="#797979" fill="none" />
  <path d="M 722 825  C 720.32 825  719 823.68  719 822  C 719 820.32  720.32 819  722 819  C 723.68 819  725 820.32  725 822  C 725 823.68  723.68 825  722 825  " fill-rule="nonzero" fill="#797979" stroke="none" />
</svg>