<?xml version="1.0" encoding="utf-8"?>
<svg version="1.1" xmlns:xlink="http://www.w3.org/1999/xlink" width="12px" height="12px" viewBox="611 559  12 12" xmlns="http://www.w3.org/2000/svg">
  <path d="M 617 559  C 620.36 559  623 561.64  623 565  C 623 568.36  620.36 571  617 571  C 613.64 571  611 568.36  611 565  C 611 561.64  613.64 559  617 559  Z " fill-rule="nonzero" fill="#ffffff" stroke="none" />
  <path d="M 617 559.5  C 620.08 559.5  622.5 561.92  622.5 565  C 622.5 568.08  620.08 570.5  617 570.5  C 613.92 570.5  611.5 568.08  611.5 565  C 611.5 561.92  613.92 559.5  617 559.5  Z " stroke-width="1" stroke="#797979" fill="none" />
  <path d="M 617 568  C 615.32 568  614 566.68  614 565  C 614 563.32  615.32 562  617 562  C 618.68 562  620 563.32  620 565  C 620 566.68  618.68 568  617 568  " fill-rule="nonzero" fill="#797979" stroke="none" />
</svg>