<?xml version="1.0" encoding="utf-8"?>
<svg version="1.1" xmlns:xlink="http://www.w3.org/1999/xlink" width="12px" height="12px" viewBox="611 639  12 12" xmlns="http://www.w3.org/2000/svg">
  <path d="M 617 639  C 620.36 639  623 641.64  623 645  C 623 648.36  620.36 651  617 651  C 613.64 651  611 648.36  611 645  C 611 641.64  613.64 639  617 639  Z " fill-rule="nonzero" fill="#ffffff" stroke="none" />
  <path d="M 617 639.5  C 620.08 639.5  622.5 641.92  622.5 645  C 622.5 648.08  620.08 650.5  617 650.5  C 613.92 650.5  611.5 648.08  611.5 645  C 611.5 641.92  613.92 639.5  617 639.5  Z " stroke-width="1" stroke="#797979" fill="none" />
  <path d="M 617 648  C 615.32 648  614 646.68  614 645  C 614 643.32  615.32 642  617 642  C 618.68 642  620 643.32  620 645  C 620 646.68  618.68 648  617 648  " fill-rule="nonzero" fill="#797979" stroke="none" />
</svg>