<?xml version="1.0" encoding="utf-8"?>
<svg version="1.1" xmlns:xlink="http://www.w3.org/1999/xlink" width="12px" height="12px" viewBox="716 559  12 12" xmlns="http://www.w3.org/2000/svg">
  <path d="M 722 559  C 725.36 559  728 561.64  728 565  C 728 568.36  725.36 571  722 571  C 718.64 571  716 568.36  716 565  C 716 561.64  718.64 559  722 559  Z " fill-rule="nonzero" fill="#f0f0f0" stroke="none" />
  <path d="M 722 559.5  C 725.08 559.5  727.5 561.92  727.5 565  C 727.5 568.08  725.08 570.5  722 570.5  C 718.92 570.5  716.5 568.08  716.5 565  C 716.5 561.92  718.92 559.5  722 559.5  Z " stroke-width="1" stroke="#797979" fill="none" />
  <path d="M 722 568  C 720.32 568  719 566.68  719 565  C 719 563.32  720.32 562  722 562  C 723.68 562  725 563.32  725 565  C 725 566.68  723.68 568  722 568  " fill-rule="nonzero" fill="#797979" stroke="none" />
</svg>