<?xml version="1.0" encoding="utf-8"?>
<svg version="1.1" xmlns:xlink="http://www.w3.org/1999/xlink" width="12px" height="12px" viewBox="611 816  12 12" xmlns="http://www.w3.org/2000/svg">
  <path d="M 617 816  C 620.36 816  623 818.64  623 822  C 623 825.36  620.36 828  617 828  C 613.64 828  611 825.36  611 822  C 611 818.64  613.64 816  617 816  Z " fill-rule="nonzero" fill="#f0f0f0" stroke="none" />
  <path d="M 617 816.5  C 620.08 816.5  622.5 818.92  622.5 822  C 622.5 825.08  620.08 827.5  617 827.5  C 613.92 827.5  611.5 825.08  611.5 822  C 611.5 818.92  613.92 816.5  617 816.5  Z " stroke-width="1" stroke="#797979" fill="none" />
  <path d="M 617 825  C 615.32 825  614 823.68  614 822  C 614 820.32  615.32 819  617 819  C 618.68 819  620 820.32  620 822  C 620 823.68  618.68 825  617 825  " fill-rule="nonzero" fill="#797979" stroke="none" />
</svg>