<?xml version="1.0" encoding="utf-8"?>
<svg version="1.1" xmlns:xlink="http://www.w3.org/1999/xlink" width="12px" height="12px" viewBox="611 755  12 12" xmlns="http://www.w3.org/2000/svg">
  <path d="M 617 755  C 620.36 755  623 757.64  623 761  C 623 764.36  620.36 767  617 767  C 613.64 767  611 764.36  611 761  C 611 757.64  613.64 755  617 755  Z " fill-rule="nonzero" fill="#f0f0f0" stroke="none" />
  <path d="M 617 755.5  C 620.08 755.5  622.5 757.92  622.5 761  C 622.5 764.08  620.08 766.5  617 766.5  C 613.92 766.5  611.5 764.08  611.5 761  C 611.5 757.92  613.92 755.5  617 755.5  Z " stroke-width="1" stroke="#797979" fill="none" />
  <path d="M 617 764  C 615.32 764  614 762.68  614 761  C 614 759.32  615.32 758  617 758  C 618.68 758  620 759.32  620 761  C 620 762.68  618.68 764  617 764  " fill-rule="nonzero" fill="#797979" stroke="none" />
</svg>