<?xml version="1.0" encoding="utf-8"?>
<svg version="1.1" xmlns:xlink="http://www.w3.org/1999/xlink" width="12px" height="12px" viewBox="716 755  12 12" xmlns="http://www.w3.org/2000/svg">
  <path d="M 722 755  C 725.36 755  728 757.64  728 761  C 728 764.36  725.36 767  722 767  C 718.64 767  716 764.36  716 761  C 716 757.64  718.64 755  722 755  Z " fill-rule="nonzero" fill="#ffffff" stroke="none" />
  <path d="M 722 755.5  C 725.08 755.5  727.5 757.92  727.5 761  C 727.5 764.08  725.08 766.5  722 766.5  C 718.92 766.5  716.5 764.08  716.5 761  C 716.5 757.92  718.92 755.5  722 755.5  Z " stroke-width="1" stroke="#797979" fill="none" />
  <path d="M 722 764  C 720.32 764  719 762.68  719 761  C 719 759.32  720.32 758  722 758  C 723.68 758  725 759.32  725 761  C 725 762.68  723.68 764  722 764  " fill-rule="nonzero" fill="#797979" stroke="none" />
</svg>