<?xml version="1.0" encoding="utf-8"?>
<svg version="1.1" xmlns:xlink="http://www.w3.org/1999/xlink" width="12px" height="12px" viewBox="716 642  12 12" xmlns="http://www.w3.org/2000/svg">
  <path d="M 722 642  C 725.36 642  728 644.64  728 648  C 728 651.36  725.36 654  722 654  C 718.64 654  716 651.36  716 648  C 716 644.64  718.64 642  722 642  Z " fill-rule="nonzero" fill="#ffffff" stroke="none" />
  <path d="M 722 642.5  C 725.08 642.5  727.5 644.92  727.5 648  C 727.5 651.08  725.08 653.5  722 653.5  C 718.92 653.5  716.5 651.08  716.5 648  C 716.5 644.92  718.92 642.5  722 642.5  Z " stroke-width="1" stroke="#797979" fill="none" />
  <path d="M 722 651  C 720.32 651  719 649.68  719 648  C 719 646.32  720.32 645  722 645  C 723.68 645  725 646.32  725 648  C 725 649.68  723.68 651  722 651  " fill-rule="nonzero" fill="#797979" stroke="none" />
</svg>