<?xml version="1.0" encoding="utf-8"?>
<svg version="1.1" xmlns:xlink="http://www.w3.org/1999/xlink" width="12px" height="12px" viewBox="611 617  12 12" xmlns="http://www.w3.org/2000/svg">
  <path d="M 617 617  C 620.36 617  623 619.64  623 623  C 623 626.36  620.36 629  617 629  C 613.64 629  611 626.36  611 623  C 611 619.64  613.64 617  617 617  Z " fill-rule="nonzero" fill="#ffffff" stroke="none" />
  <path d="M 617 617.5  C 620.08 617.5  622.5 619.92  622.5 623  C 622.5 626.08  620.08 628.5  617 628.5  C 613.92 628.5  611.5 626.08  611.5 623  C 611.5 619.92  613.92 617.5  617 617.5  Z " stroke-width="1" stroke="#797979" fill="none" />
  <path d="M 617 626  C 615.32 626  614 624.68  614 623  C 614 621.32  615.32 620  617 620  C 618.68 620  620 621.32  620 623  C 620 624.68  618.68 626  617 626  " fill-rule="nonzero" fill="#797979" stroke="none" />
</svg>