<?xml version="1.0" encoding="utf-8"?>
<svg version="1.1" xmlns:xlink="http://www.w3.org/1999/xlink" width="12px" height="12px" viewBox="611 731  12 12" xmlns="http://www.w3.org/2000/svg">
  <path d="M 617 731  C 620.36 731  623 733.64  623 737  C 623 740.36  620.36 743  617 743  C 613.64 743  611 740.36  611 737  C 611 733.64  613.64 731  617 731  Z " fill-rule="nonzero" fill="#ffffff" stroke="none" />
  <path d="M 617 731.5  C 620.08 731.5  622.5 733.92  622.5 737  C 622.5 740.08  620.08 742.5  617 742.5  C 613.92 742.5  611.5 740.08  611.5 737  C 611.5 733.92  613.92 731.5  617 731.5  Z " stroke-width="1" stroke="#797979" fill="none" />
  <path d="M 617 740  C 615.32 740  614 738.68  614 737  C 614 735.32  615.32 734  617 734  C 618.68 734  620 735.32  620 737  C 620 738.68  618.68 740  617 740  " fill-rule="nonzero" fill="#797979" stroke="none" />
</svg>