<?xml version="1.0" encoding="utf-8"?>
<svg version="1.1" xmlns:xlink="http://www.w3.org/1999/xlink" width="12px" height="12px" viewBox="716 693  12 12" xmlns="http://www.w3.org/2000/svg">
  <path d="M 722 693  C 725.36 693  728 695.64  728 699  C 728 702.36  725.36 705  722 705  C 718.64 705  716 702.36  716 699  C 716 695.64  718.64 693  722 693  Z " fill-rule="nonzero" fill="#f0f0f0" stroke="none" />
  <path d="M 722 693.5  C 725.08 693.5  727.5 695.92  727.5 699  C 727.5 702.08  725.08 704.5  722 704.5  C 718.92 704.5  716.5 702.08  716.5 699  C 716.5 695.92  718.92 693.5  722 693.5  Z " stroke-width="1" stroke="#797979" fill="none" />
  <path d="M 722 702  C 720.32 702  719 700.68  719 699  C 719 697.32  720.32 696  722 696  C 723.68 696  725 697.32  725 699  C 725 700.68  723.68 702  722 702  " fill-rule="nonzero" fill="#797979" stroke="none" />
</svg>