<?xml version="1.0" encoding="utf-8"?>
<svg version="1.1" xmlns:xlink="http://www.w3.org/1999/xlink" width="12px" height="12px" viewBox="716 670  12 12" xmlns="http://www.w3.org/2000/svg">
  <path d="M 722 670  C 725.36 670  728 672.64  728 676  C 728 679.36  725.36 682  722 682  C 718.64 682  716 679.36  716 676  C 716 672.64  718.64 670  722 670  Z " fill-rule="nonzero" fill="#ffffff" stroke="none" />
  <path d="M 722 670.5  C 725.08 670.5  727.5 672.92  727.5 676  C 727.5 679.08  725.08 681.5  722 681.5  C 718.92 681.5  716.5 679.08  716.5 676  C 716.5 672.92  718.92 670.5  722 670.5  Z " stroke-width="1" stroke="#797979" fill="none" />
  <path d="M 722 679  C 720.32 679  719 677.68  719 676  C 719 674.32  720.32 673  722 673  C 723.68 673  725 674.32  725 676  C 725 677.68  723.68 679  722 679  " fill-rule="nonzero" fill="#797979" stroke="none" />
</svg>