<?xml version="1.0" encoding="utf-8"?>
<svg version="1.1" xmlns:xlink="http://www.w3.org/1999/xlink" width="12px" height="12px" viewBox="716 703  12 12" xmlns="http://www.w3.org/2000/svg">
  <path d="M 722 703  C 725.36 703  728 705.64  728 709  C 728 712.36  725.36 715  722 715  C 718.64 715  716 712.36  716 709  C 716 705.64  718.64 703  722 703  Z " fill-rule="nonzero" fill="#ffffff" stroke="none" />
  <path d="M 722 703.5  C 725.08 703.5  727.5 705.92  727.5 709  C 727.5 712.08  725.08 714.5  722 714.5  C 718.92 714.5  716.5 712.08  716.5 709  C 716.5 705.92  718.92 703.5  722 703.5  Z " stroke-width="1" stroke="#797979" fill="none" />
  <path d="M 722 712  C 720.32 712  719 710.68  719 709  C 719 707.32  720.32 706  722 706  C 723.68 706  725 707.32  725 709  C 725 710.68  723.68 712  722 712  " fill-rule="nonzero" fill="#797979" stroke="none" />
</svg>