<?xml version="1.0" encoding="utf-8"?>
<svg version="1.1" xmlns:xlink="http://www.w3.org/1999/xlink" width="12px" height="12px" viewBox="611 738  12 12" xmlns="http://www.w3.org/2000/svg">
  <path d="M 617 738  C 620.36 738  623 740.64  623 744  C 623 747.36  620.36 750  617 750  C 613.64 750  611 747.36  611 744  C 611 740.64  613.64 738  617 738  Z " fill-rule="nonzero" fill="#f0f0f0" stroke="none" />
  <path d="M 617 738.5  C 620.08 738.5  622.5 740.92  622.5 744  C 622.5 747.08  620.08 749.5  617 749.5  C 613.92 749.5  611.5 747.08  611.5 744  C 611.5 740.92  613.92 738.5  617 738.5  Z " stroke-width="1" stroke="#797979" fill="none" />
  <path d="M 617 747  C 615.32 747  614 745.68  614 744  C 614 742.32  615.32 741  617 741  C 618.68 741  620 742.32  620 744  C 620 745.68  618.68 747  617 747  " fill-rule="nonzero" fill="#797979" stroke="none" />
</svg>