<?xml version="1.0" encoding="utf-8"?>
<svg version="1.1" xmlns:xlink="http://www.w3.org/1999/xlink" width="12px" height="12px" viewBox="716 738  12 12" xmlns="http://www.w3.org/2000/svg">
  <path d="M 722 738  C 725.36 738  728 740.64  728 744  C 728 747.36  725.36 750  722 750  C 718.64 750  716 747.36  716 744  C 716 740.64  718.64 738  722 738  Z " fill-rule="nonzero" fill="#f0f0f0" stroke="none" />
  <path d="M 722 738.5  C 725.08 738.5  727.5 740.92  727.5 744  C 727.5 747.08  725.08 749.5  722 749.5  C 718.92 749.5  716.5 747.08  716.5 744  C 716.5 740.92  718.92 738.5  722 738.5  Z " stroke-width="1" stroke="#797979" fill="none" />
  <path d="M 722 747  C 720.32 747  719 745.68  719 744  C 719 742.32  720.32 741  722 741  C 723.68 741  725 742.32  725 744  C 725 745.68  723.68 747  722 747  " fill-rule="nonzero" fill="#797979" stroke="none" />
</svg>