<?xml version="1.0" encoding="utf-8"?>
<svg version="1.1" xmlns:xlink="http://www.w3.org/1999/xlink" width="12px" height="12px" viewBox="716 888  12 12" xmlns="http://www.w3.org/2000/svg">
  <path d="M 722 888  C 725.36 888  728 890.64  728 894  C 728 897.36  725.36 900  722 900  C 718.64 900  716 897.36  716 894  C 716 890.64  718.64 888  722 888  Z " fill-rule="nonzero" fill="#ffffff" stroke="none" />
  <path d="M 722 888.5  C 725.08 888.5  727.5 890.92  727.5 894  C 727.5 897.08  725.08 899.5  722 899.5  C 718.92 899.5  716.5 897.08  716.5 894  C 716.5 890.92  718.92 888.5  722 888.5  Z " stroke-width="1" stroke="#797979" fill="none" />
  <path d="M 722 897  C 720.32 897  719 895.68  719 894  C 719 892.32  720.32 891  722 891  C 723.68 891  725 892.32  725 894  C 725 895.68  723.68 897  722 897  " fill-rule="nonzero" fill="#797979" stroke="none" />
</svg>