<?xml version="1.0" encoding="utf-8"?>
<svg version="1.1" xmlns:xlink="http://www.w3.org/1999/xlink" width="25px" height="25px" xmlns="http://www.w3.org/2000/svg">
  <g transform="matrix(1 0 0 1 -50 -315 )">
    <path d="M 18.8151041666667 0.948660714285715  L 23.8932291666667 5.30133928571428  C 24.1970486111111 5.56175595238095  24.4574652777778 5.91517857142857  24.6744791666667 6.36160714285714  C 24.8914930555556 6.80803571428572  25 7.2172619047619  25 7.58928571428572  L 25 23.6607142857143  C 25 24.0327380952381  24.8480902777778 24.3489583333333  24.5442708333333 24.609375  C 24.2404513888889 24.8697916666667  23.8715277777778 25  23.4375 25  L 1.5625 25  C 1.12847222222222 25  0.759548611111111 24.8697916666667  0.455729166666667 24.609375  C 0.151909722222222 24.3489583333333  0 24.0327380952381  0 23.6607142857143  L 0 1.33928571428572  C 0 0.967261904761904  0.151909722222222 0.651041666666666  0.455729166666667 0.390625  C 0.759548611111111 0.130208333333334  1.12847222222222 0  1.5625 0  L 16.1458333333333 0  C 16.5798611111111 0  17.0572916666667 0.0930059523809534  17.578125 0.279017857142858  C 18.0989583333333 0.465029761904762  18.5112847222222 0.688244047619047  18.8151041666667 0.948660714285715  Z M 17.333984375 2.20424107142857  C 17.2037760416667 2.09263392857143  16.9813368055556 1.99032738095238  16.6666666666667 1.89732142857143  L 16.6666666666667 7.14285714285714  L 22.7864583333333 7.14285714285714  C 22.6779513888889 6.87313988095238  22.55859375 6.68247767857143  22.4283854166667 6.57087053571428  L 17.333984375 2.20424107142857  Z M 2 23  L 23 23  L 23 8.92857142857143  L 16.1458333333333 8.92857142857143  C 15.7118055555556 8.92857142857143  15.3428819444444 8.79836309523809  15.0390625 8.53794642857143  C 14.7352430555556 8.27752976190476  14.5833333333333 7.96130952380952  14.5833333333333 7.58928571428572  L 14.5833333333333 2  L 2 2  L 2 23  Z M 6.25 12.0535714285714  L 6.25 11.1607142857143  C 6.25 11.030505952381  6.298828125 10.9235491071429  6.396484375 10.83984375  C 6.494140625 10.7561383928571  6.61892361111111 10.7142857142857  6.77083333333333 11  L 18.2291666666667 11  C 18.3810763888889 10.7142857142857  18.505859375 10.7561383928571  18.603515625 10.83984375  C 18.701171875 10.9235491071429  18.75 11.030505952381  18.75 11.1607142857143  L 18.75 12.0535714285714  C 18.75 12.1837797619048  18.701171875 12.2907366071429  18.603515625 12.3744419642857  C 18.505859375 12.4581473214286  18.3810763888889 12.5  18.2291666666667 12.5  L 6.77083333333333 12.5  C 6.61892361111111 12.5  6.494140625 12.4581473214286  6.396484375 12.3744419642857  C 6.298828125 12.2907366071429  6.25 12.1837797619048  6.25 12.0535714285714  Z M 6.77083333333333 14  L 18.2291666666667 14  C 18.3810763888889 14.2857142857143  18.505859375 14.3275669642857  18.603515625 14.4112723214286  C 18.701171875 14.4949776785714  18.75 14.6019345238095  18.75 14.7321428571429  L 18.75 15.625  C 18.75 15.7552083333333  18.701171875 15.8621651785714  18.603515625 15.9458705357143  C 18.505859375 16.0295758928571  18.3810763888889 16.0714285714286  18.2291666666667 16  L 6.77083333333333 16  C 6.61892361111111 16.0714285714286  6.494140625 16.0295758928571  6.396484375 15.9458705357143  C 6.298828125 15.8621651785714  6.25 15.7552083333333  6.25 15.625  L 6.25 14.7321428571429  C 6.25 14.6019345238095  6.298828125 14.4949776785714  6.396484375 14.4112723214286  C 6.494140625 14.3275669642857  6.61892361111111 14.2857142857143  6.77083333333333 14  Z M 6.77083333333333 17.8571428571429  L 18.2291666666667 17.8571428571429  C 18.3810763888889 17.8571428571429  18.505859375 17.8989955357143  18.603515625 17.9827008928571  C 18.701171875 18.06640625  18.75 18.1733630952381  18.75 18.3035714285714  L 18.75 19.1964285714286  C 18.75 19.3266369047619  18.701171875 19.43359375  18.603515625 19.5172991071429  C 18.505859375 19.6010044642857  18.3810763888889 19.6428571428571  18.2291666666667 19.6428571428571  L 6.77083333333333 19.6428571428571  C 6.61892361111111 19.6428571428571  6.494140625 19.6010044642857  6.396484375 19.5172991071429  C 6.298828125 19.43359375  6.25 19.3266369047619  6.25 19.1964285714286  L 6.25 18.3035714285714  C 6.25 18.1733630952381  6.298828125 18.06640625  6.396484375 17.9827008928571  C 6.494140625 17.8989955357143  6.61892361111111 17.8571428571429  6.77083333333333 17.8571428571429  Z " fill-rule="nonzero" fill="#000000" stroke="none" fill-opacity="0.298039215686275" transform="matrix(1 0 0 1 50 315 )" />
  </g>
</svg>