<?xml version="1.0" encoding="utf-8"?>
<svg version="1.1" xmlns:xlink="http://www.w3.org/1999/xlink" width="25px" height="25px" xmlns="http://www.w3.org/2000/svg">
  <g transform="matrix(1 0 0 1 -50 -215 )">
    <path d="M 6.93359375 0.0558035714285726  C 6.99869791666667 0.0186011904761918  7.06845238095238 0  7.14285714285714 0  C 7.26376488095238 0  7.36839657738095 0.0441778273809534  7.45675223214286 0.132533482142858  C 7.54510788690476 0.220889136904762  7.58928571428571 0.325520833333331  8 0.446428571428573  L 8 20.9821428571429  C 7.58928571428571 21.1681547619048  7.51023065476191 21.2983630952381  7.35212053571429 21.3727678571429  L 0.655691964285714 24.9441964285714  C 0.590587797619048 24.9813988095238  0.520833333333333 25  0.446428571428571 25  C 0.325520833333333 25  0.220889136904762 24.955822172619  0.132533482142857 24.8674665178571  C 0.0441778273809524 24.7791108630952  0 24.6744791666667  0 24.5535714285714  L 0 4.01785714285714  C 0 3.83184523809524  0.0790550595238095 3.7016369047619  0.237165178571429 3.62723214285714  L 6.93359375 0.0558035714285726  Z M 24.3443080357143 0.0558035714285726  C 24.409412202381 0.0186011904761918  24.4791666666667 0  24.5535714285714 0  C 24.6744791666667 0  24.7791108630952 0.0441778273809534  24.8674665178571 0.132533482142858  C 24.9558221726191 0.220889136904762  25 0.325520833333331  25 0.446428571428573  L 25 20.9821428571429  C 25 21.1681547619048  24.9209449404762 21.2983630952381  24.7628348214286 21.3727678571429  L 18.06640625 24.9441964285714  C 18.0013020833333 24.9813988095238  17.9315476190476 25  17.8571428571429 25  C 17.7362351190476 25  17.6316034226191 24.955822172619  17.5432477678571 24.8674665178571  C 17.4548921130952 24.7791108630952  17.4107142857143 24.6744791666667  17 24.5535714285714  L 17 4.01785714285714  C 17.4107142857143 3.83184523809524  17.4897693452381 3.7016369047619  17.6478794642857 3.62723214285714  L 24.3443080357143 0.0558035714285726  Z M 8.61467633928571 0.132533482142858  C 8.70303199404762 0.0441778273809534  8.80766369047619 0  8.92857142857143 0  C 9.00297619047619 0  9.06808035714286 0.0139508928571425  9.12388392857143 0.0418526785714274  L 16.2667410714286 3.61328125  C 16.4341517857143 3.70628720238095  16.5178571428571 3.84114583333333  16.5178571428571 4.01785714285714  L 16.5178571428571 24.5535714285714  C 16.5178571428571 24.6744791666667  16.4736793154762 24.7791108630952  16.3853236607143 24.8674665178571  C 16.2969680059524 24.955822172619  16.1923363095238 25  16.0714285714286 25  C 15.9970238095238 25  15.9319196428571 24.9860491071429  15.8761160714286 24.9581473214286  L 8.73325892857143 21.38671875  C 8.56584821428571 21.293712797619  8.48214285714286 21.1588541666667  8.48214285714286 20.9821428571429  L 8.48214285714286 0.446428571428573  C 8.48214285714286 0.325520833333331  8.52632068452381 0.220889136904762  8.61467633928571 0.132533482142858  Z " fill-rule="nonzero" fill="#000000" stroke="none" fill-opacity="0.298039215686275" transform="matrix(1 0 0 1 50 215 )" />
  </g>
</svg>