<?xml version="1.0" encoding="utf-8"?>
<svg version="1.1" xmlns:xlink="http://www.w3.org/1999/xlink" width="11px" height="11px" xmlns="http://www.w3.org/2000/svg">
  <g transform="matrix(1 0 0 1 -1532 -292 )">
    <path d="M 1537.5 292  C 1540.58 292  1543 294.42  1543 297.5  C 1543 300.58  1540.58 303  1537.5 303  C 1534.42 303  1532 300.58  1532 297.5  C 1532 294.42  1534.42 292  1537.5 292  Z " fill-rule="nonzero" fill="#ffffff" stroke="none" />
    <path d="M 1537.5 292.5  C 1540.3 292.5  1542.5 294.7  1542.5 297.5  C 1542.5 300.3  1540.3 302.5  1537.5 302.5  C 1534.7 302.5  1532.5 300.3  1532.5 297.5  C 1532.5 294.7  1534.7 292.5  1537.5 292.5  Z " stroke-width="1" stroke="#797979" fill="none" />
  </g>
</svg>