<?xml version="1.0" encoding="utf-8"?>
<svg version="1.1" xmlns:xlink="http://www.w3.org/1999/xlink" width="14px" height="14px" xmlns="http://www.w3.org/2000/svg">
  <g transform="matrix(1 0 0 1 -631 -302 )">
    <path d="M 12.92578125 12.92578125  C 12.9752604166667 12.8763020833333  13 12.8177083333333  13 12.75  L 13 4.25  C 13 4.18229166666667  12.9752604166667 4.12369791666667  12.92578125 4.07421875  C 12.8763020833333 4.02473958333333  12.8177083333333 4  12.75 4  L 4.25 4  C 4.18229166666667 4  4.12369791666667 4.02473958333333  4.07421875 4.07421875  C 4.02473958333333 4.12369791666667  4 4.18229166666667  4 4.25  L 4 12.75  C 4 12.8177083333333  4.02473958333333 12.8763020833333  4.07421875 12.92578125  C 4.12369791666667 12.9752604166667  4.18229166666667 13  4.25 13  L 12.75 13  C 12.8177083333333 13  12.8763020833333 12.9752604166667  12.92578125 12.92578125  Z M 13.6328125 3.3671875  C 13.8776041666667 3.61197916666667  14 3.90625  14 4.25  L 14 12.75  C 14 13.09375  13.8776041666667 13.3880208333333  13.6328125 13.6328125  C 13.3880208333333 13.8776041666667  13.09375 14  12.75 14  L 4.25 14  C 3.90625 14  3.61197916666667 13.8776041666667  3.3671875 13.6328125  C 3.12239583333333 13.3880208333333  3 13.09375  3 12.75  L 3 4.25  C 3 3.90625  3.12239583333333 3.61197916666667  3.3671875 3.3671875  C 3.61197916666667 3.12239583333333  3.90625 3  4.25 3  L 12.75 3  C 13.09375 3  13.3880208333333 3.12239583333333  13.6328125 3.3671875  Z M 10.6328125 0.3671875  C 10.8776041666667 0.611979166666666  11 0.906250000000001  11 1.25  L 11 2.5  L 10 2.5  L 10 1.25  C 10 1.18229166666667  9.97526041666667 1.12369791666667  9.92578125 1.07421875  C 9.87630208333333 1.02473958333333  9.81770833333333 1  9.75 1  L 1.25 1  C 1.18229166666667 1  1.12369791666667 1.02473958333333  1.07421875 1.07421875  C 1.02473958333333 1.12369791666667  1 1.18229166666667  1 1.25  L 1 9.75  C 1 9.81770833333333  1.02473958333333 9.87630208333333  1.07421875 9.92578125  C 1.12369791666667 9.97526041666667  1.18229166666667 10  1.25 10  L 2.5 10  L 2.5 11  L 1.25 11  C 0.90625 11  0.611979166666667 10.8776041666667  0.3671875 10.6328125  C 0.122395833333333 10.3880208333333  0 10.09375  0 9.75  L 0 1.25  C 0 0.906250000000001  0.122395833333333 0.611979166666666  0.3671875 0.3671875  C 0.611979166666667 0.122395833333333  0.90625 0  1.25 0  L 9.75 0  C 10.09375 0  10.3880208333333 0.122395833333333  10.6328125 0.3671875  Z " fill-rule="nonzero" fill="#198dff" stroke="none" transform="matrix(1 0 0 1 631 302 )" />
  </g>
</svg>