<?xml version="1.0" encoding="utf-8"?>
<svg version="1.1" xmlns:xlink="http://www.w3.org/1999/xlink" width="12px" height="12px" viewBox="706 216  12 12" xmlns="http://www.w3.org/2000/svg">
  <path d="M 712 216  C 715.36 216  718 218.64  718 222  C 718 225.36  715.36 228  712 228  C 708.64 228  706 225.36  706 222  C 706 218.64  708.64 216  712 216  Z " fill-rule="nonzero" fill="#ffffff" stroke="none" />
  <path d="M 712 216.5  C 715.08 216.5  717.5 218.92  717.5 222  C 717.5 225.08  715.08 227.5  712 227.5  C 708.92 227.5  706.5 225.08  706.5 222  C 706.5 218.92  708.92 216.5  712 216.5  Z " stroke-width="1" stroke="#797979" fill="none" />
  <path d="M 712 225  C 710.32 225  709 223.68  709 222  C 709 220.32  710.32 219  712 219  C 713.68 219  715 220.32  715 222  C 715 223.68  713.68 225  712 225  " fill-rule="nonzero" fill="#797979" stroke="none" />
</svg>