<?xml version="1.0" encoding="utf-8"?>
<svg version="1.1" xmlns:xlink="http://www.w3.org/1999/xlink" width="12px" height="12px" viewBox="647 215  12 12" xmlns="http://www.w3.org/2000/svg">
  <path d="M 653 215  C 656.36 215  659 217.64  659 221  C 659 224.36  656.36 227  653 227  C 649.64 227  647 224.36  647 221  C 647 217.64  649.64 215  653 215  Z " fill-rule="nonzero" fill="#ffffff" stroke="none" />
  <path d="M 653 215.5  C 656.08 215.5  658.5 217.92  658.5 221  C 658.5 224.08  656.08 226.5  653 226.5  C 649.92 226.5  647.5 224.08  647.5 221  C 647.5 217.92  649.92 215.5  653 215.5  Z " stroke-width="1" stroke="#797979" fill="none" />
  <path d="M 653 224  C 651.32 224  650 222.68  650 221  C 650 219.32  651.32 218  653 218  C 654.68 218  656 219.32  656 221  C 656 222.68  654.68 224  653 224  " fill-rule="nonzero" fill="#797979" stroke="none" />
</svg>