<?xml version="1.0" encoding="utf-8"?>
<svg version="1.1" xmlns:xlink="http://www.w3.org/1999/xlink" width="12px" height="12px" viewBox="760 216  12 12" xmlns="http://www.w3.org/2000/svg">
  <path d="M 766 216  C 769.36 216  772 218.64  772 222  C 772 225.36  769.36 228  766 228  C 762.64 228  760 225.36  760 222  C 760 218.64  762.64 216  766 216  Z " fill-rule="nonzero" fill="#f0f0f0" stroke="none" />
  <path d="M 766 216.5  C 769.08 216.5  771.5 218.92  771.5 222  C 771.5 225.08  769.08 227.5  766 227.5  C 762.92 227.5  760.5 225.08  760.5 222  C 760.5 218.92  762.92 216.5  766 216.5  Z " stroke-width="1" stroke="#797979" fill="none" />
  <path d="M 766 225  C 764.32 225  763 223.68  763 222  C 763 220.32  764.32 219  766 219  C 767.68 219  769 220.32  769 222  C 769 223.68  767.68 225  766 225  " fill-rule="nonzero" fill="#797979" stroke="none" />
</svg>