<?xml version="1.0" encoding="utf-8"?>
<svg version="1.1" xmlns:xlink="http://www.w3.org/1999/xlink" width="12px" height="12px" viewBox="818 215  12 12" xmlns="http://www.w3.org/2000/svg">
  <path d="M 824 215  C 827.36 215  830 217.64  830 221  C 830 224.36  827.36 227  824 227  C 820.64 227  818 224.36  818 221  C 818 217.64  820.64 215  824 215  Z " fill-rule="nonzero" fill="#f0f0f0" stroke="none" />
  <path d="M 824 215.5  C 827.08 215.5  829.5 217.92  829.5 221  C 829.5 224.08  827.08 226.5  824 226.5  C 820.92 226.5  818.5 224.08  818.5 221  C 818.5 217.92  820.92 215.5  824 215.5  Z " stroke-width="1" stroke="#797979" fill="none" />
  <path d="M 824 224  C 822.32 224  821 222.68  821 221  C 821 219.32  822.32 218  824 218  C 825.68 218  827 219.32  827 221  C 827 222.68  825.68 224  824 224  " fill-rule="nonzero" fill="#797979" stroke="none" />
</svg>