<?xml version="1.0" encoding="utf-8"?>
<svg version="1.1" xmlns:xlink="http://www.w3.org/1999/xlink" width="12px" height="12px" viewBox="596 2786  12 12" xmlns="http://www.w3.org/2000/svg">
  <path d="M 602 2786  C 605.36 2786  608 2788.64  608 2792  C 608 2795.36  605.36 2798  602 2798  C 598.64 2798  596 2795.36  596 2792  C 596 2788.64  598.64 2786  602 2786  Z " fill-rule="nonzero" fill="#f0f0f0" stroke="none" />
  <path d="M 602 2786.5  C 605.08 2786.5  607.5 2788.92  607.5 2792  C 607.5 2795.08  605.08 2797.5  602 2797.5  C 598.92 2797.5  596.5 2795.08  596.5 2792  C 596.5 2788.92  598.92 2786.5  602 2786.5  Z " stroke-width="1" stroke="#797979" fill="none" />
  <path d="M 602 2795  C 600.32 2795  599 2793.68  599 2792  C 599 2790.32  600.32 2789  602 2789  C 603.68 2789  605 2790.32  605 2792  C 605 2793.68  603.68 2795  602 2795  " fill-rule="nonzero" fill="#797979" stroke="none" />
</svg>