<?xml version="1.0" encoding="utf-8"?>
<svg version="1.1" xmlns:xlink="http://www.w3.org/1999/xlink" width="12px" height="12px" viewBox="2630 1735  12 12" xmlns="http://www.w3.org/2000/svg">
  <path d="M 2636 1735  C 2639.36 1735  2642 1737.64  2642 1741  C 2642 1744.36  2639.36 1747  2636 1747  C 2632.64 1747  2630 1744.36  2630 1741  C 2630 1737.64  2632.64 1735  2636 1735  Z " fill-rule="nonzero" fill="#ffffff" stroke="none" />
  <path d="M 2636 1735.5  C 2639.08 1735.5  2641.5 1737.92  2641.5 1741  C 2641.5 1744.08  2639.08 1746.5  2636 1746.5  C 2632.92 1746.5  2630.5 1744.08  2630.5 1741  C 2630.5 1737.92  2632.92 1735.5  2636 1735.5  Z " stroke-width="1" stroke="#797979" fill="none" />
  <path d="M 2636 1744  C 2634.32 1744  2633 1742.68  2633 1741  C 2633 1739.32  2634.32 1738  2636 1738  C 2637.68 1738  2639 1739.32  2639 1741  C 2639 1742.68  2637.68 1744  2636 1744  " fill-rule="nonzero" fill="#797979" stroke="none" />
</svg>