<?xml version="1.0" encoding="utf-8"?>
<svg version="1.1" xmlns:xlink="http://www.w3.org/1999/xlink" width="12px" height="12px" viewBox="596 1631  12 12" xmlns="http://www.w3.org/2000/svg">
  <path d="M 602 1631  C 605.36 1631  608 1633.64  608 1637  C 608 1640.36  605.36 1643  602 1643  C 598.64 1643  596 1640.36  596 1637  C 596 1633.64  598.64 1631  602 1631  Z " fill-rule="nonzero" fill="#ffffff" stroke="none" />
  <path d="M 602 1631.5  C 605.08 1631.5  607.5 1633.92  607.5 1637  C 607.5 1640.08  605.08 1642.5  602 1642.5  C 598.92 1642.5  596.5 1640.08  596.5 1637  C 596.5 1633.92  598.92 1631.5  602 1631.5  Z " stroke-width="1" stroke="#797979" fill="none" />
  <path d="M 602 1640  C 600.32 1640  599 1638.68  599 1637  C 599 1635.32  600.32 1634  602 1634  C 603.68 1634  605 1635.32  605 1637  C 605 1638.68  603.68 1640  602 1640  " fill-rule="nonzero" fill="#797979" stroke="none" />
</svg>