<?xml version="1.0" encoding="utf-8"?>
<svg version="1.1" xmlns:xlink="http://www.w3.org/1999/xlink" width="12px" height="12px" viewBox="596 1735  12 12" xmlns="http://www.w3.org/2000/svg">
  <path d="M 602 1735  C 605.36 1735  608 1737.64  608 1741  C 608 1744.36  605.36 1747  602 1747  C 598.64 1747  596 1744.36  596 1741  C 596 1737.64  598.64 1735  602 1735  Z " fill-rule="nonzero" fill="#ffffff" stroke="none" />
  <path d="M 602 1735.5  C 605.08 1735.5  607.5 1737.92  607.5 1741  C 607.5 1744.08  605.08 1746.5  602 1746.5  C 598.92 1746.5  596.5 1744.08  596.5 1741  C 596.5 1737.92  598.92 1735.5  602 1735.5  Z " stroke-width="1" stroke="#797979" fill="none" />
  <path d="M 602 1744  C 600.32 1744  599 1742.68  599 1741  C 599 1739.32  600.32 1738  602 1738  C 603.68 1738  605 1739.32  605 1741  C 605 1742.68  603.68 1744  602 1744  " fill-rule="nonzero" fill="#797979" stroke="none" />
</svg>