<?xml version="1.0" encoding="utf-8"?>
<svg version="1.1" xmlns:xlink="http://www.w3.org/1999/xlink" width="12px" height="12px" viewBox="2730 2684  12 12" xmlns="http://www.w3.org/2000/svg">
  <path d="M 2736 2684  C 2739.36 2684  2742 2686.64  2742 2690  C 2742 2693.36  2739.36 2696  2736 2696  C 2732.64 2696  2730 2693.36  2730 2690  C 2730 2686.64  2732.64 2684  2736 2684  Z " fill-rule="nonzero" fill="#ffffff" stroke="none" />
  <path d="M 2736 2684.5  C 2739.08 2684.5  2741.5 2686.92  2741.5 2690  C 2741.5 2693.08  2739.08 2695.5  2736 2695.5  C 2732.92 2695.5  2730.5 2693.08  2730.5 2690  C 2730.5 2686.92  2732.92 2684.5  2736 2684.5  Z " stroke-width="1" stroke="#797979" fill="none" />
  <path d="M 2736 2693  C 2734.32 2693  2733 2691.68  2733 2690  C 2733 2688.32  2734.32 2687  2736 2687  C 2737.68 2687  2739 2688.32  2739 2690  C 2739 2691.68  2737.68 2693  2736 2693  " fill-rule="nonzero" fill="#797979" stroke="none" />
</svg>