<?xml version="1.0" encoding="utf-8"?>
<svg version="1.1" xmlns:xlink="http://www.w3.org/1999/xlink" width="12px" height="12px" viewBox="2630 2684  12 12" xmlns="http://www.w3.org/2000/svg">
  <path d="M 2636 2684  C 2639.36 2684  2642 2686.64  2642 2690  C 2642 2693.36  2639.36 2696  2636 2696  C 2632.64 2696  2630 2693.36  2630 2690  C 2630 2686.64  2632.64 2684  2636 2684  Z " fill-rule="nonzero" fill="#f0f0f0" stroke="none" />
  <path d="M 2636 2684.5  C 2639.08 2684.5  2641.5 2686.92  2641.5 2690  C 2641.5 2693.08  2639.08 2695.5  2636 2695.5  C 2632.92 2695.5  2630.5 2693.08  2630.5 2690  C 2630.5 2686.92  2632.92 2684.5  2636 2684.5  Z " stroke-width="1" stroke="#797979" fill="none" />
  <path d="M 2636 2693  C 2634.32 2693  2633 2691.68  2633 2690  C 2633 2688.32  2634.32 2687  2636 2687  C 2637.68 2687  2639 2688.32  2639 2690  C 2639 2691.68  2637.68 2693  2636 2693  " fill-rule="nonzero" fill="#797979" stroke="none" />
</svg>