<?xml version="1.0" encoding="utf-8"?>
<svg version="1.1" xmlns:xlink="http://www.w3.org/1999/xlink" width="12px" height="12px" viewBox="676 1596  12 12" xmlns="http://www.w3.org/2000/svg">
  <path d="M 682 1596  C 685.36 1596  688 1598.64  688 1602  C 688 1605.36  685.36 1608  682 1608  C 678.64 1608  676 1605.36  676 1602  C 676 1598.64  678.64 1596  682 1596  Z " fill-rule="nonzero" fill="#ffffff" stroke="none" />
  <path d="M 682 1596.5  C 685.08 1596.5  687.5 1598.92  687.5 1602  C 687.5 1605.08  685.08 1607.5  682 1607.5  C 678.92 1607.5  676.5 1605.08  676.5 1602  C 676.5 1598.92  678.92 1596.5  682 1596.5  Z " stroke-width="1" stroke="#797979" fill="none" />
  <path d="M 682 1605  C 680.32 1605  679 1603.68  679 1602  C 679 1600.32  680.32 1599  682 1599  C 683.68 1599  685 1600.32  685 1602  C 685 1603.68  683.68 1605  682 1605  " fill-rule="nonzero" fill="#797979" stroke="none" />
</svg>