<?xml version="1.0" encoding="utf-8"?>
<svg version="1.1" xmlns:xlink="http://www.w3.org/1999/xlink" width="12px" height="12px" viewBox="596 2751  12 12" xmlns="http://www.w3.org/2000/svg">
  <path d="M 602 2751  C 605.36 2751  608 2753.64  608 2757  C 608 2760.36  605.36 2763  602 2763  C 598.64 2763  596 2760.36  596 2757  C 596 2753.64  598.64 2751  602 2751  Z " fill-rule="nonzero" fill="#f0f0f0" stroke="none" />
  <path d="M 602 2751.5  C 605.08 2751.5  607.5 2753.92  607.5 2757  C 607.5 2760.08  605.08 2762.5  602 2762.5  C 598.92 2762.5  596.5 2760.08  596.5 2757  C 596.5 2753.92  598.92 2751.5  602 2751.5  Z " stroke-width="1" stroke="#797979" fill="none" />
  <path d="M 602 2760  C 600.32 2760  599 2758.68  599 2757  C 599 2755.32  600.32 2754  602 2754  C 603.68 2754  605 2755.32  605 2757  C 605 2758.68  603.68 2760  602 2760  " fill-rule="nonzero" fill="#797979" stroke="none" />
</svg>