<?xml version="1.0" encoding="utf-8"?>
<svg version="1.1" xmlns:xlink="http://www.w3.org/1999/xlink" width="12px" height="12px" viewBox="696 4048  12 12" xmlns="http://www.w3.org/2000/svg">
  <path d="M 702 4048  C 705.36 4048  708 4050.64  708 4054  C 708 4057.36  705.36 4060  702 4060  C 698.64 4060  696 4057.36  696 4054  C 696 4050.64  698.64 4048  702 4048  Z " fill-rule="nonzero" fill="#ffffff" stroke="none" />
  <path d="M 702 4048.5  C 705.08 4048.5  707.5 4050.92  707.5 4054  C 707.5 4057.08  705.08 4059.5  702 4059.5  C 698.92 4059.5  696.5 4057.08  696.5 4054  C 696.5 4050.92  698.92 4048.5  702 4048.5  Z " stroke-width="1" stroke="#797979" fill="none" />
  <path d="M 702 4057  C 700.32 4057  699 4055.68  699 4054  C 699 4052.32  700.32 4051  702 4051  C 703.68 4051  705 4052.32  705 4054  C 705 4055.68  703.68 4057  702 4057  " fill-rule="nonzero" fill="#797979" stroke="none" />
</svg>