<?xml version="1.0" encoding="utf-8"?>
<svg version="1.1" xmlns:xlink="http://www.w3.org/1999/xlink" width="12px" height="12px" viewBox="2591 3910  12 12" xmlns="http://www.w3.org/2000/svg">
  <path d="M 2597 3910  C 2600.36 3910  2603 3912.64  2603 3916  C 2603 3919.36  2600.36 3922  2597 3922  C 2593.64 3922  2591 3919.36  2591 3916  C 2591 3912.64  2593.64 3910  2597 3910  Z " fill-rule="nonzero" fill="#ffffff" stroke="none" />
  <path d="M 2597 3910.5  C 2600.08 3910.5  2602.5 3912.92  2602.5 3916  C 2602.5 3919.08  2600.08 3921.5  2597 3921.5  C 2593.92 3921.5  2591.5 3919.08  2591.5 3916  C 2591.5 3912.92  2593.92 3910.5  2597 3910.5  Z " stroke-width="1" stroke="#797979" fill="none" />
  <path d="M 2597 3919  C 2595.32 3919  2594 3917.68  2594 3916  C 2594 3914.32  2595.32 3913  2597 3913  C 2598.68 3913  2600 3914.32  2600 3916  C 2600 3917.68  2598.68 3919  2597 3919  " fill-rule="nonzero" fill="#797979" stroke="none" />
</svg>