<?xml version="1.0" encoding="utf-8"?>
<svg version="1.1" xmlns:xlink="http://www.w3.org/1999/xlink" width="12px" height="12px" viewBox="4677 1528  12 12" xmlns="http://www.w3.org/2000/svg">
  <path d="M 4683 1528  C 4686.36 1528  4689 1530.64  4689 1534  C 4689 1537.36  4686.36 1540  4683 1540  C 4679.64 1540  4677 1537.36  4677 1534  C 4677 1530.64  4679.64 1528  4683 1528  Z " fill-rule="nonzero" fill="#f0f0f0" stroke="none" />
  <path d="M 4683 1528.5  C 4686.08 1528.5  4688.5 1530.92  4688.5 1534  C 4688.5 1537.08  4686.08 1539.5  4683 1539.5  C 4679.92 1539.5  4677.5 1537.08  4677.5 1534  C 4677.5 1530.92  4679.92 1528.5  4683 1528.5  Z " stroke-width="1" stroke="#797979" fill="none" />
  <path d="M 4683 1537  C 4681.32 1537  4680 1535.68  4680 1534  C 4680 1532.32  4681.32 1531  4683 1531  C 4684.68 1531  4686 1532.32  4686 1534  C 4686 1535.68  4684.68 1537  4683 1537  " fill-rule="nonzero" fill="#797979" stroke="none" />
</svg>