<?xml version="1.0" encoding="utf-8"?>
<svg version="1.1" xmlns:xlink="http://www.w3.org/1999/xlink" width="12px" height="12px" viewBox="2671 3910  12 12" xmlns="http://www.w3.org/2000/svg">
  <path d="M 2677 3910  C 2680.36 3910  2683 3912.64  2683 3916  C 2683 3919.36  2680.36 3922  2677 3922  C 2673.64 3922  2671 3919.36  2671 3916  C 2671 3912.64  2673.64 3910  2677 3910  Z " fill-rule="nonzero" fill="#ffffff" stroke="none" />
  <path d="M 2677 3910.5  C 2680.08 3910.5  2682.5 3912.92  2682.5 3916  C 2682.5 3919.08  2680.08 3921.5  2677 3921.5  C 2673.92 3921.5  2671.5 3919.08  2671.5 3916  C 2671.5 3912.92  2673.92 3910.5  2677 3910.5  Z " stroke-width="1" stroke="#797979" fill="none" />
  <path d="M 2677 3919  C 2675.32 3919  2674 3917.68  2674 3916  C 2674 3914.32  2675.32 3913  2677 3913  C 2678.68 3913  2680 3914.32  2680 3916  C 2680 3917.68  2678.68 3919  2677 3919  " fill-rule="nonzero" fill="#797979" stroke="none" />
</svg>