<?xml version="1.0" encoding="utf-8"?>
<svg version="1.1" xmlns:xlink="http://www.w3.org/1999/xlink" width="12px" height="12px" viewBox="2630 1699  12 12" xmlns="http://www.w3.org/2000/svg">
  <path d="M 2636 1699  C 2639.36 1699  2642 1701.64  2642 1705  C 2642 1708.36  2639.36 1711  2636 1711  C 2632.64 1711  2630 1708.36  2630 1705  C 2630 1701.64  2632.64 1699  2636 1699  Z " fill-rule="nonzero" fill="#f0f0f0" stroke="none" />
  <path d="M 2636 1699.5  C 2639.08 1699.5  2641.5 1701.92  2641.5 1705  C 2641.5 1708.08  2639.08 1710.5  2636 1710.5  C 2632.92 1710.5  2630.5 1708.08  2630.5 1705  C 2630.5 1701.92  2632.92 1699.5  2636 1699.5  Z " stroke-width="1" stroke="#797979" fill="none" />
  <path d="M 2636 1708  C 2634.32 1708  2633 1706.68  2633 1705  C 2633 1703.32  2634.32 1702  2636 1702  C 2637.68 1702  2639 1703.32  2639 1705  C 2639 1706.68  2637.68 1708  2636 1708  " fill-rule="nonzero" fill="#797979" stroke="none" />
</svg>