<?xml version="1.0" encoding="utf-8"?>
<svg version="1.1" xmlns:xlink="http://www.w3.org/1999/xlink" width="12px" height="12px" viewBox="2710 2751  12 12" xmlns="http://www.w3.org/2000/svg">
  <path d="M 2716 2751  C 2719.36 2751  2722 2753.64  2722 2757  C 2722 2760.36  2719.36 2763  2716 2763  C 2712.64 2763  2710 2760.36  2710 2757  C 2710 2753.64  2712.64 2751  2716 2751  Z " fill-rule="nonzero" fill="#f0f0f0" stroke="none" />
  <path d="M 2716 2751.5  C 2719.08 2751.5  2721.5 2753.92  2721.5 2757  C 2721.5 2760.08  2719.08 2762.5  2716 2762.5  C 2712.92 2762.5  2710.5 2760.08  2710.5 2757  C 2710.5 2753.92  2712.92 2751.5  2716 2751.5  Z " stroke-width="1" stroke="#797979" fill="none" />
  <path d="M 2716 2760  C 2714.32 2760  2713 2758.68  2713 2757  C 2713 2755.32  2714.32 2754  2716 2754  C 2717.68 2754  2719 2755.32  2719 2757  C 2719 2758.68  2717.68 2760  2716 2760  " fill-rule="nonzero" fill="#797979" stroke="none" />
</svg>