<?xml version="1.0" encoding="utf-8"?>
<svg version="1.1" xmlns:xlink="http://www.w3.org/1999/xlink" width="12px" height="12px" viewBox="2730 2854  12 12" xmlns="http://www.w3.org/2000/svg">
  <path d="M 2736 2854  C 2739.36 2854  2742 2856.64  2742 2860  C 2742 2863.36  2739.36 2866  2736 2866  C 2732.64 2866  2730 2863.36  2730 2860  C 2730 2856.64  2732.64 2854  2736 2854  Z " fill-rule="nonzero" fill="#ffffff" stroke="none" />
  <path d="M 2736 2854.5  C 2739.08 2854.5  2741.5 2856.92  2741.5 2860  C 2741.5 2863.08  2739.08 2865.5  2736 2865.5  C 2732.92 2865.5  2730.5 2863.08  2730.5 2860  C 2730.5 2856.92  2732.92 2854.5  2736 2854.5  Z " stroke-width="1" stroke="#797979" fill="none" />
  <path d="M 2736 2863  C 2734.32 2863  2733 2861.68  2733 2860  C 2733 2858.32  2734.32 2857  2736 2857  C 2737.68 2857  2739 2858.32  2739 2860  C 2739 2861.68  2737.68 2863  2736 2863  " fill-rule="nonzero" fill="#797979" stroke="none" />
</svg>