<?xml version="1.0" encoding="utf-8"?>
<svg version="1.1" xmlns:xlink="http://www.w3.org/1999/xlink" width="12px" height="12px" viewBox="4777 1734  12 12" xmlns="http://www.w3.org/2000/svg">
  <path d="M 4783 1734  C 4786.36 1734  4789 1736.64  4789 1740  C 4789 1743.36  4786.36 1746  4783 1746  C 4779.64 1746  4777 1743.36  4777 1740  C 4777 1736.64  4779.64 1734  4783 1734  Z " fill-rule="nonzero" fill="#ffffff" stroke="none" />
  <path d="M 4783 1734.5  C 4786.08 1734.5  4788.5 1736.92  4788.5 1740  C 4788.5 1743.08  4786.08 1745.5  4783 1745.5  C 4779.92 1745.5  4777.5 1743.08  4777.5 1740  C 4777.5 1736.92  4779.92 1734.5  4783 1734.5  Z " stroke-width="1" stroke="#797979" fill="none" />
  <path d="M 4783 1743  C 4781.32 1743  4780 1741.68  4780 1740  C 4780 1738.32  4781.32 1737  4783 1737  C 4784.68 1737  4786 1738.32  4786 1740  C 4786 1741.68  4784.68 1743  4783 1743  " fill-rule="nonzero" fill="#797979" stroke="none" />
</svg>