<?xml version="1.0" encoding="utf-8"?>
<svg version="1.1" xmlns:xlink="http://www.w3.org/1999/xlink" width="12px" height="12px" viewBox="4777 2855  12 12" xmlns="http://www.w3.org/2000/svg">
  <path d="M 4783 2855  C 4786.36 2855  4789 2857.64  4789 2861  C 4789 2864.36  4786.36 2867  4783 2867  C 4779.64 2867  4777 2864.36  4777 2861  C 4777 2857.64  4779.64 2855  4783 2855  Z " fill-rule="nonzero" fill="#f0f0f0" stroke="none" />
  <path d="M 4783 2855.5  C 4786.08 2855.5  4788.5 2857.92  4788.5 2861  C 4788.5 2864.08  4786.08 2866.5  4783 2866.5  C 4779.92 2866.5  4777.5 2864.08  4777.5 2861  C 4777.5 2857.92  4779.92 2855.5  4783 2855.5  Z " stroke-width="1" stroke="#797979" fill="none" />
  <path d="M 4783 2864  C 4781.32 2864  4780 2862.68  4780 2861  C 4780 2859.32  4781.32 2858  4783 2858  C 4784.68 2858  4786 2859.32  4786 2861  C 4786 2862.68  4784.68 2864  4783 2864  " fill-rule="nonzero" fill="#797979" stroke="none" />
</svg>