<?xml version="1.0" encoding="utf-8"?>
<svg version="1.1" xmlns:xlink="http://www.w3.org/1999/xlink" width="12px" height="12px" viewBox="696 2890  12 12" xmlns="http://www.w3.org/2000/svg">
  <path d="M 702 2890  C 705.36 2890  708 2892.64  708 2896  C 708 2899.36  705.36 2902  702 2902  C 698.64 2902  696 2899.36  696 2896  C 696 2892.64  698.64 2890  702 2890  Z " fill-rule="nonzero" fill="#f0f0f0" stroke="none" />
  <path d="M 702 2890.5  C 705.08 2890.5  707.5 2892.92  707.5 2896  C 707.5 2899.08  705.08 2901.5  702 2901.5  C 698.92 2901.5  696.5 2899.08  696.5 2896  C 696.5 2892.92  698.92 2890.5  702 2890.5  Z " stroke-width="1" stroke="#797979" fill="none" />
  <path d="M 702 2899  C 700.32 2899  699 2897.68  699 2896  C 699 2894.32  700.32 2893  702 2893  C 703.68 2893  705 2894.32  705 2896  C 705 2897.68  703.68 2899  702 2899  " fill-rule="nonzero" fill="#797979" stroke="none" />
</svg>