<?xml version="1.0" encoding="utf-8"?>
<svg version="1.1" xmlns:xlink="http://www.w3.org/1999/xlink" width="12px" height="12px" viewBox="696 1735  12 12" xmlns="http://www.w3.org/2000/svg">
  <path d="M 702 1735  C 705.36 1735  708 1737.64  708 1741  C 708 1744.36  705.36 1747  702 1747  C 698.64 1747  696 1744.36  696 1741  C 696 1737.64  698.64 1735  702 1735  Z " fill-rule="nonzero" fill="#ffffff" stroke="none" />
  <path d="M 702 1735.5  C 705.08 1735.5  707.5 1737.92  707.5 1741  C 707.5 1744.08  705.08 1746.5  702 1746.5  C 698.92 1746.5  696.5 1744.08  696.5 1741  C 696.5 1737.92  698.92 1735.5  702 1735.5  Z " stroke-width="1" stroke="#797979" fill="none" />
  <path d="M 702 1744  C 700.32 1744  699 1742.68  699 1741  C 699 1739.32  700.32 1738  702 1738  C 703.68 1738  705 1739.32  705 1741  C 705 1742.68  703.68 1744  702 1744  " fill-rule="nonzero" fill="#797979" stroke="none" />
</svg>