<?xml version="1.0" encoding="utf-8"?>
<svg version="1.1" xmlns:xlink="http://www.w3.org/1999/xlink" width="12px" height="12px" viewBox="2730 2786  12 12" xmlns="http://www.w3.org/2000/svg">
  <path d="M 2736 2786  C 2739.36 2786  2742 2788.64  2742 2792  C 2742 2795.36  2739.36 2798  2736 2798  C 2732.64 2798  2730 2795.36  2730 2792  C 2730 2788.64  2732.64 2786  2736 2786  Z " fill-rule="nonzero" fill="#ffffff" stroke="none" />
  <path d="M 2736 2786.5  C 2739.08 2786.5  2741.5 2788.92  2741.5 2792  C 2741.5 2795.08  2739.08 2797.5  2736 2797.5  C 2732.92 2797.5  2730.5 2795.08  2730.5 2792  C 2730.5 2788.92  2732.92 2786.5  2736 2786.5  Z " stroke-width="1" stroke="#797979" fill="none" />
  <path d="M 2736 2795  C 2734.32 2795  2733 2793.68  2733 2792  C 2733 2790.32  2734.32 2789  2736 2789  C 2737.68 2789  2739 2790.32  2739 2792  C 2739 2793.68  2737.68 2795  2736 2795  " fill-rule="nonzero" fill="#797979" stroke="none" />
</svg>