<?xml version="1.0" encoding="utf-8"?>
<svg version="1.1" xmlns:xlink="http://www.w3.org/1999/xlink" width="12px" height="12px" viewBox="596 2854  12 12" xmlns="http://www.w3.org/2000/svg">
  <path d="M 602 2854  C 605.36 2854  608 2856.64  608 2860  C 608 2863.36  605.36 2866  602 2866  C 598.64 2866  596 2863.36  596 2860  C 596 2856.64  598.64 2854  602 2854  Z " fill-rule="nonzero" fill="#f0f0f0" stroke="none" />
  <path d="M 602 2854.5  C 605.08 2854.5  607.5 2856.92  607.5 2860  C 607.5 2863.08  605.08 2865.5  602 2865.5  C 598.92 2865.5  596.5 2863.08  596.5 2860  C 596.5 2856.92  598.92 2854.5  602 2854.5  Z " stroke-width="1" stroke="#797979" fill="none" />
  <path d="M 602 2863  C 600.32 2863  599 2861.68  599 2860  C 599 2858.32  600.32 2857  602 2857  C 603.68 2857  605 2858.32  605 2860  C 605 2861.68  603.68 2863  602 2863  " fill-rule="nonzero" fill="#797979" stroke="none" />
</svg>