<?xml version="1.0" encoding="utf-8"?>
<svg version="1.1" xmlns:xlink="http://www.w3.org/1999/xlink" width="12px" height="12px" viewBox="596 4048  12 12" xmlns="http://www.w3.org/2000/svg">
  <path d="M 602 4048  C 605.36 4048  608 4050.64  608 4054  C 608 4057.36  605.36 4060  602 4060  C 598.64 4060  596 4057.36  596 4054  C 596 4050.64  598.64 4048  602 4048  Z " fill-rule="nonzero" fill="#ffffff" stroke="none" />
  <path d="M 602 4048.5  C 605.08 4048.5  607.5 4050.92  607.5 4054  C 607.5 4057.08  605.08 4059.5  602 4059.5  C 598.92 4059.5  596.5 4057.08  596.5 4054  C 596.5 4050.92  598.92 4048.5  602 4048.5  Z " stroke-width="1" stroke="#797979" fill="none" />
  <path d="M 602 4057  C 600.32 4057  599 4055.68  599 4054  C 599 4052.32  600.32 4051  602 4051  C 603.68 4051  605 4052.32  605 4054  C 605 4055.68  603.68 4057  602 4057  " fill-rule="nonzero" fill="#797979" stroke="none" />
</svg>