<?xml version="1.0" encoding="utf-8"?>
<svg version="1.1" xmlns:xlink="http://www.w3.org/1999/xlink" width="12px" height="12px" viewBox="2630 1631  12 12" xmlns="http://www.w3.org/2000/svg">
  <path d="M 2636 1631  C 2639.36 1631  2642 1633.64  2642 1637  C 2642 1640.36  2639.36 1643  2636 1643  C 2632.64 1643  2630 1640.36  2630 1637  C 2630 1633.64  2632.64 1631  2636 1631  Z " fill-rule="nonzero" fill="#f0f0f0" stroke="none" />
  <path d="M 2636 1631.5  C 2639.08 1631.5  2641.5 1633.92  2641.5 1637  C 2641.5 1640.08  2639.08 1642.5  2636 1642.5  C 2632.92 1642.5  2630.5 1640.08  2630.5 1637  C 2630.5 1633.92  2632.92 1631.5  2636 1631.5  Z " stroke-width="1" stroke="#797979" fill="none" />
  <path d="M 2636 1640  C 2634.32 1640  2633 1638.68  2633 1637  C 2633 1635.32  2634.32 1634  2636 1634  C 2637.68 1634  2639 1635.32  2639 1637  C 2639 1638.68  2637.68 1640  2636 1640  " fill-rule="nonzero" fill="#797979" stroke="none" />
</svg>