<?xml version="1.0" encoding="utf-8"?>
<svg version="1.1" xmlns:xlink="http://www.w3.org/1999/xlink" width="12px" height="12px" viewBox="4677 2752  12 12" xmlns="http://www.w3.org/2000/svg">
  <path d="M 4683 2752  C 4686.36 2752  4689 2754.64  4689 2758  C 4689 2761.36  4686.36 2764  4683 2764  C 4679.64 2764  4677 2761.36  4677 2758  C 4677 2754.64  4679.64 2752  4683 2752  Z " fill-rule="nonzero" fill="#f0f0f0" stroke="none" />
  <path d="M 4683 2752.5  C 4686.08 2752.5  4688.5 2754.92  4688.5 2758  C 4688.5 2761.08  4686.08 2763.5  4683 2763.5  C 4679.92 2763.5  4677.5 2761.08  4677.5 2758  C 4677.5 2754.92  4679.92 2752.5  4683 2752.5  Z " stroke-width="1" stroke="#797979" fill="none" />
  <path d="M 4683 2761  C 4681.32 2761  4680 2759.68  4680 2758  C 4680 2756.32  4681.32 2755  4683 2755  C 4684.68 2755  4686 2756.32  4686 2758  C 4686 2759.68  4684.68 2761  4683 2761  " fill-rule="nonzero" fill="#797979" stroke="none" />
</svg>