<?xml version="1.0" encoding="utf-8"?>
<svg version="1.1" xmlns:xlink="http://www.w3.org/1999/xlink" width="12px" height="12px" viewBox="696 4013  12 12" xmlns="http://www.w3.org/2000/svg">
  <path d="M 702 4013  C 705.36 4013  708 4015.64  708 4019  C 708 4022.36  705.36 4025  702 4025  C 698.64 4025  696 4022.36  696 4019  C 696 4015.64  698.64 4013  702 4013  Z " fill-rule="nonzero" fill="#ffffff" stroke="none" />
  <path d="M 702 4013.5  C 705.08 4013.5  707.5 4015.92  707.5 4019  C 707.5 4022.08  705.08 4024.5  702 4024.5  C 698.92 4024.5  696.5 4022.08  696.5 4019  C 696.5 4015.92  698.92 4013.5  702 4013.5  Z " stroke-width="1" stroke="#797979" fill="none" />
  <path d="M 702 4022  C 700.32 4022  699 4020.68  699 4019  C 699 4017.32  700.32 4016  702 4016  C 703.68 4016  705 4017.32  705 4019  C 705 4020.68  703.68 4022  702 4022  " fill-rule="nonzero" fill="#797979" stroke="none" />
</svg>