<?xml version="1.0" encoding="utf-8"?>
<svg version="1.1" xmlns:xlink="http://www.w3.org/1999/xlink" width="12px" height="12px" viewBox="4777 1698  12 12" xmlns="http://www.w3.org/2000/svg">
  <path d="M 4783 1698  C 4786.36 1698  4789 1700.64  4789 1704  C 4789 1707.36  4786.36 1710  4783 1710  C 4779.64 1710  4777 1707.36  4777 1704  C 4777 1700.64  4779.64 1698  4783 1698  Z " fill-rule="nonzero" fill="#f0f0f0" stroke="none" />
  <path d="M 4783 1698.5  C 4786.08 1698.5  4788.5 1700.92  4788.5 1704  C 4788.5 1707.08  4786.08 1709.5  4783 1709.5  C 4779.92 1709.5  4777.5 1707.08  4777.5 1704  C 4777.5 1700.92  4779.92 1698.5  4783 1698.5  Z " stroke-width="1" stroke="#797979" fill="none" />
  <path d="M 4783 1707  C 4781.32 1707  4780 1705.68  4780 1704  C 4780 1702.32  4781.32 1701  4783 1701  C 4784.68 1701  4786 1702.32  4786 1704  C 4786 1705.68  4784.68 1707  4783 1707  " fill-rule="nonzero" fill="#797979" stroke="none" />
</svg>