<?xml version="1.0" encoding="utf-8"?>
<svg version="1.1" xmlns:xlink="http://www.w3.org/1999/xlink" width="12px" height="12px" viewBox="696 1631  12 12" xmlns="http://www.w3.org/2000/svg">
  <path d="M 702 1631  C 705.36 1631  708 1633.64  708 1637  C 708 1640.36  705.36 1643  702 1643  C 698.64 1643  696 1640.36  696 1637  C 696 1633.64  698.64 1631  702 1631  Z " fill-rule="nonzero" fill="#f0f0f0" stroke="none" />
  <path d="M 702 1631.5  C 705.08 1631.5  707.5 1633.92  707.5 1637  C 707.5 1640.08  705.08 1642.5  702 1642.5  C 698.92 1642.5  696.5 1640.08  696.5 1637  C 696.5 1633.92  698.92 1631.5  702 1631.5  Z " stroke-width="1" stroke="#797979" fill="none" />
  <path d="M 702 1640  C 700.32 1640  699 1638.68  699 1637  C 699 1635.32  700.32 1634  702 1634  C 703.68 1634  705 1635.32  705 1637  C 705 1638.68  703.68 1640  702 1640  " fill-rule="nonzero" fill="#797979" stroke="none" />
</svg>