<?xml version="1.0" encoding="utf-8"?>
<svg version="1.1" xmlns:xlink="http://www.w3.org/1999/xlink" width="12px" height="12px" viewBox="2730 1631  12 12" xmlns="http://www.w3.org/2000/svg">
  <path d="M 2736 1631  C 2739.36 1631  2742 1633.64  2742 1637  C 2742 1640.36  2739.36 1643  2736 1643  C 2732.64 1643  2730 1640.36  2730 1637  C 2730 1633.64  2732.64 1631  2736 1631  Z " fill-rule="nonzero" fill="#ffffff" stroke="none" />
  <path d="M 2736 1631.5  C 2739.08 1631.5  2741.5 1633.92  2741.5 1637  C 2741.5 1640.08  2739.08 1642.5  2736 1642.5  C 2732.92 1642.5  2730.5 1640.08  2730.5 1637  C 2730.5 1633.92  2732.92 1631.5  2736 1631.5  Z " stroke-width="1" stroke="#797979" fill="none" />
  <path d="M 2736 1640  C 2734.32 1640  2733 1638.68  2733 1637  C 2733 1635.32  2734.32 1634  2736 1634  C 2737.68 1634  2739 1635.32  2739 1637  C 2739 1638.68  2737.68 1640  2736 1640  " fill-rule="nonzero" fill="#797979" stroke="none" />
</svg>