<?xml version="1.0" encoding="utf-8"?>
<svg version="1.1" xmlns:xlink="http://www.w3.org/1999/xlink" width="12px" height="12px" viewBox="4677 1595  12 12" xmlns="http://www.w3.org/2000/svg">
  <path d="M 4683 1595  C 4686.36 1595  4689 1597.64  4689 1601  C 4689 1604.36  4686.36 1607  4683 1607  C 4679.64 1607  4677 1604.36  4677 1601  C 4677 1597.64  4679.64 1595  4683 1595  Z " fill-rule="nonzero" fill="#ffffff" stroke="none" />
  <path d="M 4683 1595.5  C 4686.08 1595.5  4688.5 1597.92  4688.5 1601  C 4688.5 1604.08  4686.08 1606.5  4683 1606.5  C 4679.92 1606.5  4677.5 1604.08  4677.5 1601  C 4677.5 1597.92  4679.92 1595.5  4683 1595.5  Z " stroke-width="1" stroke="#797979" fill="none" />
  <path d="M 4683 1604  C 4681.32 1604  4680 1602.68  4680 1601  C 4680 1599.32  4681.32 1598  4683 1598  C 4684.68 1598  4686 1599.32  4686 1601  C 4686 1602.68  4684.68 1604  4683 1604  " fill-rule="nonzero" fill="#797979" stroke="none" />
</svg>