<?xml version="1.0" encoding="utf-8"?>
<svg version="1.1" xmlns:xlink="http://www.w3.org/1999/xlink" width="12px" height="12px" viewBox="4677 1734  12 12" xmlns="http://www.w3.org/2000/svg">
  <path d="M 4683 1734  C 4686.36 1734  4689 1736.64  4689 1740  C 4689 1743.36  4686.36 1746  4683 1746  C 4679.64 1746  4677 1743.36  4677 1740  C 4677 1736.64  4679.64 1734  4683 1734  Z " fill-rule="nonzero" fill="#ffffff" stroke="none" />
  <path d="M 4683 1734.5  C 4686.08 1734.5  4688.5 1736.92  4688.5 1740  C 4688.5 1743.08  4686.08 1745.5  4683 1745.5  C 4679.92 1745.5  4677.5 1743.08  4677.5 1740  C 4677.5 1736.92  4679.92 1734.5  4683 1734.5  Z " stroke-width="1" stroke="#797979" fill="none" />
  <path d="M 4683 1743  C 4681.32 1743  4680 1741.68  4680 1740  C 4680 1738.32  4681.32 1737  4683 1737  C 4684.68 1737  4686 1738.32  4686 1740  C 4686 1741.68  4684.68 1743  4683 1743  " fill-rule="nonzero" fill="#797979" stroke="none" />
</svg>