<?xml version="1.0" encoding="utf-8"?>
<svg version="1.1" xmlns:xlink="http://www.w3.org/1999/xlink" width="12px" height="12px" viewBox="696 2684  12 12" xmlns="http://www.w3.org/2000/svg">
  <path d="M 702 2684  C 705.36 2684  708 2686.64  708 2690  C 708 2693.36  705.36 2696  702 2696  C 698.64 2696  696 2693.36  696 2690  C 696 2686.64  698.64 2684  702 2684  Z " fill-rule="nonzero" fill="#f0f0f0" stroke="none" />
  <path d="M 702 2684.5  C 705.08 2684.5  707.5 2686.92  707.5 2690  C 707.5 2693.08  705.08 2695.5  702 2695.5  C 698.92 2695.5  696.5 2693.08  696.5 2690  C 696.5 2686.92  698.92 2684.5  702 2684.5  Z " stroke-width="1" stroke="#797979" fill="none" />
  <path d="M 702 2693  C 700.32 2693  699 2691.68  699 2690  C 699 2688.32  700.32 2687  702 2687  C 703.68 2687  705 2688.32  705 2690  C 705 2691.68  703.68 2693  702 2693  " fill-rule="nonzero" fill="#797979" stroke="none" />
</svg>