<?xml version="1.0" encoding="utf-8"?>
<svg version="1.1" xmlns:xlink="http://www.w3.org/1999/xlink" width="12px" height="12px" viewBox="596 1529  12 12" xmlns="http://www.w3.org/2000/svg">
  <path d="M 602 1529  C 605.36 1529  608 1531.64  608 1535  C 608 1538.36  605.36 1541  602 1541  C 598.64 1541  596 1538.36  596 1535  C 596 1531.64  598.64 1529  602 1529  Z " fill-rule="nonzero" fill="#f0f0f0" stroke="none" />
  <path d="M 602 1529.5  C 605.08 1529.5  607.5 1531.92  607.5 1535  C 607.5 1538.08  605.08 1540.5  602 1540.5  C 598.92 1540.5  596.5 1538.08  596.5 1535  C 596.5 1531.92  598.92 1529.5  602 1529.5  Z " stroke-width="1" stroke="#797979" fill="none" />
  <path d="M 602 1538  C 600.32 1538  599 1536.68  599 1535  C 599 1533.32  600.32 1532  602 1532  C 603.68 1532  605 1533.32  605 1535  C 605 1536.68  603.68 1538  602 1538  " fill-rule="nonzero" fill="#797979" stroke="none" />
</svg>