<?xml version="1.0" encoding="utf-8"?>
<svg version="1.1" xmlns:xlink="http://www.w3.org/1999/xlink" width="12px" height="12px" viewBox="2691 4049  12 12" xmlns="http://www.w3.org/2000/svg">
  <path d="M 2697 4049  C 2700.36 4049  2703 4051.64  2703 4055  C 2703 4058.36  2700.36 4061  2697 4061  C 2693.64 4061  2691 4058.36  2691 4055  C 2691 4051.64  2693.64 4049  2697 4049  Z " fill-rule="nonzero" fill="#f0f0f0" stroke="none" />
  <path d="M 2697 4049.5  C 2700.08 4049.5  2702.5 4051.92  2702.5 4055  C 2702.5 4058.08  2700.08 4060.5  2697 4060.5  C 2693.92 4060.5  2691.5 4058.08  2691.5 4055  C 2691.5 4051.92  2693.92 4049.5  2697 4049.5  Z " stroke-width="1" stroke="#797979" fill="none" />
  <path d="M 2697 4058  C 2695.32 4058  2694 4056.68  2694 4055  C 2694 4053.32  2695.32 4052  2697 4052  C 2698.68 4052  2700 4053.32  2700 4055  C 2700 4056.68  2698.68 4058  2697 4058  " fill-rule="nonzero" fill="#797979" stroke="none" />
</svg>