<?xml version="1.0" encoding="utf-8"?>
<svg version="1.1" xmlns:xlink="http://www.w3.org/1999/xlink" width="12px" height="12px" viewBox="4777 2891  12 12" xmlns="http://www.w3.org/2000/svg">
  <path d="M 4783 2891  C 4786.36 2891  4789 2893.64  4789 2897  C 4789 2900.36  4786.36 2903  4783 2903  C 4779.64 2903  4777 2900.36  4777 2897  C 4777 2893.64  4779.64 2891  4783 2891  Z " fill-rule="nonzero" fill="#f0f0f0" stroke="none" />
  <path d="M 4783 2891.5  C 4786.08 2891.5  4788.5 2893.92  4788.5 2897  C 4788.5 2900.08  4786.08 2902.5  4783 2902.5  C 4779.92 2902.5  4777.5 2900.08  4777.5 2897  C 4777.5 2893.92  4779.92 2891.5  4783 2891.5  Z " stroke-width="1" stroke="#797979" fill="none" />
  <path d="M 4783 2900  C 4781.32 2900  4780 2898.68  4780 2897  C 4780 2895.32  4781.32 2894  4783 2894  C 4784.68 2894  4786 2895.32  4786 2897  C 4786 2898.68  4784.68 2900  4783 2900  " fill-rule="nonzero" fill="#797979" stroke="none" />
</svg>