<?xml version="1.0" encoding="utf-8"?>
<svg version="1.1" xmlns:xlink="http://www.w3.org/1999/xlink" width="12px" height="12px" viewBox="696 2786  12 12" xmlns="http://www.w3.org/2000/svg">
  <path d="M 702 2786  C 705.36 2786  708 2788.64  708 2792  C 708 2795.36  705.36 2798  702 2798  C 698.64 2798  696 2795.36  696 2792  C 696 2788.64  698.64 2786  702 2786  Z " fill-rule="nonzero" fill="#f0f0f0" stroke="none" />
  <path d="M 702 2786.5  C 705.08 2786.5  707.5 2788.92  707.5 2792  C 707.5 2795.08  705.08 2797.5  702 2797.5  C 698.92 2797.5  696.5 2795.08  696.5 2792  C 696.5 2788.92  698.92 2786.5  702 2786.5  Z " stroke-width="1" stroke="#797979" fill="none" />
  <path d="M 702 2795  C 700.32 2795  699 2793.68  699 2792  C 699 2790.32  700.32 2789  702 2789  C 703.68 2789  705 2790.32  705 2792  C 705 2793.68  703.68 2795  702 2795  " fill-rule="nonzero" fill="#797979" stroke="none" />
</svg>