<?xml version="1.0" encoding="utf-8"?>
<svg version="1.1" xmlns:xlink="http://www.w3.org/1999/xlink" width="12px" height="12px" viewBox="596 4013  12 12" xmlns="http://www.w3.org/2000/svg">
  <path d="M 602 4013  C 605.36 4013  608 4015.64  608 4019  C 608 4022.36  605.36 4025  602 4025  C 598.64 4025  596 4022.36  596 4019  C 596 4015.64  598.64 4013  602 4013  Z " fill-rule="nonzero" fill="#f0f0f0" stroke="none" />
  <path d="M 602 4013.5  C 605.08 4013.5  607.5 4015.92  607.5 4019  C 607.5 4022.08  605.08 4024.5  602 4024.5  C 598.92 4024.5  596.5 4022.08  596.5 4019  C 596.5 4015.92  598.92 4013.5  602 4013.5  Z " stroke-width="1" stroke="#797979" fill="none" />
  <path d="M 602 4022  C 600.32 4022  599 4020.68  599 4019  C 599 4017.32  600.32 4016  602 4016  C 603.68 4016  605 4017.32  605 4019  C 605 4020.68  603.68 4022  602 4022  " fill-rule="nonzero" fill="#797979" stroke="none" />
</svg>