<?xml version="1.0" encoding="utf-8"?>
<svg version="1.1" xmlns:xlink="http://www.w3.org/1999/xlink" width="12px" height="12px" viewBox="2630 1596  12 12" xmlns="http://www.w3.org/2000/svg">
  <path d="M 2636 1596  C 2639.36 1596  2642 1598.64  2642 1602  C 2642 1605.36  2639.36 1608  2636 1608  C 2632.64 1608  2630 1605.36  2630 1602  C 2630 1598.64  2632.64 1596  2636 1596  Z " fill-rule="nonzero" fill="#ffffff" stroke="none" />
  <path d="M 2636 1596.5  C 2639.08 1596.5  2641.5 1598.92  2641.5 1602  C 2641.5 1605.08  2639.08 1607.5  2636 1607.5  C 2632.92 1607.5  2630.5 1605.08  2630.5 1602  C 2630.5 1598.92  2632.92 1596.5  2636 1596.5  Z " stroke-width="1" stroke="#797979" fill="none" />
  <path d="M 2636 1605  C 2634.32 1605  2633 1603.68  2633 1602  C 2633 1600.32  2634.32 1599  2636 1599  C 2637.68 1599  2639 1600.32  2639 1602  C 2639 1603.68  2637.68 1605  2636 1605  " fill-rule="nonzero" fill="#797979" stroke="none" />
</svg>