<?xml version="1.0" encoding="utf-8"?>
<svg version="1.1" xmlns:xlink="http://www.w3.org/1999/xlink" width="12px" height="12px" viewBox="2591 3843  12 12" xmlns="http://www.w3.org/2000/svg">
  <path d="M 2597 3843  C 2600.36 3843  2603 3845.64  2603 3849  C 2603 3852.36  2600.36 3855  2597 3855  C 2593.64 3855  2591 3852.36  2591 3849  C 2591 3845.64  2593.64 3843  2597 3843  Z " fill-rule="nonzero" fill="#ffffff" stroke="none" />
  <path d="M 2597 3843.5  C 2600.08 3843.5  2602.5 3845.92  2602.5 3849  C 2602.5 3852.08  2600.08 3854.5  2597 3854.5  C 2593.92 3854.5  2591.5 3852.08  2591.5 3849  C 2591.5 3845.92  2593.92 3843.5  2597 3843.5  Z " stroke-width="1" stroke="#797979" fill="none" />
  <path d="M 2597 3852  C 2595.32 3852  2594 3850.68  2594 3849  C 2594 3847.32  2595.32 3846  2597 3846  C 2598.68 3846  2600 3847.32  2600 3849  C 2600 3850.68  2598.68 3852  2597 3852  " fill-rule="nonzero" fill="#797979" stroke="none" />
</svg>