<?xml version="1.0" encoding="utf-8"?>
<svg version="1.1" xmlns:xlink="http://www.w3.org/1999/xlink" width="12px" height="12px" viewBox="4777 2787  12 12" xmlns="http://www.w3.org/2000/svg">
  <path d="M 4783 2787  C 4786.36 2787  4789 2789.64  4789 2793  C 4789 2796.36  4786.36 2799  4783 2799  C 4779.64 2799  4777 2796.36  4777 2793  C 4777 2789.64  4779.64 2787  4783 2787  Z " fill-rule="nonzero" fill="#f0f0f0" stroke="none" />
  <path d="M 4783 2787.5  C 4786.08 2787.5  4788.5 2789.92  4788.5 2793  C 4788.5 2796.08  4786.08 2798.5  4783 2798.5  C 4779.92 2798.5  4777.5 2796.08  4777.5 2793  C 4777.5 2789.92  4779.92 2787.5  4783 2787.5  Z " stroke-width="1" stroke="#797979" fill="none" />
  <path d="M 4783 2796  C 4781.32 2796  4780 2794.68  4780 2793  C 4780 2791.32  4781.32 2790  4783 2790  C 4784.68 2790  4786 2791.32  4786 2793  C 4786 2794.68  4784.68 2796  4783 2796  " fill-rule="nonzero" fill="#797979" stroke="none" />
</svg>