<?xml version="1.0" encoding="utf-8"?>
<svg version="1.1" xmlns:xlink="http://www.w3.org/1999/xlink" width="12px" height="12px" viewBox="676 2751  12 12" xmlns="http://www.w3.org/2000/svg">
  <path d="M 682 2751  C 685.36 2751  688 2753.64  688 2757  C 688 2760.36  685.36 2763  682 2763  C 678.64 2763  676 2760.36  676 2757  C 676 2753.64  678.64 2751  682 2751  Z " fill-rule="nonzero" fill="#ffffff" stroke="none" />
  <path d="M 682 2751.5  C 685.08 2751.5  687.5 2753.92  687.5 2757  C 687.5 2760.08  685.08 2762.5  682 2762.5  C 678.92 2762.5  676.5 2760.08  676.5 2757  C 676.5 2753.92  678.92 2751.5  682 2751.5  Z " stroke-width="1" stroke="#797979" fill="none" />
  <path d="M 682 2760  C 680.32 2760  679 2758.68  679 2757  C 679 2755.32  680.32 2754  682 2754  C 683.68 2754  685 2755.32  685 2757  C 685 2758.68  683.68 2760  682 2760  " fill-rule="nonzero" fill="#797979" stroke="none" />
</svg>