<?xml version="1.0" encoding="utf-8"?>
<svg version="1.1" xmlns:xlink="http://www.w3.org/1999/xlink" width="12px" height="12px" viewBox="2730 1529  12 12" xmlns="http://www.w3.org/2000/svg">
  <path d="M 2736 1529  C 2739.36 1529  2742 1531.64  2742 1535  C 2742 1538.36  2739.36 1541  2736 1541  C 2732.64 1541  2730 1538.36  2730 1535  C 2730 1531.64  2732.64 1529  2736 1529  Z " fill-rule="nonzero" fill="#ffffff" stroke="none" />
  <path d="M 2736 1529.5  C 2739.08 1529.5  2741.5 1531.92  2741.5 1535  C 2741.5 1538.08  2739.08 1540.5  2736 1540.5  C 2732.92 1540.5  2730.5 1538.08  2730.5 1535  C 2730.5 1531.92  2732.92 1529.5  2736 1529.5  Z " stroke-width="1" stroke="#797979" fill="none" />
  <path d="M 2736 1538  C 2734.32 1538  2733 1536.68  2733 1535  C 2733 1533.32  2734.32 1532  2736 1532  C 2737.68 1532  2739 1533.32  2739 1535  C 2739 1536.68  2737.68 1538  2736 1538  " fill-rule="nonzero" fill="#797979" stroke="none" />
</svg>