<?xml version="1.0" encoding="utf-8"?>
<svg version="1.1" xmlns:xlink="http://www.w3.org/1999/xlink" width="12px" height="12px" viewBox="596 3909  12 12" xmlns="http://www.w3.org/2000/svg">
  <path d="M 602 3909  C 605.36 3909  608 3911.64  608 3915  C 608 3918.36  605.36 3921  602 3921  C 598.64 3921  596 3918.36  596 3915  C 596 3911.64  598.64 3909  602 3909  Z " fill-rule="nonzero" fill="#ffffff" stroke="none" />
  <path d="M 602 3909.5  C 605.08 3909.5  607.5 3911.92  607.5 3915  C 607.5 3918.08  605.08 3920.5  602 3920.5  C 598.92 3920.5  596.5 3918.08  596.5 3915  C 596.5 3911.92  598.92 3909.5  602 3909.5  Z " stroke-width="1" stroke="#797979" fill="none" />
  <path d="M 602 3918  C 600.32 3918  599 3916.68  599 3915  C 599 3913.32  600.32 3912  602 3912  C 603.68 3912  605 3913.32  605 3915  C 605 3916.68  603.68 3918  602 3918  " fill-rule="nonzero" fill="#797979" stroke="none" />
</svg>