<?xml version="1.0" encoding="utf-8"?>
<svg version="1.1" xmlns:xlink="http://www.w3.org/1999/xlink" width="12px" height="12px" viewBox="4677 1630  12 12" xmlns="http://www.w3.org/2000/svg">
  <path d="M 4683 1630  C 4686.36 1630  4689 1632.64  4689 1636  C 4689 1639.36  4686.36 1642  4683 1642  C 4679.64 1642  4677 1639.36  4677 1636  C 4677 1632.64  4679.64 1630  4683 1630  Z " fill-rule="nonzero" fill="#ffffff" stroke="none" />
  <path d="M 4683 1630.5  C 4686.08 1630.5  4688.5 1632.92  4688.5 1636  C 4688.5 1639.08  4686.08 1641.5  4683 1641.5  C 4679.92 1641.5  4677.5 1639.08  4677.5 1636  C 4677.5 1632.92  4679.92 1630.5  4683 1630.5  Z " stroke-width="1" stroke="#797979" fill="none" />
  <path d="M 4683 1639  C 4681.32 1639  4680 1637.68  4680 1636  C 4680 1634.32  4681.32 1633  4683 1633  C 4684.68 1633  4686 1634.32  4686 1636  C 4686 1637.68  4684.68 1639  4683 1639  " fill-rule="nonzero" fill="#797979" stroke="none" />
</svg>