<?xml version="1.0" encoding="utf-8"?>
<svg version="1.1" xmlns:xlink="http://www.w3.org/1999/xlink" width="12px" height="12px" viewBox="2730 1735  12 12" xmlns="http://www.w3.org/2000/svg">
  <path d="M 2736 1735  C 2739.36 1735  2742 1737.64  2742 1741  C 2742 1744.36  2739.36 1747  2736 1747  C 2732.64 1747  2730 1744.36  2730 1741  C 2730 1737.64  2732.64 1735  2736 1735  Z " fill-rule="nonzero" fill="#f0f0f0" stroke="none" />
  <path d="M 2736 1735.5  C 2739.08 1735.5  2741.5 1737.92  2741.5 1741  C 2741.5 1744.08  2739.08 1746.5  2736 1746.5  C 2732.92 1746.5  2730.5 1744.08  2730.5 1741  C 2730.5 1737.92  2732.92 1735.5  2736 1735.5  Z " stroke-width="1" stroke="#797979" fill="none" />
  <path d="M 2736 1744  C 2734.32 1744  2733 1742.68  2733 1741  C 2733 1739.32  2734.32 1738  2736 1738  C 2737.68 1738  2739 1739.32  2739 1741  C 2739 1742.68  2737.68 1744  2736 1744  " fill-rule="nonzero" fill="#797979" stroke="none" />
</svg>