<?xml version="1.0" encoding="utf-8"?>
<svg version="1.1" xmlns:xlink="http://www.w3.org/1999/xlink" width="12px" height="12px" viewBox="2630 2786  12 12" xmlns="http://www.w3.org/2000/svg">
  <path d="M 2636 2786  C 2639.36 2786  2642 2788.64  2642 2792  C 2642 2795.36  2639.36 2798  2636 2798  C 2632.64 2798  2630 2795.36  2630 2792  C 2630 2788.64  2632.64 2786  2636 2786  Z " fill-rule="nonzero" fill="#ffffff" stroke="none" />
  <path d="M 2636 2786.5  C 2639.08 2786.5  2641.5 2788.92  2641.5 2792  C 2641.5 2795.08  2639.08 2797.5  2636 2797.5  C 2632.92 2797.5  2630.5 2795.08  2630.5 2792  C 2630.5 2788.92  2632.92 2786.5  2636 2786.5  Z " stroke-width="1" stroke="#797979" fill="none" />
  <path d="M 2636 2795  C 2634.32 2795  2633 2793.68  2633 2792  C 2633 2790.32  2634.32 2789  2636 2789  C 2637.68 2789  2639 2790.32  2639 2792  C 2639 2793.68  2637.68 2795  2636 2795  " fill-rule="nonzero" fill="#797979" stroke="none" />
</svg>