<?xml version="1.0" encoding="utf-8"?>
<svg version="1.1" xmlns:xlink="http://www.w3.org/1999/xlink" width="12px" height="12px" viewBox="2730 2890  12 12" xmlns="http://www.w3.org/2000/svg">
  <path d="M 2736 2890  C 2739.36 2890  2742 2892.64  2742 2896  C 2742 2899.36  2739.36 2902  2736 2902  C 2732.64 2902  2730 2899.36  2730 2896  C 2730 2892.64  2732.64 2890  2736 2890  Z " fill-rule="nonzero" fill="#f0f0f0" stroke="none" />
  <path d="M 2736 2890.5  C 2739.08 2890.5  2741.5 2892.92  2741.5 2896  C 2741.5 2899.08  2739.08 2901.5  2736 2901.5  C 2732.92 2901.5  2730.5 2899.08  2730.5 2896  C 2730.5 2892.92  2732.92 2890.5  2736 2890.5  Z " stroke-width="1" stroke="#797979" fill="none" />
  <path d="M 2736 2899  C 2734.32 2899  2733 2897.68  2733 2896  C 2733 2894.32  2734.32 2893  2736 2893  C 2737.68 2893  2739 2894.32  2739 2896  C 2739 2897.68  2737.68 2899  2736 2899  " fill-rule="nonzero" fill="#797979" stroke="none" />
</svg>