<?xml version="1.0" encoding="utf-8"?>
<svg version="1.1" xmlns:xlink="http://www.w3.org/1999/xlink" width="12px" height="12px" viewBox="2691 3945  12 12" xmlns="http://www.w3.org/2000/svg">
  <path d="M 2697 3945  C 2700.36 3945  2703 3947.64  2703 3951  C 2703 3954.36  2700.36 3957  2697 3957  C 2693.64 3957  2691 3954.36  2691 3951  C 2691 3947.64  2693.64 3945  2697 3945  Z " fill-rule="nonzero" fill="#ffffff" stroke="none" />
  <path d="M 2697 3945.5  C 2700.08 3945.5  2702.5 3947.92  2702.5 3951  C 2702.5 3954.08  2700.08 3956.5  2697 3956.5  C 2693.92 3956.5  2691.5 3954.08  2691.5 3951  C 2691.5 3947.92  2693.92 3945.5  2697 3945.5  Z " stroke-width="1" stroke="#797979" fill="none" />
  <path d="M 2697 3954  C 2695.32 3954  2694 3952.68  2694 3951  C 2694 3949.32  2695.32 3948  2697 3948  C 2698.68 3948  2700 3949.32  2700 3951  C 2700 3952.68  2698.68 3954  2697 3954  " fill-rule="nonzero" fill="#797979" stroke="none" />
</svg>