<?xml version="1.0" encoding="utf-8"?>
<svg version="1.1" xmlns:xlink="http://www.w3.org/1999/xlink" width="12px" height="12px" viewBox="596 2890  12 12" xmlns="http://www.w3.org/2000/svg">
  <path d="M 602 2890  C 605.36 2890  608 2892.64  608 2896  C 608 2899.36  605.36 2902  602 2902  C 598.64 2902  596 2899.36  596 2896  C 596 2892.64  598.64 2890  602 2890  Z " fill-rule="nonzero" fill="#f0f0f0" stroke="none" />
  <path d="M 602 2890.5  C 605.08 2890.5  607.5 2892.92  607.5 2896  C 607.5 2899.08  605.08 2901.5  602 2901.5  C 598.92 2901.5  596.5 2899.08  596.5 2896  C 596.5 2892.92  598.92 2890.5  602 2890.5  Z " stroke-width="1" stroke="#797979" fill="none" />
  <path d="M 602 2899  C 600.32 2899  599 2897.68  599 2896  C 599 2894.32  600.32 2893  602 2893  C 603.68 2893  605 2894.32  605 2896  C 605 2897.68  603.68 2899  602 2899  " fill-rule="nonzero" fill="#797979" stroke="none" />
</svg>