<?xml version="1.0" encoding="utf-8"?>
<svg version="1.1" xmlns:xlink="http://www.w3.org/1999/xlink" width="12px" height="12px" viewBox="2630 2751  12 12" xmlns="http://www.w3.org/2000/svg">
  <path d="M 2636 2751  C 2639.36 2751  2642 2753.64  2642 2757  C 2642 2760.36  2639.36 2763  2636 2763  C 2632.64 2763  2630 2760.36  2630 2757  C 2630 2753.64  2632.64 2751  2636 2751  Z " fill-rule="nonzero" fill="#ffffff" stroke="none" />
  <path d="M 2636 2751.5  C 2639.08 2751.5  2641.5 2753.92  2641.5 2757  C 2641.5 2760.08  2639.08 2762.5  2636 2762.5  C 2632.92 2762.5  2630.5 2760.08  2630.5 2757  C 2630.5 2753.92  2632.92 2751.5  2636 2751.5  Z " stroke-width="1" stroke="#797979" fill="none" />
  <path d="M 2636 2760  C 2634.32 2760  2633 2758.68  2633 2757  C 2633 2755.32  2634.32 2754  2636 2754  C 2637.68 2754  2639 2755.32  2639 2757  C 2639 2758.68  2637.68 2760  2636 2760  " fill-rule="nonzero" fill="#797979" stroke="none" />
</svg>