<?xml version="1.0" encoding="utf-8"?>
<svg version="1.1" xmlns:xlink="http://www.w3.org/1999/xlink" width="12px" height="12px" viewBox="596 3842  12 12" xmlns="http://www.w3.org/2000/svg">
  <path d="M 602 3842  C 605.36 3842  608 3844.64  608 3848  C 608 3851.36  605.36 3854  602 3854  C 598.64 3854  596 3851.36  596 3848  C 596 3844.64  598.64 3842  602 3842  Z " fill-rule="nonzero" fill="#ffffff" stroke="none" />
  <path d="M 602 3842.5  C 605.08 3842.5  607.5 3844.92  607.5 3848  C 607.5 3851.08  605.08 3853.5  602 3853.5  C 598.92 3853.5  596.5 3851.08  596.5 3848  C 596.5 3844.92  598.92 3842.5  602 3842.5  Z " stroke-width="1" stroke="#797979" fill="none" />
  <path d="M 602 3851  C 600.32 3851  599 3849.68  599 3848  C 599 3846.32  600.32 3845  602 3845  C 603.68 3845  605 3846.32  605 3848  C 605 3849.68  603.68 3851  602 3851  " fill-rule="nonzero" fill="#797979" stroke="none" />
</svg>