<?xml version="1.0" encoding="utf-8"?>
<svg version="1.1" xmlns:xlink="http://www.w3.org/1999/xlink" width="12px" height="12px" viewBox="2691 4015  12 12" xmlns="http://www.w3.org/2000/svg">
  <path d="M 2697 4015  C 2700.36 4015  2703 4017.64  2703 4021  C 2703 4024.36  2700.36 4027  2697 4027  C 2693.64 4027  2691 4024.36  2691 4021  C 2691 4017.64  2693.64 4015  2697 4015  Z " fill-rule="nonzero" fill="#ffffff" stroke="none" />
  <path d="M 2697 4015.5  C 2700.08 4015.5  2702.5 4017.92  2702.5 4021  C 2702.5 4024.08  2700.08 4026.5  2697 4026.5  C 2693.92 4026.5  2691.5 4024.08  2691.5 4021  C 2691.5 4017.92  2693.92 4015.5  2697 4015.5  Z " stroke-width="1" stroke="#797979" fill="none" />
  <path d="M 2697 4024  C 2695.32 4024  2694 4022.68  2694 4021  C 2694 4019.32  2695.32 4018  2697 4018  C 2698.68 4018  2700 4019.32  2700 4021  C 2700 4022.68  2698.68 4024  2697 4024  " fill-rule="nonzero" fill="#797979" stroke="none" />
</svg>