<?xml version="1.0" encoding="utf-8"?>
<svg version="1.1" xmlns:xlink="http://www.w3.org/1999/xlink" width="12px" height="12px" viewBox="683 437  12 12" xmlns="http://www.w3.org/2000/svg">
  <path d="M 689 437  C 692.36 437  695 439.64  695 443  C 695 446.36  692.36 449  689 449  C 685.64 449  683 446.36  683 443  C 683 439.64  685.64 437  689 437  Z " fill-rule="nonzero" fill="#ffffff" stroke="none" />
  <path d="M 689 437.5  C 692.08 437.5  694.5 439.92  694.5 443  C 694.5 446.08  692.08 448.5  689 448.5  C 685.92 448.5  683.5 446.08  683.5 443  C 683.5 439.92  685.92 437.5  689 437.5  Z " stroke-width="1" stroke="#797979" fill="none" />
  <path d="M 689 446  C 687.32 446  686 444.68  686 443  C 686 441.32  687.32 440  689 440  C 690.68 440  692 441.32  692 443  C 692 444.68  690.68 446  689 446  " fill-rule="nonzero" fill="#797979" stroke="none" />
</svg>