<?xml version="1.0" encoding="utf-8"?>
<svg version="1.1" xmlns:xlink="http://www.w3.org/1999/xlink" width="12px" height="12px" viewBox="583 437  12 12" xmlns="http://www.w3.org/2000/svg">
  <path d="M 589 437  C 592.36 437  595 439.64  595 443  C 595 446.36  592.36 449  589 449  C 585.64 449  583 446.36  583 443  C 583 439.64  585.64 437  589 437  Z " fill-rule="nonzero" fill="#ffffff" stroke="none" />
  <path d="M 589 437.5  C 592.08 437.5  594.5 439.92  594.5 443  C 594.5 446.08  592.08 448.5  589 448.5  C 585.92 448.5  583.5 446.08  583.5 443  C 583.5 439.92  585.92 437.5  589 437.5  Z " stroke-width="1" stroke="#797979" fill="none" />
  <path d="M 589 446  C 587.32 446  586 444.68  586 443  C 586 441.32  587.32 440  589 440  C 590.68 440  592 441.32  592 443  C 592 444.68  590.68 446  589 446  " fill-rule="nonzero" fill="#797979" stroke="none" />
</svg>