<?xml version="1.0" encoding="utf-8"?>
<svg version="1.1" xmlns:xlink="http://www.w3.org/1999/xlink" width="12px" height="12px" viewBox="582 470  12 12" xmlns="http://www.w3.org/2000/svg">
  <path d="M 588 470  C 591.36 470  594 472.64  594 476  C 594 479.36  591.36 482  588 482  C 584.64 482  582 479.36  582 476  C 582 472.64  584.64 470  588 470  Z " fill-rule="nonzero" fill="#ffffff" stroke="none" />
  <path d="M 588 470.5  C 591.08 470.5  593.5 472.92  593.5 476  C 593.5 479.08  591.08 481.5  588 481.5  C 584.92 481.5  582.5 479.08  582.5 476  C 582.5 472.92  584.92 470.5  588 470.5  Z " stroke-width="1" stroke="#797979" fill="none" />
  <path d="M 588 479  C 586.32 479  585 477.68  585 476  C 585 474.32  586.32 473  588 473  C 589.68 473  591 474.32  591 476  C 591 477.68  589.68 479  588 479  " fill-rule="nonzero" fill="#797979" stroke="none" />
</svg>