<?xml version="1.0" encoding="utf-8"?>
<svg version="1.1" xmlns:xlink="http://www.w3.org/1999/xlink" width="12px" height="12px" viewBox="682 470  12 12" xmlns="http://www.w3.org/2000/svg">
  <path d="M 688 470  C 691.36 470  694 472.64  694 476  C 694 479.36  691.36 482  688 482  C 684.64 482  682 479.36  682 476  C 682 472.64  684.64 470  688 470  Z " fill-rule="nonzero" fill="#ffffff" stroke="none" />
  <path d="M 688 470.5  C 691.08 470.5  693.5 472.92  693.5 476  C 693.5 479.08  691.08 481.5  688 481.5  C 684.92 481.5  682.5 479.08  682.5 476  C 682.5 472.92  684.92 470.5  688 470.5  Z " stroke-width="1" stroke="#797979" fill="none" />
  <path d="M 688 479  C 686.32 479  685 477.68  685 476  C 685 474.32  686.32 473  688 473  C 689.68 473  691 474.32  691 476  C 691 477.68  689.68 479  688 479  " fill-rule="nonzero" fill="#797979" stroke="none" />
</svg>