<?xml version="1.0" encoding="utf-8"?>
<svg version="1.1" xmlns:xlink="http://www.w3.org/1999/xlink" width="12px" height="12px" viewBox="2683 483  12 12" xmlns="http://www.w3.org/2000/svg">
  <path d="M 2689 483  C 2692.36 483  2695 485.64  2695 489  C 2695 492.36  2692.36 495  2689 495  C 2685.64 495  2683 492.36  2683 489  C 2683 485.64  2685.64 483  2689 483  Z " fill-rule="nonzero" fill="#ffffff" stroke="none" />
  <path d="M 2689 483.5  C 2692.08 483.5  2694.5 485.92  2694.5 489  C 2694.5 492.08  2692.08 494.5  2689 494.5  C 2685.92 494.5  2683.5 492.08  2683.5 489  C 2683.5 485.92  2685.92 483.5  2689 483.5  Z " stroke-width="1" stroke="#797979" fill="none" />
  <path d="M 2689 492  C 2687.32 492  2686 490.68  2686 489  C 2686 487.32  2687.32 486  2689 486  C 2690.68 486  2692 487.32  2692 489  C 2692 490.68  2690.68 492  2689 492  " fill-rule="nonzero" fill="#797979" stroke="none" />
</svg>