<?xml version="1.0" encoding="utf-8"?>
<svg version="1.1" xmlns:xlink="http://www.w3.org/1999/xlink" width="12px" height="12px" viewBox="2685 516  12 12" xmlns="http://www.w3.org/2000/svg">
  <path d="M 2691 516  C 2694.36 516  2697 518.64  2697 522  C 2697 525.36  2694.36 528  2691 528  C 2687.64 528  2685 525.36  2685 522  C 2685 518.64  2687.64 516  2691 516  Z " fill-rule="nonzero" fill="#ffffff" stroke="none" />
  <path d="M 2691 516.5  C 2694.08 516.5  2696.5 518.92  2696.5 522  C 2696.5 525.08  2694.08 527.5  2691 527.5  C 2687.92 527.5  2685.5 525.08  2685.5 522  C 2685.5 518.92  2687.92 516.5  2691 516.5  Z " stroke-width="1" stroke="#797979" fill="none" />
  <path d="M 2691 525  C 2689.32 525  2688 523.68  2688 522  C 2688 520.32  2689.32 519  2691 519  C 2692.68 519  2694 520.32  2694 522  C 2694 523.68  2692.68 525  2691 525  " fill-rule="nonzero" fill="#797979" stroke="none" />
</svg>