<?xml version="1.0" encoding="utf-8"?>
<svg version="1.1" xmlns:xlink="http://www.w3.org/1999/xlink" width="12px" height="12px" viewBox="2585 483  12 12" xmlns="http://www.w3.org/2000/svg">
  <path d="M 2591 483  C 2594.36 483  2597 485.64  2597 489  C 2597 492.36  2594.36 495  2591 495  C 2587.64 495  2585 492.36  2585 489  C 2585 485.64  2587.64 483  2591 483  Z " fill-rule="nonzero" fill="#ffffff" stroke="none" />
  <path d="M 2591 483.5  C 2594.08 483.5  2596.5 485.92  2596.5 489  C 2596.5 492.08  2594.08 494.5  2591 494.5  C 2587.92 494.5  2585.5 492.08  2585.5 489  C 2585.5 485.92  2587.92 483.5  2591 483.5  Z " stroke-width="1" stroke="#797979" fill="none" />
  <path d="M 2591 492  C 2589.32 492  2588 490.68  2588 489  C 2588 487.32  2589.32 486  2591 486  C 2592.68 486  2594 487.32  2594 489  C 2594 490.68  2592.68 492  2591 492  " fill-rule="nonzero" fill="#797979" stroke="none" />
</svg>