<?xml version="1.0" encoding="utf-8"?>
<svg version="1.1" xmlns:xlink="http://www.w3.org/1999/xlink" width="12px" height="12px" viewBox="2672 552  12 12" xmlns="http://www.w3.org/2000/svg">
  <path d="M 2678 552  C 2681.36 552  2684 554.64  2684 558  C 2684 561.36  2681.36 564  2678 564  C 2674.64 564  2672 561.36  2672 558  C 2672 554.64  2674.64 552  2678 552  Z " fill-rule="nonzero" fill="#f0f0f0" stroke="none" />
  <path d="M 2678 552.5  C 2681.08 552.5  2683.5 554.92  2683.5 558  C 2683.5 561.08  2681.08 563.5  2678 563.5  C 2674.92 563.5  2672.5 561.08  2672.5 558  C 2672.5 554.92  2674.92 552.5  2678 552.5  Z " stroke-width="1" stroke="#797979" fill="none" />
  <path d="M 2678 561  C 2676.32 561  2675 559.68  2675 558  C 2675 556.32  2676.32 555  2678 555  C 2679.68 555  2681 556.32  2681 558  C 2681 559.68  2679.68 561  2678 561  " fill-rule="nonzero" fill="#797979" stroke="none" />
</svg>