<?xml version="1.0" encoding="utf-8"?>
<svg version="1.1" xmlns:xlink="http://www.w3.org/1999/xlink" width="12px" height="12px" viewBox="694 1705  12 12" xmlns="http://www.w3.org/2000/svg">
  <path d="M 700 1705  C 703.36 1705  706 1707.64  706 1711  C 706 1714.36  703.36 1717  700 1717  C 696.64 1717  694 1714.36  694 1711  C 694 1707.64  696.64 1705  700 1705  Z " fill-rule="nonzero" fill="#f0f0f0" stroke="none" />
  <path d="M 700 1705.5  C 703.08 1705.5  705.5 1707.92  705.5 1711  C 705.5 1714.08  703.08 1716.5  700 1716.5  C 696.92 1716.5  694.5 1714.08  694.5 1711  C 694.5 1707.92  696.92 1705.5  700 1705.5  Z " stroke-width="1" stroke="#797979" fill="none" />
  <path d="M 700 1714  C 698.32 1714  697 1712.68  697 1711  C 697 1709.32  698.32 1708  700 1708  C 701.68 1708  703 1709.32  703 1711  C 703 1712.68  701.68 1714  700 1714  " fill-rule="nonzero" fill="#797979" stroke="none" />
</svg>