<?xml version="1.0" encoding="utf-8"?>
<svg version="1.1" xmlns:xlink="http://www.w3.org/1999/xlink" width="12px" height="12px" viewBox="607 1668  12 12" xmlns="http://www.w3.org/2000/svg">
  <path d="M 613 1668  C 616.36 1668  619 1670.64  619 1674  C 619 1677.36  616.36 1680  613 1680  C 609.64 1680  607 1677.36  607 1674  C 607 1670.64  609.64 1668  613 1668  Z " fill-rule="nonzero" fill="#f0f0f0" stroke="none" />
  <path d="M 613 1668.5  C 616.08 1668.5  618.5 1670.92  618.5 1674  C 618.5 1677.08  616.08 1679.5  613 1679.5  C 609.92 1679.5  607.5 1677.08  607.5 1674  C 607.5 1670.92  609.92 1668.5  613 1668.5  Z " stroke-width="1" stroke="#797979" fill="none" />
  <path d="M 613 1677  C 611.32 1677  610 1675.68  610 1674  C 610 1672.32  611.32 1671  613 1671  C 614.68 1671  616 1672.32  616 1674  C 616 1675.68  614.68 1677  613 1677  " fill-rule="nonzero" fill="#797979" stroke="none" />
</svg>