<?xml version="1.0" encoding="utf-8"?>
<svg version="1.1" xmlns:xlink="http://www.w3.org/1999/xlink" width="12px" height="12px" viewBox="707 1669  12 12" xmlns="http://www.w3.org/2000/svg">
  <path d="M 713 1669  C 716.36 1669  719 1671.64  719 1675  C 719 1678.36  716.36 1681  713 1681  C 709.64 1681  707 1678.36  707 1675  C 707 1671.64  709.64 1669  713 1669  Z " fill-rule="nonzero" fill="#f0f0f0" stroke="none" />
  <path d="M 713 1669.5  C 716.08 1669.5  718.5 1671.92  718.5 1675  C 718.5 1678.08  716.08 1680.5  713 1680.5  C 709.92 1680.5  707.5 1678.08  707.5 1675  C 707.5 1671.92  709.92 1669.5  713 1669.5  Z " stroke-width="1" stroke="#797979" fill="none" />
  <path d="M 713 1678  C 711.32 1678  710 1676.68  710 1675  C 710 1673.32  711.32 1672  713 1672  C 714.68 1672  716 1673.32  716 1675  C 716 1676.68  714.68 1678  713 1678  " fill-rule="nonzero" fill="#797979" stroke="none" />
</svg>