<?xml version="1.0" encoding="utf-8"?>
<svg version="1.1" xmlns:xlink="http://www.w3.org/1999/xlink" width="12px" height="12px" viewBox="607 1636  12 12" xmlns="http://www.w3.org/2000/svg">
  <path d="M 613 1636  C 616.36 1636  619 1638.64  619 1642  C 619 1645.36  616.36 1648  613 1648  C 609.64 1648  607 1645.36  607 1642  C 607 1638.64  609.64 1636  613 1636  Z " fill-rule="nonzero" fill="#f0f0f0" stroke="none" />
  <path d="M 613 1636.5  C 616.08 1636.5  618.5 1638.92  618.5 1642  C 618.5 1645.08  616.08 1647.5  613 1647.5  C 609.92 1647.5  607.5 1645.08  607.5 1642  C 607.5 1638.92  609.92 1636.5  613 1636.5  Z " stroke-width="1" stroke="#797979" fill="none" />
  <path d="M 613 1645  C 611.32 1645  610 1643.68  610 1642  C 610 1640.32  611.32 1639  613 1639  C 614.68 1639  616 1640.32  616 1642  C 616 1643.68  614.68 1645  613 1645  " fill-rule="nonzero" fill="#797979" stroke="none" />
</svg>