<?xml version="1.0" encoding="utf-8"?>
<svg version="1.1" xmlns:xlink="http://www.w3.org/1999/xlink" width="12px" height="12px" viewBox="705 1636  12 12" xmlns="http://www.w3.org/2000/svg">
  <path d="M 711 1636  C 714.36 1636  717 1638.64  717 1642  C 717 1645.36  714.36 1648  711 1648  C 707.64 1648  705 1645.36  705 1642  C 705 1638.64  707.64 1636  711 1636  Z " fill-rule="nonzero" fill="#ffffff" stroke="none" />
  <path d="M 711 1636.5  C 714.08 1636.5  716.5 1638.92  716.5 1642  C 716.5 1645.08  714.08 1647.5  711 1647.5  C 707.92 1647.5  705.5 1645.08  705.5 1642  C 705.5 1638.92  707.92 1636.5  711 1636.5  Z " stroke-width="1" stroke="#797979" fill="none" />
  <path d="M 711 1645  C 709.32 1645  708 1643.68  708 1642  C 708 1640.32  709.32 1639  711 1639  C 712.68 1639  714 1640.32  714 1642  C 714 1643.68  712.68 1645  711 1645  " fill-rule="nonzero" fill="#797979" stroke="none" />
</svg>