<?xml version="1.0" encoding="utf-8"?>
<svg version="1.1" xmlns:xlink="http://www.w3.org/1999/xlink" width="12px" height="12px" viewBox="2585 552  12 12" xmlns="http://www.w3.org/2000/svg">
  <path d="M 2591 552  C 2594.36 552  2597 554.64  2597 558  C 2597 561.36  2594.36 564  2591 564  C 2587.64 564  2585 561.36  2585 558  C 2585 554.64  2587.64 552  2591 552  Z " fill-rule="nonzero" fill="#f0f0f0" stroke="none" />
  <path d="M 2591 552.5  C 2594.08 552.5  2596.5 554.92  2596.5 558  C 2596.5 561.08  2594.08 563.5  2591 563.5  C 2587.92 563.5  2585.5 561.08  2585.5 558  C 2585.5 554.92  2587.92 552.5  2591 552.5  Z " stroke-width="1" stroke="#797979" fill="none" />
  <path d="M 2591 561  C 2589.32 561  2588 559.68  2588 558  C 2588 556.32  2589.32 555  2591 555  C 2592.68 555  2594 556.32  2594 558  C 2594 559.68  2592.68 561  2591 561  " fill-rule="nonzero" fill="#797979" stroke="none" />
</svg>