<?xml version="1.0" encoding="utf-8"?>
<svg version="1.1" xmlns:xlink="http://www.w3.org/1999/xlink" width="25px" height="25px" xmlns="http://www.w3.org/2000/svg">
  <g transform="matrix(1 0 0 1 -1019 -435 )">
    <path d="M 1031.5 435  C 1038.5 435  1044 440.5  1044 447.5  C 1044 454.5  1038.5 460  1031.5 460  C 1024.5 460  1019 454.5  1019 447.5  C 1019 440.5  1024.5 435  1031.5 435  Z " fill-rule="nonzero" fill="#ffffff" stroke="none" />
    <path d="M 1031.5 435.5  C 1038.22 435.5  1043.5 440.78  1043.5 447.5  C 1043.5 454.22  1038.22 459.5  1031.5 459.5  C 1024.78 459.5  1019.5 454.22  1019.5 447.5  C 1019.5 440.78  1024.78 435.5  1031.5 435.5  Z " stroke-width="1" stroke="#797979" fill="none" />
  </g>
</svg>