<?xml version="1.0" encoding="utf-8"?>
<svg version="1.1" xmlns:xlink="http://www.w3.org/1999/xlink" width="24px" height="20px" xmlns="http://www.w3.org/2000/svg">
  <g transform="matrix(1 0 0 1 -841 -202 )">
    <path d="M 18.0586557539683 9.296875  C 18.2550016534392 9.49479166666666  18.3531746031747 9.72916666666666  18.3531746031747 10  C 18.3531746031747 10.2708333333333  18.2550016534392 10.5052083333333  18.0586557539683 10.703125  L 9.62611607142856 19.203125  C 9.42977017195767 19.4010416666667  9.19725529100526 19.5  8.92857142857144 19.5  C 8.65988756613763 19.5  8.42737268518522 19.4010416666667  8.23102678571433 19.203125  C 8.03468088624345 19.0052083333333  7.93650793650795 18.7708333333333  7.93650793650795 18.5  L 7.93650793650795 14  L 0.992063492063494 14  C 0.723379629629676 14  0.490864748677268 13.9010416666667  0.294518849206383 13.703125  C 0.0981729497354991 13.5052083333333  0 13.2708333333333  0 13  L 0 7  C 0 6.72916666666666  0.0981729497354991 6.49479166666666  0.294518849206383 6.296875  C 0.490864748677268 6.09895833333334  0.723379629629676 6  0.992063492063494 6  L 7.93650793650795 6  L 7.93650793650795 1.5  C 7.93650793650795 1.22916666666666  8.03468088624345 0.994791666666657  8.23102678571433 0.796875  C 8.42737268518522 0.598958333333343  8.65988756613763 0.5  8.92857142857144 0.5  C 9.19725529100526 0.5  9.42977017195767 0.598958333333343  9.62611607142856 0.796875  L 18.0586557539683 9.296875  Z M 22.4996899801588 1.3203125  C 23.3729125330689 2.20052083333334  23.8095238095239 3.26041666666666  23.8095238095239 4.5  L 23.8095238095239 15.5  C 23.8095238095239 16.7395833333333  23.3729125330689 17.7994791666667  22.4996899801588 18.6796875  C 21.6264674272487 19.5598958333333  20.5749834656085 20  19.3452380952381 20  L 14.3849206349207 20  C 14.2505787037037 20  14.1343212632275 19.9505208333333  14.036148313492 19.8515625  C 13.9379753637567 19.7526041666667  13.8888888888889 19.6354166666667  13.8888888888889 19.5  C 13.8888888888889 19.4583333333333  13.8837218915344 19.3541666666667  13.8733878968254 19.1875  C 13.8630539021165 19.0208333333333  13.8604704034392 18.8828125  13.8656374007937 18.7734375  C 13.8708043981482 18.6640625  13.8863053902116 18.5416666666667  13.9121403769841 18.40625  C 13.9379753637567 18.2708333333333  13.9896453373016 18.1692708333333  14.067150297619 18.1015625  C 14.1446552579365 18.0338541666667  14.2505787037037 18  14.3849206349207 18  L 19.3452380952381 18  C 20.0272817460318 18  20.61115244709 17.7552083333333  21.0968501984128 17.265625  C 21.5825479497355 16.7760416666667  21.8253968253969 16.1875  21.8253968253969 15.5  L 21.8253968253969 4.5  C 21.8253968253969 3.8125  21.5825479497355 3.22395833333334  21.0968501984128 2.734375  C 20.61115244709 2.24479166666666  20.0272817460318 2  19.3452380952381 2  L 14.8809523809524 2  L 14.710441468254 2  L 14.5089285714286 2  C 14.5089285714286 2  14.4495081018518 1.99479166666666  14.3306671626984 1.984375  C 14.211826223545 1.97395833333334  14.1524057539683 1.95833333333334  14.1524057539683 1.9375  C 14.1524057539683 1.91666666666666  14.1110697751323 1.88802083333334  14.0283978174604 1.8515625  C 13.9457258597884 1.81510416666666  13.9095568783069 1.76822916666666  13.9198908730159 1.7109375  C 13.9302248677249 1.65364583333334  13.9198908730159 1.58333333333334  13.8888888888889 1.5  C 13.8888888888889 1.45833333333334  13.8837218915344 1.35416666666666  13.8733878968254 1.1875  C 13.8630539021165 1.02083333333334  13.8604704034392 0.8828125  13.8656374007937 0.7734375  C 13.8708043981482 0.6640625  13.8863053902116 0.541666666666657  13.9121403769841 0.40625  C 13.9379753637567 0.270833333333343  13.9896453373016 0.169270833333343  14.067150297619 0.1015625  C 14.1446552579365 0.0338541666666572  14.2505787037037 0  14.3849206349207 0  L 19.3452380952381 0  C 20.5749834656085 0  21.6264674272487 0.440104166666657  22.4996899801588 1.3203125  Z " fill-rule="nonzero" fill="#000000" stroke="none" transform="matrix(1 0 0 1 841 202 )" />
  </g>
</svg>