<?xml version="1.0" encoding="utf-8"?>
<svg version="1.1" xmlns:xlink="http://www.w3.org/1999/xlink" width="25px" height="20px" xmlns="http://www.w3.org/2000/svg">
  <g transform="matrix(1 0 0 1 -842 -563 )">
    <path d="M 9.9240915878546 18.2890625  C 9.91372158619549 18.3463541666667  9.9240915878546 18.4166666666667  9.95520159283228 18.5  C 9.95520159283228 18.5416666666667  9.96038659366184 18.6458333333333  9.97075659532106 18.8125  C 9.98112659698029 18.9791666666667  9.98371909739501 19.1171875  9.97853409656545 19.2265625  C 9.9733490957359 19.3359375  9.957794093247 19.4583333333333  9.931869089099 19.59375  C 9.9059440849511 19.7291666666667  9.85409407665509 19.8307291666667  9.77631906421107 19.8984375  C 9.69854405176704 19.9661458333333  9.59225153476029 20  9.45744151319059 20  L 4.47984071677456 20  C 3.24581051932967 20  2.1906628505061 19.5598958333333  1.31439771030364 18.6796875  C 0.438132570101175 17.7994791666667  0 16.7395833333333  0 15.5  L 0 4.5  C 0 3.26041666666669  0.438132570101175 2.20052083333331  1.31439771030364 1.3203125  C 2.1906628505061 0.440104166666686  3.24581051932967 0  4.47984071677456 0  L 9.45744151319059 0  C 9.59225153476029 0  9.70891405342627 0.0494791666666856  9.80742906918863 0.1484375  C 9.9059440849511 0.247395833333314  9.95520159283228 0.364583333333314  9.95520159283228 0.5  C 9.95520159283228 0.541666666666686  9.96038659366184 0.645833333333314  9.97075659532106 0.8125  C 9.98112659698029 0.979166666666686  9.98371909739501 1.1171875  9.97853409656545 1.2265625  C 9.9733490957359 1.3359375  9.957794093247 1.45833333333331  9.931869089099 1.59375  C 9.9059440849511 1.72916666666669  9.85409407665509 1.83072916666669  9.77631906421107 1.8984375  C 9.69854405176704 1.96614583333331  9.59225153476029 2  9.45744151319059 2  L 4.47984071677456 2  C 3.79542060726726 2  3.20951551352243 2.24479166666669  2.72212543554008 2.734375  C 2.23473535755761 3.22395833333331  1.99104031856643 3.8125  2 4.5  L 2 15.5  C 1.99104031856643 16.1875  2.23473535755761 16.7760416666667  2.72212543554008 17.265625  C 3.20951551352243 17.7552083333333  3.79542060726726 18  4.47984071677456 18  L 8.95968143354901 18  L 9.13078646092583 18  L 9.33300149328022 18  C 9.33300149328022 18  9.39262900282063 18.0052083333333  9.51188402190144 18.015625  C 9.63113904098225 18.0260416666667  9.69076655052265 18.0416666666667  9.69076655052265 18.0625  C 9.69076655052265 18.0833333333333  9.73224655715944 18.1119791666667  9.81520657043302 18.1484375  C 9.8981665837066 18.1848958333333  9.93446158951383 18.2317708333333  9.9240915878546 18.2890625  Z M 24.0946988551518 9.296875  C 24.2917288866767 9.49479166666669  24.390243902439 9.72916666666669  24.390243902439 10  C 24.390243902439 10.2708333333333  24.2917288866767 10.5052083333333  24.0946988551518 10.703125  L 15.6327775012444 19.203125  C 15.4357474697196 19.4010416666667  15.2024224323876 19.5  14.9328023892484 19.5  C 14.6631823461091 19.5  14.4298573087772 19.4010416666667  14.2328272772523 19.203125  C 14.0357972457275 19.0052083333333  13.9372822299651 18.7708333333333  13.9372822299651 18.5  L 13.9372822299651 14  L 6.96864111498257 14  C 6.69902107184339 14  6.46569603451132 13.9010416666667  6.26866600298661 13.703125  C 6.07163597146177 13.5052083333333  5.9731209556993 13.2708333333333  5.9731209556993 13  L 5.9731209556993 7  C 5.9731209556993 6.72916666666669  6.07163597146177 6.49479166666669  6.26866600298661 6.296875  C 6.46569603451132 6.09895833333331  6.69902107184339 6  6.96864111498257 6  L 13.9372822299651 6  L 13.9372822299651 1.5  C 13.9372822299651 1.22916666666669  14.0357972457275 0.994791666666686  14.2328272772523 0.796875  C 14.4298573087772 0.598958333333314  14.6631823461091 0.5  14.9328023892484 0.5  C 15.2024224323876 0.5  15.4357474697196 0.598958333333314  15.6327775012444 0.796875  L 24.0946988551518 9.296875  Z " fill-rule="nonzero" fill="#000000" stroke="none" transform="matrix(1 0 0 1 842 563 )" />
  </g>
</svg>