<?xml version="1.0" encoding="utf-8"?>
<svg version="1.1" xmlns:xlink="http://www.w3.org/1999/xlink" width="35px" height="20px" xmlns="http://www.w3.org/2000/svg">
  <g transform="matrix(1 0 0 1 -1189 -293 )">
    <path d="M 1189 293  L 1224 293  L 1224 313  L 1189 313  L 1189 293  " fill-rule="nonzero" fill="#cccccc" stroke="none" />
    <path d="M 1190 294  L 1223 294  L 1223 312  L 1190 312  L 1190 294  " fill-rule="nonzero" fill="#ffffff" stroke="none" />
    <path d="M 1208.7 299  C 1207.86 299  1207.2 298.34  1207.2 297.5  C 1207.2 296.66  1207.86 296  1208.7 296  C 1209.54 296  1210.2 296.66  1210.2 297.5  C 1210.2 298.34  1209.54 299  1208.7 299  " fill-rule="nonzero" fill="#cccccc" stroke="none" />
    <path d="M 1191 312  L 1191 302.65  L 1199 298.4  L 1210.2 306.171428571429  L 1216.6 300.95  L 1223 306.171428571429  L 1223 312  L 1191 312  " fill-rule="nonzero" fill="#169bd5" stroke="none" />
  </g>
</svg>