<?xml version="1.0" encoding="utf-8"?>
<svg version="1.1" xmlns:xlink="http://www.w3.org/1999/xlink" width="12px" height="12px" viewBox="1697 291  12 12" xmlns="http://www.w3.org/2000/svg">
  <path d="M 1703 291  C 1706.36 291  1709 293.64  1709 297  C 1709 300.36  1706.36 303  1703 303  C 1699.64 303  1697 300.36  1697 297  C 1697 293.64  1699.64 291  1703 291  Z " fill-rule="nonzero" fill="#ffffff" stroke="none" />
  <path d="M 1703 291.5  C 1706.08 291.5  1708.5 293.92  1708.5 297  C 1708.5 300.08  1706.08 302.5  1703 302.5  C 1699.92 302.5  1697.5 300.08  1697.5 297  C 1697.5 293.92  1699.92 291.5  1703 291.5  Z " stroke-width="1" stroke="#797979" fill="none" />
  <path d="M 1703 300  C 1701.32 300  1700 298.68  1700 297  C 1700 295.32  1701.32 294  1703 294  C 1704.68 294  1706 295.32  1706 297  C 1706 298.68  1704.68 300  1703 300  " fill-rule="nonzero" fill="#797979" stroke="none" />
</svg>