<?xml version="1.0" encoding="utf-8"?>
<svg version="1.1" xmlns:xlink="http://www.w3.org/1999/xlink" width="12px" height="12px" viewBox="1274 2525  12 12" xmlns="http://www.w3.org/2000/svg">
  <path d="M 1280 2525  C 1283.36 2525  1286 2527.64  1286 2531  C 1286 2534.36  1283.36 2537  1280 2537  C 1276.64 2537  1274 2534.36  1274 2531  C 1274 2527.64  1276.64 2525  1280 2525  Z " fill-rule="nonzero" fill="#f0f0f0" stroke="none" />
  <path d="M 1280 2525.5  C 1283.08 2525.5  1285.5 2527.92  1285.5 2531  C 1285.5 2534.08  1283.08 2536.5  1280 2536.5  C 1276.92 2536.5  1274.5 2534.08  1274.5 2531  C 1274.5 2527.92  1276.92 2525.5  1280 2525.5  Z " stroke-width="1" stroke="#797979" fill="none" />
  <path d="M 1280 2534  C 1278.32 2534  1277 2532.68  1277 2531  C 1277 2529.32  1278.32 2528  1280 2528  C 1281.68 2528  1283 2529.32  1283 2531  C 1283 2532.68  1281.68 2534  1280 2534  " fill-rule="nonzero" fill="#797979" stroke="none" />
</svg>