<?xml version="1.0" encoding="utf-8"?>
<svg version="1.1" xmlns:xlink="http://www.w3.org/1999/xlink" width="12px" height="12px" viewBox="1205 2525  12 12" xmlns="http://www.w3.org/2000/svg">
  <path d="M 1211 2525  C 1214.36 2525  1217 2527.64  1217 2531  C 1217 2534.36  1214.36 2537  1211 2537  C 1207.64 2537  1205 2534.36  1205 2531  C 1205 2527.64  1207.64 2525  1211 2525  Z " fill-rule="nonzero" fill="#ffffff" stroke="none" />
  <path d="M 1211 2525.5  C 1214.08 2525.5  1216.5 2527.92  1216.5 2531  C 1216.5 2534.08  1214.08 2536.5  1211 2536.5  C 1207.92 2536.5  1205.5 2534.08  1205.5 2531  C 1205.5 2527.92  1207.92 2525.5  1211 2525.5  Z " stroke-width="1" stroke="#797979" fill="none" />
  <path d="M 1211 2534  C 1209.32 2534  1208 2532.68  1208 2531  C 1208 2529.32  1209.32 2528  1211 2528  C 1212.68 2528  1214 2529.32  1214 2531  C 1214 2532.68  1212.68 2534  1211 2534  " fill-rule="nonzero" fill="#797979" stroke="none" />
</svg>