<?xml version="1.0" encoding="utf-8"?>
<svg version="1.1" xmlns:xlink="http://www.w3.org/1999/xlink" width="32px" height="32px" xmlns="http://www.w3.org/2000/svg">
  <g transform="matrix(1 0 0 1 -617 -195 )">
    <path d="M 633 195  C 641.96 195  649 202.04  649 211  C 649 219.96  641.96 227  633 227  C 624.04 227  617 219.96  617 211  C 617 202.04  624.04 195  633 195  Z " fill-rule="nonzero" fill="#ffffff" stroke="none" />
    <path d="M 633 195.5  C 641.68 195.5  648.5 202.32  648.5 211  C 648.5 219.68  641.68 226.5  633 226.5  C 624.32 226.5  617.5 219.68  617.5 211  C 617.5 202.32  624.32 195.5  633 195.5  Z " stroke-width="1" stroke="#1890ff" fill="none" />
  </g>
</svg>