<?xml version="1.0" encoding="utf-8"?>
<svg version="1.1" xmlns:xlink="http://www.w3.org/1999/xlink" width="12px" height="12px" viewBox="628 371  12 12" xmlns="http://www.w3.org/2000/svg">
  <path d="M 634 371  C 637.36 371  640 373.64  640 377  C 640 380.36  637.36 383  634 383  C 630.64 383  628 380.36  628 377  C 628 373.64  630.64 371  634 371  Z " fill-rule="nonzero" fill="#f0f0f0" stroke="none" />
  <path d="M 634 371.5  C 637.08 371.5  639.5 373.92  639.5 377  C 639.5 380.08  637.08 382.5  634 382.5  C 630.92 382.5  628.5 380.08  628.5 377  C 628.5 373.92  630.92 371.5  634 371.5  Z " stroke-width="1" stroke="#797979" fill="none" />
  <path d="M 634 380  C 632.32 380  631 378.68  631 377  C 631 375.32  632.32 374  634 374  C 635.68 374  637 375.32  637 377  C 637 378.68  635.68 380  634 380  " fill-rule="nonzero" fill="#797979" stroke="none" />
</svg>