<?xml version="1.0" encoding="utf-8"?>
<svg version="1.1" xmlns:xlink="http://www.w3.org/1999/xlink" width="12px" height="12px" viewBox="733 417  12 12" xmlns="http://www.w3.org/2000/svg">
  <path d="M 739 417  C 742.36 417  745 419.64  745 423  C 745 426.36  742.36 429  739 429  C 735.64 429  733 426.36  733 423  C 733 419.64  735.64 417  739 417  Z " fill-rule="nonzero" fill="#f0f0f0" stroke="none" />
  <path d="M 739 417.5  C 742.08 417.5  744.5 419.92  744.5 423  C 744.5 426.08  742.08 428.5  739 428.5  C 735.92 428.5  733.5 426.08  733.5 423  C 733.5 419.92  735.92 417.5  739 417.5  Z " stroke-width="1" stroke="#797979" fill="none" />
  <path d="M 739 426  C 737.32 426  736 424.68  736 423  C 736 421.32  737.32 420  739 420  C 740.68 420  742 421.32  742 423  C 742 424.68  740.68 426  739 426  " fill-rule="nonzero" fill="#797979" stroke="none" />
</svg>