<?xml version="1.0" encoding="utf-8"?>
<svg version="1.1" xmlns:xlink="http://www.w3.org/1999/xlink" width="12px" height="12px" viewBox="733 372  12 12" xmlns="http://www.w3.org/2000/svg">
  <path d="M 739 372  C 742.36 372  745 374.64  745 378  C 745 381.36  742.36 384  739 384  C 735.64 384  733 381.36  733 378  C 733 374.64  735.64 372  739 372  Z " fill-rule="nonzero" fill="#ffffff" stroke="none" />
  <path d="M 739 372.5  C 742.08 372.5  744.5 374.92  744.5 378  C 744.5 381.08  742.08 383.5  739 383.5  C 735.92 383.5  733.5 381.08  733.5 378  C 733.5 374.92  735.92 372.5  739 372.5  Z " stroke-width="1" stroke="#797979" fill="none" />
  <path d="M 739 381  C 737.32 381  736 379.68  736 378  C 736 376.32  737.32 375  739 375  C 740.68 375  742 376.32  742 378  C 742 379.68  740.68 381  739 381  " fill-rule="nonzero" fill="#797979" stroke="none" />
</svg>