<?xml version="1.0" encoding="utf-8"?>
<svg version="1.1" xmlns:xlink="http://www.w3.org/1999/xlink" width="12px" height="12px" viewBox="628 393  12 12" xmlns="http://www.w3.org/2000/svg">
  <path d="M 634 393  C 637.36 393  640 395.64  640 399  C 640 402.36  637.36 405  634 405  C 630.64 405  628 402.36  628 399  C 628 395.64  630.64 393  634 393  Z " fill-rule="nonzero" fill="#f0f0f0" stroke="none" />
  <path d="M 634 393.5  C 637.08 393.5  639.5 395.92  639.5 399  C 639.5 402.08  637.08 404.5  634 404.5  C 630.92 404.5  628.5 402.08  628.5 399  C 628.5 395.92  630.92 393.5  634 393.5  Z " stroke-width="1" stroke="#797979" fill="none" />
  <path d="M 634 402  C 632.32 402  631 400.68  631 399  C 631 397.32  632.32 396  634 396  C 635.68 396  637 397.32  637 399  C 637 400.68  635.68 402  634 402  " fill-rule="nonzero" fill="#797979" stroke="none" />
</svg>