<?xml version="1.0" encoding="utf-8"?>
<svg version="1.1" xmlns:xlink="http://www.w3.org/1999/xlink" width="12px" height="12px" viewBox="733 394  12 12" xmlns="http://www.w3.org/2000/svg">
  <path d="M 739 394  C 742.36 394  745 396.64  745 400  C 745 403.36  742.36 406  739 406  C 735.64 406  733 403.36  733 400  C 733 396.64  735.64 394  739 394  Z " fill-rule="nonzero" fill="#ffffff" stroke="none" />
  <path d="M 739 394.5  C 742.08 394.5  744.5 396.92  744.5 400  C 744.5 403.08  742.08 405.5  739 405.5  C 735.92 405.5  733.5 403.08  733.5 400  C 733.5 396.92  735.92 394.5  739 394.5  Z " stroke-width="1" stroke="#797979" fill="none" />
  <path d="M 739 403  C 737.32 403  736 401.68  736 400  C 736 398.32  737.32 397  739 397  C 740.68 397  742 398.32  742 400  C 742 401.68  740.68 403  739 403  " fill-rule="nonzero" fill="#797979" stroke="none" />
</svg>