<?xml version="1.0" encoding="utf-8"?>
<svg version="1.1" xmlns:xlink="http://www.w3.org/1999/xlink" width="12px" height="12px" viewBox="733 434  12 12" xmlns="http://www.w3.org/2000/svg">
  <path d="M 739 434  C 742.36 434  745 436.64  745 440  C 745 443.36  742.36 446  739 446  C 735.64 446  733 443.36  733 440  C 733 436.64  735.64 434  739 434  Z " fill-rule="nonzero" fill="#f0f0f0" stroke="none" />
  <path d="M 739 434.5  C 742.08 434.5  744.5 436.92  744.5 440  C 744.5 443.08  742.08 445.5  739 445.5  C 735.92 445.5  733.5 443.08  733.5 440  C 733.5 436.92  735.92 434.5  739 434.5  Z " stroke-width="1" stroke="#797979" fill="none" />
  <path d="M 739 443  C 737.32 443  736 441.68  736 440  C 736 438.32  737.32 437  739 437  C 740.68 437  742 438.32  742 440  C 742 441.68  740.68 443  739 443  " fill-rule="nonzero" fill="#797979" stroke="none" />
</svg>