<?xml version="1.0" encoding="utf-8"?>
<svg version="1.1" xmlns:xlink="http://www.w3.org/1999/xlink" width="12px" height="12px" viewBox="628 433  12 12" xmlns="http://www.w3.org/2000/svg">
  <path d="M 634 433  C 637.36 433  640 435.64  640 439  C 640 442.36  637.36 445  634 445  C 630.64 445  628 442.36  628 439  C 628 435.64  630.64 433  634 433  Z " fill-rule="nonzero" fill="#f0f0f0" stroke="none" />
  <path d="M 634 433.5  C 637.08 433.5  639.5 435.92  639.5 439  C 639.5 442.08  637.08 444.5  634 444.5  C 630.92 444.5  628.5 442.08  628.5 439  C 628.5 435.92  630.92 433.5  634 433.5  Z " stroke-width="1" stroke="#797979" fill="none" />
  <path d="M 634 442  C 632.32 442  631 440.68  631 439  C 631 437.32  632.32 436  634 436  C 635.68 436  637 437.32  637 439  C 637 440.68  635.68 442  634 442  " fill-rule="nonzero" fill="#797979" stroke="none" />
</svg>