<?xml version="1.0" encoding="utf-8"?>
<svg version="1.1" xmlns:xlink="http://www.w3.org/1999/xlink" width="12px" height="12px" viewBox="628 478  12 12" xmlns="http://www.w3.org/2000/svg">
  <path d="M 634 478  C 637.36 478  640 480.64  640 484  C 640 487.36  637.36 490  634 490  C 630.64 490  628 487.36  628 484  C 628 480.64  630.64 478  634 478  Z " fill-rule="nonzero" fill="#f0f0f0" stroke="none" />
  <path d="M 634 478.5  C 637.08 478.5  639.5 480.92  639.5 484  C 639.5 487.08  637.08 489.5  634 489.5  C 630.92 489.5  628.5 487.08  628.5 484  C 628.5 480.92  630.92 478.5  634 478.5  Z " stroke-width="1" stroke="#797979" fill="none" />
  <path d="M 634 487  C 632.32 487  631 485.68  631 484  C 631 482.32  632.32 481  634 481  C 635.68 481  637 482.32  637 484  C 637 485.68  635.68 487  634 487  " fill-rule="nonzero" fill="#797979" stroke="none" />
</svg>