<?xml version="1.0" encoding="utf-8"?>
<svg version="1.1" xmlns:xlink="http://www.w3.org/1999/xlink" width="12px" height="12px" viewBox="733 456  12 12" xmlns="http://www.w3.org/2000/svg">
  <path d="M 739 456  C 742.36 456  745 458.64  745 462  C 745 465.36  742.36 468  739 468  C 735.64 468  733 465.36  733 462  C 733 458.64  735.64 456  739 456  Z " fill-rule="nonzero" fill="#ffffff" stroke="none" />
  <path d="M 739 456.5  C 742.08 456.5  744.5 458.92  744.5 462  C 744.5 465.08  742.08 467.5  739 467.5  C 735.92 467.5  733.5 465.08  733.5 462  C 733.5 458.92  735.92 456.5  739 456.5  Z " stroke-width="1" stroke="#797979" fill="none" />
  <path d="M 739 465  C 737.32 465  736 463.68  736 462  C 736 460.32  737.32 459  739 459  C 740.68 459  742 460.32  742 462  C 742 463.68  740.68 465  739 465  " fill-rule="nonzero" fill="#797979" stroke="none" />
</svg>