<?xml version="1.0" encoding="utf-8"?>
<svg version="1.1" xmlns:xlink="http://www.w3.org/1999/xlink" width="12px" height="12px" viewBox="733 479  12 12" xmlns="http://www.w3.org/2000/svg">
  <path d="M 739 479  C 742.36 479  745 481.64  745 485  C 745 488.36  742.36 491  739 491  C 735.64 491  733 488.36  733 485  C 733 481.64  735.64 479  739 479  Z " fill-rule="nonzero" fill="#ffffff" stroke="none" />
  <path d="M 739 479.5  C 742.08 479.5  744.5 481.92  744.5 485  C 744.5 488.08  742.08 490.5  739 490.5  C 735.92 490.5  733.5 488.08  733.5 485  C 733.5 481.92  735.92 479.5  739 479.5  Z " stroke-width="1" stroke="#797979" fill="none" />
  <path d="M 739 488  C 737.32 488  736 486.68  736 485  C 736 483.32  737.32 482  739 482  C 740.68 482  742 483.32  742 485  C 742 486.68  740.68 488  739 488  " fill-rule="nonzero" fill="#797979" stroke="none" />
</svg>