<?xml version="1.0" encoding="utf-8"?>
<svg version="1.1" xmlns:xlink="http://www.w3.org/1999/xlink" width="593px" height="110px" xmlns="http://www.w3.org/2000/svg">
  <defs>
    <mask fill="white" id="clip88">
      <path d="M 0 95  L 0 0  L 593 0  L 593 95  L 73.1801098901102 95  L 67.7527071823208 109.660291826038  L 61.7762637362637 95  L 0 95  Z " fill-rule="evenodd" />
    </mask>
  </defs>
  <g transform="matrix(1 0 0 1 -2009 -484 )">
    <path d="M 0 95  L 0 0  L 593 0  L 593 95  L 73.1801098901102 95  L 67.7527071823208 109.660291826038  L 61.7762637362637 95  L 0 95  Z " fill-rule="nonzero" fill="#ffffff" stroke="none" transform="matrix(1 0 0 1 2009 484 )" />
    <path d="M 0 95  L 0 0  L 593 0  L 593 95  L 73.1801098901102 95  L 67.7527071823208 109.660291826038  L 61.7762637362637 95  L 0 95  Z " stroke-width="2" stroke="#797979" fill="none" transform="matrix(1 0 0 1 2009 484 )" mask="url(#clip88)" />
  </g>
</svg>