<?xml version="1.0" encoding="utf-8"?>
<svg version="1.1" xmlns:xlink="http://www.w3.org/1999/xlink" width="32px" height="32px" xmlns="http://www.w3.org/2000/svg">
  <g transform="matrix(1 0 0 1 -627 -272 )">
    <path d="M 643 272  C 651.96 272  659 279.04  659 288  C 659 296.96  651.96 304  643 304  C 634.04 304  627 296.96  627 288  C 627 279.04  634.04 272  643 272  Z " fill-rule="nonzero" fill="#ffffff" stroke="none" />
    <path d="M 643 272.5  C 651.68 272.5  658.5 279.32  658.5 288  C 658.5 296.68  651.68 303.5  643 303.5  C 634.32 303.5  627.5 296.68  627.5 288  C 627.5 279.32  634.32 272.5  643 272.5  Z " stroke-width="1" stroke="#1890ff" fill="none" />
  </g>
</svg>