<?xml version="1.0" encoding="utf-8"?>
<svg version="1.1" xmlns:xlink="http://www.w3.org/1999/xlink" width="12px" height="12px" viewBox="638 448  12 12" xmlns="http://www.w3.org/2000/svg">
  <path d="M 644 448  C 647.36 448  650 450.64  650 454  C 650 457.36  647.36 460  644 460  C 640.64 460  638 457.36  638 454  C 638 450.64  640.64 448  644 448  Z " fill-rule="nonzero" fill="#f0f0f0" stroke="none" />
  <path d="M 644 448.5  C 647.08 448.5  649.5 450.92  649.5 454  C 649.5 457.08  647.08 459.5  644 459.5  C 640.92 459.5  638.5 457.08  638.5 454  C 638.5 450.92  640.92 448.5  644 448.5  Z " stroke-width="1" stroke="#797979" fill="none" />
  <path d="M 644 457  C 642.32 457  641 455.68  641 454  C 641 452.32  642.32 451  644 451  C 645.68 451  647 452.32  647 454  C 647 455.68  645.68 457  644 457  " fill-rule="nonzero" fill="#797979" stroke="none" />
</svg>