<?xml version="1.0" encoding="utf-8"?>
<svg version="1.1" xmlns:xlink="http://www.w3.org/1999/xlink" width="12px" height="12px" viewBox="743 449  12 12" xmlns="http://www.w3.org/2000/svg">
  <path d="M 749 449  C 752.36 449  755 451.64  755 455  C 755 458.36  752.36 461  749 461  C 745.64 461  743 458.36  743 455  C 743 451.64  745.64 449  749 449  Z " fill-rule="nonzero" fill="#f0f0f0" stroke="none" />
  <path d="M 749 449.5  C 752.08 449.5  754.5 451.92  754.5 455  C 754.5 458.08  752.08 460.5  749 460.5  C 745.92 460.5  743.5 458.08  743.5 455  C 743.5 451.92  745.92 449.5  749 449.5  Z " stroke-width="1" stroke="#797979" fill="none" />
  <path d="M 749 458  C 747.32 458  746 456.68  746 455  C 746 453.32  747.32 452  749 452  C 750.68 452  752 453.32  752 455  C 752 456.68  750.68 458  749 458  " fill-rule="nonzero" fill="#797979" stroke="none" />
</svg>