<?xml version="1.0" encoding="utf-8"?>
<svg version="1.1" xmlns:xlink="http://www.w3.org/1999/xlink" width="12px" height="12px" viewBox="638 493  12 12" xmlns="http://www.w3.org/2000/svg">
  <path d="M 644 493  C 647.36 493  650 495.64  650 499  C 650 502.36  647.36 505  644 505  C 640.64 505  638 502.36  638 499  C 638 495.64  640.64 493  644 493  Z " fill-rule="nonzero" fill="#ffffff" stroke="none" />
  <path d="M 644 493.5  C 647.08 493.5  649.5 495.92  649.5 499  C 649.5 502.08  647.08 504.5  644 504.5  C 640.92 504.5  638.5 502.08  638.5 499  C 638.5 495.92  640.92 493.5  644 493.5  Z " stroke-width="1" stroke="#797979" fill="none" />
  <path d="M 644 502  C 642.32 502  641 500.68  641 499  C 641 497.32  642.32 496  644 496  C 645.68 496  647 497.32  647 499  C 647 500.68  645.68 502  644 502  " fill-rule="nonzero" fill="#797979" stroke="none" />
</svg>