<?xml version="1.0" encoding="utf-8"?>
<svg version="1.1" xmlns:xlink="http://www.w3.org/1999/xlink" width="12px" height="12px" viewBox="743 494  12 12" xmlns="http://www.w3.org/2000/svg">
  <path d="M 749 494  C 752.36 494  755 496.64  755 500  C 755 503.36  752.36 506  749 506  C 745.64 506  743 503.36  743 500  C 743 496.64  745.64 494  749 494  Z " fill-rule="nonzero" fill="#ffffff" stroke="none" />
  <path d="M 749 494.5  C 752.08 494.5  754.5 496.92  754.5 500  C 754.5 503.08  752.08 505.5  749 505.5  C 745.92 505.5  743.5 503.08  743.5 500  C 743.5 496.92  745.92 494.5  749 494.5  Z " stroke-width="1" stroke="#797979" fill="none" />
  <path d="M 749 503  C 747.32 503  746 501.68  746 500  C 746 498.32  747.32 497  749 497  C 750.68 497  752 498.32  752 500  C 752 501.68  750.68 503  749 503  " fill-rule="nonzero" fill="#797979" stroke="none" />
</svg>