<?xml version="1.0" encoding="utf-8"?>
<svg version="1.1" xmlns:xlink="http://www.w3.org/1999/xlink" width="32px" height="32px" xmlns="http://www.w3.org/2000/svg">
  <g transform="matrix(1 0 0 1 -617 -262 )">
    <path d="M 633 262  C 641.96 262  649 269.04  649 278  C 649 286.96  641.96 294  633 294  C 624.04 294  617 286.96  617 278  C 617 269.04  624.04 262  633 262  Z " fill-rule="nonzero" fill="#ffffff" stroke="none" />
    <path d="M 633 262.5  C 641.68 262.5  648.5 269.32  648.5 278  C 648.5 286.68  641.68 293.5  633 293.5  C 624.32 293.5  617.5 286.68  617.5 278  C 617.5 269.32  624.32 262.5  633 262.5  Z " stroke-width="1" stroke="#1890ff" fill="none" />
  </g>
</svg>