<?xml version="1.0" encoding="utf-8"?>
<svg version="1.1" xmlns:xlink="http://www.w3.org/1999/xlink" width="12px" height="12px" viewBox="638 470  12 12" xmlns="http://www.w3.org/2000/svg">
  <path d="M 644 470  C 647.36 470  650 472.64  650 476  C 650 479.36  647.36 482  644 482  C 640.64 482  638 479.36  638 476  C 638 472.64  640.64 470  644 470  Z " fill-rule="nonzero" fill="#f0f0f0" stroke="none" />
  <path d="M 644 470.5  C 647.08 470.5  649.5 472.92  649.5 476  C 649.5 479.08  647.08 481.5  644 481.5  C 640.92 481.5  638.5 479.08  638.5 476  C 638.5 472.92  640.92 470.5  644 470.5  Z " stroke-width="1" stroke="#797979" fill="none" />
  <path d="M 644 479  C 642.32 479  641 477.68  641 476  C 641 474.32  642.32 473  644 473  C 645.68 473  647 474.32  647 476  C 647 477.68  645.68 479  644 479  " fill-rule="nonzero" fill="#797979" stroke="none" />
</svg>