<?xml version="1.0" encoding="utf-8"?>
<svg version="1.1" xmlns:xlink="http://www.w3.org/1999/xlink" width="12px" height="12px" viewBox="743 471  12 12" xmlns="http://www.w3.org/2000/svg">
  <path d="M 749 471  C 752.36 471  755 473.64  755 477  C 755 480.36  752.36 483  749 483  C 745.64 483  743 480.36  743 477  C 743 473.64  745.64 471  749 471  Z " fill-rule="nonzero" fill="#f0f0f0" stroke="none" />
  <path d="M 749 471.5  C 752.08 471.5  754.5 473.92  754.5 477  C 754.5 480.08  752.08 482.5  749 482.5  C 745.92 482.5  743.5 480.08  743.5 477  C 743.5 473.92  745.92 471.5  749 471.5  Z " stroke-width="1" stroke="#797979" fill="none" />
  <path d="M 749 480  C 747.32 480  746 478.68  746 477  C 746 475.32  747.32 474  749 474  C 750.68 474  752 475.32  752 477  C 752 478.68  750.68 480  749 480  " fill-rule="nonzero" fill="#797979" stroke="none" />
</svg>