<?xml version="1.0" encoding="utf-8"?>
<svg version="1.1" xmlns:xlink="http://www.w3.org/1999/xlink" width="12px" height="12px" viewBox="1071 859  12 12" xmlns="http://www.w3.org/2000/svg">
  <path d="M 1077 859  C 1080.36 859  1083 861.64  1083 865  C 1083 868.36  1080.36 871  1077 871  C 1073.64 871  1071 868.36  1071 865  C 1071 861.64  1073.64 859  1077 859  Z " fill-rule="nonzero" fill="#ffffff" stroke="none" />
  <path d="M 1077 859.5  C 1080.08 859.5  1082.5 861.92  1082.5 865  C 1082.5 868.08  1080.08 870.5  1077 870.5  C 1073.92 870.5  1071.5 868.08  1071.5 865  C 1071.5 861.92  1073.92 859.5  1077 859.5  Z " stroke-width="1" stroke="#797979" fill="none" />
  <path d="M 1077 868  C 1075.32 868  1074 866.68  1074 865  C 1074 863.32  1075.32 862  1077 862  C 1078.68 862  1080 863.32  1080 865  C 1080 866.68  1078.68 868  1077 868  " fill-rule="nonzero" fill="#797979" stroke="none" />
</svg>