<?xml version="1.0" encoding="utf-8"?>
<svg version="1.1" xmlns:xlink="http://www.w3.org/1999/xlink" width="12px" height="12px" viewBox="1487 862  12 12" xmlns="http://www.w3.org/2000/svg">
  <path d="M 1493 862  C 1496.36 862  1499 864.64  1499 868  C 1499 871.36  1496.36 874  1493 874  C 1489.64 874  1487 871.36  1487 868  C 1487 864.64  1489.64 862  1493 862  Z " fill-rule="nonzero" fill="#f0f0f0" stroke="none" />
  <path d="M 1493 862.5  C 1496.08 862.5  1498.5 864.92  1498.5 868  C 1498.5 871.08  1496.08 873.5  1493 873.5  C 1489.92 873.5  1487.5 871.08  1487.5 868  C 1487.5 864.92  1489.92 862.5  1493 862.5  Z " stroke-width="1" stroke="#797979" fill="none" />
  <path d="M 1493 871  C 1491.32 871  1490 869.68  1490 868  C 1490 866.32  1491.32 865  1493 865  C 1494.68 865  1496 866.32  1496 868  C 1496 869.68  1494.68 871  1493 871  " fill-rule="nonzero" fill="#797979" stroke="none" />
</svg>