<?xml version="1.0" encoding="utf-8"?>
<svg version="1.1" xmlns:xlink="http://www.w3.org/1999/xlink" width="12px" height="12px" viewBox="893 859  12 12" xmlns="http://www.w3.org/2000/svg">
  <path d="M 899 859  C 902.36 859  905 861.64  905 865  C 905 868.36  902.36 871  899 871  C 895.64 871  893 868.36  893 865  C 893 861.64  895.64 859  899 859  Z " fill-rule="nonzero" fill="#ffffff" stroke="none" />
  <path d="M 899 859.5  C 902.08 859.5  904.5 861.92  904.5 865  C 904.5 868.08  902.08 870.5  899 870.5  C 895.92 870.5  893.5 868.08  893.5 865  C 893.5 861.92  895.92 859.5  899 859.5  Z " stroke-width="1" stroke="#797979" fill="none" />
  <path d="M 899 868  C 897.32 868  896 866.68  896 865  C 896 863.32  897.32 862  899 862  C 900.68 862  902 863.32  902 865  C 902 866.68  900.68 868  899 868  " fill-rule="nonzero" fill="#797979" stroke="none" />
</svg>