<?xml version="1.0" encoding="utf-8"?>
<svg version="1.1" xmlns:xlink="http://www.w3.org/1999/xlink" width="17px" height="10px" xmlns="http://www.w3.org/2000/svg">
  <g transform="matrix(1 0 0 1 -1002 -330 )">
    <path d="M 0.401650705645125 6.94140625  C 0.133883568548299 6.32421875  0 5.67708333333331  0 5  C 0 4.32291666666669  0.133883568548299 3.67578125  0.401650705645125 3.05859375  C 0.66941784274195 2.44140625  1.02775327620975 1.91015625  1.4766570060483 1.46484375  C 1.92556073588707 1.01953125  2.46109501008073 0.6640625  3.08325982862902 0.3984375  C 3.70542464717755 0.1328125  4.35777889784958 0  5.04032258064512 0  L 11.0887096774195 0  C 11.771253360215 0  12.4236076108871 0.1328125  13.0457724294356 0.3984375  C 13.6679372479839 0.6640625  14.2034715221776 1.01953125  14.6523752520163 1.46484375  C 15.1012789818549 1.91015625  15.4596144153227 2.44140625  15.7273815524195 3.05859375  C 15.9951486895163 3.67578125  16.1290322580646 4.32291666666669  16.1290322580646 5  C 16.1290322580646 5.67708333333331  15.9951486895163 6.32421875  15.7273815524195 6.94140625  C 15.4596144153227 7.55859375  15.1012789818549 8.08984375  14.6523752520163 8.53515625  C 14.2034715221776 8.98046875  13.6679372479839 9.3359375  13.0457724294356 9.6015625  C 12.4236076108871 9.8671875  11.771253360215 10  11.0887096774195 10  L 5.04032258064512 10  C 4.35777889784958 10  3.70542464717755 9.8671875  3.08325982862902 9.6015625  C 2.46109501008073 9.3359375  1.92556073588707 8.98046875  1.4766570060483 8.53515625  C 1.02775327620975 8.08984375  0.66941784274195 7.55859375  0.401650705645125 6.94140625  Z M 9.5254221270161 8.68359375  C 10.0215788810485 8.89453125  10.5426747311828 9  11.0887096774195 9  C 11.6347446236559 9  12.1558404737905 8.89453125  12.6519972278227 8.68359375  C 13.1481539818549 8.47265625  13.5773689516129 8.1875  13.9396421370968 7.828125  C 14.3019153225807 7.46875  14.5893712197583 7.04296875  14.802009828629 6.55078125  C 15.0146484375 6.05859375  15.1209677419356 5.54166666666669  15.1209677419356 5  C 15.1209677419356 4.45833333333331  15.0146484375 3.94140625  14.802009828629 3.44921875  C 14.5893712197583 2.95703125  14.3019153225807 2.53125  13.9396421370968 2.171875  C 13.5773689516129 1.8125  13.1481539818549 1.52734375  12.6519972278227 1.31640625  C 12.1558404737905 1.10546875  11.6347446236559 1  11.0887096774195 1  C 10.5426747311828 1  10.0215788810485 1.10546875  9.5254221270161 1.31640625  C 9.0292653729839 1.52734375  8.60005040322585 1.8125  8.23777721774195 2.171875  C 7.87550403225805 2.53125  7.58804813508073 2.95703125  7.37540952620975 3.44921875  C 7.16277091733878 3.94140625  7.05645161290317 4.45833333333331  7.05645161290317 5  C 7.05645161290317 5.54166666666669  7.16277091733878 6.05859375  7.37540952620975 6.55078125  C 7.58804813508073 7.04296875  7.87550403225805 7.46875  8.23777721774195 7.828125  C 8.60005040322585 8.1875  9.0292653729839 8.47265625  9.5254221270161 8.68359375  Z " fill-rule="nonzero" fill="#4a5df0" stroke="none" transform="matrix(1 0 0 1 1002 330 )" />
  </g>
</svg>