<?xml version="1.0" encoding="utf-8"?>
<svg version="1.1" xmlns:xlink="http://www.w3.org/1999/xlink" width="15px" height="15px" xmlns="http://www.w3.org/2000/svg">
  <g transform="matrix(1 0 0 1 -426 -528 )">
    <path d="M 433.5 528  C 437.7 528  441 531.3  441 535.5  C 441 539.7  437.7 543  433.5 543  C 429.3 543  426 539.7  426 535.5  C 426 531.3  429.3 528  433.5 528  Z " fill-rule="nonzero" fill="#ffffff" stroke="none" />
    <path d="M 433.5 528.5  C 437.42 528.5  440.5 531.58  440.5 535.5  C 440.5 539.42  437.42 542.5  433.5 542.5  C 429.58 542.5  426.5 539.42  426.5 535.5  C 426.5 531.58  429.58 528.5  433.5 528.5  Z " stroke-width="1" stroke="#666666" fill="none" />
  </g>
</svg>