<?xml version="1.0" encoding="utf-8"?>
<svg version="1.1" xmlns:xlink="http://www.w3.org/1999/xlink" width="11px" height="11px" xmlns="http://www.w3.org/2000/svg">
  <g transform="matrix(1 0 0 1 -1073 -329 )">
    <path d="M 3.61531250000007 4.189453125  C 3.65843749999999 4.232421875  3.68000000000006 4.28732638888891  3.68000000000006 4.35416666666669  L 3.68000000000006 8.47916666666669  C 3.68000000000006 8.54600694444446  3.65843749999999 8.60091145833331  3.61531250000007 8.64388020833331  C 3.57218749999993 8.68684895833331  3.5170833333334 8.70833333333331  3.45000000000005 8.70833333333331  L 2.99000000000001 8.70833333333331  C 2.92291666666665 8.70833333333331  2.8678124999999 8.68684895833331  2.82468749999998 8.64388020833331  C 2.78156250000006 8.60091145833331  2.75999999999999 8.54600694444446  2.75999999999999 8.47916666666669  L 2.75999999999999 4.35416666666669  C 2.75999999999999 4.28732638888891  2.78156250000006 4.232421875  2.82468749999998 4.189453125  C 2.8678124999999 4.146484375  2.92291666666665 4.125  2.99000000000001 4.125  L 3.45000000000005 4.125  C 3.5170833333334 4.125  3.57218749999993 4.146484375  3.61531250000007 4.189453125  Z M 5.45531249999999 4.189453125  C 5.49843749999991 4.232421875  5.51999999999998 4.28732638888891  5.51999999999998 4.35416666666669  L 5.51999999999998 8.47916666666669  C 5.51999999999998 8.54600694444446  5.49843749999991 8.60091145833331  5.45531249999999 8.64388020833331  C 5.41218749999985 8.68684895833331  5.35708333333332 8.70833333333331  5.28999999999996 8.70833333333331  L 4.82999999999993 8.70833333333331  C 4.76291666666657 8.70833333333331  4.70781250000005 8.68684895833331  4.6646874999999 8.64388020833331  C 4.62156249999998 8.60091145833331  4.59999999999991 8.54600694444446  4.59999999999991 8.47916666666669  L 4.59999999999991 4.35416666666669  C 4.59999999999991 4.28732638888891  4.62156249999998 4.232421875  4.6646874999999 4.189453125  C 4.70781250000005 4.146484375  4.76291666666657 4.125  4.82999999999993 4.125  L 5.28999999999996 4.125  C 5.35708333333332 4.125  5.41218749999985 4.146484375  5.45531249999999 4.189453125  Z M 7.29531249999991 4.189453125  C 7.33843749999983 4.232421875  7.3599999999999 4.28732638888891  7.3599999999999 4.35416666666669  L 7.3599999999999 8.47916666666669  C 7.3599999999999 8.54600694444446  7.33843749999983 8.60091145833331  7.29531249999991 8.64388020833331  C 7.25218749999999 8.68684895833331  7.19708333333324 8.70833333333331  7.12999999999988 8.70833333333331  L 6.66999999999985 8.70833333333331  C 6.60291666666649 8.70833333333331  6.54781249999996 8.68684895833331  6.50468749999982 8.64388020833331  C 6.4615624999999 8.60091145833331  6.43999999999983 8.54600694444446  6.43999999999983 8.47916666666669  L 6.43999999999983 4.35416666666669  C 6.43999999999983 4.28732638888891  6.4615624999999 4.232421875  6.50468749999982 4.189453125  C 6.54781249999996 4.146484375  6.60291666666649 4.125  6.66999999999985 4.125  L 7.12999999999988 4.125  C 7.19708333333324 4.125  7.25218749999999 4.146484375  7.29531249999991 4.189453125  Z M 8.22968749999995 9.8291015625  C 8.26322916666663 9.74077690972223  8.27999999999997 9.64409722222223  8.27999999999997 9.5390625  L 8.27999999999997 2.75  L 1.83999999999992 2.75  L 1.83999999999992 9.5390625  C 1.83999999999992 9.64409722222223  1.85677083333326 9.74077690972223  1.89031249999994 9.8291015625  C 1.92385416666662 9.91742621527777  1.95859375000009 9.98187934027777  1.99453124999991 10.0224609375  C 2.03046874999995 10.0630425347222  2.05562499999996 10.0833333333333  2.06999999999994 10.0833333333333  L 8.04999999999995 10.0833333333333  C 8.06437499999993 10.0833333333333  8.08953124999994 10.0630425347222  8.12546874999998 10.0224609375  C 8.1614062499998 9.98187934027777  8.19614583333328 9.91742621527777  8.22968749999995 9.8291015625  Z M 3.80218749999995 0.995442708333315  L 3.45000000000005 1.83333333333331  L 6.66999999999985 1.83333333333331  L 6.32499999999982 0.995442708333315  C 6.29145833333337 0.952473958333315  6.25072916666659 0.926215277777771  6.20281249999994 0.916666666666686  L 3.92437500000006 0.916666666666686  C 3.8764583333334 0.926215277777771  3.83572916666662 0.952473958333315  3.80218749999995 0.995442708333315  Z M 10.0553124999999 1.89778645833331  C 10.0984374999998 1.94075520833331  10.1199999999999 1.99565972222223  10.1199999999999 2.0625  L 10.1199999999999 2.52083333333331  C 10.1199999999999 2.58767361111109  10.0984374999998 2.642578125  10.0553124999999 2.685546875  C 10.0121875 2.728515625  9.95708333333323 2.75  9.88999999999987 2.75  L 9.19999999999982 2.75  L 9.19999999999982 9.5390625  C 9.19999999999982 9.93532986111109  9.08739583333318 10.2778862847222  8.86218749999989 10.5667317708333  C 8.63697916666661 10.8555772569445  8.36624999999981 11  8.04999999999995 11  L 2.06999999999994 11  C 1.75375000000008 11  1.48302083333328 10.8603515625  1.2578125 10.5810546875  C 1.03260416666672 10.3017578125  0.920000000000073 9.96397569444446  0.920000000000073 9.56770833333331  L 0.920000000000073 2.75  L 0.230000000000018 2.75  C 0.162916666666661 2.75  0.107812499999909 2.728515625  0.0646874999999909 2.685546875  C 0.0215625000000728 2.642578125  0 2.58767361111109  0 2.52083333333331  L 0 2.0625  C 0 1.99565972222223  0.0215625000000728 1.94075520833331  0.0646874999999909 1.89778645833331  C 0.107812499999909 1.85481770833331  0.162916666666661 1.83333333333331  0.230000000000018 1.83333333333331  L 2.45093750000001 1.83333333333331  L 2.95406249999996 0.637369791666686  C 3.02593750000005 0.460720486111086  3.15531250000004 0.310329861111086  3.34218749999991 0.186197916666686  C 3.52906250000001 0.0620659722222285  3.71833333333325 0  3.90999999999985 0  L 6.21000000000004 0  C 6.40166666666664 0  6.59093749999988 0.0620659722222285  6.77781249999998 0.186197916666686  C 6.96468749999985 0.310329861111086  7.09406249999984 0.460720486111086  7.16593749999993 0.637369791666686  L 7.66906249999988 1.83333333333331  L 9.88999999999987 1.83333333333331  C 9.95708333333323 1.83333333333331  10.0121875 1.85481770833331  10.0553124999999 1.89778645833331  Z " fill-rule="nonzero" fill="#000000" stroke="none" transform="matrix(1 0 0 1 1073 329 )" />
  </g>
</svg>