<?xml version="1.0" encoding="utf-8"?>
<svg version="1.1" xmlns:xlink="http://www.w3.org/1999/xlink" width="11px" height="11px" xmlns="http://www.w3.org/2000/svg">
  <g transform="matrix(1 0 0 1 -1055 -329 )">
    <path d="M 10.1559709821429 10.1559709821428  C 10.1948474702381 10.1170944940476  10.2142857142858 10.071056547619  10.2142857142858 10.0178571428572  L 10.2142857142858 3.33928571428572  C 10.2142857142858 3.2860863095238  10.1948474702381 3.24004836309524  10.1559709821429 3.201171875  C 10.1170944940477 3.16229538690476  10.071056547619 3.14285714285717  10.0178571428571 3.14285714285717  L 3.33928571428578 3.14285714285717  C 3.28608630952385 3.14285714285717  3.24004836309518 3.16229538690476  3.201171875 3.201171875  C 3.16229538690482 3.24004836309524  3.14285714285711 3.2860863095238  3.14285714285711 3.33928571428572  L 3.14285714285711 10.0178571428572  C 3.14285714285711 10.071056547619  3.16229538690482 10.1170944940476  3.201171875 10.1559709821428  C 3.24004836309518 10.1948474702381  3.28608630952385 10.2142857142857  3.33928571428578 10.2142857142857  L 10.0178571428571 10.2142857142857  C 10.071056547619 10.2142857142857  10.1170944940477 10.1948474702381  10.1559709821429 10.1559709821428  Z M 10.7114955357142 2.64564732142856  C 10.9038318452381 2.83798363095241  11 3.06919642857144  11 3.33928571428572  L 11 10.0178571428572  C 11 10.2879464285714  10.9038318452381 10.5191592261905  10.7114955357142 10.7114955357143  C 10.5191592261904 10.9038318452381  10.2879464285713 11  10.0178571428571 11  L 3.33928571428578 11  C 3.06919642857133 11  2.83798363095229 10.9038318452381  2.64564732142867 10.7114955357143  C 2.45331101190482 10.5191592261905  2.35714285714289 10.2879464285714  2.35714285714289 10.0178571428572  L 2.35714285714289 3.33928571428572  C 2.35714285714289 3.06919642857144  2.45331101190482 2.83798363095241  2.64564732142867 2.64564732142856  C 2.83798363095229 2.45331101190476  3.06919642857133 2.35714285714283  3.33928571428578 2.35714285714283  L 10.0178571428571 2.35714285714283  C 10.2879464285713 2.35714285714283  10.5191592261904 2.45331101190476  10.7114955357142 2.64564732142856  Z M 8.35435267857133 0.288504464285722  C 8.54668898809518 0.480840773809518  8.64285714285711 0.712053571428555  8.64285714285711 0.982142857142833  L 8.64285714285711 1.96428571428572  L 7.85714285714289 1.96428571428572  L 7.85714285714289 0.982142857142833  C 7.85714285714289 0.928943452380963  7.83770461309518 0.882905505952408  7.798828125 0.844029017857167  C 7.75995163690482 0.805152529761926  7.71391369047615 0.785714285714278  7.66071428571422 0.785714285714278  L 0.98214285714289 0.785714285714278  C 0.928943452380963 0.785714285714278  0.882905505952294 0.805152529761926  0.84402901785711 0.844029017857167  C 0.805152529761926 0.882905505952408  0.785714285714221 0.928943452380963  0.785714285714221 0.982142857142833  L 0.785714285714221 7.66071428571428  C 0.785714285714221 7.7139136904762  0.805152529761926 7.75995163690476  0.84402901785711 7.798828125  C 0.882905505952294 7.83770461309524  0.928943452380963 7.85714285714283  0.98214285714289 7.85714285714283  L 1.96428571428578 7.85714285714283  L 1.96428571428578 8.64285714285717  L 0.98214285714289 8.64285714285717  C 0.712053571428669 8.64285714285717  0.480840773809632 8.54668898809524  0.288504464285779 8.35435267857144  C 0.0961681547619264 8.16201636904759  0 7.93080357142856  0 7.66071428571428  L 0 0.982142857142833  C 0 0.712053571428555  0.0961681547619264 0.480840773809518  0.288504464285779 0.288504464285722  C 0.480840773809632 0.0961681547619264  0.712053571428669 0  0.98214285714289 0  L 7.66071428571422 0  C 7.93080357142867 0  8.16201636904771 0.0961681547619264  8.35435267857133 0.288504464285722  Z " fill-rule="nonzero" fill="#000000" stroke="none" transform="matrix(1 0 0 1 1055 329 )" />
  </g>
</svg>