<?xml version="1.0" encoding="utf-8"?>
<svg version="1.1" xmlns:xlink="http://www.w3.org/1999/xlink" width="15px" height="15px" xmlns="http://www.w3.org/2000/svg">
  <g transform="matrix(1 0 0 1 -426 -212 )">
    <path d="M 433.5 212  C 437.7 212  441 215.3  441 219.5  C 441 223.7  437.7 227  433.5 227  C 429.3 227  426 223.7  426 219.5  C 426 215.3  429.3 212  433.5 212  Z " fill-rule="nonzero" fill="#ffffff" stroke="none" />
    <path d="M 433.5 212.5  C 437.42 212.5  440.5 215.58  440.5 219.5  C 440.5 223.42  437.42 226.5  433.5 226.5  C 429.58 226.5  426.5 223.42  426.5 219.5  C 426.5 215.58  429.58 212.5  433.5 212.5  Z " stroke-width="1" stroke="#5566f3" fill="none" />
  </g>
</svg>