<?xml version="1.0" encoding="utf-8"?>
<svg version="1.1" xmlns:xlink="http://www.w3.org/1999/xlink" width="21px" height="20px" xmlns="http://www.w3.org/2000/svg">
  <g transform="matrix(1 0 0 1 -420 -1336 )">
    <path d="M 20.1322115384615 7.17076244486452  C 20.599626068376 7.24637681159425  20.8333333333333 7.43961352657016  20.8333333333333 7.75047258979203  C 20.8333333333333 7.93530770846451  20.7248263888889 8.13694601974385  20.5078125 8.35538752362959  L 15.9630408653846 12.8166351606806  L 17.0397636217949 19.1178323881538  C 17.048110309829 19.1766435622769  17.0522836538461 19.2606595253098  17.0522836538461 19.3698802772526  C 17.0522836538461 19.5463137996219  17.0084635416666 19.6954421340054  16.9208233173077 19.8172652804033  C 16.8331830929487 19.9390884268012  16.7058961004273 20  16.5389623397436 20  C 16.380375267094 20  16.2134415064102 19.9495904221801  16.0381610576923 19.8487712665406  L 10.4166666666666 16.8746061751733  L 4.79517227564099 19.8487712665406  C 4.61154513888886 19.9495904221801  4.44461137820514 20  4.29437099358972 20  C 4.11909054487177 20  3.98763020833331 19.9390884268012  3.89998998397437 19.8172652804033  C 3.81234975961536 19.6954421340054  3.76852964743591 19.5463137996219  3.76852964743591 19.3698802772526  C 3.76852964743591 19.3194706994329  3.77687633547009 19.2354547364  3.79356971153845 19.1178323881538  L 4.87029246794873 12.8166351606806  L 0.313000801282044 8.35538752362959  C 0.104333600427367 8.12854442344042  0 7.9269061121613  0 7.75047258979203  C 0 7.43961352657016  0.233707264957275 7.24637681159425  0.701121794871767 7.17076244486452  L 6.98617788461536 6.25078764965338  L 9.80318509615381 0.516698172652696  C 9.96177216880341 0.172232724217565  10.166266025641 0  10.4166666666666 0  C 10.6670673076923 0  10.8715611645299 0.172232724217565  11.0301482371795 0.516698172652696  L 13.847155448718 6.25078764965338  L 20.1322115384615 7.17076244486452  Z " fill-rule="nonzero" fill="#e4e4e4" stroke="none" transform="matrix(1 0 0 1 420 1336 )" />
  </g>
</svg>