<?xml version="1.0" encoding="utf-8"?>
<svg version="1.1" xmlns:xlink="http://www.w3.org/1999/xlink" width="40px" height="40px" xmlns="http://www.w3.org/2000/svg">
  <g transform="matrix(1 0 0 1 -632 -160 )">
    <path d="M 652 160  C 663.2 160  672 168.8  672 180  C 672 191.2  663.2 200  652 200  C 640.8 200  632 191.2  632 180  C 632 168.8  640.8 160  652 160  Z " fill-rule="nonzero" fill="#ffffff" stroke="none" />
    <path d="M 652 160.5  C 662.92 160.5  671.5 169.08  671.5 180  C 671.5 190.92  662.92 199.5  652 199.5  C 641.08 199.5  632.5 190.92  632.5 180  C 632.5 169.08  641.08 160.5  652 160.5  Z " stroke-width="1" stroke="#797979" fill="none" />
  </g>
</svg>