<?xml version="1.0" encoding="utf-8"?>
<svg version="1.1" xmlns:xlink="http://www.w3.org/1999/xlink" width="12px" height="12px" viewBox="696 544  12 12" xmlns="http://www.w3.org/2000/svg">
  <path d="M 702 544  C 705.36 544  708 546.64  708 550  C 708 553.36  705.36 556  702 556  C 698.64 556  696 553.36  696 550  C 696 546.64  698.64 544  702 544  Z " fill-rule="nonzero" fill="#ffffff" stroke="none" />
  <path d="M 702 544.5  C 705.08 544.5  707.5 546.92  707.5 550  C 707.5 553.08  705.08 555.5  702 555.5  C 698.92 555.5  696.5 553.08  696.5 550  C 696.5 546.92  698.92 544.5  702 544.5  Z " stroke-width="1" stroke="#797979" fill="none" />
  <path d="M 702 553  C 700.32 553  699 551.68  699 550  C 699 548.32  700.32 547  702 547  C 703.68 547  705 548.32  705 550  C 705 551.68  703.68 553  702 553  " fill-rule="nonzero" fill="#797979" stroke="none" />
</svg>