<?xml version="1.0" encoding="utf-8"?>
<svg version="1.1" xmlns:xlink="http://www.w3.org/1999/xlink" width="12px" height="12px" xmlns="http://www.w3.org/2000/svg">
  <g transform="matrix(1 0 0 1 -371 -373 )">
    <path d="M 8.57142857142856 2.57142857142861  L 11.3571428571428 2.57142857142861  C 11.5357142857142 2.57142857142861  11.6875000000001 2.63392857142856  11.8125 2.75892857142861  C 11.9374999999999 2.88392857142856  12 3.03571428571433  12 3.21428571428572  L 12 11.3571428571429  C 12 11.5357142857143  11.9374999999999 11.6875  11.8125 11.8125  C 11.6875000000001 11.9375  11.5357142857142 12  11.3571428571428 12  L 4.92857142857144 12  C 4.75000000000006 12  4.59821428571422 11.9375  4.47321428571428 11.8125  C 4.34821428571433 11.6875  4.28571428571428 11.5357142857143  4.28571428571428 11.3571428571429  L 4.28571428571428 9.42857142857139  L 0.642857142857224 9.42857142857139  C 0.464285714285779 9.42857142857139  0.312499999999943 9.36607142857144  0.1875 9.24107142857139  C 0.0625000000000568 9.11607142857144  0 8.96428571428567  0 8.78571428571428  L 0 4.28571428571428  C 0 4.10714285714283  0.0446428571428896 3.91071428571428  0.133928571428555 3.69642857142861  C 0.223214285714334 3.48214285714289  0.33035714285711 3.3125  0.455357142857224 3.1875  L 3.1875 0.45535714285711  C 3.31249999999994 0.33035714285711  3.48214285714278 0.223214285714334  3.69642857142856 0.133928571428612  C 3.91071428571428 0.0446428571428896  4.10714285714283 0  4.28571428571428 0  L 7.07142857142856 0  C 7.24999999999994 0  7.40178571428578 0.0625  7.52678571428572 0.1875  C 7.65178571428567 0.3125  7.71428571428572 0.464285714285722  7.71428571428572 0.64285714285711  L 7.71428571428572 2.83928571428572  C 8.01785714285711 2.66071428571433  8.30357142857144 2.57142857142861  8.57142857142856 2.57142857142861  Z M 7.71428571428572 6  L 7.71428571428572 3.99776785714289  L 5.71205357142856 6  L 7.71428571428572 6  Z M 3.42857142857144 3.42857142857139  L 3.42857142857144 1.42633928571428  L 1.42633928571428 3.42857142857139  L 3.42857142857144 3.42857142857139  Z M 4.41964285714278 6.26785714285711  C 4.50892857142856 6.05357142857139  4.61607142857139 5.88392857142856  4.74107142857144 5.75892857142861  L 6.85714285714278 3.64285714285711  L 6.85714285714278 0.85714285714289  L 4.28571428571428 0.85714285714289  L 4.28571428571428 3.64285714285711  C 4.28571428571428 3.82142857142856  4.22321428571422 3.97321428571433  4.09821428571428 4.09821428571428  C 3.97321428571433 4.22321428571428  3.82142857142861 4.28571428571428  3.64285714285722 4.28571428571428  L 0.857142857142776 4.28571428571428  L 0.857142857142776 8.57142857142861  L 4.28571428571428 8.57142857142861  L 4.28571428571428 6.85714285714289  C 4.28571428571428 6.67857142857144  4.33035714285717 6.48214285714289  4.41964285714278 6.26785714285711  Z M 5.14285714285722 11.1428571428571  L 11.1428571428572 11.1428571428571  L 11.1428571428572 3.42857142857139  L 8.57142857142856 3.42857142857139  L 8.57142857142856 6.21428571428572  C 8.57142857142856 6.39285714285717  8.50892857142861 6.54464285714283  8.38392857142856 6.66964285714289  C 8.25892857142856 6.79464285714289  8.10714285714289 6.85714285714289  7.92857142857144 6.85714285714289  L 5.14285714285722 6.85714285714289  L 5.14285714285722 11.1428571428571  Z " fill-rule="nonzero" fill="#000000" stroke="none" transform="matrix(1 0 0 1 371 373 )" />
  </g>
</svg>