<?xml version="1.0" encoding="utf-8"?>
<svg version="1.1" xmlns:xlink="http://www.w3.org/1999/xlink" width="12px" height="12px" viewBox="2721 450  12 12" xmlns="http://www.w3.org/2000/svg">
  <path d="M 2727 450  C 2730.36 450  2733 452.64  2733 456  C 2733 459.36  2730.36 462  2727 462  C 2723.64 462  2721 459.36  2721 456  C 2721 452.64  2723.64 450  2727 450  Z " fill-rule="nonzero" fill="#f0f0f0" stroke="none" />
  <path d="M 2727 450.5  C 2730.08 450.5  2732.5 452.92  2732.5 456  C 2732.5 459.08  2730.08 461.5  2727 461.5  C 2723.92 461.5  2721.5 459.08  2721.5 456  C 2721.5 452.92  2723.92 450.5  2727 450.5  Z " stroke-width="1" stroke="#797979" fill="none" />
  <path d="M 2727 459  C 2725.32 459  2724 457.68  2724 456  C 2724 454.32  2725.32 453  2727 453  C 2728.68 453  2730 454.32  2730 456  C 2730 457.68  2728.68 459  2727 459  " fill-rule="nonzero" fill="#797979" stroke="none" />
</svg>