<?xml version="1.0" encoding="utf-8"?>
<svg version="1.1" xmlns:xlink="http://www.w3.org/1999/xlink" width="12px" height="12px" viewBox="2621 450  12 12" xmlns="http://www.w3.org/2000/svg">
  <path d="M 2627 450  C 2630.36 450  2633 452.64  2633 456  C 2633 459.36  2630.36 462  2627 462  C 2623.64 462  2621 459.36  2621 456  C 2621 452.64  2623.64 450  2627 450  Z " fill-rule="nonzero" fill="#f0f0f0" stroke="none" />
  <path d="M 2627 450.5  C 2630.08 450.5  2632.5 452.92  2632.5 456  C 2632.5 459.08  2630.08 461.5  2627 461.5  C 2623.92 461.5  2621.5 459.08  2621.5 456  C 2621.5 452.92  2623.92 450.5  2627 450.5  Z " stroke-width="1" stroke="#797979" fill="none" />
  <path d="M 2627 459  C 2625.32 459  2624 457.68  2624 456  C 2624 454.32  2625.32 453  2627 453  C 2628.68 453  2630 454.32  2630 456  C 2630 457.68  2628.68 459  2627 459  " fill-rule="nonzero" fill="#797979" stroke="none" />
</svg>