<?xml version="1.0" encoding="utf-8"?>
<svg version="1.1" xmlns:xlink="http://www.w3.org/1999/xlink" width="12px" height="12px" viewBox="2621 549  12 12" xmlns="http://www.w3.org/2000/svg">
  <path d="M 2627 549  C 2630.36 549  2633 551.64  2633 555  C 2633 558.36  2630.36 561  2627 561  C 2623.64 561  2621 558.36  2621 555  C 2621 551.64  2623.64 549  2627 549  Z " fill-rule="nonzero" fill="#f0f0f0" stroke="none" />
  <path d="M 2627 549.5  C 2630.08 549.5  2632.5 551.92  2632.5 555  C 2632.5 558.08  2630.08 560.5  2627 560.5  C 2623.92 560.5  2621.5 558.08  2621.5 555  C 2621.5 551.92  2623.92 549.5  2627 549.5  Z " stroke-width="1" stroke="#797979" fill="none" />
  <path d="M 2627 558  C 2625.32 558  2624 556.68  2624 555  C 2624 553.32  2625.32 552  2627 552  C 2628.68 552  2630 553.32  2630 555  C 2630 556.68  2628.68 558  2627 558  " fill-rule="nonzero" fill="#797979" stroke="none" />
</svg>