<?xml version="1.0" encoding="utf-8"?>
<svg version="1.1" xmlns:xlink="http://www.w3.org/1999/xlink" width="12px" height="12px" viewBox="2621 584  12 12" xmlns="http://www.w3.org/2000/svg">
  <path d="M 2627 584  C 2630.36 584  2633 586.64  2633 590  C 2633 593.36  2630.36 596  2627 596  C 2623.64 596  2621 593.36  2621 590  C 2621 586.64  2623.64 584  2627 584  Z " fill-rule="nonzero" fill="#ffffff" stroke="none" />
  <path d="M 2627 584.5  C 2630.08 584.5  2632.5 586.92  2632.5 590  C 2632.5 593.08  2630.08 595.5  2627 595.5  C 2623.92 595.5  2621.5 593.08  2621.5 590  C 2621.5 586.92  2623.92 584.5  2627 584.5  Z " stroke-width="1" stroke="#797979" fill="none" />
  <path d="M 2627 593  C 2625.32 593  2624 591.68  2624 590  C 2624 588.32  2625.32 587  2627 587  C 2628.68 587  2630 588.32  2630 590  C 2630 591.68  2628.68 593  2627 593  " fill-rule="nonzero" fill="#797979" stroke="none" />
</svg>