<?xml version="1.0" encoding="utf-8"?>
<svg version="1.1" xmlns:xlink="http://www.w3.org/1999/xlink" width="12px" height="12px" viewBox="2721 549  12 12" xmlns="http://www.w3.org/2000/svg">
  <path d="M 2727 549  C 2730.36 549  2733 551.64  2733 555  C 2733 558.36  2730.36 561  2727 561  C 2723.64 561  2721 558.36  2721 555  C 2721 551.64  2723.64 549  2727 549  Z " fill-rule="nonzero" fill="#f0f0f0" stroke="none" />
  <path d="M 2727 549.5  C 2730.08 549.5  2732.5 551.92  2732.5 555  C 2732.5 558.08  2730.08 560.5  2727 560.5  C 2723.92 560.5  2721.5 558.08  2721.5 555  C 2721.5 551.92  2723.92 549.5  2727 549.5  Z " stroke-width="1" stroke="#797979" fill="none" />
  <path d="M 2727 558  C 2725.32 558  2724 556.68  2724 555  C 2724 553.32  2725.32 552  2727 552  C 2728.68 552  2730 553.32  2730 555  C 2730 556.68  2728.68 558  2727 558  " fill-rule="nonzero" fill="#797979" stroke="none" />
</svg>