<?xml version="1.0" encoding="utf-8"?>
<svg version="1.1" xmlns:xlink="http://www.w3.org/1999/xlink" width="12px" height="12px" viewBox="2621 483  12 12" xmlns="http://www.w3.org/2000/svg">
  <path d="M 2627 483  C 2630.36 483  2633 485.64  2633 489  C 2633 492.36  2630.36 495  2627 495  C 2623.64 495  2621 492.36  2621 489  C 2621 485.64  2623.64 483  2627 483  Z " fill-rule="nonzero" fill="#ffffff" stroke="none" />
  <path d="M 2627 483.5  C 2630.08 483.5  2632.5 485.92  2632.5 489  C 2632.5 492.08  2630.08 494.5  2627 494.5  C 2623.92 494.5  2621.5 492.08  2621.5 489  C 2621.5 485.92  2623.92 483.5  2627 483.5  Z " stroke-width="1" stroke="#797979" fill="none" />
  <path d="M 2627 492  C 2625.32 492  2624 490.68  2624 489  C 2624 487.32  2625.32 486  2627 486  C 2628.68 486  2630 487.32  2630 489  C 2630 490.68  2628.68 492  2627 492  " fill-rule="nonzero" fill="#797979" stroke="none" />
</svg>