<?xml version="1.0" encoding="utf-8"?>
<svg version="1.1" xmlns:xlink="http://www.w3.org/1999/xlink" width="12px" height="12px" viewBox="2721 483  12 12" xmlns="http://www.w3.org/2000/svg">
  <path d="M 2727 483  C 2730.36 483  2733 485.64  2733 489  C 2733 492.36  2730.36 495  2727 495  C 2723.64 495  2721 492.36  2721 489  C 2721 485.64  2723.64 483  2727 483  Z " fill-rule="nonzero" fill="#ffffff" stroke="none" />
  <path d="M 2727 483.5  C 2730.08 483.5  2732.5 485.92  2732.5 489  C 2732.5 492.08  2730.08 494.5  2727 494.5  C 2723.92 494.5  2721.5 492.08  2721.5 489  C 2721.5 485.92  2723.92 483.5  2727 483.5  Z " stroke-width="1" stroke="#797979" fill="none" />
  <path d="M 2727 492  C 2725.32 492  2724 490.68  2724 489  C 2724 487.32  2725.32 486  2727 486  C 2728.68 486  2730 487.32  2730 489  C 2730 490.68  2728.68 492  2727 492  " fill-rule="nonzero" fill="#797979" stroke="none" />
</svg>