<?xml version="1.0" encoding="utf-8"?>
<svg version="1.1" xmlns:xlink="http://www.w3.org/1999/xlink" width="12px" height="12px" viewBox="2721 584  12 12" xmlns="http://www.w3.org/2000/svg">
  <path d="M 2727 584  C 2730.36 584  2733 586.64  2733 590  C 2733 593.36  2730.36 596  2727 596  C 2723.64 596  2721 593.36  2721 590  C 2721 586.64  2723.64 584  2727 584  Z " fill-rule="nonzero" fill="#ffffff" stroke="none" />
  <path d="M 2727 584.5  C 2730.08 584.5  2732.5 586.92  2732.5 590  C 2732.5 593.08  2730.08 595.5  2727 595.5  C 2723.92 595.5  2721.5 593.08  2721.5 590  C 2721.5 586.92  2723.92 584.5  2727 584.5  Z " stroke-width="1" stroke="#797979" fill="none" />
  <path d="M 2727 593  C 2725.32 593  2724 591.68  2724 590  C 2724 588.32  2725.32 587  2727 587  C 2728.68 587  2730 588.32  2730 590  C 2730 591.68  2728.68 593  2727 593  " fill-rule="nonzero" fill="#797979" stroke="none" />
</svg>