<?xml version="1.0" encoding="utf-8"?>
<svg version="1.1" xmlns:xlink="http://www.w3.org/1999/xlink" width="12px" height="12px" viewBox="695 544  12 12" xmlns="http://www.w3.org/2000/svg">
  <path d="M 701 544  C 704.36 544  707 546.64  707 550  C 707 553.36  704.36 556  701 556  C 697.64 556  695 553.36  695 550  C 695 546.64  697.64 544  701 544  Z " fill-rule="nonzero" fill="#ffffff" stroke="none" />
  <path d="M 701 544.5  C 704.08 544.5  706.5 546.92  706.5 550  C 706.5 553.08  704.08 555.5  701 555.5  C 697.92 555.5  695.5 553.08  695.5 550  C 695.5 546.92  697.92 544.5  701 544.5  Z " stroke-width="1" stroke="#797979" fill="none" />
  <path d="M 701 553  C 699.32 553  698 551.68  698 550  C 698 548.32  699.32 547  701 547  C 702.68 547  704 548.32  704 550  C 704 551.68  702.68 553  701 553  " fill-rule="nonzero" fill="#797979" stroke="none" />
</svg>