<?xml version="1.0" encoding="utf-8"?>
<svg version="1.1" xmlns:xlink="http://www.w3.org/1999/xlink" width="12px" height="12px" viewBox="608 544  12 12" xmlns="http://www.w3.org/2000/svg">
  <path d="M 614 544  C 617.36 544  620 546.64  620 550  C 620 553.36  617.36 556  614 556  C 610.64 556  608 553.36  608 550  C 608 546.64  610.64 544  614 544  Z " fill-rule="nonzero" fill="#f0f0f0" stroke="none" />
  <path d="M 614 544.5  C 617.08 544.5  619.5 546.92  619.5 550  C 619.5 553.08  617.08 555.5  614 555.5  C 610.92 555.5  608.5 553.08  608.5 550  C 608.5 546.92  610.92 544.5  614 544.5  Z " stroke-width="1" stroke="#797979" fill="none" />
  <path d="M 614 553  C 612.32 553  611 551.68  611 550  C 611 548.32  612.32 547  614 547  C 615.68 547  617 548.32  617 550  C 617 551.68  615.68 553  614 553  " fill-rule="nonzero" fill="#797979" stroke="none" />
</svg>