<?xml version="1.0" encoding="utf-8"?>
<svg version="1.1" xmlns:xlink="http://www.w3.org/1999/xlink" width="12px" height="12px" viewBox="662 398  12 12" xmlns="http://www.w3.org/2000/svg">
  <path d="M 668 398  C 671.36 398  674 400.64  674 404  C 674 407.36  671.36 410  668 410  C 664.64 410  662 407.36  662 404  C 662 400.64  664.64 398  668 398  Z " fill-rule="nonzero" fill="#ffffff" stroke="none" />
  <path d="M 668 398.5  C 671.08 398.5  673.5 400.92  673.5 404  C 673.5 407.08  671.08 409.5  668 409.5  C 664.92 409.5  662.5 407.08  662.5 404  C 662.5 400.92  664.92 398.5  668 398.5  Z " stroke-width="1" stroke="#797979" fill="none" />
  <path d="M 668 407  C 666.32 407  665 405.68  665 404  C 665 402.32  666.32 401  668 401  C 669.68 401  671 402.32  671 404  C 671 405.68  669.68 407  668 407  " fill-rule="nonzero" fill="#797979" stroke="none" />
</svg>