<?xml version="1.0" encoding="utf-8"?>
<svg version="1.1" xmlns:xlink="http://www.w3.org/1999/xlink" width="12px" height="12px" viewBox="743 398  12 12" xmlns="http://www.w3.org/2000/svg">
  <path d="M 749 398  C 752.36 398  755 400.64  755 404  C 755 407.36  752.36 410  749 410  C 745.64 410  743 407.36  743 404  C 743 400.64  745.64 398  749 398  Z " fill-rule="nonzero" fill="#f0f0f0" stroke="none" />
  <path d="M 749 398.5  C 752.08 398.5  754.5 400.92  754.5 404  C 754.5 407.08  752.08 409.5  749 409.5  C 745.92 409.5  743.5 407.08  743.5 404  C 743.5 400.92  745.92 398.5  749 398.5  Z " stroke-width="1" stroke="#797979" fill="none" />
  <path d="M 749 407  C 747.32 407  746 405.68  746 404  C 746 402.32  747.32 401  749 401  C 750.68 401  752 402.32  752 404  C 752 405.68  750.68 407  749 407  " fill-rule="nonzero" fill="#797979" stroke="none" />
</svg>