<?xml version="1.0" encoding="utf-8"?>
<svg version="1.1" xmlns:xlink="http://www.w3.org/1999/xlink" width="12px" height="12px" viewBox="812 398  12 12" xmlns="http://www.w3.org/2000/svg">
  <path d="M 818 398  C 821.36 398  824 400.64  824 404  C 824 407.36  821.36 410  818 410  C 814.64 410  812 407.36  812 404  C 812 400.64  814.64 398  818 398  Z " fill-rule="nonzero" fill="#f0f0f0" stroke="none" />
  <path d="M 818 398.5  C 821.08 398.5  823.5 400.92  823.5 404  C 823.5 407.08  821.08 409.5  818 409.5  C 814.92 409.5  812.5 407.08  812.5 404  C 812.5 400.92  814.92 398.5  818 398.5  Z " stroke-width="1" stroke="#797979" fill="none" />
  <path d="M 818 407  C 816.32 407  815 405.68  815 404  C 815 402.32  816.32 401  818 401  C 819.68 401  821 402.32  821 404  C 821 405.68  819.68 407  818 407  " fill-rule="nonzero" fill="#797979" stroke="none" />
</svg>