<?xml version="1.0" encoding="utf-8"?>
<svg version="1.1" xmlns:xlink="http://www.w3.org/1999/xlink" width="12px" height="12px" viewBox="2589 398  12 12" xmlns="http://www.w3.org/2000/svg">
  <path d="M 2595 398  C 2598.36 398  2601 400.64  2601 404  C 2601 407.36  2598.36 410  2595 410  C 2591.64 410  2589 407.36  2589 404  C 2589 400.64  2591.64 398  2595 398  Z " fill-rule="nonzero" fill="#f0f0f0" stroke="none" />
  <path d="M 2595 398.5  C 2598.08 398.5  2600.5 400.92  2600.5 404  C 2600.5 407.08  2598.08 409.5  2595 409.5  C 2591.92 409.5  2589.5 407.08  2589.5 404  C 2589.5 400.92  2591.92 398.5  2595 398.5  Z " stroke-width="1" stroke="#797979" fill="none" />
  <path d="M 2595 407  C 2593.32 407  2592 405.68  2592 404  C 2592 402.32  2593.32 401  2595 401  C 2596.68 401  2598 402.32  2598 404  C 2598 405.68  2596.68 407  2595 407  " fill-rule="nonzero" fill="#797979" stroke="none" />
</svg>