<?xml version="1.0" encoding="utf-8"?>
<svg version="1.1" xmlns:xlink="http://www.w3.org/1999/xlink" width="12px" height="12px" viewBox="696 1744  12 12" xmlns="http://www.w3.org/2000/svg">
  <path d="M 702 1744  C 705.36 1744  708 1746.64  708 1750  C 708 1753.36  705.36 1756  702 1756  C 698.64 1756  696 1753.36  696 1750  C 696 1746.64  698.64 1744  702 1744  Z " fill-rule="nonzero" fill="#ffffff" stroke="none" />
  <path d="M 702 1744.5  C 705.08 1744.5  707.5 1746.92  707.5 1750  C 707.5 1753.08  705.08 1755.5  702 1755.5  C 698.92 1755.5  696.5 1753.08  696.5 1750  C 696.5 1746.92  698.92 1744.5  702 1744.5  Z " stroke-width="1" stroke="#797979" fill="none" />
  <path d="M 702 1753  C 700.32 1753  699 1751.68  699 1750  C 699 1748.32  700.32 1747  702 1747  C 703.68 1747  705 1748.32  705 1750  C 705 1751.68  703.68 1753  702 1753  " fill-rule="nonzero" fill="#797979" stroke="none" />
</svg>