<?xml version="1.0" encoding="utf-8"?>
<svg version="1.1" xmlns:xlink="http://www.w3.org/1999/xlink" width="12px" height="12px" viewBox="662 1598  12 12" xmlns="http://www.w3.org/2000/svg">
  <path d="M 668 1598  C 671.36 1598  674 1600.64  674 1604  C 674 1607.36  671.36 1610  668 1610  C 664.64 1610  662 1607.36  662 1604  C 662 1600.64  664.64 1598  668 1598  Z " fill-rule="nonzero" fill="#ffffff" stroke="none" />
  <path d="M 668 1598.5  C 671.08 1598.5  673.5 1600.92  673.5 1604  C 673.5 1607.08  671.08 1609.5  668 1609.5  C 664.92 1609.5  662.5 1607.08  662.5 1604  C 662.5 1600.92  664.92 1598.5  668 1598.5  Z " stroke-width="1" stroke="#797979" fill="none" />
  <path d="M 668 1607  C 666.32 1607  665 1605.68  665 1604  C 665 1602.32  666.32 1601  668 1601  C 669.68 1601  671 1602.32  671 1604  C 671 1605.68  669.68 1607  668 1607  " fill-rule="nonzero" fill="#797979" stroke="none" />
</svg>