<?xml version="1.0" encoding="utf-8"?>
<svg version="1.1" xmlns:xlink="http://www.w3.org/1999/xlink" width="12px" height="12px" viewBox="596 1598  12 12" xmlns="http://www.w3.org/2000/svg">
  <path d="M 602 1598  C 605.36 1598  608 1600.64  608 1604  C 608 1607.36  605.36 1610  602 1610  C 598.64 1610  596 1607.36  596 1604  C 596 1600.64  598.64 1598  602 1598  Z " fill-rule="nonzero" fill="#ffffff" stroke="none" />
  <path d="M 602 1598.5  C 605.08 1598.5  607.5 1600.92  607.5 1604  C 607.5 1607.08  605.08 1609.5  602 1609.5  C 598.92 1609.5  596.5 1607.08  596.5 1604  C 596.5 1600.92  598.92 1598.5  602 1598.5  Z " stroke-width="1" stroke="#797979" fill="none" />
  <path d="M 602 1607  C 600.32 1607  599 1605.68  599 1604  C 599 1602.32  600.32 1601  602 1601  C 603.68 1601  605 1602.32  605 1604  C 605 1605.68  603.68 1607  602 1607  " fill-rule="nonzero" fill="#797979" stroke="none" />
</svg>