<?xml version="1.0" encoding="utf-8"?>
<svg version="1.1" xmlns:xlink="http://www.w3.org/1999/xlink" width="12px" height="12px" viewBox="2736 398  12 12" xmlns="http://www.w3.org/2000/svg">
  <path d="M 2742 398  C 2745.36 398  2748 400.64  2748 404  C 2748 407.36  2745.36 410  2742 410  C 2738.64 410  2736 407.36  2736 404  C 2736 400.64  2738.64 398  2742 398  Z " fill-rule="nonzero" fill="#ffffff" stroke="none" />
  <path d="M 2742 398.5  C 2745.08 398.5  2747.5 400.92  2747.5 404  C 2747.5 407.08  2745.08 409.5  2742 409.5  C 2738.92 409.5  2736.5 407.08  2736.5 404  C 2736.5 400.92  2738.92 398.5  2742 398.5  Z " stroke-width="1" stroke="#797979" fill="none" />
  <path d="M 2742 407  C 2740.32 407  2739 405.68  2739 404  C 2739 402.32  2740.32 401  2742 401  C 2743.68 401  2745 402.32  2745 404  C 2745 405.68  2743.68 407  2742 407  " fill-rule="nonzero" fill="#797979" stroke="none" />
</svg>