<?xml version="1.0" encoding="utf-8"?>
<svg version="1.1" xmlns:xlink="http://www.w3.org/1999/xlink" width="12px" height="12px" viewBox="676 438  12 12" xmlns="http://www.w3.org/2000/svg">
  <path d="M 682 438  C 685.36 438  688 440.64  688 444  C 688 447.36  685.36 450  682 450  C 678.64 450  676 447.36  676 444  C 676 440.64  678.64 438  682 438  Z " fill-rule="nonzero" fill="#f0f0f0" stroke="none" />
  <path d="M 682 438.5  C 685.08 438.5  687.5 440.92  687.5 444  C 687.5 447.08  685.08 449.5  682 449.5  C 678.92 449.5  676.5 447.08  676.5 444  C 676.5 440.92  678.92 438.5  682 438.5  Z " stroke-width="1" stroke="#797979" fill="none" />
  <path d="M 682 447  C 680.32 447  679 445.68  679 444  C 679 442.32  680.32 441  682 441  C 683.68 441  685 442.32  685 444  C 685 445.68  683.68 447  682 447  " fill-rule="nonzero" fill="#797979" stroke="none" />
</svg>