<?xml version="1.0" encoding="utf-8"?>
<svg version="1.1" xmlns:xlink="http://www.w3.org/1999/xlink" width="12px" height="12px" viewBox="2805 398  12 12" xmlns="http://www.w3.org/2000/svg">
  <path d="M 2811 398  C 2814.36 398  2817 400.64  2817 404  C 2817 407.36  2814.36 410  2811 410  C 2807.64 410  2805 407.36  2805 404  C 2805 400.64  2807.64 398  2811 398  Z " fill-rule="nonzero" fill="#ffffff" stroke="none" />
  <path d="M 2811 398.5  C 2814.08 398.5  2816.5 400.92  2816.5 404  C 2816.5 407.08  2814.08 409.5  2811 409.5  C 2807.92 409.5  2805.5 407.08  2805.5 404  C 2805.5 400.92  2807.92 398.5  2811 398.5  Z " stroke-width="1" stroke="#797979" fill="none" />
  <path d="M 2811 407  C 2809.32 407  2808 405.68  2808 404  C 2808 402.32  2809.32 401  2811 401  C 2812.68 401  2814 402.32  2814 404  C 2814 405.68  2812.68 407  2811 407  " fill-rule="nonzero" fill="#797979" stroke="none" />
</svg>