<?xml version="1.0" encoding="utf-8"?>
<svg version="1.1" xmlns:xlink="http://www.w3.org/1999/xlink" width="12px" height="12px" viewBox="696 1571  12 12" xmlns="http://www.w3.org/2000/svg">
  <path d="M 702 1571  C 705.36 1571  708 1573.64  708 1577  C 708 1580.36  705.36 1583  702 1583  C 698.64 1583  696 1580.36  696 1577  C 696 1573.64  698.64 1571  702 1571  Z " fill-rule="nonzero" fill="#ffffff" stroke="none" />
  <path d="M 702 1571.5  C 705.08 1571.5  707.5 1573.92  707.5 1577  C 707.5 1580.08  705.08 1582.5  702 1582.5  C 698.92 1582.5  696.5 1580.08  696.5 1577  C 696.5 1573.92  698.92 1571.5  702 1571.5  Z " stroke-width="1" stroke="#797979" fill="none" />
  <path d="M 702 1580  C 700.32 1580  699 1578.68  699 1577  C 699 1575.32  700.32 1574  702 1574  C 703.68 1574  705 1575.32  705 1577  C 705 1578.68  703.68 1580  702 1580  " fill-rule="nonzero" fill="#797979" stroke="none" />
</svg>