<?xml version="1.0" encoding="utf-8"?>
<svg version="1.1" xmlns:xlink="http://www.w3.org/1999/xlink" width="12px" height="12px" viewBox="2589 473  12 12" xmlns="http://www.w3.org/2000/svg">
  <path d="M 2595 473  C 2598.36 473  2601 475.64  2601 479  C 2601 482.36  2598.36 485  2595 485  C 2591.64 485  2589 482.36  2589 479  C 2589 475.64  2591.64 473  2595 473  Z " fill-rule="nonzero" fill="#ffffff" stroke="none" />
  <path d="M 2595 473.5  C 2598.08 473.5  2600.5 475.92  2600.5 479  C 2600.5 482.08  2598.08 484.5  2595 484.5  C 2591.92 484.5  2589.5 482.08  2589.5 479  C 2589.5 475.92  2591.92 473.5  2595 473.5  Z " stroke-width="1" stroke="#797979" fill="none" />
  <path d="M 2595 482  C 2593.32 482  2592 480.68  2592 479  C 2592 477.32  2593.32 476  2595 476  C 2596.68 476  2598 477.32  2598 479  C 2598 480.68  2596.68 482  2595 482  " fill-rule="nonzero" fill="#797979" stroke="none" />
</svg>