<?xml version="1.0" encoding="utf-8"?>
<svg version="1.1" xmlns:xlink="http://www.w3.org/1999/xlink" width="12px" height="12px" viewBox="696 473  12 12" xmlns="http://www.w3.org/2000/svg">
  <path d="M 702 473  C 705.36 473  708 475.64  708 479  C 708 482.36  705.36 485  702 485  C 698.64 485  696 482.36  696 479  C 696 475.64  698.64 473  702 473  Z " fill-rule="nonzero" fill="#f0f0f0" stroke="none" />
  <path d="M 702 473.5  C 705.08 473.5  707.5 475.92  707.5 479  C 707.5 482.08  705.08 484.5  702 484.5  C 698.92 484.5  696.5 482.08  696.5 479  C 696.5 475.92  698.92 473.5  702 473.5  Z " stroke-width="1" stroke="#797979" fill="none" />
  <path d="M 702 482  C 700.32 482  699 480.68  699 479  C 699 477.32  700.32 476  702 476  C 703.68 476  705 477.32  705 479  C 705 480.68  703.68 482  702 482  " fill-rule="nonzero" fill="#797979" stroke="none" />
</svg>