<?xml version="1.0" encoding="utf-8"?>
<svg version="1.1" xmlns:xlink="http://www.w3.org/1999/xlink" width="12px" height="12px" viewBox="596 371  12 12" xmlns="http://www.w3.org/2000/svg">
  <path d="M 602 371  C 605.36 371  608 373.64  608 377  C 608 380.36  605.36 383  602 383  C 598.64 383  596 380.36  596 377  C 596 373.64  598.64 371  602 371  Z " fill-rule="nonzero" fill="#ffffff" stroke="none" />
  <path d="M 602 371.5  C 605.08 371.5  607.5 373.92  607.5 377  C 607.5 380.08  605.08 382.5  602 382.5  C 598.92 382.5  596.5 380.08  596.5 377  C 596.5 373.92  598.92 371.5  602 371.5  Z " stroke-width="1" stroke="#797979" fill="none" />
  <path d="M 602 380  C 600.32 380  599 378.68  599 377  C 599 375.32  600.32 374  602 374  C 603.68 374  605 375.32  605 377  C 605 378.68  603.68 380  602 380  " fill-rule="nonzero" fill="#797979" stroke="none" />
</svg>