<?xml version="1.0" encoding="utf-8"?>
<svg version="1.1" xmlns:xlink="http://www.w3.org/1999/xlink" width="12px" height="12px" viewBox="596 473  12 12" xmlns="http://www.w3.org/2000/svg">
  <path d="M 602 473  C 605.36 473  608 475.64  608 479  C 608 482.36  605.36 485  602 485  C 598.64 485  596 482.36  596 479  C 596 475.64  598.64 473  602 473  Z " fill-rule="nonzero" fill="#ffffff" stroke="none" />
  <path d="M 602 473.5  C 605.08 473.5  607.5 475.92  607.5 479  C 607.5 482.08  605.08 484.5  602 484.5  C 598.92 484.5  596.5 482.08  596.5 479  C 596.5 475.92  598.92 473.5  602 473.5  Z " stroke-width="1" stroke="#797979" fill="none" />
  <path d="M 602 482  C 600.32 482  599 480.68  599 479  C 599 477.32  600.32 476  602 476  C 603.68 476  605 477.32  605 479  C 605 480.68  603.68 482  602 482  " fill-rule="nonzero" fill="#797979" stroke="none" />
</svg>