<?xml version="1.0" encoding="utf-8"?>
<svg version="1.1" xmlns:xlink="http://www.w3.org/1999/xlink" width="12px" height="12px" viewBox="696 541  12 12" xmlns="http://www.w3.org/2000/svg">
  <path d="M 702 541  C 705.36 541  708 543.64  708 547  C 708 550.36  705.36 553  702 553  C 698.64 553  696 550.36  696 547  C 696 543.64  698.64 541  702 541  Z " fill-rule="nonzero" fill="#f0f0f0" stroke="none" />
  <path d="M 702 541.5  C 705.08 541.5  707.5 543.92  707.5 547  C 707.5 550.08  705.08 552.5  702 552.5  C 698.92 552.5  696.5 550.08  696.5 547  C 696.5 543.92  698.92 541.5  702 541.5  Z " stroke-width="1" stroke="#797979" fill="none" />
  <path d="M 702 550  C 700.32 550  699 548.68  699 547  C 699 545.32  700.32 544  702 544  C 703.68 544  705 545.32  705 547  C 705 548.68  703.68 550  702 550  " fill-rule="nonzero" fill="#797979" stroke="none" />
</svg>