<?xml version="1.0" encoding="utf-8"?>
<svg version="1.1" xmlns:xlink="http://www.w3.org/1999/xlink" width="12px" height="12px" viewBox="596 1571  12 12" xmlns="http://www.w3.org/2000/svg">
  <path d="M 602 1571  C 605.36 1571  608 1573.64  608 1577  C 608 1580.36  605.36 1583  602 1583  C 598.64 1583  596 1580.36  596 1577  C 596 1573.64  598.64 1571  602 1571  Z " fill-rule="nonzero" fill="#ffffff" stroke="none" />
  <path d="M 602 1571.5  C 605.08 1571.5  607.5 1573.92  607.5 1577  C 607.5 1580.08  605.08 1582.5  602 1582.5  C 598.92 1582.5  596.5 1580.08  596.5 1577  C 596.5 1573.92  598.92 1571.5  602 1571.5  Z " stroke-width="1" stroke="#797979" fill="none" />
  <path d="M 602 1580  C 600.32 1580  599 1578.68  599 1577  C 599 1575.32  600.32 1574  602 1574  C 603.68 1574  605 1575.32  605 1577  C 605 1578.68  603.68 1580  602 1580  " fill-rule="nonzero" fill="#797979" stroke="none" />
</svg>