<?xml version="1.0" encoding="utf-8"?>
<svg version="1.1" xmlns:xlink="http://www.w3.org/1999/xlink" width="12px" height="12px" viewBox="2669 438  12 12" xmlns="http://www.w3.org/2000/svg">
  <path d="M 2675 438  C 2678.36 438  2681 440.64  2681 444  C 2681 447.36  2678.36 450  2675 450  C 2671.64 450  2669 447.36  2669 444  C 2669 440.64  2671.64 438  2675 438  Z " fill-rule="nonzero" fill="#ffffff" stroke="none" />
  <path d="M 2675 438.5  C 2678.08 438.5  2680.5 440.92  2680.5 444  C 2680.5 447.08  2678.08 449.5  2675 449.5  C 2671.92 449.5  2669.5 447.08  2669.5 444  C 2669.5 440.92  2671.92 438.5  2675 438.5  Z " stroke-width="1" stroke="#797979" fill="none" />
  <path d="M 2675 447  C 2673.32 447  2672 445.68  2672 444  C 2672 442.32  2673.32 441  2675 441  C 2676.68 441  2678 442.32  2678 444  C 2678 445.68  2676.68 447  2675 447  " fill-rule="nonzero" fill="#797979" stroke="none" />
</svg>