<?xml version="1.0" encoding="utf-8"?>
<svg version="1.1" xmlns:xlink="http://www.w3.org/1999/xlink" width="12px" height="12px" viewBox="596 1673  12 12" xmlns="http://www.w3.org/2000/svg">
  <path d="M 602 1673  C 605.36 1673  608 1675.64  608 1679  C 608 1682.36  605.36 1685  602 1685  C 598.64 1685  596 1682.36  596 1679  C 596 1675.64  598.64 1673  602 1673  Z " fill-rule="nonzero" fill="#f0f0f0" stroke="none" />
  <path d="M 602 1673.5  C 605.08 1673.5  607.5 1675.92  607.5 1679  C 607.5 1682.08  605.08 1684.5  602 1684.5  C 598.92 1684.5  596.5 1682.08  596.5 1679  C 596.5 1675.92  598.92 1673.5  602 1673.5  Z " stroke-width="1" stroke="#797979" fill="none" />
  <path d="M 602 1682  C 600.32 1682  599 1680.68  599 1679  C 599 1677.32  600.32 1676  602 1676  C 603.68 1676  605 1677.32  605 1679  C 605 1680.68  603.68 1682  602 1682  " fill-rule="nonzero" fill="#797979" stroke="none" />
</svg>