<?xml version="1.0" encoding="utf-8"?>
<svg version="1.1" xmlns:xlink="http://www.w3.org/1999/xlink" width="12px" height="12px" viewBox="2589 542  12 12" xmlns="http://www.w3.org/2000/svg">
  <path d="M 2595 542  C 2598.36 542  2601 544.64  2601 548  C 2601 551.36  2598.36 554  2595 554  C 2591.64 554  2589 551.36  2589 548  C 2589 544.64  2591.64 542  2595 542  Z " fill-rule="nonzero" fill="#f0f0f0" stroke="none" />
  <path d="M 2595 542.5  C 2598.08 542.5  2600.5 544.92  2600.5 548  C 2600.5 551.08  2598.08 553.5  2595 553.5  C 2591.92 553.5  2589.5 551.08  2589.5 548  C 2589.5 544.92  2591.92 542.5  2595 542.5  Z " stroke-width="1" stroke="#797979" fill="none" />
  <path d="M 2595 551  C 2593.32 551  2592 549.68  2592 548  C 2592 546.32  2593.32 545  2595 545  C 2596.68 545  2598 546.32  2598 548  C 2598 549.68  2596.68 551  2595 551  " fill-rule="nonzero" fill="#797979" stroke="none" />
</svg>