<?xml version="1.0" encoding="utf-8"?>
<svg version="1.1" xmlns:xlink="http://www.w3.org/1999/xlink" width="12px" height="12px" viewBox="2689 577  12 12" xmlns="http://www.w3.org/2000/svg">
  <path d="M 2695 577  C 2698.36 577  2701 579.64  2701 583  C 2701 586.36  2698.36 589  2695 589  C 2691.64 589  2689 586.36  2689 583  C 2689 579.64  2691.64 577  2695 577  Z " fill-rule="nonzero" fill="#f0f0f0" stroke="none" />
  <path d="M 2695 577.5  C 2698.08 577.5  2700.5 579.92  2700.5 583  C 2700.5 586.08  2698.08 588.5  2695 588.5  C 2691.92 588.5  2689.5 586.08  2689.5 583  C 2689.5 579.92  2691.92 577.5  2695 577.5  Z " stroke-width="1" stroke="#797979" fill="none" />
  <path d="M 2695 586  C 2693.32 586  2692 584.68  2692 583  C 2692 581.32  2693.32 580  2695 580  C 2696.68 580  2698 581.32  2698 583  C 2698 584.68  2696.68 586  2695 586  " fill-rule="nonzero" fill="#797979" stroke="none" />
</svg>