<?xml version="1.0" encoding="utf-8"?>
<svg version="1.1" xmlns:xlink="http://www.w3.org/1999/xlink" width="12px" height="12px" viewBox="2589 371  12 12" xmlns="http://www.w3.org/2000/svg">
  <path d="M 2595 371  C 2598.36 371  2601 373.64  2601 377  C 2601 380.36  2598.36 383  2595 383  C 2591.64 383  2589 380.36  2589 377  C 2589 373.64  2591.64 371  2595 371  Z " fill-rule="nonzero" fill="#f0f0f0" stroke="none" />
  <path d="M 2595 371.5  C 2598.08 371.5  2600.5 373.92  2600.5 377  C 2600.5 380.08  2598.08 382.5  2595 382.5  C 2591.92 382.5  2589.5 380.08  2589.5 377  C 2589.5 373.92  2591.92 371.5  2595 371.5  Z " stroke-width="1" stroke="#797979" fill="none" />
  <path d="M 2595 380  C 2593.32 380  2592 378.68  2592 377  C 2592 375.32  2593.32 374  2595 374  C 2596.68 374  2598 375.32  2598 377  C 2598 378.68  2596.68 380  2595 380  " fill-rule="nonzero" fill="#797979" stroke="none" />
</svg>