<?xml version="1.0" encoding="utf-8"?>
<svg version="1.1" xmlns:xlink="http://www.w3.org/1999/xlink" width="12px" height="12px" viewBox="696 1777  12 12" xmlns="http://www.w3.org/2000/svg">
  <path d="M 702 1777  C 705.36 1777  708 1779.64  708 1783  C 708 1786.36  705.36 1789  702 1789  C 698.64 1789  696 1786.36  696 1783  C 696 1779.64  698.64 1777  702 1777  Z " fill-rule="nonzero" fill="#ffffff" stroke="none" />
  <path d="M 702 1777.5  C 705.08 1777.5  707.5 1779.92  707.5 1783  C 707.5 1786.08  705.08 1788.5  702 1788.5  C 698.92 1788.5  696.5 1786.08  696.5 1783  C 696.5 1779.92  698.92 1777.5  702 1777.5  Z " stroke-width="1" stroke="#797979" fill="none" />
  <path d="M 702 1786  C 700.32 1786  699 1784.68  699 1783  C 699 1781.32  700.32 1780  702 1780  C 703.68 1780  705 1781.32  705 1783  C 705 1784.68  703.68 1786  702 1786  " fill-rule="nonzero" fill="#797979" stroke="none" />
</svg>