<?xml version="1.0" encoding="utf-8"?>
<svg version="1.1" xmlns:xlink="http://www.w3.org/1999/xlink" width="12px" height="12px" viewBox="2689 473  12 12" xmlns="http://www.w3.org/2000/svg">
  <path d="M 2695 473  C 2698.36 473  2701 475.64  2701 479  C 2701 482.36  2698.36 485  2695 485  C 2691.64 485  2689 482.36  2689 479  C 2689 475.64  2691.64 473  2695 473  Z " fill-rule="nonzero" fill="#ffffff" stroke="none" />
  <path d="M 2695 473.5  C 2698.08 473.5  2700.5 475.92  2700.5 479  C 2700.5 482.08  2698.08 484.5  2695 484.5  C 2691.92 484.5  2689.5 482.08  2689.5 479  C 2689.5 475.92  2691.92 473.5  2695 473.5  Z " stroke-width="1" stroke="#797979" fill="none" />
  <path d="M 2695 482  C 2693.32 482  2692 480.68  2692 479  C 2692 477.32  2693.32 476  2695 476  C 2696.68 476  2698 477.32  2698 479  C 2698 480.68  2696.68 482  2695 482  " fill-rule="nonzero" fill="#797979" stroke="none" />
</svg>