<?xml version="1.0" encoding="utf-8"?>
<svg version="1.1" xmlns:xlink="http://www.w3.org/1999/xlink" width="12px" height="12px" viewBox="2689 371  12 12" xmlns="http://www.w3.org/2000/svg">
  <path d="M 2695 371  C 2698.36 371  2701 373.64  2701 377  C 2701 380.36  2698.36 383  2695 383  C 2691.64 383  2689 380.36  2689 377  C 2689 373.64  2691.64 371  2695 371  Z " fill-rule="nonzero" fill="#f0f0f0" stroke="none" />
  <path d="M 2695 371.5  C 2698.08 371.5  2700.5 373.92  2700.5 377  C 2700.5 380.08  2698.08 382.5  2695 382.5  C 2691.92 382.5  2689.5 380.08  2689.5 377  C 2689.5 373.92  2691.92 371.5  2695 371.5  Z " stroke-width="1" stroke="#797979" fill="none" />
  <path d="M 2695 380  C 2693.32 380  2692 378.68  2692 377  C 2692 375.32  2693.32 374  2695 374  C 2696.68 374  2698 375.32  2698 377  C 2698 378.68  2696.68 380  2695 380  " fill-rule="nonzero" fill="#797979" stroke="none" />
</svg>