<?xml version="1.0" encoding="utf-8"?>
<svg version="1.1" xmlns:xlink="http://www.w3.org/1999/xlink" width="12px" height="12px" viewBox="696 371  12 12" xmlns="http://www.w3.org/2000/svg">
  <path d="M 702 371  C 705.36 371  708 373.64  708 377  C 708 380.36  705.36 383  702 383  C 698.64 383  696 380.36  696 377  C 696 373.64  698.64 371  702 371  Z " fill-rule="nonzero" fill="#f0f0f0" stroke="none" />
  <path d="M 702 371.5  C 705.08 371.5  707.5 373.92  707.5 377  C 707.5 380.08  705.08 382.5  702 382.5  C 698.92 382.5  696.5 380.08  696.5 377  C 696.5 373.92  698.92 371.5  702 371.5  Z " stroke-width="1" stroke="#797979" fill="none" />
  <path d="M 702 380  C 700.32 380  699 378.68  699 377  C 699 375.32  700.32 374  702 374  C 703.68 374  705 375.32  705 377  C 705 378.68  703.68 380  702 380  " fill-rule="nonzero" fill="#797979" stroke="none" />
</svg>