<?xml version="1.0" encoding="utf-8"?>
<svg version="1.1" xmlns:xlink="http://www.w3.org/1999/xlink" width="12px" height="12px" viewBox="696 443  12 12" xmlns="http://www.w3.org/2000/svg">
  <path d="M 702 443  C 705.36 443  708 445.64  708 449  C 708 452.36  705.36 455  702 455  C 698.64 455  696 452.36  696 449  C 696 445.64  698.64 443  702 443  Z " fill-rule="nonzero" fill="#f0f0f0" stroke="none" />
  <path d="M 702 443.5  C 705.08 443.5  707.5 445.92  707.5 449  C 707.5 452.08  705.08 454.5  702 454.5  C 698.92 454.5  696.5 452.08  696.5 449  C 696.5 445.92  698.92 443.5  702 443.5  Z " stroke-width="1" stroke="#797979" fill="none" />
  <path d="M 702 452  C 700.32 452  699 450.68  699 449  C 699 447.32  700.32 446  702 446  C 703.68 446  705 447.32  705 449  C 705 450.68  703.68 452  702 452  " fill-rule="nonzero" fill="#797979" stroke="none" />
</svg>