<?xml version="1.0" encoding="utf-8"?>
<svg version="1.1" xmlns:xlink="http://www.w3.org/1999/xlink" width="12px" height="12px" viewBox="596 545  12 12" xmlns="http://www.w3.org/2000/svg">
  <path d="M 602 545  C 605.36 545  608 547.64  608 551  C 608 554.36  605.36 557  602 557  C 598.64 557  596 554.36  596 551  C 596 547.64  598.64 545  602 545  Z " fill-rule="nonzero" fill="#f0f0f0" stroke="none" />
  <path d="M 602 545.5  C 605.08 545.5  607.5 547.92  607.5 551  C 607.5 554.08  605.08 556.5  602 556.5  C 598.92 556.5  596.5 554.08  596.5 551  C 596.5 547.92  598.92 545.5  602 545.5  Z " stroke-width="1" stroke="#797979" fill="none" />
  <path d="M 602 554  C 600.32 554  599 552.68  599 551  C 599 549.32  600.32 548  602 548  C 603.68 548  605 549.32  605 551  C 605 552.68  603.68 554  602 554  " fill-rule="nonzero" fill="#797979" stroke="none" />
</svg>