<?xml version="1.0" encoding="utf-8"?>
<svg version="1.1" xmlns:xlink="http://www.w3.org/1999/xlink" width="12px" height="12px" viewBox="696 545  12 12" xmlns="http://www.w3.org/2000/svg">
  <path d="M 702 545  C 705.36 545  708 547.64  708 551  C 708 554.36  705.36 557  702 557  C 698.64 557  696 554.36  696 551  C 696 547.64  698.64 545  702 545  Z " fill-rule="nonzero" fill="#f0f0f0" stroke="none" />
  <path d="M 702 545.5  C 705.08 545.5  707.5 547.92  707.5 551  C 707.5 554.08  705.08 556.5  702 556.5  C 698.92 556.5  696.5 554.08  696.5 551  C 696.5 547.92  698.92 545.5  702 545.5  Z " stroke-width="1" stroke="#797979" fill="none" />
  <path d="M 702 554  C 700.32 554  699 552.68  699 551  C 699 549.32  700.32 548  702 548  C 703.68 548  705 549.32  705 551  C 705 552.68  703.68 554  702 554  " fill-rule="nonzero" fill="#797979" stroke="none" />
</svg>