<?xml version="1.0" encoding="utf-8"?>
<svg version="1.1" xmlns:xlink="http://www.w3.org/1999/xlink" width="12px" height="12px" viewBox="596 649  12 12" xmlns="http://www.w3.org/2000/svg">
  <path d="M 602 649  C 605.36 649  608 651.64  608 655  C 608 658.36  605.36 661  602 661  C 598.64 661  596 658.36  596 655  C 596 651.64  598.64 649  602 649  Z " fill-rule="nonzero" fill="#ffffff" stroke="none" />
  <path d="M 602 649.5  C 605.08 649.5  607.5 651.92  607.5 655  C 607.5 658.08  605.08 660.5  602 660.5  C 598.92 660.5  596.5 658.08  596.5 655  C 596.5 651.92  598.92 649.5  602 649.5  Z " stroke-width="1" stroke="#797979" fill="none" />
  <path d="M 602 658  C 600.32 658  599 656.68  599 655  C 599 653.32  600.32 652  602 652  C 603.68 652  605 653.32  605 655  C 605 656.68  603.68 658  602 658  " fill-rule="nonzero" fill="#797979" stroke="none" />
</svg>