<?xml version="1.0" encoding="utf-8"?>
<svg version="1.1" xmlns:xlink="http://www.w3.org/1999/xlink" width="12px" height="12px" viewBox="696 649  12 12" xmlns="http://www.w3.org/2000/svg">
  <path d="M 702 649  C 705.36 649  708 651.64  708 655  C 708 658.36  705.36 661  702 661  C 698.64 661  696 658.36  696 655  C 696 651.64  698.64 649  702 649  Z " fill-rule="nonzero" fill="#ffffff" stroke="none" />
  <path d="M 702 649.5  C 705.08 649.5  707.5 651.92  707.5 655  C 707.5 658.08  705.08 660.5  702 660.5  C 698.92 660.5  696.5 658.08  696.5 655  C 696.5 651.92  698.92 649.5  702 649.5  Z " stroke-width="1" stroke="#797979" fill="none" />
  <path d="M 702 658  C 700.32 658  699 656.68  699 655  C 699 653.32  700.32 652  702 652  C 703.68 652  705 653.32  705 655  C 705 656.68  703.68 658  702 658  " fill-rule="nonzero" fill="#797979" stroke="none" />
</svg>