<?xml version="1.0" encoding="utf-8"?>
<svg version="1.1" xmlns:xlink="http://www.w3.org/1999/xlink" width="12px" height="12px" viewBox="2593 510  12 12" xmlns="http://www.w3.org/2000/svg">
  <path d="M 2599 510  C 2602.36 510  2605 512.64  2605 516  C 2605 519.36  2602.36 522  2599 522  C 2595.64 522  2593 519.36  2593 516  C 2593 512.64  2595.64 510  2599 510  Z " fill-rule="nonzero" fill="#ffffff" stroke="none" />
  <path d="M 2599 510.5  C 2602.08 510.5  2604.5 512.92  2604.5 516  C 2604.5 519.08  2602.08 521.5  2599 521.5  C 2595.92 521.5  2593.5 519.08  2593.5 516  C 2593.5 512.92  2595.92 510.5  2599 510.5  Z " stroke-width="1" stroke="#797979" fill="none" />
  <path d="M 2599 519  C 2597.32 519  2596 517.68  2596 516  C 2596 514.32  2597.32 513  2599 513  C 2600.68 513  2602 514.32  2602 516  C 2602 517.68  2600.68 519  2599 519  " fill-rule="nonzero" fill="#797979" stroke="none" />
</svg>