<?xml version="1.0" encoding="utf-8"?>
<svg version="1.1" xmlns:xlink="http://www.w3.org/1999/xlink" width="12px" height="12px" viewBox="2693 510  12 12" xmlns="http://www.w3.org/2000/svg">
  <path d="M 2699 510  C 2702.36 510  2705 512.64  2705 516  C 2705 519.36  2702.36 522  2699 522  C 2695.64 522  2693 519.36  2693 516  C 2693 512.64  2695.64 510  2699 510  Z " fill-rule="nonzero" fill="#f0f0f0" stroke="none" />
  <path d="M 2699 510.5  C 2702.08 510.5  2704.5 512.92  2704.5 516  C 2704.5 519.08  2702.08 521.5  2699 521.5  C 2695.92 521.5  2693.5 519.08  2693.5 516  C 2693.5 512.92  2695.92 510.5  2699 510.5  Z " stroke-width="1" stroke="#797979" fill="none" />
  <path d="M 2699 519  C 2697.32 519  2696 517.68  2696 516  C 2696 514.32  2697.32 513  2699 513  C 2700.68 513  2702 514.32  2702 516  C 2702 517.68  2700.68 519  2699 519  " fill-rule="nonzero" fill="#797979" stroke="none" />
</svg>