<?xml version="1.0" encoding="utf-8"?>
<svg version="1.1" xmlns:xlink="http://www.w3.org/1999/xlink" width="12px" height="12px" viewBox="2593 611  12 12" xmlns="http://www.w3.org/2000/svg">
  <path d="M 2599 611  C 2602.36 611  2605 613.64  2605 617  C 2605 620.36  2602.36 623  2599 623  C 2595.64 623  2593 620.36  2593 617  C 2593 613.64  2595.64 611  2599 611  Z " fill-rule="nonzero" fill="#ffffff" stroke="none" />
  <path d="M 2599 611.5  C 2602.08 611.5  2604.5 613.92  2604.5 617  C 2604.5 620.08  2602.08 622.5  2599 622.5  C 2595.92 622.5  2593.5 620.08  2593.5 617  C 2593.5 613.92  2595.92 611.5  2599 611.5  Z " stroke-width="1" stroke="#797979" fill="none" />
  <path d="M 2599 620  C 2597.32 620  2596 618.68  2596 617  C 2596 615.32  2597.32 614  2599 614  C 2600.68 614  2602 615.32  2602 617  C 2602 618.68  2600.68 620  2599 620  " fill-rule="nonzero" fill="#797979" stroke="none" />
</svg>