<?xml version="1.0" encoding="utf-8"?>
<svg version="1.1" xmlns:xlink="http://www.w3.org/1999/xlink" width="12px" height="12px" viewBox="2693 611  12 12" xmlns="http://www.w3.org/2000/svg">
  <path d="M 2699 611  C 2702.36 611  2705 613.64  2705 617  C 2705 620.36  2702.36 623  2699 623  C 2695.64 623  2693 620.36  2693 617  C 2693 613.64  2695.64 611  2699 611  Z " fill-rule="nonzero" fill="#ffffff" stroke="none" />
  <path d="M 2699 611.5  C 2702.08 611.5  2704.5 613.92  2704.5 617  C 2704.5 620.08  2702.08 622.5  2699 622.5  C 2695.92 622.5  2693.5 620.08  2693.5 617  C 2693.5 613.92  2695.92 611.5  2699 611.5  Z " stroke-width="1" stroke="#797979" fill="none" />
  <path d="M 2699 620  C 2697.32 620  2696 618.68  2696 617  C 2696 615.32  2697.32 614  2699 614  C 2700.68 614  2702 615.32  2702 617  C 2702 618.68  2700.68 620  2699 620  " fill-rule="nonzero" fill="#797979" stroke="none" />
</svg>