<?xml version="1.0" encoding="utf-8"?>
<svg version="1.1" xmlns:xlink="http://www.w3.org/1999/xlink" width="12px" height="12px" viewBox="676 510  12 12" xmlns="http://www.w3.org/2000/svg">
  <path d="M 682 510  C 685.36 510  688 512.64  688 516  C 688 519.36  685.36 522  682 522  C 678.64 522  676 519.36  676 516  C 676 512.64  678.64 510  682 510  Z " fill-rule="nonzero" fill="#f0f0f0" stroke="none" />
  <path d="M 682 510.5  C 685.08 510.5  687.5 512.92  687.5 516  C 687.5 519.08  685.08 521.5  682 521.5  C 678.92 521.5  676.5 519.08  676.5 516  C 676.5 512.92  678.92 510.5  682 510.5  Z " stroke-width="1" stroke="#797979" fill="none" />
  <path d="M 682 519  C 680.32 519  679 517.68  679 516  C 679 514.32  680.32 513  682 513  C 683.68 513  685 514.32  685 516  C 685 517.68  683.68 519  682 519  " fill-rule="nonzero" fill="#797979" stroke="none" />
</svg>