<?xml version="1.0" encoding="utf-8"?>
<svg version="1.1" xmlns:xlink="http://www.w3.org/1999/xlink" width="12px" height="12px" viewBox="596 1638  12 12" xmlns="http://www.w3.org/2000/svg">
  <path d="M 602 1638  C 605.36 1638  608 1640.64  608 1644  C 608 1647.36  605.36 1650  602 1650  C 598.64 1650  596 1647.36  596 1644  C 596 1640.64  598.64 1638  602 1638  Z " fill-rule="nonzero" fill="#ffffff" stroke="none" />
  <path d="M 602 1638.5  C 605.08 1638.5  607.5 1640.92  607.5 1644  C 607.5 1647.08  605.08 1649.5  602 1649.5  C 598.92 1649.5  596.5 1647.08  596.5 1644  C 596.5 1640.92  598.92 1638.5  602 1638.5  Z " stroke-width="1" stroke="#797979" fill="none" />
  <path d="M 602 1647  C 600.32 1647  599 1645.68  599 1644  C 599 1642.32  600.32 1641  602 1641  C 603.68 1641  605 1642.32  605 1644  C 605 1645.68  603.68 1647  602 1647  " fill-rule="nonzero" fill="#797979" stroke="none" />
</svg>