<?xml version="1.0" encoding="utf-8"?>
<svg version="1.1" xmlns:xlink="http://www.w3.org/1999/xlink" width="12px" height="12px" viewBox="596 1777  12 12" xmlns="http://www.w3.org/2000/svg">
  <path d="M 602 1777  C 605.36 1777  608 1779.64  608 1783  C 608 1786.36  605.36 1789  602 1789  C 598.64 1789  596 1786.36  596 1783  C 596 1779.64  598.64 1777  602 1777  Z " fill-rule="nonzero" fill="#f0f0f0" stroke="none" />
  <path d="M 602 1777.5  C 605.08 1777.5  607.5 1779.92  607.5 1783  C 607.5 1786.08  605.08 1788.5  602 1788.5  C 598.92 1788.5  596.5 1786.08  596.5 1783  C 596.5 1779.92  598.92 1777.5  602 1777.5  Z " stroke-width="1" stroke="#797979" fill="none" />
  <path d="M 602 1786  C 600.32 1786  599 1784.68  599 1783  C 599 1781.32  600.32 1780  602 1780  C 603.68 1780  605 1781.32  605 1783  C 605 1784.68  603.68 1786  602 1786  " fill-rule="nonzero" fill="#797979" stroke="none" />
</svg>