<?xml version="1.0" encoding="utf-8"?>
<svg version="1.1" xmlns:xlink="http://www.w3.org/1999/xlink" width="12px" height="12px" viewBox="2655 398  12 12" xmlns="http://www.w3.org/2000/svg">
  <path d="M 2661 398  C 2664.36 398  2667 400.64  2667 404  C 2667 407.36  2664.36 410  2661 410  C 2657.64 410  2655 407.36  2655 404  C 2655 400.64  2657.64 398  2661 398  Z " fill-rule="nonzero" fill="#f0f0f0" stroke="none" />
  <path d="M 2661 398.5  C 2664.08 398.5  2666.5 400.92  2666.5 404  C 2666.5 407.08  2664.08 409.5  2661 409.5  C 2657.92 409.5  2655.5 407.08  2655.5 404  C 2655.5 400.92  2657.92 398.5  2661 398.5  Z " stroke-width="1" stroke="#797979" fill="none" />
  <path d="M 2661 407  C 2659.32 407  2658 405.68  2658 404  C 2658 402.32  2659.32 401  2661 401  C 2662.68 401  2664 402.32  2664 404  C 2664 405.68  2662.68 407  2661 407  " fill-rule="nonzero" fill="#797979" stroke="none" />
</svg>