<?xml version="1.0" encoding="utf-8"?>
<svg version="1.1" xmlns:xlink="http://www.w3.org/1999/xlink" width="12px" height="12px" viewBox="696 1673  12 12" xmlns="http://www.w3.org/2000/svg">
  <path d="M 702 1673  C 705.36 1673  708 1675.64  708 1679  C 708 1682.36  705.36 1685  702 1685  C 698.64 1685  696 1682.36  696 1679  C 696 1675.64  698.64 1673  702 1673  Z " fill-rule="nonzero" fill="#ffffff" stroke="none" />
  <path d="M 702 1673.5  C 705.08 1673.5  707.5 1675.92  707.5 1679  C 707.5 1682.08  705.08 1684.5  702 1684.5  C 698.92 1684.5  696.5 1682.08  696.5 1679  C 696.5 1675.92  698.92 1673.5  702 1673.5  Z " stroke-width="1" stroke="#797979" fill="none" />
  <path d="M 702 1682  C 700.32 1682  699 1680.68  699 1679  C 699 1677.32  700.32 1676  702 1676  C 703.68 1676  705 1677.32  705 1679  C 705 1680.68  703.68 1682  702 1682  " fill-rule="nonzero" fill="#797979" stroke="none" />
</svg>