<?xml version="1.0" encoding="utf-8"?>
<svg version="1.1" xmlns:xlink="http://www.w3.org/1999/xlink" width="12px" height="12px" viewBox="608 505  12 12" xmlns="http://www.w3.org/2000/svg">
  <path d="M 614 505  C 617.36 505  620 507.64  620 511  C 620 514.36  617.36 517  614 517  C 610.64 517  608 514.36  608 511  C 608 507.64  610.64 505  614 505  Z " fill-rule="nonzero" fill="#f0f0f0" stroke="none" />
  <path d="M 614 505.5  C 617.08 505.5  619.5 507.92  619.5 511  C 619.5 514.08  617.08 516.5  614 516.5  C 610.92 516.5  608.5 514.08  608.5 511  C 608.5 507.92  610.92 505.5  614 505.5  Z " stroke-width="1" stroke="#797979" fill="none" />
  <path d="M 614 514  C 612.32 514  611 512.68  611 511  C 611 509.32  612.32 508  614 508  C 615.68 508  617 509.32  617 511  C 617 512.68  615.68 514  614 514  " fill-rule="nonzero" fill="#797979" stroke="none" />
</svg>