<?xml version="1.0" encoding="utf-8"?>
<svg version="1.1" xmlns:xlink="http://www.w3.org/1999/xlink" width="12px" height="12px" viewBox="701 709  12 12" xmlns="http://www.w3.org/2000/svg">
  <path d="M 707 709  C 710.36 709  713 711.64  713 715  C 713 718.36  710.36 721  707 721  C 703.64 721  701 718.36  701 715  C 701 711.64  703.64 709  707 709  Z " fill-rule="nonzero" fill="#ffffff" stroke="none" />
  <path d="M 707 709.5  C 710.08 709.5  712.5 711.92  712.5 715  C 712.5 718.08  710.08 720.5  707 720.5  C 703.92 720.5  701.5 718.08  701.5 715  C 701.5 711.92  703.92 709.5  707 709.5  Z " stroke-width="1" stroke="#797979" fill="none" />
  <path d="M 707 718  C 705.32 718  704 716.68  704 715  C 704 713.32  705.32 712  707 712  C 708.68 712  710 713.32  710 715  C 710 716.68  708.68 718  707 718  " fill-rule="nonzero" fill="#797979" stroke="none" />
</svg>