<?xml version="1.0" encoding="utf-8"?>
<svg version="1.1" xmlns:xlink="http://www.w3.org/1999/xlink" width="12px" height="12px" viewBox="706 632  12 12" xmlns="http://www.w3.org/2000/svg">
  <path d="M 712 632  C 715.36 632  718 634.64  718 638  C 718 641.36  715.36 644  712 644  C 708.64 644  706 641.36  706 638  C 706 634.64  708.64 632  712 632  Z " fill-rule="nonzero" fill="#ffffff" stroke="none" />
  <path d="M 712 632.5  C 715.08 632.5  717.5 634.92  717.5 638  C 717.5 641.08  715.08 643.5  712 643.5  C 708.92 643.5  706.5 641.08  706.5 638  C 706.5 634.92  708.92 632.5  712 632.5  Z " stroke-width="1" stroke="#797979" fill="none" />
  <path d="M 712 641  C 710.32 641  709 639.68  709 638  C 709 636.32  710.32 635  712 635  C 713.68 635  715 636.32  715 638  C 715 639.68  713.68 641  712 641  " fill-rule="nonzero" fill="#797979" stroke="none" />
</svg>