<?xml version="1.0" encoding="utf-8"?>
<svg version="1.1" xmlns:xlink="http://www.w3.org/1999/xlink" width="12px" height="12px" viewBox="601 709  12 12" xmlns="http://www.w3.org/2000/svg">
  <path d="M 607 709  C 610.36 709  613 711.64  613 715  C 613 718.36  610.36 721  607 721  C 603.64 721  601 718.36  601 715  C 601 711.64  603.64 709  607 709  Z " fill-rule="nonzero" fill="#f0f0f0" stroke="none" />
  <path d="M 607 709.5  C 610.08 709.5  612.5 711.92  612.5 715  C 612.5 718.08  610.08 720.5  607 720.5  C 603.92 720.5  601.5 718.08  601.5 715  C 601.5 711.92  603.92 709.5  607 709.5  Z " stroke-width="1" stroke="#797979" fill="none" />
  <path d="M 607 718  C 605.32 718  604 716.68  604 715  C 604 713.32  605.32 712  607 712  C 608.68 712  610 713.32  610 715  C 610 716.68  608.68 718  607 718  " fill-rule="nonzero" fill="#797979" stroke="none" />
</svg>