<?xml version="1.0" encoding="utf-8"?>
<svg version="1.1" xmlns:xlink="http://www.w3.org/1999/xlink" width="136px" height="95px" xmlns="http://www.w3.org/2000/svg">
  <defs>
    <mask fill="white" id="clip331">
      <path d="M 8 95  L 8 8.98686679174489  L 0 5.38805970149258  L 8 4.67910447761187  L 8 0  L 136 0  L 136 95  L 8 95  Z " fill-rule="evenodd" />
    </mask>
  </defs>
  <g transform="matrix(1 0 0 1 -210 -570 )">
    <path d="M 8 95  L 8 8.98686679174489  L 0 5.38805970149258  L 8 4.67910447761187  L 8 0  L 136 0  L 136 95  L 8 95  Z " fill-rule="nonzero" fill="#ffffff" stroke="none" transform="matrix(1 0 0 1 210 570 )" />
    <path d="M 8 95  L 8 8.98686679174489  L 0 5.38805970149258  L 8 4.67910447761187  L 8 0  L 136 0  L 136 95  L 8 95  Z " stroke-width="2" stroke="#797979" fill="none" transform="matrix(1 0 0 1 210 570 )" mask="url(#clip331)" />
  </g>
</svg>