<?xml version="1.0" encoding="utf-8"?>
<svg version="1.1" xmlns:xlink="http://www.w3.org/1999/xlink" width="12px" height="12px" viewBox="647 331  12 12" xmlns="http://www.w3.org/2000/svg">
  <path d="M 653 331  C 656.36 331  659 333.64  659 337  C 659 340.36  656.36 343  653 343  C 649.64 343  647 340.36  647 337  C 647 333.64  649.64 331  653 331  Z " fill-rule="nonzero" fill="#ffffff" stroke="none" />
  <path d="M 653 331.5  C 656.08 331.5  658.5 333.92  658.5 337  C 658.5 340.08  656.08 342.5  653 342.5  C 649.92 342.5  647.5 340.08  647.5 337  C 647.5 333.92  649.92 331.5  653 331.5  Z " stroke-width="1" stroke="#797979" fill="none" />
  <path d="M 653 340  C 651.32 340  650 338.68  650 337  C 650 335.32  651.32 334  653 334  C 654.68 334  656 335.32  656 337  C 656 338.68  654.68 340  653 340  " fill-rule="nonzero" fill="#797979" stroke="none" />
</svg>