<?xml version="1.0" encoding="utf-8"?>
<svg version="1.1" xmlns:xlink="http://www.w3.org/1999/xlink" width="12px" height="12px" viewBox="737 331  12 12" xmlns="http://www.w3.org/2000/svg">
  <path d="M 743 331  C 746.36 331  749 333.64  749 337  C 749 340.36  746.36 343  743 343  C 739.64 343  737 340.36  737 337  C 737 333.64  739.64 331  743 331  Z " fill-rule="nonzero" fill="#f0f0f0" stroke="none" />
  <path d="M 743 331.5  C 746.08 331.5  748.5 333.92  748.5 337  C 748.5 340.08  746.08 342.5  743 342.5  C 739.92 342.5  737.5 340.08  737.5 337  C 737.5 333.92  739.92 331.5  743 331.5  Z " stroke-width="1" stroke="#797979" fill="none" />
  <path d="M 743 340  C 741.32 340  740 338.68  740 337  C 740 335.32  741.32 334  743 334  C 744.68 334  746 335.32  746 337  C 746 338.68  744.68 340  743 340  " fill-rule="nonzero" fill="#797979" stroke="none" />
</svg>