<?xml version="1.0" encoding="utf-8"?>
<svg version="1.1" xmlns:xlink="http://www.w3.org/1999/xlink" width="12px" height="12px" viewBox="807 484  12 12" xmlns="http://www.w3.org/2000/svg">
  <path d="M 813 484  C 816.36 484  819 486.64  819 490  C 819 493.36  816.36 496  813 496  C 809.64 496  807 493.36  807 490  C 807 486.64  809.64 484  813 484  Z " fill-rule="nonzero" fill="#ffffff" stroke="none" />
  <path d="M 813 484.5  C 816.08 484.5  818.5 486.92  818.5 490  C 818.5 493.08  816.08 495.5  813 495.5  C 809.92 495.5  807.5 493.08  807.5 490  C 807.5 486.92  809.92 484.5  813 484.5  Z " stroke-width="1" stroke="#797979" fill="none" />
  <path d="M 813 493  C 811.32 493  810 491.68  810 490  C 810 488.32  811.32 487  813 487  C 814.68 487  816 488.32  816 490  C 816 491.68  814.68 493  813 493  " fill-rule="nonzero" fill="#797979" stroke="none" />
</svg>