<?xml version="1.0" encoding="utf-8"?>
<svg version="1.1" xmlns:xlink="http://www.w3.org/1999/xlink" width="12px" height="12px" viewBox="582 517  12 12" xmlns="http://www.w3.org/2000/svg">
  <path d="M 588 517  C 591.36 517  594 519.64  594 523  C 594 526.36  591.36 529  588 529  C 584.64 529  582 526.36  582 523  C 582 519.64  584.64 517  588 517  Z " fill-rule="nonzero" fill="#f0f0f0" stroke="none" />
  <path d="M 588 517.5  C 591.08 517.5  593.5 519.92  593.5 523  C 593.5 526.08  591.08 528.5  588 528.5  C 584.92 528.5  582.5 526.08  582.5 523  C 582.5 519.92  584.92 517.5  588 517.5  Z " stroke-width="1" stroke="#797979" fill="none" />
  <path d="M 588 526  C 586.32 526  585 524.68  585 523  C 585 521.32  586.32 520  588 520  C 589.68 520  591 521.32  591 523  C 591 524.68  589.68 526  588 526  " fill-rule="nonzero" fill="#797979" stroke="none" />
</svg>