<?xml version="1.0" encoding="utf-8"?>
<svg version="1.1" xmlns:xlink="http://www.w3.org/1999/xlink" width="12px" height="12px" viewBox="682 484  12 12" xmlns="http://www.w3.org/2000/svg">
  <path d="M 688 484  C 691.36 484  694 486.64  694 490  C 694 493.36  691.36 496  688 496  C 684.64 496  682 493.36  682 490  C 682 486.64  684.64 484  688 484  Z " fill-rule="nonzero" fill="#ffffff" stroke="none" />
  <path d="M 688 484.5  C 691.08 484.5  693.5 486.92  693.5 490  C 693.5 493.08  691.08 495.5  688 495.5  C 684.92 495.5  682.5 493.08  682.5 490  C 682.5 486.92  684.92 484.5  688 484.5  Z " stroke-width="1" stroke="#797979" fill="none" />
  <path d="M 688 493  C 686.32 493  685 491.68  685 490  C 685 488.32  686.32 487  688 487  C 689.68 487  691 488.32  691 490  C 691 491.68  689.68 493  688 493  " fill-rule="nonzero" fill="#797979" stroke="none" />
</svg>