<?xml version="1.0" encoding="utf-8"?>
<svg version="1.1" xmlns:xlink="http://www.w3.org/1999/xlink" width="12px" height="12px" viewBox="803 350  12 12" xmlns="http://www.w3.org/2000/svg">
  <path d="M 809 350  C 812.36 350  815 352.64  815 356  C 815 359.36  812.36 362  809 362  C 805.64 362  803 359.36  803 356  C 803 352.64  805.64 350  809 350  Z " fill-rule="nonzero" fill="#ffffff" stroke="none" />
  <path d="M 809 350.5  C 812.08 350.5  814.5 352.92  814.5 356  C 814.5 359.08  812.08 361.5  809 361.5  C 805.92 361.5  803.5 359.08  803.5 356  C 803.5 352.92  805.92 350.5  809 350.5  Z " stroke-width="1" stroke="#797979" fill="none" />
  <path d="M 809 359  C 807.32 359  806 357.68  806 356  C 806 354.32  807.32 353  809 353  C 810.68 353  812 354.32  812 356  C 812 357.68  810.68 359  809 359  " fill-rule="nonzero" fill="#797979" stroke="none" />
</svg>