<?xml version="1.0" encoding="utf-8"?>
<svg version="1.1" xmlns:xlink="http://www.w3.org/1999/xlink" width="12px" height="12px" viewBox="903 350  12 12" xmlns="http://www.w3.org/2000/svg">
  <path d="M 909 350  C 912.36 350  915 352.64  915 356  C 915 359.36  912.36 362  909 362  C 905.64 362  903 359.36  903 356  C 903 352.64  905.64 350  909 350  Z " fill-rule="nonzero" fill="#ffffff" stroke="none" />
  <path d="M 909 350.5  C 912.08 350.5  914.5 352.92  914.5 356  C 914.5 359.08  912.08 361.5  909 361.5  C 905.92 361.5  903.5 359.08  903.5 356  C 903.5 352.92  905.92 350.5  909 350.5  Z " stroke-width="1" stroke="#797979" fill="none" />
  <path d="M 909 359  C 907.32 359  906 357.68  906 356  C 906 354.32  907.32 353  909 353  C 910.68 353  912 354.32  912 356  C 912 357.68  910.68 359  909 359  " fill-rule="nonzero" fill="#797979" stroke="none" />
</svg>