<?xml version="1.0" encoding="utf-8"?>
<svg version="1.1" xmlns:xlink="http://www.w3.org/1999/xlink" width="12px" height="12px" viewBox="703 314  12 12" xmlns="http://www.w3.org/2000/svg">
  <path d="M 709 314  C 712.36 314  715 316.64  715 320  C 715 323.36  712.36 326  709 326  C 705.64 326  703 323.36  703 320  C 703 316.64  705.64 314  709 314  Z " fill-rule="nonzero" fill="#ffffff" stroke="none" />
  <path d="M 709 314.5  C 712.08 314.5  714.5 316.92  714.5 320  C 714.5 323.08  712.08 325.5  709 325.5  C 705.92 325.5  703.5 323.08  703.5 320  C 703.5 316.92  705.92 314.5  709 314.5  Z " stroke-width="1" stroke="#797979" fill="none" />
  <path d="M 709 323  C 707.32 323  706 321.68  706 320  C 706 318.32  707.32 317  709 317  C 710.68 317  712 318.32  712 320  C 712 321.68  710.68 323  709 323  " fill-rule="nonzero" fill="#797979" stroke="none" />
</svg>