<?xml version="1.0" encoding="utf-8"?>
<svg version="1.1" xmlns:xlink="http://www.w3.org/1999/xlink" width="12px" height="12px" viewBox="601 552  12 12" xmlns="http://www.w3.org/2000/svg">
  <path d="M 607 552  C 610.36 552  613 554.64  613 558  C 613 561.36  610.36 564  607 564  C 603.64 564  601 561.36  601 558  C 601 554.64  603.64 552  607 552  Z " fill-rule="nonzero" fill="#ffffff" stroke="none" />
  <path d="M 607 552.5  C 610.08 552.5  612.5 554.92  612.5 558  C 612.5 561.08  610.08 563.5  607 563.5  C 603.92 563.5  601.5 561.08  601.5 558  C 601.5 554.92  603.92 552.5  607 552.5  Z " stroke-width="1" stroke="#797979" fill="none" />
  <path d="M 607 561  C 605.32 561  604 559.68  604 558  C 604 556.32  605.32 555  607 555  C 608.68 555  610 556.32  610 558  C 610 559.68  608.68 561  607 561  " fill-rule="nonzero" fill="#797979" stroke="none" />
</svg>