<?xml version="1.0" encoding="utf-8"?>
<svg version="1.1" xmlns:xlink="http://www.w3.org/1999/xlink" width="12px" height="12px" viewBox="603 314  12 12" xmlns="http://www.w3.org/2000/svg">
  <path d="M 609 314  C 612.36 314  615 316.64  615 320  C 615 323.36  612.36 326  609 326  C 605.64 326  603 323.36  603 320  C 603 316.64  605.64 314  609 314  Z " fill-rule="nonzero" fill="#f0f0f0" stroke="none" />
  <path d="M 609 314.5  C 612.08 314.5  614.5 316.92  614.5 320  C 614.5 323.08  612.08 325.5  609 325.5  C 605.92 325.5  603.5 323.08  603.5 320  C 603.5 316.92  605.92 314.5  609 314.5  Z " stroke-width="1" stroke="#797979" fill="none" />
  <path d="M 609 323  C 607.32 323  606 321.68  606 320  C 606 318.32  607.32 317  609 317  C 610.68 317  612 318.32  612 320  C 612 321.68  610.68 323  609 323  " fill-rule="nonzero" fill="#797979" stroke="none" />
</svg>