<?xml version="1.0" encoding="utf-8"?>
<svg version="1.1" xmlns:xlink="http://www.w3.org/1999/xlink" width="12px" height="12px" viewBox="601 350  12 12" xmlns="http://www.w3.org/2000/svg">
  <path d="M 607 350  C 610.36 350  613 352.64  613 356  C 613 359.36  610.36 362  607 362  C 603.64 362  601 359.36  601 356  C 601 352.64  603.64 350  607 350  Z " fill-rule="nonzero" fill="#f0f0f0" stroke="none" />
  <path d="M 607 350.5  C 610.08 350.5  612.5 352.92  612.5 356  C 612.5 359.08  610.08 361.5  607 361.5  C 603.92 361.5  601.5 359.08  601.5 356  C 601.5 352.92  603.92 350.5  607 350.5  Z " stroke-width="1" stroke="#797979" fill="none" />
  <path d="M 607 359  C 605.32 359  604 357.68  604 356  C 604 354.32  605.32 353  607 353  C 608.68 353  610 354.32  610 356  C 610 357.68  608.68 359  607 359  " fill-rule="nonzero" fill="#797979" stroke="none" />
</svg>