<?xml version="1.0" encoding="utf-8"?>
<svg version="1.1" xmlns:xlink="http://www.w3.org/1999/xlink" width="12px" height="12px" viewBox="703 350  12 12" xmlns="http://www.w3.org/2000/svg">
  <path d="M 709 350  C 712.36 350  715 352.64  715 356  C 715 359.36  712.36 362  709 362  C 705.64 362  703 359.36  703 356  C 703 352.64  705.64 350  709 350  Z " fill-rule="nonzero" fill="#ffffff" stroke="none" />
  <path d="M 709 350.5  C 712.08 350.5  714.5 352.92  714.5 356  C 714.5 359.08  712.08 361.5  709 361.5  C 705.92 361.5  703.5 359.08  703.5 356  C 703.5 352.92  705.92 350.5  709 350.5  Z " stroke-width="1" stroke="#797979" fill="none" />
  <path d="M 709 359  C 707.32 359  706 357.68  706 356  C 706 354.32  707.32 353  709 353  C 710.68 353  712 354.32  712 356  C 712 357.68  710.68 359  709 359  " fill-rule="nonzero" fill="#797979" stroke="none" />
</svg>