<?xml version="1.0" encoding="utf-8"?>
<svg version="1.1" xmlns:xlink="http://www.w3.org/1999/xlink" width="24px" height="26px" xmlns="http://www.w3.org/2000/svg">
  <g transform="matrix(1 0 0 1 -1449 -693 )">
    <path d="M 1.84000000000015 19.9642857142857  L 1.84000000000015 24.1428571428571  L 5.98000000000002 24.1428571428571  L 5.98000000000002 19.9642857142857  L 1.84000000000015 19.9642857142857  Z M 6.89999999999986 19.9642857142857  L 6.89999999999986 24.1428571428571  L 11.4999999999998 24.1428571428571  L 11.4999999999998 19.9642857142857  L 6.89999999999986 19.9642857142857  Z M 1.84000000000015 14.3928571428571  L 1.84000000000015 19.0357142857143  L 5.98000000000002 19.0357142857143  L 5.98000000000002 14.3928571428571  L 1.84000000000015 14.3928571428571  Z M 6.89999999999986 14.3928571428571  L 6.89999999999986 19.0357142857143  L 11.4999999999998 19.0357142857143  L 11.4999999999998 14.3928571428571  L 6.89999999999986 14.3928571428571  Z M 1.84000000000015 9.28571428571433  L 1.84000000000015 13.4642857142857  L 5.98000000000002 13.4642857142857  L 5.98000000000002 9.28571428571433  L 1.84000000000015 9.28571428571433  Z M 12.4199999999998 19.9642857142857  L 12.4199999999998 24.1428571428571  L 17.02 24.1428571428571  L 17.02 19.9642857142857  L 12.4199999999998 19.9642857142857  Z M 6.89999999999986 9.28571428571433  L 6.89999999999986 13.4642857142857  L 11.4999999999998 13.4642857142857  L 11.4999999999998 9.28571428571433  L 6.89999999999986 9.28571428571433  Z M 17.9399999999998 19.9642857142857  L 17.9399999999998 24.1428571428571  L 22.0799999999999 24.1428571428571  L 22.0799999999999 19.9642857142857  L 17.9399999999998 19.9642857142857  Z M 12.4199999999998 14.3928571428571  L 12.4199999999998 19.0357142857143  L 17.02 19.0357142857143  L 17.02 14.3928571428571  L 12.4199999999998 14.3928571428571  Z M 7.22343750000005 6.82645089285711  C 7.31447916666662 6.7345610119047  7.3599999999999 6.62574404761904  7.3599999999999 6.5  L 7.3599999999999 2.32142857142856  C 7.3599999999999 2.19568452380952  7.31447916666662 2.08686755952385  7.22343750000005 1.99497767857144  C 7.13239583333348 1.90308779761904  7.02458333333334 1.85714285714289  6.89999999999986 1.85714285714289  L 5.98000000000002 1.85714285714289  C 5.85541666666677 1.85714285714289  5.74760416666663 1.90308779761904  5.65656249999984 1.99497767857144  C 5.56552083333327 2.08686755952385  5.51999999999998 2.19568452380952  5.51999999999998 2.32142857142856  L 5.51999999999998 6.5  C 5.51999999999998 6.62574404761904  5.56552083333327 6.7345610119047  5.65656249999984 6.82645089285711  C 5.74760416666663 6.91834077380952  5.85541666666677 6.96428571428566  5.98000000000002 6.96428571428566  L 6.89999999999986 6.96428571428566  C 7.02458333333334 6.96428571428566  7.13239583333348 6.91834077380952  7.22343750000005 6.82645089285711  Z M 17.9399999999998 14.3928571428571  L 17.9399999999998 19.0357142857143  L 22.0799999999999 19.0357142857143  L 22.0799999999999 14.3928571428571  L 17.9399999999998 14.3928571428571  Z M 12.4199999999998 9.28571428571433  L 12.4199999999998 13.4642857142857  L 17.02 13.4642857142857  L 17.02 9.28571428571433  L 12.4199999999998 9.28571428571433  Z M 17.9399999999998 9.28571428571433  L 17.9399999999998 13.4642857142857  L 22.0799999999999 13.4642857142857  L 22.0799999999999 9.28571428571433  L 17.9399999999998 9.28571428571433  Z M 18.2634374999998 6.82645089285711  C 18.3544791666666 6.7345610119047  18.3999999999999 6.62574404761904  18.3999999999999 6.5  L 18.3999999999999 2.32142857142856  C 18.3999999999999 2.19568452380952  18.3544791666666 2.08686755952385  18.2634374999998 1.99497767857144  C 18.1723958333332 1.90308779761904  18.0645833333333 1.85714285714289  17.9399999999998 1.85714285714289  L 17.02 1.85714285714289  C 16.8954166666665 1.85714285714289  16.7876041666666 1.90308779761904  16.6965625 1.99497767857144  C 16.6055208333332 2.08686755952385  16.5599999999999 2.19568452380952  16.5599999999999 2.32142857142856  L 16.5599999999999 6.5  C 16.5599999999999 6.62574404761904  16.6055208333332 6.7345610119047  16.6965625 6.82645089285711  C 16.7876041666666 6.91834077380952  16.8954166666665 6.96428571428566  17.02 6.96428571428566  L 17.9399999999998 6.96428571428566  C 18.0645833333333 6.96428571428566  18.1723958333332 6.91834077380952  18.2634374999998 6.82645089285711  Z M 23.3737499999997 4.265625  C 23.7379166666665 4.63318452380952  23.9199999999998 5.06845238095241  24 5.57142857142856  L 24 24.1428571428571  C 23.9199999999998 24.6458333333333  23.7379166666665 25.0811011904761  23.3737499999997 25.4486607142857  C 23.0095833333332 25.8162202380953  22.5783333333331 26  22.0799999999999 26  L 1.84000000000015 26  C 1.34166666666647 26  0.910416666666606 25.8162202380953  0.546249999999873 25.4486607142857  C 0.182083333333367 25.0811011904761  0 24.6458333333333  0 24.1428571428571  L 0 5.57142857142856  C 0 5.06845238095241  0.182083333333367 4.63318452380952  0.546249999999873 4.265625  C 0.910416666666606 3.89806547619048  1.34166666666647 3.71428571428567  1.84000000000015 3.71428571428567  L 3.67999999999984 3.71428571428567  L 3.67999999999984 2.32142857142856  C 3.67999999999984 1.68303571428567  3.90520833333335 1.1365327380953  4.35562499999992 0.68191964285711  C 4.80604166666672 0.227306547619037  5.34750000000008 0  5.98000000000002 0  L 6.89999999999986 0  C 7.5324999999998 0  8.07395833333317 0.227306547619037  8.52437499999996 0.68191964285711  C 8.97479166666653 1.1365327380953  9.20000000000005 1.68303571428567  9.20000000000005 2.32142857142856  L 9.20000000000005 3.71428571428567  L 14.72 3.71428571428567  L 14.72 2.32142857142856  C 14.72 1.68303571428567  14.9452083333331 1.1365327380953  15.3956249999999 0.68191964285711  C 15.8460416666665 0.227306547619037  16.3874999999998 0  17.02 0  L 17.9399999999998 0  C 18.5725 0  19.1139583333334 0.227306547619037  19.5643749999999 0.68191964285711  C 20.0147916666665 1.1365327380953  20.2399999999998 1.68303571428567  20.2399999999998 2.32142857142856  L 20.2399999999998 3.71428571428567  L 22.0799999999999 3.71428571428567  C 22.5783333333331 3.71428571428567  23.0095833333332 3.89806547619048  23.3737499999997 4.265625  Z " fill-rule="nonzero" fill="#000000" stroke="none" transform="matrix(1 0 0 1 1449 693 )" />
  </g>
</svg>