<?xml version="1.0" encoding="utf-8"?>
<svg version="1.1" xmlns:xlink="http://www.w3.org/1999/xlink" width="12px" height="12px" viewBox="647 547  12 12" xmlns="http://www.w3.org/2000/svg">
  <path d="M 653 547  C 656.36 547  659 549.64  659 553  C 659 556.36  656.36 559  653 559  C 649.64 559  647 556.36  647 553  C 647 549.64  649.64 547  653 547  Z " fill-rule="nonzero" fill="#f0f0f0" stroke="none" />
  <path d="M 653 547.5  C 656.08 547.5  658.5 549.92  658.5 553  C 658.5 556.08  656.08 558.5  653 558.5  C 649.92 558.5  647.5 556.08  647.5 553  C 647.5 549.92  649.92 547.5  653 547.5  Z " stroke-width="1" stroke="#797979" fill="none" />
  <path d="M 653 556  C 651.32 556  650 554.68  650 553  C 650 551.32  651.32 550  653 550  C 654.68 550  656 551.32  656 553  C 656 554.68  654.68 556  653 556  " fill-rule="nonzero" fill="#797979" stroke="none" />
</svg>