<?xml version="1.0" encoding="utf-8"?>
<svg version="1.1" xmlns:xlink="http://www.w3.org/1999/xlink" width="12px" height="12px" viewBox="747 426  12 12" xmlns="http://www.w3.org/2000/svg">
  <path d="M 753 426  C 756.36 426  759 428.64  759 432  C 759 435.36  756.36 438  753 438  C 749.64 438  747 435.36  747 432  C 747 428.64  749.64 426  753 426  Z " fill-rule="nonzero" fill="#ffffff" stroke="none" />
  <path d="M 753 426.5  C 756.08 426.5  758.5 428.92  758.5 432  C 758.5 435.08  756.08 437.5  753 437.5  C 749.92 437.5  747.5 435.08  747.5 432  C 747.5 428.92  749.92 426.5  753 426.5  Z " stroke-width="1" stroke="#797979" fill="none" />
  <path d="M 753 435  C 751.32 435  750 433.68  750 432  C 750 430.32  751.32 429  753 429  C 754.68 429  756 430.32  756 432  C 756 433.68  754.68 435  753 435  " fill-rule="nonzero" fill="#797979" stroke="none" />
</svg>