<?xml version="1.0" encoding="utf-8"?>
<svg version="1.1" xmlns:xlink="http://www.w3.org/1999/xlink" width="12px" height="12px" viewBox="647 426  12 12" xmlns="http://www.w3.org/2000/svg">
  <path d="M 653 426  C 656.36 426  659 428.64  659 432  C 659 435.36  656.36 438  653 438  C 649.64 438  647 435.36  647 432  C 647 428.64  649.64 426  653 426  Z " fill-rule="nonzero" fill="#f0f0f0" stroke="none" />
  <path d="M 653 426.5  C 656.08 426.5  658.5 428.92  658.5 432  C 658.5 435.08  656.08 437.5  653 437.5  C 649.92 437.5  647.5 435.08  647.5 432  C 647.5 428.92  649.92 426.5  653 426.5  Z " stroke-width="1" stroke="#797979" fill="none" />
  <path d="M 653 435  C 651.32 435  650 433.68  650 432  C 650 430.32  651.32 429  653 429  C 654.68 429  656 430.32  656 432  C 656 433.68  654.68 435  653 435  " fill-rule="nonzero" fill="#797979" stroke="none" />
</svg>