<?xml version="1.0" encoding="utf-8"?>
<svg version="1.1" xmlns:xlink="http://www.w3.org/1999/xlink" width="12px" height="12px" viewBox="857 426  12 12" xmlns="http://www.w3.org/2000/svg">
  <path d="M 863 426  C 866.36 426  869 428.64  869 432  C 869 435.36  866.36 438  863 438  C 859.64 438  857 435.36  857 432  C 857 428.64  859.64 426  863 426  Z " fill-rule="nonzero" fill="#f0f0f0" stroke="none" />
  <path d="M 863 426.5  C 866.08 426.5  868.5 428.92  868.5 432  C 868.5 435.08  866.08 437.5  863 437.5  C 859.92 437.5  857.5 435.08  857.5 432  C 857.5 428.92  859.92 426.5  863 426.5  Z " stroke-width="1" stroke="#797979" fill="none" />
  <path d="M 863 435  C 861.32 435  860 433.68  860 432  C 860 430.32  861.32 429  863 429  C 864.68 429  866 430.32  866 432  C 866 433.68  864.68 435  863 435  " fill-rule="nonzero" fill="#797979" stroke="none" />
</svg>