<?xml version="1.0" encoding="utf-8"?>
<svg version="1.1" xmlns:xlink="http://www.w3.org/1999/xlink" width="32px" height="32px" xmlns="http://www.w3.org/2000/svg">
  <g transform="matrix(1 0 0 1 -685 -223 )">
    <path d="M 701 223  C 709.96 223  717 230.04  717 239  C 717 247.96  709.96 255  701 255  C 692.04 255  685 247.96  685 239  C 685 230.04  692.04 223  701 223  Z " fill-rule="nonzero" fill="#ffffff" stroke="none" />
    <path d="M 701 223.5  C 709.68 223.5  716.5 230.32  716.5 239  C 716.5 247.68  709.68 254.5  701 254.5  C 692.32 254.5  685.5 247.68  685.5 239  C 685.5 230.32  692.32 223.5  701 223.5  Z " stroke-width="1" stroke="#1890ff" fill="none" />
  </g>
</svg>