<?xml version="1.0" encoding="utf-8"?>
<svg version="1.1" xmlns:xlink="http://www.w3.org/1999/xlink" width="12px" height="12px" viewBox="582 467  12 12" xmlns="http://www.w3.org/2000/svg">
  <path d="M 588 467  C 591.36 467  594 469.64  594 473  C 594 476.36  591.36 479  588 479  C 584.64 479  582 476.36  582 473  C 582 469.64  584.64 467  588 467  Z " fill-rule="nonzero" fill="#ffffff" stroke="none" />
  <path d="M 588 467.5  C 591.08 467.5  593.5 469.92  593.5 473  C 593.5 476.08  591.08 478.5  588 478.5  C 584.92 478.5  582.5 476.08  582.5 473  C 582.5 469.92  584.92 467.5  588 467.5  Z " stroke-width="1" stroke="#797979" fill="none" />
  <path d="M 588 476  C 586.32 476  585 474.68  585 473  C 585 471.32  586.32 470  588 470  C 589.68 470  591 471.32  591 473  C 591 474.68  589.68 476  588 476  " fill-rule="nonzero" fill="#797979" stroke="none" />
</svg>