<?xml version="1.0" encoding="utf-8"?>
<svg version="1.1" xmlns:xlink="http://www.w3.org/1999/xlink" width="12px" height="12px" viewBox="804 434  12 12" xmlns="http://www.w3.org/2000/svg">
  <path d="M 810 434  C 813.36 434  816 436.64  816 440  C 816 443.36  813.36 446  810 446  C 806.64 446  804 443.36  804 440  C 804 436.64  806.64 434  810 434  Z " fill-rule="nonzero" fill="#f0f0f0" stroke="none" />
  <path d="M 810 434.5  C 813.08 434.5  815.5 436.92  815.5 440  C 815.5 443.08  813.08 445.5  810 445.5  C 806.92 445.5  804.5 443.08  804.5 440  C 804.5 436.92  806.92 434.5  810 434.5  Z " stroke-width="1" stroke="#797979" fill="none" />
  <path d="M 810 443  C 808.32 443  807 441.68  807 440  C 807 438.32  808.32 437  810 437  C 811.68 437  813 438.32  813 440  C 813 441.68  811.68 443  810 443  " fill-rule="nonzero" fill="#797979" stroke="none" />
</svg>