<?xml version="1.0" encoding="utf-8"?>
<svg version="1.1" xmlns:xlink="http://www.w3.org/1999/xlink" width="12px" height="12px" viewBox="682 468  12 12" xmlns="http://www.w3.org/2000/svg">
  <path d="M 688 468  C 691.36 468  694 470.64  694 474  C 694 477.36  691.36 480  688 480  C 684.64 480  682 477.36  682 474  C 682 470.64  684.64 468  688 468  Z " fill-rule="nonzero" fill="#f0f0f0" stroke="none" />
  <path d="M 688 468.5  C 691.08 468.5  693.5 470.92  693.5 474  C 693.5 477.08  691.08 479.5  688 479.5  C 684.92 479.5  682.5 477.08  682.5 474  C 682.5 470.92  684.92 468.5  688 468.5  Z " stroke-width="1" stroke="#797979" fill="none" />
  <path d="M 688 477  C 686.32 477  685 475.68  685 474  C 685 472.32  686.32 471  688 471  C 689.68 471  691 472.32  691 474  C 691 475.68  689.68 477  688 477  " fill-rule="nonzero" fill="#797979" stroke="none" />
</svg>