<?xml version="1.0" encoding="utf-8"?>
<svg version="1.1" xmlns:xlink="http://www.w3.org/1999/xlink" width="12px" height="12px" xmlns="http://www.w3.org/2000/svg">
  <g transform="matrix(1 0 0 1 -2074 -411 )">
    <path d="M 2080 411  C 2083.36 411  2086 413.64  2086 417  C 2086 420.36  2083.36 423  2080 423  C 2076.64 423  2074 420.36  2074 417  C 2074 413.64  2076.64 411  2080 411  Z " fill-rule="nonzero" fill="#ffffff" stroke="none" />
    <path d="M 2080 411.5  C 2083.08 411.5  2085.5 413.92  2085.5 417  C 2085.5 420.08  2083.08 422.5  2080 422.5  C 2076.92 422.5  2074.5 420.08  2074.5 417  C 2074.5 413.92  2076.92 411.5  2080 411.5  Z " stroke-width="1" stroke="#797979" fill="none" />
  </g>
</svg>