<?xml version="1.0" encoding="utf-8"?>
<svg version="1.1" xmlns:xlink="http://www.w3.org/1999/xlink" width="29px" height="40px" xmlns="http://www.w3.org/2000/svg">
  <g transform="matrix(1 0 0 1 -836 -612 )">
    <path d="M 28.5199610516066 11.5422885572139  C 29.0282375851996 12.1487799099739  29.1129503407984 12.7931769722814  28.7740993184031 13.4754797441365  C 28.4352482960078 14.1767353707652  27.8893216488153 14.5273631840796  27.1363193768257 14.5273631840796  L 21.7147030185005 14.5273631840796  L 21.7147030185005 39.09026297086  C 21.7147030185005 39.3556029376925  21.6299902629017 39.5735607675906  21.460564751704 39.7441364605544  C 21.2911392405063 39.9147121535181  21.0746510873093 40  20.811100292113 40  L 0.931840311587147 40  C 0.5365141187926 40  0.263550795196365 39.8294243070362  0.112950340798442 39.4882729211087  C -0.0376501135994807 39.1092158256337  0 38.7775408670931  0.225900681596884 38.4932480454869  L 4.74391431353457 33.0348258706468  C 4.91333982473223 32.8263444681355  5.14865303472898 32.7221037668799  5.44985394352483 32.7221037668799  L 14 32.7221037668799  L 14 14.5273631840796  L 9.06426484907498 14.5273631840796  C 8.31126257708536 14.5273631840796  7.76533592989289 14.1767353707652  7.42648490749757 13.4754797441365  C 7.10645894190198 12.7742241175077  7.19117169750081 12.1298270552002  7.68062317429406 11.5422885572139  L 16.7166504381694 0.625444207533761  C 17.0555014605648 0.208481402511249  17.5167153521584 0  18.1002921129503 0  C 18.6838688737423 0  19.1450827653359 0.208481402511249  19.4839337877313 0.625444207533761  L 28.5199610516066 11.5422885572139  Z " fill-rule="nonzero" fill="#000000" stroke="none" transform="matrix(1 0 0 1 836 612 )" />
  </g>
</svg>