<?xml version="1.0" encoding="utf-8"?>
<svg version="1.1" xmlns:xlink="http://www.w3.org/1999/xlink" width="23px" height="25px" xmlns="http://www.w3.org/2000/svg">
  <g transform="matrix(1 0 0 1 -908 -890 )">
    <path d="M 1.76923076923072 19.1964285714286  L 1.76923076923072 23.2142857142857  L 5.75 23.2142857142857  L 5.75 19.1964285714286  L 1.76923076923072 19.1964285714286  Z M 6.63461538461536 19.1964285714286  L 6.63461538461536 23.2142857142857  L 11.0576923076923 23.2142857142857  L 11.0576923076923 19.1964285714286  L 6.63461538461536 19.1964285714286  Z M 1.76923076923072 13.8392857142857  L 1.76923076923072 18.3035714285714  L 5.75 18.3035714285714  L 5.75 13.8392857142857  L 1.76923076923072 13.8392857142857  Z M 6.63461538461536 13.8392857142857  L 6.63461538461536 18.3035714285714  L 11.0576923076923 18.3035714285714  L 11.0576923076923 13.8392857142857  L 6.63461538461536 13.8392857142857  Z M 1.76923076923072 8.92857142857144  L 1.76923076923072 12.9464285714286  L 5.75 12.9464285714286  L 5.75 8.92857142857144  L 1.76923076923072 8.92857142857144  Z M 11.9423076923077 19.1964285714286  L 11.9423076923077 23.2142857142857  L 16.3653846153846 23.2142857142857  L 16.3653846153846 19.1964285714286  L 11.9423076923077 19.1964285714286  Z M 6.63461538461536 8.92857142857144  L 6.63461538461536 12.9464285714286  L 11.0576923076923 12.9464285714286  L 11.0576923076923 8.92857142857144  L 6.63461538461536 8.92857142857144  Z M 17.25 19.1964285714286  L 17.25 23.2142857142857  L 21.2307692307693 23.2142857142857  L 21.2307692307693 19.1964285714286  L 17.25 19.1964285714286  Z M 11.9423076923077 13.8392857142857  L 11.9423076923077 18.3035714285714  L 16.3653846153846 18.3035714285714  L 16.3653846153846 13.8392857142857  L 11.9423076923077 13.8392857142857  Z M 6.94561298076928 6.56389508928567  C 7.03315304487182 6.47553943452385  7.07692307692309 6.37090773809518  7.07692307692309 6.25  L 7.07692307692309 2.23214285714289  C 7.07692307692309 2.11123511904759  7.03315304487182 2.00660342261904  6.94561298076928 1.91824776785711  C 6.85807291666663 1.82989211309518  6.7544070512821 1.78571428571433  6.63461538461536 1.78571428571433  L 5.75 1.78571428571433  C 5.63020833333337 1.78571428571433  5.52654246794873 1.82989211309518  5.43900240384619 1.91824776785711  C 5.35146233974353 2.00660342261904  5.30769230769226 2.11123511904759  5.30769230769226 2.23214285714289  L 5.30769230769226 6.25  C 5.30769230769226 6.37090773809518  5.35146233974353 6.47553943452385  5.43900240384619 6.56389508928567  C 5.52654246794873 6.65225074404759  5.63020833333337 6.69642857142855  5.75 6.69642857142855  L 6.63461538461536 6.69642857142855  C 6.7544070512821 6.69642857142855  6.85807291666663 6.65225074404759  6.94561298076928 6.56389508928567  Z M 17.25 13.8392857142857  L 17.25 18.3035714285714  L 21.2307692307693 18.3035714285714  L 21.2307692307693 13.8392857142857  L 17.25 13.8392857142857  Z M 11.9423076923077 8.92857142857144  L 11.9423076923077 12.9464285714286  L 16.3653846153846 12.9464285714286  L 16.3653846153846 8.92857142857144  L 11.9423076923077 8.92857142857144  Z M 17.25 8.92857142857144  L 17.25 12.9464285714286  L 21.2307692307693 12.9464285714286  L 21.2307692307693 8.92857142857144  L 17.25 8.92857142857144  Z M 17.5609975961538 6.56389508928567  C 17.6485376602565 6.47553943452385  17.6923076923077 6.37090773809518  17.6923076923077 6.25  L 17.6923076923077 2.23214285714289  C 17.6923076923077 2.11123511904759  17.6485376602565 2.00660342261904  17.5609975961538 1.91824776785711  C 17.4734575320513 1.82989211309518  17.3697916666666 1.78571428571433  17.25 1.78571428571433  L 16.3653846153846 1.78571428571433  C 16.2455929487179 1.78571428571433  16.1419270833334 1.82989211309518  16.0543870192307 1.91824776785711  C 15.9668469551282 2.00660342261904  15.9230769230769 2.11123511904759  15.9230769230769 2.23214285714289  L 15.9230769230769 6.25  C 15.9230769230769 6.37090773809518  15.9668469551282 6.47553943452385  16.0543870192307 6.56389508928567  C 16.1419270833334 6.65225074404759  16.2455929487179 6.69642857142855  16.3653846153846 6.69642857142855  L 17.25 6.69642857142855  C 17.3697916666666 6.69642857142855  17.4734575320513 6.65225074404759  17.5609975961538 6.56389508928567  Z M 22.4747596153846 4.1015625  C 22.8249198717949 4.45498511904759  23 4.87351190476193  23 5.35714285714289  L 23 23.2142857142857  C 23 23.6979166666666  22.8249198717949 24.116443452381  22.4747596153846 24.4698660714286  C 22.1245993589744 24.8232886904761  21.7099358974359 25  21.2307692307693 25  L 1.76923076923072 25  C 1.29006410256409 25  0.875400641025635 24.8232886904761  0.525240384615358 24.4698660714286  C 0.175080128205082 24.116443452381  0 23.6979166666666  0 23.2142857142857  L 0 5.35714285714289  C 0 4.87351190476193  0.175080128205082 4.45498511904759  0.525240384615358 4.1015625  C 0.875400641025635 3.74813988095241  1.29006410256409 3.57142857142856  1.76923076923072 3.57142857142856  L 3.53846153846155 3.57142857142856  L 3.53846153846155 2.23214285714289  C 3.53846153846155 1.61830357142856  3.75500801282055 1.09281994047615  4.18810096153845 0.655691964285666  C 4.62119391025647 0.218563988095184  5.14182692307691 0  5.75 0  L 6.63461538461536 0  C 7.24278846153845 0  7.76342147435901 0.218563988095184  8.19651442307691 0.655691964285666  C 8.62960737179492 1.09281994047615  8.84615384615381 1.61830357142856  8.84615384615381 2.23214285714289  L 8.84615384615381 3.57142857142856  L 14.1538461538462 3.57142857142856  L 14.1538461538462 2.23214285714289  C 14.1538461538462 1.61830357142856  14.3703926282051 1.09281994047615  14.8034855769231 0.655691964285666  C 15.236578525641 0.218563988095184  15.7572115384615 0  16.3653846153846 0  L 17.25 0  C 17.8581730769231 0  18.3788060897436 0.218563988095184  18.8118990384615 0.655691964285666  C 19.2449919871794 1.09281994047615  19.4615384615385 1.61830357142856  19.4615384615385 2.23214285714289  L 19.4615384615385 3.57142857142856  L 21.2307692307693 3.57142857142856  C 21.7099358974359 3.57142857142856  22.1245993589744 3.74813988095241  22.4747596153846 4.1015625  Z " fill-rule="nonzero" fill="#000000" stroke="none" transform="matrix(1 0 0 1 908 890 )" />
  </g>
</svg>