<?xml version="1.0" encoding="utf-8"?>
<svg version="1.1" xmlns:xlink="http://www.w3.org/1999/xlink" width="20px" height="20px" xmlns="http://www.w3.org/2000/svg">
  <g transform="matrix(1 0 0 1 -648 -174 )">
    <path d="M 658 174  C 663.6 174  668 178.4  668 184  C 668 189.6  663.6 194  658 194  C 652.4 194  648 189.6  648 184  C 648 178.4  652.4 174  658 174  Z " fill-rule="nonzero" fill="#ffffff" stroke="none" />
    <path d="M 658 174.5  C 663.32 174.5  667.5 178.68  667.5 184  C 667.5 189.32  663.32 193.5  658 193.5  C 652.68 193.5  648.5 189.32  648.5 184  C 648.5 178.68  652.68 174.5  658 174.5  Z " stroke-width="1" stroke="#797979" fill="none" />
  </g>
</svg>