<?xml version="1.0" encoding="utf-8"?>
<svg version="1.1" xmlns:xlink="http://www.w3.org/1999/xlink" width="15px" height="10px" xmlns="http://www.w3.org/2000/svg">
  <g transform="matrix(1 0 0 1 -659 -1037 )">
    <path d="M 11.1369977678571 7.83420138888886  C 12.255859375 7.13107638888886  13.1863839285714 6.1863425925925  13.9285714285714 5  C 13.0803571428571 3.63425925925924  12.0172991071429 2.61284722222229  10.7393973214286 1.93576388888886  C 11.0797991071429 2.53761574074076  11.25 3.1886574074075  11.25 3.88888888888886  C 11.25 4.95949074074076  10.8830915178571 5.8752893518519  10.1492745535714 6.63628472222229  C 9.41545758928567 7.3972800925925  8.53236607142856 7.77777777777771  7.5 7.77777777777771  C 6.46763392857144 7.77777777777771  5.58454241071433 7.3972800925925  4.85072544642856 6.63628472222229  C 4.11690848214289 5.8752893518519  3.75 4.95949074074076  3.75 3.88888888888886  C 3.75 3.1886574074075  3.92020089285711 2.53761574074076  4.26060267857144 1.93576388888886  C 2.98270089285711 2.61284722222229  1.91964285714289 3.63425925925924  1.07142857142856 5  C 1.81361607142856 6.1863425925925  2.744140625 7.13107638888886  3.86300223214289 7.83420138888886  C 4.98186383928567 8.53732638888886  6.19419642857144 8.88888888888886  7.5 8.88888888888886  C 8.80580357142856 8.88888888888886  10.0181361607143 8.53732638888886  11.1369977678571 7.83420138888886  Z M 7.78459821428578 1.96180555555554  C 7.86272321428567 1.88078703703707  7.90178571428578 1.7824074074075  7.90178571428578 1.66666666666674  C 7.90178571428578 1.55092592592598  7.86272321428567 1.4525462962963  7.78459821428578 1.37152777777771  C 7.70647321428567 1.29050925925924  7.61160714285711 1.25  7.5 1.25  C 6.80245535714289 1.25  6.20396205357144 1.5089699074075  5.70452008928578 2.02690972222229  C 5.205078125 2.54484953703707  4.95535714285711 3.16550925925924  4.95535714285711 3.88888888888886  C 4.95535714285711 4.00462962962962  4.99441964285711 4.10300925925924  5.07254464285711 4.18402777777771  C 5.15066964285711 4.2650462962963  5.24553571428567 4.30555555555554  5.35714285714289 4.30555555555554  C 5.46875 4.30555555555554  5.56361607142856 4.2650462962963  5.64174107142856 4.18402777777771  C 5.71986607142856 4.10300925925924  5.75892857142856 4.00462962962962  5.75892857142856 3.88888888888886  C 5.75892857142856 3.3912037037037  5.92912946428567 2.96585648148152  6.26953125 2.61284722222229  C 6.60993303571433 2.25983796296293  7.02008928571433 2.08333333333326  7.5 2.08333333333326  C 7.61160714285711 2.08333333333326  7.70647321428567 2.04282407407402  7.78459821428578 1.96180555555554  Z M 14.8325892857142 4.40104166666674  C 14.9441964285714 4.60358796296293  15 4.80324074074076  15 5  C 15 5.19675925925924  14.9441964285714 5.39641203703707  14.8325892857142 5.59895833333326  C 14.0513392857143 6.9299768518519  13.0008370535714 7.99623842592598  11.6810825892858 8.79774305555554  C 10.361328125 9.59924768518522  8.96763392857144 10  7.5 10  C 6.03236607142856 10  4.638671875 9.59780092592598  3.31891741071422 8.79340277777771  C 1.99916294642856 7.98900462962962  0.948660714285666 6.92418981481478  0.167410714285779 5.59895833333326  C 0.0558035714285552 5.39641203703707  0 5.19675925925924  0 5  C 0 4.80324074074076  0.0558035714285552 4.60358796296293  0.167410714285779 4.40104166666674  C 0.948660714285666 3.07581018518522  1.99916294642856 2.01099537037038  3.31891741071422 1.20659722222229  C 4.638671875 0.402199074074019  6.03236607142856 0  7.5 0  C 8.96763392857144 0  10.361328125 0.402199074074019  11.6810825892858 1.20659722222229  C 13.0008370535714 2.01099537037038  14.0513392857143 3.07581018518522  14.8325892857142 4.40104166666674  Z " fill-rule="nonzero" fill="#000000" stroke="none" transform="matrix(1 0 0 1 659 1037 )" />
  </g>
</svg>