<?xml version="1.0" encoding="utf-8"?>
<svg version="1.1" xmlns:xlink="http://www.w3.org/1999/xlink" width="15px" height="17px" xmlns="http://www.w3.org/2000/svg">
  <g transform="matrix(1 0 0 1 -681 -1033 )">
    <path d="M 5.35866477272725 13.6520354150492  C 5.42258522727275 13.5875883556548  5.4545454545455 13.5052393353175  5.4545454545455 13.4049883540372  L 5.4545454545455 5.84320005175982  C 5.4545454545455 5.7429490704796  5.42258522727275 5.66060005014236  5.35866477272725 5.59615299074801  C 5.29474431818187 5.53170593135349  5.21306818181824 5.49948240165634  5.11363636363637 5.49948240165634  L 4.43181818181813 5.49948240165634  C 4.33238636363637 5.49948240165634  4.25071022727275 5.53170593135349  4.18678977272725 5.59615299074801  C 4.12286931818187 5.66060005014236  4.09090909090912 5.7429490704796  4.09090909090912 5.84320005175982  L 4.09090909090912 13.4049883540372  C 4.09090909090912 13.5052393353175  4.12286931818187 13.5875883556548  4.18678977272725 13.6520354150492  C 4.25071022727275 13.7164824744435  4.33238636363637 13.7487060041408  4.43181818181813 13.7487060041408  L 5.11363636363637 13.7487060041408  C 5.21306818181824 13.7487060041408  5.29474431818187 13.7164824744435  5.35866477272725 13.6520354150492  Z M 8.0859375 13.6520354150492  C 8.1498579545455 13.5875883556548  8.18181818181813 13.5052393353175  8.18181818181813 13.4049883540372  L 8.18181818181813 5.84320005175982  C 8.18181818181813 5.7429490704796  8.1498579545455 5.66060005014236  8.0859375 5.59615299074801  C 8.0220170454545 5.53170593135349  7.94034090909088 5.49948240165634  7.84090909090912 5.49948240165634  L 7.15909090909088 5.49948240165634  C 7.05965909090912 5.49948240165634  6.9779829545455 5.53170593135349  6.9140625 5.59615299074801  C 6.8501420454545 5.66060005014236  6.81818181818187 5.7429490704796  6.81818181818187 5.84320005175982  L 6.81818181818187 13.4049883540372  C 6.81818181818187 13.5052393353175  6.8501420454545 13.5875883556548  6.9140625 13.6520354150492  C 6.9779829545455 13.7164824744435  7.05965909090912 13.7487060041408  7.15909090909088 13.7487060041408  L 7.84090909090912 13.7487060041408  C 7.94034090909088 13.7487060041408  8.0220170454545 13.7164824744435  8.0859375 13.6520354150492  Z M 10.8132102272727 13.6520354150492  C 10.8771306818181 13.5875883556548  10.9090909090909 13.5052393353175  10.9090909090909 13.4049883540372  L 10.9090909090909 5.84320005175982  C 10.9090909090909 5.7429490704796  10.8771306818181 5.66060005014236  10.8132102272727 5.59615299074801  C 10.7492897727273 5.53170593135349  10.6676136363636 5.49948240165634  10.5681818181819 5.49948240165634  L 9.88636363636363 5.49948240165634  C 9.78693181818176 5.49948240165634  9.70525568181813 5.53170593135349  9.64133522727275 5.59615299074801  C 9.57741477272725 5.66060005014236  9.5454545454545 5.7429490704796  9.5454545454545 5.84320005175982  L 9.5454545454545 13.4049883540372  C 9.5454545454545 13.5052393353175  9.57741477272725 13.5875883556548  9.64133522727275 13.6520354150492  C 9.70525568181813 13.7164824744435  9.78693181818176 13.7487060041408  9.88636363636363 13.7487060041408  L 10.5681818181819 13.7487060041408  C 10.6676136363636 13.7487060041408  10.7492897727273 13.7164824744435  10.8132102272727 13.6520354150492  Z M 5.63565340909088 1.49302354263722  L 5.11363636363637 2.74974120082811  L 9.88636363636363 2.74974120082811  L 9.375 1.49302354263722  C 9.32528409090912 1.42857648324269  9.26491477272725 1.38919216916844  9.1938920454545 1.37487060041411  L 5.81676136363637 1.37487060041411  C 5.74573863636363 1.38919216916844  5.68536931818176 1.42857648324269  5.63565340909088 1.49302354263722  Z M 14.9041193181819 2.84641178991978  C 14.9680397727273 2.91085884931414  15 2.99320786965149  15 3.09345885093171  L 15 3.78089415113868  C 15 3.88114513241891  14.9680397727273 3.96349415275614  14.9041193181819 4.02794121215067  C 14.8401988636364 4.09238827154502  14.7585227272727 4.12461180124222  14.6590909090909 4.12461180124222  L 13.6363636363636 4.12461180124222  L 13.6363636363636 14.307247185559  C 13.6363636363636 14.901592288863  13.4694602272727 15.415378567924  13.1356534090909 15.8486060227419  C 12.8018465909091 16.2818334775599  12.4005681818181 16.498447204969  11.9318181818181 16.498447204969  L 3.06818181818187 16.498447204969  C 2.59943181818187 16.498447204969  2.19815340909088 16.2889942619371  1.86434659090912 15.8700883758735  C 1.53053977272725 15.4511824898098  1.36363636363637 14.9445569951259  1.36363636363637 14.3502118918219  L 1.36363636363637 4.12461180124222  L 0.340909090909122 4.12461180124222  C 0.241477272727252 4.12461180124222  0.159801136363626 4.09238827154502  0.0958806818181301 4.02794121215067  C 0.0319602272727479 3.96349415275614  0 3.88114513241891  0 3.78089415113868  L 0 3.09345885093171  C 0 2.99320786965149  0.0319602272727479 2.91085884931414  0.0958806818181301 2.84641178991978  C 0.159801136363626 2.78196473052543  0.241477272727252 2.74974120082811  0.340909090909122 2.74974120082811  L 3.6328125 2.74974120082811  L 4.37855113636363 0.95596471435033  C 4.48508522727275 0.691015692395695  4.67684659090912 0.465450984515144  4.95383522727275 0.279270590709132  C 5.23082386363637 0.093090196903006  5.51136363636363 0  5.7954545454545 0  L 9.2045454545455 0  C 9.48863636363637 0  9.76917613636363 0.093090196903006  10.0461647727273 0.279270590709132  C 10.3231534090909 0.465450984515144  10.5149147727273 0.691015692395695  10.6214488636364 0.95596471435033  L 11.3671875 2.74974120082811  L 14.6590909090909 2.74974120082811  C 14.7585227272727 2.74974120082811  14.8401988636364 2.78196473052543  14.9041193181819 2.84641178991978  Z " fill-rule="nonzero" fill="#000000" stroke="none" transform="matrix(1 0 0 1 681 1033 )" />
  </g>
</svg>