<?xml version="1.0" encoding="utf-8"?>
<svg version="1.1" xmlns:xlink="http://www.w3.org/1999/xlink" width="36px" height="36px" xmlns="http://www.w3.org/2000/svg">
  <g transform="matrix(1 0 0 1 -660 -1024 )">
    <path d="M 660 1024  L 696 1024  L 696 1060  L 660 1060  L 660 1024  " fill-rule="nonzero" fill="#cccccc" stroke="none" />
    <path d="M 663 1027  L 693 1027  L 693 1057  L 663 1057  L 663 1027  " fill-rule="nonzero" fill="#ffffff" stroke="none" />
    <path d="M 681.42 1034.8  C 679.908 1034.8  678.72 1033.612  678.72 1032.1  C 678.72 1030.588  679.908 1029.4  681.42 1029.4  C 682.932 1029.4  684.12 1030.588  684.12 1032.1  C 684.12 1033.612  682.932 1034.8  681.42 1034.8  " fill-rule="nonzero" fill="#cccccc" stroke="none" />
    <path d="M 664 1056  L 664 1040.6  L 671 1033.6  L 680.8 1039.2  L 686.4 1037.8  L 692 1039.2  L 692 1056  L 664 1056  " fill-rule="nonzero" fill="#169bd5" stroke="none" />
  </g>
</svg>