<?xml version="1.0" encoding="utf-8"?>
<svg version="1.1" xmlns:xlink="http://www.w3.org/1999/xlink" width="12px" height="12px" viewBox="695 1765  12 12" xmlns="http://www.w3.org/2000/svg">
  <path d="M 701 1765  C 704.36 1765  707 1767.64  707 1771  C 707 1774.36  704.36 1777  701 1777  C 697.64 1777  695 1774.36  695 1771  C 695 1767.64  697.64 1765  701 1765  Z " fill-rule="nonzero" fill="#f0f0f0" stroke="none" />
  <path d="M 701 1765.5  C 704.08 1765.5  706.5 1767.92  706.5 1771  C 706.5 1774.08  704.08 1776.5  701 1776.5  C 697.92 1776.5  695.5 1774.08  695.5 1771  C 695.5 1767.92  697.92 1765.5  701 1765.5  Z " stroke-width="1" stroke="#797979" fill="none" />
  <path d="M 701 1774  C 699.32 1774  698 1772.68  698 1771  C 698 1769.32  699.32 1768  701 1768  C 702.68 1768  704 1769.32  704 1771  C 704 1772.68  702.68 1774  701 1774  " fill-rule="nonzero" fill="#797979" stroke="none" />
</svg>