<?xml version="1.0" encoding="utf-8"?>
<svg version="1.1" xmlns:xlink="http://www.w3.org/1999/xlink" width="12px" height="12px" xmlns="http://www.w3.org/2000/svg">
  <g transform="matrix(1 0 0 1 -463 -722 )">
    <path d="M 469 722  C 472.36 722  475 724.64  475 728  C 475 731.36  472.36 734  469 734  C 465.64 734  463 731.36  463 728  C 463 724.64  465.64 722  469 722  Z " fill-rule="nonzero" fill="#ffffff" stroke="none" />
    <path d="M 469 722.5  C 472.08 722.5  474.5 724.92  474.5 728  C 474.5 731.08  472.08 733.5  469 733.5  C 465.92 733.5  463.5 731.08  463.5 728  C 463.5 724.92  465.92 722.5  469 722.5  Z " stroke-width="1" stroke="#797979" fill="none" />
  </g>
</svg>