<?xml version="1.0" encoding="utf-8"?>
<svg version="1.1" xmlns:xlink="http://www.w3.org/1999/xlink" width="15px" height="14px" xmlns="http://www.w3.org/2000/svg">
  <g transform="matrix(1 0 0 1 -186 -820 )">
    <path d="M 8.48969933184844 11.5981370192308  C 8.54259465478845 11.5456129807692  8.56904231625845 11.4806490384615  8.56904231625845 11.4032451923077  L 8.56904231625845 9.82752403846155  C 8.56904231625845 9.75012019230769  8.54259465478845 9.68515625000001  8.48969933184844 9.63263221153846  C 8.43680400890867 9.58010817307692  8.37416481069044 9.55384615384617  8.30178173719378 9.55384615384617  L 6.69821826280622 9.55384615384617  C 6.62583518930956 9.55384615384617  6.56319599109133 9.58010817307692  6.51030066815156 9.63263221153846  C 6.45740534521156 9.68515625000001  6.43095768374155 9.75012019230769  6.43095768374155 9.82752403846155  L 6.43095768374155 11.4032451923077  C 6.43095768374155 11.4806490384615  6.45740534521156 11.5456129807692  6.51030066815156 11.5981370192308  C 6.56319599109133 11.6506610576923  6.62583518930956 11.6769230769231  6.69821826280622 11.6769230769231  L 8.30178173719378 11.6769230769231  C 8.37416481069044 11.6769230769231  8.43680400890867 11.6506610576923  8.48969933184844 11.5981370192308  Z M 8.46464365256134 8.43840144230771  C 8.51753897550111 8.40246394230769  8.54677060133622 8.35685096153847  8.55233853006689 8.30156250000002  L 8.70267260579067 4.49495192307694  C 8.70267260579067 4.42860576923079  8.674832962138 4.37608173076924  8.61915367483289 4.33737980769232  C 8.54677060133622 4.27656250000001  8.47995545657022 4.24615384615385  8.41870824053444 4.24615384615385  L 6.58129175946556 4.24615384615385  C 6.52004454342978 4.24615384615385  6.45322939866378 4.27656250000001  6.38084632516711 4.33737980769232  C 6.325167037862 4.37608173076924  6.29732739420933 4.43413461538461  6.29732739420933 4.51153846153846  L 6.43930957683733 8.30156250000002  C 6.43930957683733 8.35685096153847  6.46714922049 8.40246394230769  6.52282850779511 8.43840144230771  C 6.57850779510022 8.4743389423077  6.64532293986645 8.49230769230769  6.72327394209356 8.49230769230769  L 8.26837416481067 8.49230769230769  C 8.34632516703778 8.49230769230769  8.41174832962133 8.4743389423077  8.46464365256134 8.43840144230771  Z M 8.04287305122489 0.149278846153834  C 8.20991091314022 0.248798076923066  8.34075723830733 0.384254807692315  8.435412026726 0.555649038461553  L 14.8496659242762 12.2325721153846  C 15.044543429844 12.5808894230769  15.0389755011136 12.9292067307692  14.8329621380847 13.2775240384615  C 14.738307349666 13.4378605769231  14.6088530066816 13.5650240384616  14.4445991091313 13.6590144230769  C 14.2803452115813 13.7530048076923  14.1035634743876 13.8  13.9142538975502 13.8  L 1.08574610244978 13.8  C 0.896436525612444 13.8  0.719654788418666 13.7530048076923  0.555400890868668 13.6590144230769  C 0.391146993318443 13.5650240384616  0.261692650333998 13.4378605769231  0.167037861915333 13.2775240384615  C -0.0389755011135549 12.9292067307692  -0.0445434298439977 12.5808894230769  0.150334075723777 12.2325721153846  L 6.564587973274 0.555649038461553  C 6.65924276169267 0.384254807692315  6.79008908685978 0.248798076923066  6.95712694877511 0.149278846153834  C 7.12416481069044 0.0497596153846018  7.305122494432 0  7.5 0  C 7.694877505568 0  7.87583518930956 0.0497596153846018  8.04287305122489 0.149278846153834  Z " fill-rule="nonzero" fill="#ff6600" stroke="none" transform="matrix(1 0 0 1 186 820 )" />
  </g>
</svg>