<?xml version="1.0" encoding="utf-8"?>
<svg version="1.1" xmlns:xlink="http://www.w3.org/1999/xlink" width="12px" height="12px" viewBox="857 422  12 12" xmlns="http://www.w3.org/2000/svg">
  <path d="M 863 422  C 866.36 422  869 424.64  869 428  C 869 431.36  866.36 434  863 434  C 859.64 434  857 431.36  857 428  C 857 424.64  859.64 422  863 422  Z " fill-rule="nonzero" fill="#ffffff" stroke="none" />
  <path d="M 863 422.5  C 866.08 422.5  868.5 424.92  868.5 428  C 868.5 431.08  866.08 433.5  863 433.5  C 859.92 433.5  857.5 431.08  857.5 428  C 857.5 424.92  859.92 422.5  863 422.5  Z " stroke-width="1" stroke="#797979" fill="none" />
  <path d="M 863 431  C 861.32 431  860 429.68  860 428  C 860 426.32  861.32 425  863 425  C 864.68 425  866 426.32  866 428  C 866 429.68  864.68 431  863 431  " fill-rule="nonzero" fill="#797979" stroke="none" />
</svg>