<?xml version="1.0" encoding="utf-8"?>
<svg version="1.1" xmlns:xlink="http://www.w3.org/1999/xlink" width="12px" height="12px" viewBox="1004 492  12 12" xmlns="http://www.w3.org/2000/svg">
  <path d="M 1010 492  C 1013.36 492  1016 494.64  1016 498  C 1016 501.36  1013.36 504  1010 504  C 1006.64 504  1004 501.36  1004 498  C 1004 494.64  1006.64 492  1010 492  Z " fill-rule="nonzero" fill="#f0f0f0" stroke="none" />
  <path d="M 1010 492.5  C 1013.08 492.5  1015.5 494.92  1015.5 498  C 1015.5 501.08  1013.08 503.5  1010 503.5  C 1006.92 503.5  1004.5 501.08  1004.5 498  C 1004.5 494.92  1006.92 492.5  1010 492.5  Z " stroke-width="1" stroke="#797979" fill="none" />
  <path d="M 1010 501  C 1008.32 501  1007 499.68  1007 498  C 1007 496.32  1008.32 495  1010 495  C 1011.68 495  1013 496.32  1013 498  C 1013 499.68  1011.68 501  1010 501  " fill-rule="nonzero" fill="#797979" stroke="none" />
</svg>