<?xml version="1.0" encoding="utf-8"?>
<svg version="1.1" xmlns:xlink="http://www.w3.org/1999/xlink" width="12px" height="12px" viewBox="703 287  12 12" xmlns="http://www.w3.org/2000/svg">
  <path d="M 709 287  C 712.36 287  715 289.64  715 293  C 715 296.36  712.36 299  709 299  C 705.64 299  703 296.36  703 293  C 703 289.64  705.64 287  709 287  Z " fill-rule="nonzero" fill="#f0f0f0" stroke="none" />
  <path d="M 709 287.5  C 712.08 287.5  714.5 289.92  714.5 293  C 714.5 296.08  712.08 298.5  709 298.5  C 705.92 298.5  703.5 296.08  703.5 293  C 703.5 289.92  705.92 287.5  709 287.5  Z " stroke-width="1" stroke="#797979" fill="none" />
  <path d="M 709 296  C 707.32 296  706 294.68  706 293  C 706 291.32  707.32 290  709 290  C 710.68 290  712 291.32  712 293  C 712 294.68  710.68 296  709 296  " fill-rule="nonzero" fill="#797979" stroke="none" />
</svg>