<?xml version="1.0" encoding="utf-8"?>
<svg version="1.1" xmlns:xlink="http://www.w3.org/1999/xlink" width="12px" height="12px" viewBox="601 445  12 12" xmlns="http://www.w3.org/2000/svg">
  <path d="M 607 445  C 610.36 445  613 447.64  613 451  C 613 454.36  610.36 457  607 457  C 603.64 457  601 454.36  601 451  C 601 447.64  603.64 445  607 445  Z " fill-rule="nonzero" fill="#ffffff" stroke="none" />
  <path d="M 607 445.5  C 610.08 445.5  612.5 447.92  612.5 451  C 612.5 454.08  610.08 456.5  607 456.5  C 603.92 456.5  601.5 454.08  601.5 451  C 601.5 447.92  603.92 445.5  607 445.5  Z " stroke-width="1" stroke="#797979" fill="none" />
  <path d="M 607 454  C 605.32 454  604 452.68  604 451  C 604 449.32  605.32 448  607 448  C 608.68 448  610 449.32  610 451  C 610 452.68  608.68 454  607 454  " fill-rule="nonzero" fill="#797979" stroke="none" />
</svg>