<?xml version="1.0" encoding="utf-8"?>
<svg version="1.1" xmlns:xlink="http://www.w3.org/1999/xlink" width="12px" height="12px" viewBox="701 445  12 12" xmlns="http://www.w3.org/2000/svg">
  <path d="M 707 445  C 710.36 445  713 447.64  713 451  C 713 454.36  710.36 457  707 457  C 703.64 457  701 454.36  701 451  C 701 447.64  703.64 445  707 445  Z " fill-rule="nonzero" fill="#ffffff" stroke="none" />
  <path d="M 707 445.5  C 710.08 445.5  712.5 447.92  712.5 451  C 712.5 454.08  710.08 456.5  707 456.5  C 703.92 456.5  701.5 454.08  701.5 451  C 701.5 447.92  703.92 445.5  707 445.5  Z " stroke-width="1" stroke="#797979" fill="none" />
  <path d="M 707 454  C 705.32 454  704 452.68  704 451  C 704 449.32  705.32 448  707 448  C 708.68 448  710 449.32  710 451  C 710 452.68  708.68 454  707 454  " fill-rule="nonzero" fill="#797979" stroke="none" />
</svg>