<?xml version="1.0" encoding="utf-8"?>
<svg version="1.1" xmlns:xlink="http://www.w3.org/1999/xlink" width="12px" height="12px" xmlns="http://www.w3.org/2000/svg">
  <g transform="matrix(1 0 0 1 -552 -384 )">
    <path d="M 2.02772277227677 10.9861386138613  L 2.87524752475247 10.9861386138613  L 3.59603960396043 10.2653465346535  L 1.73465346534704 8.40396039603962  L 1.01386138613907 9.12475247524753  L 1.01386138613907 9.97227722772277  L 2.02772277227677 9.97227722772277  L 2.02772277227677 10.9861386138613  Z M 6.96237623762363 3.77029702970299  C 6.99933993399327 3.73333333333335  7.01782178217809 3.68844884488448  7.01782178217809 3.63564356435646  C 7.01782178217809 3.51947194719475  6.95973597359762 3.46138613861385  6.84356435643531 3.46138613861385  C 6.79075907590823 3.46138613861385  6.74587458745918 3.47986798679867  6.70891089108954 3.51683168316831  L 2.41584158415799 7.80990099009901  C 2.37887788778835 7.84686468646865  2.36039603960353 7.89174917491749  2.36039603960353 7.94455445544554  C 2.36039603960353 8.06072607260725  2.41848184818537 8.11881188118809  2.53465346534631 8.11881188118809  C 2.58745874587476 8.11881188118809  2.6323432343238 8.10033003300327  2.66930693069344 8.06336633663369  L 6.96237623762363 3.77029702970299  Z M 0 8.70495049504953  L 6.59009900990122 2.11485148514853  L 9.88514851485115 5.409900990099  L 3.29504950494993 12  L 0 12  L 0 8.70495049504953  Z M 11.7069306930689 2.15445544554456  C 11.9023102310225 2.36039603960398  12 2.60066006600658  12 2.87524752475247  C 12 3.15511551155114  11.9023102310225 3.39273927392736  11.7069306930689 3.5881188118812  L 10.3920792079207 4.9029702970297  L 7.09702970297076 1.60792079207923  L 8.41188118811897 0.300990099009908  C 8.60198019801919 0.100330033003331  8.83960396039583 0  9.12475247524753 0  C 9.40462046204584 0  9.6448844884485 0.100330033003331  9.8455445544555 0.300990099009908  L 11.7069306930689 2.15445544554456  Z " fill-rule="nonzero" fill="#199ed8" stroke="none" transform="matrix(1 0 0 1 552 384 )" />
  </g>
</svg>