<?xml version="1.0" encoding="utf-8"?>
<svg version="1.1" xmlns:xlink="http://www.w3.org/1999/xlink" width="16px" height="16px" xmlns="http://www.w3.org/2000/svg">
  <g transform="matrix(1 0 0 1 -504 -169 )">
    <path d="M 1.23076923076928 12.2857142857142  L 1.23076923076928 14.8571428571429  L 4 14.8571428571429  L 4 12.2857142857142  L 1.23076923076928 12.2857142857142  Z M 4.61538461538464 12.2857142857142  L 4.61538461538464 14.8571428571429  L 7.69230769230774 14.8571428571429  L 7.69230769230774 12.2857142857142  L 4.61538461538464 12.2857142857142  Z M 1.23076923076928 8.85714285714289  L 1.23076923076928 11.7142857142858  L 4 11.7142857142858  L 4 8.85714285714289  L 1.23076923076928 8.85714285714289  Z M 4.61538461538464 8.85714285714289  L 4.61538461538464 11.7142857142858  L 7.69230769230774 11.7142857142858  L 7.69230769230774 8.85714285714289  L 4.61538461538464 8.85714285714289  Z M 1.23076923076928 5.71428571428578  L 1.23076923076928 8.28571428571422  L 4 8.28571428571422  L 4 5.71428571428578  L 1.23076923076928 5.71428571428578  Z M 8.30769230769226 12.2857142857142  L 8.30769230769226 14.8571428571429  L 11.3846153846154 14.8571428571429  L 11.3846153846154 12.2857142857142  L 8.30769230769226 12.2857142857142  Z M 4.61538461538464 5.71428571428578  L 4.61538461538464 8.28571428571422  L 7.69230769230774 8.28571428571422  L 7.69230769230774 5.71428571428578  L 4.61538461538464 5.71428571428578  Z M 12 12.2857142857142  L 12 14.8571428571429  L 14.7692307692307 14.8571428571429  L 14.7692307692307 12.2857142857142  L 12 12.2857142857142  Z M 8.30769230769226 8.85714285714289  L 8.30769230769226 11.7142857142858  L 11.3846153846154 11.7142857142858  L 11.3846153846154 8.85714285714289  L 8.30769230769226 8.85714285714289  Z M 4.83173076923072 4.20089285714289  C 4.89262820512818 4.14434523809518  4.92307692307691 4.07738095238096  4.92307692307691 4  L 4.92307692307691 1.42857142857156  C 4.92307692307691 1.35119047619037  4.89262820512818 1.28422619047615  4.83173076923072 1.22767857142844  C 4.77083333333337 1.17113095238096  4.6987179487179 1.14285714285711  4.61538461538464 1.14285714285711  L 4 1.14285714285711  C 3.91666666666663 1.14285714285711  3.84455128205127 1.17113095238096  3.78365384615381 1.22767857142844  C 3.72275641025647 1.28422619047615  3.69230769230774 1.35119047619037  3.69230769230774 1.42857142857156  L 3.69230769230774 4  C 3.69230769230774 4.07738095238096  3.72275641025647 4.14434523809518  3.78365384615381 4.20089285714289  C 3.84455128205127 4.25744047619037  3.91666666666663 4.28571428571422  4 4.28571428571422  L 4.61538461538464 4.28571428571422  C 4.6987179487179 4.28571428571422  4.77083333333337 4.25744047619037  4.83173076923072 4.20089285714289  Z M 12 8.85714285714289  L 12 11.7142857142858  L 14.7692307692307 11.7142857142858  L 14.7692307692307 8.85714285714289  L 12 8.85714285714289  Z M 8.30769230769226 5.71428571428578  L 8.30769230769226 8.28571428571422  L 11.3846153846154 8.28571428571422  L 11.3846153846154 5.71428571428578  L 8.30769230769226 5.71428571428578  Z M 12 5.71428571428578  L 12 8.28571428571422  L 14.7692307692307 8.28571428571422  L 14.7692307692307 5.71428571428578  L 12 5.71428571428578  Z M 12.2163461538462 4.20089285714289  C 12.2772435897436 4.14434523809518  12.3076923076923 4.07738095238096  12.3076923076923 4  L 12.3076923076923 1.42857142857156  C 12.3076923076923 1.35119047619037  12.2772435897436 1.28422619047615  12.2163461538462 1.22767857142844  C 12.1554487179487 1.17113095238096  12.0833333333334 1.14285714285711  12 1.14285714285711  L 11.3846153846154 1.14285714285711  C 11.3012820512821 1.14285714285711  11.2291666666666 1.17113095238096  11.1682692307693 1.22767857142844  C 11.1073717948718 1.28422619047615  11.0769230769231 1.35119047619037  11.0769230769231 1.42857142857156  L 11.0769230769231 4  C 11.0769230769231 4.07738095238096  11.1073717948718 4.14434523809518  11.1682692307693 4.20089285714289  C 11.2291666666666 4.25744047619037  11.3012820512821 4.28571428571422  11.3846153846154 4.28571428571422  L 12 4.28571428571422  C 12.0833333333334 4.28571428571422  12.1554487179487 4.25744047619037  12.2163461538462 4.20089285714289  Z M 15.6346153846154 2.625  C 15.8782051282051 2.85119047619037  16 3.11904761904771  16 3.42857142857156  L 16 14.8571428571429  C 16 15.1666666666667  15.8782051282051 15.4345238095239  15.6346153846154 15.6607142857142  C 15.3910256410256 15.8869047619048  15.1025641025641 16  14.7692307692307 16  L 1.23076923076928 16  C 0.897435897435912 16  0.608974358974365 15.8869047619048  0.365384615384642 15.6607142857142  C 0.121794871794918 15.4345238095239  0 15.1666666666667  0 14.8571428571429  L 0 3.42857142857156  C 0 3.11904761904771  0.121794871794918 2.85119047619037  0.365384615384642 2.625  C 0.608974358974365 2.39880952380963  0.897435897435912 2.28571428571422  1.23076923076928 2.28571428571422  L 2.46153846153845 2.28571428571422  L 2.46153846153845 1.42857142857156  C 2.46153846153845 1.03571428571422  2.61217948717945 0.699404761904816  2.91346153846155 0.41964285714289  C 3.21474358974353 0.139880952380963  3.57692307692309 0  4 0  L 4.61538461538464 0  C 5.03846153846155 0  5.40064102564099 0.139880952380963  5.70192307692309 0.41964285714289  C 6.00320512820508 0.699404761904816  6.15384615384619 1.03571428571422  6.15384615384619 1.42857142857156  L 6.15384615384619 2.28571428571422  L 9.84615384615381 2.28571428571422  L 9.84615384615381 1.42857142857156  C 9.84615384615381 1.03571428571422  9.99679487179492 0.699404761904816  10.2980769230769 0.41964285714289  C 10.599358974359 0.139880952380963  10.9615384615385 0  11.3846153846154 0  L 12 0  C 12.4230769230769 0  12.7852564102565 0.139880952380963  13.0865384615385 0.41964285714289  C 13.3878205128206 0.699404761904816  13.5384615384615 1.03571428571422  13.5384615384615 1.42857142857156  L 13.5384615384615 2.28571428571422  L 14.7692307692307 2.28571428571422  C 15.1025641025641 2.28571428571422  15.3910256410256 2.39880952380963  15.6346153846154 2.625  Z " fill-rule="nonzero" fill="#000000" stroke="none" transform="matrix(1 0 0 1 504 169 )" />
  </g>
</svg>