<?xml version="1.0" encoding="utf-8"?>
<svg version="1.1" xmlns:xlink="http://www.w3.org/1999/xlink" width="12px" height="12px" viewBox="706 450  12 12" xmlns="http://www.w3.org/2000/svg">
  <path d="M 712 450  C 715.36 450  718 452.64  718 456  C 718 459.36  715.36 462  712 462  C 708.64 462  706 459.36  706 456  C 706 452.64  708.64 450  712 450  Z " fill-rule="nonzero" fill="#f0f0f0" stroke="none" />
  <path d="M 712 450.5  C 715.08 450.5  717.5 452.92  717.5 456  C 717.5 459.08  715.08 461.5  712 461.5  C 708.92 461.5  706.5 459.08  706.5 456  C 706.5 452.92  708.92 450.5  712 450.5  Z " stroke-width="1" stroke="#797979" fill="none" />
  <path d="M 712 459  C 710.32 459  709 457.68  709 456  C 709 454.32  710.32 453  712 453  C 713.68 453  715 454.32  715 456  C 715 457.68  713.68 459  712 459  " fill-rule="nonzero" fill="#797979" stroke="none" />
</svg>