<?xml version="1.0" encoding="utf-8"?>
<svg version="1.1" xmlns:xlink="http://www.w3.org/1999/xlink" width="12px" height="12px" viewBox="695 545  12 12" xmlns="http://www.w3.org/2000/svg">
  <path d="M 701 545  C 704.36 545  707 547.64  707 551  C 707 554.36  704.36 557  701 557  C 697.64 557  695 554.36  695 551  C 695 547.64  697.64 545  701 545  Z " fill-rule="nonzero" fill="#ffffff" stroke="none" />
  <path d="M 701 545.5  C 704.08 545.5  706.5 547.92  706.5 551  C 706.5 554.08  704.08 556.5  701 556.5  C 697.92 556.5  695.5 554.08  695.5 551  C 695.5 547.92  697.92 545.5  701 545.5  Z " stroke-width="1" stroke="#797979" fill="none" />
  <path d="M 701 554  C 699.32 554  698 552.68  698 551  C 698 549.32  699.32 548  701 548  C 702.68 548  704 549.32  704 551  C 704 552.68  702.68 554  701 554  " fill-rule="nonzero" fill="#797979" stroke="none" />
</svg>