<?xml version="1.0" encoding="utf-8"?>
<svg version="1.1" xmlns:xlink="http://www.w3.org/1999/xlink" width="12px" height="12px" viewBox="608 545  12 12" xmlns="http://www.w3.org/2000/svg">
  <path d="M 614 545  C 617.36 545  620 547.64  620 551  C 620 554.36  617.36 557  614 557  C 610.64 557  608 554.36  608 551  C 608 547.64  610.64 545  614 545  Z " fill-rule="nonzero" fill="#ffffff" stroke="none" />
  <path d="M 614 545.5  C 617.08 545.5  619.5 547.92  619.5 551  C 619.5 554.08  617.08 556.5  614 556.5  C 610.92 556.5  608.5 554.08  608.5 551  C 608.5 547.92  610.92 545.5  614 545.5  Z " stroke-width="1" stroke="#797979" fill="none" />
  <path d="M 614 554  C 612.32 554  611 552.68  611 551  C 611 549.32  612.32 548  614 548  C 615.68 548  617 549.32  617 551  C 617 552.68  615.68 554  614 554  " fill-rule="nonzero" fill="#797979" stroke="none" />
</svg>