<?xml version="1.0" encoding="utf-8"?>
<svg version="1.1" xmlns:xlink="http://www.w3.org/1999/xlink" width="12px" height="12px" viewBox="695 519  12 12" xmlns="http://www.w3.org/2000/svg">
  <path d="M 701 519  C 704.36 519  707 521.64  707 525  C 707 528.36  704.36 531  701 531  C 697.64 531  695 528.36  695 525  C 695 521.64  697.64 519  701 519  Z " fill-rule="nonzero" fill="#f0f0f0" stroke="none" />
  <path d="M 701 519.5  C 704.08 519.5  706.5 521.92  706.5 525  C 706.5 528.08  704.08 530.5  701 530.5  C 697.92 530.5  695.5 528.08  695.5 525  C 695.5 521.92  697.92 519.5  701 519.5  Z " stroke-width="1" stroke="#797979" fill="none" />
  <path d="M 701 528  C 699.32 528  698 526.68  698 525  C 698 523.32  699.32 522  701 522  C 702.68 522  704 523.32  704 525  C 704 526.68  702.68 528  701 528  " fill-rule="nonzero" fill="#797979" stroke="none" />
</svg>