<?xml version="1.0" encoding="utf-8"?>
<svg version="1.1" xmlns:xlink="http://www.w3.org/1999/xlink" width="12px" height="12px" viewBox="608 450  12 12" xmlns="http://www.w3.org/2000/svg">
  <path d="M 614 450  C 617.36 450  620 452.64  620 456  C 620 459.36  617.36 462  614 462  C 610.64 462  608 459.36  608 456  C 608 452.64  610.64 450  614 450  Z " fill-rule="nonzero" fill="#f0f0f0" stroke="none" />
  <path d="M 614 450.5  C 617.08 450.5  619.5 452.92  619.5 456  C 619.5 459.08  617.08 461.5  614 461.5  C 610.92 461.5  608.5 459.08  608.5 456  C 608.5 452.92  610.92 450.5  614 450.5  Z " stroke-width="1" stroke="#797979" fill="none" />
  <path d="M 614 459  C 612.32 459  611 457.68  611 456  C 611 454.32  612.32 453  614 453  C 615.68 453  617 454.32  617 456  C 617 457.68  615.68 459  614 459  " fill-rule="nonzero" fill="#797979" stroke="none" />
</svg>