<?xml version="1.0" encoding="utf-8"?>
<svg version="1.1" xmlns:xlink="http://www.w3.org/1999/xlink" width="12px" height="12px" viewBox="608 482  12 12" xmlns="http://www.w3.org/2000/svg">
  <path d="M 614 482  C 617.36 482  620 484.64  620 488  C 620 491.36  617.36 494  614 494  C 610.64 494  608 491.36  608 488  C 608 484.64  610.64 482  614 482  Z " fill-rule="nonzero" fill="#ffffff" stroke="none" />
  <path d="M 614 482.5  C 617.08 482.5  619.5 484.92  619.5 488  C 619.5 491.08  617.08 493.5  614 493.5  C 610.92 493.5  608.5 491.08  608.5 488  C 608.5 484.92  610.92 482.5  614 482.5  Z " stroke-width="1" stroke="#797979" fill="none" />
  <path d="M 614 491  C 612.32 491  611 489.68  611 488  C 611 486.32  612.32 485  614 485  C 615.68 485  617 486.32  617 488  C 617 489.68  615.68 491  614 491  " fill-rule="nonzero" fill="#797979" stroke="none" />
</svg>