<?xml version="1.0" encoding="utf-8"?>
<svg version="1.1" xmlns:xlink="http://www.w3.org/1999/xlink" width="12px" height="12px" xmlns="http://www.w3.org/2000/svg">
  <g transform="matrix(1 0 0 1 -363 -326 )">
    <path d="M 7.71428571428572 9.3984375  C 7.77232142857144 9.3984375  7.82366071428572 9.37239583333331  7.86830357142861 9.32031250000006  L 8.84598214285711 8.1796875  C 8.890625 8.12760416666663  8.91294642857139 8.06770833333337  8.91294642857139 7.99999999999994  C 8.91294642857139 7.93229166666663  8.890625 7.87239583333331  8.84598214285711 7.82031250000006  L 7.28571428571428 6  L 8.84598214285711 4.17968749999994  C 8.890625 4.12760416666669  8.91294642857139 4.06770833333337  8.91294642857139 4.00000000000006  C 8.91294642857139 3.93229166666663  8.890625 3.87239583333337  8.84598214285711 3.8203125  L 7.86830357142861 2.67968749999994  C 7.82366071428572 2.62760416666669  7.77232142857144 2.6015625  7.71428571428572 2.6015625  C 7.65625 2.6015625  7.60491071428567 2.62760416666669  7.56026785714289 2.67968749999994  L 6 4.5  L 4.43973214285711 2.67968749999994  C 4.39508928571433 2.62760416666669  4.34375 2.6015625  4.28571428571428 2.6015625  C 4.22767857142856 2.6015625  4.17633928571428 2.62760416666669  4.13169642857139 2.67968749999994  L 3.15401785714289 3.8203125  C 3.109375 3.87239583333337  3.08705357142861 3.93229166666663  3.08705357142861 4.00000000000006  C 3.08705357142861 4.06770833333337  3.109375 4.12760416666669  3.15401785714289 4.17968749999994  L 4.71428571428572 6  L 3.15401785714289 7.82031250000006  C 3.109375 7.87239583333331  3.08705357142861 7.93229166666663  3.08705357142861 7.99999999999994  C 3.08705357142861 8.06770833333337  3.109375 8.12760416666663  3.15401785714289 8.1796875  L 4.13169642857139 9.32031250000006  C 4.17633928571428 9.37239583333331  4.22767857142856 9.3984375  4.28571428571428 9.3984375  C 4.34375 9.3984375  4.39508928571433 9.37239583333331  4.43973214285711 9.32031250000006  L 6 7.5  L 7.56026785714289 9.32031250000006  C 7.60491071428567 9.37239583333331  7.65625 9.3984375  7.71428571428572 9.3984375  Z M 11.6852678571429 0.367187500000057  C 11.8950892857143 0.611979166666686  12 0.906250000000057  12 1.24999999999994  L 12 10.7500000000001  C 12 11.0937499999999  11.8950892857143 11.3880208333333  11.6852678571429 11.6328124999999  C 11.4754464285714 11.8776041666666  11.2232142857143 12  10.9285714285714 12  L 1.07142857142861 12  C 0.776785714285722 12  0.524553571428555 11.8776041666666  0.31473214285711 11.6328124999999  C 0.104910714285666 11.3880208333333  0 11.0937499999999  0 10.7500000000001  L 0 1.24999999999994  C 0 0.906250000000057  0.104910714285666 0.611979166666686  0.31473214285711 0.367187500000057  C 0.524553571428555 0.122395833333371  0.776785714285722 0  1.07142857142861 0  L 10.9285714285714 0  C 11.2232142857143 0  11.4754464285714 0.122395833333371  11.6852678571429 0.367187500000057  Z " fill-rule="nonzero" fill="#aeaeae" stroke="none" transform="matrix(1 0 0 1 363 326 )" />
  </g>
</svg>