<?xml version="1.0" encoding="utf-8"?>
<svg version="1.1" xmlns:xlink="http://www.w3.org/1999/xlink" width="28px" height="25px" xmlns="http://www.w3.org/2000/svg">
  <g transform="matrix(1 0 0 1 -1131 -230 )">
    <path d="M 16.5885416666667 22.367931547619  C 16.8072916666667 22.2005208333333  16.9166666666667 21.9618055555556  16.9166666666667 21.6517857142857  L 16.9166666666667 20.610119047619  L 16.9166666666667 11.9047619047619  L 16.9166666666667 8.33333333333333  L 11.0833333333333 8.33333333333333  L 11.0833333333333 11.9047619047619  L 11.0833333333333 20.610119047619  L 11.0833333333333 21.6517857142857  C 11.0833333333333 21.9618055555556  11.1927083333333 22.2005208333333  11.4114583333333 22.367931547619  C 11.6302083333333 22.5353422619048  11.9097222222222 22.6190476190476  12.25 22.6190476190476  L 15.75 22.6190476190476  C 16.0902777777778 22.6190476190476  16.3697916666667 22.5353422619048  16.5885416666667 22.367931547619  Z M 7.36458333333333 5.43154761904762  C 7.70486111111111 5.77876984126984  8.11805555555556 5.95238095238095  8.60416666666667 5.95238095238095  L 12.1588541666667 5.95238095238095  L 9.86197916666667 2.95758928571428  C 9.54600694444444 2.57316468253968  9.12673611111111 2.38095238095238  8.60416666666667 2.38095238095238  C 8.11805555555556 2.38095238095238  7.70486111111111 2.55456349206349  7.36458333333333 2.90178571428572  C 7.02430555555556 3.24900793650793  6.85416666666667 3.67063492063492  6.85416666666667 4.16666666666667  C 6.85416666666667 4.66269841269841  7.02430555555556 5.0843253968254  7.36458333333333 5.43154761904762  Z M 20.6354166666667 5.43154761904762  C 20.9756944444444 5.0843253968254  21.1458333333333 4.66269841269841  21.1458333333333 4.16666666666667  C 21.1458333333333 3.67063492063492  20.9756944444444 3.24900793650793  20.6354166666667 2.90178571428572  C 20.2951388888889 2.55456349206349  19.8819444444444 2.38095238095238  19.3958333333333 2.38095238095238  C 18.8732638888889 2.38095238095238  18.4539930555556 2.57316468253968  18.1380208333333 2.95758928571428  L 15.859375 5.95238095238095  L 19.3958333333333 5.95238095238095  C 19.8819444444444 5.95238095238095  20.2951388888889 5.77876984126984  20.6354166666667 5.43154761904762  Z M 27.8359375 8.50074404761905  C 27.9453125 8.61235119047619  28 8.75496031746032  28 8.92857142857143  L 28 14.8809523809524  C 28 15.0545634920635  27.9453125 15.1971726190476  27.8359375 15.3087797619048  C 27.7265625 15.4203869047619  27.5868055555556 15.4761904761905  27.4166666666667 15.4761904761905  L 25.6666666666667 15.4761904761905  L 25.6666666666667 23.2142857142857  C 25.6666666666667 23.7103174603175  25.4965277777778 24.1319444444444  25.15625 24.4791666666667  C 24.8159722222222 24.8263888888889  24.4027777777778 25  23.9166666666667 25  L 4.08333333333333 25  C 3.59722222222222 25  3.18402777777778 24.8263888888889  2.84375 24.4791666666667  C 2.50347222222222 24.1319444444444  2.33333333333333 23.7103174603175  2.33333333333333 23.2142857142857  L 2.33333333333333 15.4761904761905  L 0.583333333333333 15.4761904761905  C 0.413194444444444 15.4761904761905  0.2734375 15.4203869047619  0.1640625 15.3087797619048  C 0.0546875 15.1971726190476  0 15.0545634920635  0 14.8809523809524  L 0 8.92857142857143  C 0 8.75496031746032  0.0546875 8.61235119047619  0.1640625 8.50074404761905  C 0.2734375 8.3891369047619  0.413194444444444 8.33333333333333  0.583333333333333 8.33333333333333  L 8.60416666666667 8.33333333333333  C 7.47395833333333 8.33333333333333  6.51085069444444 7.92720734126984  5.71484375 7.11495535714286  C 4.91883680555556 6.30270337301587  4.52083333333333 5.31994047619048  4.52083333333333 4.16666666666667  C 4.52083333333333 3.01339285714286  4.91883680555556 2.03062996031746  5.71484375 1.21837797619048  C 6.51085069444444 0.406125992063491  7.47395833333333 0  8.60416666666667 0  C 9.90451388888889 0  10.9253472222222 0.477430555555552  11.6666666666667 1.43229166666667  L 14 4.5014880952381  L 16.3333333333333 1.43229166666667  C 17.0746527777778 0.477430555555552  18.0954861111111 0  19.3958333333333 0  C 20.5260416666667 0  21.4891493055556 0.406125992063491  22.28515625 1.21837797619048  C 23.0811631944444 2.03062996031746  23.4791666666667 3.01339285714286  23.4791666666667 4.16666666666667  C 23.4791666666667 5.31994047619048  23.0811631944444 6.30270337301587  22.28515625 7.11495535714286  C 21.4891493055556 7.92720734126984  20.5260416666667 8.33333333333333  19.3958333333333 8.33333333333333  L 27.4166666666667 8.33333333333333  C 27.5868055555556 8.33333333333333  27.7265625 8.3891369047619  27.8359375 8.50074404761905  Z " fill-rule="nonzero" fill="#000000" stroke="none" fill-opacity="0.349019607843137" transform="matrix(1 0 0 1 1131 230 )" />
  </g>
</svg>