<?xml version="1.0" encoding="utf-8"?>
<svg version="1.1" xmlns:xlink="http://www.w3.org/1999/xlink" width="24px" height="26px" xmlns="http://www.w3.org/2000/svg">
  <g transform="matrix(1 0 0 1 -763 -242 )">
    <path d="M 1.81978021978005 19.9642857142858  L 1.81978021978005 24.1428571428572  L 5.9142857142856 24.1428571428572  L 5.9142857142856 19.9642857142858  L 1.81978021978005 19.9642857142858  Z M 6.82417582417572 19.9642857142858  L 6.82417582417572 24.1428571428572  L 11.3736263736263 24.1428571428572  L 11.3736263736263 19.9642857142858  L 6.82417582417572 19.9642857142858  Z M 1.81978021978005 14.3928571428572  L 1.81978021978005 19.0357142857142  L 5.9142857142856 19.0357142857142  L 5.9142857142856 14.3928571428572  L 1.81978021978005 14.3928571428572  Z M 6.82417582417572 14.3928571428572  L 6.82417582417572 19.0357142857142  L 11.3736263736263 19.0357142857142  L 11.3736263736263 14.3928571428572  L 6.82417582417572 14.3928571428572  Z M 1.81978021978005 9.28571428571424  L 1.81978021978005 13.4642857142858  L 5.9142857142856 13.4642857142858  L 5.9142857142856 9.28571428571424  L 1.81978021978005 9.28571428571424  Z M 12.2835164835165 19.9642857142858  L 12.2835164835165 24.1428571428572  L 16.8329670329671 24.1428571428572  L 16.8329670329671 19.9642857142858  L 12.2835164835165 19.9642857142858  Z M 6.82417582417572 9.28571428571424  L 6.82417582417572 13.4642857142858  L 11.3736263736263 13.4642857142858  L 11.3736263736263 9.28571428571424  L 6.82417582417572 9.28571428571424  Z M 17.742857142857 19.9642857142858  L 17.742857142857 24.1428571428572  L 21.8373626373625 24.1428571428572  L 21.8373626373625 19.9642857142858  L 17.742857142857 19.9642857142858  Z M 12.2835164835165 14.3928571428572  L 12.2835164835165 19.0357142857142  L 16.8329670329671 19.0357142857142  L 16.8329670329671 14.3928571428572  L 12.2835164835165 14.3928571428572  Z M 7.14405906593408 6.82645089285717  C 7.23410027472534 6.73456101190475  7.27912087912097 6.62574404761904  7.27912087912097 6.5  L 7.27912087912097 2.32142857142859  C 7.27912087912097 2.1956845238095  7.23410027472534 2.08686755952384  7.14405906593408 1.99497767857141  C 7.05401785714282 1.90308779761904  6.94739010989016 1.85714285714283  6.82417582417572 1.85714285714283  L 5.9142857142856 1.85714285714283  C 5.79107142857135 1.85714285714283  5.68444368131869 1.90308779761904  5.59440247252743 1.99497767857141  C 5.50436126373636 2.08686755952384  5.45934065934054 2.1956845238095  5.45934065934054 2.32142857142859  L 5.45934065934054 6.5  C 5.45934065934054 6.62574404761904  5.50436126373636 6.73456101190475  5.59440247252743 6.82645089285717  C 5.68444368131869 6.9183407738095  5.79107142857135 6.96428571428576  5.9142857142856 6.96428571428576  L 6.82417582417572 6.96428571428576  C 6.94739010989016 6.96428571428576  7.05401785714282 6.9183407738095  7.14405906593408 6.82645089285717  Z M 17.742857142857 14.3928571428572  L 17.742857142857 19.0357142857142  L 21.8373626373625 19.0357142857142  L 21.8373626373625 14.3928571428572  L 17.742857142857 14.3928571428572  Z M 12.2835164835165 9.28571428571424  L 12.2835164835165 13.4642857142858  L 16.8329670329671 13.4642857142858  L 16.8329670329671 9.28571428571424  L 12.2835164835165 9.28571428571424  Z M 17.742857142857 9.28571428571424  L 17.742857142857 13.4642857142858  L 21.8373626373625 13.4642857142858  L 21.8373626373625 9.28571428571424  L 17.742857142857 9.28571428571424  Z M 18.0627403846153 6.82645089285717  C 18.1527815934064 6.73456101190475  18.1978021978022 6.62574404761904  18.1978021978022 6.5  L 18.1978021978022 2.32142857142859  C 18.1978021978022 2.1956845238095  18.1527815934064 2.08686755952384  18.0627403846153 1.99497767857141  C 17.9726991758241 1.90308779761904  17.8660714285714 1.85714285714283  17.742857142857 1.85714285714283  L 16.8329670329671 1.85714285714283  C 16.7097527472526 1.85714285714283  16.603125 1.90308779761904  16.5130837912087 1.99497767857141  C 16.4230425824176 2.08686755952384  16.3780219780218 2.1956845238095  16.3780219780218 2.32142857142859  L 16.3780219780218 6.5  C 16.3780219780218 6.62574404761904  16.4230425824176 6.73456101190475  16.5130837912087 6.82645089285717  C 16.603125 6.9183407738095  16.7097527472526 6.96428571428576  16.8329670329671 6.96428571428576  L 17.742857142857 6.96428571428576  C 17.8660714285714 6.96428571428576  17.9726991758241 6.9183407738095  18.0627403846153 6.82645089285717  Z M 23.1168956043954 4.265625  C 23.4770604395604 4.6331845238095  23.6571428571428 5.06845238095237  23.6571428571428 5.57142857142859  L 23.6571428571428 24.1428571428572  C 23.6571428571428 24.6458333333333  23.4770604395604 25.0811011904762  23.1168956043954 25.4486607142858  C 22.7567307692305 25.8162202380953  22.3302197802197 26  21.8373626373625 26  L 1.81978021978005 26  C 1.32692307692306 26  0.900412087912043 25.8162202380953  0.540247252747187 25.4486607142858  C 0.180082417582331 25.0811011904762  0 24.6458333333333  0 24.1428571428572  L 0 5.57142857142859  C 0 5.06845238095237  0.180082417582331 4.6331845238095  0.540247252747187 4.265625  C 0.900412087912043 3.8980654761905  1.32692307692306 3.71428571428576  1.81978021978005 3.71428571428576  L 3.63956043956029 3.71428571428576  L 3.63956043956029 2.32142857142859  C 3.63956043956029 1.68303571428571  3.86229395604388 1.13653273809525  4.30776098901106 0.681919642857171  C 4.75322802197804 0.22730654761909  5.28873626373628 0  5.9142857142856 0  L 6.82417582417572 0  C 7.44972527472542 0  7.98523351648347 0.22730654761909  8.43070054945045 0.681919642857171  C 8.87616758241763 1.13653273809525  9.09890109890102 1.68303571428571  9.09890109890102 2.32142857142859  L 9.09890109890102 3.71428571428576  L 14.5582417582418 3.71428571428576  L 14.5582417582418 2.32142857142859  C 14.5582417582418 1.68303571428571  14.7809752747252 1.13653273809525  15.2264423076921 0.681919642857171  C 15.6719093406593 0.22730654761909  16.2074175824176 0  16.8329670329671 0  L 17.742857142857 0  C 18.3684065934065 0  18.9039148351647 0.22730654761909  19.3493818681317 0.681919642857171  C 19.7948489010989 1.13653273809525  20.0175824175823 1.68303571428571  20.0175824175823 2.32142857142859  L 20.0175824175823 3.71428571428576  L 21.8373626373625 3.71428571428576  C 22.3302197802197 3.71428571428576  22.7567307692305 3.8980654761905  23.1168956043954 4.265625  Z " fill-rule="nonzero" fill="#666666" stroke="none" transform="matrix(1 0 0 1 763 242 )" />
  </g>
</svg>