<?xml version="1.0" encoding="utf-8"?>
<svg version="1.1" xmlns:xlink="http://www.w3.org/1999/xlink" width="12px" height="12px" viewBox="647 466  12 12" xmlns="http://www.w3.org/2000/svg">
  <path d="M 653 466  C 656.36 466  659 468.64  659 472  C 659 475.36  656.36 478  653 478  C 649.64 478  647 475.36  647 472  C 647 468.64  649.64 466  653 466  Z " fill-rule="nonzero" fill="#ffffff" stroke="none" />
  <path d="M 653 466.5  C 656.08 466.5  658.5 468.92  658.5 472  C 658.5 475.08  656.08 477.5  653 477.5  C 649.92 477.5  647.5 475.08  647.5 472  C 647.5 468.92  649.92 466.5  653 466.5  Z " stroke-width="1" stroke="#797979" fill="none" />
  <path d="M 653 475  C 651.32 475  650 473.68  650 472  C 650 470.32  651.32 469  653 469  C 654.68 469  656 470.32  656 472  C 656 473.68  654.68 475  653 475  " fill-rule="nonzero" fill="#797979" stroke="none" />
</svg>