<?xml version="1.0" encoding="utf-8"?>
<svg version="1.1" xmlns:xlink="http://www.w3.org/1999/xlink" width="12px" height="12px" viewBox="703 2664  12 12" xmlns="http://www.w3.org/2000/svg">
  <path d="M 709 2664  C 712.36 2664  715 2666.64  715 2670  C 715 2673.36  712.36 2676  709 2676  C 705.64 2676  703 2673.36  703 2670  C 703 2666.64  705.64 2664  709 2664  Z " fill-rule="nonzero" fill="#ffffff" stroke="none" />
  <path d="M 709 2664.5  C 712.08 2664.5  714.5 2666.92  714.5 2670  C 714.5 2673.08  712.08 2675.5  709 2675.5  C 705.92 2675.5  703.5 2673.08  703.5 2670  C 703.5 2666.92  705.92 2664.5  709 2664.5  Z " stroke-width="1" stroke="#797979" fill="none" />
  <path d="M 709 2673  C 707.32 2673  706 2671.68  706 2670  C 706 2668.32  707.32 2667  709 2667  C 710.68 2667  712 2668.32  712 2670  C 712 2671.68  710.68 2673  709 2673  " fill-rule="nonzero" fill="#797979" stroke="none" />
</svg>