<?xml version="1.0" encoding="utf-8"?>
<svg version="1.1" xmlns:xlink="http://www.w3.org/1999/xlink" width="12px" height="12px" viewBox="603 2664  12 12" xmlns="http://www.w3.org/2000/svg">
  <path d="M 609 2664  C 612.36 2664  615 2666.64  615 2670  C 615 2673.36  612.36 2676  609 2676  C 605.64 2676  603 2673.36  603 2670  C 603 2666.64  605.64 2664  609 2664  Z " fill-rule="nonzero" fill="#f0f0f0" stroke="none" />
  <path d="M 609 2664.5  C 612.08 2664.5  614.5 2666.92  614.5 2670  C 614.5 2673.08  612.08 2675.5  609 2675.5  C 605.92 2675.5  603.5 2673.08  603.5 2670  C 603.5 2666.92  605.92 2664.5  609 2664.5  Z " stroke-width="1" stroke="#797979" fill="none" />
  <path d="M 609 2673  C 607.32 2673  606 2671.68  606 2670  C 606 2668.32  607.32 2667  609 2667  C 610.68 2667  612 2668.32  612 2670  C 612 2671.68  610.68 2673  609 2673  " fill-rule="nonzero" fill="#797979" stroke="none" />
</svg>