<?xml version="1.0" encoding="utf-8"?>
<svg version="1.1" xmlns:xlink="http://www.w3.org/1999/xlink" width="12px" height="12px" viewBox="601 2822  12 12" xmlns="http://www.w3.org/2000/svg">
  <path d="M 607 2822  C 610.36 2822  613 2824.64  613 2828  C 613 2831.36  610.36 2834  607 2834  C 603.64 2834  601 2831.36  601 2828  C 601 2824.64  603.64 2822  607 2822  Z " fill-rule="nonzero" fill="#f0f0f0" stroke="none" />
  <path d="M 607 2822.5  C 610.08 2822.5  612.5 2824.92  612.5 2828  C 612.5 2831.08  610.08 2833.5  607 2833.5  C 603.92 2833.5  601.5 2831.08  601.5 2828  C 601.5 2824.92  603.92 2822.5  607 2822.5  Z " stroke-width="1" stroke="#797979" fill="none" />
  <path d="M 607 2831  C 605.32 2831  604 2829.68  604 2828  C 604 2826.32  605.32 2825  607 2825  C 608.68 2825  610 2826.32  610 2828  C 610 2829.68  608.68 2831  607 2831  " fill-rule="nonzero" fill="#797979" stroke="none" />
</svg>