<?xml version="1.0" encoding="utf-8"?>
<svg version="1.1" xmlns:xlink="http://www.w3.org/1999/xlink" width="12px" height="12px" viewBox="811 484  12 12" xmlns="http://www.w3.org/2000/svg">
  <path d="M 817 484  C 820.36 484  823 486.64  823 490  C 823 493.36  820.36 496  817 496  C 813.64 496  811 493.36  811 490  C 811 486.64  813.64 484  817 484  Z " fill-rule="nonzero" fill="#ffffff" stroke="none" />
  <path d="M 817 484.5  C 820.08 484.5  822.5 486.92  822.5 490  C 822.5 493.08  820.08 495.5  817 495.5  C 813.92 495.5  811.5 493.08  811.5 490  C 811.5 486.92  813.92 484.5  817 484.5  Z " stroke-width="1" stroke="#797979" fill="none" />
  <path d="M 817 493  C 815.32 493  814 491.68  814 490  C 814 488.32  815.32 487  817 487  C 818.68 487  820 488.32  820 490  C 820 491.68  818.68 493  817 493  " fill-rule="nonzero" fill="#797979" stroke="none" />
</svg>