<?xml version="1.0" encoding="utf-8"?>
<svg version="1.1" xmlns:xlink="http://www.w3.org/1999/xlink" width="12px" height="12px" viewBox="582 552  12 12" xmlns="http://www.w3.org/2000/svg">
  <path d="M 588 552  C 591.36 552  594 554.64  594 558  C 594 561.36  591.36 564  588 564  C 584.64 564  582 561.36  582 558  C 582 554.64  584.64 552  588 552  Z " fill-rule="nonzero" fill="#ffffff" stroke="none" />
  <path d="M 588 552.5  C 591.08 552.5  593.5 554.92  593.5 558  C 593.5 561.08  591.08 563.5  588 563.5  C 584.92 563.5  582.5 561.08  582.5 558  C 582.5 554.92  584.92 552.5  588 552.5  Z " stroke-width="1" stroke="#797979" fill="none" />
  <path d="M 588 561  C 586.32 561  585 559.68  585 558  C 585 556.32  586.32 555  588 555  C 589.68 555  591 556.32  591 558  C 591 559.68  589.68 561  588 561  " fill-rule="nonzero" fill="#797979" stroke="none" />
</svg>