<?xml version="1.0" encoding="utf-8"?>
<svg version="1.1" xmlns:xlink="http://www.w3.org/1999/xlink" width="12px" height="12px" viewBox="682 517  12 12" xmlns="http://www.w3.org/2000/svg">
  <path d="M 688 517  C 691.36 517  694 519.64  694 523  C 694 526.36  691.36 529  688 529  C 684.64 529  682 526.36  682 523  C 682 519.64  684.64 517  688 517  Z " fill-rule="nonzero" fill="#f0f0f0" stroke="none" />
  <path d="M 688 517.5  C 691.08 517.5  693.5 519.92  693.5 523  C 693.5 526.08  691.08 528.5  688 528.5  C 684.92 528.5  682.5 526.08  682.5 523  C 682.5 519.92  684.92 517.5  688 517.5  Z " stroke-width="1" stroke="#797979" fill="none" />
  <path d="M 688 526  C 686.32 526  685 524.68  685 523  C 685 521.32  686.32 520  688 520  C 689.68 520  691 521.32  691 523  C 691 524.68  689.68 526  688 526  " fill-rule="nonzero" fill="#797979" stroke="none" />
</svg>