<?xml version="1.0" encoding="utf-8"?>
<svg version="1.1" xmlns:xlink="http://www.w3.org/1999/xlink" width="12px" height="12px" viewBox="682 552  12 12" xmlns="http://www.w3.org/2000/svg">
  <path d="M 688 552  C 691.36 552  694 554.64  694 558  C 694 561.36  691.36 564  688 564  C 684.64 564  682 561.36  682 558  C 682 554.64  684.64 552  688 552  Z " fill-rule="nonzero" fill="#f0f0f0" stroke="none" />
  <path d="M 688 552.5  C 691.08 552.5  693.5 554.92  693.5 558  C 693.5 561.08  691.08 563.5  688 563.5  C 684.92 563.5  682.5 561.08  682.5 558  C 682.5 554.92  684.92 552.5  688 552.5  Z " stroke-width="1" stroke="#797979" fill="none" />
  <path d="M 688 561  C 686.32 561  685 559.68  685 558  C 685 556.32  686.32 555  688 555  C 689.68 555  691 556.32  691 558  C 691 559.68  689.68 561  688 561  " fill-rule="nonzero" fill="#797979" stroke="none" />
</svg>