<?xml version="1.0" encoding="utf-8"?>
<svg version="1.1" xmlns:xlink="http://www.w3.org/1999/xlink" width="12px" height="12px" viewBox="582 300  12 12" xmlns="http://www.w3.org/2000/svg">
  <path d="M 588 300  C 591.36 300  594 302.64  594 306  C 594 309.36  591.36 312  588 312  C 584.64 312  582 309.36  582 306  C 582 302.64  584.64 300  588 300  Z " fill-rule="nonzero" fill="#f0f0f0" stroke="none" />
  <path d="M 588 300.5  C 591.08 300.5  593.5 302.92  593.5 306  C 593.5 309.08  591.08 311.5  588 311.5  C 584.92 311.5  582.5 309.08  582.5 306  C 582.5 302.92  584.92 300.5  588 300.5  Z " stroke-width="1" stroke="#797979" fill="none" />
  <path d="M 588 309  C 586.32 309  585 307.68  585 306  C 585 304.32  586.32 303  588 303  C 589.68 303  591 304.32  591 306  C 591 307.68  589.68 309  588 309  " fill-rule="nonzero" fill="#797979" stroke="none" />
</svg>