<?xml version="1.0" encoding="utf-8"?>
<svg version="1.1" xmlns:xlink="http://www.w3.org/1999/xlink" width="12px" height="12px" viewBox="682 300  12 12" xmlns="http://www.w3.org/2000/svg">
  <path d="M 688 300  C 691.36 300  694 302.64  694 306  C 694 309.36  691.36 312  688 312  C 684.64 312  682 309.36  682 306  C 682 302.64  684.64 300  688 300  Z " fill-rule="nonzero" fill="#ffffff" stroke="none" />
  <path d="M 688 300.5  C 691.08 300.5  693.5 302.92  693.5 306  C 693.5 309.08  691.08 311.5  688 311.5  C 684.92 311.5  682.5 309.08  682.5 306  C 682.5 302.92  684.92 300.5  688 300.5  Z " stroke-width="1" stroke="#797979" fill="none" />
  <path d="M 688 309  C 686.32 309  685 307.68  685 306  C 685 304.32  686.32 303  688 303  C 689.68 303  691 304.32  691 306  C 691 307.68  689.68 309  688 309  " fill-rule="nonzero" fill="#797979" stroke="none" />
</svg>