<?xml version="1.0" encoding="utf-8"?>
<svg version="1.1" xmlns:xlink="http://www.w3.org/1999/xlink" width="12px" height="12px" viewBox="682 409  12 12" xmlns="http://www.w3.org/2000/svg">
  <path d="M 688 409  C 691.36 409  694 411.64  694 415  C 694 418.36  691.36 421  688 421  C 684.64 421  682 418.36  682 415  C 682 411.64  684.64 409  688 409  Z " fill-rule="nonzero" fill="#f0f0f0" stroke="none" />
  <path d="M 688 409.5  C 691.08 409.5  693.5 411.92  693.5 415  C 693.5 418.08  691.08 420.5  688 420.5  C 684.92 420.5  682.5 418.08  682.5 415  C 682.5 411.92  684.92 409.5  688 409.5  Z " stroke-width="1" stroke="#797979" fill="none" />
  <path d="M 688 418  C 686.32 418  685 416.68  685 415  C 685 413.32  686.32 412  688 412  C 689.68 412  691 413.32  691 415  C 691 416.68  689.68 418  688 418  " fill-rule="nonzero" fill="#797979" stroke="none" />
</svg>