<?xml version="1.0" encoding="utf-8"?>
<svg version="1.1" xmlns:xlink="http://www.w3.org/1999/xlink" width="12px" height="12px" viewBox="582 409  12 12" xmlns="http://www.w3.org/2000/svg">
  <path d="M 588 409  C 591.36 409  594 411.64  594 415  C 594 418.36  591.36 421  588 421  C 584.64 421  582 418.36  582 415  C 582 411.64  584.64 409  588 409  Z " fill-rule="nonzero" fill="#f0f0f0" stroke="none" />
  <path d="M 588 409.5  C 591.08 409.5  593.5 411.92  593.5 415  C 593.5 418.08  591.08 420.5  588 420.5  C 584.92 420.5  582.5 418.08  582.5 415  C 582.5 411.92  584.92 409.5  588 409.5  Z " stroke-width="1" stroke="#797979" fill="none" />
  <path d="M 588 418  C 586.32 418  585 416.68  585 415  C 585 413.32  586.32 412  588 412  C 589.68 412  591 413.32  591 415  C 591 416.68  589.68 418  588 418  " fill-rule="nonzero" fill="#797979" stroke="none" />
</svg>