<?xml version="1.0" encoding="utf-8"?>
<svg version="1.1" xmlns:xlink="http://www.w3.org/1999/xlink" width="14px" height="17px" xmlns="http://www.w3.org/2000/svg">
  <g transform="matrix(1 0 0 1 -264 -191 )">
    <path d="M 12.9369591346153 10.2748579545454  C 13.1000120192307 10.4277935606061  13.1815384615385 10.6089015151515  13.1815384615385 10.8181818181818  C 13.1815384615385 11.0274621212121  13.1000120192307 11.2085700757576  12.9369591346153 11.3615056818182  L 7.17003605769236 16.7705965909091  C 7.00698317307688 16.9235321969697  6.81389423076921 17  6.59076923076917 17  C 6.36764423076926 17  6.17455528846153 16.9235321969697  6.01150240384611 16.7705965909091  L 0.244579326923074 11.3615056818182  C 0.0815264423077119 11.2085700757576  0 11.0274621212121  0 10.8181818181818  C 0 10.6089015151515  0.0815264423077119 10.4277935606061  0.244579326923074 10.2748579545454  C 0.407632211538437 10.1219223484848  0.600721153846166 10.0454545454546  0.823846153846139 10  L 12.3576923076923 10  C 12.5808173076923 10.0454545454546  12.77390625 10.1219223484848  12.9369591346153 10.2748579545454  Z M 12.9369591346153 5.63849431818184  C 13.1000120192307 5.79142992424244  13.1815384615385 5.9725378787879  13.1815384615385 6.18181818181816  C 13.1815384615385 6.3910984848485  13.1000120192307 6.57220643939394  12.9369591346153 6.72514204545456  C 12.77390625 6.87807765151516  12.5808173076923 6.95454545454544  12.3576923076923 7  L 0.823846153846139 7  C 0.600721153846166 6.95454545454544  0.407632211538437 6.87807765151516  0.244579326923074 6.72514204545456  C 0.0815264423077119 6.57220643939394  0 6.3910984848485  0 6.18181818181816  C 0 5.9725378787879  0.0815264423077119 5.79142992424244  0.244579326923074 5.63849431818184  L 6.01150240384611 0.229403409090878  C 6.17455528846153 0.0764678030302832  6.36764423076926 0  6.59076923076917 0  C 6.81389423076921 0  7.00698317307688 0.0764678030302832  7.17003605769236 0.229403409090878  L 12.9369591346153 5.63849431818184  Z " fill-rule="nonzero" fill="#4a5df0" stroke="none" transform="matrix(1 0 0 1 264 191 )" />
  </g>
</svg>