<?xml version="1.0" encoding="utf-8"?>
<svg version="1.1" xmlns:xlink="http://www.w3.org/1999/xlink" width="12px" height="12px" viewBox="594 361  12 12" xmlns="http://www.w3.org/2000/svg">
  <path d="M 600 361  C 603.36 361  606 363.64  606 367  C 606 370.36  603.36 373  600 373  C 596.64 373  594 370.36  594 367  C 594 363.64  596.64 361  600 361  Z " fill-rule="nonzero" fill="#ffffff" stroke="none" />
  <path d="M 600 361.5  C 603.08 361.5  605.5 363.92  605.5 367  C 605.5 370.08  603.08 372.5  600 372.5  C 596.92 372.5  594.5 370.08  594.5 367  C 594.5 363.92  596.92 361.5  600 361.5  Z " stroke-width="1" stroke="#797979" fill="none" />
  <path d="M 600 370  C 598.32 370  597 368.68  597 367  C 597 365.32  598.32 364  600 364  C 601.68 364  603 365.32  603 367  C 603 368.68  601.68 370  600 370  " fill-rule="nonzero" fill="#797979" stroke="none" />
</svg>