<?xml version="1.0" encoding="utf-8"?>
<svg version="1.1" xmlns:xlink="http://www.w3.org/1999/xlink" width="24px" height="15px" xmlns="http://www.w3.org/2000/svg">
  <g transform="matrix(1 0 0 1 -1463 -793 )">
    <path d="M 13.025390625 9.826171875  C 13.341796875 9.087890625  13.5 8.3125  13.5 7.5  C 13.5 6.6875  13.341796875 5.912109375  13.025390625 5.173828125  C 12.708984375 4.435546875  12.28125 3.796875  11.7421875 3.2578125  C 11.203125 2.71875  10.564453125 2.291015625  9.826171875 1.974609375  C 9.087890625 1.658203125  8.3125 1.5  7.5 1.5  C 6.6875 1.5  5.912109375 1.658203125  5.173828125 1.974609375  C 4.435546875 2.291015625  3.796875 2.71875  3.2578125 3.2578125  C 2.71875 3.796875  2.291015625 4.435546875  1.974609375 5.173828125  C 1.658203125 5.912109375  1.5 6.6875  1.5 7.5  C 1.5 8.3125  1.658203125 9.087890625  1.974609375 9.826171875  C 2.291015625 10.564453125  2.71875 11.203125  3.2578125 11.7421875  C 3.796875 12.28125  4.435546875 12.708984375  5.173828125 13.025390625  C 5.912109375 13.341796875  6.6875 13.5  7.5 13.5  C 8.3125 13.5  9.087890625 13.341796875  9.826171875 13.025390625  C 10.564453125 12.708984375  11.203125 12.28125  11.7421875 11.7421875  C 12.28125 11.203125  12.708984375 10.564453125  13.025390625 9.826171875  Z M 22.025390625 9.826171875  C 22.341796875 9.087890625  22.5 8.3125  22.5 7.5  C 22.5 6.6875  22.341796875 5.912109375  22.025390625 5.173828125  C 21.708984375 4.435546875  21.28125 3.796875  20.7421875 3.2578125  C 20.203125 2.71875  19.564453125 2.291015625  18.826171875 1.974609375  C 18.087890625 1.658203125  17.3125 1.5  16.5 1.5  L 11.9765625 1.5  C 12.90625 2.203125  13.642578125 3.078125  14.185546875 4.125  C 14.728515625 5.171875  15 6.296875  15 7.5  C 15 8.703125  14.728515625 9.828125  14.185546875 10.875  C 13.642578125 11.921875  12.90625 12.796875  11.9765625 13.5  L 16.5 13.5  C 17.3125 13.5  18.087890625 13.341796875  18.826171875 13.025390625  C 19.564453125 12.708984375  20.203125 12.28125  20.7421875 11.7421875  C 21.28125 11.203125  21.708984375 10.564453125  22.025390625 9.826171875  Z M 23.40234375 4.587890625  C 23.80078125 5.513671875  24 6.484375  24 7.5  C 24 8.515625  23.80078125 9.486328125  23.40234375 10.412109375  C 23.00390625 11.337890625  22.470703125 12.134765625  21.802734375 12.802734375  C 21.134765625 13.470703125  20.337890625 14.00390625  19.412109375 14.40234375  C 18.486328125 14.80078125  17.515625 15  16.5 15  L 7.5 15  C 6.484375 15  5.513671875 14.80078125  4.587890625 14.40234375  C 3.662109375 14.00390625  2.865234375 13.470703125  2.197265625 12.802734375  C 1.529296875 12.134765625  0.99609375 11.337890625  0.59765625 10.412109375  C 0.19921875 9.486328125  0 8.515625  0 7.5  C 0 6.484375  0.19921875 5.513671875  0.59765625 4.587890625  C 0.99609375 3.662109375  1.529296875 2.865234375  2.197265625 2.197265625  C 2.865234375 1.529296875  3.662109375 0.99609375  4.587890625 0.597656249999999  C 5.513671875 0.19921875  6.484375 0  7.5 0  L 16.5 0  C 17.515625 0  18.486328125 0.19921875  19.412109375 0.597656249999999  C 20.337890625 0.99609375  21.134765625 1.529296875  21.802734375 2.197265625  C 22.470703125 2.865234375  23.00390625 3.662109375  23.40234375 4.587890625  Z " fill-rule="nonzero" fill="#000000" stroke="none" transform="matrix(1 0 0 1 1463 793 )" />
  </g>
</svg>