<?xml version="1.0" encoding="utf-8"?>
<svg version="1.1" xmlns:xlink="http://www.w3.org/1999/xlink" width="23px" height="18px" xmlns="http://www.w3.org/2000/svg">
  <g transform="matrix(1 0 0 1 -4 -117 )">
    <path d="M 4.806640625 5.03053977272727  C 4.88792782738095 5.11150568181818  4.92857142857143 5.20738636363636  4.92857142857143 5.31818181818182  L 4.92857142857143 12.6818181818182  C 4.92857142857143 12.7926136363636  4.88792782738095 12.8884943181818  4.806640625 12.9694602272727  C 4.72535342261905 13.0504261363636  4.62909226190476 13.0909090909091  4.51785714285714 13.0909090909091  C 4.39806547619048 13.0909090909091  4.29966517857143 13.0525568181818  4.22265625 12.9758522727273  L 0.526227678571428 9.29403409090909  C 0.44921875 9.21732954545455  0.410714285714286 9.11931818181818  0.410714285714286 9  C 0.410714285714286 8.88068181818182  0.44921875 8.78267045454546  0.526227678571428 8.70596590909091  L 4.22265625 5.02414772727273  C 4.29966517857143 4.94744318181818  4.39806547619048 4.90909090909091  4.51785714285714 4.90909090909091  C 4.62909226190476 4.90909090909091  4.72535342261905 4.94957386363636  4.806640625 5.03053977272727  Z M 22.8780691964286 14.8487215909091  C 22.9593563988095 14.9296875  23 15.0255681818182  23 15.1363636363636  L 23 17.5909090909091  C 23 17.7017045454545  22.9593563988095 17.7975852272727  22.8780691964286 17.8785511363636  C 22.7967819940476 17.9595170454545  22.7005208333333 18  22.5892857142857 18  L 0.410714285714286 18  C 0.299479166666667 18  0.203218005952381 17.9595170454545  0.121930803571429 17.8785511363636  C 0.0406436011904762 17.7975852272727  0 17.7017045454545  0 17.5909090909091  L 0 15.1363636363636  C 0 15.0255681818182  0.0406436011904762 14.9296875  0.121930803571429 14.8487215909091  C 0.203218005952381 14.7677556818182  0.299479166666667 14.7272727272727  0.410714285714286 14.7272727272727  L 22.5892857142857 14.7272727272727  C 22.7005208333333 14.7272727272727  22.7967819940476 14.7677556818182  22.8780691964286 14.8487215909091  Z M 22.8780691964286 9.93963068181818  C 22.9593563988095 10.0205965909091  23 10.1164772727273  23 10.2272727272727  L 23 12.6818181818182  C 23 12.7926136363636  22.9593563988095 12.8884943181818  22.8780691964286 12.9694602272727  C 22.7967819940476 13.0504261363636  22.7005208333333 13.0909090909091  22.5892857142857 13  L 8.625 13  C 8.51376488095238 13.0909090909091  8.41750372023809 13.0504261363636  8.33621651785714 12.9694602272727  C 8.25492931547619 12.8884943181818  8.21428571428572 12.7926136363636  8.21428571428572 12.6818181818182  L 8.21428571428572 10.2272727272727  C 8.21428571428572 10.1164772727273  8.25492931547619 10.0205965909091  8.33621651785714 9.93963068181818  C 8.41750372023809 9.85866477272727  8.51376488095238 9.81818181818182  8.625 9.81818181818182  L 22.5892857142857 9.81818181818182  C 22.7005208333333 9.81818181818182  22.7967819940476 9.85866477272727  22.8780691964286 9.93963068181818  Z M 22.8780691964286 5.03053977272727  C 22.9593563988095 5.11150568181818  23 5.20738636363636  23 5.31818181818182  L 23 7.77272727272727  C 23 7.88352272727273  22.9593563988095 7.97940340909091  22.8780691964286 8.06036931818182  C 22.7967819940476 8.14133522727273  22.7005208333333 8.18181818181818  22.5892857142857 8.18181818181818  L 8.625 8.18181818181818  C 8.51376488095238 8.18181818181818  8.41750372023809 8.14133522727273  8.33621651785714 8.06036931818182  C 8.25492931547619 7.97940340909091  8.21428571428572 7.88352272727273  8.21428571428572 7.77272727272727  L 8.21428571428572 5.31818181818182  C 8.21428571428572 5.20738636363636  8.25492931547619 5.11150568181818  8.33621651785714 5.03053977272727  C 8.41750372023809 4.94957386363636  8.51376488095238 4.90909090909091  8.625 5  L 22.5892857142857 5  C 22.7005208333333 4.90909090909091  22.7967819940476 4.94957386363636  22.8780691964286 5.03053977272727  Z M 22.8780691964286 0.121448863636363  C 22.9593563988095 0.202414772727272  23 0.298295454545453  23 0.409090909090909  L 23 2.86363636363636  C 23 2.97443181818182  22.9593563988095 3.0703125  22.8780691964286 3.15127840909091  C 22.7967819940476 3.23224431818182  22.7005208333333 3.27272727272727  22.5892857142857 3.27272727272727  L 0.410714285714286 3.27272727272727  C 0.299479166666667 3.27272727272727  0.203218005952381 3.23224431818182  0.121930803571429 3.15127840909091  C 0.0406436011904762 3.0703125  0 2.97443181818182  0 2.86363636363636  L 0 0.409090909090909  C 0 0.298295454545453  0.0406436011904762 0.202414772727272  0.121930803571429 0.121448863636363  C 0.203218005952381 0.0404829545454517  0.299479166666667 0  0.410714285714286 0  L 22.5892857142857 0  C 22.7005208333333 0  22.7967819940476 0.0404829545454517  22.8780691964286 0.121448863636363  Z " fill-rule="nonzero" fill="#ffffff" stroke="none" transform="matrix(1 0 0 1 4 117 )" />
  </g>
</svg>