<?xml version="1.0" encoding="utf-8"?>
<svg version="1.1" xmlns:xlink="http://www.w3.org/1999/xlink" width="25px" height="25px" xmlns="http://www.w3.org/2000/svg">
  <g transform="matrix(1 0 0 1 -50 -165 )">
    <path d="M 13.1277901785714 4.23704954954955  C 13.3045014880952 4.05874624624624  13.3928571428571 3.8475975975976  13.3928571428571 3.6036036036036  C 13.3928571428571 3.35960960960961  13.3045014880952 3.14846096096096  13.1277901785714 2.97015765765766  C 12.9510788690476 2.79185435435435  12.7418154761905 2.7027027027027  12.5 2.7027027027027  C 12.2581845238095 2.7027027027027  12.0489211309524 2.79185435435435  11.8722098214286 2.97015765765766  C 11.6954985119048 3.14846096096096  11.6071428571429 3.35960960960961  11.6071428571429 3.6036036036036  C 11.6071428571429 3.8475975975976  11.6954985119048 4.05874624624624  11.8722098214286 4.23704954954955  C 12.0489211309524 4.41535285285285  12.2581845238095 4.50450450450451  12.5 4.50450450450451  C 12.7418154761905 4.50450450450451  12.9510788690476 4.41535285285285  13.1277901785714 4.23704954954955  Z M 24.8744419642857 16.3429054054054  C 24.9581473214286 16.4273648648649  25 16.5352852852853  25 16.6666666666667  L 25 21.6216216216216  C 25 21.8280780780781  24.9069940476191 21.9688438438438  24.7209821428571 22.0439189189189  C 24.6465773809524 22.0626876876877  24.5907738095238 22.0720720720721  24.5535714285714 22.0720720720721  C 24.4419642857143 22.0720720720721  24.3350074404762 22.0298423423423  24.2327008928571 21.9453828828829  L 22.9352678571429 20.6362612612613  C 21.8284970238095 21.9782282282282  20.3473772321429 23.0410097597598  18.4919084821429 23.8246058558559  C 16.6364397321429 24.608201951952  14.6391369047619 25  12.5 25  C 10.3608630952381 25  8.36356026785714 24.608201951952  6.50809151785714 23.8246058558559  C 4.65262276785714 23.0410097597598  3.17150297619048 21.9782282282282  2.06473214285714 20.6362612612613  L 0.767299107142857 21.9453828828829  C 0.68359375 22.0298423423423  0.576636904761905 22.0720720720721  0.446428571428571 22.0720720720721  C 0.409226190476191 22.0720720720721  0.353422619047619 22.0626876876877  0.279017857142857 22.0439189189189  C 0.0930059523809524 21.9688438438438  0 21.8280780780781  0 21.6216216216216  L 0 16.6666666666667  C 0 16.5352852852853  0.0418526785714286 16.4273648648649  0.125558035714286 16.3429054054054  C 0.209263392857143 16.2584459459459  0.316220238095238 16.2162162162162  0.446428571428571 16.2162162162162  L 5.35714285714286 16.2162162162162  C 5.56175595238095 16.2162162162162  5.70126488095238 16.3100600600601  5.77566964285714 16.4977477477477  C 5.85007440476191 16.6760510510511  5.81752232142857 16.8402777777778  5.67801339285714 16.9904279279279  L 4.28292410714286 18.3980855855856  C 4.90606398809524 19.2520645645646  5.78729538690476 19.9723160660661  6.92661830357143 20.5588400900901  C 8.0659412202381 21.1453641141141  9.32849702380953 21.53246996997  10.7142857142857 21.7201576576577  L 10.7142857142857 12.6126126126126  L 8.03571428571429 12.6126126126126  C 7.79389880952381 12.6126126126126  7.58463541666667 12.523460960961  7.40792410714286 12.3451576576577  C 7.23121279761905 12.1668543543544  7.14285714285714 11.9557057057057  7.14285714285714 11.7117117117117  L 7.14285714285714 9.90990990990991  C 7.14285714285714 9.66591591591591  7.23121279761905 9.45476726726726  7.40792410714286 9.27646396396396  C 7.58463541666667 9.09816066066066  7.79389880952381 9.00900900900901  8.03571428571429 9.00900900900901  L 10.7142857142857 9.00900900900901  L 10.7142857142857 6.71452702702703  C 10.1748511904762 6.39545795795796  9.74237351190476 5.96143018018018  9.41685267857143 5.41244369369369  C 9.0913318452381 4.86345720720721  8.92857142857143 4.26051051051051  8.92857142857143 3.6036036036036  C 8.92857142857143 2.60885885885886  9.27734375 1.75957207207207  9.97488839285714 1.05574324324324  C 10.6724330357143 0.351914414414414  11.5141369047619 0  12.5 0  C 13.4858630952381 0  14.3275669642857 0.351914414414414  15.0251116071429 1.05574324324324  C 15.72265625 1.75957207207207  16.0714285714286 2.60885885885886  16.0714285714286 3.6036036036036  C 16.0714285714286 4.26051051051051  15.9086681547619 4.86345720720721  15.5831473214286 5.41244369369369  C 15.2576264880952 5.96143018018018  14.8251488095238 6.39545795795796  14.2857142857143 6.71452702702703  L 14.2857142857143 9.00900900900901  L 16.9642857142857 9.00900900900901  C 17.2061011904762 9.00900900900901  17.4153645833333 9.09816066066066  17.5920758928571 9.27646396396396  C 17.768787202381 9.45476726726726  17.8571428571429 9.66591591591591  17.8571428571429 9.90990990990991  L 17.8571428571429 11.7117117117117  C 17.8571428571429 11.9557057057057  17.768787202381 12.1668543543544  17.5920758928571 12.3451576576577  C 17.4153645833333 12.523460960961  17.2061011904762 12.6126126126126  16.9642857142857 12.6126126126126  L 14.2857142857143 12.6126126126126  L 14.2857142857143 21.7201576576577  C 15.6715029761905 21.53246996997  16.9340587797619 21.1453641141141  18.0733816964286 20.5588400900901  C 19.2127046130952 19.9723160660661  20.0939360119048 19.2520645645646  20.7170758928571 18.3980855855856  L 19.3219866071429 16.9904279279279  C 19.1824776785714 16.8402777777778  19.1499255952381 16.6760510510511  19.2243303571429 16.4977477477477  C 19.2987351190476 16.3100600600601  19.4382440476191 16.2162162162162  19.6428571428571 16.2162162162162  L 24.5535714285714 16.2162162162162  C 24.6837797619048 16.2162162162162  24.7907366071429 16.2584459459459  24.8744419642857 16.3429054054054  Z " fill-rule="nonzero" fill="#000000" stroke="none" transform="matrix(1 0 0 1 50 165 )" />
  </g>
</svg>