<?xml version="1.0" encoding="utf-8"?>
<svg version="1.1" xmlns:xlink="http://www.w3.org/1999/xlink" width="12px" height="12px" viewBox="701 574  12 12" xmlns="http://www.w3.org/2000/svg">
  <path d="M 707 574  C 710.36 574  713 576.64  713 580  C 713 583.36  710.36 586  707 586  C 703.64 586  701 583.36  701 580  C 701 576.64  703.64 574  707 574  Z " fill-rule="nonzero" fill="#ffffff" stroke="none" />
  <path d="M 707 574.5  C 710.08 574.5  712.5 576.92  712.5 580  C 712.5 583.08  710.08 585.5  707 585.5  C 703.92 585.5  701.5 583.08  701.5 580  C 701.5 576.92  703.92 574.5  707 574.5  Z " stroke-width="1" stroke="#797979" fill="none" />
  <path d="M 707 583  C 705.32 583  704 581.68  704 580  C 704 578.32  705.32 577  707 577  C 708.68 577  710 578.32  710 580  C 710 581.68  708.68 583  707 583  " fill-rule="nonzero" fill="#797979" stroke="none" />
</svg>