<?xml version="1.0" encoding="utf-8"?>
<svg version="1.1" xmlns:xlink="http://www.w3.org/1999/xlink" width="12px" height="12px" viewBox="601 618  12 12" xmlns="http://www.w3.org/2000/svg">
  <path d="M 607 618  C 610.36 618  613 620.64  613 624  C 613 627.36  610.36 630  607 630  C 603.64 630  601 627.36  601 624  C 601 620.64  603.64 618  607 618  Z " fill-rule="nonzero" fill="#ffffff" stroke="none" />
  <path d="M 607 618.5  C 610.08 618.5  612.5 620.92  612.5 624  C 612.5 627.08  610.08 629.5  607 629.5  C 603.92 629.5  601.5 627.08  601.5 624  C 601.5 620.92  603.92 618.5  607 618.5  Z " stroke-width="1" stroke="#797979" fill="none" />
  <path d="M 607 627  C 605.32 627  604 625.68  604 624  C 604 622.32  605.32 621  607 621  C 608.68 621  610 622.32  610 624  C 610 625.68  608.68 627  607 627  " fill-rule="nonzero" fill="#797979" stroke="none" />
</svg>