<?xml version="1.0" encoding="utf-8"?>
<svg version="1.1" xmlns:xlink="http://www.w3.org/1999/xlink" width="12px" height="12px" viewBox="701 618  12 12" xmlns="http://www.w3.org/2000/svg">
  <path d="M 707 618  C 710.36 618  713 620.64  713 624  C 713 627.36  710.36 630  707 630  C 703.64 630  701 627.36  701 624  C 701 620.64  703.64 618  707 618  Z " fill-rule="nonzero" fill="#ffffff" stroke="none" />
  <path d="M 707 618.5  C 710.08 618.5  712.5 620.92  712.5 624  C 712.5 627.08  710.08 629.5  707 629.5  C 703.92 629.5  701.5 627.08  701.5 624  C 701.5 620.92  703.92 618.5  707 618.5  Z " stroke-width="1" stroke="#797979" fill="none" />
  <path d="M 707 627  C 705.32 627  704 625.68  704 624  C 704 622.32  705.32 621  707 621  C 708.68 621  710 622.32  710 624  C 710 625.68  708.68 627  707 627  " fill-rule="nonzero" fill="#797979" stroke="none" />
</svg>