<?xml version="1.0" encoding="utf-8"?>
<svg version="1.1" xmlns:xlink="http://www.w3.org/1999/xlink" width="12px" height="12px" viewBox="601 574  12 12" xmlns="http://www.w3.org/2000/svg">
  <path d="M 607 574  C 610.36 574  613 576.64  613 580  C 613 583.36  610.36 586  607 586  C 603.64 586  601 583.36  601 580  C 601 576.64  603.64 574  607 574  Z " fill-rule="nonzero" fill="#ffffff" stroke="none" />
  <path d="M 607 574.5  C 610.08 574.5  612.5 576.92  612.5 580  C 612.5 583.08  610.08 585.5  607 585.5  C 603.92 585.5  601.5 583.08  601.5 580  C 601.5 576.92  603.92 574.5  607 574.5  Z " stroke-width="1" stroke="#797979" fill="none" />
  <path d="M 607 583  C 605.32 583  604 581.68  604 580  C 604 578.32  605.32 577  607 577  C 608.68 577  610 578.32  610 580  C 610 581.68  608.68 583  607 583  " fill-rule="nonzero" fill="#797979" stroke="none" />
</svg>