<?xml version="1.0" encoding="utf-8"?>
<svg version="1.1" xmlns:xlink="http://www.w3.org/1999/xlink" width="16px" height="18px" xmlns="http://www.w3.org/2000/svg">
  <g transform="matrix(1 0 0 1 -1451 -134 )">
    <path d="M 1.23076923076928 13.3540372670807  L 1.23076923076928 16.1490683229814  L 4 16.1490683229814  L 4 13.3540372670807  L 1.23076923076928 13.3540372670807  Z M 4.61538461538453 13.3540372670807  L 4.61538461538453 16.1490683229814  L 7.69230769230774 16.1490683229814  L 7.69230769230774 13.3540372670807  L 4.61538461538453 13.3540372670807  Z M 1.23076923076928 9.62732919254657  L 1.23076923076928 12.7329192546584  L 4 12.7329192546584  L 4 9.62732919254657  L 1.23076923076928 9.62732919254657  Z M 4.61538461538453 9.62732919254657  L 4.61538461538453 12.7329192546584  L 7.69230769230774 12.7329192546584  L 7.69230769230774 9.62732919254657  L 4.61538461538453 9.62732919254657  Z M 1.23076923076928 6.21118012422362  L 1.23076923076928 9.00621118012424  L 4 9.00621118012424  L 4 6.21118012422362  L 1.23076923076928 6.21118012422362  Z M 8.30769230769226 13.3540372670807  L 8.30769230769226 16.1490683229814  L 11.3846153846155 16.1490683229814  L 11.3846153846155 13.3540372670807  L 8.30769230769226 13.3540372670807  Z M 4.61538461538453 6.21118012422362  L 4.61538461538453 9.00621118012424  L 7.69230769230774 9.00621118012424  L 7.69230769230774 6.21118012422362  L 4.61538461538453 6.21118012422362  Z M 12 13.3540372670807  L 12 16.1490683229814  L 14.7692307692307 16.1490683229814  L 14.7692307692307 13.3540372670807  L 12 13.3540372670807  Z M 8.30769230769226 9.62732919254657  L 8.30769230769226 12.7329192546584  L 11.3846153846155 12.7329192546584  L 11.3846153846155 9.62732919254657  L 8.30769230769226 9.62732919254657  Z M 4.83173076923072 4.56618788819878  C 4.89262820512818 4.50472308488611  4.92307692307691 4.43193581780538  4.92307692307691 4.3478260869565  L 4.92307692307691 1.55279503105589  C 4.92307692307691 1.46868530020704  4.89262820512818 1.39589803312629  4.83173076923072 1.33443322981365  C 4.77083333333326 1.27296842650102  4.69871794871801 1.24223602484471  4.61538461538453 1.24223602484471  L 4 1.24223602484471  C 3.91666666666674 1.24223602484471  3.84455128205127 1.27296842650102  3.78365384615381 1.33443322981365  C 3.72275641025647 1.39589803312629  3.69230769230774 1.46868530020704  3.69230769230774 1.55279503105589  L 3.69230769230774 4.3478260869565  C 3.69230769230774 4.43193581780538  3.72275641025647 4.50472308488611  3.78365384615381 4.56618788819878  C 3.84455128205127 4.62765269151141  3.91666666666674 4.65838509316772  4 4.65838509316772  L 4.61538461538453 4.65838509316772  C 4.69871794871801 4.65838509316772  4.77083333333326 4.62765269151141  4.83173076923072 4.56618788819878  Z M 12 9.62732919254657  L 12 12.7329192546584  L 14.7692307692307 12.7329192546584  L 14.7692307692307 9.62732919254657  L 12 9.62732919254657  Z M 8.30769230769226 6.21118012422362  L 8.30769230769226 9.00621118012424  L 11.3846153846155 9.00621118012424  L 11.3846153846155 6.21118012422362  L 8.30769230769226 6.21118012422362  Z M 12 6.21118012422362  L 12 9.00621118012424  L 14.7692307692307 9.00621118012424  L 14.7692307692307 6.21118012422362  L 12 6.21118012422362  Z M 12.2163461538462 4.56618788819878  C 12.2772435897435 4.50472308488611  12.3076923076923 4.43193581780538  12.3076923076923 4.3478260869565  L 12.3076923076923 1.55279503105589  C 12.3076923076923 1.46868530020704  12.2772435897435 1.39589803312629  12.2163461538462 1.33443322981365  C 12.1554487179487 1.27296842650102  12.0833333333333 1.24223602484471  12 1.24223602484471  L 11.3846153846155 1.24223602484471  C 11.301282051282 1.24223602484471  11.2291666666667 1.27296842650102  11.1682692307693 1.33443322981365  C 11.1073717948718 1.39589803312629  11.0769230769231 1.46868530020704  11.0769230769231 1.55279503105589  L 11.0769230769231 4.3478260869565  C 11.0769230769231 4.43193581780538  11.1073717948718 4.50472308488611  11.1682692307693 4.56618788819878  C 11.2291666666667 4.62765269151141  11.301282051282 4.65838509316772  11.3846153846155 4.65838509316772  L 12 4.65838509316772  C 12.0833333333333 4.65838509316772  12.1554487179487 4.62765269151141  12.2163461538462 4.56618788819878  Z M 15.6346153846155 2.8532608695652  C 15.8782051282052 3.09912008281572  16 3.39026915113872  16 3.72670807453414  L 16 16.1490683229814  C 16 16.4855072463768  15.8782051282052 16.7766563146998  15.6346153846155 17.0225155279503  C 15.3910256410256 17.2683747412008  15.1025641025641 17.3913043478261  14.7692307692307 17.3913043478261  L 1.23076923076928 17.3913043478261  C 0.897435897435912 17.3913043478261  0.608974358974365 17.2683747412008  0.365384615384528 17.0225155279503  C 0.121794871794805 16.7766563146998  0 16.4855072463768  0 16.1490683229814  L 0 3.72670807453414  C 0 3.39026915113872  0.121794871794805 3.09912008281572  0.365384615384528 2.8532608695652  C 0.608974358974365 2.60740165631469  0.897435897435912 2.48447204968943  1.23076923076928 2.48447204968943  L 2.46153846153845 2.48447204968943  L 2.46153846153845 1.55279503105589  C 2.46153846153845 1.12577639751552  2.61217948717945 0.760222567287798  2.91346153846155 0.456133540372662  C 3.21474358974353 0.152044513457554  3.57692307692309 0  4 0  L 4.61538461538453 0  C 5.03846153846155 0  5.40064102564099 0.152044513457554  5.70192307692309 0.456133540372662  C 6.0032051282052 0.760222567287798  6.15384615384619 1.12577639751552  6.15384615384619 1.55279503105589  L 6.15384615384619 2.48447204968943  L 9.84615384615381 2.48447204968943  L 9.84615384615381 1.55279503105589  C 9.84615384615381 1.12577639751552  9.99679487179492 0.760222567287798  10.2980769230769 0.456133540372662  C 10.599358974359 0.152044513457554  10.9615384615385 0  11.3846153846155 0  L 12 0  C 12.4230769230769 0  12.7852564102565 0.152044513457554  13.0865384615385 0.456133540372662  C 13.3878205128206 0.760222567287798  13.5384615384615 1.12577639751552  13.5384615384615 1.55279503105589  L 13.5384615384615 2.48447204968943  L 14.7692307692307 2.48447204968943  C 15.1025641025641 2.48447204968943  15.3910256410256 2.60740165631469  15.6346153846155 2.8532608695652  Z " fill-rule="nonzero" fill="#000000" stroke="none" transform="matrix(1 0 0 1 1451 134 )" />
  </g>
</svg>