<?xml version="1.0" encoding="utf-8"?>
<svg version="1.1" xmlns:xlink="http://www.w3.org/1999/xlink" width="12px" height="12px" viewBox="683 434  12 12" xmlns="http://www.w3.org/2000/svg">
  <path d="M 689 434  C 692.36 434  695 436.64  695 440  C 695 443.36  692.36 446  689 446  C 685.64 446  683 443.36  683 440  C 683 436.64  685.64 434  689 434  Z " fill-rule="nonzero" fill="#f0f0f0" stroke="none" />
  <path d="M 689 434.5  C 692.08 434.5  694.5 436.92  694.5 440  C 694.5 443.08  692.08 445.5  689 445.5  C 685.92 445.5  683.5 443.08  683.5 440  C 683.5 436.92  685.92 434.5  689 434.5  Z " stroke-width="1" stroke="#797979" fill="none" />
  <path d="M 689 443  C 687.32 443  686 441.68  686 440  C 686 438.32  687.32 437  689 437  C 690.68 437  692 438.32  692 440  C 692 441.68  690.68 443  689 443  " fill-rule="nonzero" fill="#797979" stroke="none" />
</svg>