<?xml version="1.0" encoding="utf-8"?>
<svg version="1.1" xmlns:xlink="http://www.w3.org/1999/xlink" width="15px" height="15px" xmlns="http://www.w3.org/2000/svg">
  <g transform="matrix(1 0 0 1 -758 -460 )">
    <path d="M 765.5 460  C 769.7 460  773 463.3  773 467.5  C 773 471.7  769.7 475  765.5 475  C 761.3 475  758 471.7  758 467.5  C 758 463.3  761.3 460  765.5 460  Z " fill-rule="nonzero" fill="#ffffff" stroke="none" />
    <path d="M 765.5 460.5  C 769.42 460.5  772.5 463.58  772.5 467.5  C 772.5 471.42  769.42 474.5  765.5 474.5  C 761.58 474.5  758.5 471.42  758.5 467.5  C 758.5 463.58  761.58 460.5  765.5 460.5  Z " stroke-width="1" stroke="#797979" fill="none" />
  </g>
</svg>