<?xml version="1.0" encoding="utf-8"?>
<svg version="1.1" xmlns:xlink="http://www.w3.org/1999/xlink" width="14px" height="12px" xmlns="http://www.w3.org/2000/svg">
  <g transform="matrix(1 0 0 1 -827 -257 )">
    <path d="M 9.88451086956525 10.8515625  C 9.9838001672241 10.7526041666667  10.0334448160536 10.6354166666667  10.0334448160536 10.5  C 10.0334448160536 10.3645833333333  9.9838001672241 10.2473958333333  9.88451086956525 10.1484375  C 9.7852215719065 10.0494791666667  9.66764214046827 10  9.53177257525078 10  C 9.39590301003352 10  9.2783235785954 10.0494791666667  9.17903428093643 10.1484375  C 9.07974498327769 10.2473958333333  9.03010033444821 10.3645833333333  9.03010033444821 10.5  C 9.03010033444821 10.6354166666667  9.07974498327769 10.7526041666667  9.17903428093643 10.8515625  C 9.2783235785954 10.9505208333333  9.39590301003352 11  9.53177257525078 11  C 9.66764214046827 11  9.7852215719065 10.9505208333333  9.88451086956525 10.8515625  Z M 11.891199832776 10.8515625  C 11.9904891304348 10.7526041666667  12.0401337792644 10.6354166666667  12.0401337792644 10.5  C 12.0401337792644 10.3645833333333  11.9904891304348 10.2473958333333  11.891199832776 10.1484375  C 11.7919105351172 10.0494791666667  11.6743311036789 10  11.5384615384617 10  C 11.4025919732443 10  11.2850125418061 10.0494791666667  11.1857232441471 10.1484375  C 11.0864339464883 10.2473958333333  11.0367892976589 10.3645833333333  11.0367892976589 10.5  C 11.0367892976589 10.6354166666667  11.0864339464883 10.7526041666667  11.1857232441471 10.8515625  C 11.2850125418061 10.9505208333333  11.4025919732443 11  11.5384615384617 11  C 11.6743311036789 11  11.7919105351172 10.9505208333333  11.891199832776 10.8515625  Z M 12.8239966555184 8.21875  C 12.9703177257526 8.36458333333331  13.0434782608695 8.54166666666663  13.0434782608695 8.75  L 13.0434782608695 11.25  C 13.0434782608695 11.4583333333333  12.9703177257526 11.6354166666666  12.8239966555184 11.78125  C 12.6776755852843 11.9270833333333  12.5000000000001 12  12.2909698996655 12  L 0.752508361204036 12  C 0.543478260869506 12  0.365802675585428 11.9270833333333  0.21948160535112 11.78125  C 0.0731605351171538 11.6354166666666  0 11.4583333333333  0 11.25  L 0 8.75  C 0 8.54166666666663  0.0731605351171538 8.36458333333331  0.21948160535112 8.21875  C 0.365802675585428 8.07291666666663  0.543478260869506 8  0.752508361204036 8  L 4.39747073578599 8  L 5.45568561872904 9.0625  C 5.75877926421413 9.35416666666669  6.11413043478274 9.5  6.52173913043475 9.5  C 6.929347826087 9.5  7.28469899665549 9.35416666666669  7.58779264214047 9.0625  L 8.65384615384619 8  L 12.2909698996655 8  C 12.5000000000001 8  12.6776755852843 8.07291666666663  12.8239966555184 8.21875  Z M 10.0334448160536 4  C 10.2529264214048 4  10.4070861204013 4.1015625  10.4959239130435 4.3046875  C 10.5847617056857 4.51822916666669  10.5481814381271 4.70052083333337  10.3861831103681 4.8515625  L 6.87447742474922 8.3515625  C 6.78041387959877 8.45052083333337  6.66283444816065 8.5  6.52173913043475 8.5  C 6.38064381270908 8.5  6.26306438127097 8.45052083333337  6.1690008361204 8.3515625  L 2.65729515050168 4.8515625  C 2.49529682274249 4.70052083333337  2.45871655518397 4.51822916666669  2.54755434782612 4.3046875  C 2.63639214046827 4.1015625  2.79055183946491 4  3.01003344481614 4  L 5.01672240802679 4  L 5.01672240802679 0.5  C 5.01672240802679 0.364583333333371  5.06636705685617 0.247395833333371  5.16565635451514 0.1484375  C 5.26494565217399 0.0494791666666856  5.38252508361211 0  5.51839464882949 0  L 7.52508361204013 0  C 7.66095317725762 0  7.77853260869563 0.0494791666666856  7.87782190635448 0.1484375  C 7.97711120401334 0.247395833333371  8.02675585284283 0.364583333333371  8.02675585284283 0.5  L 8.02675585284283 4  L 10.0334448160536 4  Z " fill-rule="nonzero" fill="#4a5df0" stroke="none" transform="matrix(1 0 0 1 827 257 )" />
  </g>
</svg>