<?xml version="1.0" encoding="utf-8"?>
<svg version="1.1" xmlns:xlink="http://www.w3.org/1999/xlink" width="17px" height="20px" xmlns="http://www.w3.org/2000/svg">
  <g transform="matrix(1 0 0 1 -749 -734 )">
    <path d="M 4.55555555555566 6.36363636363637  L 4.55555555555566 9.09090909090912  L 11.8444444444444 9.09090909090912  L 11.8444444444444 6.36363636363637  C 11.8444444444444 5.3598484848485  11.4885416666666 4.50284090909088  10.7767361111109 3.79261363636363  C 10.0649305555557 3.08238636363637  9.2060185185187 2.72727272727275  8.19999999999982 2.72727272727275  C 7.19398148148139 2.72727272727275  6.33506944444434 3.08238636363637  5.62326388888914 3.79261363636363  C 4.91145833333348 4.50284090909088  4.55555555555566 5.3598484848485  4.55555555555566 6.36363636363637  Z M 16.0013888888889 9.48863636363637  C 16.2671296296298 9.75378787878788  16.4000000000001 10.0757575757576  16.4000000000001 10.4545454545455  L 16.4000000000001 18.6363636363636  C 16.4000000000001 19.0151515151515  16.2671296296298 19.3371212121212  16.0013888888889 19.6022727272727  C 15.7356481481484 19.8674242424242  15.4129629629629 20  15.0333333333333 20  L 1.36666666666679 20  C 0.987037037037226 20  0.664351851851734 19.8674242424242  0.398611111111222 19.6022727272727  C 0.132870370370256 19.3371212121212  0 19.0151515151515  0 18.6363636363636  L 0 10.4545454545455  C 0 10.0757575757576  0.132870370370256 9.75378787878788  0.398611111111222 9.48863636363637  C 0.664351851851734 9.22348484848487  0.987037037037226 9.09090909090912  1.36666666666679 9.09090909090912  L 1.82222222222208 9.09090909090912  L 1.82222222222208 6.36363636363637  C 1.82222222222208 4.62121212121212  2.44861111111095 3.125  3.70138888888869 1.875  C 4.95416666666688 0.625  6.45370370370392 0  8.19999999999982 0  C 9.94629629629617 0  11.4458333333332 0.625  12.6986111111114 1.875  C 13.9513888888891 3.125  14.577777777778 4.62121212121212  14.577777777778 6.36363636363637  L 14.577777777778 9.09090909090912  L 15.0333333333333 9.09090909090912  C 15.4129629629629 9.09090909090912  15.7356481481484 9.22348484848487  16.0013888888889 9.48863636363637  Z " fill-rule="nonzero" fill="#ffa158" stroke="none" transform="matrix(1 0 0 1 749 734 )" />
  </g>
</svg>