<?xml version="1.0" encoding="utf-8"?>
<svg version="1.1" xmlns:xlink="http://www.w3.org/1999/xlink" width="12px" height="12px" xmlns="http://www.w3.org/2000/svg">
  <g transform="matrix(1 0 0 1 -469 -229 )">
    <path d="M 2.02772277227723 10.9861386138614  L 2.87524752475247 10.9861386138614  L 3.59603960396038 10.2653465346534  L 1.73465346534658 8.40396039603957  L 1.01386138613861 9.12475247524753  L 1.01386138613861 9.97227722772277  L 2.02772277227723 9.97227722772277  L 2.02772277227723 10.9861386138614  Z M 6.96237623762374 3.77029702970299  C 6.99933993399338 3.73333333333335  7.0178217821782 3.68844884488453  7.0178217821782 3.63564356435631  C 7.0178217821782 3.51947194719469  6.95973597359733 3.46138613861376  6.84356435643565 3.46138613861376  C 6.7907590759076 3.46138613861376  6.74587458745879 3.47986798679858  6.70891089108915 3.51683168316822  L 2.41584158415839 7.8099009900991  C 2.37887788778875 7.84686468646873  2.36039603960393 7.89174917491755  2.36039603960393 7.94455445544554  C 2.36039603960393 8.06072607260739  2.4184818481848 8.11881188118809  2.53465346534654 8.11881188118809  C 2.58745874587464 8.11881188118809  2.63234323432346 8.10033003300327  2.6693069306931 8.06336633663364  L 6.96237623762374 3.77029702970299  Z M 0 8.70495049504962  L 6.590099009901 2.11485148514862  L 9.88514851485149 5.409900990099  L 3.2950495049505 12  L 0 12  L 0 8.70495049504962  Z M 11.7069306930693 2.1544554455445  C 11.9023102310231 2.36039603960398  12 2.60066006600664  12 2.87524752475247  C 12 3.155115511551  11.9023102310231 3.39273927392742  11.7069306930693 3.58811881188126  L 10.3920792079208 4.9029702970297  L 7.0970297029703 1.60792079207931  L 8.41188118811885 0.30099009901005  C 8.60198019801982 0.100330033003274  8.83960396039606 0  9.12475247524753 0  C 9.40462046204618 0  9.64488448844884 0.100330033003274  9.84554455445544 0.30099009901005  L 11.7069306930693 2.1544554455445  Z " fill-rule="nonzero" fill="#198dff" stroke="none" transform="matrix(1 0 0 1 469 229 )" />
  </g>
</svg>