<?xml version="1.0" encoding="utf-8"?>
<svg version="1.1" xmlns:xlink="http://www.w3.org/1999/xlink" width="12px" height="12px" viewBox="2550 717  12 12" xmlns="http://www.w3.org/2000/svg">
  <path d="M 2556 717  C 2559.36 717  2562 719.64  2562 723  C 2562 726.36  2559.36 729  2556 729  C 2552.64 729  2550 726.36  2550 723  C 2550 719.64  2552.64 717  2556 717  Z " fill-rule="nonzero" fill="#f0f0f0" stroke="none" />
  <path d="M 2556 717.5  C 2559.08 717.5  2561.5 719.92  2561.5 723  C 2561.5 726.08  2559.08 728.5  2556 728.5  C 2552.92 728.5  2550.5 726.08  2550.5 723  C 2550.5 719.92  2552.92 717.5  2556 717.5  Z " stroke-width="1" stroke="#797979" fill="none" />
  <path d="M 2556 726  C 2554.32 726  2553 724.68  2553 723  C 2553 721.32  2554.32 720  2556 720  C 2557.68 720  2559 721.32  2559 723  C 2559 724.68  2557.68 726  2556 726  " fill-rule="nonzero" fill="#797979" stroke="none" />
</svg>