<?xml version="1.0" encoding="utf-8"?>
<svg version="1.1" xmlns:xlink="http://www.w3.org/1999/xlink" width="12px" height="12px" viewBox="680 757  12 12" xmlns="http://www.w3.org/2000/svg">
  <path d="M 686 757  C 689.36 757  692 759.64  692 763  C 692 766.36  689.36 769  686 769  C 682.64 769  680 766.36  680 763  C 680 759.64  682.64 757  686 757  Z " fill-rule="nonzero" fill="#ffffff" stroke="none" />
  <path d="M 686 757.5  C 689.08 757.5  691.5 759.92  691.5 763  C 691.5 766.08  689.08 768.5  686 768.5  C 682.92 768.5  680.5 766.08  680.5 763  C 680.5 759.92  682.92 757.5  686 757.5  Z " stroke-width="1" stroke="#797979" fill="none" />
  <path d="M 686 766  C 684.32 766  683 764.68  683 763  C 683 761.32  684.32 760  686 760  C 687.68 760  689 761.32  689 763  C 689 764.68  687.68 766  686 766  " fill-rule="nonzero" fill="#797979" stroke="none" />
</svg>