<?xml version="1.0" encoding="utf-8"?>
<svg version="1.1" xmlns:xlink="http://www.w3.org/1999/xlink" width="12px" height="12px" viewBox="677 785  12 12" xmlns="http://www.w3.org/2000/svg">
  <path d="M 683 785  C 686.36 785  689 787.64  689 791  C 689 794.36  686.36 797  683 797  C 679.64 797  677 794.36  677 791  C 677 787.64  679.64 785  683 785  Z " fill-rule="nonzero" fill="#ffffff" stroke="none" />
  <path d="M 683 785.5  C 686.08 785.5  688.5 787.92  688.5 791  C 688.5 794.08  686.08 796.5  683 796.5  C 679.92 796.5  677.5 794.08  677.5 791  C 677.5 787.92  679.92 785.5  683 785.5  Z " stroke-width="1" stroke="#797979" fill="none" />
  <path d="M 683 794  C 681.32 794  680 792.68  680 791  C 680 789.32  681.32 788  683 788  C 684.68 788  686 789.32  686 791  C 686 792.68  684.68 794  683 794  " fill-rule="nonzero" fill="#797979" stroke="none" />
</svg>