<?xml version="1.0" encoding="utf-8"?>
<svg version="1.1" xmlns:xlink="http://www.w3.org/1999/xlink" width="12px" height="12px" viewBox="580 757  12 12" xmlns="http://www.w3.org/2000/svg">
  <path d="M 586 757  C 589.36 757  592 759.64  592 763  C 592 766.36  589.36 769  586 769  C 582.64 769  580 766.36  580 763  C 580 759.64  582.64 757  586 757  Z " fill-rule="nonzero" fill="#ffffff" stroke="none" />
  <path d="M 586 757.5  C 589.08 757.5  591.5 759.92  591.5 763  C 591.5 766.08  589.08 768.5  586 768.5  C 582.92 768.5  580.5 766.08  580.5 763  C 580.5 759.92  582.92 757.5  586 757.5  Z " stroke-width="1" stroke="#797979" fill="none" />
  <path d="M 586 766  C 584.32 766  583 764.68  583 763  C 583 761.32  584.32 760  586 760  C 587.68 760  589 761.32  589 763  C 589 764.68  587.68 766  586 766  " fill-rule="nonzero" fill="#797979" stroke="none" />
</svg>