<?xml version="1.0" encoding="utf-8"?>
<svg version="1.1" xmlns:xlink="http://www.w3.org/1999/xlink" width="12px" height="12px" viewBox="2650 1772  12 12" xmlns="http://www.w3.org/2000/svg">
  <path d="M 2656 1772  C 2659.36 1772  2662 1774.64  2662 1778  C 2662 1781.36  2659.36 1784  2656 1784  C 2652.64 1784  2650 1781.36  2650 1778  C 2650 1774.64  2652.64 1772  2656 1772  Z " fill-rule="nonzero" fill="#ffffff" stroke="none" />
  <path d="M 2656 1772.5  C 2659.08 1772.5  2661.5 1774.92  2661.5 1778  C 2661.5 1781.08  2659.08 1783.5  2656 1783.5  C 2652.92 1783.5  2650.5 1781.08  2650.5 1778  C 2650.5 1774.92  2652.92 1772.5  2656 1772.5  Z " stroke-width="1" stroke="#797979" fill="none" />
  <path d="M 2656 1781  C 2654.32 1781  2653 1779.68  2653 1778  C 2653 1776.32  2654.32 1775  2656 1775  C 2657.68 1775  2659 1776.32  2659 1778  C 2659 1779.68  2657.68 1781  2656 1781  " fill-rule="nonzero" fill="#797979" stroke="none" />
</svg>