<?xml version="1.0" encoding="utf-8"?>
<svg version="1.1" xmlns:xlink="http://www.w3.org/1999/xlink" width="12px" height="12px" viewBox="2550 642  12 12" xmlns="http://www.w3.org/2000/svg">
  <path d="M 2556 642  C 2559.36 642  2562 644.64  2562 648  C 2562 651.36  2559.36 654  2556 654  C 2552.64 654  2550 651.36  2550 648  C 2550 644.64  2552.64 642  2556 642  Z " fill-rule="nonzero" fill="#ffffff" stroke="none" />
  <path d="M 2556 642.5  C 2559.08 642.5  2561.5 644.92  2561.5 648  C 2561.5 651.08  2559.08 653.5  2556 653.5  C 2552.92 653.5  2550.5 651.08  2550.5 648  C 2550.5 644.92  2552.92 642.5  2556 642.5  Z " stroke-width="1" stroke="#797979" fill="none" />
  <path d="M 2556 651  C 2554.32 651  2553 649.68  2553 648  C 2553 646.32  2554.32 645  2556 645  C 2557.68 645  2559 646.32  2559 648  C 2559 649.68  2557.68 651  2556 651  " fill-rule="nonzero" fill="#797979" stroke="none" />
</svg>