<?xml version="1.0" encoding="utf-8"?>
<svg version="1.1" xmlns:xlink="http://www.w3.org/1999/xlink" width="12px" height="12px" viewBox="2647 534  12 12" xmlns="http://www.w3.org/2000/svg">
  <path d="M 2653 534  C 2656.36 534  2659 536.64  2659 540  C 2659 543.36  2656.36 546  2653 546  C 2649.64 546  2647 543.36  2647 540  C 2647 536.64  2649.64 534  2653 534  Z " fill-rule="nonzero" fill="#ffffff" stroke="none" />
  <path d="M 2653 534.5  C 2656.08 534.5  2658.5 536.92  2658.5 540  C 2658.5 543.08  2656.08 545.5  2653 545.5  C 2649.92 545.5  2647.5 543.08  2647.5 540  C 2647.5 536.92  2649.92 534.5  2653 534.5  Z " stroke-width="1" stroke="#797979" fill="none" />
  <path d="M 2653 543  C 2651.32 543  2650 541.68  2650 540  C 2650 538.32  2651.32 537  2653 537  C 2654.68 537  2656 538.32  2656 540  C 2656 541.68  2654.68 543  2653 543  " fill-rule="nonzero" fill="#797979" stroke="none" />
</svg>