<?xml version="1.0" encoding="utf-8"?>
<svg version="1.1" xmlns:xlink="http://www.w3.org/1999/xlink" width="12px" height="12px" viewBox="677 649  12 12" xmlns="http://www.w3.org/2000/svg">
  <path d="M 683 649  C 686.36 649  689 651.64  689 655  C 689 658.36  686.36 661  683 661  C 679.64 661  677 658.36  677 655  C 677 651.64  679.64 649  683 649  Z " fill-rule="nonzero" fill="#f0f0f0" stroke="none" />
  <path d="M 683 649.5  C 686.08 649.5  688.5 651.92  688.5 655  C 688.5 658.08  686.08 660.5  683 660.5  C 679.92 660.5  677.5 658.08  677.5 655  C 677.5 651.92  679.92 649.5  683 649.5  Z " stroke-width="1" stroke="#797979" fill="none" />
  <path d="M 683 658  C 681.32 658  680 656.68  680 655  C 680 653.32  681.32 652  683 652  C 684.68 652  686 653.32  686 655  C 686 656.68  684.68 658  683 658  " fill-rule="nonzero" fill="#797979" stroke="none" />
</svg>