<?xml version="1.0" encoding="utf-8"?>
<svg version="1.1" xmlns:xlink="http://www.w3.org/1999/xlink" width="12px" height="12px" viewBox="4520 642  12 12" xmlns="http://www.w3.org/2000/svg">
  <path d="M 4526 642  C 4529.36 642  4532 644.64  4532 648  C 4532 651.36  4529.36 654  4526 654  C 4522.64 654  4520 651.36  4520 648  C 4520 644.64  4522.64 642  4526 642  Z " fill-rule="nonzero" fill="#f0f0f0" stroke="none" />
  <path d="M 4526 642.5  C 4529.08 642.5  4531.5 644.92  4531.5 648  C 4531.5 651.08  4529.08 653.5  4526 653.5  C 4522.92 653.5  4520.5 651.08  4520.5 648  C 4520.5 644.92  4522.92 642.5  4526 642.5  Z " stroke-width="1" stroke="#797979" fill="none" />
  <path d="M 4526 651  C 4524.32 651  4523 649.68  4523 648  C 4523 646.32  4524.32 645  4526 645  C 4527.68 645  4529 646.32  4529 648  C 4529 649.68  4527.68 651  4526 651  " fill-rule="nonzero" fill="#797979" stroke="none" />
</svg>