<?xml version="1.0" encoding="utf-8"?>
<svg version="1.1" xmlns:xlink="http://www.w3.org/1999/xlink" width="12px" height="12px" viewBox="2650 642  12 12" xmlns="http://www.w3.org/2000/svg">
  <path d="M 2656 642  C 2659.36 642  2662 644.64  2662 648  C 2662 651.36  2659.36 654  2656 654  C 2652.64 654  2650 651.36  2650 648  C 2650 644.64  2652.64 642  2656 642  Z " fill-rule="nonzero" fill="#f0f0f0" stroke="none" />
  <path d="M 2656 642.5  C 2659.08 642.5  2661.5 644.92  2661.5 648  C 2661.5 651.08  2659.08 653.5  2656 653.5  C 2652.92 653.5  2650.5 651.08  2650.5 648  C 2650.5 644.92  2652.92 642.5  2656 642.5  Z " stroke-width="1" stroke="#797979" fill="none" />
  <path d="M 2656 651  C 2654.32 651  2653 649.68  2653 648  C 2653 646.32  2654.32 645  2656 645  C 2657.68 645  2659 646.32  2659 648  C 2659 649.68  2657.68 651  2656 651  " fill-rule="nonzero" fill="#797979" stroke="none" />
</svg>