<?xml version="1.0" encoding="utf-8"?>
<svg version="1.1" xmlns:xlink="http://www.w3.org/1999/xlink" width="12px" height="12px" viewBox="2550 1878  12 12" xmlns="http://www.w3.org/2000/svg">
  <path d="M 2556 1878  C 2559.36 1878  2562 1880.64  2562 1884  C 2562 1887.36  2559.36 1890  2556 1890  C 2552.64 1890  2550 1887.36  2550 1884  C 2550 1880.64  2552.64 1878  2556 1878  Z " fill-rule="nonzero" fill="#f0f0f0" stroke="none" />
  <path d="M 2556 1878.5  C 2559.08 1878.5  2561.5 1880.92  2561.5 1884  C 2561.5 1887.08  2559.08 1889.5  2556 1889.5  C 2552.92 1889.5  2550.5 1887.08  2550.5 1884  C 2550.5 1880.92  2552.92 1878.5  2556 1878.5  Z " stroke-width="1" stroke="#797979" fill="none" />
  <path d="M 2556 1887  C 2554.32 1887  2553 1885.68  2553 1884  C 2553 1882.32  2554.32 1881  2556 1881  C 2557.68 1881  2559 1882.32  2559 1884  C 2559 1885.68  2557.68 1887  2556 1887  " fill-rule="nonzero" fill="#797979" stroke="none" />
</svg>