<?xml version="1.0" encoding="utf-8"?>
<svg version="1.1" xmlns:xlink="http://www.w3.org/1999/xlink" width="12px" height="12px" viewBox="2647 1664  12 12" xmlns="http://www.w3.org/2000/svg">
  <path d="M 2653 1664  C 2656.36 1664  2659 1666.64  2659 1670  C 2659 1673.36  2656.36 1676  2653 1676  C 2649.64 1676  2647 1673.36  2647 1670  C 2647 1666.64  2649.64 1664  2653 1664  Z " fill-rule="nonzero" fill="#ffffff" stroke="none" />
  <path d="M 2653 1664.5  C 2656.08 1664.5  2658.5 1666.92  2658.5 1670  C 2658.5 1673.08  2656.08 1675.5  2653 1675.5  C 2649.92 1675.5  2647.5 1673.08  2647.5 1670  C 2647.5 1666.92  2649.92 1664.5  2653 1664.5  Z " stroke-width="1" stroke="#797979" fill="none" />
  <path d="M 2653 1673  C 2651.32 1673  2650 1671.68  2650 1670  C 2650 1668.32  2651.32 1667  2653 1667  C 2654.68 1667  2656 1668.32  2656 1670  C 2656 1671.68  2654.68 1673  2653 1673  " fill-rule="nonzero" fill="#797979" stroke="none" />
</svg>