<?xml version="1.0" encoding="utf-8"?>
<svg version="1.1" xmlns:xlink="http://www.w3.org/1999/xlink" width="12px" height="12px" viewBox="4520 717  12 12" xmlns="http://www.w3.org/2000/svg">
  <path d="M 4526 717  C 4529.36 717  4532 719.64  4532 723  C 4532 726.36  4529.36 729  4526 729  C 4522.64 729  4520 726.36  4520 723  C 4520 719.64  4522.64 717  4526 717  Z " fill-rule="nonzero" fill="#ffffff" stroke="none" />
  <path d="M 4526 717.5  C 4529.08 717.5  4531.5 719.92  4531.5 723  C 4531.5 726.08  4529.08 728.5  4526 728.5  C 4522.92 728.5  4520.5 726.08  4520.5 723  C 4520.5 719.92  4522.92 717.5  4526 717.5  Z " stroke-width="1" stroke="#797979" fill="none" />
  <path d="M 4526 726  C 4524.32 726  4523 724.68  4523 723  C 4523 721.32  4524.32 720  4526 720  C 4527.68 720  4529 721.32  4529 723  C 4529 724.68  4527.68 726  4526 726  " fill-rule="nonzero" fill="#797979" stroke="none" />
</svg>