<?xml version="1.0" encoding="utf-8"?>
<svg version="1.1" xmlns:xlink="http://www.w3.org/1999/xlink" width="12px" height="12px" viewBox="4620 642  12 12" xmlns="http://www.w3.org/2000/svg">
  <path d="M 4626 642  C 4629.36 642  4632 644.64  4632 648  C 4632 651.36  4629.36 654  4626 654  C 4622.64 654  4620 651.36  4620 648  C 4620 644.64  4622.64 642  4626 642  Z " fill-rule="nonzero" fill="#f0f0f0" stroke="none" />
  <path d="M 4626 642.5  C 4629.08 642.5  4631.5 644.92  4631.5 648  C 4631.5 651.08  4629.08 653.5  4626 653.5  C 4622.92 653.5  4620.5 651.08  4620.5 648  C 4620.5 644.92  4622.92 642.5  4626 642.5  Z " stroke-width="1" stroke="#797979" fill="none" />
  <path d="M 4626 651  C 4624.32 651  4623 649.68  4623 648  C 4623 646.32  4624.32 645  4626 645  C 4627.68 645  4629 646.32  4629 648  C 4629 649.68  4627.68 651  4626 651  " fill-rule="nonzero" fill="#797979" stroke="none" />
</svg>