<?xml version="1.0" encoding="utf-8"?>
<svg version="1.1" xmlns:xlink="http://www.w3.org/1999/xlink" width="12px" height="12px" viewBox="4520 534  12 12" xmlns="http://www.w3.org/2000/svg">
  <path d="M 4526 534  C 4529.36 534  4532 536.64  4532 540  C 4532 543.36  4529.36 546  4526 546  C 4522.64 546  4520 543.36  4520 540  C 4520 536.64  4522.64 534  4526 534  Z " fill-rule="nonzero" fill="#f0f0f0" stroke="none" />
  <path d="M 4526 534.5  C 4529.08 534.5  4531.5 536.92  4531.5 540  C 4531.5 543.08  4529.08 545.5  4526 545.5  C 4522.92 545.5  4520.5 543.08  4520.5 540  C 4520.5 536.92  4522.92 534.5  4526 534.5  Z " stroke-width="1" stroke="#797979" fill="none" />
  <path d="M 4526 543  C 4524.32 543  4523 541.68  4523 540  C 4523 538.32  4524.32 537  4526 537  C 4527.68 537  4529 538.32  4529 540  C 4529 541.68  4527.68 543  4526 543  " fill-rule="nonzero" fill="#797979" stroke="none" />
</svg>