<?xml version="1.0" encoding="utf-8"?>
<svg version="1.1" xmlns:xlink="http://www.w3.org/1999/xlink" width="12px" height="12px" viewBox="4617 717  12 12" xmlns="http://www.w3.org/2000/svg">
  <path d="M 4623 717  C 4626.36 717  4629 719.64  4629 723  C 4629 726.36  4626.36 729  4623 729  C 4619.64 729  4617 726.36  4617 723  C 4617 719.64  4619.64 717  4623 717  Z " fill-rule="nonzero" fill="#ffffff" stroke="none" />
  <path d="M 4623 717.5  C 4626.08 717.5  4628.5 719.92  4628.5 723  C 4628.5 726.08  4626.08 728.5  4623 728.5  C 4619.92 728.5  4617.5 726.08  4617.5 723  C 4617.5 719.92  4619.92 717.5  4623 717.5  Z " stroke-width="1" stroke="#797979" fill="none" />
  <path d="M 4623 726  C 4621.32 726  4620 724.68  4620 723  C 4620 721.32  4621.32 720  4623 720  C 4624.68 720  4626 721.32  4626 723  C 4626 724.68  4624.68 726  4623 726  " fill-rule="nonzero" fill="#797979" stroke="none" />
</svg>