<?xml version="1.0" encoding="utf-8"?>
<svg version="1.1" xmlns:xlink="http://www.w3.org/1999/xlink" width="12px" height="12px" viewBox="580 642  12 12" xmlns="http://www.w3.org/2000/svg">
  <path d="M 586 642  C 589.36 642  592 644.64  592 648  C 592 651.36  589.36 654  586 654  C 582.64 654  580 651.36  580 648  C 580 644.64  582.64 642  586 642  Z " fill-rule="nonzero" fill="#ffffff" stroke="none" />
  <path d="M 586 642.5  C 589.08 642.5  591.5 644.92  591.5 648  C 591.5 651.08  589.08 653.5  586 653.5  C 582.92 653.5  580.5 651.08  580.5 648  C 580.5 644.92  582.92 642.5  586 642.5  Z " stroke-width="1" stroke="#797979" fill="none" />
  <path d="M 586 651  C 584.32 651  583 649.68  583 648  C 583 646.32  584.32 645  586 645  C 587.68 645  589 646.32  589 648  C 589 649.68  587.68 651  586 651  " fill-rule="nonzero" fill="#797979" stroke="none" />
</svg>