<?xml version="1.0" encoding="utf-8"?>
<svg version="1.1" xmlns:xlink="http://www.w3.org/1999/xlink" width="12px" height="12px" viewBox="677 670  12 12" xmlns="http://www.w3.org/2000/svg">
  <path d="M 683 670  C 686.36 670  689 672.64  689 676  C 689 679.36  686.36 682  683 682  C 679.64 682  677 679.36  677 676  C 677 672.64  679.64 670  683 670  Z " fill-rule="nonzero" fill="#f0f0f0" stroke="none" />
  <path d="M 683 670.5  C 686.08 670.5  688.5 672.92  688.5 676  C 688.5 679.08  686.08 681.5  683 681.5  C 679.92 681.5  677.5 679.08  677.5 676  C 677.5 672.92  679.92 670.5  683 670.5  Z " stroke-width="1" stroke="#797979" fill="none" />
  <path d="M 683 679  C 681.32 679  680 677.68  680 676  C 680 674.32  681.32 673  683 673  C 684.68 673  686 674.32  686 676  C 686 677.68  684.68 679  683 679  " fill-rule="nonzero" fill="#797979" stroke="none" />
</svg>