<?xml version="1.0" encoding="utf-8"?>
<svg version="1.1" xmlns:xlink="http://www.w3.org/1999/xlink" width="12px" height="12px" viewBox="2550 1664  12 12" xmlns="http://www.w3.org/2000/svg">
  <path d="M 2556 1664  C 2559.36 1664  2562 1666.64  2562 1670  C 2562 1673.36  2559.36 1676  2556 1676  C 2552.64 1676  2550 1673.36  2550 1670  C 2550 1666.64  2552.64 1664  2556 1664  Z " fill-rule="nonzero" fill="#ffffff" stroke="none" />
  <path d="M 2556 1664.5  C 2559.08 1664.5  2561.5 1666.92  2561.5 1670  C 2561.5 1673.08  2559.08 1675.5  2556 1675.5  C 2552.92 1675.5  2550.5 1673.08  2550.5 1670  C 2550.5 1666.92  2552.92 1664.5  2556 1664.5  Z " stroke-width="1" stroke="#797979" fill="none" />
  <path d="M 2556 1673  C 2554.32 1673  2553 1671.68  2553 1670  C 2553 1668.32  2554.32 1667  2556 1667  C 2557.68 1667  2559 1668.32  2559 1670  C 2559 1671.68  2557.68 1673  2556 1673  " fill-rule="nonzero" fill="#797979" stroke="none" />
</svg>