<?xml version="1.0" encoding="utf-8"?>
<svg version="1.1" xmlns:xlink="http://www.w3.org/1999/xlink" width="12px" height="12px" viewBox="580 649  12 12" xmlns="http://www.w3.org/2000/svg">
  <path d="M 586 649  C 589.36 649  592 651.64  592 655  C 592 658.36  589.36 661  586 661  C 582.64 661  580 658.36  580 655  C 580 651.64  582.64 649  586 649  Z " fill-rule="nonzero" fill="#f0f0f0" stroke="none" />
  <path d="M 586 649.5  C 589.08 649.5  591.5 651.92  591.5 655  C 591.5 658.08  589.08 660.5  586 660.5  C 582.92 660.5  580.5 658.08  580.5 655  C 580.5 651.92  582.92 649.5  586 649.5  Z " stroke-width="1" stroke="#797979" fill="none" />
  <path d="M 586 658  C 584.32 658  583 656.68  583 655  C 583 653.32  584.32 652  586 652  C 587.68 652  589 653.32  589 655  C 589 656.68  587.68 658  586 658  " fill-rule="nonzero" fill="#797979" stroke="none" />
</svg>