<?xml version="1.0" encoding="utf-8"?>
<svg version="1.1" xmlns:xlink="http://www.w3.org/1999/xlink" width="12px" height="12px" viewBox="608 522  12 12" xmlns="http://www.w3.org/2000/svg">
  <path d="M 614 522  C 617.36 522  620 524.64  620 528  C 620 531.36  617.36 534  614 534  C 610.64 534  608 531.36  608 528  C 608 524.64  610.64 522  614 522  Z " fill-rule="nonzero" fill="#ffffff" stroke="none" />
  <path d="M 614 522.5  C 617.08 522.5  619.5 524.92  619.5 528  C 619.5 531.08  617.08 533.5  614 533.5  C 610.92 533.5  608.5 531.08  608.5 528  C 608.5 524.92  610.92 522.5  614 522.5  Z " stroke-width="1" stroke="#797979" fill="none" />
  <path d="M 614 531  C 612.32 531  611 529.68  611 528  C 611 526.32  612.32 525  614 525  C 615.68 525  617 526.32  617 528  C 617 529.68  615.68 531  614 531  " fill-rule="nonzero" fill="#797979" stroke="none" />
</svg>