<?xml version="1.0" encoding="utf-8"?>
<svg version="1.1" xmlns:xlink="http://www.w3.org/1999/xlink" width="12px" height="12px" viewBox="903 398  12 12" xmlns="http://www.w3.org/2000/svg">
  <path d="M 909 398  C 912.36 398  915 400.64  915 404  C 915 407.36  912.36 410  909 410  C 905.64 410  903 407.36  903 404  C 903 400.64  905.64 398  909 398  Z " fill-rule="nonzero" fill="#ffffff" stroke="none" />
  <path d="M 909 398.5  C 912.08 398.5  914.5 400.92  914.5 404  C 914.5 407.08  912.08 409.5  909 409.5  C 905.92 409.5  903.5 407.08  903.5 404  C 903.5 400.92  905.92 398.5  909 398.5  Z " stroke-width="1" stroke="#797979" fill="none" />
  <path d="M 909 407  C 907.32 407  906 405.68  906 404  C 906 402.32  907.32 401  909 401  C 910.68 401  912 402.32  912 404  C 912 405.68  910.68 407  909 407  " fill-rule="nonzero" fill="#797979" stroke="none" />
</svg>