<?xml version="1.0" encoding="utf-8"?>
<svg version="1.1" xmlns:xlink="http://www.w3.org/1999/xlink" width="12px" height="12px" viewBox="703 398  12 12" xmlns="http://www.w3.org/2000/svg">
  <path d="M 709 398  C 712.36 398  715 400.64  715 404  C 715 407.36  712.36 410  709 410  C 705.64 410  703 407.36  703 404  C 703 400.64  705.64 398  709 398  Z " fill-rule="nonzero" fill="#f0f0f0" stroke="none" />
  <path d="M 709 398.5  C 712.08 398.5  714.5 400.92  714.5 404  C 714.5 407.08  712.08 409.5  709 409.5  C 705.92 409.5  703.5 407.08  703.5 404  C 703.5 400.92  705.92 398.5  709 398.5  Z " stroke-width="1" stroke="#797979" fill="none" />
  <path d="M 709 407  C 707.32 407  706 405.68  706 404  C 706 402.32  707.32 401  709 401  C 710.68 401  712 402.32  712 404  C 712 405.68  710.68 407  709 407  " fill-rule="nonzero" fill="#797979" stroke="none" />
</svg>