<?xml version="1.0" encoding="utf-8"?>
<svg version="1.1" xmlns:xlink="http://www.w3.org/1999/xlink" width="12px" height="12px" viewBox="601 398  12 12" xmlns="http://www.w3.org/2000/svg">
  <path d="M 607 398  C 610.36 398  613 400.64  613 404  C 613 407.36  610.36 410  607 410  C 603.64 410  601 407.36  601 404  C 601 400.64  603.64 398  607 398  Z " fill-rule="nonzero" fill="#ffffff" stroke="none" />
  <path d="M 607 398.5  C 610.08 398.5  612.5 400.92  612.5 404  C 612.5 407.08  610.08 409.5  607 409.5  C 603.92 409.5  601.5 407.08  601.5 404  C 601.5 400.92  603.92 398.5  607 398.5  Z " stroke-width="1" stroke="#797979" fill="none" />
  <path d="M 607 407  C 605.32 407  604 405.68  604 404  C 604 402.32  605.32 401  607 401  C 608.68 401  610 402.32  610 404  C 610 405.68  608.68 407  607 407  " fill-rule="nonzero" fill="#797979" stroke="none" />
</svg>