<?xml version="1.0" encoding="utf-8"?>
<svg version="1.1" xmlns:xlink="http://www.w3.org/1999/xlink" width="12px" height="12px" viewBox="803 398  12 12" xmlns="http://www.w3.org/2000/svg">
  <path d="M 809 398  C 812.36 398  815 400.64  815 404  C 815 407.36  812.36 410  809 410  C 805.64 410  803 407.36  803 404  C 803 400.64  805.64 398  809 398  Z " fill-rule="nonzero" fill="#f0f0f0" stroke="none" />
  <path d="M 809 398.5  C 812.08 398.5  814.5 400.92  814.5 404  C 814.5 407.08  812.08 409.5  809 409.5  C 805.92 409.5  803.5 407.08  803.5 404  C 803.5 400.92  805.92 398.5  809 398.5  Z " stroke-width="1" stroke="#797979" fill="none" />
  <path d="M 809 407  C 807.32 407  806 405.68  806 404  C 806 402.32  807.32 401  809 401  C 810.68 401  812 402.32  812 404  C 812 405.68  810.68 407  809 407  " fill-rule="nonzero" fill="#797979" stroke="none" />
</svg>