<?xml version="1.0" encoding="utf-8"?>
<svg version="1.1" xmlns:xlink="http://www.w3.org/1999/xlink" width="12px" height="12px" viewBox="603 362  12 12" xmlns="http://www.w3.org/2000/svg">
  <path d="M 609 362  C 612.36 362  615 364.64  615 368  C 615 371.36  612.36 374  609 374  C 605.64 374  603 371.36  603 368  C 603 364.64  605.64 362  609 362  Z " fill-rule="nonzero" fill="#f0f0f0" stroke="none" />
  <path d="M 609 362.5  C 612.08 362.5  614.5 364.92  614.5 368  C 614.5 371.08  612.08 373.5  609 373.5  C 605.92 373.5  603.5 371.08  603.5 368  C 603.5 364.92  605.92 362.5  609 362.5  Z " stroke-width="1" stroke="#797979" fill="none" />
  <path d="M 609 371  C 607.32 371  606 369.68  606 368  C 606 366.32  607.32 365  609 365  C 610.68 365  612 366.32  612 368  C 612 369.68  610.68 371  609 371  " fill-rule="nonzero" fill="#797979" stroke="none" />
</svg>