<?xml version="1.0" encoding="utf-8"?>
<svg version="1.1" xmlns:xlink="http://www.w3.org/1999/xlink" width="12px" height="12px" viewBox="601 600  12 12" xmlns="http://www.w3.org/2000/svg">
  <path d="M 607 600  C 610.36 600  613 602.64  613 606  C 613 609.36  610.36 612  607 612  C 603.64 612  601 609.36  601 606  C 601 602.64  603.64 600  607 600  Z " fill-rule="nonzero" fill="#f0f0f0" stroke="none" />
  <path d="M 607 600.5  C 610.08 600.5  612.5 602.92  612.5 606  C 612.5 609.08  610.08 611.5  607 611.5  C 603.92 611.5  601.5 609.08  601.5 606  C 601.5 602.92  603.92 600.5  607 600.5  Z " stroke-width="1" stroke="#797979" fill="none" />
  <path d="M 607 609  C 605.32 609  604 607.68  604 606  C 604 604.32  605.32 603  607 603  C 608.68 603  610 604.32  610 606  C 610 607.68  608.68 609  607 609  " fill-rule="nonzero" fill="#797979" stroke="none" />
</svg>