<?xml version="1.0" encoding="utf-8"?>
<svg version="1.1" xmlns:xlink="http://www.w3.org/1999/xlink" width="12px" height="12px" viewBox="701 600  12 12" xmlns="http://www.w3.org/2000/svg">
  <path d="M 707 600  C 710.36 600  713 602.64  713 606  C 713 609.36  710.36 612  707 612  C 703.64 612  701 609.36  701 606  C 701 602.64  703.64 600  707 600  Z " fill-rule="nonzero" fill="#ffffff" stroke="none" />
  <path d="M 707 600.5  C 710.08 600.5  712.5 602.92  712.5 606  C 712.5 609.08  710.08 611.5  707 611.5  C 703.92 611.5  701.5 609.08  701.5 606  C 701.5 602.92  703.92 600.5  707 600.5  Z " stroke-width="1" stroke="#797979" fill="none" />
  <path d="M 707 609  C 705.32 609  704 607.68  704 606  C 704 604.32  705.32 603  707 603  C 708.68 603  710 604.32  710 606  C 710 607.68  708.68 609  707 609  " fill-rule="nonzero" fill="#797979" stroke="none" />
</svg>