<?xml version="1.0" encoding="utf-8"?>
<svg version="1.1" xmlns:xlink="http://www.w3.org/1999/xlink" width="12px" height="12px" viewBox="877 344  12 12" xmlns="http://www.w3.org/2000/svg">
  <path d="M 883 344  C 886.36 344  889 346.64  889 350  C 889 353.36  886.36 356  883 356  C 879.64 356  877 353.36  877 350  C 877 346.64  879.64 344  883 344  Z " fill-rule="nonzero" fill="#f0f0f0" stroke="none" />
  <path d="M 883 344.5  C 886.08 344.5  888.5 346.92  888.5 350  C 888.5 353.08  886.08 355.5  883 355.5  C 879.92 355.5  877.5 353.08  877.5 350  C 877.5 346.92  879.92 344.5  883 344.5  Z " stroke-width="1" stroke="#797979" fill="none" />
  <path d="M 883 353  C 881.32 353  880 351.68  880 350  C 880 348.32  881.32 347  883 347  C 884.68 347  886 348.32  886 350  C 886 351.68  884.68 353  883 353  " fill-rule="nonzero" fill="#797979" stroke="none" />
</svg>