<?xml version="1.0" encoding="utf-8"?>
<svg version="1.1" xmlns:xlink="http://www.w3.org/1999/xlink" width="12px" height="12px" viewBox="777 344  12 12" xmlns="http://www.w3.org/2000/svg">
  <path d="M 783 344  C 786.36 344  789 346.64  789 350  C 789 353.36  786.36 356  783 356  C 779.64 356  777 353.36  777 350  C 777 346.64  779.64 344  783 344  Z " fill-rule="nonzero" fill="#f0f0f0" stroke="none" />
  <path d="M 783 344.5  C 786.08 344.5  788.5 346.92  788.5 350  C 788.5 353.08  786.08 355.5  783 355.5  C 779.92 355.5  777.5 353.08  777.5 350  C 777.5 346.92  779.92 344.5  783 344.5  Z " stroke-width="1" stroke="#797979" fill="none" />
  <path d="M 783 353  C 781.32 353  780 351.68  780 350  C 780 348.32  781.32 347  783 347  C 784.68 347  786 348.32  786 350  C 786 351.68  784.68 353  783 353  " fill-rule="nonzero" fill="#797979" stroke="none" />
</svg>