<?xml version="1.0" encoding="utf-8"?>
<svg version="1.1" xmlns:xlink="http://www.w3.org/1999/xlink" width="12px" height="12px" viewBox="733 461  12 12" xmlns="http://www.w3.org/2000/svg">
  <path d="M 739 461  C 742.36 461  745 463.64  745 467  C 745 470.36  742.36 473  739 473  C 735.64 473  733 470.36  733 467  C 733 463.64  735.64 461  739 461  Z " fill-rule="nonzero" fill="#f0f0f0" stroke="none" />
  <path d="M 739 461.5  C 742.08 461.5  744.5 463.92  744.5 467  C 744.5 470.08  742.08 472.5  739 472.5  C 735.92 472.5  733.5 470.08  733.5 467  C 733.5 463.92  735.92 461.5  739 461.5  Z " stroke-width="1" stroke="#797979" fill="none" />
  <path d="M 739 470  C 737.32 470  736 468.68  736 467  C 736 465.32  737.32 464  739 464  C 740.68 464  742 465.32  742 467  C 742 468.68  740.68 470  739 470  " fill-rule="nonzero" fill="#797979" stroke="none" />
</svg>