<?xml version="1.0" encoding="utf-8"?>
<svg version="1.1" xmlns:xlink="http://www.w3.org/1999/xlink" width="12px" height="12px" viewBox="733 484  12 12" xmlns="http://www.w3.org/2000/svg">
  <path d="M 739 484  C 742.36 484  745 486.64  745 490  C 745 493.36  742.36 496  739 496  C 735.64 496  733 493.36  733 490  C 733 486.64  735.64 484  739 484  Z " fill-rule="nonzero" fill="#ffffff" stroke="none" />
  <path d="M 739 484.5  C 742.08 484.5  744.5 486.92  744.5 490  C 744.5 493.08  742.08 495.5  739 495.5  C 735.92 495.5  733.5 493.08  733.5 490  C 733.5 486.92  735.92 484.5  739 484.5  Z " stroke-width="1" stroke="#797979" fill="none" />
  <path d="M 739 493  C 737.32 493  736 491.68  736 490  C 736 488.32  737.32 487  739 487  C 740.68 487  742 488.32  742 490  C 742 491.68  740.68 493  739 493  " fill-rule="nonzero" fill="#797979" stroke="none" />
</svg>