<?xml version="1.0" encoding="utf-8"?>
<svg version="1.1" xmlns:xlink="http://www.w3.org/1999/xlink" width="12px" height="12px" viewBox="628 460  12 12" xmlns="http://www.w3.org/2000/svg">
  <path d="M 634 460  C 637.36 460  640 462.64  640 466  C 640 469.36  637.36 472  634 472  C 630.64 472  628 469.36  628 466  C 628 462.64  630.64 460  634 460  Z " fill-rule="nonzero" fill="#ffffff" stroke="none" />
  <path d="M 634 460.5  C 637.08 460.5  639.5 462.92  639.5 466  C 639.5 469.08  637.08 471.5  634 471.5  C 630.92 471.5  628.5 469.08  628.5 466  C 628.5 462.92  630.92 460.5  634 460.5  Z " stroke-width="1" stroke="#797979" fill="none" />
  <path d="M 634 469  C 632.32 469  631 467.68  631 466  C 631 464.32  632.32 463  634 463  C 635.68 463  637 464.32  637 466  C 637 467.68  635.68 469  634 469  " fill-rule="nonzero" fill="#797979" stroke="none" />
</svg>