<?xml version="1.0" encoding="utf-8"?>
<svg version="1.1" xmlns:xlink="http://www.w3.org/1999/xlink" width="12px" height="12px" viewBox="733 439  12 12" xmlns="http://www.w3.org/2000/svg">
  <path d="M 739 439  C 742.36 439  745 441.64  745 445  C 745 448.36  742.36 451  739 451  C 735.64 451  733 448.36  733 445  C 733 441.64  735.64 439  739 439  Z " fill-rule="nonzero" fill="#ffffff" stroke="none" />
  <path d="M 739 439.5  C 742.08 439.5  744.5 441.92  744.5 445  C 744.5 448.08  742.08 450.5  739 450.5  C 735.92 450.5  733.5 448.08  733.5 445  C 733.5 441.92  735.92 439.5  739 439.5  Z " stroke-width="1" stroke="#797979" fill="none" />
  <path d="M 739 448  C 737.32 448  736 446.68  736 445  C 736 443.32  737.32 442  739 442  C 740.68 442  742 443.32  742 445  C 742 446.68  740.68 448  739 448  " fill-rule="nonzero" fill="#797979" stroke="none" />
</svg>