<?xml version="1.0" encoding="utf-8"?>
<svg version="1.1" xmlns:xlink="http://www.w3.org/1999/xlink" width="12px" height="12px" viewBox="628 438  12 12" xmlns="http://www.w3.org/2000/svg">
  <path d="M 634 438  C 637.36 438  640 440.64  640 444  C 640 447.36  637.36 450  634 450  C 630.64 450  628 447.36  628 444  C 628 440.64  630.64 438  634 438  Z " fill-rule="nonzero" fill="#ffffff" stroke="none" />
  <path d="M 634 438.5  C 637.08 438.5  639.5 440.92  639.5 444  C 639.5 447.08  637.08 449.5  634 449.5  C 630.92 449.5  628.5 447.08  628.5 444  C 628.5 440.92  630.92 438.5  634 438.5  Z " stroke-width="1" stroke="#797979" fill="none" />
  <path d="M 634 447  C 632.32 447  631 445.68  631 444  C 631 442.32  632.32 441  634 441  C 635.68 441  637 442.32  637 444  C 637 445.68  635.68 447  634 447  " fill-rule="nonzero" fill="#797979" stroke="none" />
</svg>