<?xml version="1.0" encoding="utf-8"?>
<svg version="1.1" xmlns:xlink="http://www.w3.org/1999/xlink" width="12px" height="12px" viewBox="628 510  12 12" xmlns="http://www.w3.org/2000/svg">
  <path d="M 634 510  C 637.36 510  640 512.64  640 516  C 640 519.36  637.36 522  634 522  C 630.64 522  628 519.36  628 516  C 628 512.64  630.64 510  634 510  Z " fill-rule="nonzero" fill="#f0f0f0" stroke="none" />
  <path d="M 634 510.5  C 637.08 510.5  639.5 512.92  639.5 516  C 639.5 519.08  637.08 521.5  634 521.5  C 630.92 521.5  628.5 519.08  628.5 516  C 628.5 512.92  630.92 510.5  634 510.5  Z " stroke-width="1" stroke="#797979" fill="none" />
  <path d="M 634 519  C 632.32 519  631 517.68  631 516  C 631 514.32  632.32 513  634 513  C 635.68 513  637 514.32  637 516  C 637 517.68  635.68 519  634 519  " fill-rule="nonzero" fill="#797979" stroke="none" />
</svg>