<?xml version="1.0" encoding="utf-8"?>
<svg version="1.1" xmlns:xlink="http://www.w3.org/1999/xlink" width="12px" height="12px" viewBox="733 511  12 12" xmlns="http://www.w3.org/2000/svg">
  <path d="M 739 511  C 742.36 511  745 513.64  745 517  C 745 520.36  742.36 523  739 523  C 735.64 523  733 520.36  733 517  C 733 513.64  735.64 511  739 511  Z " fill-rule="nonzero" fill="#ffffff" stroke="none" />
  <path d="M 739 511.5  C 742.08 511.5  744.5 513.92  744.5 517  C 744.5 520.08  742.08 522.5  739 522.5  C 735.92 522.5  733.5 520.08  733.5 517  C 733.5 513.92  735.92 511.5  739 511.5  Z " stroke-width="1" stroke="#797979" fill="none" />
  <path d="M 739 520  C 737.32 520  736 518.68  736 517  C 736 515.32  737.32 514  739 514  C 740.68 514  742 515.32  742 517  C 742 518.68  740.68 520  739 520  " fill-rule="nonzero" fill="#797979" stroke="none" />
</svg>