<?xml version="1.0" encoding="utf-8"?>
<svg version="1.1" xmlns:xlink="http://www.w3.org/1999/xlink" width="12px" height="12px" viewBox="733 533  12 12" xmlns="http://www.w3.org/2000/svg">
  <path d="M 739 533  C 742.36 533  745 535.64  745 539  C 745 542.36  742.36 545  739 545  C 735.64 545  733 542.36  733 539  C 733 535.64  735.64 533  739 533  Z " fill-rule="nonzero" fill="#ffffff" stroke="none" />
  <path d="M 739 533.5  C 742.08 533.5  744.5 535.92  744.5 539  C 744.5 542.08  742.08 544.5  739 544.5  C 735.92 544.5  733.5 542.08  733.5 539  C 733.5 535.92  735.92 533.5  739 533.5  Z " stroke-width="1" stroke="#797979" fill="none" />
  <path d="M 739 542  C 737.32 542  736 540.68  736 539  C 736 537.32  737.32 536  739 536  C 740.68 536  742 537.32  742 539  C 742 540.68  740.68 542  739 542  " fill-rule="nonzero" fill="#797979" stroke="none" />
</svg>