<?xml version="1.0" encoding="utf-8"?>
<svg version="1.1" xmlns:xlink="http://www.w3.org/1999/xlink" width="12px" height="12px" viewBox="733 556  12 12" xmlns="http://www.w3.org/2000/svg">
  <path d="M 739 556  C 742.36 556  745 558.64  745 562  C 745 565.36  742.36 568  739 568  C 735.64 568  733 565.36  733 562  C 733 558.64  735.64 556  739 556  Z " fill-rule="nonzero" fill="#ffffff" stroke="none" />
  <path d="M 739 556.5  C 742.08 556.5  744.5 558.92  744.5 562  C 744.5 565.08  742.08 567.5  739 567.5  C 735.92 567.5  733.5 565.08  733.5 562  C 733.5 558.92  735.92 556.5  739 556.5  Z " stroke-width="1" stroke="#797979" fill="none" />
  <path d="M 739 565  C 737.32 565  736 563.68  736 562  C 736 560.32  737.32 559  739 559  C 740.68 559  742 560.32  742 562  C 742 563.68  740.68 565  739 565  " fill-rule="nonzero" fill="#797979" stroke="none" />
</svg>