<?xml version="1.0" encoding="utf-8"?>
<svg version="1.1" xmlns:xlink="http://www.w3.org/1999/xlink" width="12px" height="12px" viewBox="628 555  12 12" xmlns="http://www.w3.org/2000/svg">
  <path d="M 634 555  C 637.36 555  640 557.64  640 561  C 640 564.36  637.36 567  634 567  C 630.64 567  628 564.36  628 561  C 628 557.64  630.64 555  634 555  Z " fill-rule="nonzero" fill="#ffffff" stroke="none" />
  <path d="M 634 555.5  C 637.08 555.5  639.5 557.92  639.5 561  C 639.5 564.08  637.08 566.5  634 566.5  C 630.92 566.5  628.5 564.08  628.5 561  C 628.5 557.92  630.92 555.5  634 555.5  Z " stroke-width="1" stroke="#797979" fill="none" />
  <path d="M 634 564  C 632.32 564  631 562.68  631 561  C 631 559.32  632.32 558  634 558  C 635.68 558  637 559.32  637 561  C 637 562.68  635.68 564  634 564  " fill-rule="nonzero" fill="#797979" stroke="none" />
</svg>