<?xml version="1.0" encoding="utf-8"?>
<svg version="1.1" xmlns:xlink="http://www.w3.org/1999/xlink" width="12px" height="12px" viewBox="777 565  12 12" xmlns="http://www.w3.org/2000/svg">
  <path d="M 783 565  C 786.36 565  789 567.64  789 571  C 789 574.36  786.36 577  783 577  C 779.64 577  777 574.36  777 571  C 777 567.64  779.64 565  783 565  Z " fill-rule="nonzero" fill="#f0f0f0" stroke="none" />
  <path d="M 783 565.5  C 786.08 565.5  788.5 567.92  788.5 571  C 788.5 574.08  786.08 576.5  783 576.5  C 779.92 576.5  777.5 574.08  777.5 571  C 777.5 567.92  779.92 565.5  783 565.5  Z " stroke-width="1" stroke="#797979" fill="none" />
  <path d="M 783 574  C 781.32 574  780 572.68  780 571  C 780 569.32  781.32 568  783 568  C 784.68 568  786 569.32  786 571  C 786 572.68  784.68 574  783 574  " fill-rule="nonzero" fill="#797979" stroke="none" />
</svg>