<?xml version="1.0" encoding="utf-8"?>
<svg version="1.1" xmlns:xlink="http://www.w3.org/1999/xlink" width="12px" height="12px" viewBox="877 482  12 12" xmlns="http://www.w3.org/2000/svg">
  <path d="M 883 482  C 886.36 482  889 484.64  889 488  C 889 491.36  886.36 494  883 494  C 879.64 494  877 491.36  877 488  C 877 484.64  879.64 482  883 482  Z " fill-rule="nonzero" fill="#ffffff" stroke="none" />
  <path d="M 883 482.5  C 886.08 482.5  888.5 484.92  888.5 488  C 888.5 491.08  886.08 493.5  883 493.5  C 879.92 493.5  877.5 491.08  877.5 488  C 877.5 484.92  879.92 482.5  883 482.5  Z " stroke-width="1" stroke="#797979" fill="none" />
  <path d="M 883 491  C 881.32 491  880 489.68  880 488  C 880 486.32  881.32 485  883 485  C 884.68 485  886 486.32  886 488  C 886 489.68  884.68 491  883 491  " fill-rule="nonzero" fill="#797979" stroke="none" />
</svg>