<?xml version="1.0" encoding="utf-8"?>
<svg version="1.1" xmlns:xlink="http://www.w3.org/1999/xlink" width="12px" height="12px" viewBox="777 511  12 12" xmlns="http://www.w3.org/2000/svg">
  <path d="M 783 511  C 786.36 511  789 513.64  789 517  C 789 520.36  786.36 523  783 523  C 779.64 523  777 520.36  777 517  C 777 513.64  779.64 511  783 511  Z " fill-rule="nonzero" fill="#ffffff" stroke="none" />
  <path d="M 783 511.5  C 786.08 511.5  788.5 513.92  788.5 517  C 788.5 520.08  786.08 522.5  783 522.5  C 779.92 522.5  777.5 520.08  777.5 517  C 777.5 513.92  779.92 511.5  783 511.5  Z " stroke-width="1" stroke="#797979" fill="none" />
  <path d="M 783 520  C 781.32 520  780 518.68  780 517  C 780 515.32  781.32 514  783 514  C 784.68 514  786 515.32  786 517  C 786 518.68  784.68 520  783 520  " fill-rule="nonzero" fill="#797979" stroke="none" />
</svg>