<?xml version="1.0" encoding="utf-8"?>
<svg version="1.1" xmlns:xlink="http://www.w3.org/1999/xlink" width="12px" height="12px" viewBox="746 422  12 12" xmlns="http://www.w3.org/2000/svg">
  <path d="M 752 422  C 755.36 422  758 424.64  758 428  C 758 431.36  755.36 434  752 434  C 748.64 434  746 431.36  746 428  C 746 424.64  748.64 422  752 422  Z " fill-rule="nonzero" fill="#f0f0f0" stroke="none" />
  <path d="M 752 422.5  C 755.08 422.5  757.5 424.92  757.5 428  C 757.5 431.08  755.08 433.5  752 433.5  C 748.92 433.5  746.5 431.08  746.5 428  C 746.5 424.92  748.92 422.5  752 422.5  Z " stroke-width="1" stroke="#797979" fill="none" />
  <path d="M 752 431  C 750.32 431  749 429.68  749 428  C 749 426.32  750.32 425  752 425  C 753.68 425  755 426.32  755 428  C 755 429.68  753.68 431  752 431  " fill-rule="nonzero" fill="#797979" stroke="none" />
</svg>