<?xml version="1.0" encoding="utf-8"?>
<svg version="1.1" xmlns:xlink="http://www.w3.org/1999/xlink" width="12px" height="12px" viewBox="646 422  12 12" xmlns="http://www.w3.org/2000/svg">
  <path d="M 652 422  C 655.36 422  658 424.64  658 428  C 658 431.36  655.36 434  652 434  C 648.64 434  646 431.36  646 428  C 646 424.64  648.64 422  652 422  Z " fill-rule="nonzero" fill="#ffffff" stroke="none" />
  <path d="M 652 422.5  C 655.08 422.5  657.5 424.92  657.5 428  C 657.5 431.08  655.08 433.5  652 433.5  C 648.92 433.5  646.5 431.08  646.5 428  C 646.5 424.92  648.92 422.5  652 422.5  Z " stroke-width="1" stroke="#797979" fill="none" />
  <path d="M 652 431  C 650.32 431  649 429.68  649 428  C 649 426.32  650.32 425  652 425  C 653.68 425  655 426.32  655 428  C 655 429.68  653.68 431  652 431  " fill-rule="nonzero" fill="#797979" stroke="none" />
</svg>