<?xml version="1.0" encoding="utf-8"?>
<svg version="1.1" xmlns:xlink="http://www.w3.org/1999/xlink" width="12px" height="12px" viewBox="646 502  12 12" xmlns="http://www.w3.org/2000/svg">
  <path d="M 652 502  C 655.36 502  658 504.64  658 508  C 658 511.36  655.36 514  652 514  C 648.64 514  646 511.36  646 508  C 646 504.64  648.64 502  652 502  Z " fill-rule="nonzero" fill="#f0f0f0" stroke="none" />
  <path d="M 652 502.5  C 655.08 502.5  657.5 504.92  657.5 508  C 657.5 511.08  655.08 513.5  652 513.5  C 648.92 513.5  646.5 511.08  646.5 508  C 646.5 504.92  648.92 502.5  652 502.5  Z " stroke-width="1" stroke="#797979" fill="none" />
  <path d="M 652 511  C 650.32 511  649 509.68  649 508  C 649 506.32  650.32 505  652 505  C 653.68 505  655 506.32  655 508  C 655 509.68  653.68 511  652 511  " fill-rule="nonzero" fill="#797979" stroke="none" />
</svg>