<?xml version="1.0" encoding="utf-8"?>
<svg version="1.1" xmlns:xlink="http://www.w3.org/1999/xlink" width="170px" height="30px" xmlns="http://www.w3.org/2000/svg">
  <defs>
    <mask fill="white" id="clip625">
      <path d="M 30 30  L 30 10  L 0.0415597115266996 10  L 30.082304526749 0  L 170 0  L 170 30  L 30 30  Z " fill-rule="evenodd" />
    </mask>
  </defs>
  <g transform="matrix(1 0 0 1 -994 -319 )">
    <path d="M 30 30  L 30 10  L 0.0415597115266996 10  L 30.082304526749 0  L 170 0  L 170 30  L 30 30  Z " fill-rule="nonzero" fill="#ffffff" stroke="none" transform="matrix(1 0 0 1 994 319 )" />
    <path d="M 30 30  L 30 10  L 0.0415597115266996 10  L 30.082304526749 0  L 170 0  L 170 30  L 30 30  Z " stroke-width="2" stroke="#797979" fill="none" transform="matrix(1 0 0 1 994 319 )" mask="url(#clip625)" />
  </g>
</svg>