<?xml version="1.0" encoding="utf-8"?>
<svg version="1.1" xmlns:xlink="http://www.w3.org/1999/xlink" width="176px" height="30px" xmlns="http://www.w3.org/2000/svg">
  <defs>
    <mask fill="white" id="clip176">
      <path d="M 0 30  L 0 0  L 150 0  L 175.148514851485 7.25742574257424  L 150 9.23762376237624  L 150 30  L 0 30  Z " fill-rule="evenodd" />
    </mask>
  </defs>
  <g transform="matrix(1 0 0 1 -493 -452 )">
    <path d="M 0 30  L 0 0  L 150 0  L 175.148514851485 7.25742574257424  L 150 9.23762376237624  L 150 30  L 0 30  Z " fill-rule="nonzero" fill="#ffffff" stroke="none" transform="matrix(1 0 0 1 493 452 )" />
    <path d="M 0 30  L 0 0  L 150 0  L 175.148514851485 7.25742574257424  L 150 9.23762376237624  L 150 30  L 0 30  Z " stroke-width="2" stroke="#797979" fill="none" transform="matrix(1 0 0 1 493 452 )" mask="url(#clip176)" />
  </g>
</svg>