<?xml version="1.0" encoding="utf-8"?>
<svg version="1.1" xmlns:xlink="http://www.w3.org/1999/xlink" width="12px" height="12px" viewBox="651 389  12 12" xmlns="http://www.w3.org/2000/svg">
  <path d="M 657 389  C 660.36 389  663 391.64  663 395  C 663 398.36  660.36 401  657 401  C 653.64 401  651 398.36  651 395  C 651 391.64  653.64 389  657 389  Z " fill-rule="nonzero" fill="#ffffff" stroke="none" />
  <path d="M 657 389.5  C 660.08 389.5  662.5 391.92  662.5 395  C 662.5 398.08  660.08 400.5  657 400.5  C 653.92 400.5  651.5 398.08  651.5 395  C 651.5 391.92  653.92 389.5  657 389.5  Z " stroke-width="1" stroke="#797979" fill="none" />
  <path d="M 657 398  C 655.32 398  654 396.68  654 395  C 654 393.32  655.32 392  657 392  C 658.68 392  660 393.32  660 395  C 660 396.68  658.68 398  657 398  " fill-rule="nonzero" fill="#797979" stroke="none" />
</svg>