<?xml version="1.0" encoding="utf-8"?>
<svg version="1.1" xmlns:xlink="http://www.w3.org/1999/xlink" width="30px" height="30px" xmlns="http://www.w3.org/2000/svg">
  <g transform="matrix(1 0 0 1 -943 -511 )">
    <path d="M 943 511  L 973 511  L 973 541  L 943 541  L 943 511  " fill-rule="nonzero" fill="#cccccc" stroke="none" />
    <path d="M 945 513  L 971 513  L 971 539  L 945 539  L 945 513  " fill-rule="nonzero" fill="#ffffff" stroke="none" />
    <path d="M 960.85 520  C 959.59 520  958.6 519.01  958.6 517.75  C 958.6 516.49  959.59 515.5  960.85 515.5  C 962.11 515.5  963.1 516.49  963.1 517.75  C 963.1 519.01  962.11 520  960.85 520  " fill-rule="nonzero" fill="#cccccc" stroke="none" />
    <path d="M 946 538  L 946 524.8  L 952 518.8  L 960.4 523.6  L 965.2 522.4  L 970 523.6  L 970 538  L 946 538  " fill-rule="nonzero" fill="#169bd5" stroke="none" />
  </g>
</svg>