<?xml version="1.0" encoding="utf-8"?>
<svg version="1.1" xmlns:xlink="http://www.w3.org/1999/xlink" width="25px" height="25px" xmlns="http://www.w3.org/2000/svg">
  <g transform="matrix(1 0 0 1 -50 -715 )">
    <path d="M 0 5.35714285714286  L 12.5 0  L 25 5.35714285714286  L 25 7.14285714285714  L 23.3333333333333 7.14285714285714  C 23.3333333333333 7.38467261904762  23.2443576388889 7.59393601190476  23.06640625 7.77064732142857  C 22.8884548611111 7.94735863095238  22.6779513888889 8.03571428571428  22.4348958333333 8  L 2.56510416666667 8  C 2.32204861111111 8.03571428571428  2.11154513888889 7.94735863095238  1.93359375 7.77064732142857  C 1.75564236111111 7.59393601190476  1.66666666666667 7.38467261904762  1.66666666666667 7.14285714285714  L 0 7.14285714285714  L 0 5.35714285714286  Z M 3.33333333333333 19.6428571428571  L 3.33333333333333 8.92857142857143  L 7 8.92857142857143  L 7 19.6428571428571  L 8.33333333333333 19.6428571428571  L 8.33333333333333 8.92857142857143  L 12 8.92857142857143  L 12 19.6428571428571  L 13 19.6428571428571  L 13 8.92857142857143  L 16.6666666666667 8.92857142857143  L 16.6666666666667 19.6428571428571  L 18 19.6428571428571  L 18 8.92857142857143  L 21.6666666666667 8.92857142857143  L 21.6666666666667 19.6428571428571  L 22.4348958333333 19.6428571428571  C 22.6779513888889 19.6428571428571  22.8884548611111 19.731212797619  23.06640625 19.9079241071429  C 23.2443576388889 20.0846354166667  23.3333333333333 20.2938988095238  23.3333333333333 20.5357142857143  L 23.3333333333333 21  L 1.66666666666667 21  L 1.66666666666667 20.5357142857143  C 1.66666666666667 20.2938988095238  1.75564236111111 20.0846354166667  1.93359375 19.9079241071429  C 2.11154513888889 19.731212797619  2.32204861111111 19.6428571428571  2.56510416666667 19.6428571428571  L 3.33333333333333 19.6428571428571  Z M 0.8984375 22  L 24.1015625 22  C 24.3446180555556 22.3214285714286  24.5551215277778 22.4097842261905  24.7330729166667 22.5864955357143  C 24.9110243055556 22.7632068452381  25 22.9724702380952  25 23.2142857142857  L 25 25  L 0 25  L 0 23.2142857142857  C 0 22.9724702380952  0.0889756944444444 22.7632068452381  0.266927083333333 22.5864955357143  C 0.444878472222222 22.4097842261905  0.655381944444444 22.3214285714286  0.8984375 22  Z " fill-rule="nonzero" fill="#000000" stroke="none" fill-opacity="0.298039215686275" transform="matrix(1 0 0 1 50 715 )" />
  </g>
</svg>