<?xml version="1.0" encoding="utf-8"?>
<svg version="1.1" xmlns:xlink="http://www.w3.org/1999/xlink" width="25px" height="25px" xmlns="http://www.w3.org/2000/svg">
  <g transform="matrix(1 0 0 1 -50 -765 )">
    <path d="M 22.8922526041667 22.8922526041667  C 23.6029730902778 22.1815321180556  23.9583333333333 21.3216145833333  23.9583333333333 20.3125  L 23.9583333333333 12.5  L 12.5 12.5  L 12.5 1.04166666666667  L 4.6875 1.04166666666667  C 3.67838541666667 1.04166666666667  2.81846788194444 1.39702690972222  2.10774739583333 2.10774739583333  C 1.39702690972222 2.81846788194444  1.04166666666667 3.67838541666667  1.04166666666667 4.6875  L 1.04166666666667 12.5  L 12.5 12.5  L 12.5 23.9583333333333  L 20.3125 23.9583333333333  C 21.3216145833333 23.9583333333333  22.1815321180556 23.6029730902778  22.8922526041667 22.8922526041667  Z M 23.6246744791667 1.37532552083333  C 24.5415581597222 2.29220920138889  25 3.39626736111111  25 4.6875  L 25 20.3125  C 25 21.6037326388889  24.5415581597222 22.7077907986111  23.6246744791667 23.6246744791667  C 22.7077907986111 24.5415581597222  21.6037326388889 25  20.3125 25  L 4.6875 25  C 3.39626736111111 25  2.29220920138889 24.5415581597222  1.37532552083333 23.6246744791667  C 0.458441840277778 22.7077907986111  0 21.6037326388889  0 20.3125  L 0 4.6875  C 0 3.39626736111111  0.458441840277778 2.29220920138889  1.37532552083333 1.37532552083333  C 2.29220920138889 0.458441840277776  3.39626736111111 0  4.6875 0  L 20.3125 0  C 21.6037326388889 0  22.7077907986111 0.458441840277776  23.6246744791667 1.37532552083333  Z " fill-rule="nonzero" fill="#000000" stroke="none" fill-opacity="0.298039215686275" transform="matrix(1 0 0 1 50 765 )" />
  </g>
</svg>