<?xml version="1.0" encoding="utf-8"?>
<svg version="1.1" xmlns:xlink="http://www.w3.org/1999/xlink" width="12px" height="12px" viewBox="1071 891  12 12" xmlns="http://www.w3.org/2000/svg">
  <path d="M 1077 891  C 1080.36 891  1083 893.64  1083 897  C 1083 900.36  1080.36 903  1077 903  C 1073.64 903  1071 900.36  1071 897  C 1071 893.64  1073.64 891  1077 891  Z " fill-rule="nonzero" fill="#f0f0f0" stroke="none" />
  <path d="M 1077 891.5  C 1080.08 891.5  1082.5 893.92  1082.5 897  C 1082.5 900.08  1080.08 902.5  1077 902.5  C 1073.92 902.5  1071.5 900.08  1071.5 897  C 1071.5 893.92  1073.92 891.5  1077 891.5  Z " stroke-width="1" stroke="#797979" fill="none" />
  <path d="M 1077 900  C 1075.32 900  1074 898.68  1074 897  C 1074 895.32  1075.32 894  1077 894  C 1078.68 894  1080 895.32  1080 897  C 1080 898.68  1078.68 900  1077 900  " fill-rule="nonzero" fill="#797979" stroke="none" />
</svg>