<?xml version="1.0" encoding="utf-8"?>
<svg version="1.1" xmlns:xlink="http://www.w3.org/1999/xlink" width="12px" height="12px" viewBox="758 859  12 12" xmlns="http://www.w3.org/2000/svg">
  <path d="M 764 859  C 767.36 859  770 861.64  770 865  C 770 868.36  767.36 871  764 871  C 760.64 871  758 868.36  758 865  C 758 861.64  760.64 859  764 859  Z " fill-rule="nonzero" fill="#ffffff" stroke="none" />
  <path d="M 764 859.5  C 767.08 859.5  769.5 861.92  769.5 865  C 769.5 868.08  767.08 870.5  764 870.5  C 760.92 870.5  758.5 868.08  758.5 865  C 758.5 861.92  760.92 859.5  764 859.5  Z " stroke-width="1" stroke="#797979" fill="none" />
  <path d="M 764 868  C 762.32 868  761 866.68  761 865  C 761 863.32  762.32 862  764 862  C 765.68 862  767 863.32  767 865  C 767 866.68  765.68 868  764 868  " fill-rule="nonzero" fill="#797979" stroke="none" />
</svg>