<?xml version="1.0" encoding="utf-8"?>
<svg version="1.1" xmlns:xlink="http://www.w3.org/1999/xlink" width="12px" height="12px" viewBox="1273 859  12 12" xmlns="http://www.w3.org/2000/svg">
  <path d="M 1279 859  C 1282.36 859  1285 861.64  1285 865  C 1285 868.36  1282.36 871  1279 871  C 1275.64 871  1273 868.36  1273 865  C 1273 861.64  1275.64 859  1279 859  Z " fill-rule="nonzero" fill="#ffffff" stroke="none" />
  <path d="M 1279 859.5  C 1282.08 859.5  1284.5 861.92  1284.5 865  C 1284.5 868.08  1282.08 870.5  1279 870.5  C 1275.92 870.5  1273.5 868.08  1273.5 865  C 1273.5 861.92  1275.92 859.5  1279 859.5  Z " stroke-width="1" stroke="#797979" fill="none" />
  <path d="M 1279 868  C 1277.32 868  1276 866.68  1276 865  C 1276 863.32  1277.32 862  1279 862  C 1280.68 862  1282 863.32  1282 865  C 1282 866.68  1280.68 868  1279 868  " fill-rule="nonzero" fill="#797979" stroke="none" />
</svg>