<?xml version="1.0" encoding="utf-8"?>
<svg version="1.1" xmlns:xlink="http://www.w3.org/1999/xlink" width="12px" height="12px" viewBox="1487 891  12 12" xmlns="http://www.w3.org/2000/svg">
  <path d="M 1493 891  C 1496.36 891  1499 893.64  1499 897  C 1499 900.36  1496.36 903  1493 903  C 1489.64 903  1487 900.36  1487 897  C 1487 893.64  1489.64 891  1493 891  Z " fill-rule="nonzero" fill="#f0f0f0" stroke="none" />
  <path d="M 1493 891.5  C 1496.08 891.5  1498.5 893.92  1498.5 897  C 1498.5 900.08  1496.08 902.5  1493 902.5  C 1489.92 902.5  1487.5 900.08  1487.5 897  C 1487.5 893.92  1489.92 891.5  1493 891.5  Z " stroke-width="1" stroke="#797979" fill="none" />
  <path d="M 1493 900  C 1491.32 900  1490 898.68  1490 897  C 1490 895.32  1491.32 894  1493 894  C 1494.68 894  1496 895.32  1496 897  C 1496 898.68  1494.68 900  1493 900  " fill-rule="nonzero" fill="#797979" stroke="none" />
</svg>