<?xml version="1.0" encoding="utf-8"?>
<svg version="1.1" xmlns:xlink="http://www.w3.org/1999/xlink" width="12px" height="17px" xmlns="http://www.w3.org/2000/svg">
  <g transform="matrix(1 0 0 1 -1385 -298 )">
    <path d="M 11.77734375 10.0733901515151  C 11.92578125 10.223327020202  12 10.4008838383838  12 10.6060606060606  C 12 10.8112373737373  11.92578125 10.9887941919192  11.77734375 11.138731060606  L 6.52734375 16.4417613636364  C 6.37890625 16.5916982323232  6.203125 16.6666666666666  6 16.6666666666666  C 5.796875 16.6666666666666  5.62109375 16.5916982323232  5.47265625 16.4417613636364  L 0.22265625 11.138731060606  C 0.07421875 10.9887941919192  0 10.8112373737373  0 10.6060606060606  C 0 10.4008838383838  0.07421875 10.223327020202  0.22265625 10.0733901515151  C 0.37109375 9.92345328282829  0.546875 9.84848484848487  0.75 9.84848484848487  L 11.25 9.84848484848487  C 11.453125 9.84848484848487  11.62890625 9.92345328282829  11.77734375 10.0733901515151  Z M 11.77734375 5.52793560606062  C 11.92578125 5.67787247474746  12 5.85542929292933  12 6.06060606060601  C 12 6.2657828282828  11.92578125 6.44333964646466  11.77734375 6.5932765151515  C 11.62890625 6.74321338383834  11.453125 6.81818181818176  11.25 7  L 0.75 7  C 0.546875 6.81818181818176  0.37109375 6.74321338383834  0.22265625 6.5932765151515  C 0.07421875 6.44333964646466  0 6.2657828282828  0 6.06060606060601  C 0 5.85542929292933  0.07421875 5.67787247474746  0.22265625 5.52793560606062  L 5.47265625 0.224905303030255  C 5.62109375 0.0749684343434183  5.796875 0  6 0  C 6.203125 0  6.37890625 0.0749684343434183  6.52734375 0.224905303030255  L 11.77734375 5.52793560606062  Z " fill-rule="nonzero" fill="#000000" stroke="none" transform="matrix(1 0 0 1 1385 298 )" />
  </g>
</svg>