<?xml version="1.0" encoding="utf-8"?>
<svg version="1.1" xmlns:xlink="http://www.w3.org/1999/xlink" width="12px" height="12px" viewBox="1476 134  12 12" xmlns="http://www.w3.org/2000/svg">
  <path d="M 1482 134  C 1485.36 134  1488 136.64  1488 140  C 1488 143.36  1485.36 146  1482 146  C 1478.64 146  1476 143.36  1476 140  C 1476 136.64  1478.64 134  1482 134  Z " fill-rule="nonzero" fill="#ffffff" stroke="none" />
  <path d="M 1482 134.5  C 1485.08 134.5  1487.5 136.92  1487.5 140  C 1487.5 143.08  1485.08 145.5  1482 145.5  C 1478.92 145.5  1476.5 143.08  1476.5 140  C 1476.5 136.92  1478.92 134.5  1482 134.5  Z " stroke-width="1" stroke="#797979" fill="none" />
  <path d="M 1482 143  C 1480.32 143  1479 141.68  1479 140  C 1479 138.32  1480.32 137  1482 137  C 1483.68 137  1485 138.32  1485 140  C 1485 141.68  1483.68 143  1482 143  " fill-rule="nonzero" fill="#797979" stroke="none" />
</svg>