<?xml version="1.0" encoding="utf-8"?>
<svg version="1.1" xmlns:xlink="http://www.w3.org/1999/xlink" width="12px" height="12px" viewBox="1610 134  12 12" xmlns="http://www.w3.org/2000/svg">
  <path d="M 1616 134  C 1619.36 134  1622 136.64  1622 140  C 1622 143.36  1619.36 146  1616 146  C 1612.64 146  1610 143.36  1610 140  C 1610 136.64  1612.64 134  1616 134  Z " fill-rule="nonzero" fill="#f0f0f0" stroke="none" />
  <path d="M 1616 134.5  C 1619.08 134.5  1621.5 136.92  1621.5 140  C 1621.5 143.08  1619.08 145.5  1616 145.5  C 1612.92 145.5  1610.5 143.08  1610.5 140  C 1610.5 136.92  1612.92 134.5  1616 134.5  Z " stroke-width="1" stroke="#797979" fill="none" />
  <path d="M 1616 143  C 1614.32 143  1613 141.68  1613 140  C 1613 138.32  1614.32 137  1616 137  C 1617.68 137  1619 138.32  1619 140  C 1619 141.68  1617.68 143  1616 143  " fill-rule="nonzero" fill="#797979" stroke="none" />
</svg>