<?xml version="1.0" encoding="utf-8"?>
<svg version="1.1" xmlns:xlink="http://www.w3.org/1999/xlink" width="12px" height="12px" viewBox="1366 134  12 12" xmlns="http://www.w3.org/2000/svg">
  <path d="M 1372 134  C 1375.36 134  1378 136.64  1378 140  C 1378 143.36  1375.36 146  1372 146  C 1368.64 146  1366 143.36  1366 140  C 1366 136.64  1368.64 134  1372 134  Z " fill-rule="nonzero" fill="#ffffff" stroke="none" />
  <path d="M 1372 134.5  C 1375.08 134.5  1377.5 136.92  1377.5 140  C 1377.5 143.08  1375.08 145.5  1372 145.5  C 1368.92 145.5  1366.5 143.08  1366.5 140  C 1366.5 136.92  1368.92 134.5  1372 134.5  Z " stroke-width="1" stroke="#797979" fill="none" />
  <path d="M 1372 143  C 1370.32 143  1369 141.68  1369 140  C 1369 138.32  1370.32 137  1372 137  C 1373.68 137  1375 138.32  1375 140  C 1375 141.68  1373.68 143  1372 143  " fill-rule="nonzero" fill="#797979" stroke="none" />
</svg>