<?xml version="1.0" encoding="utf-8"?>
<svg version="1.1" xmlns:xlink="http://www.w3.org/1999/xlink" width="30px" height="40px" xmlns="http://www.w3.org/2000/svg">
  <g transform="matrix(1 0 0 1 -15 -610 )">
    <path d="M 29.5034079844206 11.5422885572139  C 30.0292112950341 12.1487799099739  30.1168451801363 12.7931769722814  29.7663096397274 13.4754797441365  C 29.4157740993184 14.1767353707652  28.8510223953262 14.5273631840796  28.0720545277507 14.5273631840796  L 22 14.5273631840796  L 22 39.09026297086  C 22.4634858812074 39.3556029376925  22.3758519961052 39.5735607675906  22.2005842259007 39.7441364605544  C 22.0253164556962 39.9147121535181  21.8013631937683 40  21.5287244401168 40  L 0.963972736124635 40  C 0.555014605647517 40  0.272638753651412 39.8294243070362  0.116845180136319 39.4882729211087  C -0.0389483933787731 39.1092158256337  0 38.7775408670931  0.233690360272639 38.4932480454869  L 4.90749756572541 33.0348258706468  C 5.08276533592989 32.8263444681355  5.32619279454723 32.7221037668799  5.63777994157741 32.7221037668799  L 15 32.7221037668799  L 15 14.5273631840796  L 9.37682570593963 14.5273631840796  C 8.59785783836417 14.5273631840796  8.03310613437196 14.1767353707652  7.682570593963 13.4754797441365  C 7.35150925024343 12.7742241175077  7.43914313534567 12.1298270552002  7.94547224926972 11.5422885572139  L 17.2930866601753 0.625444207533761  C 17.6436222005842 0.208481402511249  18.1207400194742 0  18.7244401168452 0  C 19.3281402142162 0  19.8052580331061 0.208481402511249  20.1557935735151 0.625444207533761  L 29.5034079844206 11.5422885572139  Z " fill-rule="nonzero" fill="#000000" stroke="none" transform="matrix(1 0 0 1 15 610 )" />
  </g>
</svg>