<?xml version="1.0" encoding="utf-8"?>
<svg version="1.1" xmlns:xlink="http://www.w3.org/1999/xlink" width="12px" height="12px" viewBox="701 592  12 12" xmlns="http://www.w3.org/2000/svg">
  <path d="M 707 592  C 710.36 592  713 594.64  713 598  C 713 601.36  710.36 604  707 604  C 703.64 604  701 601.36  701 598  C 701 594.64  703.64 592  707 592  Z " fill-rule="nonzero" fill="#f0f0f0" stroke="none" />
  <path d="M 707 592.5  C 710.08 592.5  712.5 594.92  712.5 598  C 712.5 601.08  710.08 603.5  707 603.5  C 703.92 603.5  701.5 601.08  701.5 598  C 701.5 594.92  703.92 592.5  707 592.5  Z " stroke-width="1" stroke="#797979" fill="none" />
  <path d="M 707 601  C 705.32 601  704 599.68  704 598  C 704 596.32  705.32 595  707 595  C 708.68 595  710 596.32  710 598  C 710 599.68  708.68 601  707 601  " fill-rule="nonzero" fill="#797979" stroke="none" />
</svg>