<?xml version="1.0" encoding="utf-8"?>
<svg version="1.1" xmlns:xlink="http://www.w3.org/1999/xlink" width="12px" height="12px" viewBox="621 1597  12 12" xmlns="http://www.w3.org/2000/svg">
  <path d="M 627 1597  C 630.36 1597  633 1599.64  633 1603  C 633 1606.36  630.36 1609  627 1609  C 623.64 1609  621 1606.36  621 1603  C 621 1599.64  623.64 1597  627 1597  Z " fill-rule="nonzero" fill="#ffffff" stroke="none" />
  <path d="M 627 1597.5  C 630.08 1597.5  632.5 1599.92  632.5 1603  C 632.5 1606.08  630.08 1608.5  627 1608.5  C 623.92 1608.5  621.5 1606.08  621.5 1603  C 621.5 1599.92  623.92 1597.5  627 1597.5  Z " stroke-width="1" stroke="#797979" fill="none" />
  <path d="M 627 1606  C 625.32 1606  624 1604.68  624 1603  C 624 1601.32  625.32 1600  627 1600  C 628.68 1600  630 1601.32  630 1603  C 630 1604.68  628.68 1606  627 1606  " fill-rule="nonzero" fill="#797979" stroke="none" />
</svg>