<?xml version="1.0" encoding="utf-8"?>
<svg version="1.1" xmlns:xlink="http://www.w3.org/1999/xlink" width="12px" height="12px" viewBox="619 1755  12 12" xmlns="http://www.w3.org/2000/svg">
  <path d="M 625 1755  C 628.36 1755  631 1757.64  631 1761  C 631 1764.36  628.36 1767  625 1767  C 621.64 1767  619 1764.36  619 1761  C 619 1757.64  621.64 1755  625 1755  Z " fill-rule="nonzero" fill="#ffffff" stroke="none" />
  <path d="M 625 1755.5  C 628.08 1755.5  630.5 1757.92  630.5 1761  C 630.5 1764.08  628.08 1766.5  625 1766.5  C 621.92 1766.5  619.5 1764.08  619.5 1761  C 619.5 1757.92  621.92 1755.5  625 1755.5  Z " stroke-width="1" stroke="#797979" fill="none" />
  <path d="M 625 1764  C 623.32 1764  622 1762.68  622 1761  C 622 1759.32  623.32 1758  625 1758  C 626.68 1758  628 1759.32  628 1761  C 628 1762.68  626.68 1764  625 1764  " fill-rule="nonzero" fill="#797979" stroke="none" />
</svg>