<?xml version="1.0" encoding="utf-8"?>
<svg version="1.1" xmlns:xlink="http://www.w3.org/1999/xlink" width="12px" height="12px" viewBox="719 1755  12 12" xmlns="http://www.w3.org/2000/svg">
  <path d="M 725 1755  C 728.36 1755  731 1757.64  731 1761  C 731 1764.36  728.36 1767  725 1767  C 721.64 1767  719 1764.36  719 1761  C 719 1757.64  721.64 1755  725 1755  Z " fill-rule="nonzero" fill="#ffffff" stroke="none" />
  <path d="M 725 1755.5  C 728.08 1755.5  730.5 1757.92  730.5 1761  C 730.5 1764.08  728.08 1766.5  725 1766.5  C 721.92 1766.5  719.5 1764.08  719.5 1761  C 719.5 1757.92  721.92 1755.5  725 1755.5  Z " stroke-width="1" stroke="#797979" fill="none" />
  <path d="M 725 1764  C 723.32 1764  722 1762.68  722 1761  C 722 1759.32  723.32 1758  725 1758  C 726.68 1758  728 1759.32  728 1761  C 728 1762.68  726.68 1764  725 1764  " fill-rule="nonzero" fill="#797979" stroke="none" />
</svg>