<?xml version="1.0" encoding="utf-8"?>
<svg version="1.1" xmlns:xlink="http://www.w3.org/1999/xlink" width="12px" height="12px" viewBox="601 592  12 12" xmlns="http://www.w3.org/2000/svg">
  <path d="M 607 592  C 610.36 592  613 594.64  613 598  C 613 601.36  610.36 604  607 604  C 603.64 604  601 601.36  601 598  C 601 594.64  603.64 592  607 592  Z " fill-rule="nonzero" fill="#f0f0f0" stroke="none" />
  <path d="M 607 592.5  C 610.08 592.5  612.5 594.92  612.5 598  C 612.5 601.08  610.08 603.5  607 603.5  C 603.92 603.5  601.5 601.08  601.5 598  C 601.5 594.92  603.92 592.5  607 592.5  Z " stroke-width="1" stroke="#797979" fill="none" />
  <path d="M 607 601  C 605.32 601  604 599.68  604 598  C 604 596.32  605.32 595  607 595  C 608.68 595  610 596.32  610 598  C 610 599.68  608.68 601  607 601  " fill-rule="nonzero" fill="#797979" stroke="none" />
</svg>