<?xml version="1.0" encoding="utf-8"?>
<svg version="1.1" xmlns:xlink="http://www.w3.org/1999/xlink" width="12px" height="12px" viewBox="596 544  12 12" xmlns="http://www.w3.org/2000/svg">
  <path d="M 602 544  C 605.36 544  608 546.64  608 550  C 608 553.36  605.36 556  602 556  C 598.64 556  596 553.36  596 550  C 596 546.64  598.64 544  602 544  Z " fill-rule="nonzero" fill="#f0f0f0" stroke="none" />
  <path d="M 602 544.5  C 605.08 544.5  607.5 546.92  607.5 550  C 607.5 553.08  605.08 555.5  602 555.5  C 598.92 555.5  596.5 553.08  596.5 550  C 596.5 546.92  598.92 544.5  602 544.5  Z " stroke-width="1" stroke="#797979" fill="none" />
  <path d="M 602 553  C 600.32 553  599 551.68  599 550  C 599 548.32  600.32 547  602 547  C 603.68 547  605 548.32  605 550  C 605 551.68  603.68 553  602 553  " fill-rule="nonzero" fill="#797979" stroke="none" />
</svg>