<?xml version="1.0" encoding="utf-8"?>
<svg version="1.1" xmlns:xlink="http://www.w3.org/1999/xlink" width="12px" height="12px" viewBox="708 556  12 12" xmlns="http://www.w3.org/2000/svg">
  <path d="M 714 556  C 717.36 556  720 558.64  720 562  C 720 565.36  717.36 568  714 568  C 710.64 568  708 565.36  708 562  C 708 558.64  710.64 556  714 556  Z " fill-rule="nonzero" fill="#f0f0f0" stroke="none" />
  <path d="M 714 556.5  C 717.08 556.5  719.5 558.92  719.5 562  C 719.5 565.08  717.08 567.5  714 567.5  C 710.92 567.5  708.5 565.08  708.5 562  C 708.5 558.92  710.92 556.5  714 556.5  Z " stroke-width="1" stroke="#797979" fill="none" />
  <path d="M 714 565  C 712.32 565  711 563.68  711 562  C 711 560.32  712.32 559  714 559  C 715.68 559  717 560.32  717 562  C 717 563.68  715.68 565  714 565  " fill-rule="nonzero" fill="#797979" stroke="none" />
</svg>