<?xml version="1.0" encoding="utf-8"?>
<svg version="1.1" xmlns:xlink="http://www.w3.org/1999/xlink" width="12px" height="12px" viewBox="706 523  12 12" xmlns="http://www.w3.org/2000/svg">
  <path d="M 712 523  C 715.36 523  718 525.64  718 529  C 718 532.36  715.36 535  712 535  C 708.64 535  706 532.36  706 529  C 706 525.64  708.64 523  712 523  Z " fill-rule="nonzero" fill="#ffffff" stroke="none" />
  <path d="M 712 523.5  C 715.08 523.5  717.5 525.92  717.5 529  C 717.5 532.08  715.08 534.5  712 534.5  C 708.92 534.5  706.5 532.08  706.5 529  C 706.5 525.92  708.92 523.5  712 523.5  Z " stroke-width="1" stroke="#797979" fill="none" />
  <path d="M 712 532  C 710.32 532  709 530.68  709 529  C 709 527.32  710.32 526  712 526  C 713.68 526  715 527.32  715 529  C 715 530.68  713.68 532  712 532  " fill-rule="nonzero" fill="#797979" stroke="none" />
</svg>