<?xml version="1.0" encoding="utf-8"?>
<svg version="1.1" xmlns:xlink="http://www.w3.org/1999/xlink" width="12px" height="12px" viewBox="608 523  12 12" xmlns="http://www.w3.org/2000/svg">
  <path d="M 614 523  C 617.36 523  620 525.64  620 529  C 620 532.36  617.36 535  614 535  C 610.64 535  608 532.36  608 529  C 608 525.64  610.64 523  614 523  Z " fill-rule="nonzero" fill="#ffffff" stroke="none" />
  <path d="M 614 523.5  C 617.08 523.5  619.5 525.92  619.5 529  C 619.5 532.08  617.08 534.5  614 534.5  C 610.92 534.5  608.5 532.08  608.5 529  C 608.5 525.92  610.92 523.5  614 523.5  Z " stroke-width="1" stroke="#797979" fill="none" />
  <path d="M 614 532  C 612.32 532  611 530.68  611 529  C 611 527.32  612.32 526  614 526  C 615.68 526  617 527.32  617 529  C 617 530.68  615.68 532  614 532  " fill-rule="nonzero" fill="#797979" stroke="none" />
</svg>