<?xml version="1.0" encoding="utf-8"?>
<svg version="1.1" xmlns:xlink="http://www.w3.org/1999/xlink" width="25px" height="24px" xmlns="http://www.w3.org/2000/svg">
  <g transform="matrix(1 0 0 1 -673 -526 )">
    <path d="M 18.9453125 21.795  C 19.1356169871794 21.605  19.2307692307693 21.38  19.2307692307693 21.12  C 19.2307692307693 20.86  19.1356169871794 20.635  18.9453125 20.4450000000001  C 18.7550080128206 20.255  18.5296474358975 20.16  18.2692307692307 20.16  C 18.0088141025641 20.16  17.783453525641 20.255  17.5931490384615 20.4450000000001  C 17.4028445512821 20.635  17.3076923076923 20.86  17.3076923076923 21.12  C 17.3076923076923 21.38  17.4028445512821 21.605  17.5931490384615 21.795  C 17.783453525641 21.985  18.0088141025641 22.08  18.2692307692307 22.08  C 18.5296474358975 22.08  18.7550080128206 21.985  18.9453125 21.795  Z M 22.7914663461538 21.795  C 22.9817708333334 21.605  23.0769230769231 21.38  23.0769230769231 21.12  C 23.0769230769231 20.86  22.9817708333334 20.635  22.7914663461538 20.4450000000001  C 22.6011618589744 20.255  22.3758012820513 20.16  22.1153846153846 20.16  C 21.8549679487179 20.16  21.6296073717949 20.255  21.4393028846154 20.4450000000001  C 21.2489983974359 20.635  21.1538461538462 20.86  21.1538461538462 21.12  C 21.1538461538462 21.38  21.2489983974359 21.605  21.4393028846154 21.795  C 21.6296073717949 21.985  21.8549679487179 22.08  22.1153846153846 22.08  C 22.3758012820513 22.08  22.6011618589744 21.985  22.7914663461538 21.795  Z M 24.5793269230769 16.74  C 24.8597756410256 17.02  25 17.36  25 17.76  L 25 22.5599999999999  C 25 22.96  24.8597756410256 23.3  24.5793269230769 23.58  C 24.2988782051282 23.86  23.9583333333334 24  23.5576923076923 24  L 1.44230769230774 24  C 1.04166666666663 24  0.701121794871824 23.86  0.420673076923094 23.58  C 0.140224358974365 23.3  0 22.96  0 22.5599999999999  L 0 17.76  C 0 17.36  0.140224358974365 17.02  0.420673076923094 16.74  C 0.701121794871824 16.46  1.04166666666663 16.3200000000001  1.44230769230774 16.3200000000001  L 7.85757211538464 16.3200000000001  C 8.06790865384619 16.88  8.42097355769226 17.34  8.91676682692309 17.7  C 9.41256009615381 18.0599999999999  9.96594551282055 18.24  10.5769230769231 18.24  L 14.4230769230769 18.24  C 15.0340544871794 18.24  15.5874399038462 18.0599999999999  16.0832331730769 17.7  C 16.5790264423077 17.34  16.9320913461538 16.88  17.1424278846154 16.3200000000001  L 23.5576923076923 16.3200000000001  C 23.9583333333334 16.3200000000001  24.2988782051282 16.46  24.5793269230769 16.74  Z M 19.9068509615385 7.005  C 20.2173477564103 7.30499999999995  20.2874599358975 7.64999999999998  20.1171875 8.03999999999996  C 19.9469150641025 8.44000000000005  19.6514423076923 8.63999999999999  19.2307692307693 8.63999999999999  L 15.3846153846154 8.63999999999999  L 15.3846153846154 15.36  C 15.3846153846154 15.62  15.2894631410256 15.845  15.0991586538462 16.035  C 14.9088541666666 16.225  14.6834935897436 16.3200000000001  14.4230769230769 16.3200000000001  L 10.5769230769231 16.3200000000001  C 10.3165064102565 16.3200000000001  10.0911458333334 16.225  9.90084134615381 16.035  C 9.71053685897436 15.845  9.61538461538464 15.62  9.61538461538464 15.36  L 9.61538461538464 8.63999999999999  L 5.76923076923072 8.63999999999999  C 5.34855769230774 8.63999999999999  5.05308493589746 8.44000000000005  4.8828125 8.03999999999996  C 4.71254006410254 7.64999999999998  4.78265224358972 7.30499999999995  5.09314903846155 7.005  L 11.8239182692307 0.284999999999968  C 12.0042067307693 0.0950000000000273  12.2295673076923 0  12.5 0  C 12.7704326923077 0  12.9957932692307 0.0950000000000273  13.1760817307693 0.284999999999968  L 19.9068509615385 7.005  Z " fill-rule="nonzero" fill="#999999" stroke="none" transform="matrix(1 0 0 1 673 526 )" />
  </g>
</svg>