<?xml version="1.0" encoding="utf-8"?>
<svg version="1.1" xmlns:xlink="http://www.w3.org/1999/xlink" width="12px" height="12px" viewBox="647 422  12 12" xmlns="http://www.w3.org/2000/svg">
  <path d="M 653 422  C 656.36 422  659 424.64  659 428  C 659 431.36  656.36 434  653 434  C 649.64 434  647 431.36  647 428  C 647 424.64  649.64 422  653 422  Z " fill-rule="nonzero" fill="#ffffff" stroke="none" />
  <path d="M 653 422.5  C 656.08 422.5  658.5 424.92  658.5 428  C 658.5 431.08  656.08 433.5  653 433.5  C 649.92 433.5  647.5 431.08  647.5 428  C 647.5 424.92  649.92 422.5  653 422.5  Z " stroke-width="1" stroke="#797979" fill="none" />
  <path d="M 653 431  C 651.32 431  650 429.68  650 428  C 650 426.32  651.32 425  653 425  C 654.68 425  656 426.32  656 428  C 656 429.68  654.68 431  653 431  " fill-rule="nonzero" fill="#797979" stroke="none" />
</svg>