<?xml version="1.0" encoding="utf-8"?>
<svg version="1.1" xmlns:xlink="http://www.w3.org/1999/xlink" width="12px" height="12px" viewBox="647 460  12 12" xmlns="http://www.w3.org/2000/svg">
  <path d="M 653 460  C 656.36 460  659 462.64  659 466  C 659 469.36  656.36 472  653 472  C 649.64 472  647 469.36  647 466  C 647 462.64  649.64 460  653 460  Z " fill-rule="nonzero" fill="#ffffff" stroke="none" />
  <path d="M 653 460.5  C 656.08 460.5  658.5 462.92  658.5 466  C 658.5 469.08  656.08 471.5  653 471.5  C 649.92 471.5  647.5 469.08  647.5 466  C 647.5 462.92  649.92 460.5  653 460.5  Z " stroke-width="1" stroke="#797979" fill="none" />
  <path d="M 653 469  C 651.32 469  650 467.68  650 466  C 650 464.32  651.32 463  653 463  C 654.68 463  656 464.32  656 466  C 656 467.68  654.68 469  653 469  " fill-rule="nonzero" fill="#797979" stroke="none" />
</svg>