<?xml version="1.0" encoding="utf-8"?>
<svg version="1.1" xmlns:xlink="http://www.w3.org/1999/xlink" width="24px" height="24px" xmlns="http://www.w3.org/2000/svg">
  <g transform="matrix(1 0 0 1 -599 -184 )">
    <path d="M 14.71875 14.71875  C 15.9831730769232 13.454326923077  16.6153846153845 11.9326923076922  16.6153846153845 10.1538461538463  C 16.6153846153845 8.37500000000011  15.9831730769232 6.85336538461553  14.71875 5.58894230769229  C 13.4543269230768 4.32451923076934  11.9326923076922 3.69230769230771  10.1538461538463 3.69230769230771  C 8.37499999999977 3.69230769230771  6.85336538461524 4.32451923076934  5.58894230769261 5.58894230769229  C 4.32451923076928 6.85336538461553  3.6923076923074 8.37500000000011  3.6923076923074 10.1538461538463  C 3.6923076923074 11.9326923076922  4.32451923076928 13.454326923077  5.58894230769261 14.71875  C 6.85336538461524 15.983173076923  8.37499999999977 16.6153846153846  10.1538461538463 16.6153846153846  C 11.9326923076922 16.6153846153846  13.4543269230768 15.983173076923  14.71875 14.71875  Z M 23.4663461538463 20.8557692307692  C 23.8221153846152 21.2115384615384  24 21.6442307692307  24 22.1538461538463  C 24 22.6538461538461  23.8173076923076 23.0865384615384  23.4519230769229 23.4519230769232  C 23.0865384615387 23.8173076923076  22.6538461538461 24  22.1538461538463 24  C 21.6346153846155 24  21.2019230769229 23.8173076923076  20.8557692307692 23.4519230769232  L 15.9086538461537 18.5192307692308  C 14.1874999999998 19.7115384615384  12.2692307692307 20.3076923076923  10.1538461538463 20.3076923076923  C 8.77884615384608 20.3076923076923  7.46394230769261 20.0408653846154  6.20913461538453 19.5072115384614  C 4.95432692307713 18.9735576923077  3.8725961538463 18.2524038461537  2.96394230769261 17.34375  C 2.05528846153834 16.4350961538463  1.33413461538453 15.3533653846154  0.80048076923083 14.0985576923077  C 0.266826923077133 12.84375  0 11.5288461538462  0 10.1538461538463  C 0 8.77884615384608  0.266826923077133 7.46394230769226  0.80048076923083 6.20913461538458  C 1.33413461538453 4.95432692307685  2.05528846153834 3.87259615384627  2.96394230769261 2.96394230769229  C 3.8725961538463 2.05528846153857  4.95432692307713 1.33413461538458  6.20913461538453 0.800480769230859  C 7.46394230769261 0.266826923076849  8.77884615384608 0  10.1538461538463 0  C 11.528846153846 0  12.84375 0.266826923076849  14.0985576923074 0.800480769230859  C 15.3533653846155 1.33413461538458  16.4350961538463 2.05528846153857  17.34375 2.96394230769229  C 18.2524038461537 3.87259615384627  18.9735576923074 4.95432692307685  19.5072115384617 6.20913461538458  C 20.0408653846155 7.46394230769226  20.3076923076926 8.77884615384608  20.3076923076926 10.1538461538463  C 20.3076923076926 12.2692307692307  19.7115384615387 14.1875000000001  18.5192307692308 15.9086538461537  L 23.4663461538463 20.8557692307692  Z " fill-rule="nonzero" fill="#cccccc" stroke="none" transform="matrix(1 0 0 1 599 184 )" />
  </g>
</svg>