<?xml version="1.0" encoding="utf-8"?>
<svg version="1.1" xmlns:xlink="http://www.w3.org/1999/xlink" width="40px" height="40px" xmlns="http://www.w3.org/2000/svg">
  <g transform="matrix(1 0 0 1 -1239 -427 )">
    <path d="M 1239 427  L 1279 427  L 1279 467  L 1239 467  L 1239 427  " fill-rule="nonzero" fill="#cccccc" stroke="none" />
    <path d="M 1242 430  L 1276 430  L 1276 464  L 1242 464  L 1242 430  " fill-rule="nonzero" fill="#ffffff" stroke="none" />
    <path d="M 1262.8 439  C 1261.12 439  1259.8 437.68  1259.8 436  C 1259.8 434.32  1261.12 433  1262.8 433  C 1264.48 433  1265.8 434.32  1265.8 436  C 1265.8 437.68  1264.48 439  1262.8 439  " fill-rule="nonzero" fill="#cccccc" stroke="none" />
    <path d="M 1243 463  L 1243 445.4  L 1251 437.4  L 1262.2 443.8  L 1268.6 442.2  L 1275 443.8  L 1275 463  L 1243 463  " fill-rule="nonzero" fill="#169bd5" stroke="none" />
  </g>
</svg>