<?xml version="1.0" encoding="utf-8"?>
<svg version="1.1" xmlns:xlink="http://www.w3.org/1999/xlink" width="15px" height="15px" xmlns="http://www.w3.org/2000/svg">
  <g transform="matrix(1 0 0 1 -277 -283 )">
    <path d="M 2.53465346534654 13.7326732673267  L 3.59405940594058 13.7326732673267  L 4.49504950495049 12.8316831683168  L 2.16831683168317 10.5049504950495  L 1.26732673267327 11.4059405940594  L 1.26732673267327 12.4653465346535  L 2.53465346534654 12.4653465346535  L 2.53465346534654 13.7326732673267  Z M 8.70297029702971 4.71287128712873  C 8.74917491749176 4.66666666666669  8.77227722772278 4.61056105610561  8.77227722772278 4.54455445544556  C 8.77227722772278 4.39933993399342  8.69966996699668 4.32673267326732  8.55445544554453 4.32673267326732  C 8.48844884488449 4.32673267326732  8.43234323432341 4.34983498349834  8.38613861386136 4.39603960396039  L 3.019801980198 9.76237623762376  C 2.97359735973595 9.8085808580858  2.95049504950492 9.86468646864688  2.95049504950492 9.93069306930693  C 2.95049504950492 10.0759075907591  3.02310231023102 10.1485148514851  3.16831683168317 10.1485148514851  C 3.23432343234322 10.1485148514851  3.29042904290429 10.1254125412541  3.33663366336634 10.0792079207921  L 8.70297029702971 4.71287128712873  Z M 0 10.8811881188119  L 8.23762376237624 2.64356435643566  L 12.3564356435643 6.76237623762376  L 4.11881188118809 15  L 0 15  L 0 10.8811881188119  Z M 14.6336633663366 2.69306930693068  C 14.8778877887789 2.95049504950498  15 3.25082508250824  15 3.59405940594058  C 15 3.94389438943892  14.8778877887789 4.24092409240922  14.6336633663366 4.48514851485152  L 12.990099009901 6.12871287128712  L 8.87128712871288 2.00990099009903  L 10.5148514851485 0.376237623762393  C 10.7524752475247 0.12541254125415  11.049504950495 0  11.4059405940594 0  C 11.7557755775578 0  12.0561056105611 0.12541254125415  12.3069306930693 0.376237623762393  L 14.6336633663366 2.69306930693068  Z " fill-rule="nonzero" fill="#198dff" stroke="none" transform="matrix(1 0 0 1 277 283 )" />
  </g>
</svg>