<?xml version="1.0" encoding="utf-8"?>
<svg version="1.1" xmlns:xlink="http://www.w3.org/1999/xlink" width="40px" height="40px" xmlns="http://www.w3.org/2000/svg">
  <g transform="matrix(1 0 0 1 -1114 -331 )">
    <path d="M 1114 331  L 1154 331  L 1154 371  L 1114 371  L 1114 331  " fill-rule="nonzero" fill="#cccccc" stroke="none" />
    <path d="M 1117 334  L 1151 334  L 1151 368  L 1117 368  L 1117 334  " fill-rule="nonzero" fill="#ffffff" stroke="none" />
    <path d="M 1137.8 343  C 1136.12 343  1134.8 341.68  1134.8 340  C 1134.8 338.32  1136.12 337  1137.8 337  C 1139.48 337  1140.8 338.32  1140.8 340  C 1140.8 341.68  1139.48 343  1137.8 343  " fill-rule="nonzero" fill="#cccccc" stroke="none" />
    <path d="M 1118 367  L 1118 349.4  L 1126 341.4  L 1137.2 347.8  L 1143.6 346.2  L 1150 347.8  L 1150 367  L 1118 367  " fill-rule="nonzero" fill="#169bd5" stroke="none" />
  </g>
</svg>