<?xml version="1.0" encoding="utf-8"?>
<svg version="1.1" xmlns:xlink="http://www.w3.org/1999/xlink" width="12px" height="12px" viewBox="766 464  12 12" xmlns="http://www.w3.org/2000/svg">
  <path d="M 772 464  C 775.36 464  778 466.64  778 470  C 778 473.36  775.36 476  772 476  C 768.64 476  766 473.36  766 470  C 766 466.64  768.64 464  772 464  Z " fill-rule="nonzero" fill="#ffffff" stroke="none" />
  <path d="M 772 464.5  C 775.08 464.5  777.5 466.92  777.5 470  C 777.5 473.08  775.08 475.5  772 475.5  C 768.92 475.5  766.5 473.08  766.5 470  C 766.5 466.92  768.92 464.5  772 464.5  Z " stroke-width="1" stroke="#797979" fill="none" />
  <path d="M 772 473  C 770.32 473  769 471.68  769 470  C 769 468.32  770.32 467  772 467  C 773.68 467  775 468.32  775 470  C 775 471.68  773.68 473  772 473  " fill-rule="nonzero" fill="#797979" stroke="none" />
</svg>