<?xml version="1.0" encoding="utf-8"?>
<svg version="1.1" xmlns:xlink="http://www.w3.org/1999/xlink" width="12px" height="12px" viewBox="835 464  12 12" xmlns="http://www.w3.org/2000/svg">
  <path d="M 841 464  C 844.36 464  847 466.64  847 470  C 847 473.36  844.36 476  841 476  C 837.64 476  835 473.36  835 470  C 835 466.64  837.64 464  841 464  Z " fill-rule="nonzero" fill="#f0f0f0" stroke="none" />
  <path d="M 841 464.5  C 844.08 464.5  846.5 466.92  846.5 470  C 846.5 473.08  844.08 475.5  841 475.5  C 837.92 475.5  835.5 473.08  835.5 470  C 835.5 466.92  837.92 464.5  841 464.5  Z " stroke-width="1" stroke="#797979" fill="none" />
  <path d="M 841 473  C 839.32 473  838 471.68  838 470  C 838 468.32  839.32 467  841 467  C 842.68 467  844 468.32  844 470  C 844 471.68  842.68 473  841 473  " fill-rule="nonzero" fill="#797979" stroke="none" />
</svg>