<?xml version="1.0" encoding="utf-8"?>
<svg version="1.1" xmlns:xlink="http://www.w3.org/1999/xlink" width="12px" height="12px" viewBox="677 662  12 12" xmlns="http://www.w3.org/2000/svg">
  <path d="M 683 662  C 686.36 662  689 664.64  689 668  C 689 671.36  686.36 674  683 674  C 679.64 674  677 671.36  677 668  C 677 664.64  679.64 662  683 662  Z " fill-rule="nonzero" fill="#f0f0f0" stroke="none" />
  <path d="M 683 662.5  C 686.08 662.5  688.5 664.92  688.5 668  C 688.5 671.08  686.08 673.5  683 673.5  C 679.92 673.5  677.5 671.08  677.5 668  C 677.5 664.92  679.92 662.5  683 662.5  Z " stroke-width="1" stroke="#797979" fill="none" />
  <path d="M 683 671  C 681.32 671  680 669.68  680 668  C 680 666.32  681.32 665  683 665  C 684.68 665  686 666.32  686 668  C 686 669.68  684.68 671  683 671  " fill-rule="nonzero" fill="#797979" stroke="none" />
</svg>