<?xml version="1.0" encoding="utf-8"?>
<svg version="1.1" xmlns:xlink="http://www.w3.org/1999/xlink" width="12px" height="12px" viewBox="596 463  12 12" xmlns="http://www.w3.org/2000/svg">
  <path d="M 602 463  C 605.36 463  608 465.64  608 469  C 608 472.36  605.36 475  602 475  C 598.64 475  596 472.36  596 469  C 596 465.64  598.64 463  602 463  Z " fill-rule="nonzero" fill="#ffffff" stroke="none" />
  <path d="M 602 463.5  C 605.08 463.5  607.5 465.92  607.5 469  C 607.5 472.08  605.08 474.5  602 474.5  C 598.92 474.5  596.5 472.08  596.5 469  C 596.5 465.92  598.92 463.5  602 463.5  Z " stroke-width="1" stroke="#797979" fill="none" />
  <path d="M 602 472  C 600.32 472  599 470.68  599 469  C 599 467.32  600.32 466  602 466  C 603.68 466  605 467.32  605 469  C 605 470.68  603.68 472  602 472  " fill-rule="nonzero" fill="#797979" stroke="none" />
</svg>