<?xml version="1.0" encoding="utf-8"?>
<svg version="1.1" xmlns:xlink="http://www.w3.org/1999/xlink" width="12px" height="12px" viewBox="596 423  12 12" xmlns="http://www.w3.org/2000/svg">
  <path d="M 602 423  C 605.36 423  608 425.64  608 429  C 608 432.36  605.36 435  602 435  C 598.64 435  596 432.36  596 429  C 596 425.64  598.64 423  602 423  Z " fill-rule="nonzero" fill="#ffffff" stroke="none" />
  <path d="M 602 423.5  C 605.08 423.5  607.5 425.92  607.5 429  C 607.5 432.08  605.08 434.5  602 434.5  C 598.92 434.5  596.5 432.08  596.5 429  C 596.5 425.92  598.92 423.5  602 423.5  Z " stroke-width="1" stroke="#797979" fill="none" />
  <path d="M 602 432  C 600.32 432  599 430.68  599 429  C 599 427.32  600.32 426  602 426  C 603.68 426  605 427.32  605 429  C 605 430.68  603.68 432  602 432  " fill-rule="nonzero" fill="#797979" stroke="none" />
</svg>