<?xml version="1.0" encoding="utf-8"?>
<svg version="1.1" xmlns:xlink="http://www.w3.org/1999/xlink" width="12px" height="12px" viewBox="596 498  12 12" xmlns="http://www.w3.org/2000/svg">
  <path d="M 602 498  C 605.36 498  608 500.64  608 504  C 608 507.36  605.36 510  602 510  C 598.64 510  596 507.36  596 504  C 596 500.64  598.64 498  602 498  Z " fill-rule="nonzero" fill="#ffffff" stroke="none" />
  <path d="M 602 498.5  C 605.08 498.5  607.5 500.92  607.5 504  C 607.5 507.08  605.08 509.5  602 509.5  C 598.92 509.5  596.5 507.08  596.5 504  C 596.5 500.92  598.92 498.5  602 498.5  Z " stroke-width="1" stroke="#797979" fill="none" />
  <path d="M 602 507  C 600.32 507  599 505.68  599 504  C 599 502.32  600.32 501  602 501  C 603.68 501  605 502.32  605 504  C 605 505.68  603.68 507  602 507  " fill-rule="nonzero" fill="#797979" stroke="none" />
</svg>