<?xml version="1.0" encoding="utf-8"?>
<svg version="1.1" xmlns:xlink="http://www.w3.org/1999/xlink" width="12px" height="12px" viewBox="743 423  12 12" xmlns="http://www.w3.org/2000/svg">
  <path d="M 749 423  C 752.36 423  755 425.64  755 429  C 755 432.36  752.36 435  749 435  C 745.64 435  743 432.36  743 429  C 743 425.64  745.64 423  749 423  Z " fill-rule="nonzero" fill="#ffffff" stroke="none" />
  <path d="M 749 423.5  C 752.08 423.5  754.5 425.92  754.5 429  C 754.5 432.08  752.08 434.5  749 434.5  C 745.92 434.5  743.5 432.08  743.5 429  C 743.5 425.92  745.92 423.5  749 423.5  Z " stroke-width="1" stroke="#797979" fill="none" />
  <path d="M 749 432  C 747.32 432  746 430.68  746 429  C 746 427.32  747.32 426  749 426  C 750.68 426  752 427.32  752 429  C 752 430.68  750.68 432  749 432  " fill-rule="nonzero" fill="#797979" stroke="none" />
</svg>