<?xml version="1.0" encoding="utf-8"?>
<svg version="1.1" xmlns:xlink="http://www.w3.org/1999/xlink" width="12px" height="12px" viewBox="812 423  12 12" xmlns="http://www.w3.org/2000/svg">
  <path d="M 818 423  C 821.36 423  824 425.64  824 429  C 824 432.36  821.36 435  818 435  C 814.64 435  812 432.36  812 429  C 812 425.64  814.64 423  818 423  Z " fill-rule="nonzero" fill="#f0f0f0" stroke="none" />
  <path d="M 818 423.5  C 821.08 423.5  823.5 425.92  823.5 429  C 823.5 432.08  821.08 434.5  818 434.5  C 814.92 434.5  812.5 432.08  812.5 429  C 812.5 425.92  814.92 423.5  818 423.5  Z " stroke-width="1" stroke="#797979" fill="none" />
  <path d="M 818 432  C 816.32 432  815 430.68  815 429  C 815 427.32  816.32 426  818 426  C 819.68 426  821 427.32  821 429  C 821 430.68  819.68 432  818 432  " fill-rule="nonzero" fill="#797979" stroke="none" />
</svg>