<?xml version="1.0" encoding="utf-8"?>
<svg version="1.1" xmlns:xlink="http://www.w3.org/1999/xlink" width="12px" height="12px" viewBox="696 498  12 12" xmlns="http://www.w3.org/2000/svg">
  <path d="M 702 498  C 705.36 498  708 500.64  708 504  C 708 507.36  705.36 510  702 510  C 698.64 510  696 507.36  696 504  C 696 500.64  698.64 498  702 498  Z " fill-rule="nonzero" fill="#f0f0f0" stroke="none" />
  <path d="M 702 498.5  C 705.08 498.5  707.5 500.92  707.5 504  C 707.5 507.08  705.08 509.5  702 509.5  C 698.92 509.5  696.5 507.08  696.5 504  C 696.5 500.92  698.92 498.5  702 498.5  Z " stroke-width="1" stroke="#797979" fill="none" />
  <path d="M 702 507  C 700.32 507  699 505.68  699 504  C 699 502.32  700.32 501  702 501  C 703.68 501  705 502.32  705 504  C 705 505.68  703.68 507  702 507  " fill-rule="nonzero" fill="#797979" stroke="none" />
</svg>