<?xml version="1.0" encoding="utf-8"?>
<svg version="1.1" xmlns:xlink="http://www.w3.org/1999/xlink" width="12px" height="12px" viewBox="596 396  12 12" xmlns="http://www.w3.org/2000/svg">
  <path d="M 602 396  C 605.36 396  608 398.64  608 402  C 608 405.36  605.36 408  602 408  C 598.64 408  596 405.36  596 402  C 596 398.64  598.64 396  602 396  Z " fill-rule="nonzero" fill="#ffffff" stroke="none" />
  <path d="M 602 396.5  C 605.08 396.5  607.5 398.92  607.5 402  C 607.5 405.08  605.08 407.5  602 407.5  C 598.92 407.5  596.5 405.08  596.5 402  C 596.5 398.92  598.92 396.5  602 396.5  Z " stroke-width="1" stroke="#797979" fill="none" />
  <path d="M 602 405  C 600.32 405  599 403.68  599 402  C 599 400.32  600.32 399  602 399  C 603.68 399  605 400.32  605 402  C 605 403.68  603.68 405  602 405  " fill-rule="nonzero" fill="#797979" stroke="none" />
</svg>