<?xml version="1.0" encoding="utf-8"?>
<svg version="1.1" xmlns:xlink="http://www.w3.org/1999/xlink" width="12px" height="12px" viewBox="696 396  12 12" xmlns="http://www.w3.org/2000/svg">
  <path d="M 702 396  C 705.36 396  708 398.64  708 402  C 708 405.36  705.36 408  702 408  C 698.64 408  696 405.36  696 402  C 696 398.64  698.64 396  702 396  Z " fill-rule="nonzero" fill="#ffffff" stroke="none" />
  <path d="M 702 396.5  C 705.08 396.5  707.5 398.92  707.5 402  C 707.5 405.08  705.08 407.5  702 407.5  C 698.92 407.5  696.5 405.08  696.5 402  C 696.5 398.92  698.92 396.5  702 396.5  Z " stroke-width="1" stroke="#797979" fill="none" />
  <path d="M 702 405  C 700.32 405  699 403.68  699 402  C 699 400.32  700.32 399  702 399  C 703.68 399  705 400.32  705 402  C 705 403.68  703.68 405  702 405  " fill-rule="nonzero" fill="#797979" stroke="none" />
</svg>