<?xml version="1.0" encoding="utf-8"?>
<svg version="1.1" xmlns:xlink="http://www.w3.org/1999/xlink" width="12px" height="12px" viewBox="676 463  12 12" xmlns="http://www.w3.org/2000/svg">
  <path d="M 682 463  C 685.36 463  688 465.64  688 469  C 688 472.36  685.36 475  682 475  C 678.64 475  676 472.36  676 469  C 676 465.64  678.64 463  682 463  Z " fill-rule="nonzero" fill="#ffffff" stroke="none" />
  <path d="M 682 463.5  C 685.08 463.5  687.5 465.92  687.5 469  C 687.5 472.08  685.08 474.5  682 474.5  C 678.92 474.5  676.5 472.08  676.5 469  C 676.5 465.92  678.92 463.5  682 463.5  Z " stroke-width="1" stroke="#797979" fill="none" />
  <path d="M 682 472  C 680.32 472  679 470.68  679 469  C 679 467.32  680.32 466  682 466  C 683.68 466  685 467.32  685 469  C 685 470.68  683.68 472  682 472  " fill-rule="nonzero" fill="#797979" stroke="none" />
</svg>