<?xml version="1.0" encoding="utf-8"?>
<svg version="1.1" xmlns:xlink="http://www.w3.org/1999/xlink" width="12px" height="12px" viewBox="696 604  12 12" xmlns="http://www.w3.org/2000/svg">
  <path d="M 702 604  C 705.36 604  708 606.64  708 610  C 708 613.36  705.36 616  702 616  C 698.64 616  696 613.36  696 610  C 696 606.64  698.64 604  702 604  Z " fill-rule="nonzero" fill="#ffffff" stroke="none" />
  <path d="M 702 604.5  C 705.08 604.5  707.5 606.92  707.5 610  C 707.5 613.08  705.08 615.5  702 615.5  C 698.92 615.5  696.5 613.08  696.5 610  C 696.5 606.92  698.92 604.5  702 604.5  Z " stroke-width="1" stroke="#797979" fill="none" />
  <path d="M 702 613  C 700.32 613  699 611.68  699 610  C 699 608.32  700.32 607  702 607  C 703.68 607  705 608.32  705 610  C 705 611.68  703.68 613  702 613  " fill-rule="nonzero" fill="#797979" stroke="none" />
</svg>