<?xml version="1.0" encoding="utf-8"?>
<svg version="1.1" xmlns:xlink="http://www.w3.org/1999/xlink" width="12px" height="12px" viewBox="596 604  12 12" xmlns="http://www.w3.org/2000/svg">
  <path d="M 602 604  C 605.36 604  608 606.64  608 610  C 608 613.36  605.36 616  602 616  C 598.64 616  596 613.36  596 610  C 596 606.64  598.64 604  602 604  Z " fill-rule="nonzero" fill="#ffffff" stroke="none" />
  <path d="M 602 604.5  C 605.08 604.5  607.5 606.92  607.5 610  C 607.5 613.08  605.08 615.5  602 615.5  C 598.92 615.5  596.5 613.08  596.5 610  C 596.5 606.92  598.92 604.5  602 604.5  Z " stroke-width="1" stroke="#797979" fill="none" />
  <path d="M 602 613  C 600.32 613  599 611.68  599 610  C 599 608.32  600.32 607  602 607  C 603.68 607  605 608.32  605 610  C 605 611.68  603.68 613  602 613  " fill-rule="nonzero" fill="#797979" stroke="none" />
</svg>