<?xml version="1.0" encoding="utf-8"?>
<svg version="1.1" xmlns:xlink="http://www.w3.org/1999/xlink" width="12px" height="12px" viewBox="4622 709  12 12" xmlns="http://www.w3.org/2000/svg">
  <path d="M 4628 709  C 4631.36 709  4634 711.64  4634 715  C 4634 718.36  4631.36 721  4628 721  C 4624.64 721  4622 718.36  4622 715  C 4622 711.64  4624.64 709  4628 709  Z " fill-rule="nonzero" fill="#ffffff" stroke="none" />
  <path d="M 4628 709.5  C 4631.08 709.5  4633.5 711.92  4633.5 715  C 4633.5 718.08  4631.08 720.5  4628 720.5  C 4624.92 720.5  4622.5 718.08  4622.5 715  C 4622.5 711.92  4624.92 709.5  4628 709.5  Z " stroke-width="1" stroke="#797979" fill="none" />
  <path d="M 4628 718  C 4626.32 718  4625 716.68  4625 715  C 4625 713.32  4626.32 712  4628 712  C 4629.68 712  4631 713.32  4631 715  C 4631 716.68  4629.68 718  4628 718  " fill-rule="nonzero" fill="#797979" stroke="none" />
</svg>