<?xml version="1.0" encoding="utf-8"?>
<svg version="1.1" xmlns:xlink="http://www.w3.org/1999/xlink" width="12px" height="12px" viewBox="2652 1425  12 12" xmlns="http://www.w3.org/2000/svg">
  <path d="M 2658 1425  C 2661.36 1425  2664 1427.64  2664 1431  C 2664 1434.36  2661.36 1437  2658 1437  C 2654.64 1437  2652 1434.36  2652 1431  C 2652 1427.64  2654.64 1425  2658 1425  Z " fill-rule="nonzero" fill="#f0f0f0" stroke="none" />
  <path d="M 2658 1425.5  C 2661.08 1425.5  2663.5 1427.92  2663.5 1431  C 2663.5 1434.08  2661.08 1436.5  2658 1436.5  C 2654.92 1436.5  2652.5 1434.08  2652.5 1431  C 2652.5 1427.92  2654.92 1425.5  2658 1425.5  Z " stroke-width="1" stroke="#797979" fill="none" />
  <path d="M 2658 1434  C 2656.32 1434  2655 1432.68  2655 1431  C 2655 1429.32  2656.32 1428  2658 1428  C 2659.68 1428  2661 1429.32  2661 1431  C 2661 1432.68  2659.68 1434  2658 1434  " fill-rule="nonzero" fill="#797979" stroke="none" />
</svg>