<?xml version="1.0" encoding="utf-8"?>
<svg version="1.1" xmlns:xlink="http://www.w3.org/1999/xlink" width="12px" height="12px" viewBox="2553 1614  12 12" xmlns="http://www.w3.org/2000/svg">
  <path d="M 2559 1614  C 2562.36 1614  2565 1616.64  2565 1620  C 2565 1623.36  2562.36 1626  2559 1626  C 2555.64 1626  2553 1623.36  2553 1620  C 2553 1616.64  2555.64 1614  2559 1614  Z " fill-rule="nonzero" fill="#f0f0f0" stroke="none" />
  <path d="M 2559 1614.5  C 2562.08 1614.5  2564.5 1616.92  2564.5 1620  C 2564.5 1623.08  2562.08 1625.5  2559 1625.5  C 2555.92 1625.5  2553.5 1623.08  2553.5 1620  C 2553.5 1616.92  2555.92 1614.5  2559 1614.5  Z " stroke-width="1" stroke="#797979" fill="none" />
  <path d="M 2559 1623  C 2557.32 1623  2556 1621.68  2556 1620  C 2556 1618.32  2557.32 1617  2559 1617  C 2560.68 1617  2562 1618.32  2562 1620  C 2562 1621.68  2560.68 1623  2559 1623  " fill-rule="nonzero" fill="#797979" stroke="none" />
</svg>