<?xml version="1.0" encoding="utf-8"?>
<svg version="1.1" xmlns:xlink="http://www.w3.org/1999/xlink" width="12px" height="12px" viewBox="4622 1426  12 12" xmlns="http://www.w3.org/2000/svg">
  <path d="M 4628 1426  C 4631.36 1426  4634 1428.64  4634 1432  C 4634 1435.36  4631.36 1438  4628 1438  C 4624.64 1438  4622 1435.36  4622 1432  C 4622 1428.64  4624.64 1426  4628 1426  Z " fill-rule="nonzero" fill="#ffffff" stroke="none" />
  <path d="M 4628 1426.5  C 4631.08 1426.5  4633.5 1428.92  4633.5 1432  C 4633.5 1435.08  4631.08 1437.5  4628 1437.5  C 4624.92 1437.5  4622.5 1435.08  4622.5 1432  C 4622.5 1428.92  4624.92 1426.5  4628 1426.5  Z " stroke-width="1" stroke="#797979" fill="none" />
  <path d="M 4628 1435  C 4626.32 1435  4625 1433.68  4625 1432  C 4625 1430.32  4626.32 1429  4628 1429  C 4629.68 1429  4631 1430.32  4631 1432  C 4631 1433.68  4629.68 1435  4628 1435  " fill-rule="nonzero" fill="#797979" stroke="none" />
</svg>