<?xml version="1.0" encoding="utf-8"?>
<svg version="1.1" xmlns:xlink="http://www.w3.org/1999/xlink" width="12px" height="12px" viewBox="2652 295  12 12" xmlns="http://www.w3.org/2000/svg">
  <path d="M 2658 295  C 2661.36 295  2664 297.64  2664 301  C 2664 304.36  2661.36 307  2658 307  C 2654.64 307  2652 304.36  2652 301  C 2652 297.64  2654.64 295  2658 295  Z " fill-rule="nonzero" fill="#ffffff" stroke="none" />
  <path d="M 2658 295.5  C 2661.08 295.5  2663.5 297.92  2663.5 301  C 2663.5 304.08  2661.08 306.5  2658 306.5  C 2654.92 306.5  2652.5 304.08  2652.5 301  C 2652.5 297.92  2654.92 295.5  2658 295.5  Z " stroke-width="1" stroke="#797979" fill="none" />
  <path d="M 2658 304  C 2656.32 304  2655 302.68  2655 301  C 2655 299.32  2656.32 298  2658 298  C 2659.68 298  2661 299.32  2661 301  C 2661 302.68  2659.68 304  2658 304  " fill-rule="nonzero" fill="#797979" stroke="none" />
</svg>