<?xml version="1.0" encoding="utf-8"?>
<svg version="1.1" xmlns:xlink="http://www.w3.org/1999/xlink" width="12px" height="12px" viewBox="2553 2803  12 12" xmlns="http://www.w3.org/2000/svg">
  <path d="M 2559 2803  C 2562.36 2803  2565 2805.64  2565 2809  C 2565 2812.36  2562.36 2815  2559 2815  C 2555.64 2815  2553 2812.36  2553 2809  C 2553 2805.64  2555.64 2803  2559 2803  Z " fill-rule="nonzero" fill="#f0f0f0" stroke="none" />
  <path d="M 2559 2803.5  C 2562.08 2803.5  2564.5 2805.92  2564.5 2809  C 2564.5 2812.08  2562.08 2814.5  2559 2814.5  C 2555.92 2814.5  2553.5 2812.08  2553.5 2809  C 2553.5 2805.92  2555.92 2803.5  2559 2803.5  Z " stroke-width="1" stroke="#797979" fill="none" />
  <path d="M 2559 2812  C 2557.32 2812  2556 2810.68  2556 2809  C 2556 2807.32  2557.32 2806  2559 2806  C 2560.68 2806  2562 2807.32  2562 2809  C 2562 2810.68  2560.68 2812  2559 2812  " fill-rule="nonzero" fill="#797979" stroke="none" />
</svg>