<?xml version="1.0" encoding="utf-8"?>
<svg version="1.1" xmlns:xlink="http://www.w3.org/1999/xlink" width="12px" height="12px" viewBox="4522 709  12 12" xmlns="http://www.w3.org/2000/svg">
  <path d="M 4528 709  C 4531.36 709  4534 711.64  4534 715  C 4534 718.36  4531.36 721  4528 721  C 4524.64 721  4522 718.36  4522 715  C 4522 711.64  4524.64 709  4528 709  Z " fill-rule="nonzero" fill="#ffffff" stroke="none" />
  <path d="M 4528 709.5  C 4531.08 709.5  4533.5 711.92  4533.5 715  C 4533.5 718.08  4531.08 720.5  4528 720.5  C 4524.92 720.5  4522.5 718.08  4522.5 715  C 4522.5 711.92  4524.92 709.5  4528 709.5  Z " stroke-width="1" stroke="#797979" fill="none" />
  <path d="M 4528 718  C 4526.32 718  4525 716.68  4525 715  C 4525 713.32  4526.32 712  4528 712  C 4529.68 712  4531 713.32  4531 715  C 4531 716.68  4529.68 718  4528 718  " fill-rule="nonzero" fill="#797979" stroke="none" />
</svg>