<?xml version="1.0" encoding="utf-8"?>
<svg version="1.1" xmlns:xlink="http://www.w3.org/1999/xlink" width="12px" height="12px" viewBox="4736 295  12 12" xmlns="http://www.w3.org/2000/svg">
  <path d="M 4742 295  C 4745.36 295  4748 297.64  4748 301  C 4748 304.36  4745.36 307  4742 307  C 4738.64 307  4736 304.36  4736 301  C 4736 297.64  4738.64 295  4742 295  Z " fill-rule="nonzero" fill="#ffffff" stroke="none" />
  <path d="M 4742 295.5  C 4745.08 295.5  4747.5 297.92  4747.5 301  C 4747.5 304.08  4745.08 306.5  4742 306.5  C 4738.92 306.5  4736.5 304.08  4736.5 301  C 4736.5 297.92  4738.92 295.5  4742 295.5  Z " stroke-width="1" stroke="#797979" fill="none" />
  <path d="M 4742 304  C 4740.32 304  4739 302.68  4739 301  C 4739 299.32  4740.32 298  4742 298  C 4743.68 298  4745 299.32  4745 301  C 4745 302.68  4743.68 304  4742 304  " fill-rule="nonzero" fill="#797979" stroke="none" />
</svg>