<?xml version="1.0" encoding="utf-8"?>
<svg version="1.1" xmlns:xlink="http://www.w3.org/1999/xlink" width="12px" height="12px" viewBox="4523 484  12 12" xmlns="http://www.w3.org/2000/svg">
  <path d="M 4529 484  C 4532.36 484  4535 486.64  4535 490  C 4535 493.36  4532.36 496  4529 496  C 4525.64 496  4523 493.36  4523 490  C 4523 486.64  4525.64 484  4529 484  Z " fill-rule="nonzero" fill="#ffffff" stroke="none" />
  <path d="M 4529 484.5  C 4532.08 484.5  4534.5 486.92  4534.5 490  C 4534.5 493.08  4532.08 495.5  4529 495.5  C 4525.92 495.5  4523.5 493.08  4523.5 490  C 4523.5 486.92  4525.92 484.5  4529 484.5  Z " stroke-width="1" stroke="#797979" fill="none" />
  <path d="M 4529 493  C 4527.32 493  4526 491.68  4526 490  C 4526 488.32  4527.32 487  4529 487  C 4530.68 487  4532 488.32  4532 490  C 4532 491.68  4530.68 493  4529 493  " fill-rule="nonzero" fill="#797979" stroke="none" />
</svg>