<?xml version="1.0" encoding="utf-8"?>
<svg version="1.1" xmlns:xlink="http://www.w3.org/1999/xlink" width="12px" height="12px" viewBox="4523 1615  12 12" xmlns="http://www.w3.org/2000/svg">
  <path d="M 4529 1615  C 4532.36 1615  4535 1617.64  4535 1621  C 4535 1624.36  4532.36 1627  4529 1627  C 4525.64 1627  4523 1624.36  4523 1621  C 4523 1617.64  4525.64 1615  4529 1615  Z " fill-rule="nonzero" fill="#ffffff" stroke="none" />
  <path d="M 4529 1615.5  C 4532.08 1615.5  4534.5 1617.92  4534.5 1621  C 4534.5 1624.08  4532.08 1626.5  4529 1626.5  C 4525.92 1626.5  4523.5 1624.08  4523.5 1621  C 4523.5 1617.92  4525.92 1615.5  4529 1615.5  Z " stroke-width="1" stroke="#797979" fill="none" />
  <path d="M 4529 1624  C 4527.32 1624  4526 1622.68  4526 1621  C 4526 1619.32  4527.32 1618  4529 1618  C 4530.68 1618  4532 1619.32  4532 1621  C 4532 1622.68  4530.68 1624  4529 1624  " fill-rule="nonzero" fill="#797979" stroke="none" />
</svg>