<?xml version="1.0" encoding="utf-8"?>
<svg version="1.1" xmlns:xlink="http://www.w3.org/1999/xlink" width="12px" height="12px" viewBox="2552 1715  12 12" xmlns="http://www.w3.org/2000/svg">
  <path d="M 2558 1715  C 2561.36 1715  2564 1717.64  2564 1721  C 2564 1724.36  2561.36 1727  2558 1727  C 2554.64 1727  2552 1724.36  2552 1721  C 2552 1717.64  2554.64 1715  2558 1715  Z " fill-rule="nonzero" fill="#ffffff" stroke="none" />
  <path d="M 2558 1715.5  C 2561.08 1715.5  2563.5 1717.92  2563.5 1721  C 2563.5 1724.08  2561.08 1726.5  2558 1726.5  C 2554.92 1726.5  2552.5 1724.08  2552.5 1721  C 2552.5 1717.92  2554.92 1715.5  2558 1715.5  Z " stroke-width="1" stroke="#797979" fill="none" />
  <path d="M 2558 1724  C 2556.32 1724  2555 1722.68  2555 1721  C 2555 1719.32  2556.32 1718  2558 1718  C 2559.68 1718  2561 1719.32  2561 1721  C 2561 1722.68  2559.68 1724  2558 1724  " fill-rule="nonzero" fill="#797979" stroke="none" />
</svg>