<?xml version="1.0" encoding="utf-8"?>
<svg version="1.1" xmlns:xlink="http://www.w3.org/1999/xlink" width="20px" height="20px" xmlns="http://www.w3.org/2000/svg">
  <g transform="matrix(1 0 0 1 -847 -658 )">
    <path d="M 19.2861126603458 0  C 19.4348391894404 0  19.5686930656256 0.040922619047592  19.6876742889012 0.12276785714289  C 19.9330730619074 0.301339285714221  20.0334634690463 0.539434523809518  19.9888455103179 0.837053571428555  L 17.1332961517011 17.9799107142858  C 17.0961145194274 18.1956845238095  16.9771332961517 18.3630952380952  16.7763524818739 18.4821428571429  C 16.6722439115077 18.5416666666666  16.5569808514593 18.5714285714286  16.430563301729 18.5714285714286  C 16.3487637107269 18.5714285714286  16.2595277932701 18.5528273809524  16.1628555493586 18.515625  L 11.1098717233687 16.4508928571429  L 8.41048522030121 19.7433035714286  C 8.27663134411603 19.9144345238095  8.09444134597504 20  7.86391522587837 20  C 7.76724298196689 20  7.68544339096491 19.985119047619  7.61851645287231 19.9553571428571  C 7.47722625023243 19.9032738095239  7.36382227179774 19.8158482142858  7.27830451756836 19.6930803571429  C 7.19278676333886 19.5703125  7.15002788622417 19.4345238095239  7.15002788622417 19.2857142857142  L 7.15002788622417 15.390625  L 16.787506971556 3.57142857142856  L 4.86335750139426 13.8950892857142  L 0.457334076965935 12.0870535714286  C 0.182189998140871 11.9828869047619  0.0334634690462963 11.7782738095239  0.0111544896820988 11.4732142857142  C -0.00371816322740415 11.1755952380952  0.115263060048392 10.9561011904761  0.368098159509259 10.8147321428571  L 18.9291689905186 0.100446428571445  C 19.0407138873396 0.0334821428571104  19.1596951106153 0  19.2861126603458 0  Z " fill-rule="nonzero" fill="#000000" stroke="none" transform="matrix(1 0 0 1 847 658 )" />
  </g>
</svg>