<?xml version="1.0" encoding="utf-8"?>
<svg version="1.1" xmlns:xlink="http://www.w3.org/1999/xlink" width="20px" height="20px" xmlns="http://www.w3.org/2000/svg">
  <g transform="matrix(1 0 0 1 -846 -440 )">
    <path d="M 11.5494791666666 5.1171875  C 11.6276041666666 5.1953125  11.6666666666666 5.29513888888891  11.6666666666666 5.41666666666669  L 11.6666666666666 11.25  C 11.6666666666666 11.3715277777778  11.6276041666666 11.4713541666667  11.5494791666666 11.5494791666667  C 11.4713541666666 11.6276041666667  11.3715277777778 11.6666666666667  11.25 11.6666666666667  L 7.08333333333337 11.6666666666667  C 6.96180555555554 11.6666666666667  6.86197916666663 11.6276041666667  6.78385416666663 11.5494791666667  C 6.70572916666663 11.4713541666667  6.66666666666663 11.3715277777778  6.66666666666663 11.25  L 6.66666666666663 10.4166666666667  C 6.66666666666663 10.2951388888889  6.70572916666663 10.1953125  6.78385416666663 10.1171875  C 6.86197916666663 10.0390625  6.96180555555554 10  7.08333333333337 10  L 10 10  L 10 5.41666666666669  C 10 5.29513888888891  10.0390625 5.1953125  10.1171875 5.1171875  C 10.1953125 5.0390625  10.2951388888889 5  10.4166666666666 5  L 11.25 5  C 11.3715277777778 5  11.4713541666666 5.0390625  11.5494791666666 5.1171875  Z M 16.1328125 13.5546875  C 16.7664930555555 12.4696180555555  17.0833333333334 11.2847222222222  17.0833333333334 10  C 17.0833333333334 8.71527777777777  16.7664930555555 7.53038194444446  16.1328125 6.4453125  C 15.4991319444445 5.36024305555554  14.6397569444445 4.50086805555554  13.5546875 3.8671875  C 12.4696180555555 3.23350694444446  11.2847222222222 2.91666666666669  10 2.91666666666669  C 8.71527777777783 2.91666666666669  7.53038194444446 3.23350694444446  6.4453125 3.8671875  C 5.36024305555554 4.50086805555554  4.50086805555554 5.36024305555554  3.8671875 6.4453125  C 3.23350694444446 7.53038194444446  2.91666666666663 8.71527777777777  2.91666666666663 10  C 2.91666666666663 11.2847222222222  3.23350694444446 12.4696180555555  3.8671875 13.5546875  C 4.50086805555554 14.6397569444445  5.36024305555554 15.4991319444445  6.4453125 16.1328125  C 7.53038194444446 16.7664930555555  8.71527777777783 17.0833333333334  10 17.0833333333334  C 11.2847222222222 17.0833333333334  12.4696180555555 16.7664930555555  13.5546875 16.1328125  C 14.6397569444445 15.4991319444445  15.4991319444445 14.6397569444445  16.1328125 13.5546875  Z M 18.6588541666666 4.98046875  C 19.5529513888889 6.51258680555554  20 8.18576388888891  20 10  C 20 11.8142361111111  19.5529513888889 13.4874131944445  18.6588541666666 15.01953125  C 17.7647569444445 16.5516493055555  16.5516493055555 17.7647569444445  15.01953125 18.6588541666666  C 13.4874131944445 19.5529513888889  11.8142361111111 20  10 20  C 8.18576388888891 20  6.51258680555554 19.5529513888889  4.98046875 18.6588541666666  C 3.44835069444446 17.7647569444445  2.23524305555554 16.5516493055555  1.34114583333337 15.01953125  C 0.447048611111086 13.4874131944445  0 11.8142361111111  0 10  C 0 8.18576388888891  0.447048611111086 6.51258680555554  1.34114583333337 4.98046875  C 2.23524305555554 3.44835069444446  3.44835069444446 2.23524305555554  4.98046875 1.34114583333331  C 6.51258680555554 0.447048611111086  8.18576388888891 0  10 0  C 11.8142361111111 0  13.4874131944445 0.447048611111086  15.01953125 1.34114583333331  C 16.5516493055555 2.23524305555554  17.7647569444445 3.44835069444446  18.6588541666666 4.98046875  Z " fill-rule="nonzero" fill="#000000" stroke="none" transform="matrix(1 0 0 1 846 440 )" />
  </g>
</svg>