<?xml version="1.0" encoding="utf-8"?>
<svg version="1.1" xmlns:xlink="http://www.w3.org/1999/xlink" width="12px" height="12px" viewBox="577 441  12 12" xmlns="http://www.w3.org/2000/svg">
  <path d="M 583 441  C 586.36 441  589 443.64  589 447  C 589 450.36  586.36 453  583 453  C 579.64 453  577 450.36  577 447  C 577 443.64  579.64 441  583 441  Z " fill-rule="nonzero" fill="#ffffff" stroke="none" />
  <path d="M 583 441.5  C 586.08 441.5  588.5 443.92  588.5 447  C 588.5 450.08  586.08 452.5  583 452.5  C 579.92 452.5  577.5 450.08  577.5 447  C 577.5 443.92  579.92 441.5  583 441.5  Z " stroke-width="1" stroke="#797979" fill="none" />
  <path d="M 583 450  C 581.32 450  580 448.68  580 447  C 580 445.32  581.32 444  583 444  C 584.68 444  586 445.32  586 447  C 586 448.68  584.68 450  583 450  " fill-rule="nonzero" fill="#797979" stroke="none" />
</svg>