<?xml version="1.0" encoding="utf-8"?>
<svg version="1.1" xmlns:xlink="http://www.w3.org/1999/xlink" width="12px" height="12px" viewBox="577 468  12 12" xmlns="http://www.w3.org/2000/svg">
  <path d="M 583 468  C 586.36 468  589 470.64  589 474  C 589 477.36  586.36 480  583 480  C 579.64 480  577 477.36  577 474  C 577 470.64  579.64 468  583 468  Z " fill-rule="nonzero" fill="#ffffff" stroke="none" />
  <path d="M 583 468.5  C 586.08 468.5  588.5 470.92  588.5 474  C 588.5 477.08  586.08 479.5  583 479.5  C 579.92 479.5  577.5 477.08  577.5 474  C 577.5 470.92  579.92 468.5  583 468.5  Z " stroke-width="1" stroke="#797979" fill="none" />
  <path d="M 583 477  C 581.32 477  580 475.68  580 474  C 580 472.32  581.32 471  583 471  C 584.68 471  586 472.32  586 474  C 586 475.68  584.68 477  583 477  " fill-rule="nonzero" fill="#797979" stroke="none" />
</svg>