<?xml version="1.0" encoding="utf-8"?>
<svg version="1.1" xmlns:xlink="http://www.w3.org/1999/xlink" width="12px" height="12px" viewBox="671 468  12 12" xmlns="http://www.w3.org/2000/svg">
  <path d="M 677 468  C 680.36 468  683 470.64  683 474  C 683 477.36  680.36 480  677 480  C 673.64 480  671 477.36  671 474  C 671 470.64  673.64 468  677 468  Z " fill-rule="nonzero" fill="#ffffff" stroke="none" />
  <path d="M 677 468.5  C 680.08 468.5  682.5 470.92  682.5 474  C 682.5 477.08  680.08 479.5  677 479.5  C 673.92 479.5  671.5 477.08  671.5 474  C 671.5 470.92  673.92 468.5  677 468.5  Z " stroke-width="1" stroke="#797979" fill="none" />
  <path d="M 677 477  C 675.32 477  674 475.68  674 474  C 674 472.32  675.32 471  677 471  C 678.68 471  680 472.32  680 474  C 680 475.68  678.68 477  677 477  " fill-rule="nonzero" fill="#797979" stroke="none" />
</svg>