<?xml version="1.0" encoding="utf-8"?>
<svg version="1.1" xmlns:xlink="http://www.w3.org/1999/xlink" width="12px" height="12px" viewBox="953 426  12 12" xmlns="http://www.w3.org/2000/svg">
  <path d="M 959 426  C 962.36 426  965 428.64  965 432  C 965 435.36  962.36 438  959 438  C 955.64 438  953 435.36  953 432  C 953 428.64  955.64 426  959 426  Z " fill-rule="nonzero" fill="#ffffff" stroke="none" />
  <path d="M 959 426.5  C 962.08 426.5  964.5 428.92  964.5 432  C 964.5 435.08  962.08 437.5  959 437.5  C 955.92 437.5  953.5 435.08  953.5 432  C 953.5 428.92  955.92 426.5  959 426.5  Z " stroke-width="1" stroke="#797979" fill="none" />
  <path d="M 959 435  C 957.32 435  956 433.68  956 432  C 956 430.32  957.32 429  959 429  C 960.68 429  962 430.32  962 432  C 962 433.68  960.68 435  959 435  " fill-rule="nonzero" fill="#797979" stroke="none" />
</svg>