<?xml version="1.0" encoding="utf-8"?>
<svg version="1.1" xmlns:xlink="http://www.w3.org/1999/xlink" width="12px" height="12px" viewBox="612 426  12 12" xmlns="http://www.w3.org/2000/svg">
  <path d="M 618 426  C 621.36 426  624 428.64  624 432  C 624 435.36  621.36 438  618 438  C 614.64 438  612 435.36  612 432  C 612 428.64  614.64 426  618 426  Z " fill-rule="nonzero" fill="#f0f0f0" stroke="none" />
  <path d="M 618 426.5  C 621.08 426.5  623.5 428.92  623.5 432  C 623.5 435.08  621.08 437.5  618 437.5  C 614.92 437.5  612.5 435.08  612.5 432  C 612.5 428.92  614.92 426.5  618 426.5  Z " stroke-width="1" stroke="#797979" fill="none" />
  <path d="M 618 435  C 616.32 435  615 433.68  615 432  C 615 430.32  616.32 429  618 429  C 619.68 429  621 430.32  621 432  C 621 433.68  619.68 435  618 435  " fill-rule="nonzero" fill="#797979" stroke="none" />
</svg>