<?xml version="1.0" encoding="utf-8"?>
<svg version="1.1" xmlns:xlink="http://www.w3.org/1999/xlink" width="12px" height="12px" viewBox="612 545  12 12" xmlns="http://www.w3.org/2000/svg">
  <path d="M 618 545  C 621.36 545  624 547.64  624 551  C 624 554.36  621.36 557  618 557  C 614.64 557  612 554.36  612 551  C 612 547.64  614.64 545  618 545  Z " fill-rule="nonzero" fill="#ffffff" stroke="none" />
  <path d="M 618 545.5  C 621.08 545.5  623.5 547.92  623.5 551  C 623.5 554.08  621.08 556.5  618 556.5  C 614.92 556.5  612.5 554.08  612.5 551  C 612.5 547.92  614.92 545.5  618 545.5  Z " stroke-width="1" stroke="#797979" fill="none" />
  <path d="M 618 554  C 616.32 554  615 552.68  615 551  C 615 549.32  616.32 548  618 548  C 619.68 548  621 549.32  621 551  C 621 552.68  619.68 554  618 554  " fill-rule="nonzero" fill="#797979" stroke="none" />
</svg>