<?xml version="1.0" encoding="utf-8"?>
<svg version="1.1" xmlns:xlink="http://www.w3.org/1999/xlink" width="12px" height="12px" viewBox="717 545  12 12" xmlns="http://www.w3.org/2000/svg">
  <path d="M 723 545  C 726.36 545  729 547.64  729 551  C 729 554.36  726.36 557  723 557  C 719.64 557  717 554.36  717 551  C 717 547.64  719.64 545  723 545  Z " fill-rule="nonzero" fill="#f0f0f0" stroke="none" />
  <path d="M 723 545.5  C 726.08 545.5  728.5 547.92  728.5 551  C 728.5 554.08  726.08 556.5  723 556.5  C 719.92 556.5  717.5 554.08  717.5 551  C 717.5 547.92  719.92 545.5  723 545.5  Z " stroke-width="1" stroke="#797979" fill="none" />
  <path d="M 723 554  C 721.32 554  720 552.68  720 551  C 720 549.32  721.32 548  723 548  C 724.68 548  726 549.32  726 551  C 726 552.68  724.68 554  723 554  " fill-rule="nonzero" fill="#797979" stroke="none" />
</svg>