<?xml version="1.0" encoding="utf-8"?>
<svg version="1.1" xmlns:xlink="http://www.w3.org/1999/xlink" width="80px" height="80px" xmlns="http://www.w3.org/2000/svg">
  <g transform="matrix(1 0 0 1 -145 -411 )">
    <path d="M 185 411  C 207.4 411  225 428.6  225 451  C 225 473.4  207.4 491  185 491  C 162.6 491  145 473.4  145 451  C 145 428.6  162.6 411  185 411  Z " fill-rule="nonzero" fill="#aaaaaa" stroke="none" />
    <path d="M 185 411.5  C 207.12 411.5  224.5 428.88  224.5 451  C 224.5 473.12  207.12 490.5  185 490.5  C 162.88 490.5  145.5 473.12  145.5 451  C 145.5 428.88  162.88 411.5  185 411.5  Z " stroke-width="1" stroke="#797979" fill="none" />
  </g>
</svg>