<?xml version="1.0" encoding="utf-8"?>
<svg version="1.1" xmlns:xlink="http://www.w3.org/1999/xlink" width="250px" height="250px" xmlns="http://www.w3.org/2000/svg">
  <g transform="matrix(1 0 0 1 -1264 -378 )">
    <path d="M 1389 378  C 1459 378  1514 433  1514 503  C 1514 573  1459 628  1389 628  C 1319 628  1264 573  1264 503  C 1264 433  1319 378  1389 378  Z " fill-rule="nonzero" fill="#ffffff" stroke="none" />
    <path d="M 1389 378.5  C 1458.72 378.5  1513.5 433.28  1513.5 503  C 1513.5 572.72  1458.72 627.5  1389 627.5  C 1319.28 627.5  1264.5 572.72  1264.5 503  C 1264.5 433.28  1319.28 378.5  1389 378.5  Z " stroke-width="1" stroke="#797979" fill="none" />
  </g>
</svg>