<?xml version="1.0" encoding="utf-8"?>
<svg version="1.1" xmlns:xlink="http://www.w3.org/1999/xlink" width="66px" height="66px" xmlns="http://www.w3.org/2000/svg">
  <g transform="matrix(1 0 0 1 -120 -321 )">
    <path d="M 153 321  C 171.48 321  186 335.52  186 354  C 186 372.48  171.48 387  153 387  C 134.52 387  120 372.48  120 354  C 120 335.52  134.52 321  153 321  Z " fill-rule="nonzero" fill="#ffffff" stroke="none" />
    <path d="M 153 321.5  C 171.2 321.5  185.5 335.8  185.5 354  C 185.5 372.2  171.2 386.5  153 386.5  C 134.8 386.5  120.5 372.2  120.5 354  C 120.5 335.8  134.8 321.5  153 321.5  Z " stroke-width="1" stroke="#797979" fill="none" />
  </g>
</svg>