<?xml version="1.0" encoding="utf-8"?>
<svg version="1.1" xmlns:xlink="http://www.w3.org/1999/xlink" width="250px" height="250px" xmlns="http://www.w3.org/2000/svg">
  <g transform="matrix(1 0 0 1 -29 -228 )">
    <path d="M 154 228  C 224 228  279 283  279 353  C 279 423  224 478  154 478  C 84 478  29 423  29 353  C 29 283  84 228  154 228  Z " fill-rule="nonzero" fill="#ffffff" stroke="none" />
    <path d="M 154 228.5  C 223.72 228.5  278.5 283.28  278.5 353  C 278.5 422.72  223.72 477.5  154 477.5  C 84.28 477.5  29.5 422.72  29.5 353  C 29.5 283.28  84.28 228.5  154 228.5  Z " stroke-width="1" stroke="#797979" fill="none" />
  </g>
</svg>