<?xml version="1.0" encoding="utf-8"?>
<svg version="1.1" xmlns:xlink="http://www.w3.org/1999/xlink" width="66px" height="66px" xmlns="http://www.w3.org/2000/svg">
  <g transform="matrix(1 0 0 1 -945 -346 )">
    <path d="M 978 346  C 996.48 346  1011 360.52  1011 379  C 1011 397.48  996.48 412  978 412  C 959.52 412  945 397.48  945 379  C 945 360.52  959.52 346  978 346  Z " fill-rule="nonzero" fill="#ffffff" stroke="none" />
    <path d="M 978 346.5  C 996.2 346.5  1010.5 360.8  1010.5 379  C 1010.5 397.2  996.2 411.5  978 411.5  C 959.8 411.5  945.5 397.2  945.5 379  C 945.5 360.8  959.8 346.5  978 346.5  Z " stroke-width="1" stroke="#797979" fill="none" />
  </g>
</svg>