<?xml version="1.0" encoding="utf-8"?>
<svg version="1.1" xmlns:xlink="http://www.w3.org/1999/xlink" width="250px" height="250px" xmlns="http://www.w3.org/2000/svg">
  <g transform="matrix(1 0 0 1 -854 -253 )">
    <path d="M 979 253  C 1049 253  1104 308  1104 378  C 1104 448  1049 503  979 503  C 909 503  854 448  854 378  C 854 308  909 253  979 253  Z " fill-rule="nonzero" fill="#ffffff" stroke="none" />
    <path d="M 979 253.5  C 1048.72 253.5  1103.5 308.28  1103.5 378  C 1103.5 447.72  1048.72 502.5  979 502.5  C 909.28 502.5  854.5 447.72  854.5 378  C 854.5 308.28  909.28 253.5  979 253.5  Z " stroke-width="1" stroke="#797979" fill="none" />
  </g>
</svg>