<?xml version="1.0" encoding="utf-8"?>
<svg version="1.1" xmlns:xlink="http://www.w3.org/1999/xlink" width="66px" height="66px" xmlns="http://www.w3.org/2000/svg">
  <g transform="matrix(1 0 0 1 -1355 -471 )">
    <path d="M 1388 471  C 1406.48 471  1421 485.52  1421 504  C 1421 522.48  1406.48 537  1388 537  C 1369.52 537  1355 522.48  1355 504  C 1355 485.52  1369.52 471  1388 471  Z " fill-rule="nonzero" fill="#ffffff" stroke="none" />
    <path d="M 1388 471.5  C 1406.2 471.5  1420.5 485.8  1420.5 504  C 1420.5 522.2  1406.2 536.5  1388 536.5  C 1369.8 536.5  1355.5 522.2  1355.5 504  C 1355.5 485.8  1369.8 471.5  1388 471.5  Z " stroke-width="1" stroke="#797979" fill="none" />
  </g>
</svg>