<?xml version="1.0" encoding="utf-8"?>
<svg version="1.1" xmlns:xlink="http://www.w3.org/1999/xlink" width="250px" height="250px" xmlns="http://www.w3.org/2000/svg">
  <g transform="matrix(1 0 0 1 -1706 -378 )">
    <path d="M 1831 378  C 1901 378  1956 433  1956 503  C 1956 573  1901 628  1831 628  C 1761 628  1706 573  1706 503  C 1706 433  1761 378  1831 378  Z " fill-rule="nonzero" fill="#ffffff" stroke="none" />
    <path d="M 1831 378.5  C 1900.72 378.5  1955.5 433.28  1955.5 503  C 1955.5 572.72  1900.72 627.5  1831 627.5  C 1761.28 627.5  1706.5 572.72  1706.5 503  C 1706.5 433.28  1761.28 378.5  1831 378.5  Z " stroke-width="1" stroke="#797979" fill="none" />
  </g>
</svg>