<?xml version="1.0" encoding="utf-8"?>
<svg version="1.1" xmlns:xlink="http://www.w3.org/1999/xlink" width="66px" height="66px" xmlns="http://www.w3.org/2000/svg">
  <g transform="matrix(1 0 0 1 -1797 -471 )">
    <path d="M 1830 471  C 1848.48 471  1863 485.52  1863 504  C 1863 522.48  1848.48 537  1830 537  C 1811.52 537  1797 522.48  1797 504  C 1797 485.52  1811.52 471  1830 471  Z " fill-rule="nonzero" fill="#ffffff" stroke="none" />
    <path d="M 1830 471.5  C 1848.2 471.5  1862.5 485.8  1862.5 504  C 1862.5 522.2  1848.2 536.5  1830 536.5  C 1811.8 536.5  1797.5 522.2  1797.5 504  C 1797.5 485.8  1811.8 471.5  1830 471.5  Z " stroke-width="1" stroke="#797979" fill="none" />
  </g>
</svg>