<?xml version="1.0" encoding="utf-8"?>
<svg version="1.1" xmlns:xlink="http://www.w3.org/1999/xlink" width="12px" height="12px" viewBox="582 428  12 12" xmlns="http://www.w3.org/2000/svg">
  <path d="M 588 428  C 591.36 428  594 430.64  594 434  C 594 437.36  591.36 440  588 440  C 584.64 440  582 437.36  582 434  C 582 430.64  584.64 428  588 428  Z " fill-rule="nonzero" fill="#f0f0f0" stroke="none" />
  <path d="M 588 428.5  C 591.08 428.5  593.5 430.92  593.5 434  C 593.5 437.08  591.08 439.5  588 439.5  C 584.92 439.5  582.5 437.08  582.5 434  C 582.5 430.92  584.92 428.5  588 428.5  Z " stroke-width="1" stroke="#797979" fill="none" />
  <path d="M 588 437  C 586.32 437  585 435.68  585 434  C 585 432.32  586.32 431  588 431  C 589.68 431  591 432.32  591 434  C 591 435.68  589.68 437  588 437  " fill-rule="nonzero" fill="#797979" stroke="none" />
</svg>