<?xml version="1.0" encoding="utf-8"?>
<svg version="1.1" xmlns:xlink="http://www.w3.org/1999/xlink" width="12px" height="12px" viewBox="715 477  12 12" xmlns="http://www.w3.org/2000/svg">
  <path d="M 721 477  C 724.36 477  727 479.64  727 483  C 727 486.36  724.36 489  721 489  C 717.64 489  715 486.36  715 483  C 715 479.64  717.64 477  721 477  Z " fill-rule="nonzero" fill="#ffffff" stroke="none" />
  <path d="M 721 477.5  C 724.08 477.5  726.5 479.92  726.5 483  C 726.5 486.08  724.08 488.5  721 488.5  C 717.92 488.5  715.5 486.08  715.5 483  C 715.5 479.92  717.92 477.5  721 477.5  Z " stroke-width="1" stroke="#797979" fill="none" />
  <path d="M 721 486  C 719.32 486  718 484.68  718 483  C 718 481.32  719.32 480  721 480  C 722.68 480  724 481.32  724 483  C 724 484.68  722.68 486  721 486  " fill-rule="nonzero" fill="#797979" stroke="none" />
</svg>