<?xml version="1.0" encoding="utf-8"?>
<svg version="1.1" xmlns:xlink="http://www.w3.org/1999/xlink" width="12px" height="12px" viewBox="715 427  12 12" xmlns="http://www.w3.org/2000/svg">
  <path d="M 721 427  C 724.36 427  727 429.64  727 433  C 727 436.36  724.36 439  721 439  C 717.64 439  715 436.36  715 433  C 715 429.64  717.64 427  721 427  Z " fill-rule="nonzero" fill="#f0f0f0" stroke="none" />
  <path d="M 721 427.5  C 724.08 427.5  726.5 429.92  726.5 433  C 726.5 436.08  724.08 438.5  721 438.5  C 717.92 438.5  715.5 436.08  715.5 433  C 715.5 429.92  717.92 427.5  721 427.5  Z " stroke-width="1" stroke="#797979" fill="none" />
  <path d="M 721 436  C 719.32 436  718 434.68  718 433  C 718 431.32  719.32 430  721 430  C 722.68 430  724 431.32  724 433  C 724 434.68  722.68 436  721 436  " fill-rule="nonzero" fill="#797979" stroke="none" />
</svg>