<?xml version="1.0" encoding="utf-8"?>
<svg version="1.1" xmlns:xlink="http://www.w3.org/1999/xlink" width="12px" height="12px" viewBox="582 455  12 12" xmlns="http://www.w3.org/2000/svg">
  <path d="M 588 455  C 591.36 455  594 457.64  594 461  C 594 464.36  591.36 467  588 467  C 584.64 467  582 464.36  582 461  C 582 457.64  584.64 455  588 455  Z " fill-rule="nonzero" fill="#ffffff" stroke="none" />
  <path d="M 588 455.5  C 591.08 455.5  593.5 457.92  593.5 461  C 593.5 464.08  591.08 466.5  588 466.5  C 584.92 466.5  582.5 464.08  582.5 461  C 582.5 457.92  584.92 455.5  588 455.5  Z " stroke-width="1" stroke="#797979" fill="none" />
  <path d="M 588 464  C 586.32 464  585 462.68  585 461  C 585 459.32  586.32 458  588 458  C 589.68 458  591 459.32  591 461  C 591 462.68  589.68 464  588 464  " fill-rule="nonzero" fill="#797979" stroke="none" />
</svg>