<?xml version="1.0" encoding="utf-8"?>
<svg version="1.1" xmlns:xlink="http://www.w3.org/1999/xlink" width="12px" height="12px" viewBox="794 453  12 12" xmlns="http://www.w3.org/2000/svg">
  <path d="M 800 453  C 803.36 453  806 455.64  806 459  C 806 462.36  803.36 465  800 465  C 796.64 465  794 462.36  794 459  C 794 455.64  796.64 453  800 453  Z " fill-rule="nonzero" fill="#ffffff" stroke="none" />
  <path d="M 800 453.5  C 803.08 453.5  805.5 455.92  805.5 459  C 805.5 462.08  803.08 464.5  800 464.5  C 796.92 464.5  794.5 462.08  794.5 459  C 794.5 455.92  796.92 453.5  800 453.5  Z " stroke-width="1" stroke="#797979" fill="none" />
  <path d="M 800 462  C 798.32 462  797 460.68  797 459  C 797 457.32  798.32 456  800 456  C 801.68 456  803 457.32  803 459  C 803 460.68  801.68 462  800 462  " fill-rule="nonzero" fill="#797979" stroke="none" />
</svg>