<?xml version="1.0" encoding="utf-8"?>
<svg version="1.1" xmlns:xlink="http://www.w3.org/1999/xlink" width="12px" height="12px" viewBox="924 428  12 12" xmlns="http://www.w3.org/2000/svg">
  <path d="M 930 428  C 933.36 428  936 430.64  936 434  C 936 437.36  933.36 440  930 440  C 926.64 440  924 437.36  924 434  C 924 430.64  926.64 428  930 428  Z " fill-rule="nonzero" fill="#ffffff" stroke="none" />
  <path d="M 930 428.5  C 933.08 428.5  935.5 430.92  935.5 434  C 935.5 437.08  933.08 439.5  930 439.5  C 926.92 439.5  924.5 437.08  924.5 434  C 924.5 430.92  926.92 428.5  930 428.5  Z " stroke-width="1" stroke="#797979" fill="none" />
  <path d="M 930 437  C 928.32 437  927 435.68  927 434  C 927 432.32  928.32 431  930 431  C 931.68 431  933 432.32  933 434  C 933 435.68  931.68 437  930 437  " fill-rule="nonzero" fill="#797979" stroke="none" />
</svg>