<?xml version="1.0" encoding="utf-8"?>
<svg version="1.1" xmlns:xlink="http://www.w3.org/1999/xlink" width="12px" height="12px" viewBox="584 652  12 12" xmlns="http://www.w3.org/2000/svg">
  <path d="M 590 652  C 593.36 652  596 654.64  596 658  C 596 661.36  593.36 664  590 664  C 586.64 664  584 661.36  584 658  C 584 654.64  586.64 652  590 652  Z " fill-rule="nonzero" fill="#f0f0f0" stroke="none" />
  <path d="M 590 652.5  C 593.08 652.5  595.5 654.92  595.5 658  C 595.5 661.08  593.08 663.5  590 663.5  C 586.92 663.5  584.5 661.08  584.5 658  C 584.5 654.92  586.92 652.5  590 652.5  Z " stroke-width="1" stroke="#797979" fill="none" />
  <path d="M 590 661  C 588.32 661  587 659.68  587 658  C 587 656.32  588.32 655  590 655  C 591.68 655  593 656.32  593 658  C 593 659.68  591.68 661  590 661  " fill-rule="nonzero" fill="#797979" stroke="none" />
</svg>