<?xml version="1.0" encoding="utf-8"?>
<svg version="1.1" xmlns:xlink="http://www.w3.org/1999/xlink" width="12px" height="12px" viewBox="681 652  12 12" xmlns="http://www.w3.org/2000/svg">
  <path d="M 687 652  C 690.36 652  693 654.64  693 658  C 693 661.36  690.36 664  687 664  C 683.64 664  681 661.36  681 658  C 681 654.64  683.64 652  687 652  Z " fill-rule="nonzero" fill="#ffffff" stroke="none" />
  <path d="M 687 652.5  C 690.08 652.5  692.5 654.92  692.5 658  C 692.5 661.08  690.08 663.5  687 663.5  C 683.92 663.5  681.5 661.08  681.5 658  C 681.5 654.92  683.92 652.5  687 652.5  Z " stroke-width="1" stroke="#797979" fill="none" />
  <path d="M 687 661  C 685.32 661  684 659.68  684 658  C 684 656.32  685.32 655  687 655  C 688.68 655  690 656.32  690 658  C 690 659.68  688.68 661  687 661  " fill-rule="nonzero" fill="#797979" stroke="none" />
</svg>