<?xml version="1.0" encoding="utf-8"?>
<svg version="1.1" xmlns:xlink="http://www.w3.org/1999/xlink" width="12px" height="12px" viewBox="584 681  12 12" xmlns="http://www.w3.org/2000/svg">
  <path d="M 590 681  C 593.36 681  596 683.64  596 687  C 596 690.36  593.36 693  590 693  C 586.64 693  584 690.36  584 687  C 584 683.64  586.64 681  590 681  Z " fill-rule="nonzero" fill="#ffffff" stroke="none" />
  <path d="M 590 681.5  C 593.08 681.5  595.5 683.92  595.5 687  C 595.5 690.08  593.08 692.5  590 692.5  C 586.92 692.5  584.5 690.08  584.5 687  C 584.5 683.92  586.92 681.5  590 681.5  Z " stroke-width="1" stroke="#797979" fill="none" />
  <path d="M 590 690  C 588.32 690  587 688.68  587 687  C 587 685.32  588.32 684  590 684  C 591.68 684  593 685.32  593 687  C 593 688.68  591.68 690  590 690  " fill-rule="nonzero" fill="#797979" stroke="none" />
</svg>