<?xml version="1.0" encoding="utf-8"?>
<svg version="1.1" xmlns:xlink="http://www.w3.org/1999/xlink" width="12px" height="12px" viewBox="580 534  12 12" xmlns="http://www.w3.org/2000/svg">
  <path d="M 586 534  C 589.36 534  592 536.64  592 540  C 592 543.36  589.36 546  586 546  C 582.64 546  580 543.36  580 540  C 580 536.64  582.64 534  586 534  Z " fill-rule="nonzero" fill="#f0f0f0" stroke="none" />
  <path d="M 586 534.5  C 589.08 534.5  591.5 536.92  591.5 540  C 591.5 543.08  589.08 545.5  586 545.5  C 582.92 545.5  580.5 543.08  580.5 540  C 580.5 536.92  582.92 534.5  586 534.5  Z " stroke-width="1" stroke="#797979" fill="none" />
  <path d="M 586 543  C 584.32 543  583 541.68  583 540  C 583 538.32  584.32 537  586 537  C 587.68 537  589 538.32  589 540  C 589 541.68  587.68 543  586 543  " fill-rule="nonzero" fill="#797979" stroke="none" />
</svg>