<?xml version="1.0" encoding="utf-8"?>
<svg version="1.1" xmlns:xlink="http://www.w3.org/1999/xlink" width="12px" height="12px" viewBox="677 534  12 12" xmlns="http://www.w3.org/2000/svg">
  <path d="M 683 534  C 686.36 534  689 536.64  689 540  C 689 543.36  686.36 546  683 546  C 679.64 546  677 543.36  677 540  C 677 536.64  679.64 534  683 534  Z " fill-rule="nonzero" fill="#ffffff" stroke="none" />
  <path d="M 683 534.5  C 686.08 534.5  688.5 536.92  688.5 540  C 688.5 543.08  686.08 545.5  683 545.5  C 679.92 545.5  677.5 543.08  677.5 540  C 677.5 536.92  679.92 534.5  683 534.5  Z " stroke-width="1" stroke="#797979" fill="none" />
  <path d="M 683 543  C 681.32 543  680 541.68  680 540  C 680 538.32  681.32 537  683 537  C 684.68 537  686 538.32  686 540  C 686 541.68  684.68 543  683 543  " fill-rule="nonzero" fill="#797979" stroke="none" />
</svg>