<?xml version="1.0" encoding="utf-8"?>
<svg version="1.1" xmlns:xlink="http://www.w3.org/1999/xlink" width="12px" height="12px" viewBox="677 563  12 12" xmlns="http://www.w3.org/2000/svg">
  <path d="M 683 563  C 686.36 563  689 565.64  689 569  C 689 572.36  686.36 575  683 575  C 679.64 575  677 572.36  677 569  C 677 565.64  679.64 563  683 563  Z " fill-rule="nonzero" fill="#f0f0f0" stroke="none" />
  <path d="M 683 563.5  C 686.08 563.5  688.5 565.92  688.5 569  C 688.5 572.08  686.08 574.5  683 574.5  C 679.92 574.5  677.5 572.08  677.5 569  C 677.5 565.92  679.92 563.5  683 563.5  Z " stroke-width="1" stroke="#797979" fill="none" />
  <path d="M 683 572  C 681.32 572  680 570.68  680 569  C 680 567.32  681.32 566  683 566  C 684.68 566  686 567.32  686 569  C 686 570.68  684.68 572  683 572  " fill-rule="nonzero" fill="#797979" stroke="none" />
</svg>