<?xml version="1.0" encoding="utf-8"?>
<svg version="1.1" xmlns:xlink="http://www.w3.org/1999/xlink" width="32px" height="32px" xmlns="http://www.w3.org/2000/svg">
  <g transform="matrix(1 0 0 1 -1096 -217 )">
    <path d="M 1112 217.5  C 1120.68 217.5  1127.5 224.32  1127.5 233  C 1127.5 241.68  1120.68 248.5  1112 248.5  C 1103.32 248.5  1096.5 241.68  1096.5 233  C 1096.5 224.32  1103.32 217.5  1112 217.5  Z " fill-rule="nonzero" fill="#ffffff" stroke="none" fill-opacity="0" />
    <path d="M 1112 217.5  C 1120.68 217.5  1127.5 224.32  1127.5 233  C 1127.5 241.68  1120.68 248.5  1112 248.5  C 1103.32 248.5  1096.5 241.68  1096.5 233  C 1096.5 224.32  1103.32 217.5  1112 217.5  Z " stroke-width="1" stroke="#000000" fill="none" stroke-opacity="0.149019607843137" />
  </g>
</svg>