<?xml version="1.0" encoding="utf-8"?>
<svg version="1.1" xmlns:xlink="http://www.w3.org/1999/xlink" width="12px" height="12px" viewBox="681 681  12 12" xmlns="http://www.w3.org/2000/svg">
  <path d="M 687 681  C 690.36 681  693 683.64  693 687  C 693 690.36  690.36 693  687 693  C 683.64 693  681 690.36  681 687  C 681 683.64  683.64 681  687 681  Z " fill-rule="nonzero" fill="#f0f0f0" stroke="none" />
  <path d="M 687 681.5  C 690.08 681.5  692.5 683.92  692.5 687  C 692.5 690.08  690.08 692.5  687 692.5  C 683.92 692.5  681.5 690.08  681.5 687  C 681.5 683.92  683.92 681.5  687 681.5  Z " stroke-width="1" stroke="#797979" fill="none" />
  <path d="M 687 690  C 685.32 690  684 688.68  684 687  C 684 685.32  685.32 684  687 684  C 688.68 684  690 685.32  690 687  C 690 688.68  688.68 690  687 690  " fill-rule="nonzero" fill="#797979" stroke="none" />
</svg>