<?xml version="1.0" encoding="utf-8"?>
<svg version="1.1" xmlns:xlink="http://www.w3.org/1999/xlink" width="21px" height="23px" xmlns="http://www.w3.org/2000/svg">
  <g transform="matrix(1 0 0 1 -1150 -303 )">
    <path d="M 1.59230769230749 17.6607142857143  L 1.59230769230749 21.3571428571429  L 5.17499999999995 21.3571428571429  L 5.17499999999995 17.6607142857143  L 1.59230769230749 17.6607142857143  Z M 5.97115384615381 17.6607142857143  L 5.97115384615381 21.3571428571429  L 9.95192307692309 21.3571428571429  L 9.95192307692309 17.6607142857143  L 5.97115384615381 17.6607142857143  Z M 1.59230769230749 12.7321428571429  L 1.59230769230749 16.8392857142857  L 5.17499999999995 16.8392857142857  L 5.17499999999995 12.7321428571429  L 1.59230769230749 12.7321428571429  Z M 5.97115384615381 12.7321428571429  L 5.97115384615381 16.8392857142857  L 9.95192307692309 16.8392857142857  L 9.95192307692309 12.7321428571429  L 5.97115384615381 12.7321428571429  Z M 1.59230769230749 8.21428571428567  L 1.59230769230749 11.9107142857143  L 5.17499999999995 11.9107142857143  L 5.17499999999995 8.21428571428567  L 1.59230769230749 8.21428571428567  Z M 10.748076923077 17.6607142857143  L 10.748076923077 21.3571428571429  L 14.7288461538462 21.3571428571429  L 14.7288461538462 17.6607142857143  L 10.748076923077 17.6607142857143  Z M 5.97115384615381 8.21428571428567  L 5.97115384615381 11.9107142857143  L 9.95192307692309 11.9107142857143  L 9.95192307692309 8.21428571428567  L 5.97115384615381 8.21428571428567  Z M 15.5249999999999 17.6607142857143  L 15.5249999999999 21.3571428571429  L 19.1076923076921 21.3571428571429  L 19.1076923076921 17.6607142857143  L 15.5249999999999 17.6607142857143  Z M 10.748076923077 12.7321428571429  L 10.748076923077 16.8392857142857  L 14.7288461538462 16.8392857142857  L 14.7288461538462 12.7321428571429  L 10.748076923077 12.7321428571429  Z M 6.25105168269238 6.03878348214289  C 6.32983774038462 5.95749627976187  6.36923076923085 5.86123511904759  6.36923076923085 5.75  L 6.36923076923085 2.05357142857144  C 6.36923076923085 1.9423363095238  6.32983774038462 1.84607514880958  6.25105168269238 1.76478794642856  C 6.17226562499991 1.68350074404759  6.07896634615395 1.64285714285711  5.97115384615381 1.64285714285711  L 5.17499999999995 1.64285714285711  C 5.06718749999982 1.64285714285711  4.97388822115386 1.68350074404759  4.89510216346162 1.76478794642856  C 4.81631610576937 1.84607514880958  4.77692307692291 1.9423363095238  4.77692307692291 2.05357142857144  L 4.77692307692291 5.75  C 4.77692307692291 5.86123511904759  4.81631610576937 5.95749627976187  4.89510216346162 6.03878348214289  C 4.97388822115386 6.1200706845238  5.06718749999982 6.16071428571433  5.17499999999995 6.16071428571433  L 5.97115384615381 6.16071428571433  C 6.07896634615395 6.16071428571433  6.17226562499991 6.1200706845238  6.25105168269238 6.03878348214289  Z M 15.5249999999999 12.7321428571429  L 15.5249999999999 16.8392857142857  L 19.1076923076921 16.8392857142857  L 19.1076923076921 12.7321428571429  L 15.5249999999999 12.7321428571429  Z M 10.748076923077 8.21428571428567  L 10.748076923077 11.9107142857143  L 14.7288461538462 11.9107142857143  L 14.7288461538462 8.21428571428567  L 10.748076923077 8.21428571428567  Z M 15.5249999999999 8.21428571428567  L 15.5249999999999 11.9107142857143  L 19.1076923076921 11.9107142857143  L 19.1076923076921 8.21428571428567  L 15.5249999999999 8.21428571428567  Z M 15.8048978365384 6.03878348214289  C 15.8836838942307 5.95749627976187  15.9230769230769 5.86123511904759  15.9230769230769 5.75  L 15.9230769230769 2.05357142857144  C 15.9230769230769 1.9423363095238  15.8836838942307 1.84607514880958  15.8048978365384 1.76478794642856  C 15.7261117788462 1.68350074404759  15.6328125 1.64285714285711  15.5249999999999 1.64285714285711  L 14.7288461538462 1.64285714285711  C 14.6210336538461 1.64285714285711  14.5277343749999 1.68350074404759  14.4489483173077 1.76478794642856  C 14.3701622596154 1.84607514880958  14.3307692307692 1.9423363095238  14.3307692307692 2.05357142857144  L 14.3307692307692 5.75  C 14.3307692307692 5.86123511904759  14.3701622596154 5.95749627976187  14.4489483173077 6.03878348214289  C 14.5277343749999 6.1200706845238  14.6210336538461 6.16071428571433  14.7288461538462 6.16071428571433  L 15.5249999999999 6.16071428571433  C 15.6328125 6.16071428571433  15.7261117788462 6.1200706845238  15.8048978365384 6.03878348214289  Z M 20.2272836538459 3.7734375  C 20.5424278846153 4.0985863095238  20.6999999999998 4.48363095238096  20.6999999999998 4.92857142857144  L 20.6999999999998 21.3571428571429  C 20.6999999999998 21.8020833333333  20.5424278846153 22.1871279761905  20.2272836538459 22.5122767857143  C 19.9121394230767 22.8374255952381  19.5389423076922 23  19.1076923076921 23  L 1.59230769230749 23  C 1.16105769230762 23  0.787860576923094 22.8374255952381  0.472716346153902 22.5122767857143  C 0.157572115384482 22.1871279761905  0 21.8020833333333  0 21.3571428571429  L 0 4.92857142857144  C 0 4.48363095238096  0.157572115384482 4.0985863095238  0.472716346153902 3.7734375  C 0.787860576923094 3.4482886904762  1.16105769230762 3.28571428571433  1.59230769230749 3.28571428571433  L 3.1846153846152 3.28571428571433  L 3.1846153846152 2.05357142857144  C 3.1846153846152 1.48883928571428  3.37950721153834 1.00539434523813  3.76929086538462 0.60323660714289  C 4.15907451923067 0.201078869047649  4.62764423076919 0  5.17499999999995 0  L 5.97115384615381 0  C 6.5185096153848 0  6.98707932692309 0.201078869047649  7.37686298076915 0.60323660714289  C 7.76664663461543 1.00539434523813  7.96153846153834 1.48883928571428  7.96153846153834 2.05357142857144  L 7.96153846153834 3.28571428571433  L 12.7384615384615 3.28571428571433  L 12.7384615384615 2.05357142857144  C 12.7384615384615 1.48883928571428  12.9333533653846 1.00539434523813  13.3231370192307 0.60323660714289  C 13.712920673077 0.201078869047649  14.1814903846152 0  14.7288461538462 0  L 15.5249999999999 0  C 16.0723557692306 0  16.5409254807691 0.201078869047649  16.9307091346152 0.60323660714289  C 17.3204927884615 1.00539434523813  17.5153846153844 1.48883928571428  17.5153846153844 2.05357142857144  L 17.5153846153844 3.28571428571433  L 19.1076923076921 3.28571428571433  C 19.5389423076922 3.28571428571433  19.9121394230767 3.4482886904762  20.2272836538459 3.7734375  Z " fill-rule="nonzero" fill="#666666" stroke="none" transform="matrix(1 0 0 1 1150 303 )" />
  </g>
</svg>