<?xml version="1.0" encoding="utf-8"?>
<svg version="1.1" xmlns:xlink="http://www.w3.org/1999/xlink" width="12px" height="12px" viewBox="706 404  12 12" xmlns="http://www.w3.org/2000/svg">
  <path d="M 712 404  C 715.36 404  718 406.64  718 410  C 718 413.36  715.36 416  712 416  C 708.64 416  706 413.36  706 410  C 706 406.64  708.64 404  712 404  Z " fill-rule="nonzero" fill="#f0f0f0" stroke="none" />
  <path d="M 712 404.5  C 715.08 404.5  717.5 406.92  717.5 410  C 717.5 413.08  715.08 415.5  712 415.5  C 708.92 415.5  706.5 413.08  706.5 410  C 706.5 406.92  708.92 404.5  712 404.5  Z " stroke-width="1" stroke="#797979" fill="none" />
  <path d="M 712 413  C 710.32 413  709 411.68  709 410  C 709 408.32  710.32 407  712 407  C 713.68 407  715 408.32  715 410  C 715 411.68  713.68 413  712 413  " fill-rule="nonzero" fill="#797979" stroke="none" />
</svg>