<?xml version="1.0" encoding="utf-8"?>
<svg version="1.1" xmlns:xlink="http://www.w3.org/1999/xlink" width="12px" height="12px" viewBox="708 437  12 12" xmlns="http://www.w3.org/2000/svg">
  <path d="M 714 437  C 717.36 437  720 439.64  720 443  C 720 446.36  717.36 449  714 449  C 710.64 449  708 446.36  708 443  C 708 439.64  710.64 437  714 437  Z " fill-rule="nonzero" fill="#f0f0f0" stroke="none" />
  <path d="M 714 437.5  C 717.08 437.5  719.5 439.92  719.5 443  C 719.5 446.08  717.08 448.5  714 448.5  C 710.92 448.5  708.5 446.08  708.5 443  C 708.5 439.92  710.92 437.5  714 437.5  Z " stroke-width="1" stroke="#797979" fill="none" />
  <path d="M 714 446  C 712.32 446  711 444.68  711 443  C 711 441.32  712.32 440  714 440  C 715.68 440  717 441.32  717 443  C 717 444.68  715.68 446  714 446  " fill-rule="nonzero" fill="#797979" stroke="none" />
</svg>