<?xml version="1.0" encoding="utf-8"?>
<svg version="1.1" xmlns:xlink="http://www.w3.org/1999/xlink" width="12px" height="12px" viewBox="608 436  12 12" xmlns="http://www.w3.org/2000/svg">
  <path d="M 614 436  C 617.36 436  620 438.64  620 442  C 620 445.36  617.36 448  614 448  C 610.64 448  608 445.36  608 442  C 608 438.64  610.64 436  614 436  Z " fill-rule="nonzero" fill="#ffffff" stroke="none" />
  <path d="M 614 436.5  C 617.08 436.5  619.5 438.92  619.5 442  C 619.5 445.08  617.08 447.5  614 447.5  C 610.92 447.5  608.5 445.08  608.5 442  C 608.5 438.92  610.92 436.5  614 436.5  Z " stroke-width="1" stroke="#797979" fill="none" />
  <path d="M 614 445  C 612.32 445  611 443.68  611 442  C 611 440.32  612.32 439  614 439  C 615.68 439  617 440.32  617 442  C 617 443.68  615.68 445  614 445  " fill-rule="nonzero" fill="#797979" stroke="none" />
</svg>