<?xml version="1.0" encoding="utf-8"?>
<svg version="1.1" xmlns:xlink="http://www.w3.org/1999/xlink" width="34px" height="45px" xmlns="http://www.w3.org/2000/svg">
  <defs>
    <filter x="701px" y="446px" width="34px" height="45px" filterUnits="userSpaceOnUse" id="filter26">
      <feOffset dx="0" dy="0" in="SourceAlpha" result="shadowOffsetInner" />
      <feGaussianBlur stdDeviation="5" in="shadowOffsetInner" result="shadowGaussian" />
      <feComposite in2="shadowGaussian" operator="atop" in="SourceAlpha" result="shadowComposite" />
      <feColorMatrix type="matrix" values="0 0 0 0 0  0 0 0 0 0  0 0 0 0 0  0 0 0 0.313725490196078 0  " in="shadowComposite" />
    </filter>
    <g id="widget27">
      <path d="M 12.8084632516703 6.35516826923072  C 12.9988864142539 6.35516826923072  13.1692650334076 6.43028846153845  13.3195991091314 6.58052884615381  C 13.5 6.78084935897437  13.5350779510022 7.00120192307691  13.4248329621381 7.24158653846155  L 5.30679287305122 24.6243990384615  C 5.17650334075722 24.8747996794872  4.96603563474389 25  4.67538975501111 25  C 4.63530066815144 25  4.565144766147 24.989983974359  4.46492204899778 24.9699519230769  C 4.29454342984411 24.9198717948718  4.16675946547889 24.8247195512821  4.081570155902 24.6844951923077  C 3.99638084632522 24.5442708333334  3.97383073496655 24.3940304487179  4.01391982182633 24.2337740384615  L 6.97550111358578 12.0943509615385  L 0.871937639198222 13.6117788461538  C 0.831848552338556 13.6217948717949  0.771714922049 13.6268028846154  0.691536748329668 13.6268028846154  C 0.511135857460999 13.6268028846154  0.355790645879779 13.5717147435897  0.225501113585779 13.4615384615385  C 0.0451002227171102 13.3112980769231  -0.0200445434298899 13.1159855769231  0.030066815144778 12.8756009615385  L 3.05178173719378 0.480769230769283  C 3.09187082405344 0.340544871794918  3.17204899777278 0.225360576923094  3.29231625835189 0.135216346153811  C 3.412583518931 0.0450721153846416  3.55289532293989 0  3.71325167037867 0  L 8.64420935412022 0  C 8.83463251670378 0  8.99498886414256 0.062600160256352  9.12527839643656 0.187800480769283  C 9.25556792873056 0.313000801282101  9.32071269487756 0.460737179487182  9.32071269487756 0.631009615384642  C 9.32071269487756 0.711137820512818  9.29565701559022 0.801282051282101  9.24554565701555 0.901442307692264  L 6.67483296213811 7.85757211538464  L 12.6280623608018 6.38521634615381  C 12.7082405345211 6.36518429487182  12.7683741648107 6.35516826923072  12.8084632516703 6.35516826923072  Z " fill-rule="nonzero" fill="#eb9815" stroke="none" transform="matrix(1 0 0 1 711 456 )" />
    </g>
  </defs>
  <g transform="matrix(1 0 0 1 -701 -446 )">
    <use xlink:href="#widget27" filter="url(#filter26)" />
    <use xlink:href="#widget27" />
  </g>
</svg>