<?xml version="1.0" encoding="utf-8"?>
<svg version="1.1" xmlns:xlink="http://www.w3.org/1999/xlink" width="25px" height="14px" xmlns="http://www.w3.org/2000/svg">
  <g transform="matrix(1 0 0 1 -190 -1594 )">
    <path d="M 24.5361328125 0.461805555555556  C 24.8453776041667 0.769675925925923  25 1.13425925925926  25 1.55555555555556  C 25 1.97685185185185  24.8453776041667 2.34143518518518  24.5361328125 2.64930555555556  L 13.5986328125 13.5381944444444  C 13.2893880208333 13.8460648148148  12.9231770833333 14  12.5 14  C 12.0768229166667 14  11.7106119791667 13.8460648148148  11.4013671875 13.5381944444444  L 0.4638671875 2.64930555555556  C 0.154622395833333 2.34143518518518  0 1.97685185185185  0 1.55555555555556  C 0 1.13425925925926  0.154622395833333 0.769675925925923  0.4638671875 0.461805555555556  C 0.773111979166667 0.153935185185183  1.13932291666667 0  1.5625 0  L 23.4375 0  C 23.8606770833333 0  24.2268880208333 0.153935185185183  24.5361328125 0.461805555555556  Z " fill-rule="nonzero" fill="#ffffff" stroke="none" transform="matrix(1 0 0 1 190 1594 )" />
  </g>
</svg>