<?xml version="1.0" encoding="utf-8"?>
<svg version="1.1" xmlns:xlink="http://www.w3.org/1999/xlink" width="12px" height="12px" viewBox="858 439  12 12" xmlns="http://www.w3.org/2000/svg">
  <path d="M 864 439  C 867.36 439  870 441.64  870 445  C 870 448.36  867.36 451  864 451  C 860.64 451  858 448.36  858 445  C 858 441.64  860.64 439  864 439  Z " fill-rule="nonzero" fill="#f0f0f0" stroke="none" />
  <path d="M 864 439.5  C 867.08 439.5  869.5 441.92  869.5 445  C 869.5 448.08  867.08 450.5  864 450.5  C 860.92 450.5  858.5 448.08  858.5 445  C 858.5 441.92  860.92 439.5  864 439.5  Z " stroke-width="1" stroke="#797979" fill="none" />
  <path d="M 864 448  C 862.32 448  861 446.68  861 445  C 861 443.32  862.32 442  864 442  C 865.68 442  867 443.32  867 445  C 867 446.68  865.68 448  864 448  " fill-rule="nonzero" fill="#797979" stroke="none" />
</svg>