<?xml version="1.0" encoding="utf-8"?>
<svg version="1.1" xmlns:xlink="http://www.w3.org/1999/xlink" width="12px" height="12px" viewBox="582 464  12 12" xmlns="http://www.w3.org/2000/svg">
  <path d="M 588 464  C 591.36 464  594 466.64  594 470  C 594 473.36  591.36 476  588 476  C 584.64 476  582 473.36  582 470  C 582 466.64  584.64 464  588 464  Z " fill-rule="nonzero" fill="#f0f0f0" stroke="none" />
  <path d="M 588 464.5  C 591.08 464.5  593.5 466.92  593.5 470  C 593.5 473.08  591.08 475.5  588 475.5  C 584.92 475.5  582.5 473.08  582.5 470  C 582.5 466.92  584.92 464.5  588 464.5  Z " stroke-width="1" stroke="#797979" fill="none" />
  <path d="M 588 473  C 586.32 473  585 471.68  585 470  C 585 468.32  586.32 467  588 467  C 589.68 467  591 468.32  591 470  C 591 471.68  589.68 473  588 473  " fill-rule="nonzero" fill="#797979" stroke="none" />
</svg>