<?xml version="1.0" encoding="utf-8"?>
<svg version="1.1" xmlns:xlink="http://www.w3.org/1999/xlink" width="12px" height="12px" viewBox="682 439  12 12" xmlns="http://www.w3.org/2000/svg">
  <path d="M 688 439  C 691.36 439  694 441.64  694 445  C 694 448.36  691.36 451  688 451  C 684.64 451  682 448.36  682 445  C 682 441.64  684.64 439  688 439  Z " fill-rule="nonzero" fill="#ffffff" stroke="none" />
  <path d="M 688 439.5  C 691.08 439.5  693.5 441.92  693.5 445  C 693.5 448.08  691.08 450.5  688 450.5  C 684.92 450.5  682.5 448.08  682.5 445  C 682.5 441.92  684.92 439.5  688 439.5  Z " stroke-width="1" stroke="#797979" fill="none" />
  <path d="M 688 448  C 686.32 448  685 446.68  685 445  C 685 443.32  686.32 442  688 442  C 689.68 442  691 443.32  691 445  C 691 446.68  689.68 448  688 448  " fill-rule="nonzero" fill="#797979" stroke="none" />
</svg>