<?xml version="1.0" encoding="utf-8"?>
<svg version="1.1" xmlns:xlink="http://www.w3.org/1999/xlink" width="12px" height="12px" viewBox="582 439  12 12" xmlns="http://www.w3.org/2000/svg">
  <path d="M 588 439  C 591.36 439  594 441.64  594 445  C 594 448.36  591.36 451  588 451  C 584.64 451  582 448.36  582 445  C 582 441.64  584.64 439  588 439  Z " fill-rule="nonzero" fill="#f0f0f0" stroke="none" />
  <path d="M 588 439.5  C 591.08 439.5  593.5 441.92  593.5 445  C 593.5 448.08  591.08 450.5  588 450.5  C 584.92 450.5  582.5 448.08  582.5 445  C 582.5 441.92  584.92 439.5  588 439.5  Z " stroke-width="1" stroke="#797979" fill="none" />
  <path d="M 588 448  C 586.32 448  585 446.68  585 445  C 585 443.32  586.32 442  588 442  C 589.68 442  591 443.32  591 445  C 591 446.68  589.68 448  588 448  " fill-rule="nonzero" fill="#797979" stroke="none" />
</svg>