<?xml version="1.0" encoding="utf-8"?>
<svg version="1.1" xmlns:xlink="http://www.w3.org/1999/xlink" width="12px" height="12px" viewBox="682 464  12 12" xmlns="http://www.w3.org/2000/svg">
  <path d="M 688 464  C 691.36 464  694 466.64  694 470  C 694 473.36  691.36 476  688 476  C 684.64 476  682 473.36  682 470  C 682 466.64  684.64 464  688 464  Z " fill-rule="nonzero" fill="#f0f0f0" stroke="none" />
  <path d="M 688 464.5  C 691.08 464.5  693.5 466.92  693.5 470  C 693.5 473.08  691.08 475.5  688 475.5  C 684.92 475.5  682.5 473.08  682.5 470  C 682.5 466.92  684.92 464.5  688 464.5  Z " stroke-width="1" stroke="#797979" fill="none" />
  <path d="M 688 473  C 686.32 473  685 471.68  685 470  C 685 468.32  686.32 467  688 467  C 689.68 467  691 468.32  691 470  C 691 471.68  689.68 473  688 473  " fill-rule="nonzero" fill="#797979" stroke="none" />
</svg>