<?xml version="1.0" encoding="utf-8"?>
<svg version="1.1" xmlns:xlink="http://www.w3.org/1999/xlink" width="48px" height="48px" xmlns="http://www.w3.org/2000/svg">
  <g transform="matrix(1 0 0 1 -2036 -1410 )">
    <path d="M 2060 1410  C 2073.44 1410  2084 1420.56  2084 1434  C 2084 1447.44  2073.44 1458  2060 1458  C 2046.56 1458  2036 1447.44  2036 1434  C 2036 1420.56  2046.56 1410  2060 1410  Z " fill-rule="nonzero" fill="#ffffff" stroke="none" />
    <path d="M 2060 1410.5  C 2073.16 1410.5  2083.5 1420.84  2083.5 1434  C 2083.5 1447.16  2073.16 1457.5  2060 1457.5  C 2046.84 1457.5  2036.5 1447.16  2036.5 1434  C 2036.5 1420.84  2046.84 1410.5  2060 1410.5  Z " stroke-width="1" stroke="#797979" fill="none" />
  </g>
</svg>