<?xml version="1.0" encoding="utf-8"?>
<svg version="1.1" xmlns:xlink="http://www.w3.org/1999/xlink" width="80px" height="80px" xmlns="http://www.w3.org/2000/svg">
  <g transform="matrix(1 0 0 1 -151 -482 )">
    <path d="M 191 482  C 213.4 482  231 499.6  231 522  C 231 544.4  213.4 562  191 562  C 168.6 562  151 544.4  151 522  C 151 499.6  168.6 482  191 482  Z " fill-rule="nonzero" fill="#ffffff" stroke="none" />
    <path d="M 191 482.5  C 213.12 482.5  230.5 499.88  230.5 522  C 230.5 544.12  213.12 561.5  191 561.5  C 168.88 561.5  151.5 544.12  151.5 522  C 151.5 499.88  168.88 482.5  191 482.5  Z " stroke-width="1" stroke="#797979" fill="none" />
  </g>
</svg>