<?xml version="1.0" encoding="utf-8"?>
<svg version="1.1" xmlns:xlink="http://www.w3.org/1999/xlink" width="62px" height="35px" xmlns="http://www.w3.org/2000/svg">
  <defs>
    <mask fill="white" id="clip57">
      <path d="M 0 35  L 0 9  L 25.7557603686636 9  L 30.3640552995392 0.377880184331787  L 34.2043010752699 9  L 62 9  L 62 35  L 0 35  Z " fill-rule="evenodd" />
    </mask>
  </defs>
  <g transform="matrix(1 0 0 1 -2029 -1466 )">
    <path d="M 0 35  L 0 9  L 25.7557603686636 9  L 30.3640552995392 0.377880184331787  L 34.2043010752699 9  L 62 9  L 62 35  L 0 35  Z " fill-rule="nonzero" fill="#ffffff" stroke="none" transform="matrix(1 0 0 1 2029 1466 )" />
    <path d="M 0 35  L 0 9  L 25.7557603686636 9  L 30.3640552995392 0.377880184331787  L 34.2043010752699 9  L 62 9  L 62 35  L 0 35  Z " stroke-width="2" stroke="#797979" fill="none" transform="matrix(1 0 0 1 2029 1466 )" mask="url(#clip57)" />
  </g>
</svg>