<?xml version="1.0" encoding="utf-8"?>
<svg version="1.1" xmlns:xlink="http://www.w3.org/1999/xlink" width="25px" height="25px" xmlns="http://www.w3.org/2000/svg">
  <g transform="matrix(1 0 0 1 -1664 -693 )">
    <path d="M 15.185546875 14.5429586563308  C 15.6087239583333 14.0207795004307  15.8908420138889 13.7596899224806  16.0319010416667 13.7596899224806  C 16.1729600694444 13.7596899224806  16.7019314236111 13.9965546942291  17.6188151041667 14.4702842377261  C 18.5356987847222 14.9440137812231  19.0212673611111 15.2293281653747  19.0755208333333 15.3262273901809  C 19.0972222222222 15.380060292851  19.1080729166667 15.4608096468562  19.1080729166667 15.5684754521964  C 19.1080729166667 15.9237726098191  19.0158420138889 16.332902670112  18.8313802083333 16.7958656330749  C 18.6577690972222 17.2157622739018  18.2725694444444 17.568367786391  17.67578125 17.8536821705426  C 17.0789930555556 18.1389965546942  16.5256076388889 18.28165374677  16.015625 18.28165374677  C 15.3971354166667 18.28165374677  14.3663194444444 17.9478897502153  12.9231770833333 17.2803617571059  C 11.8598090277778 16.7958656330749  10.9375 16.1606373815676  10.15625 15.374677002584  C 9.375 14.5887166236003  8.57204861111111 13.5928079242033  7.74739583333333 12.3869509043928  C 6.96614583333333 11.2349267872524  6.58094618055556 10.1905684754522  6.591796875 9.25387596899225  L 6.591796875 9.12467700258398  C 6.62434895833333 8.14491817398794  7.02582465277778 7.29435831180017  7.79622395833333 6.57299741602067  C 8.056640625 6.33613264427218  8.33875868055556 6.21770025839793  8.642578125 6.21770025839793  C 8.70768229166667 6.21770025839793  8.80533854166667 6.22577519379845  8.935546875 6.24192506459948  C 9.06575520833333 6.25807493540052  9.16883680555556 6.26614987080103  9.24479166666667 6.26614987080103  C 9.45095486111111 6.26614987080103  9.5947265625 6.3011412575366  9.67610677083333 6.37112403100775  C 9.75748697916667 6.4411068044789  9.84157986111111 6.58914728682171  9.92838541666667 6.81524547803618  C 10.0151909722222 7.03057708871662  10.1942274305556 7.50430663221361  10.4654947916667 8.23643410852713  C 10.7367621527778 8.96856158484065  10.8723958333333 9.37230835486649  10.8723958333333 9.44767441860465  C 10.8723958333333 9.67377260981912  10.6852213541667 9.98331180017226  10.3108723958333 10.3762919896641  C 9.9365234375 10.7692721791559  9.74934895833333 11.0195951765719  9.74934895833333 11.1272609819121  C 9.74934895833333 11.2026270456503  9.77647569444445 11.2833763996555  9.83072916666667 11.3695090439276  C 10.1996527777778 12.1554694229113  10.7530381944444 12.8929801894918  11.4908854166667 13.5820413436692  C 12.0985243055556 14.1526701119724  12.9177517361111 14.6963824289406  13.9485677083333 15.2131782945736  C 14.0787760416667 15.2885443583118  14.1981336805556 15.3262273901809  14.306640625 15.3262273901809  C 14.4694010416667 15.3262273901809  14.7623697916667 15.0651378122308  15.185546875 14.5429586563308  Z M 7.11263020833333 20.6395348837209  C 8.82703993055556 21.7592592592593  10.6987847222222 22.3191214470284  12.7278645833333 22.3191214470284  C 14.1059027777778 22.3191214470284  15.4269748263889 22.0499569336779  16.6910807291667 21.5116279069767  C 17.9551866319444 20.9732988802756  19.04296875 20.2519379844961  19.9544270833333 19.3475452196382  C 20.8658854166667 18.4431524547804  21.5928819444444 17.3638027562446  22.1354166666667 16.109496124031  C 22.6779513888889 14.8551894918174  22.94921875 13.5443583118002  22.94921875 12.1770025839793  C 22.94921875 10.8096468561585  22.6779513888889 9.49881567614126  22.1354166666667 8.24450904392765  C 21.5928819444444 6.99020241171404  20.8658854166667 5.91085271317829  19.9544270833333 5.00645994832041  C 19.04296875 4.10206718346253  17.9551866319444 3.38070628768303  16.6910807291667 2.84237726098191  C 15.4269748263889 2.30404823428079  14.1059027777778 2.03488372093023  12.7278645833333 2.03488372093023  C 11.3498263888889 2.03488372093023  10.0287543402778 2.30404823428079  8.7646484375 2.84237726098191  C 7.50054253472222 3.38070628768303  6.41276041666667 4.10206718346253  5.50130208333333 5.00645994832041  C 4.58984375 5.91085271317829  3.86284722222222 6.99020241171404  3.3203125 8.24450904392765  C 2.77777777777778 9.49881567614126  2.50651041666667 10.8096468561585  2.50651041666667 12.1770025839793  C 2.50651041666667 14.3626184323859  3.15755208333333 16.343669250646  4.45963541666667 18.1201550387597  L 3.173828125 21.8830749354005  L 7.11263020833333 20.6395348837209  Z M 7.96712239583333 0.968992248062014  C 9.48079427083333 0.322997416020671  11.0677083333333 0  12.7278645833333 0  C 14.3880208333333 0  15.9749348958333 0.322997416020671  17.4886067708333 0.968992248062014  C 19.0022786458333 1.61498708010336  20.3070746527778 2.48169681309216  21.4029947916667 3.56912144702842  C 22.4989149305556 4.65654608096469  23.3723958333333 5.95122739018088  24.0234375 7.453165374677  C 24.6744791666667 8.95510335917312  25 10.5297157622739  25 12.1770025839793  C 25 13.8242894056848  24.6744791666667 15.3989018087855  24.0234375 16.9008397932817  C 23.3723958333333 18.4027777777778  22.4989149305556 19.697459086994  21.4029947916667 20.7848837209302  C 20.3070746527778 21.8723083548665  19.0022786458333 22.7390180878553  17.4886067708333 23.3850129198966  C 15.9749348958333 24.031007751938  14.3880208333333 24.3540051679587  12.7278645833333 24.3540051679587  C 10.6119791666667 24.3540051679587  8.63172743055556 23.8479758828596  6.787109375 22.8359173126615  L 0 25  L 2.21354166666667 18.4593023255814  C 1.04166666666667 16.5428509905254  0.455729166666667 14.4487510766581  0.455729166666667 12.1770025839793  C 0.455729166666667 10.5297157622739  0.78125 8.95510335917312  1.43229166666667 7.453165374677  C 2.08333333333333 5.95122739018088  2.95681423611111 4.65654608096469  4.052734375 3.56912144702842  C 5.14865451388889 2.48169681309216  6.45345052083333 1.61498708010336  7.96712239583333 0.968992248062014  Z " fill-rule="nonzero" fill="#000000" stroke="none" transform="matrix(1 0 0 1 1664 693 )" />
  </g>
</svg>