<?xml version="1.0" encoding="utf-8"?>
<svg version="1.1" xmlns:xlink="http://www.w3.org/1999/xlink" width="48px" height="48px" xmlns="http://www.w3.org/2000/svg">
  <g transform="matrix(1 0 0 1 -2036 -1396 )">
    <path d="M 2060 1396  C 2073.44 1396  2084 1406.56  2084 1420  C 2084 1433.44  2073.44 1444  2060 1444  C 2046.56 1444  2036 1433.44  2036 1420  C 2036 1406.56  2046.56 1396  2060 1396  Z " fill-rule="nonzero" fill="#ffffff" stroke="none" />
    <path d="M 2060 1396.5  C 2073.16 1396.5  2083.5 1406.84  2083.5 1420  C 2083.5 1433.16  2073.16 1443.5  2060 1443.5  C 2046.84 1443.5  2036.5 1433.16  2036.5 1420  C 2036.5 1406.84  2046.84 1396.5  2060 1396.5  Z " stroke-width="1" stroke="#797979" fill="none" />
  </g>
</svg>