<?xml version="1.0" encoding="utf-8"?>
<svg version="1.1" xmlns:xlink="http://www.w3.org/1999/xlink" width="20px" height="15px" xmlns="http://www.w3.org/2000/svg">
  <g transform="matrix(1 0 0 1 -1988 -2766 )">
    <path d="M 13.2291666666667 8.77840909090909  C 13.2986111111111 8.69318181818182  13.3333333333333 8.60795454545455  13.3333333333333 8.52272727272727  C 13.3333333333333 8.42329545454545  13.3020833333333 8.34161931818182  13.2395833333333 8.27769886363636  C 13.1770833333333 8.21377840909091  13.0972222222222 8.18181818181818  13 8.18181818181818  L 10.6666666666667 8.18181818181818  L 10.6666666666667 4.43181818181818  C 10.6666666666667 4.33948863636363  10.6336805555556 4.25958806818182  10.5677083333333 4.19211647727273  C 10.5017361111111 4.12464488636363  10.4236111111111 4.09090909090909  10.3333333333333 4.09090909090909  L 8.33333333333333 4.09090909090909  C 8.24305555555556 4.09090909090909  8.16493055555556 4.12464488636363  8.09895833333333 4.19211647727273  C 8.03298611111111 4.25958806818182  8 4.33948863636363  8 4.43181818181818  L 8 8.18181818181818  L 5.66666666666667 8.18181818181818  C 5.57638888888889 8.18181818181818  5.49826388888889 8.21555397727273  5.43229166666667 8.28302556818182  C 5.36631944444444 8.35049715909091  5.33333333333333 8.43039772727273  5.33333333333333 8.52272727272727  C 5.33333333333333 8.62215909090909  5.36458333333333 8.70383522727273  5.42708333333333 8.76775568181818  L 9.09375 12.5177556818182  C 9.15625 12.5816761363636  9.23611111111111 12.6136363636364  9.33333333333333 12.6136363636364  C 9.43055555555556 12.6136363636364  9.51041666666667 12.5816761363636  9.57291666666667 12.5177556818182  L 13.2291666666667 8.77840909090909  Z M 19.1302083333333 8.36825284090909  C 19.7100694444444 9.11044034090909  20 9.95738636363636  20 10.9090909090909  C 20 12.0383522727273  19.609375 13.0024857954545  18.828125 13.8014914772727  C 18.046875 14.6004971590909  17.1041666666667 15  16 15  L 4.66666666666667 15  C 3.38194444444444 15  2.28298611111111 14.5330255681818  1.36979166666667 13.5990767045455  C 0.456597222222222 12.6651278409091  0 11.5411931818182  0 10.2272727272727  C 0 9.30397727272727  0.243055555555556 8.45170454545455  0.729166666666667 7.67045454545455  C 1.21527777777778 6.88920454545454  1.86805555555556 6.30326704545454  2.6875 5.91264204545455  C 2.67361111111111 5.69957386363636  2.66666666666667 5.546875  2.66666666666667 5.45454545454546  C 2.66666666666667 3.94886363636364  3.1875 2.66335227272727  4.22916666666667 1.59801136363636  C 5.27083333333333 0.532670454545455  6.52777777777778 0  8 0  C 9.08333333333333 0  10.0746527777778 0.308948863636364  10.9739583333333 0.926846590909091  C 11.8732638888889 1.54474431818182  12.5277777777778 2.36505681818182  12.9375 3.38778409090909  C 13.4305555555556 2.94744318181818  14.0069444444444 2.72727272727273  14.6666666666667 2.72727272727273  C 15.4027777777778 2.72727272727273  16.03125 2.99360795454545  16.5520833333333 3.52627840909091  C 17.0729166666667 4.05894886363636  17.3333333333333 4.70170454545454  17.3333333333333 5.45454545454546  C 17.3333333333333 5.99431818181818  17.1909722222222 6.484375  16.90625 6.92471590909091  C 17.8090277777778 7.14488636363636  18.5503472222222 7.62606534090909  19.1302083333333 8.36825284090909  Z " fill-rule="nonzero" fill="#000000" stroke="none" transform="matrix(1 0 0 1 1988 2766 )" />
  </g>
</svg>