<?xml version="1.0" encoding="utf-8"?>
<svg version="1.1" xmlns:xlink="http://www.w3.org/1999/xlink" width="300px" height="300px" xmlns="http://www.w3.org/2000/svg">
  <g transform="matrix(1 0 0 1 -41 -371 )">
    <path d="M 191 371  C 275 371  341 437  341 521  C 341 605  275 671  191 671  C 107 671  41 605  41 521  C 41 437  107 371  191 371  Z " fill-rule="nonzero" fill="#ffffff" stroke="none" />
    <path d="M 191 371.5  C 274.72 371.5  340.5 437.28  340.5 521  C 340.5 604.72  274.72 670.5  191 670.5  C 107.28 670.5  41.5 604.72  41.5 521  C 41.5 437.28  107.28 371.5  191 371.5  Z " stroke-width="1" stroke="#797979" fill="none" />
  </g>
</svg>