<?xml version="1.0" encoding="utf-8"?>
<svg version="1.1" xmlns:xlink="http://www.w3.org/1999/xlink" width="20px" height="20px" xmlns="http://www.w3.org/2000/svg">
  <g transform="matrix(1 0 0 1 -1965 -2824 )">
    <path d="M 12.1484375 11.6343669250646  C 12.4869791666667 11.2166236003445  12.7126736111111 11.0077519379845  12.8255208333333 11.0077519379845  C 12.9383680555556 11.0077519379845  13.3615451388889 11.1972437553833  14.0950520833333 11.5762273901809  C 14.8285590277778 11.9552110249785  15.2170138888889 12.1834625322997  15.2604166666667 12.2609819121447  C 15.2777777777778 12.3040482342808  15.2864583333333 12.3686477174849  15.2864583333333 12.4547803617571  C 15.2864583333333 12.7390180878553  15.2126736111111 13.0663221360896  15.0651041666667 13.4366925064599  C 14.9262152777778 13.7726098191214  14.6180555555556 14.0546942291128  14.140625 14.2829457364341  C 13.6631944444444 14.5111972437554  13.2204861111111 14.625322997416  12.8125 14.625322997416  C 12.3177083333333 14.625322997416  11.4930555555556 14.3583118001723  10.3385416666667 13.8242894056848  C 9.48784722222222 13.4366925064599  8.75 12.9285099052541  8.125 12.2997416020672  C 7.5 11.6709732988803  6.85763888888889 10.8742463393626  6.19791666666667 9.90956072351421  C 5.57291666666667 8.98794142980189  5.26475694444445 8.15245478036176  5.2734375 7.4031007751938  L 5.2734375 7.29974160206718  C 5.29947916666667 6.51593453919035  5.62065972222222 5.83548664944014  6.23697916666667 5.25839793281654  C 6.4453125 5.06890611541774  6.67100694444445 4.97416020671835  6.9140625 4.97416020671835  C 6.96614583333333 4.97416020671835  7.04427083333333 4.98062015503876  7.1484375 4.99354005167959  C 7.25260416666667 5.00645994832041  7.33506944444445 5.01291989664083  7.39583333333333 5.01291989664083  C 7.56076388888889 5.01291989664083  7.67578125 5.04091300602928  7.74088541666667 5.0968992248062  C 7.80598958333333 5.15288544358312  7.87326388888889 5.27131782945736  7.94270833333333 5.45219638242894  C 8.01215277777778 5.6244616709733  8.15538194444444 6.00344530577089  8.37239583333333 6.58914728682171  C 8.58940972222222 7.17484926787252  8.69791666666667 7.49784668389319  8.69791666666667 7.55813953488372  C 8.69791666666667 7.7390180878553  8.54817708333333 7.98664944013781  8.24869791666667 8.30103359173127  C 7.94921875 8.61541774332472  7.79947916666667 8.81567614125754  7.79947916666667 8.90180878552972  C 7.79947916666667 8.96210163652024  7.82118055555556 9.02670111972437  7.86458333333333 9.09560723514212  C 8.15972222222222 9.72437553832903  8.60243055555556 10.3143841515935  9.19270833333333 10.8656330749354  C 9.67881944444444 11.3221360895779  10.3342013888889 11.7571059431525  11.1588541666667 12.1705426356589  C 11.2630208333333 12.2308354866494  11.3585069444444 12.2609819121447  11.4453125 12.2609819121447  C 11.5755208333333 12.2609819121447  11.8098958333333 12.0521102497847  12.1484375 11.6343669250646  Z M 5.69010416666667 16.5116279069767  C 7.06163194444445 17.4074074074074  8.55902777777778 17.8552971576227  10.1822916666667 17.8552971576227  C 11.2847222222222 17.8552971576227  12.3415798611111 17.6399655469423  13.3528645833333 17.2093023255814  C 14.3641493055556 16.7786391042205  15.234375 16.2015503875969  15.9635416666667 15.4780361757106  C 16.6927083333333 14.7545219638243  17.2743055555556 13.8910422049957  17.7083333333333 12.8875968992248  C 18.1423611111111 11.8841515934539  18.359375 10.8354866494401  18.359375 9.74160206718346  C 18.359375 8.64771748492679  18.1423611111111 7.59905254091301  17.7083333333333 6.59560723514212  C 17.2743055555556 5.59216192937123  16.6927083333333 4.72868217054264  15.9635416666667 4.00516795865633  C 15.234375 3.28165374677003  14.3641493055556 2.70456503014642  13.3528645833333 2.27390180878553  C 12.3415798611111 1.84323858742463  11.2847222222222 1.62790697674419  10.1822916666667 1.62790697674419  C 9.07986111111111 1.62790697674419  8.02300347222222 1.84323858742463  7.01171875 2.27390180878553  C 6.00043402777778 2.70456503014642  5.13020833333333 3.28165374677003  4.40104166666667 4.00516795865633  C 3.671875 4.72868217054264  3.09027777777778 5.59216192937123  2.65625 6.59560723514212  C 2.22222222222222 7.59905254091301  2.00520833333333 8.64771748492679  2.00520833333333 9.74160206718346  C 2.00520833333333 11.4900947459087  2.52604166666667 13.0749354005168  3.56770833333333 14.4961240310078  L 2.5390625 17.5064599483204  L 5.69010416666667 16.5116279069767  Z M 6.37369791666667 0.775193798449612  C 7.58463541666667 0.258397932816536  8.85416666666667 0  10.1822916666667 0  C 11.5104166666667 0  12.7799479166667 0.258397932816536  13.9908854166667 0.775193798449612  C 15.2018229166667 1.29198966408269  16.2456597222222 1.98535745047373  17.1223958333333 2.85529715762274  C 17.9991319444444 3.72523686477175  18.6979166666667 4.7609819121447  19.21875 5.9625322997416  C 19.7395833333333 7.1640826873385  20 8.42377260981912  20 9.74160206718346  C 20 11.0594315245478  19.7395833333333 12.3191214470284  19.21875 13.5206718346253  C 18.6979166666667 14.7222222222222  17.9991319444444 15.7579672695952  17.1223958333333 16.6279069767442  C 16.2456597222222 17.4978466838932  15.2018229166667 18.1912144702842  13.9908854166667 18.7080103359173  C 12.7799479166667 19.2248062015504  11.5104166666667 19.4832041343669  10.1822916666667 19.4832041343669  C 8.48958333333333 19.4832041343669  6.90538194444445 19.0783807062877  5.4296875 18.2687338501292  L 0 20  L 1.77083333333333 14.7674418604651  C 0.833333333333333 13.2342807924203  0.364583333333333 11.5590008613264  0.364583333333333 9.74160206718346  C 0.364583333333333 8.42377260981912  0.625 7.1640826873385  1.14583333333333 5.9625322997416  C 1.66666666666667 4.7609819121447  2.36545138888889 3.72523686477175  3.2421875 2.85529715762274  C 4.11892361111111 1.98535745047373  5.16276041666667 1.29198966408269  6.37369791666667 0.775193798449612  Z " fill-rule="nonzero" fill="#000000" stroke="none" transform="matrix(1 0 0 1 1965 2824 )" />
  </g>
</svg>