<?xml version="1.0" encoding="utf-8"?>
<svg version="1.1" xmlns:xlink="http://www.w3.org/1999/xlink" width="20px" height="20px" xmlns="http://www.w3.org/2000/svg">
  <g transform="matrix(1 0 0 1 -1988 -2644 )">
    <path d="M 12.3660714285714 15.0111607142857  C 12.8422619047619 15.2790178571429  13.1436011904762 15.1376488095238  13.2700892857143 14.5870535714286  L 14.9107142857143 6.85267857142857  C 14.9776785714286 6.52529761904762  14.9386160714286 6.29092261904762  14.7935267857143 6.14955357142857  C 14.6484375 6.00818452380952  14.4568452380952 5.98214285714286  14.21875 6.07142857142857  L 4.57589285714286 9.78794642857143  C 4.36011904761905 9.86979166666666  4.21316964285714 9.96279761904762  4.13504464285714 10.0669642857143  C 4.05691964285714 10.171130952381  4.04761904761905 10.2697172619048  4.10714285714286 10.3627232142857  C 4.16666666666667 10.4557291666667  4.28571428571429 10.5282738095238  4.46428571428571 10.5803571428571  L 6.93080357142857 11.3504464285714  L 12.65625 7.74553571428571  C 12.8125 7.64136904761905  12.9315476190476 7.61904761904762  13.0133928571429 7.67857142857143  C 13.0654761904762 7.71577380952381  13.0505952380952 7.77157738095238  12.96875 7.84598214285714  L 8.33705357142857 12.03125  L 8.15848214285714 14.5758928571429  C 8.32961309523809 14.5758928571429  8.49702380952381 14.4940476190476  8.66071428571429 14.3303571428571  L 9.86607142857143 13.1696428571429  L 12.3660714285714 15.0111607142857  Z M 19.2075892857143 6.11607142857143  C 19.7358630952381 7.35119047619047  20 8.64583333333333  20 10  C 20 11.3541666666667  19.7358630952381 12.6488095238095  19.2075892857143 13.8839285714286  C 18.6793154761905 15.1190476190476  17.96875 16.1830357142857  17.0758928571429 17.0758928571429  C 16.1830357142857 17.96875  15.1190476190476 18.6793154761905  13.8839285714286 19.2075892857143  C 12.6488095238095 19.7358630952381  11.3541666666667 20  10 20  C 8.64583333333333 20  7.35119047619048 19.7358630952381  6.11607142857143 19.2075892857143  C 4.88095238095238 18.6793154761905  3.81696428571429 17.96875  2.92410714285714 17.0758928571429  C 2.03125 16.1830357142857  1.32068452380952 15.1190476190476  0.792410714285714 13.8839285714286  C 0.264136904761905 12.6488095238095  0 11.3541666666667  0 10  C 0 8.64583333333333  0.264136904761905 7.35119047619047  0.792410714285714 6.11607142857143  C 1.32068452380952 4.88095238095238  2.03125 3.81696428571429  2.92410714285714 2.92410714285714  C 3.81696428571429 2.03125  4.88095238095238 1.32068452380952  6.11607142857143 0.792410714285714  C 7.35119047619048 0.264136904761905  8.64583333333333 0  10 0  C 11.3541666666667 0  12.6488095238095 0.264136904761905  13.8839285714286 0.792410714285714  C 15.1190476190476 1.32068452380952  16.1830357142857 2.03125  17.0758928571429 2.92410714285714  C 17.96875 3.81696428571429  18.6793154761905 4.88095238095238  19.2075892857143 6.11607142857143  Z " fill-rule="nonzero" fill="#000000" stroke="none" transform="matrix(1 0 0 1 1988 2644 )" />
  </g>
</svg>