<?xml version="1.0" encoding="utf-8"?>
<svg version="1.1" xmlns:xlink="http://www.w3.org/1999/xlink" width="12px" height="12px" viewBox="601 578  12 12" xmlns="http://www.w3.org/2000/svg">
  <path d="M 607 578  C 610.36 578  613 580.64  613 584  C 613 587.36  610.36 590  607 590  C 603.64 590  601 587.36  601 584  C 601 580.64  603.64 578  607 578  Z " fill-rule="nonzero" fill="#ffffff" stroke="none" />
  <path d="M 607 578.5  C 610.08 578.5  612.5 580.92  612.5 584  C 612.5 587.08  610.08 589.5  607 589.5  C 603.92 589.5  601.5 587.08  601.5 584  C 601.5 580.92  603.92 578.5  607 578.5  Z " stroke-width="1" stroke="#797979" fill="none" />
  <path d="M 607 587  C 605.32 587  604 585.68  604 584  C 604 582.32  605.32 581  607 581  C 608.68 581  610 582.32  610 584  C 610 585.68  608.68 587  607 587  " fill-rule="nonzero" fill="#797979" stroke="none" />
</svg>