<?xml version="1.0" encoding="utf-8"?>
<svg version="1.1" xmlns:xlink="http://www.w3.org/1999/xlink" width="28px" height="30px" xmlns="http://www.w3.org/2000/svg">
  <g transform="matrix(1 0 0 1 -1866 -282 )">
    <path d="M 2.12307692307672 23.0357142857143  L 2.12307692307672 27.8571428571429  L 6.89999999999986 27.8571428571429  L 6.89999999999986 23.0357142857143  L 2.12307692307672 23.0357142857143  Z M 7.96153846153834 23.0357142857143  L 7.96153846153834 27.8571428571429  L 13.2692307692307 27.8571428571429  L 13.2692307692307 23.0357142857143  L 7.96153846153834 23.0357142857143  Z M 2.12307692307672 16.6071428571429  L 2.12307692307672 21.9642857142857  L 6.89999999999986 21.9642857142857  L 6.89999999999986 16.6071428571429  L 2.12307692307672 16.6071428571429  Z M 7.96153846153834 16.6071428571429  L 7.96153846153834 21.9642857142857  L 13.2692307692307 21.9642857142857  L 13.2692307692307 16.6071428571429  L 7.96153846153834 16.6071428571429  Z M 2.12307692307672 10.7142857142857  L 2.12307692307672 15.5357142857143  L 6.89999999999986 15.5357142857143  L 6.89999999999986 10.7142857142857  L 2.12307692307672 10.7142857142857  Z M 14.3307692307692 23.0357142857143  L 14.3307692307692 27.8571428571429  L 19.6384615384616 27.8571428571429  L 19.6384615384616 23.0357142857143  L 14.3307692307692 23.0357142857143  Z M 7.96153846153834 10.7142857142857  L 7.96153846153834 15.5357142857143  L 13.2692307692307 15.5357142857143  L 13.2692307692307 10.7142857142857  L 7.96153846153834 10.7142857142857  Z M 20.6999999999998 23.0357142857143  L 20.6999999999998 27.8571428571429  L 25.476923076923 27.8571428571429  L 25.476923076923 23.0357142857143  L 20.6999999999998 23.0357142857143  Z M 14.3307692307692 16.6071428571429  L 14.3307692307692 21.9642857142857  L 19.6384615384616 21.9642857142857  L 19.6384615384616 16.6071428571429  L 14.3307692307692 16.6071428571429  Z M 8.33473557692309 7.87667410714289  C 8.43978365384623 7.77064732142856  8.4923076923078 7.64508928571428  8.4923076923078 7.5  L 8.4923076923078 2.67857142857144  C 8.4923076923078 2.53348214285711  8.43978365384623 2.40792410714289  8.33473557692309 2.30189732142856  C 8.22968749999995 2.19587053571428  8.10528846153852 2.14285714285711  7.96153846153834 2.14285714285711  L 6.89999999999986 2.14285714285711  C 6.75624999999991 2.14285714285711  6.63185096153848 2.19587053571428  6.52680288461534 2.30189732142856  C 6.42175480769242 2.40792410714289  6.36923076923063 2.53348214285711  6.36923076923063 2.67857142857144  L 6.36923076923063 7.5  C 6.36923076923063 7.64508928571428  6.42175480769242 7.77064732142856  6.52680288461534 7.87667410714289  C 6.63185096153848 7.98270089285711  6.75624999999991 8.03571428571433  6.89999999999986 8.03571428571433  L 7.96153846153834 8.03571428571433  C 8.10528846153852 8.03571428571433  8.22968749999995 7.98270089285711  8.33473557692309 7.87667410714289  Z M 20.6999999999998 16.6071428571429  L 20.6999999999998 21.9642857142857  L 25.476923076923 21.9642857142857  L 25.476923076923 16.6071428571429  L 20.6999999999998 16.6071428571429  Z M 14.3307692307692 10.7142857142857  L 14.3307692307692 15.5357142857143  L 19.6384615384616 15.5357142857143  L 19.6384615384616 10.7142857142857  L 14.3307692307692 10.7142857142857  Z M 20.6999999999998 10.7142857142857  L 20.6999999999998 15.5357142857143  L 25.476923076923 15.5357142857143  L 25.476923076923 10.7142857142857  L 20.6999999999998 10.7142857142857  Z M 21.0731971153846 7.87667410714289  C 21.1782451923075 7.77064732142856  21.2307692307693 7.64508928571428  21.2307692307693 7.5  L 21.2307692307693 2.67857142857144  C 21.2307692307693 2.53348214285711  21.1782451923075 2.40792410714289  21.0731971153846 2.30189732142856  C 20.9681490384614 2.19587053571428  20.84375 2.14285714285711  20.6999999999998 2.14285714285711  L 19.6384615384616 2.14285714285711  C 19.4947115384614 2.14285714285711  19.3703125 2.19587053571428  19.2652644230768 2.30189732142856  C 19.1602163461539 2.40792410714289  19.1076923076921 2.53348214285711  19.1076923076921 2.67857142857144  L 19.1076923076921 7.5  C 19.1076923076921 7.64508928571428  19.1602163461539 7.77064732142856  19.2652644230768 7.87667410714289  C 19.3703125 7.98270089285711  19.4947115384614 8.03571428571433  19.6384615384616 8.03571428571433  L 20.6999999999998 8.03571428571433  C 20.84375 8.03571428571433  20.9681490384614 7.98270089285711  21.0731971153846 7.87667410714289  Z M 26.9697115384613 4.921875  C 27.3899038461539 5.34598214285711  27.5999999999999 5.84821428571428  27.5999999999999 6.42857142857144  L 27.5999999999999 27.8571428571429  C 27.5999999999999 28.4375  27.3899038461539 28.9397321428571  26.9697115384613 29.3638392857143  C 26.549519230769 29.7879464285714  26.051923076923 30  25.476923076923 30  L 2.12307692307672 30  C 1.54807692307691 30  1.05048076923072 29.7879464285714  0.630288461538385 29.3638392857143  C 0.210096153846052 28.9397321428571  0 28.4375  0 27.8571428571429  L 0 6.42857142857144  C 0 5.84821428571428  0.210096153846052 5.34598214285711  0.630288461538385 4.921875  C 1.05048076923072 4.49776785714289  1.54807692307691 4.28571428571433  2.12307692307672 4.28571428571433  L 4.24615384615367 4.28571428571433  L 4.24615384615367 2.67857142857144  C 4.24615384615367 1.94196428571428  4.50600961538453 1.31138392857144  5.02572115384623 0.78683035714289  C 5.54543269230771 0.262276785714334  6.17019230769233 0  6.89999999999986 0  L 7.96153846153834 0  C 8.69134615384633 0  9.31610576923072 0.262276785714334  9.8358173076922 0.78683035714289  C 10.3555288461539 1.31138392857144  10.6153846153845 1.94196428571428  10.6153846153845 2.67857142857144  L 10.6153846153845 4.28571428571433  L 16.9846153846154 4.28571428571433  L 16.9846153846154 2.67857142857144  C 16.9846153846154 1.94196428571428  17.244471153846 1.31138392857144  17.7641826923075 0.78683035714289  C 18.2838942307692 0.262276785714334  18.9086538461538 0  19.6384615384616 0  L 20.6999999999998 0  C 21.4298076923076 0  22.0545673076922 0.262276785714334  22.5742788461537 0.78683035714289  C 23.0939903846154 1.31138392857144  23.353846153846 1.94196428571428  23.353846153846 2.67857142857144  L 23.353846153846 4.28571428571433  L 25.476923076923 4.28571428571433  C 26.051923076923 4.28571428571433  26.549519230769 4.49776785714289  26.9697115384613 4.921875  Z " fill-rule="nonzero" fill="#666666" stroke="none" transform="matrix(1 0 0 1 1866 282 )" />
  </g>
</svg>