<?xml version="1.0" encoding="utf-8"?>
<svg version="1.1" xmlns:xlink="http://www.w3.org/1999/xlink" width="4px" height="4px" xmlns="http://www.w3.org/2000/svg">
  <g transform="matrix(1 0 0 1 -546 -516 )">
    <path d="M 548 516  C 549.12 516  550 516.88  550 518  C 550 519.12  549.12 520  548 520  C 546.88 520  546 519.12  546 518  C 546 516.88  546.88 516  548 516  Z " fill-rule="nonzero" fill="#4652da" stroke="none" />
    <path d="M 548 516.5  C 548.84 516.5  549.5 517.16  549.5 518  C 549.5 518.84  548.84 519.5  548 519.5  C 547.16 519.5  546.5 518.84  546.5 518  C 546.5 517.16  547.16 516.5  548 516.5  Z " stroke-width="1" stroke="#4652da" fill="none" />
  </g>
</svg>