<?xml version="1.0" encoding="utf-8"?>
<svg version="1.1" xmlns:xlink="http://www.w3.org/1999/xlink" width="20px" height="20px" xmlns="http://www.w3.org/2000/svg">
  <g transform="matrix(1 0 0 1 -654 -207 )">
    <path d="M 664 207  C 669.6 207  674 211.4  674 217  C 674 222.6  669.6 227  664 227  C 658.4 227  654 222.6  654 217  C 654 211.4  658.4 207  664 207  Z " fill-rule="nonzero" fill="#cccccc" stroke="none" />
    <path d="M 664 207.5  C 669.32 207.5  673.5 211.68  673.5 217  C 673.5 222.32  669.32 226.5  664 226.5  C 658.68 226.5  654.5 222.32  654.5 217  C 654.5 211.68  658.68 207.5  664 207.5  Z " stroke-width="1" stroke="#797979" fill="none" />
  </g>
</svg>