<?xml version="1.0" encoding="utf-8"?>
<svg version="1.1" xmlns:xlink="http://www.w3.org/1999/xlink" width="12px" height="12px" viewBox="582 322  12 12" xmlns="http://www.w3.org/2000/svg">
  <path d="M 588 322  C 591.36 322  594 324.64  594 328  C 594 331.36  591.36 334  588 334  C 584.64 334  582 331.36  582 328  C 582 324.64  584.64 322  588 322  Z " fill-rule="nonzero" fill="#f0f0f0" stroke="none" />
  <path d="M 588 322.5  C 591.08 322.5  593.5 324.92  593.5 328  C 593.5 331.08  591.08 333.5  588 333.5  C 584.92 333.5  582.5 331.08  582.5 328  C 582.5 324.92  584.92 322.5  588 322.5  Z " stroke-width="1" stroke="#797979" fill="none" />
  <path d="M 588 331  C 586.32 331  585 329.68  585 328  C 585 326.32  586.32 325  588 325  C 589.68 325  591 326.32  591 328  C 591 329.68  589.68 331  588 331  " fill-rule="nonzero" fill="#797979" stroke="none" />
</svg>