<?xml version="1.0" encoding="utf-8"?>
<svg version="1.1" xmlns:xlink="http://www.w3.org/1999/xlink" width="12px" height="12px" viewBox="682 322  12 12" xmlns="http://www.w3.org/2000/svg">
  <path d="M 688 322  C 691.36 322  694 324.64  694 328  C 694 331.36  691.36 334  688 334  C 684.64 334  682 331.36  682 328  C 682 324.64  684.64 322  688 322  Z " fill-rule="nonzero" fill="#f0f0f0" stroke="none" />
  <path d="M 688 322.5  C 691.08 322.5  693.5 324.92  693.5 328  C 693.5 331.08  691.08 333.5  688 333.5  C 684.92 333.5  682.5 331.08  682.5 328  C 682.5 324.92  684.92 322.5  688 322.5  Z " stroke-width="1" stroke="#797979" fill="none" />
  <path d="M 688 331  C 686.32 331  685 329.68  685 328  C 685 326.32  686.32 325  688 325  C 689.68 325  691 326.32  691 328  C 691 329.68  689.68 331  688 331  " fill-rule="nonzero" fill="#797979" stroke="none" />
</svg>