<?xml version="1.0" encoding="utf-8"?>
<svg version="1.1" xmlns:xlink="http://www.w3.org/1999/xlink" width="12px" height="12px" viewBox="682 553  12 12" xmlns="http://www.w3.org/2000/svg">
  <path d="M 688 553  C 691.36 553  694 555.64  694 559  C 694 562.36  691.36 565  688 565  C 684.64 565  682 562.36  682 559  C 682 555.64  684.64 553  688 553  Z " fill-rule="nonzero" fill="#f0f0f0" stroke="none" />
  <path d="M 688 553.5  C 691.08 553.5  693.5 555.92  693.5 559  C 693.5 562.08  691.08 564.5  688 564.5  C 684.92 564.5  682.5 562.08  682.5 559  C 682.5 555.92  684.92 553.5  688 553.5  Z " stroke-width="1" stroke="#797979" fill="none" />
  <path d="M 688 562  C 686.32 562  685 560.68  685 559  C 685 557.32  686.32 556  688 556  C 689.68 556  691 557.32  691 559  C 691 560.68  689.68 562  688 562  " fill-rule="nonzero" fill="#797979" stroke="none" />
</svg>