<?xml version="1.0" encoding="utf-8"?>
<svg version="1.1" xmlns:xlink="http://www.w3.org/1999/xlink" width="12px" height="12px" viewBox="2552 295  12 12" xmlns="http://www.w3.org/2000/svg">
  <path d="M 2558 295  C 2561.36 295  2564 297.64  2564 301  C 2564 304.36  2561.36 307  2558 307  C 2554.64 307  2552 304.36  2552 301  C 2552 297.64  2554.64 295  2558 295  Z " fill-rule="nonzero" fill="#f0f0f0" stroke="none" />
  <path d="M 2558 295.5  C 2561.08 295.5  2563.5 297.92  2563.5 301  C 2563.5 304.08  2561.08 306.5  2558 306.5  C 2554.92 306.5  2552.5 304.08  2552.5 301  C 2552.5 297.92  2554.92 295.5  2558 295.5  Z " stroke-width="1" stroke="#797979" fill="none" />
  <path d="M 2558 304  C 2556.32 304  2555 302.68  2555 301  C 2555 299.32  2556.32 298  2558 298  C 2559.68 298  2561 299.32  2561 301  C 2561 302.68  2559.68 304  2558 304  " fill-rule="nonzero" fill="#797979" stroke="none" />
</svg>