<?xml version="1.0" encoding="utf-8"?>
<svg version="1.1" xmlns:xlink="http://www.w3.org/1999/xlink" width="12px" height="12px" viewBox="2652 585  12 12" xmlns="http://www.w3.org/2000/svg">
  <path d="M 2658 585  C 2661.36 585  2664 587.64  2664 591  C 2664 594.36  2661.36 597  2658 597  C 2654.64 597  2652 594.36  2652 591  C 2652 587.64  2654.64 585  2658 585  Z " fill-rule="nonzero" fill="#f0f0f0" stroke="none" />
  <path d="M 2658 585.5  C 2661.08 585.5  2663.5 587.92  2663.5 591  C 2663.5 594.08  2661.08 596.5  2658 596.5  C 2654.92 596.5  2652.5 594.08  2652.5 591  C 2652.5 587.92  2654.92 585.5  2658 585.5  Z " stroke-width="1" stroke="#797979" fill="none" />
  <path d="M 2658 594  C 2656.32 594  2655 592.68  2655 591  C 2655 589.32  2656.32 588  2658 588  C 2659.68 588  2661 589.32  2661 591  C 2661 592.68  2659.68 594  2658 594  " fill-rule="nonzero" fill="#797979" stroke="none" />
</svg>