<?xml version="1.0" encoding="utf-8"?>
<svg version="1.1" xmlns:xlink="http://www.w3.org/1999/xlink" width="12px" height="12px" viewBox="2652 2904  12 12" xmlns="http://www.w3.org/2000/svg">
  <path d="M 2658 2904  C 2661.36 2904  2664 2906.64  2664 2910  C 2664 2913.36  2661.36 2916  2658 2916  C 2654.64 2916  2652 2913.36  2652 2910  C 2652 2906.64  2654.64 2904  2658 2904  Z " fill-rule="nonzero" fill="#f0f0f0" stroke="none" />
  <path d="M 2658 2904.5  C 2661.08 2904.5  2663.5 2906.92  2663.5 2910  C 2663.5 2913.08  2661.08 2915.5  2658 2915.5  C 2654.92 2915.5  2652.5 2913.08  2652.5 2910  C 2652.5 2906.92  2654.92 2904.5  2658 2904.5  Z " stroke-width="1" stroke="#797979" fill="none" />
  <path d="M 2658 2913  C 2656.32 2913  2655 2911.68  2655 2910  C 2655 2908.32  2656.32 2907  2658 2907  C 2659.68 2907  2661 2908.32  2661 2910  C 2661 2911.68  2659.68 2913  2658 2913  " fill-rule="nonzero" fill="#797979" stroke="none" />
</svg>