<?xml version="1.0" encoding="utf-8"?>
<svg version="1.1" xmlns:xlink="http://www.w3.org/1999/xlink" width="12px" height="12px" viewBox="2652 2614  12 12" xmlns="http://www.w3.org/2000/svg">
  <path d="M 2658 2614  C 2661.36 2614  2664 2616.64  2664 2620  C 2664 2623.36  2661.36 2626  2658 2626  C 2654.64 2626  2652 2623.36  2652 2620  C 2652 2616.64  2654.64 2614  2658 2614  Z " fill-rule="nonzero" fill="#f0f0f0" stroke="none" />
  <path d="M 2658 2614.5  C 2661.08 2614.5  2663.5 2616.92  2663.5 2620  C 2663.5 2623.08  2661.08 2625.5  2658 2625.5  C 2654.92 2625.5  2652.5 2623.08  2652.5 2620  C 2652.5 2616.92  2654.92 2614.5  2658 2614.5  Z " stroke-width="1" stroke="#797979" fill="none" />
  <path d="M 2658 2623  C 2656.32 2623  2655 2621.68  2655 2620  C 2655 2618.32  2656.32 2617  2658 2617  C 2659.68 2617  2661 2618.32  2661 2620  C 2661 2621.68  2659.68 2623  2658 2623  " fill-rule="nonzero" fill="#797979" stroke="none" />
</svg>