<?xml version="1.0" encoding="utf-8"?>
<svg version="1.1" xmlns:xlink="http://www.w3.org/1999/xlink" width="12px" height="12px" viewBox="2766 2614  12 12" xmlns="http://www.w3.org/2000/svg">
  <path d="M 2772 2614  C 2775.36 2614  2778 2616.64  2778 2620  C 2778 2623.36  2775.36 2626  2772 2626  C 2768.64 2626  2766 2623.36  2766 2620  C 2766 2616.64  2768.64 2614  2772 2614  Z " fill-rule="nonzero" fill="#f0f0f0" stroke="none" />
  <path d="M 2772 2614.5  C 2775.08 2614.5  2777.5 2616.92  2777.5 2620  C 2777.5 2623.08  2775.08 2625.5  2772 2625.5  C 2768.92 2625.5  2766.5 2623.08  2766.5 2620  C 2766.5 2616.92  2768.92 2614.5  2772 2614.5  Z " stroke-width="1" stroke="#797979" fill="none" />
  <path d="M 2772 2623  C 2770.32 2623  2769 2621.68  2769 2620  C 2769 2618.32  2770.32 2617  2772 2617  C 2773.68 2617  2775 2618.32  2775 2620  C 2775 2621.68  2773.68 2623  2772 2623  " fill-rule="nonzero" fill="#797979" stroke="none" />
</svg>