<?xml version="1.0" encoding="utf-8"?>
<svg version="1.1" xmlns:xlink="http://www.w3.org/1999/xlink" width="12px" height="12px" viewBox="2652 1452  12 12" xmlns="http://www.w3.org/2000/svg">
  <path d="M 2658 1452  C 2661.36 1452  2664 1454.64  2664 1458  C 2664 1461.36  2661.36 1464  2658 1464  C 2654.64 1464  2652 1461.36  2652 1458  C 2652 1454.64  2654.64 1452  2658 1452  Z " fill-rule="nonzero" fill="#f0f0f0" stroke="none" />
  <path d="M 2658 1452.5  C 2661.08 1452.5  2663.5 1454.92  2663.5 1458  C 2663.5 1461.08  2661.08 1463.5  2658 1463.5  C 2654.92 1463.5  2652.5 1461.08  2652.5 1458  C 2652.5 1454.92  2654.92 1452.5  2658 1452.5  Z " stroke-width="1" stroke="#797979" fill="none" />
  <path d="M 2658 1461  C 2656.32 1461  2655 1459.68  2655 1458  C 2655 1456.32  2656.32 1455  2658 1455  C 2659.68 1455  2661 1456.32  2661 1458  C 2661 1459.68  2659.68 1461  2658 1461  " fill-rule="nonzero" fill="#797979" stroke="none" />
</svg>