<?xml version="1.0" encoding="utf-8"?>
<svg version="1.1" xmlns:xlink="http://www.w3.org/1999/xlink" width="12px" height="12px" viewBox="4623 1615  12 12" xmlns="http://www.w3.org/2000/svg">
  <path d="M 4629 1615  C 4632.36 1615  4635 1617.64  4635 1621  C 4635 1624.36  4632.36 1627  4629 1627  C 4625.64 1627  4623 1624.36  4623 1621  C 4623 1617.64  4625.64 1615  4629 1615  Z " fill-rule="nonzero" fill="#f0f0f0" stroke="none" />
  <path d="M 4629 1615.5  C 4632.08 1615.5  4634.5 1617.92  4634.5 1621  C 4634.5 1624.08  4632.08 1626.5  4629 1626.5  C 4625.92 1626.5  4623.5 1624.08  4623.5 1621  C 4623.5 1617.92  4625.92 1615.5  4629 1615.5  Z " stroke-width="1" stroke="#797979" fill="none" />
  <path d="M 4629 1624  C 4627.32 1624  4626 1622.68  4626 1621  C 4626 1619.32  4627.32 1618  4629 1618  C 4630.68 1618  4632 1619.32  4632 1621  C 4632 1622.68  4630.68 1624  4629 1624  " fill-rule="nonzero" fill="#797979" stroke="none" />
</svg>