<?xml version="1.0" encoding="utf-8"?>
<svg version="1.1" xmlns:xlink="http://www.w3.org/1999/xlink" width="12px" height="12px" viewBox="2653 484  12 12" xmlns="http://www.w3.org/2000/svg">
  <path d="M 2659 484  C 2662.36 484  2665 486.64  2665 490  C 2665 493.36  2662.36 496  2659 496  C 2655.64 496  2653 493.36  2653 490  C 2653 486.64  2655.64 484  2659 484  Z " fill-rule="nonzero" fill="#ffffff" stroke="none" />
  <path d="M 2659 484.5  C 2662.08 484.5  2664.5 486.92  2664.5 490  C 2664.5 493.08  2662.08 495.5  2659 495.5  C 2655.92 495.5  2653.5 493.08  2653.5 490  C 2653.5 486.92  2655.92 484.5  2659 484.5  Z " stroke-width="1" stroke="#797979" fill="none" />
  <path d="M 2659 493  C 2657.32 493  2656 491.68  2656 490  C 2656 488.32  2657.32 487  2659 487  C 2660.68 487  2662 488.32  2662 490  C 2662 491.68  2660.68 493  2659 493  " fill-rule="nonzero" fill="#797979" stroke="none" />
</svg>