<?xml version="1.0" encoding="utf-8"?>
<svg version="1.1" xmlns:xlink="http://www.w3.org/1999/xlink" width="12px" height="12px" viewBox="4736 1426  12 12" xmlns="http://www.w3.org/2000/svg">
  <path d="M 4742 1426  C 4745.36 1426  4748 1428.64  4748 1432  C 4748 1435.36  4745.36 1438  4742 1438  C 4738.64 1438  4736 1435.36  4736 1432  C 4736 1428.64  4738.64 1426  4742 1426  Z " fill-rule="nonzero" fill="#ffffff" stroke="none" />
  <path d="M 4742 1426.5  C 4745.08 1426.5  4747.5 1428.92  4747.5 1432  C 4747.5 1435.08  4745.08 1437.5  4742 1437.5  C 4738.92 1437.5  4736.5 1435.08  4736.5 1432  C 4736.5 1428.92  4738.92 1426.5  4742 1426.5  Z " stroke-width="1" stroke="#797979" fill="none" />
  <path d="M 4742 1435  C 4740.32 1435  4739 1433.68  4739 1432  C 4739 1430.32  4740.32 1429  4742 1429  C 4743.68 1429  4745 1430.32  4745 1432  C 4745 1433.68  4743.68 1435  4742 1435  " fill-rule="nonzero" fill="#797979" stroke="none" />
</svg>