<?xml version="1.0" encoding="utf-8"?>
<svg version="1.1" xmlns:xlink="http://www.w3.org/1999/xlink" width="12px" height="12px" viewBox="2552 322  12 12" xmlns="http://www.w3.org/2000/svg">
  <path d="M 2558 322  C 2561.36 322  2564 324.64  2564 328  C 2564 331.36  2561.36 334  2558 334  C 2554.64 334  2552 331.36  2552 328  C 2552 324.64  2554.64 322  2558 322  Z " fill-rule="nonzero" fill="#ffffff" stroke="none" />
  <path d="M 2558 322.5  C 2561.08 322.5  2563.5 324.92  2563.5 328  C 2563.5 331.08  2561.08 333.5  2558 333.5  C 2554.92 333.5  2552.5 331.08  2552.5 328  C 2552.5 324.92  2554.92 322.5  2558 322.5  Z " stroke-width="1" stroke="#797979" fill="none" />
  <path d="M 2558 331  C 2556.32 331  2555 329.68  2555 328  C 2555 326.32  2556.32 325  2558 325  C 2559.68 325  2561 326.32  2561 328  C 2561 329.68  2559.68 331  2558 331  " fill-rule="nonzero" fill="#797979" stroke="none" />
</svg>