<?xml version="1.0" encoding="utf-8"?>
<svg version="1.1" xmlns:xlink="http://www.w3.org/1999/xlink" width="12px" height="12px" viewBox="4622 1425  12 12" xmlns="http://www.w3.org/2000/svg">
  <path d="M 4628 1425  C 4631.36 1425  4634 1427.64  4634 1431  C 4634 1434.36  4631.36 1437  4628 1437  C 4624.64 1437  4622 1434.36  4622 1431  C 4622 1427.64  4624.64 1425  4628 1425  Z " fill-rule="nonzero" fill="#f0f0f0" stroke="none" />
  <path d="M 4628 1425.5  C 4631.08 1425.5  4633.5 1427.92  4633.5 1431  C 4633.5 1434.08  4631.08 1436.5  4628 1436.5  C 4624.92 1436.5  4622.5 1434.08  4622.5 1431  C 4622.5 1427.92  4624.92 1425.5  4628 1425.5  Z " stroke-width="1" stroke="#797979" fill="none" />
  <path d="M 4628 1434  C 4626.32 1434  4625 1432.68  4625 1431  C 4625 1429.32  4626.32 1428  4628 1428  C 4629.68 1428  4631 1429.32  4631 1431  C 4631 1432.68  4629.68 1434  4628 1434  " fill-rule="nonzero" fill="#797979" stroke="none" />
</svg>