<?xml version="1.0" encoding="utf-8"?>
<svg version="1.1" xmlns:xlink="http://www.w3.org/1999/xlink" width="12px" height="12px" viewBox="4528 545.5  12 12" xmlns="http://www.w3.org/2000/svg">
  <path d="M 4534 545.5  C 4537.36 545.5  4540 548.14  4540 551.5  C 4540 554.86  4537.36 557.5  4534 557.5  C 4530.64 557.5  4528 554.86  4528 551.5  C 4528 548.14  4530.64 545.5  4534 545.5  Z " fill-rule="nonzero" fill="#f0f0f0" stroke="none" />
  <path d="M 4534 546  C 4537.08 546  4539.5 548.42  4539.5 551.5  C 4539.5 554.58  4537.08 557  4534 557  C 4530.92 557  4528.5 554.58  4528.5 551.5  C 4528.5 548.42  4530.92 546  4534 546  Z " stroke-width="1" stroke="#797979" fill="none" />
  <path d="M 4534 554.5  C 4532.32 554.5  4531 553.18  4531 551.5  C 4531 549.82  4532.32 548.5  4534 548.5  C 4535.68 548.5  4537 549.82  4537 551.5  C 4537 553.18  4535.68 554.5  4534 554.5  " fill-rule="nonzero" fill="#797979" stroke="none" />
</svg>