<?xml version="1.0" encoding="utf-8"?>
<svg version="1.1" xmlns:xlink="http://www.w3.org/1999/xlink" width="12px" height="12px" viewBox="4622 1749  12 12" xmlns="http://www.w3.org/2000/svg">
  <path d="M 4628 1749  C 4631.36 1749  4634 1751.64  4634 1755  C 4634 1758.36  4631.36 1761  4628 1761  C 4624.64 1761  4622 1758.36  4622 1755  C 4622 1751.64  4624.64 1749  4628 1749  Z " fill-rule="nonzero" fill="#f0f0f0" stroke="none" />
  <path d="M 4628 1749.5  C 4631.08 1749.5  4633.5 1751.92  4633.5 1755  C 4633.5 1758.08  4631.08 1760.5  4628 1760.5  C 4624.92 1760.5  4622.5 1758.08  4622.5 1755  C 4622.5 1751.92  4624.92 1749.5  4628 1749.5  Z " stroke-width="1" stroke="#797979" fill="none" />
  <path d="M 4628 1758  C 4626.32 1758  4625 1756.68  4625 1755  C 4625 1753.32  4626.32 1752  4628 1752  C 4629.68 1752  4631 1753.32  4631 1755  C 4631 1756.68  4629.68 1758  4628 1758  " fill-rule="nonzero" fill="#797979" stroke="none" />
</svg>