<?xml version="1.0" encoding="utf-8"?>
<svg version="1.1" xmlns:xlink="http://www.w3.org/1999/xlink" width="12px" height="12px" viewBox="4651 545.5  12 12" xmlns="http://www.w3.org/2000/svg">
  <path d="M 4657 545.5  C 4660.36 545.5  4663 548.14  4663 551.5  C 4663 554.86  4660.36 557.5  4657 557.5  C 4653.64 557.5  4651 554.86  4651 551.5  C 4651 548.14  4653.64 545.5  4657 545.5  Z " fill-rule="nonzero" fill="#ffffff" stroke="none" />
  <path d="M 4657 546  C 4660.08 546  4662.5 548.42  4662.5 551.5  C 4662.5 554.58  4660.08 557  4657 557  C 4653.92 557  4651.5 554.58  4651.5 551.5  C 4651.5 548.42  4653.92 546  4657 546  Z " stroke-width="1" stroke="#797979" fill="none" />
  <path d="M 4657 554.5  C 4655.32 554.5  4654 553.18  4654 551.5  C 4654 549.82  4655.32 548.5  4657 548.5  C 4658.68 548.5  4660 549.82  4660 551.5  C 4660 553.18  4658.68 554.5  4657 554.5  " fill-rule="nonzero" fill="#797979" stroke="none" />
</svg>