<?xml version="1.0" encoding="utf-8"?>
<svg version="1.1" xmlns:xlink="http://www.w3.org/1999/xlink" width="12px" height="12px" viewBox="4522 1749  12 12" xmlns="http://www.w3.org/2000/svg">
  <path d="M 4528 1749  C 4531.36 1749  4534 1751.64  4534 1755  C 4534 1758.36  4531.36 1761  4528 1761  C 4524.64 1761  4522 1758.36  4522 1755  C 4522 1751.64  4524.64 1749  4528 1749  Z " fill-rule="nonzero" fill="#ffffff" stroke="none" />
  <path d="M 4528 1749.5  C 4531.08 1749.5  4533.5 1751.92  4533.5 1755  C 4533.5 1758.08  4531.08 1760.5  4528 1760.5  C 4524.92 1760.5  4522.5 1758.08  4522.5 1755  C 4522.5 1751.92  4524.92 1749.5  4528 1749.5  Z " stroke-width="1" stroke="#797979" fill="none" />
  <path d="M 4528 1758  C 4526.32 1758  4525 1756.68  4525 1755  C 4525 1753.32  4526.32 1752  4528 1752  C 4529.68 1752  4531 1753.32  4531 1755  C 4531 1756.68  4529.68 1758  4528 1758  " fill-rule="nonzero" fill="#797979" stroke="none" />
</svg>