<?xml version="1.0" encoding="utf-8"?>
<svg version="1.1" xmlns:xlink="http://www.w3.org/1999/xlink" width="12px" height="12px" viewBox="4522 1425  12 12" xmlns="http://www.w3.org/2000/svg">
  <path d="M 4528 1425  C 4531.36 1425  4534 1427.64  4534 1431  C 4534 1434.36  4531.36 1437  4528 1437  C 4524.64 1437  4522 1434.36  4522 1431  C 4522 1427.64  4524.64 1425  4528 1425  Z " fill-rule="nonzero" fill="#ffffff" stroke="none" />
  <path d="M 4528 1425.5  C 4531.08 1425.5  4533.5 1427.92  4533.5 1431  C 4533.5 1434.08  4531.08 1436.5  4528 1436.5  C 4524.92 1436.5  4522.5 1434.08  4522.5 1431  C 4522.5 1427.92  4524.92 1425.5  4528 1425.5  Z " stroke-width="1" stroke="#797979" fill="none" />
  <path d="M 4528 1434  C 4526.32 1434  4525 1432.68  4525 1431  C 4525 1429.32  4526.32 1428  4528 1428  C 4529.68 1428  4531 1429.32  4531 1431  C 4531 1432.68  4529.68 1434  4528 1434  " fill-rule="nonzero" fill="#797979" stroke="none" />
</svg>