<?xml version="1.0" encoding="utf-8"?>
<svg version="1.1" xmlns:xlink="http://www.w3.org/1999/xlink" width="12px" height="12px" viewBox="4522 1452  12 12" xmlns="http://www.w3.org/2000/svg">
  <path d="M 4528 1452  C 4531.36 1452  4534 1454.64  4534 1458  C 4534 1461.36  4531.36 1464  4528 1464  C 4524.64 1464  4522 1461.36  4522 1458  C 4522 1454.64  4524.64 1452  4528 1452  Z " fill-rule="nonzero" fill="#f0f0f0" stroke="none" />
  <path d="M 4528 1452.5  C 4531.08 1452.5  4533.5 1454.92  4533.5 1458  C 4533.5 1461.08  4531.08 1463.5  4528 1463.5  C 4524.92 1463.5  4522.5 1461.08  4522.5 1458  C 4522.5 1454.92  4524.92 1452.5  4528 1452.5  Z " stroke-width="1" stroke="#797979" fill="none" />
  <path d="M 4528 1461  C 4526.32 1461  4525 1459.68  4525 1458  C 4525 1456.32  4526.32 1455  4528 1455  C 4529.68 1455  4531 1456.32  4531 1458  C 4531 1459.68  4529.68 1461  4528 1461  " fill-rule="nonzero" fill="#797979" stroke="none" />
</svg>