<?xml version="1.0" encoding="utf-8"?>
<svg version="1.1" xmlns:xlink="http://www.w3.org/1999/xlink" width="12px" height="12px" viewBox="4528 1675.5  12 12" xmlns="http://www.w3.org/2000/svg">
  <path d="M 4534 1675.5  C 4537.36 1675.5  4540 1678.14  4540 1681.5  C 4540 1684.86  4537.36 1687.5  4534 1687.5  C 4530.64 1687.5  4528 1684.86  4528 1681.5  C 4528 1678.14  4530.64 1675.5  4534 1675.5  Z " fill-rule="nonzero" fill="#ffffff" stroke="none" />
  <path d="M 4534 1676  C 4537.08 1676  4539.5 1678.42  4539.5 1681.5  C 4539.5 1684.58  4537.08 1687  4534 1687  C 4530.92 1687  4528.5 1684.58  4528.5 1681.5  C 4528.5 1678.42  4530.92 1676  4534 1676  Z " stroke-width="1" stroke="#797979" fill="none" />
  <path d="M 4534 1684.5  C 4532.32 1684.5  4531 1683.18  4531 1681.5  C 4531 1679.82  4532.32 1678.5  4534 1678.5  C 4535.68 1678.5  4537 1679.82  4537 1681.5  C 4537 1683.18  4535.68 1684.5  4534 1684.5  " fill-rule="nonzero" fill="#797979" stroke="none" />
</svg>