<?xml version="1.0" encoding="utf-8"?>
<svg version="1.1" xmlns:xlink="http://www.w3.org/1999/xlink" width="12px" height="12px" viewBox="2553 484  12 12" xmlns="http://www.w3.org/2000/svg">
  <path d="M 2559 484  C 2562.36 484  2565 486.64  2565 490  C 2565 493.36  2562.36 496  2559 496  C 2555.64 496  2553 493.36  2553 490  C 2553 486.64  2555.64 484  2559 484  Z " fill-rule="nonzero" fill="#f0f0f0" stroke="none" />
  <path d="M 2559 484.5  C 2562.08 484.5  2564.5 486.92  2564.5 490  C 2564.5 493.08  2562.08 495.5  2559 495.5  C 2555.92 495.5  2553.5 493.08  2553.5 490  C 2553.5 486.92  2555.92 484.5  2559 484.5  Z " stroke-width="1" stroke="#797979" fill="none" />
  <path d="M 2559 493  C 2557.32 493  2556 491.68  2556 490  C 2556 488.32  2557.32 487  2559 487  C 2560.68 487  2562 488.32  2562 490  C 2562 491.68  2560.68 493  2559 493  " fill-rule="nonzero" fill="#797979" stroke="none" />
</svg>