<?xml version="1.0" encoding="utf-8"?>
<svg version="1.1" xmlns:xlink="http://www.w3.org/1999/xlink" width="12px" height="12px" viewBox="4522 295  12 12" xmlns="http://www.w3.org/2000/svg">
  <path d="M 4528 295  C 4531.36 295  4534 297.64  4534 301  C 4534 304.36  4531.36 307  4528 307  C 4524.64 307  4522 304.36  4522 301  C 4522 297.64  4524.64 295  4528 295  Z " fill-rule="nonzero" fill="#f0f0f0" stroke="none" />
  <path d="M 4528 295.5  C 4531.08 295.5  4533.5 297.92  4533.5 301  C 4533.5 304.08  4531.08 306.5  4528 306.5  C 4524.92 306.5  4522.5 304.08  4522.5 301  C 4522.5 297.92  4524.92 295.5  4528 295.5  Z " stroke-width="1" stroke="#797979" fill="none" />
  <path d="M 4528 304  C 4526.32 304  4525 302.68  4525 301  C 4525 299.32  4526.32 298  4528 298  C 4529.68 298  4531 299.32  4531 301  C 4531 302.68  4529.68 304  4528 304  " fill-rule="nonzero" fill="#797979" stroke="none" />
</svg>