<?xml version="1.0" encoding="utf-8"?>
<svg version="1.1" xmlns:xlink="http://www.w3.org/1999/xlink" width="12px" height="12px" viewBox="583 484  12 12" xmlns="http://www.w3.org/2000/svg">
  <path d="M 589 484  C 592.36 484  595 486.64  595 490  C 595 493.36  592.36 496  589 496  C 585.64 496  583 493.36  583 490  C 583 486.64  585.64 484  589 484  Z " fill-rule="nonzero" fill="#ffffff" stroke="none" />
  <path d="M 589 484.5  C 592.08 484.5  594.5 486.92  594.5 490  C 594.5 493.08  592.08 495.5  589 495.5  C 585.92 495.5  583.5 493.08  583.5 490  C 583.5 486.92  585.92 484.5  589 484.5  Z " stroke-width="1" stroke="#797979" fill="none" />
  <path d="M 589 493  C 587.32 493  586 491.68  586 490  C 586 488.32  587.32 487  589 487  C 590.68 487  592 488.32  592 490  C 592 491.68  590.68 493  589 493  " fill-rule="nonzero" fill="#797979" stroke="none" />
</svg>