<?xml version="1.0" encoding="utf-8"?>
<svg version="1.1" xmlns:xlink="http://www.w3.org/1999/xlink" width="12px" height="12px" viewBox="2552 1452  12 12" xmlns="http://www.w3.org/2000/svg">
  <path d="M 2558 1452  C 2561.36 1452  2564 1454.64  2564 1458  C 2564 1461.36  2561.36 1464  2558 1464  C 2554.64 1464  2552 1461.36  2552 1458  C 2552 1454.64  2554.64 1452  2558 1452  Z " fill-rule="nonzero" fill="#f0f0f0" stroke="none" />
  <path d="M 2558 1452.5  C 2561.08 1452.5  2563.5 1454.92  2563.5 1458  C 2563.5 1461.08  2561.08 1463.5  2558 1463.5  C 2554.92 1463.5  2552.5 1461.08  2552.5 1458  C 2552.5 1454.92  2554.92 1452.5  2558 1452.5  Z " stroke-width="1" stroke="#797979" fill="none" />
  <path d="M 2558 1461  C 2556.32 1461  2555 1459.68  2555 1458  C 2555 1456.32  2556.32 1455  2558 1455  C 2559.68 1455  2561 1456.32  2561 1458  C 2561 1459.68  2559.68 1461  2558 1461  " fill-rule="nonzero" fill="#797979" stroke="none" />
</svg>