<?xml version="1.0" encoding="utf-8"?>
<svg version="1.1" xmlns:xlink="http://www.w3.org/1999/xlink" width="12px" height="12px" viewBox="2766 1425  12 12" xmlns="http://www.w3.org/2000/svg">
  <path d="M 2772 1425  C 2775.36 1425  2778 1427.64  2778 1431  C 2778 1434.36  2775.36 1437  2772 1437  C 2768.64 1437  2766 1434.36  2766 1431  C 2766 1427.64  2768.64 1425  2772 1425  Z " fill-rule="nonzero" fill="#f0f0f0" stroke="none" />
  <path d="M 2772 1425.5  C 2775.08 1425.5  2777.5 1427.92  2777.5 1431  C 2777.5 1434.08  2775.08 1436.5  2772 1436.5  C 2768.92 1436.5  2766.5 1434.08  2766.5 1431  C 2766.5 1427.92  2768.92 1425.5  2772 1425.5  Z " stroke-width="1" stroke="#797979" fill="none" />
  <path d="M 2772 1434  C 2770.32 1434  2769 1432.68  2769 1431  C 2769 1429.32  2770.32 1428  2772 1428  C 2773.68 1428  2775 1429.32  2775 1431  C 2775 1432.68  2773.68 1434  2772 1434  " fill-rule="nonzero" fill="#797979" stroke="none" />
</svg>