<?xml version="1.0" encoding="utf-8"?>
<svg version="1.1" xmlns:xlink="http://www.w3.org/1999/xlink" width="12px" height="12px" viewBox="4522 1840  12 12" xmlns="http://www.w3.org/2000/svg">
  <path d="M 4528 1840  C 4531.36 1840  4534 1842.64  4534 1846  C 4534 1849.36  4531.36 1852  4528 1852  C 4524.64 1852  4522 1849.36  4522 1846  C 4522 1842.64  4524.64 1840  4528 1840  Z " fill-rule="nonzero" fill="#ffffff" stroke="none" />
  <path d="M 4528 1840.5  C 4531.08 1840.5  4533.5 1842.92  4533.5 1846  C 4533.5 1849.08  4531.08 1851.5  4528 1851.5  C 4524.92 1851.5  4522.5 1849.08  4522.5 1846  C 4522.5 1842.92  4524.92 1840.5  4528 1840.5  Z " stroke-width="1" stroke="#797979" fill="none" />
  <path d="M 4528 1849  C 4526.32 1849  4525 1847.68  4525 1846  C 4525 1844.32  4526.32 1843  4528 1843  C 4529.68 1843  4531 1844.32  4531 1846  C 4531 1847.68  4529.68 1849  4528 1849  " fill-rule="nonzero" fill="#797979" stroke="none" />
</svg>