<?xml version="1.0" encoding="utf-8"?>
<svg version="1.1" xmlns:xlink="http://www.w3.org/1999/xlink" width="12px" height="12px" viewBox="683 484  12 12" xmlns="http://www.w3.org/2000/svg">
  <path d="M 689 484  C 692.36 484  695 486.64  695 490  C 695 493.36  692.36 496  689 496  C 685.64 496  683 493.36  683 490  C 683 486.64  685.64 484  689 484  Z " fill-rule="nonzero" fill="#ffffff" stroke="none" />
  <path d="M 689 484.5  C 692.08 484.5  694.5 486.92  694.5 490  C 694.5 493.08  692.08 495.5  689 495.5  C 685.92 495.5  683.5 493.08  683.5 490  C 683.5 486.92  685.92 484.5  689 484.5  Z " stroke-width="1" stroke="#797979" fill="none" />
  <path d="M 689 493  C 687.32 493  686 491.68  686 490  C 686 488.32  687.32 487  689 487  C 690.68 487  692 488.32  692 490  C 692 491.68  690.68 493  689 493  " fill-rule="nonzero" fill="#797979" stroke="none" />
</svg>