<?xml version="1.0" encoding="utf-8"?>
<svg version="1.1" xmlns:xlink="http://www.w3.org/1999/xlink" width="12px" height="12px" viewBox="2552 2641  12 12" xmlns="http://www.w3.org/2000/svg">
  <path d="M 2558 2641  C 2561.36 2641  2564 2643.64  2564 2647  C 2564 2650.36  2561.36 2653  2558 2653  C 2554.64 2653  2552 2650.36  2552 2647  C 2552 2643.64  2554.64 2641  2558 2641  Z " fill-rule="nonzero" fill="#ffffff" stroke="none" />
  <path d="M 2558 2641.5  C 2561.08 2641.5  2563.5 2643.92  2563.5 2647  C 2563.5 2650.08  2561.08 2652.5  2558 2652.5  C 2554.92 2652.5  2552.5 2650.08  2552.5 2647  C 2552.5 2643.92  2554.92 2641.5  2558 2641.5  Z " stroke-width="1" stroke="#797979" fill="none" />
  <path d="M 2558 2650  C 2556.32 2650  2555 2648.68  2555 2647  C 2555 2645.32  2556.32 2644  2558 2644  C 2559.68 2644  2561 2645.32  2561 2647  C 2561 2648.68  2559.68 2650  2558 2650  " fill-rule="nonzero" fill="#797979" stroke="none" />
</svg>