<?xml version="1.0" encoding="utf-8"?>
<svg version="1.1" xmlns:xlink="http://www.w3.org/1999/xlink" width="12px" height="12px" viewBox="2552 2904  12 12" xmlns="http://www.w3.org/2000/svg">
  <path d="M 2558 2904  C 2561.36 2904  2564 2906.64  2564 2910  C 2564 2913.36  2561.36 2916  2558 2916  C 2554.64 2916  2552 2913.36  2552 2910  C 2552 2906.64  2554.64 2904  2558 2904  Z " fill-rule="nonzero" fill="#f0f0f0" stroke="none" />
  <path d="M 2558 2904.5  C 2561.08 2904.5  2563.5 2906.92  2563.5 2910  C 2563.5 2913.08  2561.08 2915.5  2558 2915.5  C 2554.92 2915.5  2552.5 2913.08  2552.5 2910  C 2552.5 2906.92  2554.92 2904.5  2558 2904.5  Z " stroke-width="1" stroke="#797979" fill="none" />
  <path d="M 2558 2913  C 2556.32 2913  2555 2911.68  2555 2910  C 2555 2908.32  2556.32 2907  2558 2907  C 2559.68 2907  2561 2908.32  2561 2910  C 2561 2911.68  2559.68 2913  2558 2913  " fill-rule="nonzero" fill="#797979" stroke="none" />
</svg>