<?xml version="1.0" encoding="utf-8"?>
<svg version="1.1" xmlns:xlink="http://www.w3.org/1999/xlink" width="12px" height="12px" viewBox="2552 585  12 12" xmlns="http://www.w3.org/2000/svg">
  <path d="M 2558 585  C 2561.36 585  2564 587.64  2564 591  C 2564 594.36  2561.36 597  2558 597  C 2554.64 597  2552 594.36  2552 591  C 2552 587.64  2554.64 585  2558 585  Z " fill-rule="nonzero" fill="#ffffff" stroke="none" />
  <path d="M 2558 585.5  C 2561.08 585.5  2563.5 587.92  2563.5 591  C 2563.5 594.08  2561.08 596.5  2558 596.5  C 2554.92 596.5  2552.5 594.08  2552.5 591  C 2552.5 587.92  2554.92 585.5  2558 585.5  Z " stroke-width="1" stroke="#797979" fill="none" />
  <path d="M 2558 594  C 2556.32 594  2555 592.68  2555 591  C 2555 589.32  2556.32 588  2558 588  C 2559.68 588  2561 589.32  2561 591  C 2561 592.68  2559.68 594  2558 594  " fill-rule="nonzero" fill="#797979" stroke="none" />
</svg>