<?xml version="1.0" encoding="utf-8"?>
<svg version="1.1" xmlns:xlink="http://www.w3.org/1999/xlink" width="12px" height="12px" viewBox="4522 322  12 12" xmlns="http://www.w3.org/2000/svg">
  <path d="M 4528 322  C 4531.36 322  4534 324.64  4534 328  C 4534 331.36  4531.36 334  4528 334  C 4524.64 334  4522 331.36  4522 328  C 4522 324.64  4524.64 322  4528 322  Z " fill-rule="nonzero" fill="#ffffff" stroke="none" />
  <path d="M 4528 322.5  C 4531.08 322.5  4533.5 324.92  4533.5 328  C 4533.5 331.08  4531.08 333.5  4528 333.5  C 4524.92 333.5  4522.5 331.08  4522.5 328  C 4522.5 324.92  4524.92 322.5  4528 322.5  Z " stroke-width="1" stroke="#797979" fill="none" />
  <path d="M 4528 331  C 4526.32 331  4525 329.68  4525 328  C 4525 326.32  4526.32 325  4528 325  C 4529.68 325  4531 326.32  4531 328  C 4531 329.68  4529.68 331  4528 331  " fill-rule="nonzero" fill="#797979" stroke="none" />
</svg>