<?xml version="1.0" encoding="utf-8"?>
<svg version="1.1" xmlns:xlink="http://www.w3.org/1999/xlink" width="12px" height="12px" viewBox="4622 322  12 12" xmlns="http://www.w3.org/2000/svg">
  <path d="M 4628 322  C 4631.36 322  4634 324.64  4634 328  C 4634 331.36  4631.36 334  4628 334  C 4624.64 334  4622 331.36  4622 328  C 4622 324.64  4624.64 322  4628 322  Z " fill-rule="nonzero" fill="#f0f0f0" stroke="none" />
  <path d="M 4628 322.5  C 4631.08 322.5  4633.5 324.92  4633.5 328  C 4633.5 331.08  4631.08 333.5  4628 333.5  C 4624.92 333.5  4622.5 331.08  4622.5 328  C 4622.5 324.92  4624.92 322.5  4628 322.5  Z " stroke-width="1" stroke="#797979" fill="none" />
  <path d="M 4628 331  C 4626.32 331  4625 329.68  4625 328  C 4625 326.32  4626.32 325  4628 325  C 4629.68 325  4631 326.32  4631 328  C 4631 329.68  4629.68 331  4628 331  " fill-rule="nonzero" fill="#797979" stroke="none" />
</svg>