<?xml version="1.0" encoding="utf-8"?>
<svg version="1.1" xmlns:xlink="http://www.w3.org/1999/xlink" width="12px" height="12px" viewBox="2552 2614  12 12" xmlns="http://www.w3.org/2000/svg">
  <path d="M 2558 2614  C 2561.36 2614  2564 2616.64  2564 2620  C 2564 2623.36  2561.36 2626  2558 2626  C 2554.64 2626  2552 2623.36  2552 2620  C 2552 2616.64  2554.64 2614  2558 2614  Z " fill-rule="nonzero" fill="#ffffff" stroke="none" />
  <path d="M 2558 2614.5  C 2561.08 2614.5  2563.5 2616.92  2563.5 2620  C 2563.5 2623.08  2561.08 2625.5  2558 2625.5  C 2554.92 2625.5  2552.5 2623.08  2552.5 2620  C 2552.5 2616.92  2554.92 2614.5  2558 2614.5  Z " stroke-width="1" stroke="#797979" fill="none" />
  <path d="M 2558 2623  C 2556.32 2623  2555 2621.68  2555 2620  C 2555 2618.32  2556.32 2617  2558 2617  C 2559.68 2617  2561 2618.32  2561 2620  C 2561 2621.68  2559.68 2623  2558 2623  " fill-rule="nonzero" fill="#797979" stroke="none" />
</svg>