<?xml version="1.0" encoding="utf-8"?>
<svg version="1.1" xmlns:xlink="http://www.w3.org/1999/xlink" width="12px" height="12px" viewBox="2652 2641  12 12" xmlns="http://www.w3.org/2000/svg">
  <path d="M 2658 2641  C 2661.36 2641  2664 2643.64  2664 2647  C 2664 2650.36  2661.36 2653  2658 2653  C 2654.64 2653  2652 2650.36  2652 2647  C 2652 2643.64  2654.64 2641  2658 2641  Z " fill-rule="nonzero" fill="#ffffff" stroke="none" />
  <path d="M 2658 2641.5  C 2661.08 2641.5  2663.5 2643.92  2663.5 2647  C 2663.5 2650.08  2661.08 2652.5  2658 2652.5  C 2654.92 2652.5  2652.5 2650.08  2652.5 2647  C 2652.5 2643.92  2654.92 2641.5  2658 2641.5  Z " stroke-width="1" stroke="#797979" fill="none" />
  <path d="M 2658 2650  C 2656.32 2650  2655 2648.68  2655 2647  C 2655 2645.32  2656.32 2644  2658 2644  C 2659.68 2644  2661 2645.32  2661 2647  C 2661 2648.68  2659.68 2650  2658 2650  " fill-rule="nonzero" fill="#797979" stroke="none" />
</svg>