<?xml version="1.0" encoding="utf-8"?>
<svg version="1.1" xmlns:xlink="http://www.w3.org/1999/xlink" width="12px" height="12px" viewBox="4622 295  12 12" xmlns="http://www.w3.org/2000/svg">
  <path d="M 4628 295  C 4631.36 295  4634 297.64  4634 301  C 4634 304.36  4631.36 307  4628 307  C 4624.64 307  4622 304.36  4622 301  C 4622 297.64  4624.64 295  4628 295  Z " fill-rule="nonzero" fill="#f0f0f0" stroke="none" />
  <path d="M 4628 295.5  C 4631.08 295.5  4633.5 297.92  4633.5 301  C 4633.5 304.08  4631.08 306.5  4628 306.5  C 4624.92 306.5  4622.5 304.08  4622.5 301  C 4622.5 297.92  4624.92 295.5  4628 295.5  Z " stroke-width="1" stroke="#797979" fill="none" />
  <path d="M 4628 304  C 4626.32 304  4625 302.68  4625 301  C 4625 299.32  4626.32 298  4628 298  C 4629.68 298  4631 299.32  4631 301  C 4631 302.68  4629.68 304  4628 304  " fill-rule="nonzero" fill="#797979" stroke="none" />
</svg>