<?xml version="1.0" encoding="utf-8"?>
<svg version="1.1" xmlns:xlink="http://www.w3.org/1999/xlink" width="12px" height="12px" viewBox="4622 1453  12 12" xmlns="http://www.w3.org/2000/svg">
  <path d="M 4628 1453  C 4631.36 1453  4634 1455.64  4634 1459  C 4634 1462.36  4631.36 1465  4628 1465  C 4624.64 1465  4622 1462.36  4622 1459  C 4622 1455.64  4624.64 1453  4628 1453  Z " fill-rule="nonzero" fill="#f0f0f0" stroke="none" />
  <path d="M 4628 1453.5  C 4631.08 1453.5  4633.5 1455.92  4633.5 1459  C 4633.5 1462.08  4631.08 1464.5  4628 1464.5  C 4624.92 1464.5  4622.5 1462.08  4622.5 1459  C 4622.5 1455.92  4624.92 1453.5  4628 1453.5  Z " stroke-width="1" stroke="#797979" fill="none" />
  <path d="M 4628 1462  C 4626.32 1462  4625 1460.68  4625 1459  C 4625 1457.32  4626.32 1456  4628 1456  C 4629.68 1456  4631 1457.32  4631 1459  C 4631 1460.68  4629.68 1462  4628 1462  " fill-rule="nonzero" fill="#797979" stroke="none" />
</svg>