<?xml version="1.0" encoding="utf-8"?>
<svg version="1.1" xmlns:xlink="http://www.w3.org/1999/xlink" width="12px" height="12px" viewBox="2652 1715  12 12" xmlns="http://www.w3.org/2000/svg">
  <path d="M 2658 1715  C 2661.36 1715  2664 1717.64  2664 1721  C 2664 1724.36  2661.36 1727  2658 1727  C 2654.64 1727  2652 1724.36  2652 1721  C 2652 1717.64  2654.64 1715  2658 1715  Z " fill-rule="nonzero" fill="#ffffff" stroke="none" />
  <path d="M 2658 1715.5  C 2661.08 1715.5  2663.5 1717.92  2663.5 1721  C 2663.5 1724.08  2661.08 1726.5  2658 1726.5  C 2654.92 1726.5  2652.5 1724.08  2652.5 1721  C 2652.5 1717.92  2654.92 1715.5  2658 1715.5  Z " stroke-width="1" stroke="#797979" fill="none" />
  <path d="M 2658 1724  C 2656.32 1724  2655 1722.68  2655 1721  C 2655 1719.32  2656.32 1718  2658 1718  C 2659.68 1718  2661 1719.32  2661 1721  C 2661 1722.68  2659.68 1724  2658 1724  " fill-rule="nonzero" fill="#797979" stroke="none" />
</svg>