<?xml version="1.0" encoding="utf-8"?>
<svg version="1.1" xmlns:xlink="http://www.w3.org/1999/xlink" width="12px" height="12px" viewBox="2653 2803  12 12" xmlns="http://www.w3.org/2000/svg">
  <path d="M 2659 2803  C 2662.36 2803  2665 2805.64  2665 2809  C 2665 2812.36  2662.36 2815  2659 2815  C 2655.64 2815  2653 2812.36  2653 2809  C 2653 2805.64  2655.64 2803  2659 2803  Z " fill-rule="nonzero" fill="#ffffff" stroke="none" />
  <path d="M 2659 2803.5  C 2662.08 2803.5  2664.5 2805.92  2664.5 2809  C 2664.5 2812.08  2662.08 2814.5  2659 2814.5  C 2655.92 2814.5  2653.5 2812.08  2653.5 2809  C 2653.5 2805.92  2655.92 2803.5  2659 2803.5  Z " stroke-width="1" stroke="#797979" fill="none" />
  <path d="M 2659 2812  C 2657.32 2812  2656 2810.68  2656 2809  C 2656 2807.32  2657.32 2806  2659 2806  C 2660.68 2806  2662 2807.32  2662 2809  C 2662 2810.68  2660.68 2812  2659 2812  " fill-rule="nonzero" fill="#797979" stroke="none" />
</svg>