<?xml version="1.0" encoding="utf-8"?>
<svg version="1.1" xmlns:xlink="http://www.w3.org/1999/xlink" width="12px" height="12px" viewBox="4522 2937  12 12" xmlns="http://www.w3.org/2000/svg">
  <path d="M 4528 2937  C 4531.36 2937  4534 2939.64  4534 2943  C 4534 2946.36  4531.36 2949  4528 2949  C 4524.64 2949  4522 2946.36  4522 2943  C 4522 2939.64  4524.64 2937  4528 2937  Z " fill-rule="nonzero" fill="#f0f0f0" stroke="none" />
  <path d="M 4528 2937.5  C 4531.08 2937.5  4533.5 2939.92  4533.5 2943  C 4533.5 2946.08  4531.08 2948.5  4528 2948.5  C 4524.92 2948.5  4522.5 2946.08  4522.5 2943  C 4522.5 2939.92  4524.92 2937.5  4528 2937.5  Z " stroke-width="1" stroke="#797979" fill="none" />
  <path d="M 4528 2946  C 4526.32 2946  4525 2944.68  4525 2943  C 4525 2941.32  4526.32 2940  4528 2940  C 4529.68 2940  4531 2941.32  4531 2943  C 4531 2944.68  4529.68 2946  4528 2946  " fill-rule="nonzero" fill="#797979" stroke="none" />
</svg>