<?xml version="1.0" encoding="utf-8"?>
<svg version="1.1" xmlns:xlink="http://www.w3.org/1999/xlink" width="12px" height="12px" viewBox="4523 2802  12 12" xmlns="http://www.w3.org/2000/svg">
  <path d="M 4529 2802  C 4532.36 2802  4535 2804.64  4535 2808  C 4535 2811.36  4532.36 2814  4529 2814  C 4525.64 2814  4523 2811.36  4523 2808  C 4523 2804.64  4525.64 2802  4529 2802  Z " fill-rule="nonzero" fill="#ffffff" stroke="none" />
  <path d="M 4529 2802.5  C 4532.08 2802.5  4534.5 2804.92  4534.5 2808  C 4534.5 2811.08  4532.08 2813.5  4529 2813.5  C 4525.92 2813.5  4523.5 2811.08  4523.5 2808  C 4523.5 2804.92  4525.92 2802.5  4529 2802.5  Z " stroke-width="1" stroke="#797979" fill="none" />
  <path d="M 4529 2811  C 4527.32 2811  4526 2809.68  4526 2808  C 4526 2806.32  4527.32 2805  4529 2805  C 4530.68 2805  4532 2806.32  4532 2808  C 4532 2809.68  4530.68 2811  4529 2811  " fill-rule="nonzero" fill="#797979" stroke="none" />
</svg>