<?xml version="1.0" encoding="utf-8"?>
<svg version="1.1" xmlns:xlink="http://www.w3.org/1999/xlink" width="12px" height="12px" viewBox="4669 1676.5  12 12" xmlns="http://www.w3.org/2000/svg">
  <path d="M 4675 1676.5  C 4678.36 1676.5  4681 1679.14  4681 1682.5  C 4681 1685.86  4678.36 1688.5  4675 1688.5  C 4671.64 1688.5  4669 1685.86  4669 1682.5  C 4669 1679.14  4671.64 1676.5  4675 1676.5  Z " fill-rule="nonzero" fill="#ffffff" stroke="none" />
  <path d="M 4675 1677  C 4678.08 1677  4680.5 1679.42  4680.5 1682.5  C 4680.5 1685.58  4678.08 1688  4675 1688  C 4671.92 1688  4669.5 1685.58  4669.5 1682.5  C 4669.5 1679.42  4671.92 1677  4675 1677  Z " stroke-width="1" stroke="#797979" fill="none" />
  <path d="M 4675 1685.5  C 4673.32 1685.5  4672 1684.18  4672 1682.5  C 4672 1680.82  4673.32 1679.5  4675 1679.5  C 4676.68 1679.5  4678 1680.82  4678 1682.5  C 4678 1684.18  4676.68 1685.5  4675 1685.5  " fill-rule="nonzero" fill="#797979" stroke="none" />
</svg>