<?xml version="1.0" encoding="utf-8"?>
<svg version="1.1" xmlns:xlink="http://www.w3.org/1999/xlink" width="12px" height="12px" viewBox="4522 2613  12 12" xmlns="http://www.w3.org/2000/svg">
  <path d="M 4528 2613  C 4531.36 2613  4534 2615.64  4534 2619  C 4534 2622.36  4531.36 2625  4528 2625  C 4524.64 2625  4522 2622.36  4522 2619  C 4522 2615.64  4524.64 2613  4528 2613  Z " fill-rule="nonzero" fill="#f0f0f0" stroke="none" />
  <path d="M 4528 2613.5  C 4531.08 2613.5  4533.5 2615.92  4533.5 2619  C 4533.5 2622.08  4531.08 2624.5  4528 2624.5  C 4524.92 2624.5  4522.5 2622.08  4522.5 2619  C 4522.5 2615.92  4524.92 2613.5  4528 2613.5  Z " stroke-width="1" stroke="#797979" fill="none" />
  <path d="M 4528 2622  C 4526.32 2622  4525 2620.68  4525 2619  C 4525 2617.32  4526.32 2616  4528 2616  C 4529.68 2616  4531 2617.32  4531 2619  C 4531 2620.68  4529.68 2622  4528 2622  " fill-rule="nonzero" fill="#797979" stroke="none" />
</svg>