<?xml version="1.0" encoding="utf-8"?>
<svg version="1.1" xmlns:xlink="http://www.w3.org/1999/xlink" width="12px" height="12px" viewBox="4736 2613  12 12" xmlns="http://www.w3.org/2000/svg">
  <path d="M 4742 2613  C 4745.36 2613  4748 2615.64  4748 2619  C 4748 2622.36  4745.36 2625  4742 2625  C 4738.64 2625  4736 2622.36  4736 2619  C 4736 2615.64  4738.64 2613  4742 2613  Z " fill-rule="nonzero" fill="#f0f0f0" stroke="none" />
  <path d="M 4742 2613.5  C 4745.08 2613.5  4747.5 2615.92  4747.5 2619  C 4747.5 2622.08  4745.08 2624.5  4742 2624.5  C 4738.92 2624.5  4736.5 2622.08  4736.5 2619  C 4736.5 2615.92  4738.92 2613.5  4742 2613.5  Z " stroke-width="1" stroke="#797979" fill="none" />
  <path d="M 4742 2622  C 4740.32 2622  4739 2620.68  4739 2619  C 4739 2617.32  4740.32 2616  4742 2616  C 4743.68 2616  4745 2617.32  4745 2619  C 4745 2620.68  4743.68 2622  4742 2622  " fill-rule="nonzero" fill="#797979" stroke="none" />
</svg>