<?xml version="1.0" encoding="utf-8"?>
<svg version="1.1" xmlns:xlink="http://www.w3.org/1999/xlink" width="12px" height="12px" viewBox="4669 545.5  12 12" xmlns="http://www.w3.org/2000/svg">
  <path d="M 4675 545.5  C 4678.36 545.5  4681 548.14  4681 551.5  C 4681 554.86  4678.36 557.5  4675 557.5  C 4671.64 557.5  4669 554.86  4669 551.5  C 4669 548.14  4671.64 545.5  4675 545.5  Z " fill-rule="nonzero" fill="#f0f0f0" stroke="none" />
  <path d="M 4675 546  C 4678.08 546  4680.5 548.42  4680.5 551.5  C 4680.5 554.58  4678.08 557  4675 557  C 4671.92 557  4669.5 554.58  4669.5 551.5  C 4669.5 548.42  4671.92 546  4675 546  Z " stroke-width="1" stroke="#797979" fill="none" />
  <path d="M 4675 554.5  C 4673.32 554.5  4672 553.18  4672 551.5  C 4672 549.82  4673.32 548.5  4675 548.5  C 4676.68 548.5  4678 549.82  4678 551.5  C 4678 553.18  4676.68 554.5  4675 554.5  " fill-rule="nonzero" fill="#797979" stroke="none" />
</svg>