<?xml version="1.0" encoding="utf-8"?>
<svg version="1.1" xmlns:xlink="http://www.w3.org/1999/xlink" width="12px" height="12px" viewBox="4622 2937  12 12" xmlns="http://www.w3.org/2000/svg">
  <path d="M 4628 2937  C 4631.36 2937  4634 2939.64  4634 2943  C 4634 2946.36  4631.36 2949  4628 2949  C 4624.64 2949  4622 2946.36  4622 2943  C 4622 2939.64  4624.64 2937  4628 2937  Z " fill-rule="nonzero" fill="#ffffff" stroke="none" />
  <path d="M 4628 2937.5  C 4631.08 2937.5  4633.5 2939.92  4633.5 2943  C 4633.5 2946.08  4631.08 2948.5  4628 2948.5  C 4624.92 2948.5  4622.5 2946.08  4622.5 2943  C 4622.5 2939.92  4624.92 2937.5  4628 2937.5  Z " stroke-width="1" stroke="#797979" fill="none" />
  <path d="M 4628 2946  C 4626.32 2946  4625 2944.68  4625 2943  C 4625 2941.32  4626.32 2940  4628 2940  C 4629.68 2940  4631 2941.32  4631 2943  C 4631 2944.68  4629.68 2946  4628 2946  " fill-rule="nonzero" fill="#797979" stroke="none" />
</svg>