<?xml version="1.0" encoding="utf-8"?>
<svg version="1.1" xmlns:xlink="http://www.w3.org/1999/xlink" width="12px" height="12px" viewBox="4546 545.5  12 12" xmlns="http://www.w3.org/2000/svg">
  <path d="M 4552 545.5  C 4555.36 545.5  4558 548.14  4558 551.5  C 4558 554.86  4555.36 557.5  4552 557.5  C 4548.64 557.5  4546 554.86  4546 551.5  C 4546 548.14  4548.64 545.5  4552 545.5  Z " fill-rule="nonzero" fill="#ffffff" stroke="none" />
  <path d="M 4552 546  C 4555.08 546  4557.5 548.42  4557.5 551.5  C 4557.5 554.58  4555.08 557  4552 557  C 4548.92 557  4546.5 554.58  4546.5 551.5  C 4546.5 548.42  4548.92 546  4552 546  Z " stroke-width="1" stroke="#797979" fill="none" />
  <path d="M 4552 554.5  C 4550.32 554.5  4549 553.18  4549 551.5  C 4549 549.82  4550.32 548.5  4552 548.5  C 4553.68 548.5  4555 549.82  4555 551.5  C 4555 553.18  4553.68 554.5  4552 554.5  " fill-rule="nonzero" fill="#797979" stroke="none" />
</svg>