<?xml version="1.0" encoding="utf-8"?>
<svg version="1.1" xmlns:xlink="http://www.w3.org/1999/xlink" width="12px" height="12px" viewBox="4622 2640  12 12" xmlns="http://www.w3.org/2000/svg">
  <path d="M 4628 2640  C 4631.36 2640  4634 2642.64  4634 2646  C 4634 2649.36  4631.36 2652  4628 2652  C 4624.64 2652  4622 2649.36  4622 2646  C 4622 2642.64  4624.64 2640  4628 2640  Z " fill-rule="nonzero" fill="#ffffff" stroke="none" />
  <path d="M 4628 2640.5  C 4631.08 2640.5  4633.5 2642.92  4633.5 2646  C 4633.5 2649.08  4631.08 2651.5  4628 2651.5  C 4624.92 2651.5  4622.5 2649.08  4622.5 2646  C 4622.5 2642.92  4624.92 2640.5  4628 2640.5  Z " stroke-width="1" stroke="#797979" fill="none" />
  <path d="M 4628 2649  C 4626.32 2649  4625 2647.68  4625 2646  C 4625 2644.32  4626.32 2643  4628 2643  C 4629.68 2643  4631 2644.32  4631 2646  C 4631 2647.68  4629.68 2649  4628 2649  " fill-rule="nonzero" fill="#797979" stroke="none" />
</svg>