<?xml version="1.0" encoding="utf-8"?>
<svg version="1.1" xmlns:xlink="http://www.w3.org/1999/xlink" width="12px" height="12px" viewBox="4528 2863.5  12 12" xmlns="http://www.w3.org/2000/svg">
  <path d="M 4534 2863.5  C 4537.36 2863.5  4540 2866.14  4540 2869.5  C 4540 2872.86  4537.36 2875.5  4534 2875.5  C 4530.64 2875.5  4528 2872.86  4528 2869.5  C 4528 2866.14  4530.64 2863.5  4534 2863.5  Z " fill-rule="nonzero" fill="#f0f0f0" stroke="none" />
  <path d="M 4534 2864  C 4537.08 2864  4539.5 2866.42  4539.5 2869.5  C 4539.5 2872.58  4537.08 2875  4534 2875  C 4530.92 2875  4528.5 2872.58  4528.5 2869.5  C 4528.5 2866.42  4530.92 2864  4534 2864  Z " stroke-width="1" stroke="#797979" fill="none" />
  <path d="M 4534 2872.5  C 4532.32 2872.5  4531 2871.18  4531 2869.5  C 4531 2867.82  4532.32 2866.5  4534 2866.5  C 4535.68 2866.5  4537 2867.82  4537 2869.5  C 4537 2871.18  4535.68 2872.5  4534 2872.5  " fill-rule="nonzero" fill="#797979" stroke="none" />
</svg>