<?xml version="1.0" encoding="utf-8"?>
<svg version="1.1" xmlns:xlink="http://www.w3.org/1999/xlink" width="12px" height="12px" viewBox="738 455  12 12" xmlns="http://www.w3.org/2000/svg">
  <path d="M 744 455  C 747.36 455  750 457.64  750 461  C 750 464.36  747.36 467  744 467  C 740.64 467  738 464.36  738 461  C 738 457.64  740.64 455  744 455  Z " fill-rule="nonzero" fill="#f0f0f0" stroke="none" />
  <path d="M 744 455.5  C 747.08 455.5  749.5 457.92  749.5 461  C 749.5 464.08  747.08 466.5  744 466.5  C 740.92 466.5  738.5 464.08  738.5 461  C 738.5 457.92  740.92 455.5  744 455.5  Z " stroke-width="1" stroke="#797979" fill="none" />
  <path d="M 744 464  C 742.32 464  741 462.68  741 461  C 741 459.32  742.32 458  744 458  C 745.68 458  747 459.32  747 461  C 747 462.68  745.68 464  744 464  " fill-rule="nonzero" fill="#797979" stroke="none" />
</svg>