<?xml version="1.0" encoding="utf-8"?>
<svg version="1.1" xmlns:xlink="http://www.w3.org/1999/xlink" width="12px" height="12px" viewBox="1004 455  12 12" xmlns="http://www.w3.org/2000/svg">
  <path d="M 1010 455  C 1013.36 455  1016 457.64  1016 461  C 1016 464.36  1013.36 467  1010 467  C 1006.64 467  1004 464.36  1004 461  C 1004 457.64  1006.64 455  1010 455  Z " fill-rule="nonzero" fill="#ffffff" stroke="none" />
  <path d="M 1010 455.5  C 1013.08 455.5  1015.5 457.92  1015.5 461  C 1015.5 464.08  1013.08 466.5  1010 466.5  C 1006.92 466.5  1004.5 464.08  1004.5 461  C 1004.5 457.92  1006.92 455.5  1010 455.5  Z " stroke-width="1" stroke="#797979" fill="none" />
  <path d="M 1010 464  C 1008.32 464  1007 462.68  1007 461  C 1007 459.32  1008.32 458  1010 458  C 1011.68 458  1013 459.32  1013 461  C 1013 462.68  1011.68 464  1010 464  " fill-rule="nonzero" fill="#797979" stroke="none" />
</svg>