<?xml version="1.0" encoding="utf-8"?>
<svg version="1.1" xmlns:xlink="http://www.w3.org/1999/xlink" width="12px" height="12px" viewBox="708 516  12 12" xmlns="http://www.w3.org/2000/svg">
  <path d="M 714 516  C 717.36 516  720 518.64  720 522  C 720 525.36  717.36 528  714 528  C 710.64 528  708 525.36  708 522  C 708 518.64  710.64 516  714 516  Z " fill-rule="nonzero" fill="#f0f0f0" stroke="none" />
  <path d="M 714 516.5  C 717.08 516.5  719.5 518.92  719.5 522  C 719.5 525.08  717.08 527.5  714 527.5  C 710.92 527.5  708.5 525.08  708.5 522  C 708.5 518.92  710.92 516.5  714 516.5  Z " stroke-width="1" stroke="#797979" fill="none" />
  <path d="M 714 525  C 712.32 525  711 523.68  711 522  C 711 520.32  712.32 519  714 519  C 715.68 519  717 520.32  717 522  C 717 523.68  715.68 525  714 525  " fill-rule="nonzero" fill="#797979" stroke="none" />
</svg>