<?xml version="1.0" encoding="utf-8"?>
<svg version="1.1" xmlns:xlink="http://www.w3.org/1999/xlink" width="12px" height="12px" viewBox="706 483  12 12" xmlns="http://www.w3.org/2000/svg">
  <path d="M 712 483  C 715.36 483  718 485.64  718 489  C 718 492.36  715.36 495  712 495  C 708.64 495  706 492.36  706 489  C 706 485.64  708.64 483  712 483  Z " fill-rule="nonzero" fill="#f0f0f0" stroke="none" />
  <path d="M 712 483.5  C 715.08 483.5  717.5 485.92  717.5 489  C 717.5 492.08  715.08 494.5  712 494.5  C 708.92 494.5  706.5 492.08  706.5 489  C 706.5 485.92  708.92 483.5  712 483.5  Z " stroke-width="1" stroke="#797979" fill="none" />
  <path d="M 712 492  C 710.32 492  709 490.68  709 489  C 709 487.32  710.32 486  712 486  C 713.68 486  715 487.32  715 489  C 715 490.68  713.68 492  712 492  " fill-rule="nonzero" fill="#797979" stroke="none" />
</svg>