<?xml version="1.0" encoding="utf-8"?>
<svg version="1.1" xmlns:xlink="http://www.w3.org/1999/xlink" width="12px" height="12px" viewBox="608 552  12 12" xmlns="http://www.w3.org/2000/svg">
  <path d="M 614 552  C 617.36 552  620 554.64  620 558  C 620 561.36  617.36 564  614 564  C 610.64 564  608 561.36  608 558  C 608 554.64  610.64 552  614 552  Z " fill-rule="nonzero" fill="#f0f0f0" stroke="none" />
  <path d="M 614 552.5  C 617.08 552.5  619.5 554.92  619.5 558  C 619.5 561.08  617.08 563.5  614 563.5  C 610.92 563.5  608.5 561.08  608.5 558  C 608.5 554.92  610.92 552.5  614 552.5  Z " stroke-width="1" stroke="#797979" fill="none" />
  <path d="M 614 561  C 612.32 561  611 559.68  611 558  C 611 556.32  612.32 555  614 555  C 615.68 555  617 556.32  617 558  C 617 559.68  615.68 561  614 561  " fill-rule="nonzero" fill="#797979" stroke="none" />
</svg>