<?xml version="1.0" encoding="utf-8"?>
<svg version="1.1" xmlns:xlink="http://www.w3.org/1999/xlink" width="12px" height="12px" viewBox="695 552  12 12" xmlns="http://www.w3.org/2000/svg">
  <path d="M 701 552  C 704.36 552  707 554.64  707 558  C 707 561.36  704.36 564  701 564  C 697.64 564  695 561.36  695 558  C 695 554.64  697.64 552  701 552  Z " fill-rule="nonzero" fill="#f0f0f0" stroke="none" />
  <path d="M 701 552.5  C 704.08 552.5  706.5 554.92  706.5 558  C 706.5 561.08  704.08 563.5  701 563.5  C 697.92 563.5  695.5 561.08  695.5 558  C 695.5 554.92  697.92 552.5  701 552.5  Z " stroke-width="1" stroke="#797979" fill="none" />
  <path d="M 701 561  C 699.32 561  698 559.68  698 558  C 698 556.32  699.32 555  701 555  C 702.68 555  704 556.32  704 558  C 704 559.68  702.68 561  701 561  " fill-rule="nonzero" fill="#797979" stroke="none" />
</svg>