<?xml version="1.0" encoding="utf-8"?>
<svg version="1.1" xmlns:xlink="http://www.w3.org/1999/xlink" width="12px" height="12px" viewBox="608 515  12 12" xmlns="http://www.w3.org/2000/svg">
  <path d="M 614 515  C 617.36 515  620 517.64  620 521  C 620 524.36  617.36 527  614 527  C 610.64 527  608 524.36  608 521  C 608 517.64  610.64 515  614 515  Z " fill-rule="nonzero" fill="#f0f0f0" stroke="none" />
  <path d="M 614 515.5  C 617.08 515.5  619.5 517.92  619.5 521  C 619.5 524.08  617.08 526.5  614 526.5  C 610.92 526.5  608.5 524.08  608.5 521  C 608.5 517.92  610.92 515.5  614 515.5  Z " stroke-width="1" stroke="#797979" fill="none" />
  <path d="M 614 524  C 612.32 524  611 522.68  611 521  C 611 519.32  612.32 518  614 518  C 615.68 518  617 519.32  617 521  C 617 522.68  615.68 524  614 524  " fill-rule="nonzero" fill="#797979" stroke="none" />
</svg>