<?xml version="1.0" encoding="utf-8"?>
<svg version="1.1" xmlns:xlink="http://www.w3.org/1999/xlink" width="12px" height="12px" viewBox="763 338  12 12" xmlns="http://www.w3.org/2000/svg">
  <path d="M 769 338  C 772.36 338  775 340.64  775 344  C 775 347.36  772.36 350  769 350  C 765.64 350  763 347.36  763 344  C 763 340.64  765.64 338  769 338  Z " fill-rule="nonzero" fill="#ffffff" stroke="none" />
  <path d="M 769 338.5  C 772.08 338.5  774.5 340.92  774.5 344  C 774.5 347.08  772.08 349.5  769 349.5  C 765.92 349.5  763.5 347.08  763.5 344  C 763.5 340.92  765.92 338.5  769 338.5  Z " stroke-width="1" stroke="#797979" fill="none" />
  <path d="M 769 347  C 767.32 347  766 345.68  766 344  C 766 342.32  767.32 341  769 341  C 770.68 341  772 342.32  772 344  C 772 345.68  770.68 347  769 347  " fill-rule="nonzero" fill="#797979" stroke="none" />
</svg>