<?xml version="1.0" encoding="utf-8"?>
<svg version="1.1" xmlns:xlink="http://www.w3.org/1999/xlink" width="12px" height="12px" viewBox="644 371  12 12" xmlns="http://www.w3.org/2000/svg">
  <path d="M 650 371  C 653.36 371  656 373.64  656 377  C 656 380.36  653.36 383  650 383  C 646.64 383  644 380.36  644 377  C 644 373.64  646.64 371  650 371  Z " fill-rule="nonzero" fill="#f0f0f0" stroke="none" />
  <path d="M 650 371.5  C 653.08 371.5  655.5 373.92  655.5 377  C 655.5 380.08  653.08 382.5  650 382.5  C 646.92 382.5  644.5 380.08  644.5 377  C 644.5 373.92  646.92 371.5  650 371.5  Z " stroke-width="1" stroke="#797979" fill="none" />
  <path d="M 650 380  C 648.32 380  647 378.68  647 377  C 647 375.32  648.32 374  650 374  C 651.68 374  653 375.32  653 377  C 653 378.68  651.68 380  650 380  " fill-rule="nonzero" fill="#797979" stroke="none" />
</svg>