<?xml version="1.0" encoding="utf-8"?>
<svg version="1.1" xmlns:xlink="http://www.w3.org/1999/xlink" width="12px" height="12px" viewBox="763 471  12 12" xmlns="http://www.w3.org/2000/svg">
  <path d="M 769 471  C 772.36 471  775 473.64  775 477  C 775 480.36  772.36 483  769 483  C 765.64 483  763 480.36  763 477  C 763 473.64  765.64 471  769 471  Z " fill-rule="nonzero" fill="#f0f0f0" stroke="none" />
  <path d="M 769 471.5  C 772.08 471.5  774.5 473.92  774.5 477  C 774.5 480.08  772.08 482.5  769 482.5  C 765.92 482.5  763.5 480.08  763.5 477  C 763.5 473.92  765.92 471.5  769 471.5  Z " stroke-width="1" stroke="#797979" fill="none" />
  <path d="M 769 480  C 767.32 480  766 478.68  766 477  C 766 475.32  767.32 474  769 474  C 770.68 474  772 475.32  772 477  C 772 478.68  770.68 480  769 480  " fill-rule="nonzero" fill="#797979" stroke="none" />
</svg>