<?xml version="1.0" encoding="utf-8"?>
<svg version="1.1" xmlns:xlink="http://www.w3.org/1999/xlink" width="12px" height="12px" viewBox="763 371  12 12" xmlns="http://www.w3.org/2000/svg">
  <path d="M 769 371  C 772.36 371  775 373.64  775 377  C 775 380.36  772.36 383  769 383  C 765.64 383  763 380.36  763 377  C 763 373.64  765.64 371  769 371  Z " fill-rule="nonzero" fill="#ffffff" stroke="none" />
  <path d="M 769 371.5  C 772.08 371.5  774.5 373.92  774.5 377  C 774.5 380.08  772.08 382.5  769 382.5  C 765.92 382.5  763.5 380.08  763.5 377  C 763.5 373.92  765.92 371.5  769 371.5  Z " stroke-width="1" stroke="#797979" fill="none" />
  <path d="M 769 380  C 767.32 380  766 378.68  766 377  C 766 375.32  767.32 374  769 374  C 770.68 374  772 375.32  772 377  C 772 378.68  770.68 380  769 380  " fill-rule="nonzero" fill="#797979" stroke="none" />
</svg>