<?xml version="1.0" encoding="utf-8"?>
<svg version="1.1" xmlns:xlink="http://www.w3.org/1999/xlink" width="12px" height="12px" viewBox="644 338  12 12" xmlns="http://www.w3.org/2000/svg">
  <path d="M 650 338  C 653.36 338  656 340.64  656 344  C 656 347.36  653.36 350  650 350  C 646.64 350  644 347.36  644 344  C 644 340.64  646.64 338  650 338  Z " fill-rule="nonzero" fill="#ffffff" stroke="none" />
  <path d="M 650 338.5  C 653.08 338.5  655.5 340.92  655.5 344  C 655.5 347.08  653.08 349.5  650 349.5  C 646.92 349.5  644.5 347.08  644.5 344  C 644.5 340.92  646.92 338.5  650 338.5  Z " stroke-width="1" stroke="#797979" fill="none" />
  <path d="M 650 347  C 648.32 347  647 345.68  647 344  C 647 342.32  648.32 341  650 341  C 651.68 341  653 342.32  653 344  C 653 345.68  651.68 347  650 347  " fill-rule="nonzero" fill="#797979" stroke="none" />
</svg>