<?xml version="1.0" encoding="utf-8"?>
<svg version="1.1" xmlns:xlink="http://www.w3.org/1999/xlink" width="12px" height="12px" viewBox="644 471  12 12" xmlns="http://www.w3.org/2000/svg">
  <path d="M 650 471  C 653.36 471  656 473.64  656 477  C 656 480.36  653.36 483  650 483  C 646.64 483  644 480.36  644 477  C 644 473.64  646.64 471  650 471  Z " fill-rule="nonzero" fill="#ffffff" stroke="none" />
  <path d="M 650 471.5  C 653.08 471.5  655.5 473.92  655.5 477  C 655.5 480.08  653.08 482.5  650 482.5  C 646.92 482.5  644.5 480.08  644.5 477  C 644.5 473.92  646.92 471.5  650 471.5  Z " stroke-width="1" stroke="#797979" fill="none" />
  <path d="M 650 480  C 648.32 480  647 478.68  647 477  C 647 475.32  648.32 474  650 474  C 651.68 474  653 475.32  653 477  C 653 478.68  651.68 480  650 480  " fill-rule="nonzero" fill="#797979" stroke="none" />
</svg>