<?xml version="1.0" encoding="utf-8"?>
<svg version="1.1" xmlns:xlink="http://www.w3.org/1999/xlink" width="12px" height="12px" viewBox="3008 1599  12 12" xmlns="http://www.w3.org/2000/svg">
  <path d="M 3014 1599  C 3017.36 1599  3020 1601.64  3020 1605  C 3020 1608.36  3017.36 1611  3014 1611  C 3010.64 1611  3008 1608.36  3008 1605  C 3008 1601.64  3010.64 1599  3014 1599  Z " fill-rule="nonzero" fill="#ffffff" stroke="none" />
  <path d="M 3014 1599.5  C 3017.08 1599.5  3019.5 1601.92  3019.5 1605  C 3019.5 1608.08  3017.08 1610.5  3014 1610.5  C 3010.92 1610.5  3008.5 1608.08  3008.5 1605  C 3008.5 1601.92  3010.92 1599.5  3014 1599.5  Z " stroke-width="1" stroke="#797979" fill="none" />
  <path d="M 3014 1608  C 3012.32 1608  3011 1606.68  3011 1605  C 3011 1603.32  3012.32 1602  3014 1602  C 3015.68 1602  3017 1603.32  3017 1605  C 3017 1606.68  3015.68 1608  3014 1608  " fill-rule="nonzero" fill="#797979" stroke="none" />
</svg>