<?xml version="1.0" encoding="utf-8"?>
<svg version="1.1" xmlns:xlink="http://www.w3.org/1999/xlink" width="12px" height="12px" viewBox="3008 1559  12 12" xmlns="http://www.w3.org/2000/svg">
  <path d="M 3014 1559  C 3017.36 1559  3020 1561.64  3020 1565  C 3020 1568.36  3017.36 1571  3014 1571  C 3010.64 1571  3008 1568.36  3008 1565  C 3008 1561.64  3010.64 1559  3014 1559  Z " fill-rule="nonzero" fill="#f0f0f0" stroke="none" />
  <path d="M 3014 1559.5  C 3017.08 1559.5  3019.5 1561.92  3019.5 1565  C 3019.5 1568.08  3017.08 1570.5  3014 1570.5  C 3010.92 1570.5  3008.5 1568.08  3008.5 1565  C 3008.5 1561.92  3010.92 1559.5  3014 1559.5  Z " stroke-width="1" stroke="#797979" fill="none" />
  <path d="M 3014 1568  C 3012.32 1568  3011 1566.68  3011 1565  C 3011 1563.32  3012.32 1562  3014 1562  C 3015.68 1562  3017 1563.32  3017 1565  C 3017 1566.68  3015.68 1568  3014 1568  " fill-rule="nonzero" fill="#797979" stroke="none" />
</svg>