<?xml version="1.0" encoding="utf-8"?>
<svg version="1.1" xmlns:xlink="http://www.w3.org/1999/xlink" width="12px" height="12px" viewBox="3008 1632  12 12" xmlns="http://www.w3.org/2000/svg">
  <path d="M 3014 1632  C 3017.36 1632  3020 1634.64  3020 1638  C 3020 1641.36  3017.36 1644  3014 1644  C 3010.64 1644  3008 1641.36  3008 1638  C 3008 1634.64  3010.64 1632  3014 1632  Z " fill-rule="nonzero" fill="#f0f0f0" stroke="none" />
  <path d="M 3014 1632.5  C 3017.08 1632.5  3019.5 1634.92  3019.5 1638  C 3019.5 1641.08  3017.08 1643.5  3014 1643.5  C 3010.92 1643.5  3008.5 1641.08  3008.5 1638  C 3008.5 1634.92  3010.92 1632.5  3014 1632.5  Z " stroke-width="1" stroke="#797979" fill="none" />
  <path d="M 3014 1641  C 3012.32 1641  3011 1639.68  3011 1638  C 3011 1636.32  3012.32 1635  3014 1635  C 3015.68 1635  3017 1636.32  3017 1638  C 3017 1639.68  3015.68 1641  3014 1641  " fill-rule="nonzero" fill="#797979" stroke="none" />
</svg>