<?xml version="1.0" encoding="utf-8"?>
<svg version="1.1" xmlns:xlink="http://www.w3.org/1999/xlink" width="12px" height="12px" viewBox="3008 1733  12 12" xmlns="http://www.w3.org/2000/svg">
  <path d="M 3014 1733  C 3017.36 1733  3020 1735.64  3020 1739  C 3020 1742.36  3017.36 1745  3014 1745  C 3010.64 1745  3008 1742.36  3008 1739  C 3008 1735.64  3010.64 1733  3014 1733  Z " fill-rule="nonzero" fill="#f0f0f0" stroke="none" />
  <path d="M 3014 1733.5  C 3017.08 1733.5  3019.5 1735.92  3019.5 1739  C 3019.5 1742.08  3017.08 1744.5  3014 1744.5  C 3010.92 1744.5  3008.5 1742.08  3008.5 1739  C 3008.5 1735.92  3010.92 1733.5  3014 1733.5  Z " stroke-width="1" stroke="#797979" fill="none" />
  <path d="M 3014 1742  C 3012.32 1742  3011 1740.68  3011 1739  C 3011 1737.32  3012.32 1736  3014 1736  C 3015.68 1736  3017 1737.32  3017 1739  C 3017 1740.68  3015.68 1742  3014 1742  " fill-rule="nonzero" fill="#797979" stroke="none" />
</svg>