<?xml version="1.0" encoding="utf-8"?>
<svg version="1.1" xmlns:xlink="http://www.w3.org/1999/xlink" width="12px" height="12px" viewBox="3008 1521  12 12" xmlns="http://www.w3.org/2000/svg">
  <path d="M 3014 1521  C 3017.36 1521  3020 1523.64  3020 1527  C 3020 1530.36  3017.36 1533  3014 1533  C 3010.64 1533  3008 1530.36  3008 1527  C 3008 1523.64  3010.64 1521  3014 1521  Z " fill-rule="nonzero" fill="#f0f0f0" stroke="none" />
  <path d="M 3014 1521.5  C 3017.08 1521.5  3019.5 1523.92  3019.5 1527  C 3019.5 1530.08  3017.08 1532.5  3014 1532.5  C 3010.92 1532.5  3008.5 1530.08  3008.5 1527  C 3008.5 1523.92  3010.92 1521.5  3014 1521.5  Z " stroke-width="1" stroke="#797979" fill="none" />
  <path d="M 3014 1530  C 3012.32 1530  3011 1528.68  3011 1527  C 3011 1525.32  3012.32 1524  3014 1524  C 3015.68 1524  3017 1525.32  3017 1527  C 3017 1528.68  3015.68 1530  3014 1530  " fill-rule="nonzero" fill="#797979" stroke="none" />
</svg>