<?xml version="1.0" encoding="utf-8"?>
<svg version="1.1" xmlns:xlink="http://www.w3.org/1999/xlink" width="12px" height="12px" viewBox="696 500  12 12" xmlns="http://www.w3.org/2000/svg">
  <path d="M 702 500  C 705.36 500  708 502.64  708 506  C 708 509.36  705.36 512  702 512  C 698.64 512  696 509.36  696 506  C 696 502.64  698.64 500  702 500  Z " fill-rule="nonzero" fill="#ffffff" stroke="none" />
  <path d="M 702 500.5  C 705.08 500.5  707.5 502.92  707.5 506  C 707.5 509.08  705.08 511.5  702 511.5  C 698.92 511.5  696.5 509.08  696.5 506  C 696.5 502.92  698.92 500.5  702 500.5  Z " stroke-width="1" stroke="#797979" fill="none" />
  <path d="M 702 509  C 700.32 509  699 507.68  699 506  C 699 504.32  700.32 503  702 503  C 703.68 503  705 504.32  705 506  C 705 507.68  703.68 509  702 509  " fill-rule="nonzero" fill="#797979" stroke="none" />
</svg>