<?xml version="1.0" encoding="utf-8"?>
<svg version="1.1" xmlns:xlink="http://www.w3.org/1999/xlink" width="12px" height="12px" viewBox="989 471  12 12" xmlns="http://www.w3.org/2000/svg">
  <path d="M 995 471  C 998.36 471  1001 473.64  1001 477  C 1001 480.36  998.36 483  995 483  C 991.64 483  989 480.36  989 477  C 989 473.64  991.64 471  995 471  Z " fill-rule="nonzero" fill="#ffffff" stroke="none" />
  <path d="M 995 471.5  C 998.08 471.5  1000.5 473.92  1000.5 477  C 1000.5 480.08  998.08 482.5  995 482.5  C 991.92 482.5  989.5 480.08  989.5 477  C 989.5 473.92  991.92 471.5  995 471.5  Z " stroke-width="1" stroke="#797979" fill="none" />
  <path d="M 995 480  C 993.32 480  992 478.68  992 477  C 992 475.32  993.32 474  995 474  C 996.68 474  998 475.32  998 477  C 998 478.68  996.68 480  995 480  " fill-rule="nonzero" fill="#797979" stroke="none" />
</svg>