<?xml version="1.0" encoding="utf-8"?>
<svg version="1.1" xmlns:xlink="http://www.w3.org/1999/xlink" width="12px" height="12px" viewBox="989 438  12 12" xmlns="http://www.w3.org/2000/svg">
  <path d="M 995 438  C 998.36 438  1001 440.64  1001 444  C 1001 447.36  998.36 450  995 450  C 991.64 450  989 447.36  989 444  C 989 440.64  991.64 438  995 438  Z " fill-rule="nonzero" fill="#f0f0f0" stroke="none" />
  <path d="M 995 438.5  C 998.08 438.5  1000.5 440.92  1000.5 444  C 1000.5 447.08  998.08 449.5  995 449.5  C 991.92 449.5  989.5 447.08  989.5 444  C 989.5 440.92  991.92 438.5  995 438.5  Z " stroke-width="1" stroke="#797979" fill="none" />
  <path d="M 995 447  C 993.32 447  992 445.68  992 444  C 992 442.32  993.32 441  995 441  C 996.68 441  998 442.32  998 444  C 998 445.68  996.68 447  995 447  " fill-rule="nonzero" fill="#797979" stroke="none" />
</svg>