<?xml version="1.0" encoding="utf-8"?>
<svg version="1.1" xmlns:xlink="http://www.w3.org/1999/xlink" width="12px" height="12px" viewBox="662 425  12 12" xmlns="http://www.w3.org/2000/svg">
  <path d="M 668 425  C 671.36 425  674 427.64  674 431  C 674 434.36  671.36 437  668 437  C 664.64 437  662 434.36  662 431  C 662 427.64  664.64 425  668 425  Z " fill-rule="nonzero" fill="#f0f0f0" stroke="none" />
  <path d="M 668 425.5  C 671.08 425.5  673.5 427.92  673.5 431  C 673.5 434.08  671.08 436.5  668 436.5  C 664.92 436.5  662.5 434.08  662.5 431  C 662.5 427.92  664.92 425.5  668 425.5  Z " stroke-width="1" stroke="#797979" fill="none" />
  <path d="M 668 434  C 666.32 434  665 432.68  665 431  C 665 429.32  666.32 428  668 428  C 669.68 428  671 429.32  671 431  C 671 432.68  669.68 434  668 434  " fill-rule="nonzero" fill="#797979" stroke="none" />
</svg>