<?xml version="1.0" encoding="utf-8"?>
<svg version="1.1" xmlns:xlink="http://www.w3.org/1999/xlink" width="12px" height="12px" viewBox="596 425  12 12" xmlns="http://www.w3.org/2000/svg">
  <path d="M 602 425  C 605.36 425  608 427.64  608 431  C 608 434.36  605.36 437  602 437  C 598.64 437  596 434.36  596 431  C 596 427.64  598.64 425  602 425  Z " fill-rule="nonzero" fill="#f0f0f0" stroke="none" />
  <path d="M 602 425.5  C 605.08 425.5  607.5 427.92  607.5 431  C 607.5 434.08  605.08 436.5  602 436.5  C 598.92 436.5  596.5 434.08  596.5 431  C 596.5 427.92  598.92 425.5  602 425.5  Z " stroke-width="1" stroke="#797979" fill="none" />
  <path d="M 602 434  C 600.32 434  599 432.68  599 431  C 599 429.32  600.32 428  602 428  C 603.68 428  605 429.32  605 431  C 605 432.68  603.68 434  602 434  " fill-rule="nonzero" fill="#797979" stroke="none" />
</svg>