<?xml version="1.0" encoding="utf-8"?>
<svg version="1.1" xmlns:xlink="http://www.w3.org/1999/xlink" width="12px" height="12px" viewBox="696 568  12 12" xmlns="http://www.w3.org/2000/svg">
  <path d="M 702 568  C 705.36 568  708 570.64  708 574  C 708 577.36  705.36 580  702 580  C 698.64 580  696 577.36  696 574  C 696 570.64  698.64 568  702 568  Z " fill-rule="nonzero" fill="#ffffff" stroke="none" />
  <path d="M 702 568.5  C 705.08 568.5  707.5 570.92  707.5 574  C 707.5 577.08  705.08 579.5  702 579.5  C 698.92 579.5  696.5 577.08  696.5 574  C 696.5 570.92  698.92 568.5  702 568.5  Z " stroke-width="1" stroke="#797979" fill="none" />
  <path d="M 702 577  C 700.32 577  699 575.68  699 574  C 699 572.32  700.32 571  702 571  C 703.68 571  705 572.32  705 574  C 705 575.68  703.68 577  702 577  " fill-rule="nonzero" fill="#797979" stroke="none" />
</svg>