<?xml version="1.0" encoding="utf-8"?>
<svg version="1.1" xmlns:xlink="http://www.w3.org/1999/xlink" width="12px" height="12px" viewBox="989 398  12 12" xmlns="http://www.w3.org/2000/svg">
  <path d="M 995 398  C 998.36 398  1001 400.64  1001 404  C 1001 407.36  998.36 410  995 410  C 991.64 410  989 407.36  989 404  C 989 400.64  991.64 398  995 398  Z " fill-rule="nonzero" fill="#f0f0f0" stroke="none" />
  <path d="M 995 398.5  C 998.08 398.5  1000.5 400.92  1000.5 404  C 1000.5 407.08  998.08 409.5  995 409.5  C 991.92 409.5  989.5 407.08  989.5 404  C 989.5 400.92  991.92 398.5  995 398.5  Z " stroke-width="1" stroke="#797979" fill="none" />
  <path d="M 995 407  C 993.32 407  992 405.68  992 404  C 992 402.32  993.32 401  995 401  C 996.68 401  998 402.32  998 404  C 998 405.68  996.68 407  995 407  " fill-rule="nonzero" fill="#797979" stroke="none" />
</svg>