<?xml version="1.0" encoding="utf-8"?>
<svg version="1.1" xmlns:xlink="http://www.w3.org/1999/xlink" width="12px" height="12px" viewBox="989 360  12 12" xmlns="http://www.w3.org/2000/svg">
  <path d="M 995 360  C 998.36 360  1001 362.64  1001 366  C 1001 369.36  998.36 372  995 372  C 991.64 372  989 369.36  989 366  C 989 362.64  991.64 360  995 360  Z " fill-rule="nonzero" fill="#ffffff" stroke="none" />
  <path d="M 995 360.5  C 998.08 360.5  1000.5 362.92  1000.5 366  C 1000.5 369.08  998.08 371.5  995 371.5  C 991.92 371.5  989.5 369.08  989.5 366  C 989.5 362.92  991.92 360.5  995 360.5  Z " stroke-width="1" stroke="#797979" fill="none" />
  <path d="M 995 369  C 993.32 369  992 367.68  992 366  C 992 364.32  993.32 363  995 363  C 996.68 363  998 364.32  998 366  C 998 367.68  996.68 369  995 369  " fill-rule="nonzero" fill="#797979" stroke="none" />
</svg>