<?xml version="1.0" encoding="utf-8"?>
<svg version="1.1" xmlns:xlink="http://www.w3.org/1999/xlink" width="12px" height="12px" viewBox="596 500  12 12" xmlns="http://www.w3.org/2000/svg">
  <path d="M 602 500  C 605.36 500  608 502.64  608 506  C 608 509.36  605.36 512  602 512  C 598.64 512  596 509.36  596 506  C 596 502.64  598.64 500  602 500  Z " fill-rule="nonzero" fill="#ffffff" stroke="none" />
  <path d="M 602 500.5  C 605.08 500.5  607.5 502.92  607.5 506  C 607.5 509.08  605.08 511.5  602 511.5  C 598.92 511.5  596.5 509.08  596.5 506  C 596.5 502.92  598.92 500.5  602 500.5  Z " stroke-width="1" stroke="#797979" fill="none" />
  <path d="M 602 509  C 600.32 509  599 507.68  599 506  C 599 504.32  600.32 503  602 503  C 603.68 503  605 504.32  605 506  C 605 507.68  603.68 509  602 509  " fill-rule="nonzero" fill="#797979" stroke="none" />
</svg>