<?xml version="1.0" encoding="utf-8"?>
<svg version="1.1" xmlns:xlink="http://www.w3.org/1999/xlink" width="12px" height="12px" viewBox="696 398  12 12" xmlns="http://www.w3.org/2000/svg">
  <path d="M 702 398  C 705.36 398  708 400.64  708 404  C 708 407.36  705.36 410  702 410  C 698.64 410  696 407.36  696 404  C 696 400.64  698.64 398  702 398  Z " fill-rule="nonzero" fill="#ffffff" stroke="none" />
  <path d="M 702 398.5  C 705.08 398.5  707.5 400.92  707.5 404  C 707.5 407.08  705.08 409.5  702 409.5  C 698.92 409.5  696.5 407.08  696.5 404  C 696.5 400.92  698.92 398.5  702 398.5  Z " stroke-width="1" stroke="#797979" fill="none" />
  <path d="M 702 407  C 700.32 407  699 405.68  699 404  C 699 402.32  700.32 401  702 401  C 703.68 401  705 402.32  705 404  C 705 405.68  703.68 407  702 407  " fill-rule="nonzero" fill="#797979" stroke="none" />
</svg>