<?xml version="1.0" encoding="utf-8"?>
<svg version="1.1" xmlns:xlink="http://www.w3.org/1999/xlink" width="12px" height="12px" viewBox="596 568  12 12" xmlns="http://www.w3.org/2000/svg">
  <path d="M 602 568  C 605.36 568  608 570.64  608 574  C 608 577.36  605.36 580  602 580  C 598.64 580  596 577.36  596 574  C 596 570.64  598.64 568  602 568  Z " fill-rule="nonzero" fill="#ffffff" stroke="none" />
  <path d="M 602 568.5  C 605.08 568.5  607.5 570.92  607.5 574  C 607.5 577.08  605.08 579.5  602 579.5  C 598.92 579.5  596.5 577.08  596.5 574  C 596.5 570.92  598.92 568.5  602 568.5  Z " stroke-width="1" stroke="#797979" fill="none" />
  <path d="M 602 577  C 600.32 577  599 575.68  599 574  C 599 572.32  600.32 571  602 571  C 603.68 571  605 572.32  605 574  C 605 575.68  603.68 577  602 577  " fill-rule="nonzero" fill="#797979" stroke="none" />
</svg>