<?xml version="1.0" encoding="utf-8"?>
<svg version="1.1" xmlns:xlink="http://www.w3.org/1999/xlink" width="12px" height="12px" viewBox="2628 574  12 12" xmlns="http://www.w3.org/2000/svg">
  <path d="M 2634 574  C 2637.36 574  2640 576.64  2640 580  C 2640 583.36  2637.36 586  2634 586  C 2630.64 586  2628 583.36  2628 580  C 2628 576.64  2630.64 574  2634 574  Z " fill-rule="nonzero" fill="#ffffff" stroke="none" />
  <path d="M 2634 574.5  C 2637.08 574.5  2639.5 576.92  2639.5 580  C 2639.5 583.08  2637.08 585.5  2634 585.5  C 2630.92 585.5  2628.5 583.08  2628.5 580  C 2628.5 576.92  2630.92 574.5  2634 574.5  Z " stroke-width="1" stroke="#797979" fill="none" />
  <path d="M 2634 583  C 2632.32 583  2631 581.68  2631 580  C 2631 578.32  2632.32 577  2634 577  C 2635.68 577  2637 578.32  2637 580  C 2637 581.68  2635.68 583  2634 583  " fill-rule="nonzero" fill="#797979" stroke="none" />
</svg>