<?xml version="1.0" encoding="utf-8"?>
<svg version="1.1" xmlns:xlink="http://www.w3.org/1999/xlink" width="12px" height="12px" viewBox="2715 574  12 12" xmlns="http://www.w3.org/2000/svg">
  <path d="M 2721 574  C 2724.36 574  2727 576.64  2727 580  C 2727 583.36  2724.36 586  2721 586  C 2717.64 586  2715 583.36  2715 580  C 2715 576.64  2717.64 574  2721 574  Z " fill-rule="nonzero" fill="#ffffff" stroke="none" />
  <path d="M 2721 574.5  C 2724.08 574.5  2726.5 576.92  2726.5 580  C 2726.5 583.08  2724.08 585.5  2721 585.5  C 2717.92 585.5  2715.5 583.08  2715.5 580  C 2715.5 576.92  2717.92 574.5  2721 574.5  Z " stroke-width="1" stroke="#797979" fill="none" />
  <path d="M 2721 583  C 2719.32 583  2718 581.68  2718 580  C 2718 578.32  2719.32 577  2721 577  C 2722.68 577  2724 578.32  2724 580  C 2724 581.68  2722.68 583  2721 583  " fill-rule="nonzero" fill="#797979" stroke="none" />
</svg>