<?xml version="1.0" encoding="utf-8"?>
<svg version="1.1" xmlns:xlink="http://www.w3.org/1999/xlink" width="12px" height="12px" viewBox="608 1765  12 12" xmlns="http://www.w3.org/2000/svg">
  <path d="M 614 1765  C 617.36 1765  620 1767.64  620 1771  C 620 1774.36  617.36 1777  614 1777  C 610.64 1777  608 1774.36  608 1771  C 608 1767.64  610.64 1765  614 1765  Z " fill-rule="nonzero" fill="#ffffff" stroke="none" />
  <path d="M 614 1765.5  C 617.08 1765.5  619.5 1767.92  619.5 1771  C 619.5 1774.08  617.08 1776.5  614 1776.5  C 610.92 1776.5  608.5 1774.08  608.5 1771  C 608.5 1767.92  610.92 1765.5  614 1765.5  Z " stroke-width="1" stroke="#797979" fill="none" />
  <path d="M 614 1774  C 612.32 1774  611 1772.68  611 1771  C 611 1769.32  612.32 1768  614 1768  C 615.68 1768  617 1769.32  617 1771  C 617 1772.68  615.68 1774  614 1774  " fill-rule="nonzero" fill="#797979" stroke="none" />
</svg>