<?xml version="1.0" encoding="utf-8"?>
<svg version="1.1" xmlns:xlink="http://www.w3.org/1999/xlink" width="12px" height="12px" viewBox="695 576  12 12" xmlns="http://www.w3.org/2000/svg">
  <path d="M 701 576  C 704.36 576  707 578.64  707 582  C 707 585.36  704.36 588  701 588  C 697.64 588  695 585.36  695 582  C 695 578.64  697.64 576  701 576  Z " fill-rule="nonzero" fill="#ffffff" stroke="none" />
  <path d="M 701 576.5  C 704.08 576.5  706.5 578.92  706.5 582  C 706.5 585.08  704.08 587.5  701 587.5  C 697.92 587.5  695.5 585.08  695.5 582  C 695.5 578.92  697.92 576.5  701 576.5  Z " stroke-width="1" stroke="#797979" fill="none" />
  <path d="M 701 585  C 699.32 585  698 583.68  698 582  C 698 580.32  699.32 579  701 579  C 702.68 579  704 580.32  704 582  C 704 583.68  702.68 585  701 585  " fill-rule="nonzero" fill="#797979" stroke="none" />
</svg>