<?xml version="1.0" encoding="utf-8"?>
<svg version="1.1" xmlns:xlink="http://www.w3.org/1999/xlink" width="25px" height="15px" xmlns="http://www.w3.org/2000/svg">
  <g transform="matrix(1 0 0 1 -796 -219 )">
    <path d="M 0.602476058467801 10.412109375  C 0.200825352822676 9.486328125  0 8.515625  0 7.5  C 0 6.484375  0.200825352822676 5.513671875  0.602476058467801 4.587890625  C 1.00412676411293 3.662109375  1.54162991431463 2.865234375  2.21498550907268 2.197265625  C 2.88834110383073 1.529296875  3.69164251512098 0.99609375  4.62488974294365 0.59765625  C 5.5581369707661 0.19921875  6.53666834677415 0  7.5604838709678 0  L 16.633064516129 0  C 17.6568800403227 0  18.6354114163307 0.19921875  19.5686586441532 0.59765625  C 20.5019058719759 0.99609375  21.3052072832661 1.529296875  21.9785628780242 2.197265625  C 22.6519184727822 2.865234375  23.1894216229839 3.662109375  23.591072328629 4.587890625  C 23.9927230342742 5.513671875  24.1935483870968 6.484375  24.1935483870968 7.5  C 24.1935483870968 8.515625  23.9927230342742 9.486328125  23.591072328629 10.412109375  C 23.1894216229839 11.337890625  22.6519184727822 12.134765625  21.9785628780242 12.802734375  C 21.3052072832661 13.470703125  20.5019058719759 14.00390625  19.5686586441532 14.40234375  C 18.6354114163307 14.80078125  17.6568800403227 15  16.633064516129 15  L 7.5604838709678 15  C 6.53666834677415 15  5.5581369707661 14.80078125  4.62488974294365 14.40234375  C 3.69164251512098 14.00390625  2.88834110383073 13.470703125  2.21498550907268 12.802734375  C 1.54162991431463 12.134765625  1.00412676411293 11.337890625  0.602476058467801 10.412109375  Z M 14.2881331905241 13.025390625  C 15.0323683215727 13.341796875  15.8140120967741 13.5  16.633064516129 13.5  C 17.4521169354839 13.5  18.2337607106856 13.341796875  18.9779958417339 13.025390625  C 19.7222309727822 12.708984375  20.3660534274195 12.28125  20.9094632056451 11.7421875  C 21.452872983871 11.203125  21.8840568296371 10.564453125  22.2030147429437 9.826171875  C 22.52197265625 9.087890625  22.6814516129032 8.3125  22.6814516129032 7.5  C 22.6814516129032 6.6875  22.52197265625 5.912109375  22.2030147429437 5.173828125  C 21.8840568296371 4.435546875  21.452872983871 3.796875  20.9094632056451 3.2578125  C 20.3660534274195 2.71875  19.7222309727822 2.291015625  18.9779958417339 1.974609375  C 18.2337607106856 1.658203125  17.4521169354839 1.5  16.633064516129 1.5  C 15.8140120967741 1.5  15.0323683215727 1.658203125  14.2881331905241 1.974609375  C 13.5438980594759 2.291015625  12.9000756048388 2.71875  12.3566658266129 3.2578125  C 11.8132560483871 3.796875  11.382072202621 4.435546875  11.0631142893146 5.173828125  C 10.744156376008 5.912109375  10.5846774193549 6.6875  10.5846774193549 7.5  C 10.5846774193549 8.3125  10.744156376008 9.087890625  11.0631142893146 9.826171875  C 11.382072202621 10.564453125  11.8132560483871 11.203125  12.3566658266129 11.7421875  C 12.9000756048388 12.28125  13.5438980594759 12.708984375  14.2881331905241 13.025390625  Z " fill-rule="nonzero" fill="#000000" stroke="none" transform="matrix(1 0 0 1 796 219 )" />
  </g>
</svg>