<?xml version="1.0" encoding="utf-8"?>
<svg version="1.1" xmlns:xlink="http://www.w3.org/1999/xlink" width="12px" height="12px" xmlns="http://www.w3.org/2000/svg">
  <g transform="matrix(1 0 0 1 -563 -380 )">
    <path d="M 8.57142857142856 2.57142857142856  L 11.3571428571429 2.57142857142856  C 11.5357142857143 2.57142857142856  11.6875 2.63392857142856  11.8125 2.75892857142856  C 11.9375 2.88392857142856  12 3.03571428571428  12 3.21428571428572  L 12 11.3571428571428  C 12 11.5357142857143  11.9375 11.6875  11.8125 11.8125  C 11.6875 11.9375  11.5357142857143 12  11.3571428571429 12  L 4.92857142857144 12  C 4.75 12  4.59821428571433 11.9375  4.47321428571433 11.8125  C 4.34821428571433 11.6875  4.28571428571433 11.5357142857143  4.28571428571433 11.3571428571428  L 4.28571428571433 9.42857142857144  L 0.64285714285711 9.42857142857144  C 0.464285714285666 9.42857142857144  0.3125 9.36607142857144  0.1875 9.24107142857144  C 0.0625 9.11607142857144  0 8.96428571428572  0 8.78571428571428  L 0 4.28571428571428  C 0 4.10714285714283  0.0446428571428896 3.91071428571428  0.133928571428555 3.69642857142856  C 0.223214285714334 3.48214285714283  0.33035714285711 3.3125  0.45535714285711 3.1875  L 3.1875 0.455357142857167  C 3.3125 0.330357142857167  3.48214285714289 0.223214285714278  3.69642857142856 0.133928571428555  C 3.91071428571433 0.0446428571428328  4.10714285714289 0  4.28571428571433 0  L 7.07142857142856 0  C 7.25 0  7.40178571428567 0.0625  7.52678571428567 0.1875  C 7.65178571428567 0.3125  7.71428571428567 0.464285714285722  7.71428571428567 0.642857142857167  L 7.71428571428567 2.83928571428572  C 8.01785714285711 2.66071428571428  8.30357142857144 2.57142857142856  8.57142857142856 2.57142857142856  Z M 7.71428571428567 6  L 7.71428571428567 3.99776785714283  L 5.71205357142856 6  L 7.71428571428567 6  Z M 3.42857142857144 3.42857142857144  L 3.42857142857144 1.42633928571428  L 1.42633928571433 3.42857142857144  L 3.42857142857144 3.42857142857144  Z M 4.41964285714289 6.26785714285717  C 4.50892857142856 6.05357142857144  4.61607142857144 5.88392857142856  4.74107142857144 5.75892857142856  L 6.85714285714289 3.64285714285717  L 6.85714285714289 0.857142857142833  L 4.28571428571433 0.857142857142833  L 4.28571428571433 3.64285714285717  C 4.28571428571433 3.82142857142856  4.22321428571433 3.97321428571428  4.09821428571433 4.09821428571428  C 3.97321428571433 4.22321428571428  3.82142857142856 4.28571428571428  3.64285714285711 4.28571428571428  L 0.85714285714289 4.28571428571428  L 0.85714285714289 8.57142857142856  L 4.28571428571433 8.57142857142856  L 4.28571428571433 6.85714285714283  C 4.28571428571433 6.67857142857144  4.33035714285711 6.48214285714283  4.41964285714289 6.26785714285717  Z M 5.14285714285711 11.1428571428572  L 11.1428571428571 11.1428571428572  L 11.1428571428571 3.42857142857144  L 8.57142857142856 3.42857142857144  L 8.57142857142856 6.21428571428572  C 8.57142857142856 6.39285714285717  8.50892857142856 6.54464285714283  8.38392857142856 6.66964285714283  C 8.25892857142856 6.79464285714283  8.10714285714289 6.85714285714283  7.92857142857144 6.85714285714283  L 5.14285714285711 6.85714285714283  L 5.14285714285711 11.1428571428572  Z " fill-rule="nonzero" fill="#198dff" stroke="none" transform="matrix(1 0 0 1 563 380 )" />
  </g>
</svg>