<?xml version="1.0" encoding="utf-8"?>
<svg version="1.1" xmlns:xlink="http://www.w3.org/1999/xlink" width="12px" height="12px" viewBox="695 512  12 12" xmlns="http://www.w3.org/2000/svg">
  <path d="M 701 512  C 704.36 512  707 514.64  707 518  C 707 521.36  704.36 524  701 524  C 697.64 524  695 521.36  695 518  C 695 514.64  697.64 512  701 512  Z " fill-rule="nonzero" fill="#ffffff" stroke="none" />
  <path d="M 701 512.5  C 704.08 512.5  706.5 514.92  706.5 518  C 706.5 521.08  704.08 523.5  701 523.5  C 697.92 523.5  695.5 521.08  695.5 518  C 695.5 514.92  697.92 512.5  701 512.5  Z " stroke-width="1" stroke="#797979" fill="none" />
  <path d="M 701 521  C 699.32 521  698 519.68  698 518  C 698 516.32  699.32 515  701 515  C 702.68 515  704 516.32  704 518  C 704 519.68  702.68 521  701 521  " fill-rule="nonzero" fill="#797979" stroke="none" />
</svg>