<?xml version="1.0" encoding="utf-8"?>
<svg version="1.1" xmlns:xlink="http://www.w3.org/1999/xlink" width="12px" height="12px" viewBox="608 475  12 12" xmlns="http://www.w3.org/2000/svg">
  <path d="M 614 475  C 617.36 475  620 477.64  620 481  C 620 484.36  617.36 487  614 487  C 610.64 487  608 484.36  608 481  C 608 477.64  610.64 475  614 475  Z " fill-rule="nonzero" fill="#ffffff" stroke="none" />
  <path d="M 614 475.5  C 617.08 475.5  619.5 477.92  619.5 481  C 619.5 484.08  617.08 486.5  614 486.5  C 610.92 486.5  608.5 484.08  608.5 481  C 608.5 477.92  610.92 475.5  614 475.5  Z " stroke-width="1" stroke="#797979" fill="none" />
  <path d="M 614 484  C 612.32 484  611 482.68  611 481  C 611 479.32  612.32 478  614 478  C 615.68 478  617 479.32  617 481  C 617 482.68  615.68 484  614 484  " fill-rule="nonzero" fill="#797979" stroke="none" />
</svg>