<?xml version="1.0" encoding="utf-8"?>
<svg version="1.1" xmlns:xlink="http://www.w3.org/1999/xlink" width="12px" height="12px" viewBox="608 512  12 12" xmlns="http://www.w3.org/2000/svg">
  <path d="M 614 512  C 617.36 512  620 514.64  620 518  C 620 521.36  617.36 524  614 524  C 610.64 524  608 521.36  608 518  C 608 514.64  610.64 512  614 512  Z " fill-rule="nonzero" fill="#ffffff" stroke="none" />
  <path d="M 614 512.5  C 617.08 512.5  619.5 514.92  619.5 518  C 619.5 521.08  617.08 523.5  614 523.5  C 610.92 523.5  608.5 521.08  608.5 518  C 608.5 514.92  610.92 512.5  614 512.5  Z " stroke-width="1" stroke="#797979" fill="none" />
  <path d="M 614 521  C 612.32 521  611 519.68  611 518  C 611 516.32  612.32 515  614 515  C 615.68 515  617 516.32  617 518  C 617 519.68  615.68 521  614 521  " fill-rule="nonzero" fill="#797979" stroke="none" />
</svg>