<?xml version="1.0" encoding="utf-8"?>
<svg version="1.1" xmlns:xlink="http://www.w3.org/1999/xlink" width="12px" height="12px" viewBox="706 443  12 12" xmlns="http://www.w3.org/2000/svg">
  <path d="M 712 443  C 715.36 443  718 445.64  718 449  C 718 452.36  715.36 455  712 455  C 708.64 455  706 452.36  706 449  C 706 445.64  708.64 443  712 443  Z " fill-rule="nonzero" fill="#ffffff" stroke="none" />
  <path d="M 712 443.5  C 715.08 443.5  717.5 445.92  717.5 449  C 717.5 452.08  715.08 454.5  712 454.5  C 708.92 454.5  706.5 452.08  706.5 449  C 706.5 445.92  708.92 443.5  712 443.5  Z " stroke-width="1" stroke="#797979" fill="none" />
  <path d="M 712 452  C 710.32 452  709 450.68  709 449  C 709 447.32  710.32 446  712 446  C 713.68 446  715 447.32  715 449  C 715 450.68  713.68 452  712 452  " fill-rule="nonzero" fill="#797979" stroke="none" />
</svg>