<?xml version="1.0" encoding="utf-8"?>
<svg version="1.1" xmlns:xlink="http://www.w3.org/1999/xlink" width="12px" height="12px" viewBox="708 476  12 12" xmlns="http://www.w3.org/2000/svg">
  <path d="M 714 476  C 717.36 476  720 478.64  720 482  C 720 485.36  717.36 488  714 488  C 710.64 488  708 485.36  708 482  C 708 478.64  710.64 476  714 476  Z " fill-rule="nonzero" fill="#f0f0f0" stroke="none" />
  <path d="M 714 476.5  C 717.08 476.5  719.5 478.92  719.5 482  C 719.5 485.08  717.08 487.5  714 487.5  C 710.92 487.5  708.5 485.08  708.5 482  C 708.5 478.92  710.92 476.5  714 476.5  Z " stroke-width="1" stroke="#797979" fill="none" />
  <path d="M 714 485  C 712.32 485  711 483.68  711 482  C 711 480.32  712.32 479  714 479  C 715.68 479  717 480.32  717 482  C 717 483.68  715.68 485  714 485  " fill-rule="nonzero" fill="#797979" stroke="none" />
</svg>