<?xml version="1.0" encoding="utf-8"?>
<svg version="1.1" xmlns:xlink="http://www.w3.org/1999/xlink" width="12px" height="12px" viewBox="726 621  12 12" xmlns="http://www.w3.org/2000/svg">
  <path d="M 732 621  C 735.36 621  738 623.64  738 627  C 738 630.36  735.36 633  732 633  C 728.64 633  726 630.36  726 627  C 726 623.64  728.64 621  732 621  Z " fill-rule="nonzero" fill="#f0f0f0" stroke="none" />
  <path d="M 732 621.5  C 735.08 621.5  737.5 623.92  737.5 627  C 737.5 630.08  735.08 632.5  732 632.5  C 728.92 632.5  726.5 630.08  726.5 627  C 726.5 623.92  728.92 621.5  732 621.5  Z " stroke-width="1" stroke="#797979" fill="none" />
  <path d="M 732 630  C 730.32 630  729 628.68  729 627  C 729 625.32  730.32 624  732 624  C 733.68 624  735 625.32  735 627  C 735 628.68  733.68 630  732 630  " fill-rule="nonzero" fill="#797979" stroke="none" />
</svg>