<?xml version="1.0" encoding="utf-8"?>
<svg version="1.1" xmlns:xlink="http://www.w3.org/1999/xlink" width="12px" height="12px" viewBox="728 735  12 12" xmlns="http://www.w3.org/2000/svg">
  <path d="M 734 735  C 737.36 735  740 737.64  740 741  C 740 744.36  737.36 747  734 747  C 730.64 747  728 744.36  728 741  C 728 737.64  730.64 735  734 735  Z " fill-rule="nonzero" fill="#f0f0f0" stroke="none" />
  <path d="M 734 735.5  C 737.08 735.5  739.5 737.92  739.5 741  C 739.5 744.08  737.08 746.5  734 746.5  C 730.92 746.5  728.5 744.08  728.5 741  C 728.5 737.92  730.92 735.5  734 735.5  Z " stroke-width="1" stroke="#797979" fill="none" />
  <path d="M 734 744  C 732.32 744  731 742.68  731 741  C 731 739.32  732.32 738  734 738  C 735.68 738  737 739.32  737 741  C 737 742.68  735.68 744  734 744  " fill-rule="nonzero" fill="#797979" stroke="none" />
</svg>