<?xml version="1.0" encoding="utf-8"?>
<svg version="1.1" xmlns:xlink="http://www.w3.org/1999/xlink" width="14px" height="20px" xmlns="http://www.w3.org/2000/svg">
  <g transform="matrix(1 0 0 1 -851 -495 )">
    <path d="M 3.3515625 18.3854166666666  C 3.59218750000002 18.1423611111111  3.71249999999998 17.8472222222222  3.71249999999998 17.5  C 3.71249999999998 17.1527777777778  3.59218750000002 16.8576388888889  3.3515625 16.6145833333334  C 3.11093749999998 16.3715277777778  2.81875000000002 16.25  2.47500000000002 16.25  C 2.13125000000002 16.25  1.83906249999995 16.3715277777778  1.59843750000005 16.6145833333334  C 1.35781250000002 16.8576388888889  1.23749999999995 17.1527777777778  1.23749999999995 17.5  C 1.23749999999995 17.8472222222222  1.35781250000002 18.1423611111111  1.59843750000005 18.3854166666666  C 1.83906249999995 18.6284722222222  2.13125000000002 18.75  2.47500000000002 18.75  C 2.81875000000002 18.75  3.11093749999998 18.6284722222222  3.3515625 18.3854166666666  Z M 3.3515625 3.38541666666663  C 3.59218750000002 3.14236111111109  3.71249999999998 2.84722222222217  3.71249999999998 2.5  C 3.71249999999998 2.15277777777783  3.59218750000002 1.85763888888891  3.3515625 1.61458333333337  C 3.11093749999998 1.37152777777783  2.81875000000002 1.25  2.47500000000002 1.25  C 2.13125000000002 1.25  1.83906249999995 1.37152777777783  1.59843750000005 1.61458333333337  C 1.35781250000002 1.85763888888891  1.23749999999995 2.15277777777783  1.23749999999995 2.5  C 1.23749999999995 2.84722222222217  1.35781250000002 3.14236111111109  1.59843750000005 3.38541666666663  C 1.83906249999995 3.62847222222217  2.13125000000002 3.75  2.47500000000002 3.75  C 2.81875000000002 3.75  3.11093749999998 3.62847222222217  3.3515625 3.38541666666663  Z M 11.6015625 5.05208333333337  C 11.8421875 4.80902777777783  11.9625000000001 4.51388888888891  11.9625000000001 4.16666666666663  C 11.9625000000001 3.81944444444446  11.8421875 3.52430555555554  11.6015625 3.28125  C 11.3609375000001 3.03819444444446  11.06875 2.91666666666663  10.725 2.91666666666663  C 10.38125 2.91666666666663  10.0890625000001 3.03819444444446  9.84843750000005 3.28125  C 9.60781250000002 3.52430555555554  9.48750000000007 3.81944444444446  9.48750000000007 4.16666666666663  C 9.48750000000007 4.51388888888891  9.60781250000002 4.80902777777783  9.84843750000005 5.05208333333337  C 10.0890625000001 5.29513888888891  10.38125 5.41666666666663  10.725 5.41666666666663  C 11.06875 5.41666666666663  11.3609375000001 5.29513888888891  11.6015625 5.05208333333337  Z M 12.4781250000001 2.39583333333337  C 12.959375 2.88194444444446  13.2 3.47222222222217  13.2 4.16666666666663  C 13.2 4.61805555555554  13.08828125 5.03689236111109  12.8648437500001 5.42317708333337  C 12.64140625 5.80946180555554  12.340625 6.11111111111109  11.9625000000001 6.328125  C 11.9453125 8.81944444444446  10.9742187500001 10.6163194444445  9.04921875000002 11.71875  C 8.47343750000005 12.0486111111111  7.60117187499998 12.4001736111111  6.43242187500005 12.7734375  C 5.33242187500002 13.1206597222222  4.60410156249998 13.4288194444445  4.24746093750002 13.6979166666666  C 3.89082031250007 13.9670138888889  3.71249999999998 14.4010416666666  3.71249999999998 15  L 3.71249999999998 15.3385416666666  C 4.09062500000005 15.5555555555555  4.39140625000005 15.8572048611111  4.61484374999998 16.2434895833334  C 4.83828125000002 16.6297743055555  4.95000000000005 17.0486111111111  4.95000000000005 17.5  C 4.95000000000005 18.1944444444445  4.70937500000002 18.7847222222222  4.22812499999998 19.2708333333334  C 3.74687500000005 19.7569444444445  3.16250000000002 20  2.47500000000002 20  C 1.78750000000002 20  1.203125 19.7569444444445  0.721874999999955 19.2708333333334  C 0.240625000000023 18.7847222222222  0 18.1944444444445  0 17.5  C 0 17.0486111111111  0.111718750000023 16.6297743055555  0.335156249999955 16.2434895833334  C 0.55859375 15.8572048611111  0.859375 15.5555555555555  1.23749999999995 15.3385416666666  L 1.23749999999995 4.66145833333337  C 0.859375 4.44444444444446  0.55859375 4.14279513888891  0.335156249999955 3.75651041666663  C 0.111718750000023 3.37022569444446  0 2.95138888888891  0 2.5  C 0 1.80555555555554  0.240625000000023 1.21527777777783  0.721874999999955 0.729166666666629  C 1.203125 0.243055555555543  1.78750000000002 0  2.47500000000002 0  C 3.16250000000002 0  3.74687500000005 0.243055555555543  4.22812499999998 0.729166666666629  C 4.70937500000002 1.21527777777783  4.95000000000005 1.80555555555554  4.95000000000005 2.5  C 4.95000000000005 2.95138888888891  4.83828125000002 3.37022569444446  4.61484374999998 3.75651041666663  C 4.39140625000005 4.14279513888891  4.09062500000005 4.44444444444446  3.71249999999998 4.66145833333337  L 3.71249999999998 11.1328125  C 4.17656250000005 10.9071180555555  4.83828125000002 10.6597222222222  5.69765625000002 10.390625  C 6.17031250000002 10.2430555555555  6.54628906250002 10.1150173611111  6.82558593750002 10.0065104166666  C 7.10488281250002 9.89800347222217  7.40781249999998 9.76345486111109  7.734375 9.60286458333337  C 8.06093750000002 9.44227430555554  8.314453125 9.27083333333337  8.49492187500005 9.08854166666663  C 8.67539062499998 8.90625  8.84941406250005 8.68489583333337  9.01699218750002 8.42447916666663  C 9.1845703125 8.1640625  9.30488281250007 7.86241319444446  9.3779296875 7.51953125  C 9.45097656250005 7.17664930555554  9.48750000000007 6.77951388888891  9.48750000000007 6.328125  C 9.109375 6.11111111111109  8.80859375 5.80946180555554  8.58515625000007 5.42317708333337  C 8.36171875000002 5.03689236111109  8.25 4.61805555555554  8.25 4.16666666666663  C 8.25 3.47222222222217  8.49062500000002 2.88194444444446  8.97187500000007 2.39583333333337  C 9.453125 1.90972222222217  10.0375 1.66666666666663  10.725 1.66666666666663  C 11.4125 1.66666666666663  11.996875 1.90972222222217  12.4781250000001 2.39583333333337  Z " fill-rule="nonzero" fill="#000000" stroke="none" transform="matrix(1 0 0 1 851 495 )" />
  </g>
</svg>