<?xml version="1.0" encoding="utf-8"?>
<svg version="1.1" xmlns:xlink="http://www.w3.org/1999/xlink" width="12px" height="12px" viewBox="695 542  12 12" xmlns="http://www.w3.org/2000/svg">
  <path d="M 701 542  C 704.36 542  707 544.64  707 548  C 707 551.36  704.36 554  701 554  C 697.64 554  695 551.36  695 548  C 695 544.64  697.64 542  701 542  Z " fill-rule="nonzero" fill="#f0f0f0" stroke="none" />
  <path d="M 701 542.5  C 704.08 542.5  706.5 544.92  706.5 548  C 706.5 551.08  704.08 553.5  701 553.5  C 697.92 553.5  695.5 551.08  695.5 548  C 695.5 544.92  697.92 542.5  701 542.5  Z " stroke-width="1" stroke="#797979" fill="none" />
  <path d="M 701 551  C 699.32 551  698 549.68  698 548  C 698 546.32  699.32 545  701 545  C 702.68 545  704 546.32  704 548  C 704 549.68  702.68 551  701 551  " fill-rule="nonzero" fill="#797979" stroke="none" />
</svg>