<?xml version="1.0" encoding="utf-8"?>
<svg version="1.1" xmlns:xlink="http://www.w3.org/1999/xlink" width="12px" height="12px" viewBox="608 542  12 12" xmlns="http://www.w3.org/2000/svg">
  <path d="M 614 542  C 617.36 542  620 544.64  620 548  C 620 551.36  617.36 554  614 554  C 610.64 554  608 551.36  608 548  C 608 544.64  610.64 542  614 542  Z " fill-rule="nonzero" fill="#ffffff" stroke="none" />
  <path d="M 614 542.5  C 617.08 542.5  619.5 544.92  619.5 548  C 619.5 551.08  617.08 553.5  614 553.5  C 610.92 553.5  608.5 551.08  608.5 548  C 608.5 544.92  610.92 542.5  614 542.5  Z " stroke-width="1" stroke="#797979" fill="none" />
  <path d="M 614 551  C 612.32 551  611 549.68  611 548  C 611 546.32  612.32 545  614 545  C 615.68 545  617 546.32  617 548  C 617 549.68  615.68 551  614 551  " fill-rule="nonzero" fill="#797979" stroke="none" />
</svg>