<?xml version="1.0" encoding="utf-8"?>
<svg version="1.1" xmlns:xlink="http://www.w3.org/1999/xlink" width="12px" height="12px" viewBox="697 549  12 12" xmlns="http://www.w3.org/2000/svg">
  <path d="M 703 549  C 706.36 549  709 551.64  709 555  C 709 558.36  706.36 561  703 561  C 699.64 561  697 558.36  697 555  C 697 551.64  699.64 549  703 549  Z " fill-rule="nonzero" fill="#f0f0f0" stroke="none" />
  <path d="M 703 549.5  C 706.08 549.5  708.5 551.92  708.5 555  C 708.5 558.08  706.08 560.5  703 560.5  C 699.92 560.5  697.5 558.08  697.5 555  C 697.5 551.92  699.92 549.5  703 549.5  Z " stroke-width="1" stroke="#797979" fill="none" />
  <path d="M 703 558  C 701.32 558  700 556.68  700 555  C 700 553.32  701.32 552  703 552  C 704.68 552  706 553.32  706 555  C 706 556.68  704.68 558  703 558  " fill-rule="nonzero" fill="#797979" stroke="none" />
</svg>