<?xml version="1.0" encoding="utf-8"?>
<svg version="1.1" xmlns:xlink="http://www.w3.org/1999/xlink" width="12px" height="12px" viewBox="597 549  12 12" xmlns="http://www.w3.org/2000/svg">
  <path d="M 603 549  C 606.36 549  609 551.64  609 555  C 609 558.36  606.36 561  603 561  C 599.64 561  597 558.36  597 555  C 597 551.64  599.64 549  603 549  Z " fill-rule="nonzero" fill="#ffffff" stroke="none" />
  <path d="M 603 549.5  C 606.08 549.5  608.5 551.92  608.5 555  C 608.5 558.08  606.08 560.5  603 560.5  C 599.92 560.5  597.5 558.08  597.5 555  C 597.5 551.92  599.92 549.5  603 549.5  Z " stroke-width="1" stroke="#797979" fill="none" />
  <path d="M 603 558  C 601.32 558  600 556.68  600 555  C 600 553.32  601.32 552  603 552  C 604.68 552  606 553.32  606 555  C 606 556.68  604.68 558  603 558  " fill-rule="nonzero" fill="#797979" stroke="none" />
</svg>