<?xml version="1.0" encoding="utf-8"?>
<svg version="1.1" xmlns:xlink="http://www.w3.org/1999/xlink" width="12px" height="12px" viewBox="597 450  12 12" xmlns="http://www.w3.org/2000/svg">
  <path d="M 603 450  C 606.36 450  609 452.64  609 456  C 609 459.36  606.36 462  603 462  C 599.64 462  597 459.36  597 456  C 597 452.64  599.64 450  603 450  Z " fill-rule="nonzero" fill="#ffffff" stroke="none" />
  <path d="M 603 450.5  C 606.08 450.5  608.5 452.92  608.5 456  C 608.5 459.08  606.08 461.5  603 461.5  C 599.92 461.5  597.5 459.08  597.5 456  C 597.5 452.92  599.92 450.5  603 450.5  Z " stroke-width="1" stroke="#797979" fill="none" />
  <path d="M 603 459  C 601.32 459  600 457.68  600 456  C 600 454.32  601.32 453  603 453  C 604.68 453  606 454.32  606 456  C 606 457.68  604.68 459  603 459  " fill-rule="nonzero" fill="#797979" stroke="none" />
</svg>