<?xml version="1.0" encoding="utf-8"?>
<svg version="1.1" xmlns:xlink="http://www.w3.org/1999/xlink" width="12px" height="12px" viewBox="697 483  12 12" xmlns="http://www.w3.org/2000/svg">
  <path d="M 703 483  C 706.36 483  709 485.64  709 489  C 709 492.36  706.36 495  703 495  C 699.64 495  697 492.36  697 489  C 697 485.64  699.64 483  703 483  Z " fill-rule="nonzero" fill="#f0f0f0" stroke="none" />
  <path d="M 703 483.5  C 706.08 483.5  708.5 485.92  708.5 489  C 708.5 492.08  706.08 494.5  703 494.5  C 699.92 494.5  697.5 492.08  697.5 489  C 697.5 485.92  699.92 483.5  703 483.5  Z " stroke-width="1" stroke="#797979" fill="none" />
  <path d="M 703 492  C 701.32 492  700 490.68  700 489  C 700 487.32  701.32 486  703 486  C 704.68 486  706 487.32  706 489  C 706 490.68  704.68 492  703 492  " fill-rule="nonzero" fill="#797979" stroke="none" />
</svg>