<?xml version="1.0" encoding="utf-8"?>
<svg version="1.1" xmlns:xlink="http://www.w3.org/1999/xlink" width="12px" height="12px" viewBox="697 450  12 12" xmlns="http://www.w3.org/2000/svg">
  <path d="M 703 450  C 706.36 450  709 452.64  709 456  C 709 459.36  706.36 462  703 462  C 699.64 462  697 459.36  697 456  C 697 452.64  699.64 450  703 450  Z " fill-rule="nonzero" fill="#f0f0f0" stroke="none" />
  <path d="M 703 450.5  C 706.08 450.5  708.5 452.92  708.5 456  C 708.5 459.08  706.08 461.5  703 461.5  C 699.92 461.5  697.5 459.08  697.5 456  C 697.5 452.92  699.92 450.5  703 450.5  Z " stroke-width="1" stroke="#797979" fill="none" />
  <path d="M 703 459  C 701.32 459  700 457.68  700 456  C 700 454.32  701.32 453  703 453  C 704.68 453  706 454.32  706 456  C 706 457.68  704.68 459  703 459  " fill-rule="nonzero" fill="#797979" stroke="none" />
</svg>