<?xml version="1.0" encoding="utf-8"?>
<svg version="1.1" xmlns:xlink="http://www.w3.org/1999/xlink" width="12px" height="12px" viewBox="695 592  12 12" xmlns="http://www.w3.org/2000/svg">
  <path d="M 701 592  C 704.36 592  707 594.64  707 598  C 707 601.36  704.36 604  701 604  C 697.64 604  695 601.36  695 598  C 695 594.64  697.64 592  701 592  Z " fill-rule="nonzero" fill="#ffffff" stroke="none" />
  <path d="M 701 592.5  C 704.08 592.5  706.5 594.92  706.5 598  C 706.5 601.08  704.08 603.5  701 603.5  C 697.92 603.5  695.5 601.08  695.5 598  C 695.5 594.92  697.92 592.5  701 592.5  Z " stroke-width="1" stroke="#797979" fill="none" />
  <path d="M 701 601  C 699.32 601  698 599.68  698 598  C 698 596.32  699.32 595  701 595  C 702.68 595  704 596.32  704 598  C 704 599.68  702.68 601  701 601  " fill-rule="nonzero" fill="#797979" stroke="none" />
</svg>