<?xml version="1.0" encoding="utf-8"?>
<svg version="1.1" xmlns:xlink="http://www.w3.org/1999/xlink" width="12px" height="12px" viewBox="608 592  12 12" xmlns="http://www.w3.org/2000/svg">
  <path d="M 614 592  C 617.36 592  620 594.64  620 598  C 620 601.36  617.36 604  614 604  C 610.64 604  608 601.36  608 598  C 608 594.64  610.64 592  614 592  Z " fill-rule="nonzero" fill="#ffffff" stroke="none" />
  <path d="M 614 592.5  C 617.08 592.5  619.5 594.92  619.5 598  C 619.5 601.08  617.08 603.5  614 603.5  C 610.92 603.5  608.5 601.08  608.5 598  C 608.5 594.92  610.92 592.5  614 592.5  Z " stroke-width="1" stroke="#797979" fill="none" />
  <path d="M 614 601  C 612.32 601  611 599.68  611 598  C 611 596.32  612.32 595  614 595  C 615.68 595  617 596.32  617 598  C 617 599.68  615.68 601  614 601  " fill-rule="nonzero" fill="#797979" stroke="none" />
</svg>