<?xml version="1.0" encoding="utf-8"?>
<svg version="1.1" xmlns:xlink="http://www.w3.org/1999/xlink" width="12px" height="12px" viewBox="608 555  12 12" xmlns="http://www.w3.org/2000/svg">
  <path d="M 614 555  C 617.36 555  620 557.64  620 561  C 620 564.36  617.36 567  614 567  C 610.64 567  608 564.36  608 561  C 608 557.64  610.64 555  614 555  Z " fill-rule="nonzero" fill="#ffffff" stroke="none" />
  <path d="M 614 555.5  C 617.08 555.5  619.5 557.92  619.5 561  C 619.5 564.08  617.08 566.5  614 566.5  C 610.92 566.5  608.5 564.08  608.5 561  C 608.5 557.92  610.92 555.5  614 555.5  Z " stroke-width="1" stroke="#797979" fill="none" />
  <path d="M 614 564  C 612.32 564  611 562.68  611 561  C 611 559.32  612.32 558  614 558  C 615.68 558  617 559.32  617 561  C 617 562.68  615.68 564  614 564  " fill-rule="nonzero" fill="#797979" stroke="none" />
</svg>