<?xml version="1.0" encoding="utf-8"?>
<svg version="1.1" xmlns:xlink="http://www.w3.org/1999/xlink" width="40px" height="40px" xmlns="http://www.w3.org/2000/svg">
  <g transform="matrix(1 0 0 1 -25 -381 )">
    <path d="M 45 381  C 56.2 381  65 389.8  65 401  C 65 412.2  56.2 421  45 421  C 33.8 421  25 412.2  25 401  C 25 389.8  33.8 381  45 381  Z " fill-rule="nonzero" fill="#ffffff" stroke="none" />
    <path d="M 45 381.5  C 55.92 381.5  64.5 390.08  64.5 401  C 64.5 411.92  55.92 420.5  45 420.5  C 34.08 420.5  25.5 411.92  25.5 401  C 25.5 390.08  34.08 381.5  45 381.5  Z " stroke-width="1" stroke="#797979" fill="none" />
  </g>
</svg>