<?xml version="1.0" encoding="utf-8"?>
<svg version="1.1" xmlns:xlink="http://www.w3.org/1999/xlink" width="12px" height="12px" viewBox="771 320  12 12" xmlns="http://www.w3.org/2000/svg">
  <path d="M 777 320  C 780.36 320  783 322.64  783 326  C 783 329.36  780.36 332  777 332  C 773.64 332  771 329.36  771 326  C 771 322.64  773.64 320  777 320  Z " fill-rule="nonzero" fill="#f0f0f0" stroke="none" />
  <path d="M 777 320.5  C 780.08 320.5  782.5 322.92  782.5 326  C 782.5 329.08  780.08 331.5  777 331.5  C 773.92 331.5  771.5 329.08  771.5 326  C 771.5 322.92  773.92 320.5  777 320.5  Z " stroke-width="1" stroke="#797979" fill="none" />
  <path d="M 777 329  C 775.32 329  774 327.68  774 326  C 774 324.32  775.32 323  777 323  C 778.68 323  780 324.32  780 326  C 780 327.68  778.68 329  777 329  " fill-rule="nonzero" fill="#797979" stroke="none" />
</svg>