<?xml version="1.0" encoding="utf-8"?>
<svg version="1.1" xmlns:xlink="http://www.w3.org/1999/xlink" width="12px" height="12px" viewBox="875 320  12 12" xmlns="http://www.w3.org/2000/svg">
  <path d="M 881 320  C 884.36 320  887 322.64  887 326  C 887 329.36  884.36 332  881 332  C 877.64 332  875 329.36  875 326  C 875 322.64  877.64 320  881 320  Z " fill-rule="nonzero" fill="#ffffff" stroke="none" />
  <path d="M 881 320.5  C 884.08 320.5  886.5 322.92  886.5 326  C 886.5 329.08  884.08 331.5  881 331.5  C 877.92 331.5  875.5 329.08  875.5 326  C 875.5 322.92  877.92 320.5  881 320.5  Z " stroke-width="1" stroke="#797979" fill="none" />
  <path d="M 881 329  C 879.32 329  878 327.68  878 326  C 878 324.32  879.32 323  881 323  C 882.68 323  884 324.32  884 326  C 884 327.68  882.68 329  881 329  " fill-rule="nonzero" fill="#797979" stroke="none" />
</svg>