<?xml version="1.0" encoding="utf-8"?>
<svg version="1.1" xmlns:xlink="http://www.w3.org/1999/xlink" width="12px" height="12px" viewBox="594 320  12 12" xmlns="http://www.w3.org/2000/svg">
  <path d="M 600 320  C 603.36 320  606 322.64  606 326  C 606 329.36  603.36 332  600 332  C 596.64 332  594 329.36  594 326  C 594 322.64  596.64 320  600 320  Z " fill-rule="nonzero" fill="#f0f0f0" stroke="none" />
  <path d="M 600 320.5  C 603.08 320.5  605.5 322.92  605.5 326  C 605.5 329.08  603.08 331.5  600 331.5  C 596.92 331.5  594.5 329.08  594.5 326  C 594.5 322.92  596.92 320.5  600 320.5  Z " stroke-width="1" stroke="#797979" fill="none" />
  <path d="M 600 329  C 598.32 329  597 327.68  597 326  C 597 324.32  598.32 323  600 323  C 601.68 323  603 324.32  603 326  C 603 327.68  601.68 329  600 329  " fill-rule="nonzero" fill="#797979" stroke="none" />
</svg>