<?xml version="1.0" encoding="utf-8"?>
<svg version="1.1" xmlns:xlink="http://www.w3.org/1999/xlink" width="12px" height="12px" viewBox="993 321  12 12" xmlns="http://www.w3.org/2000/svg">
  <path d="M 999 321  C 1002.36 321  1005 323.64  1005 327  C 1005 330.36  1002.36 333  999 333  C 995.64 333  993 330.36  993 327  C 993 323.64  995.64 321  999 321  Z " fill-rule="nonzero" fill="#f0f0f0" stroke="none" />
  <path d="M 999 321.5  C 1002.08 321.5  1004.5 323.92  1004.5 327  C 1004.5 330.08  1002.08 332.5  999 332.5  C 995.92 332.5  993.5 330.08  993.5 327  C 993.5 323.92  995.92 321.5  999 321.5  Z " stroke-width="1" stroke="#797979" fill="none" />
  <path d="M 999 330  C 997.32 330  996 328.68  996 327  C 996 325.32  997.32 324  999 324  C 1000.68 324  1002 325.32  1002 327  C 1002 328.68  1000.68 330  999 330  " fill-rule="nonzero" fill="#797979" stroke="none" />
</svg>