<?xml version="1.0" encoding="utf-8"?>
<svg version="1.1" xmlns:xlink="http://www.w3.org/1999/xlink" width="120px" height="117px" xmlns="http://www.w3.org/2000/svg">
  <g transform="matrix(1 0 0 1 -712 -725 )">
    <path d="M 712 725  L 832 725  L 832 842  L 712 842  L 712 725  " fill-rule="nonzero" fill="#cccccc" stroke="none" />
    <path d="M 720 733  L 824 733  L 824 834  L 720 834  L 720 733  " fill-rule="nonzero" fill="#ffffff" stroke="none" />
    <path d="M 783.175 760.1  C 778.261 760.1  774.4 756.239  774.4 751.325  C 774.4 746.411  778.261 742.55  783.175 742.55  C 788.089 742.55  791.95 746.411  791.95 751.325  C 791.95 756.239  788.089 760.1  783.175 760.1  " fill-rule="nonzero" fill="#cccccc" stroke="none" />
    <path d="M 723 831  L 723 778.75  L 747.5 755  L 781.8 775.425  L 801.4 769.25  L 821 775.425  L 821 831  L 723 831  " fill-rule="nonzero" fill="#169bd5" stroke="none" />
  </g>
</svg>