<?xml version="1.0" encoding="utf-8"?>
<svg version="1.1" xmlns:xlink="http://www.w3.org/1999/xlink" width="12px" height="12px" viewBox="1298 325  12 12" xmlns="http://www.w3.org/2000/svg">
  <path d="M 1304 325  C 1307.36 325  1310 327.64  1310 331  C 1310 334.36  1307.36 337  1304 337  C 1300.64 337  1298 334.36  1298 331  C 1298 327.64  1300.64 325  1304 325  Z " fill-rule="nonzero" fill="#f0f0f0" stroke="none" />
  <path d="M 1304 325.5  C 1307.08 325.5  1309.5 327.92  1309.5 331  C 1309.5 334.08  1307.08 336.5  1304 336.5  C 1300.92 336.5  1298.5 334.08  1298.5 331  C 1298.5 327.92  1300.92 325.5  1304 325.5  Z " stroke-width="1" stroke="#797979" fill="none" />
  <path d="M 1304 334  C 1302.32 334  1301 332.68  1301 331  C 1301 329.32  1302.32 328  1304 328  C 1305.68 328  1307 329.32  1307 331  C 1307 332.68  1305.68 334  1304 334  " fill-rule="nonzero" fill="#797979" stroke="none" />
</svg>