<?xml version="1.0" encoding="utf-8"?>
<svg version="1.1" xmlns:xlink="http://www.w3.org/1999/xlink" width="12px" height="12px" viewBox="1298 299  12 12" xmlns="http://www.w3.org/2000/svg">
  <path d="M 1304 299  C 1307.36 299  1310 301.64  1310 305  C 1310 308.36  1307.36 311  1304 311  C 1300.64 311  1298 308.36  1298 305  C 1298 301.64  1300.64 299  1304 299  Z " fill-rule="nonzero" fill="#ffffff" stroke="none" />
  <path d="M 1304 299.5  C 1307.08 299.5  1309.5 301.92  1309.5 305  C 1309.5 308.08  1307.08 310.5  1304 310.5  C 1300.92 310.5  1298.5 308.08  1298.5 305  C 1298.5 301.92  1300.92 299.5  1304 299.5  Z " stroke-width="1" stroke="#797979" fill="none" />
  <path d="M 1304 308  C 1302.32 308  1301 306.68  1301 305  C 1301 303.32  1302.32 302  1304 302  C 1305.68 302  1307 303.32  1307 305  C 1307 306.68  1305.68 308  1304 308  " fill-rule="nonzero" fill="#797979" stroke="none" />
</svg>