<?xml version="1.0" encoding="utf-8"?>
<svg version="1.1" xmlns:xlink="http://www.w3.org/1999/xlink" width="12px" height="12px" viewBox="1031 900  12 12" xmlns="http://www.w3.org/2000/svg">
  <path d="M 1037 900  C 1040.36 900  1043 902.64  1043 906  C 1043 909.36  1040.36 912  1037 912  C 1033.64 912  1031 909.36  1031 906  C 1031 902.64  1033.64 900  1037 900  Z " fill-rule="nonzero" fill="#ffffff" stroke="none" />
  <path d="M 1037 900.5  C 1040.08 900.5  1042.5 902.92  1042.5 906  C 1042.5 909.08  1040.08 911.5  1037 911.5  C 1033.92 911.5  1031.5 909.08  1031.5 906  C 1031.5 902.92  1033.92 900.5  1037 900.5  Z " stroke-width="1" stroke="#797979" fill="none" />
  <path d="M 1037 909  C 1035.32 909  1034 907.68  1034 906  C 1034 904.32  1035.32 903  1037 903  C 1038.68 903  1040 904.32  1040 906  C 1040 907.68  1038.68 909  1037 909  " fill-rule="nonzero" fill="#797979" stroke="none" />
</svg>