<?xml version="1.0" encoding="utf-8"?>
<svg version="1.1" xmlns:xlink="http://www.w3.org/1999/xlink" width="12px" height="12px" viewBox="1110 900  12 12" xmlns="http://www.w3.org/2000/svg">
  <path d="M 1116 900  C 1119.36 900  1122 902.64  1122 906  C 1122 909.36  1119.36 912  1116 912  C 1112.64 912  1110 909.36  1110 906  C 1110 902.64  1112.64 900  1116 900  Z " fill-rule="nonzero" fill="#ffffff" stroke="none" />
  <path d="M 1116 900.5  C 1119.08 900.5  1121.5 902.92  1121.5 906  C 1121.5 909.08  1119.08 911.5  1116 911.5  C 1112.92 911.5  1110.5 909.08  1110.5 906  C 1110.5 902.92  1112.92 900.5  1116 900.5  Z " stroke-width="1" stroke="#797979" fill="none" />
  <path d="M 1116 909  C 1114.32 909  1113 907.68  1113 906  C 1113 904.32  1114.32 903  1116 903  C 1117.68 903  1119 904.32  1119 906  C 1119 907.68  1117.68 909  1116 909  " fill-rule="nonzero" fill="#797979" stroke="none" />
</svg>