<?xml version="1.0" encoding="utf-8"?>
<svg version="1.1" xmlns:xlink="http://www.w3.org/1999/xlink" width="12px" height="12px" viewBox="960 900  12 12" xmlns="http://www.w3.org/2000/svg">
  <path d="M 966 900  C 969.36 900  972 902.64  972 906  C 972 909.36  969.36 912  966 912  C 962.64 912  960 909.36  960 906  C 960 902.64  962.64 900  966 900  Z " fill-rule="nonzero" fill="#f0f0f0" stroke="none" />
  <path d="M 966 900.5  C 969.08 900.5  971.5 902.92  971.5 906  C 971.5 909.08  969.08 911.5  966 911.5  C 962.92 911.5  960.5 909.08  960.5 906  C 960.5 902.92  962.92 900.5  966 900.5  Z " stroke-width="1" stroke="#797979" fill="none" />
  <path d="M 966 909  C 964.32 909  963 907.68  963 906  C 963 904.32  964.32 903  966 903  C 967.68 903  969 904.32  969 906  C 969 907.68  967.68 909  966 909  " fill-rule="nonzero" fill="#797979" stroke="none" />
</svg>