<?xml version="1.0" encoding="utf-8"?>
<svg version="1.1" xmlns:xlink="http://www.w3.org/1999/xlink" width="12px" height="12px" viewBox="960 860  12 12" xmlns="http://www.w3.org/2000/svg">
  <path d="M 966 860  C 969.36 860  972 862.64  972 866  C 972 869.36  969.36 872  966 872  C 962.64 872  960 869.36  960 866  C 960 862.64  962.64 860  966 860  Z " fill-rule="nonzero" fill="#f0f0f0" stroke="none" />
  <path d="M 966 860.5  C 969.08 860.5  971.5 862.92  971.5 866  C 971.5 869.08  969.08 871.5  966 871.5  C 962.92 871.5  960.5 869.08  960.5 866  C 960.5 862.92  962.92 860.5  966 860.5  Z " stroke-width="1" stroke="#797979" fill="none" />
  <path d="M 966 869  C 964.32 869  963 867.68  963 866  C 963 864.32  964.32 863  966 863  C 967.68 863  969 864.32  969 866  C 969 867.68  967.68 869  966 869  " fill-rule="nonzero" fill="#797979" stroke="none" />
</svg>