<?xml version="1.0" encoding="utf-8"?>
<svg version="1.1" xmlns:xlink="http://www.w3.org/1999/xlink" width="23px" height="24px" xmlns="http://www.w3.org/2000/svg">
  <g transform="matrix(1 0 0 1 -940 -411 )">
    <path d="M 1.69846153846152 18.4285714285714  L 1.69846153846152 22.2857142857143  L 5.51999999999998 22.2857142857143  L 5.51999999999998 18.4285714285714  L 1.69846153846152 18.4285714285714  Z M 6.36923076923074 18.4285714285714  L 6.36923076923074 22.2857142857143  L 10.6153846153846 22.2857142857143  L 10.6153846153846 18.4285714285714  L 6.36923076923074 18.4285714285714  Z M 1.69846153846152 13.2857142857143  L 1.69846153846152 17.5714285714286  L 5.51999999999998 17.5714285714286  L 5.51999999999998 13.2857142857143  L 1.69846153846152 13.2857142857143  Z M 6.36923076923074 13.2857142857143  L 6.36923076923074 17.5714285714286  L 10.6153846153846 17.5714285714286  L 10.6153846153846 13.2857142857143  L 6.36923076923074 13.2857142857143  Z M 1.69846153846152 8.57142857142858  L 1.69846153846152 12.4285714285714  L 5.51999999999998 12.4285714285714  L 5.51999999999998 8.57142857142858  L 1.69846153846152 8.57142857142858  Z M 11.4646153846154 18.4285714285714  L 11.4646153846154 22.2857142857143  L 15.7107692307693 22.2857142857143  L 15.7107692307693 18.4285714285714  L 11.4646153846154 18.4285714285714  Z M 6.36923076923074 8.57142857142858  L 6.36923076923074 12.4285714285714  L 10.6153846153846 12.4285714285714  L 10.6153846153846 8.57142857142858  L 6.36923076923074 8.57142857142858  Z M 16.5600000000001 18.4285714285714  L 16.5600000000001 22.2857142857143  L 20.3815384615385 22.2857142857143  L 20.3815384615385 18.4285714285714  L 16.5600000000001 18.4285714285714  Z M 11.4646153846154 13.2857142857143  L 11.4646153846154 17.5714285714286  L 15.7107692307693 17.5714285714286  L 15.7107692307693 13.2857142857143  L 11.4646153846154 13.2857142857143  Z M 6.66778846153852 6.30133928571431  C 6.75182692307692 6.21651785714283  6.79384615384618 6.11607142857144  6.79384615384618 6  L 6.79384615384618 2.14285714285711  C 6.79384615384618 2.02678571428569  6.75182692307692 1.92633928571428  6.66778846153852 1.84151785714289  C 6.58375000000001 1.75669642857144  6.48423076923086 1.71428571428569  6.36923076923074 1.71428571428569  L 5.51999999999998 1.71428571428569  C 5.40500000000009 1.71428571428569  5.30548076923083 1.75669642857144  5.22144230769231 1.84151785714289  C 5.1374038461538 1.92633928571428  5.09538461538455 2.02678571428569  5.09538461538455 2.14285714285711  L 5.09538461538455 6  C 5.09538461538455 6.11607142857144  5.1374038461538 6.21651785714283  5.22144230769231 6.30133928571431  C 5.30548076923083 6.38616071428569  5.40500000000009 6.42857142857142  5.51999999999998 6.42857142857142  L 6.36923076923074 6.42857142857142  C 6.48423076923086 6.42857142857142  6.58375000000001 6.38616071428569  6.66778846153852 6.30133928571431  Z M 16.5600000000001 13.2857142857143  L 16.5600000000001 17.5714285714286  L 20.3815384615385 17.5714285714286  L 20.3815384615385 13.2857142857143  L 16.5600000000001 13.2857142857143  Z M 11.4646153846154 8.57142857142858  L 11.4646153846154 12.4285714285714  L 15.7107692307693 12.4285714285714  L 15.7107692307693 8.57142857142858  L 11.4646153846154 8.57142857142858  Z M 16.5600000000001 8.57142857142858  L 16.5600000000001 12.4285714285714  L 20.3815384615385 12.4285714285714  L 20.3815384615385 8.57142857142858  L 16.5600000000001 8.57142857142858  Z M 16.8585576923077 6.30133928571431  C 16.9425961538462 6.21651785714283  16.9846153846155 6.11607142857144  16.9846153846155 6  L 16.9846153846155 2.14285714285711  C 16.9846153846155 2.02678571428569  16.9425961538462 1.92633928571428  16.8585576923077 1.84151785714289  C 16.7745192307692 1.75669642857144  16.675 1.71428571428569  16.5600000000001 1.71428571428569  L 15.7107692307693 1.71428571428569  C 15.5957692307692 1.71428571428569  15.49625 1.75669642857144  15.4122115384615 1.84151785714289  C 15.3281730769231 1.92633928571428  15.2861538461539 2.02678571428569  15.2861538461539 2.14285714285711  L 15.2861538461539 6  C 15.2861538461539 6.11607142857144  15.3281730769231 6.21651785714283  15.4122115384615 6.30133928571431  C 15.49625 6.38616071428569  15.5957692307692 6.42857142857142  15.7107692307693 6.42857142857142  L 16.5600000000001 6.42857142857142  C 16.675 6.42857142857142  16.7745192307692 6.38616071428569  16.8585576923077 6.30133928571431  Z M 21.5757692307693 3.9375  C 21.9119230769231 4.27678571428569  22.08 4.67857142857144  22 5.14285714285711  L 22 22.2857142857143  C 22.08 22.75  21.9119230769231 23.1517857142857  21.5757692307693 23.4910714285714  C 21.2396153846154 23.8303571428572  20.8415384615386 24  20.3815384615385 24  L 1.69846153846152 24  C 1.23846153846148 24  0.840384615384664 23.8303571428572  0.50423076923073 23.4910714285714  C 0.16807692307691 23.1517857142857  0 22.75  0 22.2857142857143  L 0 5.14285714285711  C 0 4.67857142857144  0.16807692307691 4.27678571428569  0.50423076923073 3.9375  C 0.840384615384664 3.59821428571425  1.23846153846148 3.42857142857142  1.69846153846152 3.42857142857142  L 3.39692307692314 3.42857142857142  L 3.39692307692314 2.14285714285711  C 3.39692307692314 1.55357142857142  3.60480769230776 1.04910714285717  4.02057692307687 0.629464285714306  C 4.43634615384622 0.209821428571445  4.93615384615384 0  5.51999999999998 0  L 6.36923076923074 0  C 6.95307692307688 0  7.45288461538462 0.209821428571445  7.86865384615385 0.629464285714306  C 8.28442307692319 1.04910714285717  8.49230769230769 1.55357142857142  8.49230769230769 2.14285714285711  L 8.49230769230769 3.42857142857142  L 13.5876923076924 3.42857142857142  L 13.5876923076924 2.14285714285711  C 13.5876923076924 1.55357142857142  13.7955769230769 1.04910714285717  14.2113461538462 0.629464285714306  C 14.6271153846154 0.209821428571445  15.1269230769232 0  15.7107692307693 0  L 16.5600000000001 0  C 17.1438461538462 0  17.6436538461539 0.209821428571445  18.0594230769232 0.629464285714306  C 18.4751923076923 1.04910714285717  18.6830769230769 1.55357142857142  18.6830769230769 2.14285714285711  L 18.6830769230769 3.42857142857142  L 20.3815384615385 3.42857142857142  C 20.8415384615386 3.42857142857142  21.2396153846154 3.59821428571425  21.5757692307693 3.9375  Z " fill-rule="nonzero" fill="#000000" stroke="none" transform="matrix(1 0 0 1 940 411 )" />
  </g>
</svg>