<?xml version="1.0" encoding="utf-8"?>
<svg version="1.1" xmlns:xlink="http://www.w3.org/1999/xlink" width="12px" height="12px" viewBox="603 575  12 12" xmlns="http://www.w3.org/2000/svg">
  <path d="M 609 575  C 612.36 575  615 577.64  615 581  C 615 584.36  612.36 587  609 587  C 605.64 587  603 584.36  603 581  C 603 577.64  605.64 575  609 575  Z " fill-rule="nonzero" fill="#ffffff" stroke="none" />
  <path d="M 609 575.5  C 612.08 575.5  614.5 577.92  614.5 581  C 614.5 584.08  612.08 586.5  609 586.5  C 605.92 586.5  603.5 584.08  603.5 581  C 603.5 577.92  605.92 575.5  609 575.5  Z " stroke-width="1" stroke="#797979" fill="none" />
  <path d="M 609 584  C 607.32 584  606 582.68  606 581  C 606 579.32  607.32 578  609 578  C 610.68 578  612 579.32  612 581  C 612 582.68  610.68 584  609 584  " fill-rule="nonzero" fill="#797979" stroke="none" />
</svg>