<?xml version="1.0" encoding="utf-8"?>
<svg version="1.1" xmlns:xlink="http://www.w3.org/1999/xlink" width="12px" height="12px" viewBox="701 534  12 12" xmlns="http://www.w3.org/2000/svg">
  <path d="M 707 534  C 710.36 534  713 536.64  713 540  C 713 543.36  710.36 546  707 546  C 703.64 546  701 543.36  701 540  C 701 536.64  703.64 534  707 534  Z " fill-rule="nonzero" fill="#ffffff" stroke="none" />
  <path d="M 707 534.5  C 710.08 534.5  712.5 536.92  712.5 540  C 712.5 543.08  710.08 545.5  707 545.5  C 703.92 545.5  701.5 543.08  701.5 540  C 701.5 536.92  703.92 534.5  707 534.5  Z " stroke-width="1" stroke="#797979" fill="none" />
  <path d="M 707 543  C 705.32 543  704 541.68  704 540  C 704 538.32  705.32 537  707 537  C 708.68 537  710 538.32  710 540  C 710 541.68  708.68 543  707 543  " fill-rule="nonzero" fill="#797979" stroke="none" />
</svg>