<?xml version="1.0" encoding="utf-8"?>
<svg version="1.1" xmlns:xlink="http://www.w3.org/1999/xlink" width="12px" height="12px" viewBox="808 484  12 12" xmlns="http://www.w3.org/2000/svg">
  <path d="M 814 484  C 817.36 484  820 486.64  820 490  C 820 493.36  817.36 496  814 496  C 810.64 496  808 493.36  808 490  C 808 486.64  810.64 484  814 484  Z " fill-rule="nonzero" fill="#f0f0f0" stroke="none" />
  <path d="M 814 484.5  C 817.08 484.5  819.5 486.92  819.5 490  C 819.5 493.08  817.08 495.5  814 495.5  C 810.92 495.5  808.5 493.08  808.5 490  C 808.5 486.92  810.92 484.5  814 484.5  Z " stroke-width="1" stroke="#797979" fill="none" />
  <path d="M 814 493  C 812.32 493  811 491.68  811 490  C 811 488.32  812.32 487  814 487  C 815.68 487  817 488.32  817 490  C 817 491.68  815.68 493  814 493  " fill-rule="nonzero" fill="#797979" stroke="none" />
</svg>