<?xml version="1.0" encoding="utf-8"?>
<svg version="1.1" xmlns:xlink="http://www.w3.org/1999/xlink" width="12px" height="12px" viewBox="703 362  12 12" xmlns="http://www.w3.org/2000/svg">
  <path d="M 709 362  C 712.36 362  715 364.64  715 368  C 715 371.36  712.36 374  709 374  C 705.64 374  703 371.36  703 368  C 703 364.64  705.64 362  709 362  Z " fill-rule="nonzero" fill="#ffffff" stroke="none" />
  <path d="M 709 362.5  C 712.08 362.5  714.5 364.92  714.5 368  C 714.5 371.08  712.08 373.5  709 373.5  C 705.92 373.5  703.5 371.08  703.5 368  C 703.5 364.92  705.92 362.5  709 362.5  Z " stroke-width="1" stroke="#797979" fill="none" />
  <path d="M 709 371  C 707.32 371  706 369.68  706 368  C 706 366.32  707.32 365  709 365  C 710.68 365  712 366.32  712 368  C 712 369.68  710.68 371  709 371  " fill-rule="nonzero" fill="#797979" stroke="none" />
</svg>