<?xml version="1.0" encoding="utf-8"?>
<svg version="1.1" xmlns:xlink="http://www.w3.org/1999/xlink" width="12px" height="12px" viewBox="582 485  12 12" xmlns="http://www.w3.org/2000/svg">
  <path d="M 588 485  C 591.36 485  594 487.64  594 491  C 594 494.36  591.36 497  588 497  C 584.64 497  582 494.36  582 491  C 582 487.64  584.64 485  588 485  Z " fill-rule="nonzero" fill="#ffffff" stroke="none" />
  <path d="M 588 485.5  C 591.08 485.5  593.5 487.92  593.5 491  C 593.5 494.08  591.08 496.5  588 496.5  C 584.92 496.5  582.5 494.08  582.5 491  C 582.5 487.92  584.92 485.5  588 485.5  Z " stroke-width="1" stroke="#797979" fill="none" />
  <path d="M 588 494  C 586.32 494  585 492.68  585 491  C 585 489.32  586.32 488  588 488  C 589.68 488  591 489.32  591 491  C 591 492.68  589.68 494  588 494  " fill-rule="nonzero" fill="#797979" stroke="none" />
</svg>