<?xml version="1.0" encoding="utf-8"?>
<svg version="1.1" xmlns:xlink="http://www.w3.org/1999/xlink" width="12px" height="12px" viewBox="794 483  12 12" xmlns="http://www.w3.org/2000/svg">
  <path d="M 800 483  C 803.36 483  806 485.64  806 489  C 806 492.36  803.36 495  800 495  C 796.64 495  794 492.36  794 489  C 794 485.64  796.64 483  800 483  Z " fill-rule="nonzero" fill="#ffffff" stroke="none" />
  <path d="M 800 483.5  C 803.08 483.5  805.5 485.92  805.5 489  C 805.5 492.08  803.08 494.5  800 494.5  C 796.92 494.5  794.5 492.08  794.5 489  C 794.5 485.92  796.92 483.5  800 483.5  Z " stroke-width="1" stroke="#797979" fill="none" />
  <path d="M 800 492  C 798.32 492  797 490.68  797 489  C 797 487.32  798.32 486  800 486  C 801.68 486  803 487.32  803 489  C 803 490.68  801.68 492  800 492  " fill-rule="nonzero" fill="#797979" stroke="none" />
</svg>