<?xml version="1.0" encoding="utf-8"?>
<svg version="1.1" xmlns:xlink="http://www.w3.org/1999/xlink" width="15px" height="15px" xmlns="http://www.w3.org/2000/svg">
  <g transform="matrix(1 0 0 1 -318 -533 )">
    <path d="M 10.7142857142857 3.21428571428567  L 14.1964285714286 3.21428571428567  C 14.4196428571428 3.21428571428567  14.609375 3.29241071428578  14.765625 3.44866071428567  C 14.921875 3.60491071428567  15 3.79464285714289  15 4.01785714285711  L 15 14.1964285714286  C 15 14.4196428571429  14.921875 14.609375  14.765625 14.765625  C 14.609375 14.921875  14.4196428571428 15  14.1964285714286 15  L 6.16071428571428 15  C 5.9375 15  5.74776785714283 14.921875  5.59151785714283 14.765625  C 5.43526785714283 14.609375  5.35714285714283 14.4196428571429  5.35714285714283 14.1964285714286  L 5.35714285714283 11.7857142857143  L 0.803571428571445 11.7857142857143  C 0.580357142857167 11.7857142857143  0.390625 11.7075892857142  0.234375 11.5513392857143  C 0.078125 11.3950892857143  0 11.2053571428571  0 10.9821428571429  L 0 5.35714285714289  C 0 5.13392857142856  0.0558035714285552 4.88839285714289  0.167410714285722 4.62053571428567  C 0.279017857142833 4.35267857142856  0.412946428571445 4.140625  0.569196428571445 3.984375  L 3.984375 0.569196428571445  C 4.140625 0.412946428571445  4.35267857142856 0.27901785714289  4.62053571428572 0.167410714285666  C 4.88839285714283 0.0558035714285552  5.13392857142856 0  5.35714285714283 0  L 8.83928571428572 0  C 9.0625 0  9.25223214285717 0.078125  9.40848214285717 0.234375  C 9.56473214285717 0.390625  9.64285714285717 0.58035714285711  9.64285714285717 0.803571428571445  L 9.64285714285717 3.54910714285711  C 10.0223214285714 3.32589285714289  10.3794642857143 3.21428571428567  10.7142857142857 3.21428571428567  Z M 9.64285714285717 7.5  L 9.64285714285717 4.99720982142856  L 7.14006696428572 7.5  L 9.64285714285717 7.5  Z M 4.28571428571428 4.28571428571433  L 4.28571428571428 1.78292410714289  L 1.78292410714283 4.28571428571433  L 4.28571428571428 4.28571428571433  Z M 5.52455357142856 7.83482142857144  C 5.63616071428572 7.56696428571433  5.77008928571428 7.35491071428567  5.92633928571428 7.19866071428567  L 8.57142857142856 4.55357142857144  L 8.57142857142856 1.07142857142856  L 5.35714285714283 1.07142857142856  L 5.35714285714283 4.55357142857144  C 5.35714285714283 4.77678571428567  5.27901785714283 4.96651785714289  5.12276785714283 5.12276785714289  C 4.96651785714283 5.27901785714289  4.77678571428572 5.35714285714289  4.55357142857144 5.35714285714289  L 1.07142857142856 5.35714285714289  L 1.07142857142856 10.7142857142857  L 5.35714285714283 10.7142857142857  L 5.35714285714283 8.57142857142856  C 5.35714285714283 8.34821428571433  5.41294642857144 8.10267857142856  5.52455357142856 7.83482142857144  Z M 6.42857142857144 13.9285714285714  L 13.9285714285714 13.9285714285714  L 13.9285714285714 4.28571428571433  L 10.7142857142857 4.28571428571433  L 10.7142857142857 7.76785714285711  C 10.7142857142857 7.99107142857144  10.6361607142857 8.18080357142856  10.4799107142857 8.33705357142856  C 10.3236607142857 8.49330357142856  10.1339285714286 8.57142857142856  9.91071428571428 8.57142857142856  L 6.42857142857144 8.57142857142856  L 6.42857142857144 13.9285714285714  Z " fill-rule="nonzero" fill="#199ed8" stroke="none" transform="matrix(1 0 0 1 318 533 )" />
  </g>
</svg>