<?xml version="1.0" encoding="utf-8"?>
<svg version="1.1" xmlns:xlink="http://www.w3.org/1999/xlink" width="13px" height="17px" xmlns="http://www.w3.org/2000/svg">
  <g transform="matrix(1 0 0 1 -900 -290 )">
    <path d="M 12.012890625 10.2748579545454  C 12.164296875 10.4277935606061  12.24 10.6089015151515  12.24 10.8181818181818  C 12.24 11.0274621212121  12.164296875 11.2085700757575  12.012890625 11.3615056818182  L 6.65789062499994 16.770596590909  C 6.50648437500001 16.9235321969696  6.32718750000004 16.9999999999999  6.12000000000012 16.9999999999999  C 5.91281249999997 16.9999999999999  5.733515625 16.9235321969696  5.58210937499996 16.770596590909  L 0.227109375000055 11.3615056818182  C 0.0757031250000182 11.2085700757575  0 11.0274621212121  0 10.8181818181818  C 0 10.6089015151515  0.0757031250000182 10.4277935606061  0.227109375000055 10.2748579545454  C 0.378515625000091 10.1219223484848  0.557812499999955 10.0454545454545  0.764999999999986 10  L 11.475 10  C 11.6821875000001 10.0454545454545  11.8614843750001 10.1219223484848  12.012890625 10.2748579545454  Z M 12.012890625 5.63849431818181  C 12.164296875 5.79142992424244  12.24 5.97253787878788  12.24 6.18181818181819  C 12.24 6.3910984848485  12.164296875 6.57220643939394  12.012890625 6.72514204545456  C 11.8614843750001 6.87807765151513  11.6821875000001 6.95454545454544  11.475 7  L 0.764999999999986 7  C 0.557812499999955 6.95454545454544  0.378515625000091 6.87807765151513  0.227109375000055 6.72514204545456  C 0.0757031250000182 6.57220643939394  0 6.3910984848485  0 6.18181818181819  C 0 5.97253787878788  0.0757031250000182 5.79142992424244  0.227109375000055 5.63849431818181  L 5.58210937499996 0.229403409090935  C 5.733515625 0.0764678030303116  5.91281249999997 0  6.12000000000012 0  C 6.32718750000004 0  6.50648437500001 0.0764678030303116  6.65789062499994 0.229403409090935  L 12.012890625 5.63849431818181  Z " fill-rule="nonzero" fill="#000000" stroke="none" transform="matrix(1 0 0 1 900 290 )" />
  </g>
</svg>