<?xml version="1.0" encoding="utf-8"?>
<svg version="1.1" xmlns:xlink="http://www.w3.org/1999/xlink" width="16px" height="10px" xmlns="http://www.w3.org/2000/svg">
  <g transform="matrix(1 0 0 1 -743 -177 )">
    <path d="M 11.6010393415179 7.83420138888889  C 12.7665201822916 7.13107638888889  13.7358165922619 6.18634259259261  14.5089285714286 5  C 13.6253720238095 3.63425925925927  12.5180199032739 2.61284722222223  11.1868722098214 1.93576388888889  C 11.5414574032739 2.53761574074073  11.71875 3.18865740740739  11.71875 3.88888888888889  C 11.71875 4.95949074074073  11.3365536644345 5.87528935185185  10.5721609933036 6.63628472222223  C 9.80776832217259 7.39728009259261  8.8878813244047 7.77777777777777  7.8125 7.77777777777777  C 6.7371186755953 7.77777777777777  5.81723167782741 7.39728009259261  5.05283900669644 6.63628472222223  C 4.28844633556548 5.87528935185185  3.90625 4.95949074074073  3.90625 3.88888888888889  C 3.90625 3.18865740740739  4.08354259672615 2.53761574074073  4.43812779017856 1.93576388888889  C 3.10698009672615 2.61284722222223  1.99962797619048 3.63425925925927  1.11607142857144 5  C 1.88918340773807 6.18634259259261  2.85847981770837 7.13107638888889  4.02396065848211 7.83420138888889  C 5.18944149925596 8.53732638888889  6.45228794642856 8.88888888888889  7.8125 8.88888888888889  C 9.17271205357144 8.88888888888889  10.435558500744 8.53732638888889  11.6010393415179 7.83420138888889  Z M 8.10895647321433 1.96180555555557  C 8.19033668154759 1.88078703703701  8.23102678571433 1.78240740740739  8.23102678571433 1.66666666666669  C 8.23102678571433 1.55092592592592  8.19033668154759 1.4525462962963  8.10895647321433 1.37152777777777  C 8.02757626488096 1.29050925925927  7.92875744047615 1.25  7.8125 1.25  C 7.08589099702385 1.25  6.4624604724703 1.50896990740739  5.94220842633933 2.02690972222223  C 5.42195638020837 2.54484953703701  5.16183035714289 3.16550925925927  5.16183035714289 3.88888888888889  C 5.16183035714289 4.00462962962962  5.20252046130952 4.10300925925927  5.28390066964289 4.18402777777777  C 5.36528087797615 4.2650462962963  5.46409970238096 4.30555555555557  5.58035714285711 4.30555555555557  C 5.69661458333337 4.30555555555557  5.79543340773807 4.2650462962963  5.87681361607144 4.18402777777777  C 5.9581938244047 4.10300925925927  5.99888392857144 4.00462962962962  5.99888392857144 3.88888888888889  C 5.99888392857144 3.3912037037037  6.17617652529759 2.9658564814815  6.53076171875 2.61284722222223  C 6.88534691220241 2.25983796296299  7.31259300595241 2.08333333333331  7.8125 2.08333333333331  C 7.92875744047615 2.08333333333331  8.02757626488096 2.04282407407408  8.10895647321433 1.96180555555557  Z M 15.4506138392857 4.40104166666669  C 15.5668712797619 4.60358796296299  15.625 4.80324074074073  15.625 5  C 15.625 5.19675925925927  15.5668712797619 5.39641203703701  15.4506138392857 5.59895833333331  C 14.6368117559524 6.92997685185185  13.5425385974703 7.99623842592592  12.1677943638393 8.79774305555557  C 10.7930501302084 9.59924768518519  9.34128534226193 10  7.8125 10  C 6.28371465773807 10  4.83194986979163 9.59780092592592  3.45720563616067 8.79340277777777  C 2.0824614025297 7.98900462962962  0.988188244047592 6.92418981481481  0.174386160714334 5.59895833333331  C 0.0581287202380736 5.39641203703701  0 5.19675925925927  0 5  C 0 4.80324074074073  0.0581287202380736 4.60358796296299  0.174386160714334 4.40104166666669  C 0.988188244047592 3.07581018518519  2.0824614025297 2.01099537037038  3.45720563616067 1.20659722222223  C 4.83194986979163 0.402199074074076  6.28371465773807 0  7.8125 0  C 9.34128534226193 0  10.7930501302084 0.402199074074076  12.1677943638393 1.20659722222223  C 13.5425385974703 2.01099537037038  14.6368117559524 3.07581018518519  15.4506138392857 4.40104166666669  Z " fill-rule="nonzero" fill="#000000" stroke="none" transform="matrix(1 0 0 1 743 177 )" />
  </g>
</svg>