<?xml version="1.0" encoding="utf-8"?>
<svg version="1.1" xmlns:xlink="http://www.w3.org/1999/xlink" width="10px" height="10px" xmlns="http://www.w3.org/2000/svg">
  <g transform="matrix(1 0 0 1 -767 -177 )">
    <path d="M 3.28664772727279 8.27473958333331  C 3.32585227272727 8.23567708333331  3.34545454545457 8.18576388888891  3.34545454545457 8.125  L 3.34545454545457 3.54166666666669  C 3.34545454545457 3.48090277777777  3.32585227272727 3.43098958333331  3.28664772727279 3.39192708333331  C 3.2474431818182 3.35286458333331  3.19734848484848 3.33333333333331  3.13636363636363 3.33333333333331  L 2.71818181818185 3.33333333333331  C 2.657196969697 3.33333333333331  2.60710227272727 3.35286458333331  2.56789772727279 3.39192708333331  C 2.5286931818182 3.43098958333331  2.5090909090909 3.48090277777777  2.5090909090909 3.54166666666669  L 2.5090909090909 8.125  C 2.5090909090909 8.18576388888891  2.5286931818182 8.23567708333331  2.56789772727279 8.27473958333331  C 2.60710227272727 8.31380208333331  2.657196969697 8.33333333333331  2.71818181818185 8.33333333333331  L 3.13636363636363 8.33333333333331  C 3.19734848484848 8.33333333333331  3.2474431818182 8.31380208333331  3.28664772727279 8.27473958333331  Z M 4.95937500000002 8.27473958333331  C 4.99857954545462 8.23567708333331  5.0181818181818 8.18576388888891  5.0181818181818 8.125  L 5.0181818181818 3.54166666666669  C 5.0181818181818 3.48090277777777  4.99857954545462 3.43098958333331  4.95937500000002 3.39192708333331  C 4.92017045454543 3.35286458333331  4.87007575757582 3.33333333333331  4.80909090909097 3.33333333333331  L 4.39090909090908 3.33333333333331  C 4.32992424242423 3.33333333333331  4.27982954545462 3.35286458333331  4.24062500000002 3.39192708333331  C 4.20142045454543 3.43098958333331  4.18181818181824 3.48090277777777  4.18181818181824 3.54166666666669  L 4.18181818181824 8.125  C 4.18181818181824 8.18576388888891  4.20142045454543 8.23567708333331  4.24062500000002 8.27473958333331  C 4.27982954545462 8.31380208333331  4.32992424242423 8.33333333333331  4.39090909090908 8.33333333333331  L 4.80909090909097 8.33333333333331  C 4.87007575757582 8.33333333333331  4.92017045454543 8.31380208333331  4.95937500000002 8.27473958333331  Z M 6.63210227272725 8.27473958333331  C 6.67130681818185 8.23567708333331  6.69090909090914 8.18576388888891  6.69090909090914 8.125  L 6.69090909090914 3.54166666666669  C 6.69090909090914 3.48090277777777  6.67130681818185 3.43098958333331  6.63210227272725 3.39192708333331  C 6.59289772727277 3.35286458333331  6.54280303030305 3.33333333333331  6.4818181818182 3.33333333333331  L 6.06363636363642 3.33333333333331  C 6.00265151515157 3.33333333333331  5.95255681818185 3.35286458333331  5.91335227272725 3.39192708333331  C 5.87414772727277 3.43098958333331  5.85454545454547 3.48090277777777  5.85454545454547 3.54166666666669  L 5.85454545454547 8.125  C 5.85454545454547 8.18576388888891  5.87414772727277 8.23567708333331  5.91335227272725 8.27473958333331  C 5.95255681818185 8.31380208333331  6.00265151515157 8.33333333333331  6.06363636363642 8.33333333333331  L 6.4818181818182 8.33333333333331  C 6.54280303030305 8.33333333333331  6.59289772727277 8.31380208333331  6.63210227272725 8.27473958333331  Z M 3.45653409090914 0.904947916666686  L 3.13636363636363 1.66666666666669  L 6.06363636363642 1.66666666666669  L 5.75 0.904947916666686  C 5.71950757575758 0.865885416666686  5.68248106060605 0.842013888888914  5.63892045454543 0.833333333333314  L 3.5676136363636 0.833333333333314  C 3.52405303030309 0.842013888888914  3.48702651515157 0.865885416666686  3.45653409090914 0.904947916666686  Z M 9.14119318181827 1.72526041666669  C 9.18039772727275 1.76432291666669  9.20000000000005 1.81423611111109  9.20000000000005 1.875  L 9.20000000000005 2.29166666666669  C 9.20000000000005 2.35243055555554  9.18039772727275 2.40234375  9.14119318181827 2.44140625  C 9.10198863636367 2.48046875  9.05189393939395 2.5  8.9909090909091 2.5  L 8.36363636363637 2.5  L 8.36363636363637 8.671875  C 8.36363636363637 9.03211805555554  8.26126893939397 9.34353298611109  8.05653409090917 9.60611979166669  C 7.85179924242425 9.86870659722223  7.60568181818189 10  7.31818181818187 10  L 1.88181818181818 10  C 1.59431818181815 10  1.3482007575758 9.873046875  1.14346590909088 9.619140625  C 0.938731060606074 9.365234375  0.836363636363672 9.05815972222223  0.836363636363672 8.69791666666669  L 0.836363636363672 2.5  L 0.209090909090946 2.5  C 0.148106060606096 2.5  0.098011363636374 2.48046875  0.0588068181817789 2.44140625  C 0.0196022727272975 2.40234375  0 2.35243055555554  0 2.29166666666669  L 0 1.875  C 0 1.81423611111109  0.0196022727272975 1.76432291666669  0.0588068181817789 1.72526041666669  C 0.098011363636374 1.68619791666669  0.148106060606096 1.66666666666669  0.209090909090946 1.66666666666669  L 2.22812499999998 1.66666666666669  L 2.68551136363635 0.579427083333314  C 2.75085227272734 0.418836805555543  2.8684659090909 0.282118055555543  3.03835227272725 0.169270833333314  C 3.2082386363636 0.0564236111110858  3.38030303030303 0  3.55454545454552 0  L 5.64545454545453 0  C 5.81969696969702 0  5.99176136363644 0.0564236111110858  6.16164772727279 0.169270833333314  C 6.33153409090914 0.282118055555543  6.4491477272727 0.418836805555543  6.51448863636369 0.579427083333314  L 6.97187500000007 1.66666666666669  L 8.9909090909091 1.66666666666669  C 9.05189393939395 1.66666666666669  9.10198863636367 1.68619791666669  9.14119318181827 1.72526041666669  Z " fill-rule="nonzero" fill="#000000" stroke="none" transform="matrix(1 0 0 1 767 177 )" />
  </g>
</svg>