<?xml version="1.0" encoding="utf-8"?>
<svg version="1.1" xmlns:xlink="http://www.w3.org/1999/xlink" width="24px" height="15px" xmlns="http://www.w3.org/2000/svg">
  <g transform="matrix(1 0 0 1 -1042 -168 )">
    <path d="M 0.589792351973756 10.1929070723684  C 0.196597450657919 9.28661595394735  0 8.33634868421052  0 7.34210526315789  C 0 6.34786184210526  0.196597450657919 5.39759457236843  0.589792351973756 4.49130345394735  C 0.982987253289366 3.58501233552633  1.50917454769728 2.80491365131576  2.16835423519728 2.15100740131578  C 2.82753392269728 1.4971011513158  3.61392372532896 0.97512335526315  4.52752364309208 0.585074013157907  C 5.4411235608552 0.195024671052636  6.39905427631584 0  7.40131578947376 0  L 16.2828947368421 0  C 17.28515625 0  18.2430869654606 0.195024671052636  19.1566868832238 0.585074013157907  C 20.0702868009869 0.97512335526315  20.8566766036186 1.4971011513158  21.5158562911186 2.15100740131578  C 22.1750359786186 2.80491365131576  22.7012232730265 3.58501233552633  23.0944181743421 4.49130345394735  C 23.4876130756579 5.39759457236843  23.6842105263158 6.34786184210526  23.6842105263158 7.34210526315789  C 23.6842105263158 8.33634868421052  23.4876130756579 9.28661595394735  23.0944181743421 10.1929070723684  C 22.7012232730265 11.0991981907895  22.1750359786186 11.879296875  21.5158562911186 12.533203125  C 20.8566766036186 13.187109375  20.0702868009869 13.7090871710526  19.1566868832238 14.0991365131579  C 18.2430869654606 14.4891858552631  17.28515625 14.6842105263158  16.2828947368421 14.6842105263158  L 7.40131578947376 14.6842105263158  C 6.39905427631584 14.6842105263158  5.4411235608552 14.4891858552631  4.52752364309208 14.0991365131579  C 3.61392372532896 13.7090871710526  2.82753392269728 13.187109375  2.16835423519728 12.533203125  C 1.50917454769728 11.879296875  0.982987253289366 11.0991981907895  0.589792351973756 10.1929070723684  Z M 13.9873303865131 12.751171875  C 14.7158974095396 13.0609169407895  15.4810855263158 13.2157894736842  16.2828947368421 13.2157894736842  C 17.0847039473686 13.2157894736842  17.8498920641448 13.0609169407895  18.578459087171 12.751171875  C 19.3070261101975 12.4414268092105  19.9372944078948 12.022697368421  20.4692639802631 11.4949835526316  C 21.0012335526317 10.9672697368421  21.42333984375 10.3420435855263  21.7355828536186 9.61930509868418  C 22.0478258634869 8.8965666118421  22.203947368421 8.13749999999999  22.203947368421 7.34210526315789  C 22.203947368421 6.54671052631579  22.0478258634869 5.78764391447368  21.7355828536186 5.06490542763157  C 21.42333984375 4.34216694078947  21.0012335526317 3.71694078947368  20.4692639802631 3.18922697368421  C 19.9372944078948 2.66151315789472  19.3070261101975 2.24278371710528  18.578459087171 1.9330386513158  C 17.8498920641448 1.62329358552634  17.0847039473686 1.46842105263158  16.2828947368421 1.46842105263158  C 15.4810855263158 1.46842105263158  14.7158974095396 1.62329358552634  13.9873303865131 1.9330386513158  C 13.2587633634869 2.24278371710528  12.6284950657896 2.66151315789472  12.096525493421 3.18922697368421  C 11.5645559210527 3.71694078947368  11.1424496299342 4.34216694078947  10.8302066200658 5.06490542763157  C 10.5179636101973 5.78764391447368  10.3618421052631 6.54671052631579  10.3618421052631 7.34210526315789  C 10.3618421052631 8.13749999999999  10.5179636101973 8.8965666118421  10.8302066200658 9.61930509868418  C 11.1424496299342 10.3420435855263  11.5645559210527 10.9672697368421  12.096525493421 11.4949835526316  C 12.6284950657896 12.022697368421  13.2587633634869 12.4414268092105  13.9873303865131 12.751171875  Z " fill-rule="nonzero" fill="#000000" stroke="none" transform="matrix(1 0 0 1 1042 168 )" />
  </g>
</svg>