<?xml version="1.0" encoding="utf-8"?>
<svg version="1.1" xmlns:xlink="http://www.w3.org/1999/xlink" width="12px" height="12px" viewBox="683 433  12 12" xmlns="http://www.w3.org/2000/svg">
  <path d="M 689 433  C 692.36 433  695 435.64  695 439  C 695 442.36  692.36 445  689 445  C 685.64 445  683 442.36  683 439  C 683 435.64  685.64 433  689 433  Z " fill-rule="nonzero" fill="#ffffff" stroke="none" />
  <path d="M 689 433.5  C 692.08 433.5  694.5 435.92  694.5 439  C 694.5 442.08  692.08 444.5  689 444.5  C 685.92 444.5  683.5 442.08  683.5 439  C 683.5 435.92  685.92 433.5  689 433.5  Z " stroke-width="1" stroke="#797979" fill="none" />
  <path d="M 689 442  C 687.32 442  686 440.68  686 439  C 686 437.32  687.32 436  689 436  C 690.68 436  692 437.32  692 439  C 692 440.68  690.68 442  689 442  " fill-rule="nonzero" fill="#797979" stroke="none" />
</svg>