<?xml version="1.0" encoding="utf-8"?>
<svg version="1.1" xmlns:xlink="http://www.w3.org/1999/xlink" width="12px" height="12px" viewBox="583 433  12 12" xmlns="http://www.w3.org/2000/svg">
  <path d="M 589 433  C 592.36 433  595 435.64  595 439  C 595 442.36  592.36 445  589 445  C 585.64 445  583 442.36  583 439  C 583 435.64  585.64 433  589 433  Z " fill-rule="nonzero" fill="#f0f0f0" stroke="none" />
  <path d="M 589 433.5  C 592.08 433.5  594.5 435.92  594.5 439  C 594.5 442.08  592.08 444.5  589 444.5  C 585.92 444.5  583.5 442.08  583.5 439  C 583.5 435.92  585.92 433.5  589 433.5  Z " stroke-width="1" stroke="#797979" fill="none" />
  <path d="M 589 442  C 587.32 442  586 440.68  586 439  C 586 437.32  587.32 436  589 436  C 590.68 436  592 437.32  592 439  C 592 440.68  590.68 442  589 442  " fill-rule="nonzero" fill="#797979" stroke="none" />
</svg>