<?xml version="1.0" encoding="utf-8"?>
<svg version="1.1" xmlns:xlink="http://www.w3.org/1999/xlink" width="12px" height="12px" viewBox="816 433  12 12" xmlns="http://www.w3.org/2000/svg">
  <path d="M 822 433  C 825.36 433  828 435.64  828 439  C 828 442.36  825.36 445  822 445  C 818.64 445  816 442.36  816 439  C 816 435.64  818.64 433  822 433  Z " fill-rule="nonzero" fill="#f0f0f0" stroke="none" />
  <path d="M 822 433.5  C 825.08 433.5  827.5 435.92  827.5 439  C 827.5 442.08  825.08 444.5  822 444.5  C 818.92 444.5  816.5 442.08  816.5 439  C 816.5 435.92  818.92 433.5  822 433.5  Z " stroke-width="1" stroke="#797979" fill="none" />
  <path d="M 822 442  C 820.32 442  819 440.68  819 439  C 819 437.32  820.32 436  822 436  C 823.68 436  825 437.32  825 439  C 825 440.68  823.68 442  822 442  " fill-rule="nonzero" fill="#797979" stroke="none" />
</svg>