<?xml version="1.0" encoding="utf-8"?>
<svg version="1.1" xmlns:xlink="http://www.w3.org/1999/xlink" width="12px" height="12px" viewBox="610 335  12 12" xmlns="http://www.w3.org/2000/svg">
  <path d="M 616 335  C 619.36 335  622 337.64  622 341  C 622 344.36  619.36 347  616 347  C 612.64 347  610 344.36  610 341  C 610 337.64  612.64 335  616 335  Z " fill-rule="nonzero" fill="#f0f0f0" stroke="none" />
  <path d="M 616 335.5  C 619.08 335.5  621.5 337.92  621.5 341  C 621.5 344.08  619.08 346.5  616 346.5  C 612.92 346.5  610.5 344.08  610.5 341  C 610.5 337.92  612.92 335.5  616 335.5  Z " stroke-width="1" stroke="#797979" fill="none" />
  <path d="M 616 344  C 614.32 344  613 342.68  613 341  C 613 339.32  614.32 338  616 338  C 617.68 338  619 339.32  619 341  C 619 342.68  617.68 344  616 344  " fill-rule="nonzero" fill="#797979" stroke="none" />
</svg>