<?xml version="1.0" encoding="utf-8"?>
<svg version="1.1" xmlns:xlink="http://www.w3.org/1999/xlink" width="25px" height="25px" xmlns="http://www.w3.org/2000/svg">
  <g transform="matrix(1 0 0 1 -1019 -475 )">
    <path d="M 1031.5 475  C 1038.5 475  1044 480.5  1044 487.5  C 1044 494.5  1038.5 500  1031.5 500  C 1024.5 500  1019 494.5  1019 487.5  C 1019 480.5  1024.5 475  1031.5 475  Z " fill-rule="nonzero" fill="#647ef3" stroke="none" />
    <path d="M 1031.5 475.5  C 1038.22 475.5  1043.5 480.78  1043.5 487.5  C 1043.5 494.22  1038.22 499.5  1031.5 499.5  C 1024.78 499.5  1019.5 494.22  1019.5 487.5  C 1019.5 480.78  1024.78 475.5  1031.5 475.5  Z " stroke-width="1" stroke="#797979" fill="none" />
  </g>
</svg>