<?xml version="1.0" encoding="utf-8"?>
<svg version="1.1" xmlns:xlink="http://www.w3.org/1999/xlink" width="19px" height="19px" xmlns="http://www.w3.org/2000/svg">
  <g transform="matrix(1 0 0 1 -1394 -714 )">
    <path d="M 1403.5 714  C 1408.82 714  1413 718.18  1413 723.5  C 1413 728.82  1408.82 733  1403.5 733  C 1398.18 733  1394 728.82  1394 723.5  C 1394 718.18  1398.18 714  1403.5 714  Z " fill-rule="nonzero" fill="#e4e4e4" stroke="none" />
    <path d="M 1403.5 714.5  C 1408.54 714.5  1412.5 718.46  1412.5 723.5  C 1412.5 728.54  1408.54 732.5  1403.5 732.5  C 1398.46 732.5  1394.5 728.54  1394.5 723.5  C 1394.5 718.46  1398.46 714.5  1403.5 714.5  Z " stroke-width="1" stroke="#e4e4e4" fill="none" />
  </g>
</svg>