<?xml version="1.0" encoding="utf-8"?>
<svg version="1.1" xmlns:xlink="http://www.w3.org/1999/xlink" width="12px" height="12px" viewBox="1071 719  12 12" xmlns="http://www.w3.org/2000/svg">
  <path d="M 1077 719  C 1080.36 719  1083 721.64  1083 725  C 1083 728.36  1080.36 731  1077 731  C 1073.64 731  1071 728.36  1071 725  C 1071 721.64  1073.64 719  1077 719  Z " fill-rule="nonzero" fill="#f0f0f0" stroke="none" />
  <path d="M 1077 719.5  C 1080.08 719.5  1082.5 721.92  1082.5 725  C 1082.5 728.08  1080.08 730.5  1077 730.5  C 1073.92 730.5  1071.5 728.08  1071.5 725  C 1071.5 721.92  1073.92 719.5  1077 719.5  Z " stroke-width="1" stroke="#797979" fill="none" />
  <path d="M 1077 728  C 1075.32 728  1074 726.68  1074 725  C 1074 723.32  1075.32 722  1077 722  C 1078.68 722  1080 723.32  1080 725  C 1080 726.68  1078.68 728  1077 728  " fill-rule="nonzero" fill="#797979" stroke="none" />
</svg>