<?xml version="1.0" encoding="utf-8"?>
<svg version="1.1" xmlns:xlink="http://www.w3.org/1999/xlink" width="12px" height="12px" viewBox="758 751  12 12" xmlns="http://www.w3.org/2000/svg">
  <path d="M 764 751  C 767.36 751  770 753.64  770 757  C 770 760.36  767.36 763  764 763  C 760.64 763  758 760.36  758 757  C 758 753.64  760.64 751  764 751  Z " fill-rule="nonzero" fill="#ffffff" stroke="none" />
  <path d="M 764 751.5  C 767.08 751.5  769.5 753.92  769.5 757  C 769.5 760.08  767.08 762.5  764 762.5  C 760.92 762.5  758.5 760.08  758.5 757  C 758.5 753.92  760.92 751.5  764 751.5  Z " stroke-width="1" stroke="#797979" fill="none" />
  <path d="M 764 760  C 762.32 760  761 758.68  761 757  C 761 755.32  762.32 754  764 754  C 765.68 754  767 755.32  767 757  C 767 758.68  765.68 760  764 760  " fill-rule="nonzero" fill="#797979" stroke="none" />
</svg>