<?xml version="1.0" encoding="utf-8"?>
<svg version="1.1" xmlns:xlink="http://www.w3.org/1999/xlink" width="12px" height="12px" viewBox="1273 751  12 12" xmlns="http://www.w3.org/2000/svg">
  <path d="M 1279 751  C 1282.36 751  1285 753.64  1285 757  C 1285 760.36  1282.36 763  1279 763  C 1275.64 763  1273 760.36  1273 757  C 1273 753.64  1275.64 751  1279 751  Z " fill-rule="nonzero" fill="#ffffff" stroke="none" />
  <path d="M 1279 751.5  C 1282.08 751.5  1284.5 753.92  1284.5 757  C 1284.5 760.08  1282.08 762.5  1279 762.5  C 1275.92 762.5  1273.5 760.08  1273.5 757  C 1273.5 753.92  1275.92 751.5  1279 751.5  Z " stroke-width="1" stroke="#797979" fill="none" />
  <path d="M 1279 760  C 1277.32 760  1276 758.68  1276 757  C 1276 755.32  1277.32 754  1279 754  C 1280.68 754  1282 755.32  1282 757  C 1282 758.68  1280.68 760  1279 760  " fill-rule="nonzero" fill="#797979" stroke="none" />
</svg>