<?xml version="1.0" encoding="utf-8"?>
<svg version="1.1" xmlns:xlink="http://www.w3.org/1999/xlink" width="12px" height="12px" viewBox="1487 722  12 12" xmlns="http://www.w3.org/2000/svg">
  <path d="M 1493 722  C 1496.36 722  1499 724.64  1499 728  C 1499 731.36  1496.36 734  1493 734  C 1489.64 734  1487 731.36  1487 728  C 1487 724.64  1489.64 722  1493 722  Z " fill-rule="nonzero" fill="#ffffff" stroke="none" />
  <path d="M 1493 722.5  C 1496.08 722.5  1498.5 724.92  1498.5 728  C 1498.5 731.08  1496.08 733.5  1493 733.5  C 1489.92 733.5  1487.5 731.08  1487.5 728  C 1487.5 724.92  1489.92 722.5  1493 722.5  Z " stroke-width="1" stroke="#797979" fill="none" />
  <path d="M 1493 731  C 1491.32 731  1490 729.68  1490 728  C 1490 726.32  1491.32 725  1493 725  C 1494.68 725  1496 726.32  1496 728  C 1496 729.68  1494.68 731  1493 731  " fill-rule="nonzero" fill="#797979" stroke="none" />
</svg>