<?xml version="1.0" encoding="utf-8"?>
<svg version="1.1" xmlns:xlink="http://www.w3.org/1999/xlink" width="12px" height="12px" viewBox="1487 751  12 12" xmlns="http://www.w3.org/2000/svg">
  <path d="M 1493 751  C 1496.36 751  1499 753.64  1499 757  C 1499 760.36  1496.36 763  1493 763  C 1489.64 763  1487 760.36  1487 757  C 1487 753.64  1489.64 751  1493 751  Z " fill-rule="nonzero" fill="#ffffff" stroke="none" />
  <path d="M 1493 751.5  C 1496.08 751.5  1498.5 753.92  1498.5 757  C 1498.5 760.08  1496.08 762.5  1493 762.5  C 1489.92 762.5  1487.5 760.08  1487.5 757  C 1487.5 753.92  1489.92 751.5  1493 751.5  Z " stroke-width="1" stroke="#797979" fill="none" />
  <path d="M 1493 760  C 1491.32 760  1490 758.68  1490 757  C 1490 755.32  1491.32 754  1493 754  C 1494.68 754  1496 755.32  1496 757  C 1496 758.68  1494.68 760  1493 760  " fill-rule="nonzero" fill="#797979" stroke="none" />
</svg>