<?xml version="1.0" encoding="utf-8"?>
<svg version="1.1" xmlns:xlink="http://www.w3.org/1999/xlink" width="12px" height="12px" viewBox="1273 719  12 12" xmlns="http://www.w3.org/2000/svg">
  <path d="M 1279 719  C 1282.36 719  1285 721.64  1285 725  C 1285 728.36  1282.36 731  1279 731  C 1275.64 731  1273 728.36  1273 725  C 1273 721.64  1275.64 719  1279 719  Z " fill-rule="nonzero" fill="#f0f0f0" stroke="none" />
  <path d="M 1279 719.5  C 1282.08 719.5  1284.5 721.92  1284.5 725  C 1284.5 728.08  1282.08 730.5  1279 730.5  C 1275.92 730.5  1273.5 728.08  1273.5 725  C 1273.5 721.92  1275.92 719.5  1279 719.5  Z " stroke-width="1" stroke="#797979" fill="none" />
  <path d="M 1279 728  C 1277.32 728  1276 726.68  1276 725  C 1276 723.32  1277.32 722  1279 722  C 1280.68 722  1282 723.32  1282 725  C 1282 726.68  1280.68 728  1279 728  " fill-rule="nonzero" fill="#797979" stroke="none" />
</svg>