<?xml version="1.0" encoding="utf-8"?>
<svg version="1.1" xmlns:xlink="http://www.w3.org/1999/xlink" width="12px" height="12px" xmlns="http://www.w3.org/2000/svg">
  <g transform="matrix(1 0 0 1 -458 -534 )">
    <path d="M 464 534  C 467.36 534  470 536.64  470 540  C 470 543.36  467.36 546  464 546  C 460.64 546  458 543.36  458 540  C 458 536.64  460.64 534  464 534  Z " fill-rule="nonzero" fill="#ffffff" stroke="none" />
    <path d="M 464 534.5  C 467.08 534.5  469.5 536.92  469.5 540  C 469.5 543.08  467.08 545.5  464 545.5  C 460.92 545.5  458.5 543.08  458.5 540  C 458.5 536.92  460.92 534.5  464 534.5  Z " stroke-width="1" stroke="#797979" fill="none" />
  </g>
</svg>