<?xml version="1.0" encoding="utf-8"?>
<svg version="1.1" xmlns:xlink="http://www.w3.org/1999/xlink" width="12px" height="12px" viewBox="706 1770  12 12" xmlns="http://www.w3.org/2000/svg">
  <path d="M 712 1770  C 715.36 1770  718 1772.64  718 1776  C 718 1779.36  715.36 1782  712 1782  C 708.64 1782  706 1779.36  706 1776  C 706 1772.64  708.64 1770  712 1770  Z " fill-rule="nonzero" fill="#f0f0f0" stroke="none" />
  <path d="M 712 1770.5  C 715.08 1770.5  717.5 1772.92  717.5 1776  C 717.5 1779.08  715.08 1781.5  712 1781.5  C 708.92 1781.5  706.5 1779.08  706.5 1776  C 706.5 1772.92  708.92 1770.5  712 1770.5  Z " stroke-width="1" stroke="#797979" fill="none" />
  <path d="M 712 1779  C 710.32 1779  709 1777.68  709 1776  C 709 1774.32  710.32 1773  712 1773  C 713.68 1773  715 1774.32  715 1776  C 715 1777.68  713.68 1779  712 1779  " fill-rule="nonzero" fill="#797979" stroke="none" />
</svg>