<?xml version="1.0" encoding="utf-8"?>
<svg version="1.1" xmlns:xlink="http://www.w3.org/1999/xlink" width="12px" height="12px" viewBox="606 1770  12 12" xmlns="http://www.w3.org/2000/svg">
  <path d="M 612 1770  C 615.36 1770  618 1772.64  618 1776  C 618 1779.36  615.36 1782  612 1782  C 608.64 1782  606 1779.36  606 1776  C 606 1772.64  608.64 1770  612 1770  Z " fill-rule="nonzero" fill="#ffffff" stroke="none" />
  <path d="M 612 1770.5  C 615.08 1770.5  617.5 1772.92  617.5 1776  C 617.5 1779.08  615.08 1781.5  612 1781.5  C 608.92 1781.5  606.5 1779.08  606.5 1776  C 606.5 1772.92  608.92 1770.5  612 1770.5  Z " stroke-width="1" stroke="#797979" fill="none" />
  <path d="M 612 1779  C 610.32 1779  609 1777.68  609 1776  C 609 1774.32  610.32 1773  612 1773  C 613.68 1773  615 1774.32  615 1776  C 615 1777.68  613.68 1779  612 1779  " fill-rule="nonzero" fill="#797979" stroke="none" />
</svg>