<?xml version="1.0" encoding="utf-8"?>
<svg version="1.1" xmlns:xlink="http://www.w3.org/1999/xlink" width="12px" height="12px" viewBox="601 1806  12 12" xmlns="http://www.w3.org/2000/svg">
  <path d="M 607 1806  C 610.36 1806  613 1808.64  613 1812  C 613 1815.36  610.36 1818  607 1818  C 603.64 1818  601 1815.36  601 1812  C 601 1808.64  603.64 1806  607 1806  Z " fill-rule="nonzero" fill="#ffffff" stroke="none" />
  <path d="M 607 1806.5  C 610.08 1806.5  612.5 1808.92  612.5 1812  C 612.5 1815.08  610.08 1817.5  607 1817.5  C 603.92 1817.5  601.5 1815.08  601.5 1812  C 601.5 1808.92  603.92 1806.5  607 1806.5  Z " stroke-width="1" stroke="#797979" fill="none" />
  <path d="M 607 1815  C 605.32 1815  604 1813.68  604 1812  C 604 1810.32  605.32 1809  607 1809  C 608.68 1809  610 1810.32  610 1812  C 610 1813.68  608.68 1815  607 1815  " fill-rule="nonzero" fill="#797979" stroke="none" />
</svg>