<?xml version="1.0" encoding="utf-8"?>
<svg version="1.1" xmlns:xlink="http://www.w3.org/1999/xlink" width="12px" height="12px" viewBox="701 1806  12 12" xmlns="http://www.w3.org/2000/svg">
  <path d="M 707 1806  C 710.36 1806  713 1808.64  713 1812  C 713 1815.36  710.36 1818  707 1818  C 703.64 1818  701 1815.36  701 1812  C 701 1808.64  703.64 1806  707 1806  Z " fill-rule="nonzero" fill="#ffffff" stroke="none" />
  <path d="M 707 1806.5  C 710.08 1806.5  712.5 1808.92  712.5 1812  C 712.5 1815.08  710.08 1817.5  707 1817.5  C 703.92 1817.5  701.5 1815.08  701.5 1812  C 701.5 1808.92  703.92 1806.5  707 1806.5  Z " stroke-width="1" stroke="#797979" fill="none" />
  <path d="M 707 1815  C 705.32 1815  704 1813.68  704 1812  C 704 1810.32  705.32 1809  707 1809  C 708.68 1809  710 1810.32  710 1812  C 710 1813.68  708.68 1815  707 1815  " fill-rule="nonzero" fill="#797979" stroke="none" />
</svg>