<?xml version="1.0" encoding="utf-8"?>
<svg version="1.1" xmlns:xlink="http://www.w3.org/1999/xlink" width="12px" height="12px" viewBox="601 1846  12 12" xmlns="http://www.w3.org/2000/svg">
  <path d="M 607 1846  C 610.36 1846  613 1848.64  613 1852  C 613 1855.36  610.36 1858  607 1858  C 603.64 1858  601 1855.36  601 1852  C 601 1848.64  603.64 1846  607 1846  Z " fill-rule="nonzero" fill="#ffffff" stroke="none" />
  <path d="M 607 1846.5  C 610.08 1846.5  612.5 1848.92  612.5 1852  C 612.5 1855.08  610.08 1857.5  607 1857.5  C 603.92 1857.5  601.5 1855.08  601.5 1852  C 601.5 1848.92  603.92 1846.5  607 1846.5  Z " stroke-width="1" stroke="#797979" fill="none" />
  <path d="M 607 1855  C 605.32 1855  604 1853.68  604 1852  C 604 1850.32  605.32 1849  607 1849  C 608.68 1849  610 1850.32  610 1852  C 610 1853.68  608.68 1855  607 1855  " fill-rule="nonzero" fill="#797979" stroke="none" />
</svg>