<?xml version="1.0" encoding="utf-8"?>
<svg version="1.1" xmlns:xlink="http://www.w3.org/1999/xlink" width="10px" height="10px" xmlns="http://www.w3.org/2000/svg">
  <g transform="matrix(1 0 0 1 -1408 -267 )">
    <path d="M 1413 267  C 1415.8 267  1418 269.2  1418 272  C 1418 274.8  1415.8 277  1413 277  C 1410.2 277  1408 274.8  1408 272  C 1408 269.2  1410.2 267  1413 267  Z " fill-rule="nonzero" fill="#ffffff" stroke="none" />
    <path d="M 1413 267.5  C 1415.52 267.5  1417.5 269.48  1417.5 272  C 1417.5 274.52  1415.52 276.5  1413 276.5  C 1410.48 276.5  1408.5 274.52  1408.5 272  C 1408.5 269.48  1410.48 267.5  1413 267.5  Z " stroke-width="1" stroke="#797979" fill="none" />
  </g>
</svg>